<?xml version="1.0" standalone="no"?>
<!DOCTYPE svg PUBLIC "-//W3C//DTD SVG 1.1//EN" "http://www.w3.org/Graphics/SVG/1.1/DTD/svg11.dtd" >
<svg xmlns="http://www.w3.org/2000/svg">
<metadata></metadata>
<defs>
<font id="brandon_grotesque_regularRgIt" horiz-adv-x="899" >
<font-face units-per-em="2048" ascent="1536" descent="-512" />
<missing-glyph horiz-adv-x="454" />
<glyph horiz-adv-x="2048" />
<glyph horiz-adv-x="2048" />
<glyph unicode="&#xd;" horiz-adv-x="2048" />
<glyph unicode=" "  horiz-adv-x="454" />
<glyph unicode="&#x09;" horiz-adv-x="454" />
<glyph unicode="&#xa0;" horiz-adv-x="454" />
<glyph unicode="!" horiz-adv-x="606" d="M125 82q0 50 39 92q42 39 90 39q44 0 70 -29q28 -28 28 -73q0 -54 -39 -93q-38 -38 -92 -38q-39 0 -69 30q-27 34 -27 72zM258 590l41 571l33 234q4 17 12 26q13 13 27 13h110q13 0 23 -13q10 -14 8 -26l-33 -230l-123 -575q-3 -14 -16 -23q-10 -10 -23 -10h-28 q-10 0 -23 10q-8 12 -8 23z" />
<glyph unicode="&#x22;" horiz-adv-x="602" d="M168 1065l47 330q4 18 14 26q10 13 25 13h78q15 0 24 -15q6 -15 0 -37l-100 -325q-4 -14 -14 -21q-10 -10 -23 -10h-22q-14 0 -21 10q-12 12 -8 29zM453 1065l47 330q4 17 12 26q13 13 27 13h77q17 0 23 -15q9 -14 2 -37l-100 -325q-4 -14 -17 -21q-8 -10 -20 -10h-23 q-9 0 -22 10q-8 17 -6 29z" />
<glyph unicode="#" horiz-adv-x="1026" d="M70 438l2 15q0 17 12 26q13 13 27 13h143l92 350h-131q-12 0 -22 10q-12 16 -9 29l2 14q3 15 15 27t26 12h144l125 467q3 11 14 22t22 11h17q14 0 24 -13q5 -13 2 -32l-118 -455h280l121 467q3 12 16 22q15 11 25 11h12q14 0 27 -13q7 -17 2 -32l-119 -455h127 q17 0 23 -12q9 -12 6 -27l-2 -14q-4 -18 -12 -29q-10 -10 -25 -10h-141l-92 -350h129q12 0 22 -13q9 -9 6 -26l-2 -15q-3 -16 -12 -28q-15 -11 -25 -11h-145l-98 -366q-3 -11 -15 -23q-13 -10 -26 -10h-13q-14 0 -26 12q-7 18 -2 33l96 354h-283l-98 -366q-3 -14 -16 -23 q-10 -10 -23 -10h-12q-18 0 -27 12q-5 10 -2 33l94 354h-129q-13 0 -24 11q-8 10 -4 28zM338 492h283l92 350h-281z" />
<glyph unicode="$" horiz-adv-x="997" d="M45 172q-6 9 0 21q0 8 14 22l41 43q18 18 35 25q13 0 31 -15q101 -131 235 -149l76 528q-8 8 -47 33t-47 33q-3 3 -8.5 7t-15 11.5t-17.5 13.5q-27 19 -41 33q-6 8 -33 35q-20 19 -30 37q-17 28 -25 39q-15 31 -20 47q-1 5 -4.5 22t-4.5 27q-6 27 -6 55q0 60 23 134 q22 63 69 129q52 65 131 102q80 41 189 47l10 66q0 17 12 26q12 12 27 12h14q14 0 23 -12q9 -9 6 -26l-10 -66q145 -12 268 -102q38 -28 2 -70l-31 -35q-37 -45 -67 -18q-95 74 -191 86l-75 -535q65 -36 124 -78q45 -32 97 -84q46 -46 65 -104q23 -59 23 -131 q0 -167 -117 -281q-117 -111 -307 -120l-29 -211q-4 -18 -16 -27q-13 -10 -29 -10q-19 0 -27 10q-10 7 -10 27l31 215q-74 9 -129 32q-54 18 -102 54q-60 48 -64 51q-16 14 -33 35q-10 10 -10 16zM334 1059q0 -74 43 -129q38 -55 125 -107l69 492q-110 -15 -174 -94 q-63 -78 -63 -162zM483 119q95 12 164 84q72 69 72 162q0 71 -41 127q-34 50 -125 114z" />
<glyph unicode="%" horiz-adv-x="1261" d="M158 1141q0 130 84 223q84 90 207 90q90 0 151 -70q62 -71 62 -170q0 -128 -87 -221q-86 -92 -204 -92q-83 0 -150 70q-63 72 -63 170zM160 16q-9 17 4 39l823 1358q12 21 33 21h49q19 0 29 -17q6 -18 -6 -39l-828 -1358q-9 -20 -33 -20h-45q-20 0 -26 16zM272 1153 q0 -57 33 -96t82 -39q62 0 109 53t47 127q0 54 -31 96q-33 39 -80 39q-64 0 -113 -55q-47 -53 -47 -125zM614 221q0 131 84 221q84 93 207 93q91 0 152 -70t61 -170q0 -129 -86 -221t-205 -92q-87 0 -149 71q-64 67 -64 168zM729 233q0 -57 33 -96t82 -39q60 0 108 54 q47 53 47 127q0 58 -32 96q-29 39 -78 39q-63 0 -111 -54q-49 -55 -49 -127z" />
<glyph unicode="&#x26;" horiz-adv-x="1245" d="M121 303q0 46 10 98q10 43 31 86q10 22 47 78q23 32 53 62q23 27 57 53l58 43q7 5 24 16.5t27 18.5q2 1 5 3l4.5 3t2.5 2v4l-39 53q-52 72 -73 144q-22 75 -11 155q9 63 35 119q23 52 68 107q45 51 112 77q76 29 160 29q124 0 201 -80q78 -81 78 -192q0 -30 -6 -68 q-4 -20 -17 -59q-9 -28 -28 -56q-24 -37 -35 -49q-10 -17 -41 -45q-25 -28 -41 -41q-9 -11 -45 -39q-40 -28 -45 -30q-3 -2 -43 -29q-21 -16 -37 -27l237 -327q41 65 76 166q39 110 53 200q3 28 13 35q9 6 32 6h68q33 0 27 -47q-14 -108 -66 -246q-51 -136 -110 -221 l149 -192q8 -10 14 -23q4 -8 7 -20q2 -10 -9 -25q-7 -10 -28 -27l-27 -20q-47 -35 -76 8l-123 168l-22 -22q-11 -12 -55 -46q-37 -30 -88 -59q-45 -26 -115 -47q-67 -20 -139 -20q-140 0 -236 96q-94 94 -94 227zM266 319q0 -93 53 -149q52 -55 146 -55q51 0 104 16 q50 16 90 45q34 20 70 49q36 32 45 41l14 19l-270 389l-63 -45q-28 -20 -64 -56q-48 -45 -63 -69q-28 -40 -43 -82q-19 -52 -19 -103zM453 1118q-9 -64 8 -114q18 -54 65 -117l35 -45q9 9 47 30q60 42 62 43q30 25 55 48q41 38 53 57q24 32 33 63q16 36 16 78q0 69 -43 121 q-42 51 -118 51q-81 0 -142 -61q-56 -62 -71 -154z" />
<glyph unicode="'" horiz-adv-x="317" d="M168 1065l47 330q4 18 14 26q10 13 25 13h78q15 0 24 -15q6 -15 0 -37l-100 -325q-4 -14 -14 -21q-10 -10 -23 -10h-22q-14 0 -21 10q-12 12 -8 29z" />
<glyph unicode="(" horiz-adv-x="665" d="M121 426q0 178 22 338q24 153 68 262q45 113 98 191q53 79 121 131q64 49 131 73q67 26 131 29q31 3 31 -20l-4 -56q0 -13 -6 -22q-10 -10 -19 -13q-430 -94 -430 -917q0 -200 60 -320q56 -124 176 -151q10 -3 12 -12q6 -5 2 -23l-12 -55q-6 -24 -37 -21q-47 3 -96 25 q-50 22 -95 65q-41 44 -77 111q-37 68 -54 164q-22 91 -22 221z" />
<glyph unicode=")" horiz-adv-x="665" d="M-35 -139l4 55q0 14 6 23t19 12q430 94 430 917q0 202 -59 320q-56 124 -177 151q-10 3 -12 13q-5 5 -2 22l12 56q6 23 37 20q43 -3 96 -25t91 -65q40 -35 82 -111q38 -77 53 -164q22 -91 22 -221q0 -178 -22 -338q-24 -153 -68 -262q-44 -110 -98 -190 q-53 -79 -121 -131q-67 -51 -131 -74q-67 -26 -131 -29q-31 -3 -31 21z" />
<glyph unicode="*" horiz-adv-x="632" d="M137 991q-18 35 19 56l153 96l-131 96q-24 18 0 53l21 27q24 34 47 8l114 -100l21 170q0 17 12 26q15 11 27 11h31q9 0 24 -11q7 -11 4 -26l-26 -168l139 102q28 16 47 -12l12 -23q7 -12 4 -28q-7 -17 -20 -25l-158 -100l131 -101q10 -10 10 -24q0 -18 -8 -29l-18 -22 q-14 -17 -27 -17q-15 -5 -24 4l-113 101l-20 -166q-4 -17 -15 -29q-10 -10 -24 -10h-31q-16 0 -23 10q-9 12 -6 29l27 168l-139 -99q-10 -8 -25 -4q-9 2 -20 17z" />
<glyph unicode="+" horiz-adv-x="937" d="M98 682l8 57q4 17 13 27q12 12 26 12h287l45 324q0 17 15 26q15 11 26 11h64q13 0 20 -11q11 -9 8 -26l-45 -324h287q14 0 20 -12q12 -12 9 -27l-9 -57q-4 -19 -12 -27q-12 -12 -26 -12h-287l-45 -321q0 -18 -15 -27q-13 -10 -26 -10h-64q-12 0 -22 10q-8 8 -8 27l47 321 h-287q-15 0 -21 12q-11 11 -8 27z" />
<glyph unicode="," horiz-adv-x="468" d="M6 -326q-15 19 12 43q20 16 33 29q20 20 47 51q36 46 52 84q23 53 28 101q-4 -2 -28 -2q-43 0 -70 30q-29 32 -29 72q0 50 39 92q39 39 94 39q45 0 78 -33q31 -36 31 -106q0 -61 -23 -135q-24 -70 -61 -125q-37 -59 -70 -95q-22 -30 -67 -69q-28 -28 -43 -4z" />
<glyph unicode="-" horiz-adv-x="800" d="M156 487l6 39q3 16 14 27q12 12 27 12h391q15 0 24 -12q9 -9 5 -27l-7 -39q-3 -15 -14 -26q-13 -10 -27 -10h-389q-13 0 -26 10q-7 11 -4 26z" />
<glyph unicode="." horiz-adv-x="452" d="M51 82q0 50 39 92q42 39 90 39q44 0 70 -29q29 -29 29 -73q0 -54 -39 -93q-38 -38 -93 -38q-39 0 -69 30q-27 34 -27 72z" />
<glyph unicode="/" horiz-adv-x="634" d="M12 14q-9 15 0 37l553 1356q12 27 37 27h55q21 0 27 -15q9 -15 0 -37l-551 -1355q-12 -27 -37 -27h-57q-19 0 -27 14z" />
<glyph unicode="0" horiz-adv-x="1214" d="M158 518q0 270 67 471q68 203 197 314q130 112 305 112q166 0 266 -145q99 -144 99 -391q0 -268 -68 -469q-64 -200 -195 -316q-127 -112 -305 -112q-170 0 -270 145q-96 146 -96 391zM307 522q0 -189 62 -301q59 -106 174 -106q122 0 215 96q91 97 137 266 q47 171 47 395q0 195 -61 302q-59 108 -174 108q-122 0 -215 -96q-92 -99 -138 -268q-47 -174 -47 -396z" />
<glyph unicode="1" horiz-adv-x="641" d="M143 1073q-8 14 15 41l297 279h63q10 0 23 -13q8 -16 6 -26l-187 -1315q-4 -19 -12 -27q-12 -12 -26 -12h-80q-16 0 -25 12q-9 10 -6 27l156 1100l-154 -115q-28 -21 -41 2z" />
<glyph unicode="2" horiz-adv-x="987" d="M16 39l9 61l526 539q231 237 231 412q0 89 -53 157q-54 66 -162 66q-126 0 -274 -154q-25 -24 -49 0l-39 39q-8 8 -8 25q0 16 12 28q6 9 18 21q4 4 52 49q55 44 81 61q41 25 107 50q68 20 123 20q167 0 258 -98q92 -100 92 -242q0 -75 -18 -143q-22 -74 -66 -135 q-60 -83 -88 -117q-39 -47 -117 -125l-409 -420h526q13 0 23 -10q11 -15 8 -29l-8 -55q0 -17 -13 -27q-15 -12 -28 -12h-705q-16 0 -25 12q-8 8 -4 27z" />
<glyph unicode="3" horiz-adv-x="1017" d="M37 186q7 19 16 25l58 41q26 17 47 -10q4 -6 26 -33q21 -21 49 -43q31 -28 78 -43q56 -17 101 -17q119 0 206 78q87 75 87 207q0 103 -70 170q-70 70 -211 70h-102q-35 0 -29 45l6 49q3 24 14 35q10 10 31 10h102q154 0 236 82q84 84 84 205q0 100 -57 160 q-58 61 -142 61q-132 0 -250 -133q-25 -25 -49 -4l-47 39q-8 8 -8 24q7 20 16 29q2 3 8 9.5t9 10.5q8 11 45 43q53 42 76 56q51 26 96 41q59 20 119 20q143 0 243 -92q99 -91 99 -250q0 -57 -23 -121q-23 -56 -61 -106q-44 -51 -78 -78q-34 -32 -78 -51v-6q64 -35 123 -117 q55 -82 55 -182q0 -185 -129 -308q-125 -122 -342 -122q-225 0 -348 182q-6 6 -6 24z" />
<glyph unicode="4" horiz-adv-x="1105" d="M8 354l10 76l832 973q12 12 29 12h47q11 0 24 -10q7 -14 4 -29l-129 -936h150q14 0 24 -10q8 -12 5 -27l-7 -45q-4 -18 -14 -26q-13 -13 -27 -13h-147l-39 -280q-4 -18 -16 -27q-12 -12 -25 -12h-78q-12 0 -24 12q-7 13 -4 27l39 276h-623q-15 0 -25 13q-9 12 -6 26z M193 442h493l100 709z" />
<glyph unicode="5" horiz-adv-x="1019" d="M66 188q0 17 20 31l49 39q16 13 25 10q13 -3 26 -22q79 -135 242 -135q95 0 170 57q80 61 121 145q43 87 43 183q0 105 -62 176q-60 69 -178 69h-282q-23 0 -39 23q-11 20 -8 49l77 541q3 16 13 26q13 13 26 13h561q14 0 27 -13q7 -13 4 -26l-10 -60q-3 -13 -14 -28 q-11 -11 -25 -11h-459l-53 -376h205q177 0 274 -97q96 -93 96 -258q0 -151 -63 -274q-62 -124 -178 -197t-260 -73q-65 0 -127 16q-55 17 -99 45q-36 22 -65 55q-29 29 -43 54q-16 23 -14 38z" />
<glyph unicode="6" horiz-adv-x="1038" d="M104 440q0 125 31 252q30 118 78 209q51 94 117 172q62 76 135 139q62 54 141 107q99 60 131 74q57 29 109 47q30 13 39 -21l18 -55q12 -41 -41 -59q-27 -8 -80 -37q-41 -22 -116 -74q-68 -47 -131 -104q-71 -64 -121 -136q-59 -70 -88 -153l16 10l19 9.5t24 13.5 q31 16 61 26q51 18 78 23q48 10 84 10q142 0 240 -107q96 -107 96 -272q0 -101 -39 -207q-48 -110 -106 -170q-58 -66 -152 -114q-90 -43 -184 -43q-121 0 -205 63q-84 68 -119 166q-35 100 -35 231zM252 459q-3 -84 16 -164q18 -76 74 -129q54 -51 139 -51q127 0 221 110 q97 117 97 262q0 118 -66 193q-62 80 -162 80q-33 0 -67 -6q-42 -11 -62 -21q-29 -12 -55 -26q-29 -16 -47 -29q-12 -8 -35 -27q-15 -9 -22 -16l-9 -8q-19 -73 -22 -168z" />
<glyph unicode="7" horiz-adv-x="884" d="M82 29l4 32l682 1194h-592q-13 0 -20 11q-12 12 -9 28l9 60q0 17 12 26q16 13 29 13h743q13 0 23 -13q10 -14 8 -26l-2 -15l-742 -1306q-13 -22 -20 -27q-9 -6 -27 -6h-67q-15 0 -23 8t-8 21z" />
<glyph unicode="8" horiz-adv-x="1095" d="M98 322q0 67 29 143q25 64 74 117q51 51 90 82q34 27 84 53v6q-57 33 -105 108q-45 76 -45 166q0 179 127 297q128 119 314 119q150 0 243 -90q95 -89 95 -233q0 -65 -23 -132q-19 -57 -59 -106q-39 -45 -78 -78q-34 -32 -78 -51l-2 -6q65 -35 121 -115q57 -83 57 -188 q0 -117 -59 -217q-59 -99 -170 -158q-112 -59 -250 -59q-168 0 -266 98q-99 94 -99 244zM254 326q0 -100 65 -162q62 -62 160 -62q125 0 217 80q88 82 88 209q0 88 -59 162q-63 69 -166 84q-135 -15 -221 -107q-84 -90 -84 -204zM377 995q0 -84 49 -139q53 -56 154 -68 q132 15 202 91q68 77 68 192q0 101 -57 158q-58 61 -150 61q-105 0 -186 -84q-80 -83 -80 -211z" />
<glyph unicode="9" horiz-adv-x="1036" d="M131 879q0 223 143 378q141 156 338 156q115 0 199 -63q83 -67 121 -166q39 -95 39 -230q0 -128 -31 -252q-29 -117 -78 -210q-49 -94 -114 -173q-59 -73 -136 -139q-66 -57 -143 -104l-131 -76q-39 -19 -109 -47q-33 -12 -39 20l-18 56q-9 42 41 59q27 8 80 37 q46 25 117 74q67 44 133 104q65 59 121 135q59 77 86 154l-17 -10l-43 -25q-46 -21 -59 -25q-45 -16 -78 -22q-48 -10 -84 -10q-138 0 -238 106t-100 273zM279 905q0 -117 63 -192q65 -80 162 -80q49 0 92 14q46 12 84 33q48 29 61 39q30 18 45 33l17 14q19 73 22 168 q3 87 -18 164q-18 76 -74 129q-54 51 -139 51q-124 0 -219 -111q-96 -116 -96 -262z" />
<glyph unicode=":" horiz-adv-x="509" d="M78 82q0 54 41 92q36 39 88 39q40 0 72 -29q26 -32 26 -73q0 -54 -39 -93q-38 -38 -92 -38q-44 0 -68 30q-28 28 -28 72zM166 709q0 50 39 92q42 39 90 39q44 0 70 -29q28 -28 28 -74q0 -53 -39 -92t-92 -39q-38 0 -69 31q-27 34 -27 72z" />
<glyph unicode=";" horiz-adv-x="520" d="M29 -326q-15 19 12 43q20 16 33 29q23 23 45 51q34 39 53 84q24 56 29 101q-4 -2 -29 -2q-43 0 -70 30q-28 31 -28 72q0 54 41 92q36 39 92 39q47 0 76 -33q32 -32 32 -106q0 -68 -24 -135q-18 -61 -58 -125q-14 -21 -69 -95q-39 -42 -70 -69q-28 -28 -43 -4zM168 709 q0 54 41 92q36 39 88 39q40 0 72 -29q26 -33 26 -74q0 -53 -39 -92t-92 -39q-42 0 -67 31q-29 29 -29 72z" />
<glyph unicode="&#x3c;" horiz-adv-x="831" d="M35 465l2 14q3 16 24 31l689 434q24 15 43 6q17 -11 14 -39l-10 -80q-3 -19 -31 -38l-528 -330l438 -313q21 -12 18 -39l-12 -78q-3 -25 -27 -31q-22 -7 -37 8l-567 420q-20 14 -16 35z" />
<glyph unicode="=" horiz-adv-x="983" d="M139 326l11 63q4 19 14 29t24 10h560q14 0 24 -10q9 -12 6 -29l-10 -63q-4 -19 -12 -27q-9 -12 -27 -12h-559q-16 0 -25 12t-6 27zM201 758l8 61q3 16 16 29q10 10 25 10h559q15 0 22 -10q10 -13 7 -29l-9 -61q-4 -19 -14 -29q-13 -10 -27 -10h-559q-13 0 -20 10 q-11 11 -8 29z" />
<glyph unicode="&#x3e;" horiz-adv-x="829" d="M-2 41l10 80q3 25 29 39l530 317l-438 330q-23 20 -20 39l10 65q3 26 24 37q25 9 43 -4l566 -434q19 -14 16 -31l-2 -16q-4 -18 -27 -33l-686 -420q-23 -15 -41 -4q-17 9 -14 35z" />
<glyph unicode="?" horiz-adv-x="888" d="M201 1212q-24 21 0 62q10 16 20 29q12 16 43 43q45 39 72 51q35 23 98 41q66 16 133 16q124 0 207 -74q80 -77 80 -196q0 -51 -14 -94q-15 -47 -33 -74q-15 -30 -51 -66q-35 -38 -56 -53l-63 -47q-42 -29 -68 -51q-22 -15 -45 -49q-25 -36 -28 -68l-13 -84 q-3 -21 -16 -31t-27 -10h-67q-15 0 -21 12q-8 8 -8 27l12 86q2 26 17 63q9 26 22 52q6 13 35 45q29 29 37 35q3 4 41 34q9 7 18.5 15t14 11.5t6.5 4.5q1 1 37 29q27 21 39 30q4 3 14.5 14t17.5 17q17 17 29 41q4 6 16 43q9 27 9 58q0 66 -45 108q-45 45 -121 45 q-35 0 -66 -8q-14 -4 -55 -19q-23 -12 -45 -28q-24 -18 -37 -31l-33 -33q-12 -14 -22 -24q-25 -24 -47 -2zM246 82q0 54 41 92q36 39 88 39q39 0 71 -29q27 -34 27 -73q0 -54 -39 -93q-38 -38 -92 -38q-44 0 -68 30q-28 28 -28 72z" />
<glyph unicode="@" horiz-adv-x="1837" d="M74 147q-21 141 0 310q31 222 114 399q79 184 207 318t297 206q171 74 369 74q176 0 315 -65t226 -181q82 -113 118 -274q34 -155 9 -344q-10 -68 -35 -168q-18 -70 -64 -164q-41 -83 -92 -143q-53 -60 -125 -99q-71 -36 -160 -36q-79 0 -127 45q-42 48 -57 114h-2 q-43 -68 -115 -112q-77 -47 -157 -47q-145 0 -220 118q-76 119 -49 314q26 194 142 313q118 115 260 115q49 0 100 -23q49 -21 72 -47l20 -22l15 40q10 23 16 27q8 4 27 4h39q11 0 20 -12q8 -11 8 -27l-59 -436q-15 -126 10 -184q24 -62 80 -62q109 0 203 131 q94 135 123 361q21 160 0 295q-23 130 -91 237q-64 102 -184 160q-117 57 -278 57q-331 0 -562 -237q-227 -233 -286 -645q-41 -282 61 -490q102 -203 309 -309q17 -11 21 -23q3 -13 -6 -28l-29 -56q-19 -31 -47 -16q-116 58 -207 146q-95 98 -149 206q-59 119 -80 260z M659 319q0 -98 43 -153t109 -55q80 0 147 73q67 76 84 144l37 252l-1 4q-1 5 -1 10q-2 2 -7.5 12t-10.5 17q-13 17 -31 36q-17 17 -47 29q-28 14 -66 14q-99 0 -178 -104q-78 -104 -78 -279z" />
<glyph unicode="A" horiz-adv-x="1239" d="M-53 16q-2 5 -2 12q0 11 6 25l756 1379q13 22 34 22h19q19 0 28 -22l365 -1379q1 -5 1 -9q0 -17 -9 -28q-13 -16 -31 -16h-86q-11 0 -20 6q-7 5 -11 17l-82 337h-639l-174 -337q-13 -23 -39 -23h-88q-18 0 -28 16zM352 487h525l-162 672h-13z" />
<glyph unicode="B" horiz-adv-x="1189" d="M129 39l190 1356q3 16 17 26q10 13 24 13h408q148 0 240 -95q90 -96 90 -231q0 -68 -21 -129q-23 -66 -57 -109q-44 -54 -74 -82q-46 -39 -82 -59q75 -38 127 -108q53 -71 53 -179q0 -194 -126 -317q-122 -125 -334 -125h-424q-16 0 -25 12q-7 8 -7 19q0 4 1 8zM295 137 h317q108 0 183 84q77 83 77 207q0 94 -61 158q-63 63 -158 63h-286zM389 791h285q109 0 180 86q70 88 70 215q0 92 -47 145q-43 55 -134 55h-282z" />
<glyph unicode="C" horiz-adv-x="1331" d="M125 616q0 172 59 326q57 148 162 266q102 114 248 181q142 65 307 65q133 0 234 -49q96 -45 186 -141q10 -8 10 -29q-8 -23 -16 -29l-60 -47q-16 -13 -26 -10q-13 3 -27 20q-52 59 -141 99q-85 39 -180 39q-115 0 -224 -56q-107 -55 -188 -145q-79 -88 -129 -215 q-47 -127 -47 -256q0 -133 51 -250q59 -120 152 -184q93 -72 219 -72q49 0 104 10q42 11 94 41q50 27 78 49q16 11 80 60q29 22 45 6l64 -62q11 -11 8 -28q-3 -13 -17 -27q-207 -198 -477 -198q-149 0 -282 86q-132 82 -209 231q-78 150 -78 319z" />
<glyph unicode="D" horiz-adv-x="1413" d="M129 39l190 1356q3 16 13 26q13 13 26 13h416q157 0 285 -91q129 -86 198 -229q72 -141 72 -303q0 -136 -39 -254q-38 -125 -106 -223q-66 -96 -162 -176q-91 -76 -209 -117t-240 -41h-417q-15 0 -21 12q-7 5 -7 17q0 4 1 10zM299 141h264q123 0 230 52q109 50 190 137 q82 91 127 211q47 127 47 266q0 212 -117 350q-119 137 -313 137h-266z" />
<glyph unicode="E" horiz-adv-x="1122" d="M129 39l190 1356q3 16 13 26q13 13 26 13h732q14 0 24 -13q5 -7 5 -17q0 -4 -1 -9l-8 -60q-3 -16 -12 -28q-15 -11 -29 -11h-606l-72 -499h518q10 0 25 -11q7 -14 4 -28l-8 -60q0 -17 -12 -26q-13 -13 -27 -13h-518l-74 -522h608q16 0 23 -10q9 -12 6 -29l-8 -59 q-4 -19 -15 -27q-12 -12 -26 -12h-729q-16 0 -25 12q-5 5 -5 16q0 5 1 11z" />
<glyph unicode="F" horiz-adv-x="1081" d="M129 39l190 1356q3 16 13 26q13 13 26 13h732q14 0 24 -13q5 -7 5 -17q0 -4 -1 -9l-8 -60q-3 -16 -12 -28q-15 -11 -29 -11h-606l-80 -561h518q12 0 25 -10q7 -14 4 -29l-8 -59q0 -17 -13 -27q-15 -12 -28 -12h-516l-80 -559q-4 -19 -15 -27q-9 -12 -24 -12h-88 q-16 0 -25 12q-5 5 -5 16q0 5 1 11z" />
<glyph unicode="G" horiz-adv-x="1384" d="M125 616q0 169 59 326q57 148 162 266q102 114 248 181q142 65 307 65q133 0 234 -49q98 -45 188 -141q11 -8 11 -22q0 -3 -1 -7q-4 -22 -16 -29l-72 -59q-16 -13 -26 -10q-14 5 -27 20q-51 60 -137 105q-80 45 -170 45q-112 0 -223 -54q-107 -55 -189 -143 q-81 -93 -129 -213q-47 -127 -47 -256q0 -131 51 -252q54 -113 150 -188q98 -70 219 -70q57 0 104 8q48 8 88 21q54 20 70 28q39 17 45 21q13 8 18 8l41 293h-202q-15 0 -25 10q-7 10 -4 27l10 69q0 18 15 27q12 12 26 12h324q9 0 22 -10q8 -12 6 -24l-65 -478 q-3 -21 -21 -32q-3 -1 -10.5 -6t-11.5 -7q-18 -12 -68 -32q-69 -32 -102 -41q-64 -18 -129 -31q-71 -14 -154 -14q-115 0 -219 49q-101 49 -184 135q-76 88 -121 205q-45 113 -45 247z" />
<glyph unicode="H" horiz-adv-x="1447" d="M129 39l190 1356q3 16 17 26q13 13 24 13h89q14 0 24 -13q9 -12 6 -26l-86 -598h725l84 598q3 14 15 26q13 13 26 13h88q12 0 25 -13q5 -9 5 -18q0 -4 -1 -8l-191 -1356q-4 -19 -14 -27q-9 -12 -25 -12h-88q-15 0 -24 12t-6 27l88 620h-725l-88 -620q-3 -18 -13 -27 q-12 -12 -26 -12h-88q-14 0 -23 12q-9 9 -9 20q0 4 1 7z" />
<glyph unicode="I" horiz-adv-x="565" d="M129 39l190 1356q3 16 13 26q13 13 26 13h91q12 0 22 -13q7 -9 7 -19q0 -3 -1 -7l-190 -1356q-3 -18 -13 -27q-12 -12 -26 -12h-90q-17 0 -23 12q-7 5 -7 17q0 4 1 10z" />
<glyph unicode="J" horiz-adv-x="790" d="M-82 158q0 12 12 24l45 41q14 11 28 11q19 0 36 -23q24 -35 72 -64q45 -28 102 -28q78 0 147 78q74 77 95 227l137 971q4 18 14 26q10 13 27 13h88q14 0 24 -13q5 -12 5 -21v-5l-136 -967q-35 -235 -135 -338q-98 -110 -276 -110q-49 0 -105 16q-40 11 -86 41 q-3 3 -25 21.5t-30 27.5q-23 19 -35 41q-6 10 -6 20q0 5 2 11z" />
<glyph unicode="K" horiz-adv-x="1171" d="M131 49l188 1335q3 19 19 35q15 15 33 15h69q19 0 31 -15q11 -14 8 -35l-82 -579l643 608q15 21 37 21h107q23 0 37 -21q1 -5 1 -11q0 -18 -16 -34l-667 -627l485 -688q11 -8 2 -33q-10 -20 -37 -20h-98q-7 0 -19 4q-8 3 -12 10l-477 686l-92 -651q-3 -19 -19 -35 q-14 -14 -32 -14h-70q-23 0 -31 14t-8 29v6z" />
<glyph unicode="L" horiz-adv-x="919" d="M129 39l190 1356q3 16 17 26q10 13 24 13h89q12 0 22 -13q10 -14 8 -26l-178 -1258h522q14 0 21 -10q9 -8 9 -20q0 -4 -1 -9l-8 -59q-3 -17 -17 -27q-9 -12 -24 -12h-643q-16 0 -25 12q-7 8 -7 19q0 4 1 8z" />
<glyph unicode="M" horiz-adv-x="1624" d="M35 49l428 1376q10 29 43 29h29q33 0 36 -22l199 -1125h4l518 1125q13 22 39 22h29q18 0 26 -8q11 -11 11 -21l45 -1376q0 -22 -12 -37q-12 -12 -35 -12h-72q-19 0 -27 8q-10 10 -10 21l-20 1024h-2l-482 -1051q-13 -22 -39 -22h-26q-34 0 -37 22l-188 1069h-3 l-309 -1042q-10 -29 -43 -29h-71q-23 0 -29 14q-5 8 -5 18q0 8 3 17z" />
<glyph unicode="N" horiz-adv-x="1466" d="M129 39l193 1378q0 19 14 27q13 10 31 10h51l659 -1149h2l154 1090q4 19 16 26q13 13 31 13h66q16 0 26 -13q10 -14 8 -26l-194 -1379q0 -17 -15 -26q-13 -10 -30 -10h-51l-662 1169h-4l-150 -1110q0 -19 -14 -27q-15 -12 -33 -12h-65q-15 0 -27 12q-7 10 -7 20q0 3 1 7z " />
<glyph unicode="O" horiz-adv-x="1552" d="M127 715q26 198 137 372q105 165 275 269q165 98 356 98q131 0 248 -57q122 -64 194 -160q80 -103 113 -236q22 -81 22 -172q0 -55 -8 -114q-21 -153 -88 -289q-72 -138 -170 -233q-100 -97 -233 -156q-129 -57 -277 -57q-136 0 -250 57q-113 58 -192 156 q-79 106 -111 235q-24 87 -24 180q0 52 8 107zM272 715q-7 -49 -7 -96q0 -108 36 -201q53 -136 160 -215q109 -80 252 -80q141 0 274 80q127 77 221 215q91 147 111 297q8 53 8 103q0 104 -35 194q-52 140 -162 219q-112 80 -251 80q-140 0 -273 -80t-221 -217 q-93 -145 -113 -299z" />
<glyph unicode="P" horiz-adv-x="1134" d="M129 39l190 1356q3 16 17 26q10 13 24 13h412q154 0 252 -119q102 -117 102 -277q0 -142 -65 -260q-62 -117 -176 -188q-110 -70 -240 -70h-291l-67 -481q-3 -17 -17 -27q-12 -12 -24 -12h-86q-16 0 -25 12q-7 8 -7 19q0 4 1 8zM375 668h280q124 0 217 106q97 111 97 250 q0 105 -66 180q-65 74 -162 74h-280z" />
<glyph unicode="Q" horiz-adv-x="1554" d="M129 715q21 153 88 289q72 138 170 233q95 95 231 160q139 57 277 57q131 0 248 -57q122 -64 194 -160q80 -103 113 -236q24 -87 24 -179q0 -53 -8 -107q-35 -225 -166 -406q-132 -182 -321 -268l162 -385q9 -21 -2 -41q-12 -21 -43 -21h-86q-25 0 -39 33l-140 363 q-58 -10 -135 -10q-134 0 -245 57q-120 62 -193 156q-79 102 -115 235q-22 82 -22 173q0 55 8 114zM274 715q-8 -52 -8 -101q0 -104 35 -196q53 -136 160 -215q109 -80 252 -80q141 0 274 80q132 80 221 215q93 145 113 297q7 50 7 97q0 108 -36 200q-52 140 -162 219 q-112 80 -251 80q-140 0 -273 -80q-128 -77 -221 -217q-92 -148 -111 -299z" />
<glyph unicode="R" horiz-adv-x="1253" d="M129 39l190 1356q3 16 13 26q13 13 26 13h461q163 0 266 -115q105 -114 105 -285q0 -150 -92 -280q-95 -130 -244 -176l178 -519q8 -19 -2 -39q-9 -20 -33 -20h-100q-7 0 -16 6q-7 5 -11 12l-168 543h-344l-73 -522q-4 -19 -15 -27q-9 -12 -24 -12h-88q-16 0 -25 12 q-5 5 -5 16q0 5 1 11zM381 696h334q131 0 223 99q90 101 90 237q0 102 -65 176q-64 76 -164 76h-334z" />
<glyph unicode="S" horiz-adv-x="1026" d="M59 172q-2 4 -1.5 9.5t1.5 11.5q3 11 15 22l32 35q15 15 33 24q16 0 33 -14q125 -143 295 -143q102 0 184 76q82 73 82 172q0 64 -33 114q-37 56 -86 94q-62 48 -147 95q-85 49 -115 73q-43 30 -82 78q-40 40 -59 99q-18 52 -18 122q0 54 12 109q17 64 49 111 q27 49 82 98q46 40 127 69q77 27 174 27q186 0 317 -104q17 -12 17 -30q0 -17 -15 -40l-22 -33q-23 -29 -44 -29q-13 0 -24 11q-35 30 -108 61q-79 27 -135 27q-65 0 -121 -27q-55 -24 -88 -65q-31 -39 -49 -82q-17 -53 -17 -84q0 -84 51 -144q52 -61 156 -116 q77 -43 113 -66q26 -13 94 -65q60 -56 74 -80q29 -39 47 -92q18 -52 18 -115q0 -174 -121 -289q-118 -112 -327 -112q-78 0 -152 22q-68 20 -121 57q-30 21 -71 56q-7 8 -20.5 21.5t-18.5 19.5q-6 6 -11 16z" />
<glyph unicode="T" horiz-adv-x="890" d="M123 1335l8 60q3 17 12 26q13 13 27 13h786q16 0 23 -13q7 -9 7 -19q0 -3 -1 -7l-8 -60q-3 -17 -14 -28q-15 -11 -27 -11h-313l-177 -1257q-4 -18 -16 -27q-12 -12 -24 -12h-87q-13 0 -22 12q-11 11 -8 27l176 1257h-313q-14 0 -25 11q-5 7 -5 17q0 5 1 11z" />
<glyph unicode="U" horiz-adv-x="1359" d="M182 528l121 867q3 16 16 26q13 13 25 13h88q16 0 23 -13q9 -12 6 -26l-119 -854q-6 -45 -6 -85q0 -124 55 -214q73 -117 225 -117q155 0 261 121q111 117 135 291l121 858q4 18 14 26q10 13 24 13h89q12 0 22 -13q7 -9 7 -19q0 -3 -1 -7l-121 -867q-15 -119 -61 -217 q-48 -102 -115 -172q-71 -77 -172 -119q-98 -40 -221 -40q-135 0 -238 71q-105 70 -151 199q-33 88 -33 188q0 44 6 90z" />
<glyph unicode="V" horiz-adv-x="1241" d="M129 1380q-1 6 -1 11q0 15 7 26q14 17 33 17h84q12 0 18 -9q8 -5 11 -14l282 -1143h8l603 1143q10 23 34 23h101q19 0 26 -17q4 -6 4 -13q0 -11 -8 -24l-756 -1378q-13 -22 -34 -22h-19q-17 0 -26 22z" />
<glyph unicode="W" horiz-adv-x="1687" d="M195 1384q-1 4 -1 9q0 15 9 26q12 15 30 15h86q12 0 21 -9q7 -7 10 -20l96 -1057h7l458 1084q9 22 35 22h33q26 0 29 -22l157 -1084h6l392 1057q2 8 14 20q12 9 22 9h99q20 0 26 -15q4 -8 4 -16.5t-4 -18.5l-542 -1376q-9 -28 -37 -28h-29q-26 0 -29 22l-165 1104h-9 l-471 -1104q-9 -22 -34 -22h-29q-28 0 -31 28z" />
<glyph unicode="X" horiz-adv-x="1120" d="M4 16q-4 5 -4 11q0 10 10 24l475 684l-274 651q-8 18 2 35q10 13 33 13h98q20 0 29 -19l219 -555h2l369 555q13 19 34 19h113q21 0 31 -17q3 -6 3 -13q0 -11 -9 -24l-453 -645l281 -684q8 -19 0 -35q-11 -16 -33 -16h-101q-22 0 -28 18l-226 590h-4l-397 -590 q-12 -18 -35 -18h-102q-25 0 -33 16z" />
<glyph unicode="Y" horiz-adv-x="1060" d="M115 1417q9 17 30 17h95q18 0 28 -19l285 -584h4l455 584q16 19 32 19h99q22 0 28 -21q2 -6 2 -11q0 -14 -10 -28l-540 -682l-93 -653q0 -19 -14 -27q-12 -12 -27 -12h-86q-15 0 -24 12q-9 10 -6 27l92 651l-348 694q-5 10 -5 19q0 7 3 14z" />
<glyph unicode="Z" horiz-adv-x="1009" d="M-8 39l4 37l827 1214h-567q-15 0 -25 13q-9 12 -6 26l11 66q3 15 14 26q13 13 26 13h750q13 0 23 -13q7 -9 7 -19q0 -3 -1 -7l-4 -27l-834 -1225h590q15 0 24 -12q10 -13 7 -27l-11 -65q-4 -18 -16 -27q-9 -12 -25 -12h-766q-12 0 -24 12q-5 9 -5 19q0 4 1 8z" />
<glyph unicode="[" horiz-adv-x="630" d="M-6 -575l278 1970q3 17 15 26q10 13 24 13h357q14 0 20 -13q11 -11 8 -26l-6 -52q0 -17 -14 -28q-13 -10 -27 -10h-252l-252 -1790h252q14 0 21 -11q11 -11 8 -26l-6 -53q0 -19 -14 -27q-12 -12 -27 -12h-354q-14 0 -23 12q-11 14 -8 27z" />
<glyph unicode="\" horiz-adv-x="630" d="M168 1382q-3 24 8 35q11 17 31 17h65q12 0 21 -9q6 -6 10 -18l170 -1356q3 -24 -10 -35q-11 -16 -31 -16h-67q-11 0 -19 8q-10 10 -10 19z" />
<glyph unicode="]" horiz-adv-x="632" d="M-111 -575l9 53q3 16 16 26q11 11 25 11h249l252 1790h-250q-14 0 -24 10q-9 12 -6 28l8 52q3 15 14 26q10 13 25 13h356q10 0 23 -13q8 -16 6 -26l-277 -1970q-4 -18 -16 -27q-12 -12 -25 -12h-354q-15 0 -24 12q-10 13 -7 27z" />
<glyph unicode="^" horiz-adv-x="966" d="M106 836q-3 17 13 36l452 570q14 20 35 20h10q20 0 29 -20l287 -580q9 -19 -2 -33q-6 -14 -31 -14h-76q-20 0 -30 23l-205 426h-8l-326 -426q-20 -23 -37 -23h-82q-23 0 -29 21z" />
<glyph unicode="_" horiz-adv-x="731" d="M-43 -92l4 33q0 17 12 26q13 13 29 13h563q15 0 21 -13q8 -8 8 -26l-4 -33q0 -18 -12 -27q-13 -10 -29 -10h-563q-16 0 -23 10q-9 9 -6 27z" />
<glyph unicode="`" horiz-adv-x="557" d="M188 1331l43 70q9 12 25 12q19 0 25 -6l256 -172q6 -2 10 -14q3 -11 -4 -25l-25 -41q-9 -12 -18 -12q-11 0 -27 8l-270 131q-35 15 -15 49z" />
<glyph unicode="a" d="M59 342q0 225 117 363q120 135 291 135q30 0 72 -11q36 -9 55 -22q22 -11 41 -27l22 -22l9 -10l26 53q9 18 29 18h45q27 0 27 -27v-6l-88 -755q-3 -31 -37 -31h-45q-24 0 -27 31l-8 55l-13 -10q-1 -1 -12.5 -11t-21.5 -16q-21 -17 -49 -33q-33 -18 -68 -26 q-45 -10 -80 -10q-124 0 -205 106q-80 109 -80 256zM201 342q0 -93 47 -164q46 -69 131 -69q40 0 72 14q37 12 61 33q5 5 13.5 13t15.5 15t12 13q20 20 29 32l8 15l41 362q-2 2 -6 10q-1 2 -4 5.5t-7.5 8.5t-7.5 9q-23 23 -35 33q-20 13 -49 22q-37 11 -67 11q-47 0 -90 -21 q-44 -20 -82 -61q-39 -42 -60 -115q-22 -74 -22 -166z" />
<glyph unicode="b" horiz-adv-x="921" d="M68 39l190 1356q4 17 12 26q13 13 27 13h74q12 0 22 -13q9 -12 6 -26l-84 -609l11 7q3 2 7 4t10.5 5t10.5 5q6 2 41 12q18 8 54 15q30 6 63 6q132 0 217 -107q86 -106 86 -258q0 -131 -53 -246q-52 -114 -148 -182q-91 -67 -204 -67q-39 0 -74 12q-27 6 -62 24 q-34 25 -43 33q-11 9 -26 29l-8 10l-21 -55q-11 -33 -37 -33h-43q-16 0 -22 12q-7 5 -7 17q0 4 1 10zM240 244q3 -3 6 -15q8 -16 18 -32q18 -28 33 -41t49 -33q35 -14 68 -14q106 0 182 104q76 107 76 244q0 103 -54 176q-51 69 -141 69q-43 0 -90 -12t-68 -24l-22 -13z" />
<glyph unicode="c" horiz-adv-x="837" d="M59 348q0 204 129 348t310 144q84 0 149 -39q69 -44 107 -109q5 -9 5 -18q0 -5 -1 -10q-5 -16 -21 -25l-37 -27q-33 -20 -51 9q-52 81 -153 81q-114 0 -201 -100q-86 -100 -86 -237q0 -107 53 -181q54 -75 141 -75q43 0 89 22q40 21 65 49q16 18 39 49q13 23 29 23 q11 0 24 -10l43 -37q21 -21 2 -53q-47 -75 -125 -123q-79 -49 -180 -49q-136 0 -233 106q-97 111 -97 262z" />
<glyph unicode="d" horiz-adv-x="923" d="M61 342q0 136 56 248q54 115 153 182q95 68 215 68q34 0 64 -6q29 -6 49 -15q7 -2 37 -12q5 -3 13.5 -8t10.5 -6l9 -7l86 609q3 16 16 26q13 13 27 13h69q13 0 23 -13q10 -14 8 -26l-190 -1364q-3 -31 -37 -31h-45q-24 0 -27 31l-8 55l-12 -10q-6 -5 -33 -27 q-8 -5 -24.5 -16.5t-24.5 -16.5q-39 -20 -70 -26q-42 -10 -80 -10q-125 0 -203 106q-82 107 -82 256zM207 356q0 -109 43 -176q45 -71 131 -71q40 0 72 14q35 12 59 33q31 27 43 41q24 28 27 32l10 15l57 409q-6 2 -22 15q-20 10 -56 20q-41 14 -88 14q-115 0 -196 -100 q-80 -103 -80 -246z" />
<glyph unicode="e" horiz-adv-x="825" d="M61 342q0 129 54 246q55 113 155 182q101 70 226 70q120 0 186 -60t66 -155q0 -137 -142 -205q-107 -50 -286 -50q-57 0 -121 5q-1 -15 -1 -29q0 -89 48 -158q52 -79 143 -79q87 0 184 63q34 21 52 -10l24 -35q15 -27 -14 -53q-128 -94 -275 -94q-132 0 -213 106 q-86 109 -86 256zM217 481q52 -4 97 -4q114 0 186 27q106 37 106 112q0 39 -33 72q-42 27 -96 27q-89 0 -162 -70q-77 -68 -98 -164z" />
<glyph unicode="f" horiz-adv-x="620" d="M45 -575l176 1271h-127q-14 0 -24 13t-7 26l9 45q9 39 39 39h127l41 287q24 170 114 260q88 88 225 88q121 0 193 -84q8 -8 8 -22q0 -17 -8 -25l-39 -49q-23 -29 -47 -2q-18 21 -53 39q-37 16 -72 16q-67 0 -117 -53q-49 -58 -63 -168l-41 -287h209q14 0 26 -12 q10 -14 7 -27l-9 -45q-4 -18 -14 -26q-13 -13 -27 -13h-209l-176 -1271q-3 -16 -14 -27q-12 -12 -27 -12h-71q-13 0 -25 12q-5 8 -5 18q0 4 1 9z" />
<glyph unicode="g" d="M4 -354q0 12 8 20l45 35q18 12 25 12q11 0 20 -12q88 -111 189 -111q24 0 61 11q20 7 60 39q30 24 59 92q27 74 41 159l37 201h-12q-36 -52 -88 -80q-51 -32 -132 -32q-109 0 -184 90q-74 89 -74 239q0 120 35 223q40 108 94 168q61 67 131 103q70 37 148 37q41 0 74 -13 q22 -5 55 -24q27 -23 35 -33q16 -13 20 -29l6 -10l27 70q9 18 29 18h49q11 0 20 -12q5 -5 5 -16q0 -5 -1 -11l-133 -903q-27 -208 -129 -307q-99 -102 -237 -102q-49 0 -99 16q-42 13 -73 33q-26 13 -56 43q-28 28 -30 34q-3 9 -13 19q-12 15 -12 33zM199 322q0 -98 43 -156 q42 -57 108 -57q82 0 148 75q70 79 84 146l36 252l-4 12q-3 10 -16 29q-10 20 -29 39q-13 13 -47 30q-33 13 -67 13q-99 0 -176 -105q-80 -106 -80 -278z" />
<glyph unicode="h" horiz-adv-x="948" d="M68 39l190 1356q4 17 12 26q13 13 27 13h74q9 0 22 -13q8 -16 6 -26l-92 -664l15 10q30 24 38 29q5 4 54 33q41 18 69 24q41 13 78 13q135 0 201 -97q47 -69 47 -183q0 -42 -6 -89l-62 -432q0 -18 -12 -27q-15 -12 -29 -12h-73q-15 0 -21 12q-11 11 -8 27l61 432 q5 38 5 69q0 66 -23 103q-33 59 -113 59q-31 0 -73 -10q-40 -12 -66 -28q-18 -11 -53 -37q-6 -4 -37 -27l-12 -12l-78 -549q-4 -19 -12 -27q-12 -12 -29 -12h-72q-10 0 -22 12q-7 10 -7 20q0 3 1 7z" />
<glyph unicode="i" horiz-adv-x="425" d="M68 39l102 741q3 16 14 27q12 12 27 12h72q13 0 22 -12q11 -14 8 -27l-104 -741q0 -18 -12 -27q-15 -12 -29 -12h-72q-10 0 -22 12q-7 10 -7 20q0 3 1 7zM217 1282q0 45 33 78t76 33q37 0 59 -25q23 -26 23 -61q0 -45 -33 -78q-36 -31 -76 -31q-34 0 -57 23 q-25 25 -25 61z" />
<glyph unicode="j" horiz-adv-x="428" d="M-377 -526q0 16 8 24l41 53q22 28 47 3q19 -19 58 -41q40 -19 67 -19q68 0 115 53q51 54 66 166l149 1067q9 39 41 39h72q15 0 24 -12q9 -9 6 -27l-151 -1067q-50 -348 -328 -348q-68 0 -121 27q-61 30 -84 59q-7 7 -10 23zM223 1282q0 45 33 78t74 33q37 0 59 -25 q23 -26 23 -61q0 -45 -33 -78q-36 -31 -76 -31q-34 0 -57 23q-23 26 -23 61z" />
<glyph unicode="k" horiz-adv-x="858" d="M68 39l190 1356q4 17 12 26q13 13 27 13h74q9 0 22 -13q8 -16 6 -26l-123 -887l351 287q27 24 47 24h114q14 0 21 -10q4 -5 4 -12q0 -5 -2 -11q-3 -12 -12 -18l-398 -324l342 -393q14 -10 2 -31q-6 -20 -28 -20h-94q-19 0 -35 16l-326 396l-53 -373q-4 -19 -12 -27 q-12 -12 -27 -12h-74q-10 0 -22 12q-7 10 -7 20q0 3 1 7z" />
<glyph unicode="l" horiz-adv-x="425" d="M68 39l190 1356q0 17 12 26q16 13 29 13h72q9 0 22 -13q8 -16 6 -26l-190 -1356q-4 -19 -12 -27q-12 -12 -27 -12h-74q-10 0 -22 12q-7 10 -7 20q0 3 1 7z" />
<glyph unicode="m" horiz-adv-x="1437" d="M68 39l102 741q3 39 41 39h41q24 0 27 -24l8 -64l14 10q30 24 37 29q8 6 26 17t25 16q38 17 70 24q44 13 84 13q79 0 131 -37q57 -44 82 -101l14 15q5 4 35 24q15 13 49 33q32 16 59 31q30 15 68 24q46 11 72 11q144 0 202 -101q43 -74 43 -184q0 -40 -6 -84l-61 -432 q-4 -19 -14 -27q-12 -12 -27 -12h-72q-15 0 -24 12q-10 13 -7 27l62 432q5 37 5 68q0 163 -134 163q-121 0 -229 -114q0 -31 -11 -117l-59 -432q0 -18 -12 -27q-15 -12 -29 -12h-72q-13 0 -22 12t-6 27l59 432q6 39 6 72q0 159 -141 159q-32 0 -70 -10q-33 -12 -61 -30 q-7 -5 -22 -17.5t-23 -17.5q-20 -14 -31 -29q-9 -12 -12 -12l-76 -547q0 -18 -12 -27q-15 -12 -29 -12h-72q-16 0 -22 12q-7 5 -7 17q0 4 1 10z" />
<glyph unicode="n" horiz-adv-x="948" d="M68 39l102 741q4 19 12 27q9 12 29 12h41q24 0 27 -24l8 -64l14 10q25 20 41 29l59 33q45 18 74 24q50 13 86 13q144 0 205 -101q43 -74 42 -184q0 -40 -5 -84l-62 -432q0 -18 -12 -27q-15 -12 -29 -12h-73q-13 0 -25 12q-7 13 -4 27l59 432q5 39 5 71q0 67 -23 101 q-29 59 -111 59q-31 0 -73 -10q-41 -12 -68 -30q-30 -20 -51 -35q-21 -13 -37 -29l-14 -12l-76 -547q-4 -19 -14 -27q-12 -12 -29 -12h-70q-16 0 -22 12q-7 5 -7 17q0 4 1 10z" />
<glyph unicode="o" horiz-adv-x="911" d="M59 352q0 127 56 242q60 114 157 178q103 68 217 68q133 0 224 -111q94 -110 94 -260q0 -133 -57 -244q-59 -112 -156 -178q-98 -67 -217 -67q-131 0 -225 110q-93 113 -93 262zM199 365q0 -108 55 -181q51 -75 137 -75q112 0 191 104q84 100 84 244q0 103 -56 174 q-53 71 -135 71q-114 0 -192 -100q-84 -97 -84 -237z" />
<glyph unicode="p" horiz-adv-x="923" d="M-18 -575l190 1355q3 39 41 39h45q21 0 27 -26l8 -39l10 8q2 2 29 20q14 12 45 29q22 11 63 20t82 9q128 0 211 -109q84 -110 84 -258q0 -211 -121 -350q-116 -143 -301 -143q-36 0 -63 8q-34 8 -49 16q-8 2 -22 10t-15 9q-3 2 -7.5 5.5t-7.5 5.5t-4 3l-14 10l-88 -622 q-4 -19 -14 -27q-12 -12 -27 -12h-72q-13 0 -22 12q-9 11 -9 21q0 3 1 6zM233 180l21 -20q12 -12 55 -33q43 -18 86 -18q116 0 197 100q82 101 82 246q0 106 -49 176q-50 71 -138 71q-27 0 -65 -10q-23 -7 -53 -24q-7 -6 -21.5 -16.5t-19.5 -14.5q-6 -6 -15.5 -14.5 t-11.5 -10.5l-8 -10z" />
<glyph unicode="q" horiz-adv-x="923" d="M61 344q0 138 54 246q47 110 147 182q95 68 215 68q35 0 72 -9q42 -13 57 -20q2 -2 18 -12.5t23 -16.5q4 -3 14 -10t13 -10l10 -8l18 37q16 28 39 28h41q30 0 30 -28q0 -5 -1 -11l-190 -1355q0 -18 -15 -27q-12 -12 -26 -12h-72q-16 0 -25 12t-6 27l88 626l-10 -6 q-8 -8 -31 -18q-6 -3 -41 -23q-30 -11 -57 -16q-31 -8 -64 -8q-128 0 -215 106q-86 109 -86 258zM207 354q0 -110 51 -178q49 -67 141 -67q43 0 93 18q36 12 69 33l23 16l61 432l-8 10q-2 2 -9.5 10.5t-13.5 14.5q-14 14 -32 27q-23 17 -50 22q-20 10 -57 10 q-113 0 -192 -104q-76 -109 -76 -244z" />
<glyph unicode="r" horiz-adv-x="641" d="M68 39l102 741q4 19 12 27q9 12 29 12h41q24 0 27 -28l8 -60l12 10q19 19 31 29q21 17 47 33q34 17 65 24q44 13 80 13q33 0 47 -2q30 -4 47 -11q24 -10 29 -20q3 -6 3 -14q0 -10 -5 -21l-35 -67q-15 -35 -47 -19q-40 16 -80 16q-30 0 -63 -10q-35 -12 -56 -30t-38 -35 q-5 -4 -10.5 -9.5t-11 -11.5t-7.5 -8q-6 -12 -10 -12l-76 -547q-4 -18 -16 -27q-12 -12 -29 -12h-68q-16 0 -22 12q-7 5 -7 17q0 4 1 10z" />
<glyph unicode="s" horiz-adv-x="688" d="M29 90q0 13 6 25l35 47q8 11 22 14q13 3 27 -8q12 -12 22 -18q27 -16 58 -27q46 -19 84 -19q59 0 90 31q35 28 35 80q0 41 -31 72q-19 25 -101 75q-81 48 -129 101q-47 56 -47 135q0 38 15 82q10 32 41 78q27 37 84 59q61 23 133 23q124 0 200 -64q16 -14 16 -31 q0 -12 -9 -26l-29 -41q-21 -34 -53 -12q-71 41 -140 41q-57 0 -84 -27q-28 -28 -28 -66q0 -23 8 -39q5 -15 25 -32q15 -15 32 -25q15 -9 45 -29q40 -21 66 -38q23 -14 53 -41q25 -20 47 -45q20 -27 31 -58q10 -38 10 -67q0 -109 -78 -187q-76 -73 -217 -73q-73 0 -137 28 q-52 24 -92 64q-6 6 -10 18z" />
<glyph unicode="t" horiz-adv-x="651" d="M82 735l8 45q9 39 39 39h90l31 228q3 16 16 26q12 12 25 12l74 5q13 0 20 -13q11 -11 8 -26l-33 -232h205q15 0 25 -10q7 -7 7 -20q0 -4 -1 -9l-6 -45q-4 -17 -12 -26q-13 -13 -29 -13h-205l-68 -479q-3 -22 -3 -39q0 -24 6 -39q11 -20 43 -20q44 0 133 47q14 6 28 6 q10 -6 15 -20l22 -52q14 -31 -20 -51q-25 -19 -94 -45q-64 -24 -123 -24q-94 0 -131 61q-25 45 -25 108q0 26 4 56l70 491h-88q-14 0 -27 13q-5 9 -5 18q0 4 1 8z" />
<glyph unicode="u" horiz-adv-x="925" d="M100 350l60 430q4 18 16 27q12 12 25 12h73q14 0 23 -12q11 -14 8 -27l-61 -432q-5 -38 -5 -70q0 -68 23 -106q29 -63 111 -63q26 0 53 6q40 15 47 18q23 10 41 25l33 26q5 4 26 25q3 4 17 18l6 6l78 547q4 19 14 27q12 12 27 12h69q14 0 23 -12q9 -11 9 -21q0 -3 -1 -6 l-104 -741q-4 -19 -15 -27q-9 -12 -26 -12h-41q-7 0 -15 4q-4 8 -8 12q0 3 -4 19l-8 53l-8 -6q-11 -11 -21 -16q-7 -10 -26 -21q-18 -15 -39 -25q-5 -3 -20.5 -9.5t-24.5 -10.5q-5 -1 -16 -4t-21 -5.5t-19 -4.5q-30 -6 -61 -6q-148 0 -205 100q-40 70 -40 175q0 45 7 95z " />
<glyph unicode="v" horiz-adv-x="772" d="M55 782q-3 8 -3 14q0 23 34 23h68q23 0 32 -31l140 -538h2l307 547q13 22 43 22h61q21 0 27 -12q4 -6 4 -13q0 -9 -6 -22l-426 -772q-9 -20 -33 -20h-10q-26 0 -29 20z" />
<glyph unicode="w" horiz-adv-x="1142" d="M94 786q-1 4 -1 7q0 12 9 18q5 8 27 8h66q31 0 34 -28l62 -498h4l283 526q12 21 34 21h11q23 0 26 -21l121 -526h4l203 498q9 28 41 28h57q33 0 33 -23q0 -8 -4 -18l-316 -778q-9 -20 -32 -20h-11q-9 0 -18 6q-7 5 -10 14l-135 588h-2l-308 -588q-11 -20 -34 -20h-9 q-25 0 -28 20z" />
<glyph unicode="x" horiz-adv-x="802" d="M-4 16q-2 4 -2 9q0 12 12 28l293 365l-190 346q-9 22 2 39q10 16 34 16h64q19 0 29 -16l147 -289h2l231 289q13 16 33 16h80q25 0 31 -16q3 -5 3 -11q0 -12 -11 -28l-297 -346l196 -367q9 -21 2 -35q-11 -16 -32 -16h-70q-18 0 -27 18l-157 301h-2l-234 -303 q-13 -16 -33 -16h-77q-24 0 -27 16z" />
<glyph unicode="y" horiz-adv-x="872" d="M-43 -602q-2 4 -2 9q0 10 8 24l322 571l-230 772q-6 20 4 33q9 12 31 12h72q22 0 28 -22l183 -635h2l348 635q13 22 35 22h80q20 0 26 -12q4 -6 4 -13q0 -10 -6 -22l-758 -1362q-12 -24 -34 -24h-86q-21 0 -27 12z" />
<glyph unicode="z" horiz-adv-x="696" d="M2 39l2 20l440 627v4h-301q-10 0 -20 10q-9 12 -6 29l6 51q0 18 12 27q12 12 27 12h467q17 0 30 -16q2 -7 2 -14q0 -13 -8 -25l-434 -633v-2h277q31 0 28 -39l-6 -51q-4 -19 -14 -27q-12 -12 -27 -12h-446q-11 0 -23 12q-8 16 -6 27z" />
<glyph unicode="{" horiz-adv-x="743" d="M23 379l8 63q3 28 32 31q44 10 93 53q48 45 57 107l47 330q14 104 57 198q39 84 93 142q59 59 120 90q66 34 129 49q59 12 121 12q16 0 27 -8q8 -13 6 -27l-4 -39q-3 -18 -10 -24q-10 -13 -21 -13q-62 -12 -127 -40q-49 -21 -114 -76q-53 -50 -86 -117q-39 -71 -48 -147 l-38 -273q-9 -57 -27 -104q-16 -45 -37 -76q-20 -30 -47 -49q-23 -20 -41 -31q-11 -8 -37 -18v-6q6 -3 21 -13q7 -2 20 -12q17 -12 23 -21q1 -1 8.5 -10.5t11.5 -15.5q11 -19 16 -35q10 -33 11 -45q4 -32 4 -57q0 -33 -6 -70l-37 -272q-12 -80 6 -148q15 -68 53 -115 q44 -50 92 -75q59 -30 117 -41q27 -3 21 -35l-9 -41q-3 -14 -16 -27q-12 -8 -25 -8q-48 0 -118 17q-60 16 -113 55q-53 38 -94 92q-41 56 -56 139q-16 90 -2 187l46 329q9 59 -27 107q-35 43 -78 53q-25 3 -22 35z" />
<glyph unicode="|" horiz-adv-x="391" d="M-8 -578l295 2096q0 17 12 26q15 12 29 12h14q14 0 23 -12q8 -8 4 -26l-293 -2096q-3 -14 -15 -26q-13 -10 -26 -10h-12q-13 0 -23 10q-8 8 -8 26z" />
<glyph unicode="}" horiz-adv-x="745" d="M-113 -600l4 41q3 32 31 35q58 11 127 41q54 24 115 75q52 49 86 115q35 68 47 148l39 272q9 73 33 125q17 50 51 84q35 32 51 43q19 14 49 27v6q-13 10 -18 10q-3 4 -21 14q-4 3 -8 6.5t-8 8t-6 6.5q-14 21 -17 26q-12 14 -18 37q-8 22 -10 45q-4 32 -4 58q0 29 6 67 l37 273q21 153 -58 258q-75 100 -211 122q-21 3 -18 37l6 39q6 35 41 35q53 0 119 -16q56 -15 112 -56t95 -94q40 -54 55 -139q16 -89 2 -186l-45 -330q-9 -61 29 -105q38 -47 75 -55q26 -7 23 -31l-8 -63q-3 -32 -33 -35q-43 -10 -92 -53q-49 -46 -58 -107l-47 -329 q-15 -110 -57 -199q-38 -86 -92 -143q-60 -57 -121 -88q-72 -37 -129 -48q-58 -12 -121 -12q-14 0 -24 10q-12 12 -9 25z" />
<glyph unicode="~" horiz-adv-x="1054" d="M109 502q-16 20 4 49q126 188 270 188q37 0 78 -18q31 -11 61 -33q28 -20 51 -43l9 -6q4 -4 8 -7l4 -3q0 -1 4 -4.5t8 -6.5q12 -8 15 -8q2 -2 14 -10q14 -9 16 -10q6 -3 15 -6l16 -4q6 -2 16 -2q23 0 39 8q18 8 35 18q10 6 31 27l28 28q4 8 23 31q4 5 8 10.5t5.5 8.5 t2.5 4q29 37 52 8l41 -35q16 -22 -5 -49l-16 -23q-17 -24 -29 -36q-16 -20 -39 -43q-30 -31 -53 -43q-38 -21 -63 -29q-32 -14 -72 -14q-38 0 -76 18q-34 12 -61 31q-46 39 -49 41q-1 1 -4 3.5t-9 7t-12 9.5q-28 24 -31 27q-5 6 -30 16q-19 8 -41 8q-13 0 -29 -4 q-14 -2 -29 -10q-9 -6 -24 -18q-3 -3 -8 -7.5t-8 -7.5t-5 -6q-11 -8 -22 -22q-8 -10 -19 -21q-1 -2 -6 -9.5t-8 -12.5q-10 -17 -12 -17q-27 -35 -51 -8q-1 1 -9 6.5t-14 9.5q-5 4 -20 19z" />
<glyph unicode="&#xa1;" horiz-adv-x="462" d="M-23 -575l33 229l123 575q3 12 14 23q13 10 25 10h29q13 0 20 -10q10 -8 10 -23l-41 -571l-32 -233q-4 -19 -15 -27q-9 -12 -24 -12h-111q-13 0 -22 12q-11 15 -9 27zM137 709q0 50 39 92q42 39 90 39q44 0 70 -29q29 -29 29 -74q0 -53 -39 -92t-93 -39q-38 0 -69 31 q-27 34 -27 72z" />
<glyph unicode="&#xa2;" horiz-adv-x="802" d="M31 348q0 206 133 348q129 144 313 144q3 0 49 -4l33 84q6 16 21 22q12 7 26 4l15 -4q15 -3 18 -16q4 -14 -2 -31l-33 -84q76 -39 121 -119q8 -13 4 -28q-5 -16 -20 -25l-35 -25q-33 -20 -51 9q-24 40 -66 65l-219 -569q32 -4 37 -4q114 0 190 116q21 38 53 13l46 -39 q21 -21 2 -53q-47 -75 -125 -123q-82 -49 -185 -49q-31 0 -67 8l-76 -199q-3 -16 -18 -22q-14 -8 -29 -5l-12 5q-13 3 -19 16q-3 13 0 29l78 206q-82 46 -131 134q-51 86 -51 196zM180 365q0 -62 23 -123q19 -51 63 -88l213 559h-12q-111 0 -199 -105q-88 -104 -88 -243z " />
<glyph unicode="&#xa3;" horiz-adv-x="960" d="M94 39l6 37q152 252 146 526h-82q-12 0 -21 12q-9 10 -6 27l2 14q3 16 13 29q10 10 26 10h58q0 7 -7 54q-1 9 -4 40.5t-4 51.5q-4 66 -4 92q0 247 121 383q118 139 326 139q60 0 106 -14q43 -13 88 -43q15 -10 57 -45q18 -15 43 -43q11 -15 9 -27q0 -14 -13 -27l-49 -49 q-31 -31 -53 -2q-13 13 -21 23q-16 20 -40 37q-27 23 -66 39q-46 16 -80 16q-119 0 -199 -102q-84 -100 -84 -277q0 -41 7 -102q2 -42 10 -97q6 -41 6 -47h289q12 0 22 -10q9 -12 6 -29l-2 -16q-4 -19 -12 -27q-13 -10 -26 -10h-269q3 -80 -26 -233q-27 -140 -78 -238h444 q11 0 21 -10q9 -9 6 -29l-6 -53q-4 -17 -13 -27q-12 -12 -26 -12h-590q-14 0 -23 12q-11 11 -8 27z" />
<glyph unicode="&#xa4;" horiz-adv-x="913" d="M133 426q4 19 14 29l91 84q-25 66 -13 141q9 74 51 141l-65 84q-9 9 -6 29q4 19 14 27l49 38q12 9 27 9q11 2 22 -9l66 -84q61 40 129 43q67 0 119 -40l90 86q14 10 24 8q12 0 23 -11l37 -40q10 -13 6 -27q0 -18 -12 -27l-90 -84q23 -63 14 -143q-9 -78 -53 -143l65 -84 q9 -9 6 -27q-4 -19 -14 -27l-49 -41q-12 -12 -27 -12q-10 0 -20 10l-68 86q-59 -39 -129 -36q-70 0 -119 38l-88 -84q-14 -10 -26 -8q-15 0 -23 8l-39 39q-9 9 -6 27zM342 680q-9 -59 23 -105q27 -43 84 -43q55 0 98 43q44 44 53 105q9 59 -22 104q-34 43 -86 43 q-56 0 -99 -43q-42 -42 -51 -104z" />
<glyph unicode="&#xa5;" horiz-adv-x="1161" d="M172 1384q-10 20 0 33q8 17 29 17h94q19 0 29 -19l284 -584h4l455 584q16 19 33 19h98q23 0 29 -21q6 -19 -8 -39l-541 -682l-14 -102h231q16 0 25 -12t6 -27l-4 -16q-4 -17 -13 -27q-13 -10 -26 -10h-234l-20 -154h231q16 0 25 -12t6 -27l-2 -16q-3 -15 -15 -27 q-10 -10 -26 -10h-234l-28 -213q0 -17 -13 -27q-15 -12 -28 -12h-86q-16 0 -25 12t-6 27l29 213h-234q-9 0 -22 10q-8 17 -6 29l2 14q3 16 14 27q9 12 25 12h235l21 154h-234q-13 0 -20 10q-12 12 -9 29l2 14q3 15 15 27t24 12h236l14 100z" />
<glyph unicode="&#xa6;" horiz-adv-x="743" d="M174 -578l96 678q0 17 13 27q12 12 26 12h17q13 0 22 -12q8 -8 4 -27l-94 -678q-3 -16 -16 -26q-10 -10 -25 -10h-12q-12 0 -25 10q-9 13 -6 26zM373 842l96 676q0 18 14 26q12 12 27 12h14q15 0 21 -12q9 -9 6 -26l-94 -676q0 -18 -15 -27q-13 -10 -26 -10h-13 q-12 0 -22 10q-8 11 -8 27z" />
<glyph unicode="&#xa7;" horiz-adv-x="997" d="M-37 -307q0 14 17 31l40 45q35 35 58 6q15 -20 28 -31q37 -32 60 -47q42 -31 92 -51q55 -21 109 -21q96 0 178 60q81 60 84 172q0 83 -64 153q-70 76 -198 146q-273 150 -273 354q0 51 19 106q16 48 43 86q16 20 53 62q33 30 47 39q18 12 23 12q-3 0 -13 10q-10 7 -28 33 t-31 51q-16 25 -25 70q-10 45 -10 86q0 49 12 102q16 54 45 103q33 53 80 94q49 42 121 66q76 24 168 24q49 0 107 -10q43 -7 88 -23q46 -20 69 -32q25 -13 43 -25q4 -4 19 -14l10 -11q4 -12 4 -24q0 -18 -12 -33l-35 -43q-27 -38 -64 -12q-137 90 -233 90q-71 0 -121 -23 q-53 -18 -84 -57q-29 -29 -49 -74q-14 -47 -14 -76q0 -142 204 -243q51 -23 97 -53q17 -9 45.5 -28.5t38.5 -25.5q37 -23 71 -57q36 -36 54 -62q25 -42 32 -69q13 -41 13 -80q0 -57 -21 -109q-15 -42 -45 -90q-32 -40 -57 -65l-49 -43q-21 -15 -25 -15q5 0 14 -12 q12 -12 27 -33q24 -31 33 -55q14 -23 28 -78q11 -57 11 -96q0 -169 -125 -279q-127 -106 -320 -106q-222 0 -372 166q-13 17 -13 18q-4 2 -4 21zM246 530q0 -37 12 -67q14 -30 29 -49q11 -18 51 -49q35 -24 63 -43q33 -22 82 -50q50 -29 88 -55q14 7 17 8q15 10 35 25 q27 24 43 45q15 20 34 63q15 51 15 82q0 72 -64 133q-68 59 -209 134q-46 24 -65 38q-4 0 -15 -8q-12 -6 -30 -24q-7 -5 -41 -39q-17 -20 -33 -60q-12 -40 -12 -84z" />
<glyph unicode="&#xa8;" horiz-adv-x="763" d="M195 1282q0 46 32 78q33 33 76 33q35 0 57 -25q23 -26 23 -61q0 -45 -33 -78q-36 -31 -76 -31q-31 0 -57 23q-22 25 -22 61zM553 1282q0 45 33 78t73 33q38 0 60 -25t22 -61q0 -46 -32 -78q-36 -31 -76 -31q-35 0 -58 23q-22 25 -22 61z" />
<glyph unicode="&#xa9;" horiz-adv-x="1538" d="M119 621q0 169 61 321q65 157 168 266q101 110 246 178q142 68 295 68q119 0 221 -51q103 -50 184 -137q76 -88 121 -205q45 -116 45 -248q0 -172 -63 -321q-61 -155 -164 -267q-103 -111 -246 -180q-145 -65 -297 -65q-116 0 -221 51q-110 54 -182 137q-75 80 -123 205 q-45 113 -45 248zM236 635q0 -142 59 -266q60 -127 168 -195q107 -72 239 -72q122 0 240 56q121 56 205 149q89 95 141 223q53 130 53 269q0 151 -59 266q-55 123 -166 192q-106 72 -242 72q-123 0 -239 -55q-113 -55 -203 -148q-88 -91 -141 -221q-55 -131 -55 -270z M457 680q0 168 116 293q119 125 285 125q125 0 203 -78q13 -13 10 -29q-3 -18 -16 -30l-37 -37q-24 -24 -49 -2q-59 47 -125 47q-102 0 -176 -86t-74 -203q0 -91 49 -152q53 -59 131 -59q69 0 131 45q34 21 53 -2l31 -39q6 -8 6 -29q-8 -20 -16 -28q-95 -86 -225 -86 q-120 0 -209 100q-88 104 -88 250z" />
<glyph unicode="&#xaa;" horiz-adv-x="589" d="M133 1026q12 83 76 141q65 56 166 56q24 0 51 -6q13 -2 35 -9l12 -6q16 86 8 121q-9 37 -59 37q-25 0 -37 -2q-31 -5 -33 -6q-6 0 -28 -9q-18 -3 -27 -6q-18 -6 -23 -8q-12 -6 -16 -6q-9 -3 -16 4q-5 8 -9 19l-4 36q-3 21 17 31q11 7 28 12q25 11 70 19q55 10 98 10 q40 0 70 -10q27 -9 43 -31q14 -17 23 -41q8 -16 8 -53q-4 -46 -4 -57q-4 -16 -11 -66q0 -10 -2 -12l-43 -312q-3 -13 -10 -20q-8 -8 -18 -8h-43q-16 0 -19 20l-6 33q-35 -31 -39 -33q-13 -10 -47 -24q-41 -13 -74 -13q-64 0 -108 56t-29 143zM227 1024q-6 -42 11 -72 q19 -28 57 -28q77 0 145 77l17 115q-43 27 -99 27q-43 0 -84 -33q-41 -36 -47 -86z" />
<glyph unicode="&#xab;" horiz-adv-x="800" d="M61 397q-12 21 7 49l233 304q21 24 41 24h45q24 0 27 -20q7 -20 -8 -43l-177 -295l80 -291q6 -23 -4 -43q-9 -19 -33 -19h-36q-17 0 -27 17zM373 397q-12 22 6 49l233 304q21 24 41 24h45q24 0 27 -20q7 -20 -8 -43l-176 -295l80 -291q5 -22 -5 -43q-10 -19 -32 -19h-37 q-17 0 -27 17z" />
<glyph unicode="&#xac;" horiz-adv-x="976" d="M84 682l8 57q0 19 14 27q12 12 27 12h703q12 0 24 -12q8 -16 6 -27l-59 -417q0 -18 -12 -27q-17 -10 -29 -10h-68q-12 0 -22 10q-9 12 -6 27l45 321h-602q-11 0 -23 12q-8 16 -6 27z" />
<glyph unicode="&#xad;" horiz-adv-x="641" d="M158 487l6 39q4 18 16 27q9 12 25 12h391q16 0 25 -12q8 -8 4 -27l-7 -39q-3 -16 -16 -26q-10 -10 -24 -10h-390q-17 0 -24 10q-10 7 -6 26z" />
<glyph unicode="&#xae;" horiz-adv-x="1538" d="M119 621q0 169 61 321q65 157 168 266q101 110 246 178q142 68 295 68q119 0 221 -51q103 -50 184 -137q76 -88 121 -205q45 -116 45 -248q0 -172 -63 -321q-61 -155 -164 -267q-103 -111 -246 -180q-145 -65 -297 -65q-116 0 -221 51q-110 54 -182 137q-75 80 -123 205 q-45 113 -45 248zM236 635q0 -142 59 -266q60 -127 168 -195q107 -72 239 -72q122 0 240 56q121 56 205 149q89 95 141 223q53 130 53 269q0 151 -59 266q-55 123 -166 192q-106 72 -242 72q-123 0 -239 -55q-113 -55 -203 -148q-88 -91 -141 -221q-55 -131 -55 -270z M512 383l94 672q4 17 12 26q13 13 29 13h264q82 0 142 -54q55 -52 55 -157q0 -55 -18 -105q-17 -41 -50 -71q-21 -21 -57 -41q-25 -14 -57 -21l75 -246q8 -19 -2 -39q-10 -16 -36 -16h-56q-27 0 -37 29l-65 256h-135l-35 -246q-4 -19 -12 -27q-12 -12 -27 -12h-55 q-16 0 -25 12q-8 8 -4 27zM684 748h176q53 0 88 38q35 44 35 97q0 43 -25 71q-24 27 -65 27h-176z" />
<glyph unicode="&#xaf;" horiz-adv-x="763" d="M80 1231l6 43q3 14 14 29q10 10 27 10h473q13 0 23 -10q9 -12 6 -29l-6 -43q0 -17 -13 -27t-28 -10h-471q-15 0 -25 10q-9 12 -6 27z" />
<glyph unicode="&#xb0;" horiz-adv-x="632" d="M147 1141q0 130 84 223q84 90 207 90q91 0 152 -70t61 -170q0 -129 -86 -221t-205 -92q-82 0 -149 70q-64 73 -64 170zM262 1153q0 -57 33 -96t82 -39q61 0 108 53t47 127q0 58 -32 96q-29 39 -78 39q-65 0 -111 -55q-49 -52 -49 -125z" />
<glyph unicode="&#xb1;" horiz-adv-x="1136" d="M139 164l8 57q0 16 13 29q17 10 28 10h705q14 0 20 -12q12 -12 9 -27l-9 -57q-4 -18 -12 -29q-13 -10 -27 -10h-706q-15 0 -21 12q-11 11 -8 27zM215 825l8 58q3 17 15 26q10 13 24 13h287l43 303q3 15 14 26q15 11 27 11h61q12 0 23 -11q8 -8 8 -26l-43 -303h287 q9 0 22 -13q8 -16 6 -26l-8 -58q-3 -15 -14 -26q-13 -13 -25 -13h-286l-35 -239q0 -17 -13 -27t-26 -10h-62q-11 0 -24 10q-8 16 -6 27l32 239h-286q-13 0 -23 13q-9 12 -6 26z" />
<glyph unicode="&#xb2;" horiz-adv-x="579" d="M166 1051l4 32l264 269q10 13 24.5 28.5t16.5 18.5q16 16 25 37q12 21 12 43q0 31 -23 57q-21 27 -65 27q-52 0 -117 -62q-12 -12 -24 0l-29 37q-10 17 2 29q92 92 188 92q84 0 129 -45q50 -47 50 -113q0 -52 -29 -102q-26 -45 -88 -107l-164 -170h211q15 0 12 -20 l-6 -51q-3 -19 -18 -19h-359q-19 0 -16 19z" />
<glyph unicode="&#xb3;" horiz-adv-x="561" d="M160 1106q0 9 8 12l37 41q14 8 24 -2q3 -3 10 -8.5t11 -9.5q17 -11 39 -21q25 -14 55 -14q47 0 86 31q35 27 35 73q0 37 -31 62q-27 24 -84 24h-57q-20 0 -17 19l7 51q3 18 22 18h57q59 0 95 31q32 25 32 72q0 35 -22 57q-26 23 -61 23q-24 0 -56 -19q-30 -18 -49 -37 q-16 -9 -25 0l-32 43q-5 5 -2 13q0 9 6 12l10 8q2 5 25 21q22 16 41 24q17 11 49 21q24 8 57 8q73 0 123 -41q49 -40 49 -109q0 -57 -37 -100q-37 -45 -82 -63v-5q35 -15 62 -53q30 -38 30 -84q0 -82 -67 -137q-70 -55 -170 -55q-116 0 -176 84q-5 5 -2 10z" />
<glyph unicode="&#xb4;" horiz-adv-x="557" d="M172 1194q-9 23 16 39l304 172q9 9 26 6q20 -3 25 -22l26 -68q12 -30 -16 -43l-322 -137q-37 -16 -45 16z" />
<glyph unicode="&#xb6;" horiz-adv-x="1302" d="M109 950q0 131 59 240q54 112 156 178q100 68 206 68l820 -2q9 0 22 -13q8 -16 6 -26l-6 -41q-4 -18 -16 -27q-9 -12 -25 -12h-192l-267 -1890q-4 -19 -12 -27q-12 -12 -29 -12h-49q-12 0 -24 12q-7 13 -4 27l264 1890h-281l-266 -1890q0 -18 -12 -27q-15 -12 -29 -12 h-47q-11 0 -23 12q-9 13 -6 27l162 1153h-80q-138 0 -233 106q-94 110 -94 266z" />
<glyph unicode="&#xb7;" horiz-adv-x="464" d="M125 520q0 50 39 92q42 39 90 39q45 0 70 -28q28 -28 28 -74q0 -53 -39 -92t-92 -39q-38 0 -69 31q-27 34 -27 71z" />
<glyph unicode="&#xb8;" horiz-adv-x="456" d="M53 -459q-18 27 6 51l25 23q8 8 20 8q16 0 21 -8q30 -37 74 -37q41 0 67 33q27 34 27 80q0 26 -10 49q-11 19 -35 33q-18 10 -41 18q-14 5 -47 12q-33 9 -27 41l23 156h102l-14 -111q74 -15 118 -65q46 -49 46 -131q0 -94 -60 -160q-56 -65 -155 -65q-46 0 -82 20 q-39 22 -58 53z" />
<glyph unicode="&#xb9;" horiz-adv-x="378" d="M195 1507q0 13 10 23l145 108h60q8 0 12 -4q4 -8 2 -14l-82 -569q-3 -19 -18 -19h-72q-6 0 -14 4q-4 8 -2 15l59 430l-80 -23q-16 -3 -16 8z" />
<glyph unicode="&#xba;" horiz-adv-x="620" d="M152 1057q0 182 73 289q69 106 205 106q88 0 141 -68q52 -64 52 -182q0 -180 -74 -289q-69 -106 -205 -106q-89 0 -141 67q-51 66 -51 183zM262 1063q0 -72 25 -117q24 -41 69 -41q71 0 115 78q41 80 41 211q0 72 -25 117q-24 43 -69 43q-71 0 -115 -80q-41 -84 -41 -211 z" />
<glyph unicode="&#xbb;" horiz-adv-x="800" d="M33 82q-6 22 8 45l176 295l-80 291q-6 23 4 43q9 18 33 18h37q17 0 27 -16l147 -318q12 -22 -6 -49l-234 -303q-22 -25 -41 -25h-45q-23 0 -26 19zM344 82q-3 24 10 45l176 295l-79 291q-6 23 4 43q9 18 32 18h37q17 0 27 -16l147 -318q12 -22 -6 -49l-233 -303 q-22 -25 -41 -25h-45q-23 0 -29 19z" />
<glyph unicode="&#xbc;" horiz-adv-x="1224" d="M94 16q-6 18 6 39l824 1358q12 21 32 21h50q19 0 26 -17q9 -17 -4 -39l-827 -1358q-9 -20 -33 -20h-45q-19 0 -29 16zM186 1305q0 11 11 22l145 109h59q10 0 13 -6q5 -5 2 -13l-82 -569q-3 -19 -19 -19h-71q-8 0 -15 7q-5 4 -2 12l60 430l-80 -23q-17 -3 -17 9zM573 141 l9 60l370 401q6 6 15 6h45q6 0 12 -6q7 -7 4 -12l-53 -379h74q14 0 14 -16l-6 -54q-3 -16 -21 -16h-73l-15 -105q-3 -18 -22 -18h-66q-6 0 -12 6q-7 7 -4 12l14 103h-272q-7 0 -11 4q-4 8 -2 14zM709 213h165l33 227z" />
<glyph unicode="&#xbd;" horiz-adv-x="1198" d="M94 16q-6 18 6 39l824 1358q12 21 32 21h50q19 0 26 -17q9 -17 -4 -39l-827 -1358q-9 -20 -33 -20h-45q-19 0 -29 16zM186 1305q0 11 11 22l145 109h59q10 0 13 -6q5 -5 2 -13l-82 -569q-3 -19 -19 -19h-71q-8 0 -15 7q-5 4 -2 12l60 430l-80 -23q-17 -3 -17 9zM594 20 l4 33l264 269q14 18 43 47q13 17 25 37q10 23 10 43q0 31 -22 59q-21 24 -66 24q-53 0 -117 -61q-12 -12 -24 0l-29 37q-10 17 2 29q92 92 188 92q84 0 132 -45q47 -47 47 -113q0 -52 -29 -102q-26 -45 -88 -107l-164 -170h211q15 0 12 -20l-6 -52q-3 -18 -18 -18h-359 q-19 0 -16 18z" />
<glyph unicode="&#xbe;" horiz-adv-x="1359" d="M127 905q0 7 8 10l37 41q14 9 25 -2q12 -12 20 -16q4 -6 39 -25q27 -12 55 -12q46 0 86 29q35 30 35 76q0 36 -31 61q-28 25 -84 25h-57q-19 0 -16 18l6 51q3 19 22 19h58q58 0 94 28q33 29 33 74q0 34 -23 57q-26 23 -61 23q-24 0 -56 -19q-33 -19 -49 -36q-15 -9 -24 0 l-33 43q-5 4 -2 12q0 9 6 12l10 10q4 4 25 19q25 18 41 27q17 8 49 18q24 8 57 8q73 0 123 -41q49 -40 49 -108q0 -57 -37 -103q-38 -44 -81 -61v-4q32 -14 61 -54q31 -39 31 -84q0 -81 -68 -137q-70 -55 -170 -55q-116 0 -176 84q-5 4 -2 12zM229 16q-9 17 4 39l824 1358 q12 21 33 21h49q18 0 28 -17q6 -18 -6 -39l-827 -1358q-9 -20 -33 -20h-45q-21 0 -27 16zM707 141l8 60l370 401q6 6 15 6h45q6 0 12 -6q7 -7 4 -12l-53 -379h74q14 0 14 -16l-6 -54q-3 -16 -21 -16h-73l-15 -105q-3 -18 -22 -18h-66q-6 0 -12 6q-7 7 -4 12l14 103h-272 q-6 0 -10 4q-4 8 -2 14zM842 213h166l32 227z" />
<glyph unicode="&#xbf;" horiz-adv-x="495" d="M-223 -365q0 52 14 95q15 46 33 73q15 30 51 66q14 15 33.5 33.5t21.5 19.5q21 11 64 47q35 25 67 51q20 15 45 50q26 38 29 67l12 84q3 20 17 31q13 10 26 10h68q15 0 21 -12q8 -8 8 -27l-13 -86q-3 -29 -16 -63q-8 -23 -22 -51q-8 -15 -35 -46q-25 -25 -37 -34 q-4 -6 -41 -35q-9 -7 -18.5 -15t-14 -11.5t-6.5 -4.5q-1 -1 -37 -29q-27 -21 -39 -30q-4 -3 -15 -14t-18 -17q-18 -20 -28 -41q-6 -10 -17 -43q-8 -24 -8 -57q0 -67 45 -109q45 -45 121 -45q35 0 66 8q14 4 55 19q23 12 45 28q24 18 37 31l33 33q12 14 22 24q25 25 47 3 l37 -31q24 -21 0 -62q-7 -12 -20 -28q-12 -16 -43 -43q-47 -41 -72 -52q-33 -21 -98 -40q-70 -17 -134 -17q-123 0 -206 74q-80 77 -80 196zM158 709q0 50 39 92q42 39 90 39q43 0 69 -29q29 -29 29 -74q0 -53 -39 -92t-92 -39q-39 0 -70 31q-26 33 -26 72z" />
<glyph unicode="&#xc0;" horiz-adv-x="1239" d="M-53 16q-6 14 4 37l756 1379q13 22 34 22h19q19 0 28 -22l365 -1379q3 -23 -8 -37q-13 -16 -31 -16h-86q-11 0 -20 6q-7 5 -11 17l-82 337h-639l-174 -337q-13 -23 -39 -23h-88q-18 0 -28 16zM352 487h525l-162 672h-13zM610 1784l43 69q10 13 25 13q18 0 24 -6l256 -172 q7 -2 11 -15q3 -11 -4 -24l-25 -41q-10 -13 -18 -13q-9 0 -27 9l-270 131q-35 15 -15 49z" />
<glyph unicode="&#xc1;" horiz-adv-x="1239" d="M-53 16q-6 14 4 37l756 1379q13 22 34 22h19q19 0 28 -22l365 -1379q3 -23 -8 -37q-13 -16 -31 -16h-86q-11 0 -20 6q-7 5 -11 17l-82 337h-639l-174 -337q-13 -23 -39 -23h-88q-18 0 -28 16zM352 487h525l-162 672h-13zM586 1649q-9 23 16 39l303 172q9 9 27 6t24 -23 l27 -67q12 -30 -16 -43l-322 -138q-36 -16 -45 17z" />
<glyph unicode="&#xc2;" horiz-adv-x="1239" d="M-53 16q-6 14 4 37l756 1379q13 22 34 22h19q19 0 28 -22l365 -1379q3 -23 -8 -37q-13 -16 -31 -16h-86q-11 0 -20 6q-7 5 -11 17l-82 337h-639l-174 -337q-13 -23 -39 -23h-88q-18 0 -28 16zM352 487h525l-162 672h-13zM512 1622q-15 35 10 49l244 193q17 14 37 14h6 q20 0 39 -25l172 -186q16 -22 -4 -39l-29 -31q-4 -4 -10 -9t-8 -7q-12 0 -25 8l-160 135l-209 -145q-17 -10 -26 -8q-14 3 -19 14z" />
<glyph unicode="&#xc3;" horiz-adv-x="1239" d="M-53 16q-6 14 4 37l756 1379q13 22 34 22h19q19 0 28 -22l365 -1379q3 -23 -8 -37q-13 -16 -31 -16h-86q-11 0 -20 6q-7 5 -11 17l-82 337h-639l-174 -337q-13 -23 -39 -23h-88q-18 0 -28 16zM352 487h525l-162 672h-13zM508 1692q14 32 20 43q6 10 37 55q21 30 62 53 q35 21 75 21q35 0 68 -23q26 -20 43 -51q20 -36 35 -51q23 -23 41 -23q51 0 86 96q15 45 51 23l29 -16q24 -15 14 -47q-14 -38 -22 -52q-13 -20 -37 -55q-21 -30 -58 -49q-36 -19 -73 -19q-33 0 -64 25q-28 22 -45 49q-6 11 -37 53q-26 23 -41 23q-8 0 -24 -4 q-12 -3 -23 -14q-14 -18 -14 -19q-3 -3 -17 -24l-4 -10l-3 -7.5t-1 -3.5q0 -4 -8 -20q-7 -16 -20 -19q-15 -6 -29 2l-33 17q-22 15 -8 47z" />
<glyph unicode="&#xc4;" horiz-adv-x="1239" d="M-53 16q-6 14 4 37l756 1379q13 22 34 22h19q19 0 28 -22l365 -1379q3 -23 -8 -37q-13 -16 -31 -16h-86q-11 0 -20 6q-7 5 -11 17l-82 337h-639l-174 -337q-13 -23 -39 -23h-88q-18 0 -28 16zM352 487h525l-162 672h-13zM489 1706q0 45 33 78t74 33q34 0 59 -25 q23 -26 23 -61q0 -48 -35 -76q-29 -33 -74 -33q-35 0 -57 25q-23 26 -23 59zM889 1706q0 45 33 78q29 33 73 33q36 0 58 -25q24 -24 24 -61q0 -43 -33 -76q-36 -33 -75 -33q-36 0 -58 25t-22 59z" />
<glyph unicode="&#xc5;" horiz-adv-x="1239" d="M-53 16q-6 14 4 37l756 1379q13 22 34 22h19q19 0 28 -22l365 -1379q3 -23 -8 -37q-13 -16 -31 -16h-86q-11 0 -20 6q-7 5 -11 17l-82 337h-639l-174 -337q-13 -23 -39 -23h-88q-18 0 -28 16zM352 487h525l-162 672h-13zM588 1745q0 107 67 180q71 74 168 74 q74 0 123 -55q51 -54 51 -138q0 -108 -69 -180q-71 -74 -166 -74q-75 0 -125 56q-49 55 -49 137zM686 1761q0 -40 23 -78q22 -32 65 -32q47 0 84 43t37 98q0 43 -23 76q-22 28 -63 28q-46 0 -84 -41q-39 -39 -39 -94z" />
<glyph unicode="&#xc6;" horiz-adv-x="1683" d="M-78 16q-7 17 8 37l926 1317q6 10 15 22t10 13q11 11 26 20t39 9h707q9 0 22 -13q8 -16 6 -26l-8 -60q-3 -17 -14 -28t-27 -11h-616l-72 -499h529q7 0 22 -11q8 -17 6 -28l-8 -60q-3 -15 -14 -26q-13 -13 -27 -13h-526l-74 -522h618q14 0 21 -10q11 -12 8 -29l-8 -59 q-4 -19 -14 -27q-12 -12 -27 -12h-729q-16 0 -25 12t-6 27l45 321h-420l-231 -337q-20 -23 -39 -23h-98q-22 0 -25 16zM408 487h346l94 654z" />
<glyph unicode="&#xc7;" horiz-adv-x="1335" d="M127 616q0 172 59 326q57 148 162 266q99 111 246 181q148 65 309 65q134 0 232 -49q98 -45 188 -141q13 -10 10 -29q-4 -22 -16 -29l-60 -47q-16 -13 -26 -10q-14 5 -27 20q-53 59 -143 99q-85 39 -178 39q-112 0 -224 -56q-106 -56 -186 -145q-79 -88 -129 -215 q-49 -125 -49 -256q0 -141 53 -250q49 -113 148 -184q97 -72 221 -72q50 0 102 10q44 11 96 41q51 30 76 49q31 21 82 60q29 22 45 6l64 -62q11 -11 8 -28q-4 -15 -16 -27q-204 -195 -474 -198l-10 -91q75 -15 119 -65q45 -48 45 -131q0 -95 -59 -160q-56 -65 -156 -65 q-46 0 -82 20q-38 21 -57 53q-18 27 6 51l24 23q8 8 21 8q12 0 20 -8q30 -37 74 -37q42 0 68 33t26 80q0 26 -10 49q-11 19 -35 33q-18 10 -41 18q-14 5 -47 12q-34 9 -26 41l20 146q-201 41 -338 215q-135 179 -135 411z" />
<glyph unicode="&#xc8;" horiz-adv-x="1122" d="M129 39l190 1356q3 16 13 26q13 13 26 13h732q14 0 24 -13q7 -10 4 -26l-8 -60q-3 -16 -12 -28q-15 -11 -29 -11h-606l-72 -499h518q10 0 25 -11q7 -14 4 -28l-8 -60q0 -17 -12 -26q-13 -13 -27 -13h-518l-74 -522h608q16 0 23 -10q9 -12 6 -29l-8 -59q-4 -19 -15 -27 q-12 -12 -26 -12h-729q-16 0 -25 12q-8 8 -4 27zM588 1784l43 69q10 13 24 13q19 0 25 -6l256 -172q6 -2 10 -15q3 -11 -4 -24l-24 -41q-10 -13 -19 -13t-27 9l-270 131q-35 15 -14 49z" />
<glyph unicode="&#xc9;" horiz-adv-x="1122" d="M129 39l190 1356q3 16 13 26q13 13 26 13h732q14 0 24 -13q7 -10 4 -26l-8 -60q-3 -16 -12 -28q-15 -11 -29 -11h-606l-72 -499h518q10 0 25 -11q7 -14 4 -28l-8 -60q0 -17 -12 -26q-13 -13 -27 -13h-518l-74 -522h608q16 0 23 -10q9 -12 6 -29l-8 -59q-4 -19 -15 -27 q-12 -12 -26 -12h-729q-16 0 -25 12q-8 8 -4 27zM565 1649q-9 23 17 39l303 172q9 9 26 6q19 -3 25 -23l27 -67q12 -30 -17 -43l-321 -138q-36 -16 -45 17z" />
<glyph unicode="&#xca;" horiz-adv-x="1122" d="M129 39l190 1356q3 16 13 26q13 13 26 13h732q14 0 24 -13q7 -10 4 -26l-8 -60q-3 -16 -12 -28q-15 -11 -29 -11h-606l-72 -499h518q10 0 25 -11q7 -14 4 -28l-8 -60q0 -17 -12 -26q-13 -13 -27 -13h-518l-74 -522h608q16 0 23 -10q9 -12 6 -29l-8 -59q-4 -19 -15 -27 q-12 -12 -26 -12h-729q-16 0 -25 12q-8 8 -4 27zM489 1622q-15 35 11 49l243 193q17 14 37 14h6q20 0 39 -25l172 -186q16 -22 -4 -39l-28 -31q-5 -5 -11.5 -10t-7.5 -6q-11 0 -24 8l-160 135l-209 -145q-17 -10 -27 -8q-13 3 -18 14z" />
<glyph unicode="&#xcb;" horiz-adv-x="1122" d="M129 39l190 1356q3 16 13 26q13 13 26 13h732q14 0 24 -13q7 -10 4 -26l-8 -60q-3 -16 -12 -28q-15 -11 -29 -11h-606l-72 -499h518q10 0 25 -11q7 -14 4 -28l-8 -60q0 -17 -12 -26q-13 -13 -27 -13h-518l-74 -522h608q16 0 23 -10q9 -12 6 -29l-8 -59q-4 -19 -15 -27 q-12 -12 -26 -12h-729q-16 0 -25 12q-8 8 -4 27zM457 1706q0 46 32 78q33 33 74 33q35 0 60 -25q22 -25 22 -61q0 -48 -35 -76q-29 -33 -73 -33q-36 0 -58 25t-22 59zM856 1706q0 45 33 78q29 33 74 33q35 0 57 -25q24 -24 24 -61q0 -44 -32 -76q-36 -33 -76 -33 q-35 0 -57 25q-23 26 -23 59z" />
<glyph unicode="&#xcc;" horiz-adv-x="565" d="M129 39l190 1356q3 16 13 26q13 13 26 13h91q12 0 22 -13q9 -12 6 -26l-190 -1356q-3 -18 -13 -27q-12 -12 -26 -12h-90q-17 0 -23 12q-10 7 -6 27zM266 1784l43 69q10 13 25 13q18 0 24 -6l256 -172q7 -2 11 -15q3 -11 -4 -24l-25 -41q-10 -13 -18 -13q-9 0 -27 9 l-270 131q-35 15 -15 49z" />
<glyph unicode="&#xcd;" horiz-adv-x="565" d="M129 39l190 1356q3 16 13 26q13 13 26 13h91q12 0 22 -13q9 -12 6 -26l-190 -1356q-3 -18 -13 -27q-12 -12 -26 -12h-90q-17 0 -23 12q-10 7 -6 27zM242 1649q-9 23 16 39l303 172q9 9 27 6t24 -23l27 -67q12 -30 -16 -43l-322 -138q-36 -16 -45 17z" />
<glyph unicode="&#xce;" horiz-adv-x="565" d="M129 39l190 1356q3 16 13 26q13 13 26 13h91q12 0 22 -13q9 -12 6 -26l-190 -1356q-3 -18 -13 -27q-12 -12 -26 -12h-90q-17 0 -23 12q-10 7 -6 27zM168 1622q-15 35 10 49l244 193q17 14 37 14h6q20 0 39 -25l172 -186q16 -22 -4 -39l-29 -31q-5 -4 -11 -9t-7 -7 q-12 0 -25 8l-160 135l-209 -145q-17 -10 -26 -8q-14 3 -19 14z" />
<glyph unicode="&#xcf;" horiz-adv-x="565" d="M129 39l190 1356q3 16 13 26q13 13 26 13h91q12 0 22 -13q9 -12 6 -26l-190 -1356q-3 -18 -13 -27q-12 -12 -26 -12h-90q-17 0 -23 12q-10 7 -6 27zM150 1706q0 46 32 78q33 33 74 33q34 0 59 -25q23 -26 23 -61q0 -48 -35 -76q-29 -33 -74 -33q-35 0 -57 25t-22 59z M549 1706q0 45 33 78q29 33 73 33q36 0 58 -25q24 -24 24 -61q0 -44 -32 -76q-36 -33 -76 -33q-36 0 -58 25t-22 59z" />
<glyph unicode="&#xd0;" horiz-adv-x="1421" d="M137 39l88 625h-55q-11 0 -20 12q-10 10 -7 26l2 15q3 16 15 28q11 11 24 11h54l90 639q4 17 12 26q13 13 27 13h415q155 0 285 -86q132 -88 199 -230q71 -139 71 -307q0 -162 -59 -313q-62 -151 -162 -260q-107 -113 -239 -172q-138 -66 -295 -66h-418q-15 0 -21 12 q-10 7 -6 27zM307 141h264q123 0 230 52q109 50 190 137q82 91 127 211q47 127 47 266q0 213 -116 350q-119 137 -314 137h-266l-76 -538h375q16 0 23 -11q9 -12 6 -28l-2 -17q-3 -16 -13 -26q-13 -10 -26 -10h-377z" />
<glyph unicode="&#xd1;" horiz-adv-x="1466" d="M129 39l193 1378q0 19 14 27q13 10 31 10h51l659 -1149h2l154 1090q4 19 16 26q13 13 31 13h66q16 0 26 -13q10 -14 8 -26l-194 -1379q0 -17 -15 -26q-13 -10 -30 -10h-51l-662 1169h-4l-150 -1110q0 -19 -14 -27q-15 -12 -33 -12h-65q-15 0 -27 12q-9 13 -6 27z M606 1692q11 25 21 43q6 10 37 55q21 31 61 53q35 21 76 21q34 0 67 -23q26 -20 43 -51q20 -36 35 -51q23 -23 41 -23q51 0 86 96q15 45 51 23l29 -16q24 -15 14 -47q-14 -38 -22 -52q-13 -20 -37 -55q-21 -30 -57 -49t-74 -19q-33 0 -64 25q-28 22 -45 49q-6 11 -37 53 q-26 23 -40 23q-9 0 -25 -4q-12 -3 -23 -14q-13 -18 -14 -19l-16 -24l-4 -10l-3 -7.5t-1 -3.5q0 -2 -9 -20q-7 -16 -20 -19q-15 -6 -29 2l-33 17q-22 15 -8 47z" />
<glyph unicode="&#xd2;" horiz-adv-x="1552" d="M127 715q26 198 137 372q105 165 275 269q165 98 356 98q131 0 248 -57q122 -64 194 -160q80 -103 113 -236q36 -131 14 -286q-21 -153 -88 -289q-72 -138 -170 -233q-100 -97 -233 -156q-129 -57 -277 -57q-136 0 -250 57q-113 58 -192 156q-79 106 -111 235 q-37 136 -16 287zM272 715q-22 -164 29 -297q53 -136 160 -215q109 -80 252 -80q141 0 274 80q127 77 221 215q91 147 111 297q25 164 -27 297q-52 140 -162 219q-112 80 -251 80q-140 0 -273 -80t-221 -217q-93 -145 -113 -299zM772 1784l43 69q10 13 25 13q18 0 24 -6 l256 -172q6 -2 10 -15q3 -11 -4 -24l-24 -41q-10 -13 -19 -13q-8 0 -26 9l-271 131q-35 15 -14 49z" />
<glyph unicode="&#xd3;" horiz-adv-x="1552" d="M127 715q26 198 137 372q105 165 275 269q165 98 356 98q131 0 248 -57q122 -64 194 -160q80 -103 113 -236q36 -131 14 -286q-21 -153 -88 -289q-72 -138 -170 -233q-100 -97 -233 -156q-129 -57 -277 -57q-136 0 -250 57q-113 58 -192 156q-79 106 -111 235 q-37 136 -16 287zM272 715q-22 -164 29 -297q53 -136 160 -215q109 -80 252 -80q141 0 274 80q127 77 221 215q91 147 111 297q25 164 -27 297q-52 140 -162 219q-112 80 -251 80q-140 0 -273 -80t-221 -217q-93 -145 -113 -299zM748 1649q-9 23 16 39l303 172q9 9 27 6 t24 -23l27 -67q12 -30 -17 -43l-321 -138q-36 -16 -45 17z" />
<glyph unicode="&#xd4;" horiz-adv-x="1552" d="M127 715q26 198 137 372q105 165 275 269q165 98 356 98q131 0 248 -57q122 -64 194 -160q80 -103 113 -236q36 -131 14 -286q-21 -153 -88 -289q-72 -138 -170 -233q-100 -97 -233 -156q-129 -57 -277 -57q-136 0 -250 57q-113 58 -192 156q-79 106 -111 235 q-37 136 -16 287zM272 715q-22 -164 29 -297q53 -136 160 -215q109 -80 252 -80q141 0 274 80q127 77 221 215q91 147 111 297q25 164 -27 297q-52 140 -162 219q-112 80 -251 80q-140 0 -273 -80t-221 -217q-93 -145 -113 -299zM672 1622q-15 35 10 49l244 193q17 14 37 14 h6q20 0 39 -25l172 -186q16 -22 -4 -39l-29 -31q-5 -5 -11.5 -10t-7.5 -6q-11 0 -24 8l-160 135l-209 -145q-17 -10 -26 -8q-14 3 -19 14z" />
<glyph unicode="&#xd5;" horiz-adv-x="1552" d="M127 715q26 198 137 372q105 165 275 269q165 98 356 98q131 0 248 -57q122 -64 194 -160q80 -103 113 -236q36 -131 14 -286q-21 -153 -88 -289q-72 -138 -170 -233q-100 -97 -233 -156q-129 -57 -277 -57q-136 0 -250 57q-113 58 -192 156q-79 106 -111 235 q-37 136 -16 287zM272 715q-22 -164 29 -297q53 -136 160 -215q109 -80 252 -80q141 0 274 80q127 77 221 215q91 147 111 297q25 164 -27 297q-52 140 -162 219q-112 80 -251 80q-140 0 -273 -80t-221 -217q-93 -145 -113 -299zM668 1692q14 32 20 43q6 10 37 55 q21 31 61 53q35 21 76 21q35 0 68 -23q26 -20 43 -51q20 -36 35 -51q23 -23 41 -23q51 0 86 96q15 45 51 23l28 -16q25 -15 15 -47q-12 -33 -23 -52q-12 -20 -37 -55q-21 -30 -57 -49t-74 -19q-32 0 -63 25q-28 22 -45 49q-5 11 -37 53q-26 23 -41 23q-9 0 -25 -4 q-11 -3 -22 -14q-13 -18 -14 -19q-3 -3 -17 -24l-4 -10l-3 -7.5t-1 -3.5q0 -4 -8 -20q-6 -16 -21 -19q-15 -6 -28 2l-33 17q-22 15 -8 47z" />
<glyph unicode="&#xd6;" horiz-adv-x="1552" d="M127 715q26 198 137 372q105 165 275 269q165 98 356 98q131 0 248 -57q122 -64 194 -160q80 -103 113 -236q36 -131 14 -286q-21 -153 -88 -289q-72 -138 -170 -233q-100 -97 -233 -156q-129 -57 -277 -57q-136 0 -250 57q-113 58 -192 156q-79 106 -111 235 q-37 136 -16 287zM272 715q-22 -164 29 -297q53 -136 160 -215q109 -80 252 -80q141 0 274 80q127 77 221 215q91 147 111 297q25 164 -27 297q-52 140 -162 219q-112 80 -251 80q-140 0 -273 -80t-221 -217q-93 -145 -113 -299zM651 1706q0 45 33 78t74 33q35 0 57 -25 q25 -25 25 -61q0 -43 -33 -76q-36 -33 -76 -33q-35 0 -57 25q-23 26 -23 59zM1051 1706q0 44 30 78q33 33 76 33q35 0 60 -25q22 -25 22 -61q0 -48 -35 -76q-29 -33 -74 -33q-35 0 -57 25t-22 59z" />
<glyph unicode="&#xd7;" horiz-adv-x="929" d="M141 459q3 19 15 28l235 230l-166 223q-9 10 -6 27q3 20 14 28l39 35q13 10 27 10q15 0 25 -10l165 -223l242 233q15 11 25 9q11 0 22 -11l43 -47q9 -9 6 -24q0 -20 -12 -29l-240 -233l170 -226q11 -14 5 -28q0 -16 -15 -27l-41 -33q-27 -24 -49 -2l-170 227l-237 -229 q-13 -10 -25 -10q-16 3 -23 10l-43 47q-9 9 -6 25z" />
<glyph unicode="&#xd8;" horiz-adv-x="1554" d="M90 72q0 17 12 26l131 127q-144 212 -104 490q26 198 137 372q105 165 275 269q168 98 356 98q124 0 231 -49q111 -54 189 -141l137 133q10 10 25 10t22 -10l10 -11q10 -14 7 -26q-3 -18 -15 -27l-137 -133q140 -212 100 -485q-22 -155 -90 -289q-68 -136 -168 -233 t-233 -156q-129 -57 -277 -57q-123 0 -227 49q-104 45 -186 133l-133 -127q-13 -10 -27 -10q-12 0 -21 12l-8 8q-10 10 -6 27zM274 715q-30 -219 72 -383l860 827q-128 152 -325 152q-139 0 -275 -80q-132 -81 -219 -217q-90 -140 -113 -299zM393 266q122 -143 322 -143 q141 0 274 80q134 81 219 215q92 139 113 297q30 214 -68 379z" />
<glyph unicode="&#xd9;" horiz-adv-x="1363" d="M184 528l121 867q3 16 17 26q13 13 24 13h88q15 0 25 -13q7 -13 4 -26l-119 -854q-24 -180 49 -299q73 -117 225 -117q154 0 263 121q109 118 133 291l121 858q3 17 12 26q13 13 27 13h88q12 0 22 -13q9 -12 6 -26l-121 -867q-15 -119 -61 -217q-48 -102 -115 -172 q-69 -74 -170 -119q-104 -40 -223 -40q-134 0 -240 71q-103 71 -149 199q-48 126 -27 278zM666 1784l43 69q10 13 24 13q19 0 25 -6l256 -172q6 -2 10 -17q3 -8 -4 -22l-25 -41q-10 -13 -18 -13q-9 0 -27 9l-270 131q-35 15 -14 49z" />
<glyph unicode="&#xda;" horiz-adv-x="1363" d="M184 528l121 867q3 16 17 26q13 13 24 13h88q15 0 25 -13q7 -13 4 -26l-119 -854q-24 -180 49 -299q73 -117 225 -117q154 0 263 121q109 118 133 291l121 858q3 17 12 26q13 13 27 13h88q12 0 22 -13q9 -12 6 -26l-121 -867q-15 -119 -61 -217q-48 -102 -115 -172 q-69 -74 -170 -119q-104 -40 -223 -40q-134 0 -240 71q-103 71 -149 199q-48 126 -27 278zM641 1649q-9 23 16 39l304 172q9 9 26 6q19 -3 25 -23l26 -67q12 -30 -16 -43l-322 -138q-36 -16 -45 17z" />
<glyph unicode="&#xdb;" horiz-adv-x="1363" d="M184 528l121 867q3 16 17 26q13 13 24 13h88q15 0 25 -13q7 -13 4 -26l-119 -854q-24 -180 49 -299q73 -117 225 -117q154 0 263 121q109 118 133 291l121 858q3 17 12 26q13 13 27 13h88q12 0 22 -13q9 -12 6 -26l-121 -867q-15 -119 -61 -217q-48 -102 -115 -172 q-69 -74 -170 -119q-104 -40 -223 -40q-134 0 -240 71q-103 71 -149 199q-48 126 -27 278zM567 1622q-15 35 11 49l243 193q17 14 37 14h6q20 0 39 -25l172 -186q16 -22 -4 -39l-29 -31q-4 -4 -10 -9t-8 -7q-12 0 -25 8l-159 135l-209 -145q-17 -10 -27 -8q-13 3 -18 14z " />
<glyph unicode="&#xdc;" horiz-adv-x="1363" d="M184 528l121 867q3 16 17 26q13 13 24 13h88q15 0 25 -13q7 -13 4 -26l-119 -854q-24 -180 49 -299q73 -117 225 -117q154 0 263 121q109 118 133 291l121 858q3 17 12 26q13 13 27 13h88q12 0 22 -13q9 -12 6 -26l-121 -867q-15 -119 -61 -217q-48 -102 -115 -172 q-69 -74 -170 -119q-104 -40 -223 -40q-134 0 -240 71q-103 71 -149 199q-48 126 -27 278zM543 1706q0 46 32 78q33 33 74 33q35 0 60 -25q22 -25 22 -61q0 -48 -35 -76q-29 -33 -73 -33q-36 0 -58 25t-22 59zM942 1706q0 45 33 78q29 33 74 33q35 0 57 -25q24 -24 24 -61 q0 -44 -32 -76q-36 -33 -76 -33q-35 0 -57 25q-23 26 -23 59z" />
<glyph unicode="&#xdd;" horiz-adv-x="1060" d="M115 1417q9 17 30 17h95q18 0 28 -19l285 -584h4l455 584q16 19 32 19h99q22 0 28 -21q6 -19 -8 -39l-540 -682l-93 -653q0 -19 -14 -27q-12 -12 -27 -12h-86q-15 0 -24 12q-9 10 -6 27l92 651l-348 694q-9 18 -2 33zM481 1649q-9 23 17 39l303 172q9 9 26 6 q19 -3 25 -23l27 -67q12 -30 -17 -43l-321 -138q-36 -16 -45 17z" />
<glyph unicode="&#xde;" horiz-adv-x="1132" d="M129 39l190 1354q3 14 17 28q10 13 24 13h86q13 0 23 -13q10 -14 8 -26l-31 -219h289q154 0 252 -119q103 -115 103 -291q0 -132 -66 -252q-64 -116 -176 -184t-238 -68h-293l-30 -223q-3 -17 -17 -27q-12 -12 -24 -12h-86q-16 0 -25 12q-9 10 -6 27zM338 414h280 q124 0 218 104q96 107 96 248q0 105 -66 180q-65 74 -161 74h-281z" />
<glyph unicode="&#xdf;" horiz-adv-x="1007" d="M-20 -575l202 1417q43 303 166 456q123 156 316 156q115 0 192 -65q78 -66 78 -193q0 -60 -25 -127q-22 -65 -57 -111q-23 -37 -66 -92q-33 -42 -57 -82q-22 -42 -22 -63q0 -23 30 -76q11 -21 64 -102q39 -59 63 -125q29 -79 29 -142q0 -139 -86 -219q-89 -77 -209 -77 q-115 0 -192 38q-34 15 -23 48l18 55q3 14 17 18q12 6 26 0q78 -35 144 -35q68 0 114 52q48 51 48 129q0 46 -31 110q-30 62 -68 109q-41 54 -65 106q-31 57 -31 99q0 43 35 108q40 69 80 117q36 44 80 119q34 64 34 114q0 74 -43 117t-102 43q-119 0 -199 -123 q-80 -124 -114 -364l-203 -1415q0 -18 -12 -27q-15 -12 -29 -12h-74q-12 0 -24 12q-7 13 -4 27z" />
<glyph unicode="&#xe0;" d="M59 342q0 225 117 363q120 135 291 135q30 0 72 -11q36 -9 55 -22q22 -11 41 -27l22 -22l9 -10l26 53q9 18 29 18h45q30 0 27 -33l-88 -755q-3 -31 -37 -31h-45q-24 0 -27 31l-8 55l-13 -10q-1 -1 -12.5 -11t-21.5 -16q-21 -17 -49 -33q-33 -18 -68 -26q-45 -10 -80 -10 q-124 0 -205 106q-80 109 -80 256zM201 342q0 -93 47 -164q46 -69 131 -69q40 0 72 14q37 12 61 33q5 5 13.5 13t15.5 15t12 13q20 20 29 32l8 15l41 362q-2 2 -6 10q-1 2 -4 5.5t-7.5 8.5t-7.5 9q-23 23 -35 33q-20 13 -49 22q-37 11 -67 11q-47 0 -90 -21q-44 -20 -82 -61 q-39 -42 -60 -115q-22 -74 -22 -166zM418 1331l43 70q9 12 24 12q19 0 25 -6l256 -172q6 -2 10 -14q3 -11 -4 -25l-24 -41q-9 -12 -19 -12q-11 0 -27 8l-270 131q-35 15 -14 49z" />
<glyph unicode="&#xe1;" d="M59 342q0 225 117 363q120 135 291 135q30 0 72 -11q36 -9 55 -22q22 -11 41 -27l22 -22l9 -10l26 53q9 18 29 18h45q30 0 27 -33l-88 -755q-3 -31 -37 -31h-45q-24 0 -27 31l-8 55l-13 -10q-1 -1 -12.5 -11t-21.5 -16q-21 -17 -49 -33q-33 -18 -68 -26q-45 -10 -80 -10 q-124 0 -205 106q-80 109 -80 256zM201 342q0 -93 47 -164q46 -69 131 -69q40 0 72 14q37 12 61 33q5 5 13.5 13t15.5 15t12 13q20 20 29 32l8 15l41 362q-2 2 -6 10q-1 2 -4 5.5t-7.5 8.5t-7.5 9q-23 23 -35 33q-20 13 -49 22q-37 11 -67 11q-47 0 -90 -21q-44 -20 -82 -61 q-39 -42 -60 -115q-22 -74 -22 -166zM393 1194q-9 23 17 39l303 172q9 9 26 6q20 -3 25 -22l27 -68q12 -30 -17 -43l-321 -137q-37 -16 -45 16z" />
<glyph unicode="&#xe2;" d="M59 342q0 225 117 363q120 135 291 135q30 0 72 -11q36 -9 55 -22q22 -11 41 -27l22 -22l9 -10l26 53q9 18 29 18h45q30 0 27 -33l-88 -755q-3 -31 -37 -31h-45q-24 0 -27 31l-8 55l-13 -10q-1 -1 -12.5 -11t-21.5 -16q-21 -17 -49 -33q-33 -18 -68 -26q-45 -10 -80 -10 q-124 0 -205 106q-80 109 -80 256zM201 342q0 -93 47 -164q46 -69 131 -69q40 0 72 14q37 12 61 33q5 5 13.5 13t15.5 15t12 13q20 20 29 32l8 15l41 362q-2 2 -6 10q-1 2 -4 5.5t-7.5 8.5t-7.5 9q-23 23 -35 33q-20 13 -49 22q-37 11 -67 11q-47 0 -90 -21q-44 -20 -82 -61 q-39 -42 -60 -115q-22 -74 -22 -166zM319 1171q-15 35 11 50l243 192q17 14 37 14h6q21 0 39 -24l172 -186q16 -22 -4 -39l-28 -31q-4 -5 -10.5 -10.5t-8.5 -6.5q-9 0 -24 9l-160 135l-209 -146q-17 -10 -27 -8q-12 3 -18 15z" />
<glyph unicode="&#xe3;" d="M59 342q0 225 117 363q120 135 291 135q30 0 72 -11q36 -9 55 -22q22 -11 41 -27l22 -22l9 -10l26 53q9 18 29 18h45q30 0 27 -33l-88 -755q-3 -31 -37 -31h-45q-24 0 -27 31l-8 55l-13 -10q-1 -1 -12.5 -11t-21.5 -16q-21 -17 -49 -33q-33 -18 -68 -26q-45 -10 -80 -10 q-124 0 -205 106q-80 109 -80 256zM201 342q0 -93 47 -164q46 -69 131 -69q40 0 72 14q37 12 61 33q5 5 13.5 13t15.5 15t12 13q20 20 29 32l8 15l41 362q-2 2 -6 10q-1 2 -4 5.5t-7.5 8.5t-7.5 9q-23 23 -35 33q-20 13 -49 22q-37 11 -67 11q-47 0 -90 -21q-44 -20 -82 -61 q-39 -42 -60 -115q-22 -74 -22 -166zM315 1241q11 25 21 43q6 10 37 55q23 33 61 54q33 20 76 20q37 0 68 -22q25 -19 43 -52q21 -38 34 -51q22 -22 41 -22q51 0 86 96q15 44 52 22l28 -16q25 -15 15 -47q-11 -30 -23 -51q-18 -29 -37 -56q-21 -30 -57 -49q-34 -18 -74 -18 q-33 0 -63 24q-27 21 -45 50q-6 11 -37 53q-25 22 -41 22q-9 0 -25 -4q-11 -3 -22 -14q-3 -4 -8.5 -10t-6.5 -8q-2 -2 -4 -5.5t-5.5 -9t-6.5 -10.5l-4 -10l-3 -7.5t-1 -3.5q0 -4 -8 -20q-6 -15 -21 -18q-15 -6 -29 2l-32 16q-22 16 -9 47z" />
<glyph unicode="&#xe4;" d="M59 342q0 225 117 363q120 135 291 135q30 0 72 -11q36 -9 55 -22q22 -11 41 -27l22 -22l9 -10l26 53q9 18 29 18h45q30 0 27 -33l-88 -755q-3 -31 -37 -31h-45q-24 0 -27 31l-8 55l-13 -10q-1 -1 -12.5 -11t-21.5 -16q-21 -17 -49 -33q-33 -18 -68 -26q-45 -10 -80 -10 q-124 0 -205 106q-80 109 -80 256zM201 342q0 -93 47 -164q46 -69 131 -69q40 0 72 14q37 12 61 33q5 5 13.5 13t15.5 15t12 13q20 20 29 32l8 15l41 362q-2 2 -6 10q-1 2 -4 5.5t-7.5 8.5t-7.5 9q-23 23 -35 33q-20 13 -49 22q-37 11 -67 11q-47 0 -90 -21q-44 -20 -82 -61 q-39 -42 -60 -115q-22 -74 -22 -166zM324 1282q0 46 32 78q33 33 76 33q35 0 57 -25q23 -26 23 -61q0 -45 -33 -78q-36 -31 -76 -31q-31 0 -57 23q-22 25 -22 61zM682 1282q0 45 33 78t73 33q38 0 60 -25t22 -61q0 -46 -32 -78q-36 -31 -76 -31q-34 0 -57 23q-23 26 -23 61z " />
<glyph unicode="&#xe5;" d="M59 342q0 225 117 363q120 135 291 135q30 0 72 -11q36 -9 55 -22q22 -11 41 -27l22 -22l9 -10l26 53q9 18 29 18h45q30 0 27 -33l-88 -755q-3 -31 -37 -31h-45q-24 0 -27 31l-8 55l-13 -10q-1 -1 -12.5 -11t-21.5 -16q-21 -17 -49 -33q-33 -18 -68 -26q-45 -10 -80 -10 q-124 0 -205 106q-80 109 -80 256zM201 342q0 -93 47 -164q46 -69 131 -69q40 0 72 14q37 12 61 33q5 5 13.5 13t15.5 15t12 13q20 20 29 32l8 15l41 362q-2 2 -6 10q-1 2 -4 5.5t-7.5 8.5t-7.5 9q-23 23 -35 33q-20 13 -49 22q-37 11 -67 11q-47 0 -90 -21q-44 -20 -82 -61 q-39 -42 -60 -115q-22 -74 -22 -166zM383 1200q0 106 68 180q71 74 167 74q74 0 123 -55q52 -55 52 -137q0 -108 -70 -181t-166 -73q-76 0 -125 55t-49 137zM481 1217q0 -40 23 -78q23 -33 65 -33q47 0 84 43t37 98q0 45 -22 76q-23 29 -64 29q-46 0 -84 -41 q-39 -39 -39 -94z" />
<glyph unicode="&#xe6;" horiz-adv-x="1253" d="M31 254q14 113 104 190q92 74 217 74q42 0 86 -6q12 -1 62 -8l20 -6q24 124 8 170q-17 45 -88 45q-114 0 -227 -45q-23 -6 -31 2q-9 9 -12 24l-4 56q-3 29 37 41q12 3 39 12q12 5 94 22q71 15 131 15q81 0 125 -29q38 -28 57 -84q57 52 129 82q76 31 146 31 q120 0 186 -60t66 -155q0 -137 -144 -205q-141 -66 -405 -45q-9 -106 45 -187q52 -79 145 -79q84 0 178 61q22 13 33 10q13 0 27 -20l22 -33q8 -11 8 -25q-8 -17 -22 -28q-48 -39 -119 -66q-73 -28 -156 -28q-159 0 -241 137q-55 -58 -137 -97q-81 -40 -166 -40 q-110 0 -170 75q-58 76 -43 199zM158 250q-9 -66 28 -103q38 -38 99 -38q55 0 108 30q47 24 86 70l25 182q-60 17 -150 17q-74 0 -129 -43q-55 -40 -67 -115zM647 489q189 -16 283 19q104 30 104 108q0 44 -35 72q-34 27 -94 27q-84 0 -162 -66q-74 -63 -96 -160z" />
<glyph unicode="&#xe7;" horiz-adv-x="841" d="M61 348q0 133 62 248q57 111 160 178q107 66 221 66q85 0 147 -39q66 -42 105 -109q9 -15 2 -28q-3 -15 -19 -25l-37 -27q-33 -20 -51 9q-52 81 -153 81q-115 0 -199 -100q-88 -98 -88 -237q0 -108 55 -181q51 -75 140 -75q42 0 88 22q43 24 65 49q29 34 39 49 q21 38 53 13l43 -37q21 -21 2 -53q-44 -70 -123 -123q-82 -49 -182 -49l-10 -91q75 -15 119 -65q45 -48 45 -131q0 -91 -60 -160q-59 -65 -155 -65q-45 0 -84 20q-40 22 -56 53q-18 26 7 51l24 23q8 8 21 8q12 0 20 -8q30 -37 74 -37q41 0 67 33q27 34 27 80q0 28 -12 49 q-10 18 -33 33q-26 13 -41 18q-25 7 -47 12q-33 9 -27 41l23 154q-99 33 -166 129q-66 101 -66 221z" />
<glyph unicode="&#xe8;" horiz-adv-x="825" d="M61 342q0 129 54 246q55 113 155 182q101 70 226 70q120 0 186 -60t66 -155q0 -137 -142 -205q-141 -66 -407 -45q-9 -107 47 -187q52 -79 143 -79q87 0 184 63q34 21 52 -10l24 -35q15 -27 -14 -53q-128 -94 -275 -94q-132 0 -213 106q-86 109 -86 256zM217 481 q183 -15 283 23q106 37 106 112q0 39 -33 72q-42 27 -96 27q-89 0 -162 -70q-77 -68 -98 -164zM371 1331l43 70q9 12 24 12q19 0 25 -6l256 -172q6 -2 10 -14q3 -11 -4 -25l-25 -41q-9 -12 -18 -12q-11 0 -27 8l-270 131q-35 15 -14 49z" />
<glyph unicode="&#xe9;" horiz-adv-x="825" d="M61 342q0 129 54 246q55 113 155 182q101 70 226 70q120 0 186 -60t66 -155q0 -137 -142 -205q-141 -66 -407 -45q-9 -107 47 -187q52 -79 143 -79q87 0 184 63q34 21 52 -10l24 -35q15 -27 -14 -53q-128 -94 -275 -94q-132 0 -213 106q-86 109 -86 256zM217 481 q183 -15 283 23q106 37 106 112q0 39 -33 72q-42 27 -96 27q-89 0 -162 -70q-77 -68 -98 -164zM346 1194q-9 23 16 39l304 172q9 9 26 6q20 -3 25 -22l26 -68q12 -30 -16 -43l-321 -137q-38 -16 -46 16z" />
<glyph unicode="&#xea;" horiz-adv-x="825" d="M61 342q0 129 54 246q55 113 155 182q101 70 226 70q120 0 186 -60t66 -155q0 -137 -142 -205q-141 -66 -407 -45q-9 -107 47 -187q52 -79 143 -79q87 0 184 63q34 21 52 -10l24 -35q15 -27 -14 -53q-128 -94 -275 -94q-132 0 -213 106q-86 109 -86 256zM217 481 q183 -15 283 23q106 37 106 112q0 39 -33 72q-42 27 -96 27q-89 0 -162 -70q-77 -68 -98 -164zM274 1171q-15 35 11 50l243 192q17 14 37 14h6q21 0 39 -24l172 -186q16 -22 -4 -39l-28 -31q-4 -5 -10.5 -10.5t-8.5 -6.5q-9 0 -24 9l-160 135l-209 -146q-17 -10 -27 -8 q-12 3 -18 15z" />
<glyph unicode="&#xeb;" horiz-adv-x="825" d="M61 342q0 129 54 246q55 113 155 182q101 70 226 70q120 0 186 -60t66 -155q0 -137 -142 -205q-141 -66 -407 -45q-9 -107 47 -187q52 -79 143 -79q87 0 184 63q34 21 52 -10l24 -35q15 -27 -14 -53q-128 -94 -275 -94q-132 0 -213 106q-86 109 -86 256zM217 481 q183 -15 283 23q106 37 106 112q0 39 -33 72q-42 27 -96 27q-89 0 -162 -70q-77 -68 -98 -164zM276 1282q0 45 33 78t76 33q35 0 57 -25q23 -26 23 -61q0 -45 -33 -78q-36 -31 -76 -31q-31 0 -57 23q-23 26 -23 61zM635 1282q0 45 33 78t73 33q38 0 60 -25t22 -61 q0 -46 -32 -78q-36 -31 -76 -31q-35 0 -58 23q-22 25 -22 61z" />
<glyph unicode="&#xec;" horiz-adv-x="423" d="M68 39l102 741q3 16 14 27q12 12 27 12h72q13 0 22 -12q11 -14 8 -27l-104 -741q0 -18 -12 -27q-15 -12 -29 -12h-72q-10 0 -22 12q-9 13 -6 27zM139 1331l43 70q9 12 25 12q18 0 24 -6l256 -172q7 -2 11 -14q3 -11 -4 -25l-25 -41q-9 -12 -18 -12q-11 0 -27 8l-270 131 q-35 15 -15 49z" />
<glyph unicode="&#xed;" horiz-adv-x="423" d="M68 39l102 741q3 16 14 27q12 12 27 12h72q13 0 22 -12q11 -14 8 -27l-104 -741q0 -18 -12 -27q-15 -12 -29 -12h-72q-10 0 -22 12q-9 13 -6 27zM115 1194q-9 23 16 39l303 172q9 9 27 6q19 -3 24 -22l27 -68q12 -30 -16 -43l-322 -137q-37 -16 -45 16z" />
<glyph unicode="&#xee;" horiz-adv-x="423" d="M39 1171q-16 36 10 50l244 192q17 14 37 14h6q21 0 39 -24l172 -186q16 -22 -4 -39l-29 -31q-4 -5 -10 -10.5t-8 -6.5q-10 0 -25 9l-160 135l-209 -146q-17 -10 -26 -8q-13 3 -19 15zM68 39l102 741q3 16 14 27q12 12 27 12h72q13 0 22 -12q11 -14 8 -27l-104 -741 q0 -18 -12 -27q-15 -12 -29 -12h-72q-10 0 -22 12q-9 13 -6 27z" />
<glyph unicode="&#xef;" horiz-adv-x="423" d="M43 1282q0 45 33 78t76 33q35 0 57 -25t22 -61q0 -46 -32 -78q-36 -31 -76 -31q-31 0 -57 23q-23 26 -23 61zM68 39l102 741q3 16 14 27q12 12 27 12h72q13 0 22 -12q11 -14 8 -27l-104 -741q0 -18 -12 -27q-15 -12 -29 -12h-72q-10 0 -22 12q-9 13 -6 27zM401 1282 q0 45 33 78t74 33q37 0 59 -25q23 -26 23 -61q0 -45 -33 -78q-36 -31 -76 -31q-34 0 -57 23q-23 26 -23 61z" />
<glyph unicode="&#xf0;" horiz-adv-x="1021" d="M63 385q0 118 39 209q37 98 101 162q61 61 147 100q81 37 174 37q33 0 47 -4q15 0 43 -8q11 -1 39 -11q26 -9 35 -14l31 -16q11 -4 24 -13q8 -9 19 -12q6 -4 12 -10l6 -4q-21 187 -178 352l-192 -115q-15 -9 -25 -2q-11 3 -18 17l-7 14q-7 13 0 27q2 14 19 24l156 94 q-87 75 -160 111q-31 15 -10 49l32 53q12 24 43 15q115 -50 226 -152l147 82q31 19 45 -14l6 -15q6 -13 0 -26q-3 -16 -18 -25l-115 -63q87 -97 146 -240q57 -134 57 -305q0 -188 -64 -346q-65 -160 -184 -258t-274 -98q-148 0 -248 118q-101 119 -101 287zM207 393 q0 -115 63 -196q61 -82 160 -82q61 0 127 32q62 42 98 91q46 59 70 120q29 73 43 138q14 63 14 131l-6 8q-6 9 -18 18q-4 3 -14 12t-15 13q-9 12 -37 29q-10 9 -45 26q-27 12 -57 21q-35 6 -68 6q-127 0 -219 -109q-96 -105 -96 -258z" />
<glyph unicode="&#xf1;" horiz-adv-x="946" d="M68 39l102 741q4 19 12 27q9 12 29 12h41q24 0 27 -24l8 -64l14 10q25 20 41 29l59 33q45 18 74 24q50 13 86 13q144 0 205 -101q58 -101 37 -268l-62 -432q0 -18 -12 -27q-15 -12 -29 -12h-73q-13 0 -25 12q-7 13 -4 27l59 432q16 122 -18 172q-29 59 -111 59 q-31 0 -73 -10q-41 -12 -68 -30q-30 -20 -51 -35q-21 -13 -37 -29l-14 -12l-76 -547q-4 -19 -14 -27q-12 -12 -29 -12h-70q-16 0 -22 12q-10 7 -6 27zM289 1241q14 32 20 43q6 10 37 55q21 30 60 54q36 20 77 20q38 0 66 -22q26 -18 45 -52q20 -36 35 -51q22 -22 41 -22 q51 0 86 96q15 44 51 22l29 -16q24 -15 14 -47q-11 -30 -23 -51q-27 -43 -36 -56q-21 -30 -58 -49q-35 -18 -74 -18q-34 0 -61 24q-28 20 -47 50q-14 28 -39 53q-19 22 -39 22q-8 0 -24 -4q-12 -3 -23 -14q-6 -8 -16 -18q0 -1 -3 -5t-5.5 -9.5t-4.5 -10.5q-10 -15 -10 -21 q0 -4 -8 -20q-6 -15 -21 -18q-15 -6 -28 2l-33 16q-22 15 -8 47z" />
<glyph unicode="&#xf2;" horiz-adv-x="911" d="M59 352q0 127 56 242q60 114 157 178q103 68 217 68q133 0 224 -111q94 -110 94 -260q0 -133 -57 -244q-59 -112 -156 -178q-98 -67 -217 -67q-131 0 -225 110q-93 113 -93 262zM199 365q0 -108 55 -181q51 -75 137 -75q112 0 191 104q84 100 84 244q0 103 -56 174 q-53 71 -135 71q-114 0 -192 -100q-84 -97 -84 -237zM375 1331l43 70q9 12 24 12q19 0 25 -6l256 -172q6 -2 10 -14q3 -11 -4 -25l-24 -41q-9 -12 -19 -12q-11 0 -27 8l-270 131q-35 15 -14 49z" />
<glyph unicode="&#xf3;" horiz-adv-x="911" d="M59 352q0 127 56 242q60 114 157 178q103 68 217 68q133 0 224 -111q94 -110 94 -260q0 -133 -57 -244q-59 -112 -156 -178q-98 -67 -217 -67q-131 0 -225 110q-93 113 -93 262zM199 365q0 -108 55 -181q51 -75 137 -75q112 0 191 104q84 100 84 244q0 103 -56 174 q-53 71 -135 71q-114 0 -192 -100q-84 -97 -84 -237zM350 1194q-9 23 17 39l303 172q9 9 26 6q20 -3 25 -22l27 -68q12 -30 -17 -43l-321 -137q-37 -16 -45 16z" />
<glyph unicode="&#xf4;" horiz-adv-x="911" d="M59 352q0 127 56 242q60 114 157 178q103 68 217 68q133 0 224 -111q94 -110 94 -260q0 -133 -57 -244q-59 -112 -156 -178q-98 -67 -217 -67q-131 0 -225 110q-93 113 -93 262zM199 365q0 -108 55 -181q51 -75 137 -75q112 0 191 104q84 100 84 244q0 103 -56 174 q-53 71 -135 71q-114 0 -192 -100q-84 -97 -84 -237zM276 1171q-15 35 11 50l243 192q17 14 37 14h6q21 0 39 -24l172 -186q16 -22 -4 -39l-28 -31q-4 -5 -11 -10.5t-8 -6.5q-9 0 -24 9l-160 135l-209 -146q-17 -10 -27 -8q-12 3 -18 15z" />
<glyph unicode="&#xf5;" horiz-adv-x="911" d="M59 352q0 127 56 242q60 114 157 178q103 68 217 68q133 0 224 -111q94 -110 94 -260q0 -133 -57 -244q-59 -112 -156 -178q-98 -67 -217 -67q-131 0 -225 110q-93 113 -93 262zM199 365q0 -108 55 -181q51 -75 137 -75q112 0 191 104q84 100 84 244q0 103 -56 174 q-53 71 -135 71q-114 0 -192 -100q-84 -97 -84 -237zM274 1241q11 25 21 43q6 10 37 55q23 33 61 54q33 20 76 20q37 0 68 -22q25 -19 43 -52q21 -38 34 -51q22 -22 41 -22q51 0 86 96q15 44 52 22l28 -16q25 -15 15 -47q-11 -30 -23 -51q-18 -29 -37 -56q-21 -30 -57 -49 q-34 -18 -74 -18q-33 0 -63 24q-27 21 -45 50q-5 11 -37 53q-25 22 -41 22q-9 0 -25 -4q-11 -3 -22 -14q-3 -4 -8.5 -10t-6.5 -8q-2 -2 -4 -5.5t-5.5 -9t-6.5 -10.5l-4 -10l-3 -7.5t-1 -3.5q0 -4 -8 -20q-6 -15 -21 -18q-15 -6 -29 2l-32 16q-22 16 -9 47z" />
<glyph unicode="&#xf6;" horiz-adv-x="911" d="M59 352q0 127 56 242q60 114 157 178q103 68 217 68q133 0 224 -111q94 -110 94 -260q0 -133 -57 -244q-59 -112 -156 -178q-98 -67 -217 -67q-131 0 -225 110q-93 113 -93 262zM199 365q0 -108 55 -181q51 -75 137 -75q112 0 191 104q84 100 84 244q0 103 -56 174 q-53 71 -135 71q-114 0 -192 -100q-84 -97 -84 -237zM281 1282q0 46 32 78q33 33 76 33q35 0 57 -25q23 -26 23 -61q0 -45 -33 -78q-36 -31 -76 -31q-31 0 -57 23q-22 25 -22 61zM639 1282q0 45 33 78t73 33q38 0 60 -25t22 -61q0 -46 -32 -78q-36 -31 -76 -31q-34 0 -57 23 q-23 26 -23 61z" />
<glyph unicode="&#xf7;" horiz-adv-x="1015" d="M137 682l8 57q0 18 15 27q12 12 26 12h705q10 0 22 -12q9 -18 7 -27l-9 -57q-4 -19 -14 -27q-9 -12 -25 -12h-706q-11 0 -23 12q-8 16 -6 27zM362 336q0 50 39 92q42 39 91 39q43 0 69 -29q29 -29 29 -73q0 -54 -39 -93t-92 -39q-39 0 -70 31q-27 34 -27 72zM465 1069 q0 53 39 92q36 39 88 39q38 0 67 -29q25 -28 25 -71q0 -55 -37 -92q-38 -41 -88 -41q-40 0 -67 30t-27 72z" />
<glyph unicode="&#xf8;" horiz-adv-x="911" d="M55 86q3 17 13 27l41 41q-50 92 -50 198q0 127 56 242q60 114 157 178q103 68 217 68q128 0 222 -107l49 47q13 13 26 13t23 -13l10 -10q9 -10 6 -27q-4 -18 -14 -26l-53 -51q49 -91 49 -197q0 -133 -57 -244q-59 -112 -156 -178q-98 -67 -217 -67q-128 0 -221 106 l-37 -37q-12 -12 -27 -12q-13 0 -22 12l-9 10q-10 13 -6 27zM199 365q0 -59 16 -109l393 379q-52 70 -133 70q-110 0 -192 -101q-84 -104 -84 -239zM256 180q52 -67 135 -67q111 0 191 100q84 103 84 244q0 45 -17 104z" />
<glyph unicode="&#xf9;" horiz-adv-x="929" d="M102 350l60 430q4 18 16 27q12 12 25 12h73q14 0 23 -12q11 -14 8 -27l-61 -432q-15 -113 16 -176q37 -63 113 -63q27 0 51 6q31 10 49 18q23 10 41 25l33 26q13 10 24 25l19 18l6 6l78 547q4 19 14 27q12 12 27 12h69q14 0 23 -12q11 -14 8 -27l-104 -741 q-3 -17 -13 -27q-12 -12 -28 -12h-41q-9 0 -13 4q-8 8 -8 12q-2 2 -6 19l-8 53l-8 -6q-10 -10 -19 -16q-11 -11 -28 -21q-3 -2 -37 -25q-28 -11 -47 -20l-56 -14q-30 -6 -61 -6q-148 0 -205 100t-33 270zM383 1331l43 70q9 12 25 12q18 0 24 -6l256 -172q6 -2 10 -14 q3 -11 -4 -25l-24 -41q-9 -12 -19 -12t-26 8l-271 131q-35 15 -14 49z" />
<glyph unicode="&#xfa;" horiz-adv-x="929" d="M102 350l60 430q4 18 16 27q12 12 25 12h73q14 0 23 -12q11 -14 8 -27l-61 -432q-15 -113 16 -176q37 -63 113 -63q27 0 51 6q31 10 49 18q23 10 41 25l33 26q13 10 24 25l19 18l6 6l78 547q4 19 14 27q12 12 27 12h69q14 0 23 -12q11 -14 8 -27l-104 -741 q-3 -17 -13 -27q-12 -12 -28 -12h-41q-9 0 -13 4q-8 8 -8 12q-2 2 -6 19l-8 53l-8 -6q-10 -10 -19 -16q-11 -11 -28 -21q-3 -2 -37 -25q-28 -11 -47 -20l-56 -14q-30 -6 -61 -6q-148 0 -205 100t-33 270zM360 1194q-9 23 17 39l303 172q9 9 27 6q19 -3 24 -22l27 -68 q12 -30 -17 -43l-321 -137q-37 -16 -45 16z" />
<glyph unicode="&#xfb;" horiz-adv-x="929" d="M102 350l60 430q4 18 16 27q12 12 25 12h73q14 0 23 -12q11 -14 8 -27l-61 -432q-15 -113 16 -176q37 -63 113 -63q27 0 51 6q31 10 49 18q23 10 41 25l33 26q13 10 24 25l19 18l6 6l78 547q4 19 14 27q12 12 27 12h69q14 0 23 -12q11 -14 8 -27l-104 -741 q-3 -17 -13 -27q-12 -12 -28 -12h-41q-9 0 -13 4q-8 8 -8 12q-2 2 -6 19l-8 53l-8 -6q-10 -10 -19 -16q-11 -11 -28 -21q-3 -2 -37 -25q-28 -11 -47 -20l-56 -14q-30 -6 -61 -6q-148 0 -205 100t-33 270zM287 1171q-16 36 10 50l244 192q17 14 37 14h6q21 0 39 -24l172 -186 q16 -22 -4 -39l-29 -31q-9 -9 -21 -17q-7 0 -22 9l-160 135l-209 -146q-17 -10 -26 -8q-13 3 -19 15z" />
<glyph unicode="&#xfc;" horiz-adv-x="929" d="M102 350l60 430q4 18 16 27q12 12 25 12h73q14 0 23 -12q11 -14 8 -27l-61 -432q-15 -113 16 -176q37 -63 113 -63q27 0 51 6q31 10 49 18q23 10 41 25l33 26q13 10 24 25l19 18l6 6l78 547q4 19 14 27q12 12 27 12h69q14 0 23 -12q11 -14 8 -27l-104 -741 q-3 -17 -13 -27q-12 -12 -28 -12h-41q-9 0 -13 4q-8 8 -8 12q-2 2 -6 19l-8 53l-8 -6q-10 -10 -19 -16q-11 -11 -28 -21q-3 -2 -37 -25q-28 -11 -47 -20l-56 -14q-30 -6 -61 -6q-148 0 -205 100t-33 270zM289 1282q0 45 33 78t75 33q36 0 58 -25t22 -61q0 -45 -33 -78 q-36 -31 -75 -31q-32 0 -58 23q-22 25 -22 61zM647 1282q0 45 33 78t74 33q37 0 59 -25q23 -26 23 -61q0 -45 -33 -78q-36 -31 -76 -31q-34 0 -57 23q-23 26 -23 61z" />
<glyph unicode="&#xfd;" horiz-adv-x="872" d="M-43 -602q-6 12 6 33l322 571l-230 772q-6 20 4 33q9 12 31 12h72q22 0 28 -22l183 -635h2l348 635q13 22 35 22h80q20 0 26 -12q8 -13 -2 -35l-758 -1362q-12 -24 -34 -24h-86q-21 0 -27 12zM330 1194q-9 23 16 39l303 172q9 9 27 6q19 -3 24 -22l27 -68q12 -30 -16 -43 l-322 -137q-37 -16 -45 16z" />
<glyph unicode="&#xfe;" horiz-adv-x="923" d="M-18 -575l278 1970q4 18 14 26q10 13 25 13h74q13 0 20 -13q11 -11 8 -26l-88 -633l11 8q12 9 30 21q31 15 43 20q18 10 58 20q30 9 67 9q130 0 213 -111q82 -110 82 -256q0 -208 -121 -350q-122 -143 -303 -143q-34 0 -61 8q-34 8 -49 16q-8 2 -22 10t-15 9 q-3 2 -7.5 5.5t-7.5 5.5t-4 3l-14 10l-88 -622q0 -19 -14 -27q-12 -12 -27 -12h-72q-13 0 -22 12q-11 14 -8 27zM233 188l9 -8q2 -1 9 -7t13 -9q22 -17 35 -23q18 -9 45 -18q24 -6 51 -6q116 0 197 100q82 101 82 246q0 106 -49 176q-51 72 -138 72q-23 0 -65 -11 q-23 -7 -53 -24q-40 -30 -41 -31q-17 -13 -29 -24l-8 -11q-18 -118 -58 -422z" />
<glyph unicode="&#xff;" horiz-adv-x="872" d="M-43 -602q-6 12 6 33l322 571l-230 772q-6 20 4 33q9 12 31 12h72q22 0 28 -22l183 -635h2l348 635q13 22 35 22h80q20 0 26 -12q8 -13 -2 -35l-758 -1362q-12 -24 -34 -24h-86q-21 0 -27 12zM258 1282q0 45 33 78t76 33q35 0 57 -25t22 -61q0 -46 -32 -78 q-36 -31 -76 -31q-31 0 -57 23q-23 26 -23 61zM616 1282q0 45 33 78t74 33q37 0 59 -25q23 -26 23 -61q0 -45 -33 -78q-36 -31 -76 -31q-34 0 -57 23q-23 26 -23 61z" />
<glyph unicode="&#x152;" horiz-adv-x="1820" d="M125 635q0 168 63 315q63 153 166 262q109 112 248 177q145 65 297 65q22 0 76 -4q38 -8 63 -12l21 -4h729q12 0 22 -13q10 -10 7 -26l-9 -60q-4 -17 -14 -28q-11 -11 -25 -11h-608l-69 -499h516q13 0 24 -11q9 -12 6 -28l-10 -60q-3 -15 -14 -26q-10 -13 -25 -13h-518 l-74 -522h609q12 0 22 -10q9 -12 6 -29l-8 -59q-4 -19 -12 -27q-12 -12 -27 -12h-731q-79 -20 -164 -20q-152 0 -282 86q-134 87 -209 237q-76 152 -76 332zM272 635q0 -138 56 -256q60 -119 159 -186q98 -70 226 -70q69 0 129 14l162 1155q-73 17 -125 17q-113 0 -228 -56 q-110 -52 -192 -143q-80 -83 -135 -215q-52 -125 -52 -260z" />
<glyph unicode="&#x153;" horiz-adv-x="1411" d="M59 350q0 127 56 242q59 115 157 180q103 68 217 68q82 0 150 -47q64 -48 104 -127q61 78 150 127q92 47 188 47q121 0 187 -60q65 -59 65 -155q0 -137 -141 -205q-141 -66 -408 -45q-9 -107 47 -187q52 -79 144 -79q84 0 178 61q42 25 59 -8l19 -31q10 -17 10 -29 q-4 -14 -20 -28q-128 -94 -275 -94q-172 0 -254 165q-57 -68 -147 -120q-88 -45 -174 -45q-135 0 -224 106q-88 107 -88 264zM199 352q0 -95 51 -168q54 -69 137 -69q111 0 195 100q82 105 82 240q0 105 -54 178q-54 72 -143 72q-103 0 -186 -103q-82 -104 -82 -250z M805 489q188 -16 285 19q102 30 102 108q0 39 -33 72q-42 27 -96 27q-84 0 -162 -66q-74 -63 -96 -160z" />
<glyph unicode="&#x178;" horiz-adv-x="1060" d="M115 1417q9 17 30 17h95q18 0 28 -19l285 -584h4l455 584q16 19 32 19h99q22 0 28 -21q6 -19 -8 -39l-540 -682l-93 -653q0 -19 -14 -27q-12 -12 -27 -12h-86q-15 0 -24 12q-9 10 -6 27l92 651l-348 694q-9 18 -2 33zM383 1706q0 45 33 78t73 33q35 0 60 -25 q22 -25 22 -61q0 -49 -34 -76q-29 -33 -74 -33q-35 0 -57 25q-23 26 -23 59zM782 1706q0 45 33 78q29 33 74 33q35 0 57 -25q25 -25 25 -61q0 -43 -33 -76q-36 -33 -76 -33q-35 0 -57 25q-23 26 -23 59z" />
<glyph unicode="&#x2c6;" horiz-adv-x="688" d="M129 1171q-16 36 10 50l244 192q17 14 37 14h6q21 0 39 -24l172 -186q16 -22 -4 -39l-29 -31q-4 -5 -10 -10.5t-8 -6.5q-10 0 -25 9l-160 135l-208 -146q-17 -10 -27 -8q-13 3 -19 15z" />
<glyph unicode="&#x2dc;" horiz-adv-x="700" d="M123 1241q14 32 20 43q6 10 37 55q22 32 62 54q33 20 75 20q37 0 68 -22q25 -19 43 -52q20 -36 35 -51q22 -22 41 -22q51 0 86 96q15 44 51 22l29 -16q24 -15 14 -47q-13 -35 -22 -51q-18 -29 -37 -56q-21 -30 -58 -49q-35 -18 -73 -18q-34 0 -64 24q-27 21 -45 50 q-6 11 -37 53q-25 22 -41 22q-8 0 -24 -4q-12 -3 -23 -14q-2 -3 -5.5 -7t-5.5 -6.5t-3 -4.5q-1 -1 -17 -25l-4 -10l-3 -7.5t-1 -3.5q0 -4 -8 -20q-6 -15 -20 -18q-15 -6 -29 2l-33 16q-22 15 -8 47z" />
<glyph unicode="&#x2000;" horiz-adv-x="999" />
<glyph unicode="&#x2001;" horiz-adv-x="1999" />
<glyph unicode="&#x2002;" horiz-adv-x="999" />
<glyph unicode="&#x2003;" horiz-adv-x="1999" />
<glyph unicode="&#x2004;" horiz-adv-x="666" />
<glyph unicode="&#x2005;" horiz-adv-x="499" />
<glyph unicode="&#x2006;" horiz-adv-x="333" />
<glyph unicode="&#x2007;" horiz-adv-x="333" />
<glyph unicode="&#x2008;" horiz-adv-x="249" />
<glyph unicode="&#x2009;" horiz-adv-x="399" />
<glyph unicode="&#x200a;" horiz-adv-x="111" />
<glyph unicode="&#x2010;" horiz-adv-x="800" d="M156 487l6 39q3 16 14 27q12 12 27 12h391q15 0 24 -12q9 -9 5 -27l-7 -39q-3 -15 -14 -26q-13 -10 -27 -10h-389q-13 0 -26 10q-7 11 -4 26z" />
<glyph unicode="&#x2011;" horiz-adv-x="800" d="M156 487l6 39q3 16 14 27q12 12 27 12h391q15 0 24 -12q9 -9 5 -27l-7 -39q-3 -15 -14 -26q-13 -10 -27 -10h-389q-13 0 -26 10q-7 11 -4 26z" />
<glyph unicode="&#x2012;" horiz-adv-x="800" d="M156 487l6 39q3 16 14 27q12 12 27 12h391q15 0 24 -12q9 -9 5 -27l-7 -39q-3 -15 -14 -26q-13 -10 -27 -10h-389q-13 0 -26 10q-7 11 -4 26z" />
<glyph unicode="&#x2013;" horiz-adv-x="1105" d="M174 494l4 22q2 12 15 29q13 10 26 10h686q15 0 25 -10q9 -12 6 -29l-4 -22q-3 -16 -14 -27q-10 -10 -25 -10h-688q-15 0 -25 10q-9 12 -6 27z" />
<glyph unicode="&#x2014;" horiz-adv-x="1511" d="M174 494l4 22q2 12 15 29q13 10 26 10h1092q14 0 24 -10q9 -12 6 -29l-4 -22q-3 -16 -14 -27q-10 -10 -25 -10h-1093q-15 0 -25 10q-9 12 -6 27z" />
<glyph unicode="&#x2018;" horiz-adv-x="401" d="M141 1012q0 58 23 135q19 64 57 125q39 57 70 94q32 43 63 70q29 26 45 4l23 -29q2 -6 6 -14q2 -2 -2 -11q-2 -4 -8 -10q0 -1 -4 -6t-8 -8q-65 -59 -93 -102q-49 -73 -61 -156q4 2 29 2q37 0 65 -31q27 -30 27 -71q0 -54 -39 -93t-88 -39q-48 0 -74 33q-31 36 -31 107z " />
<glyph unicode="&#x2019;" horiz-adv-x="395" d="M141 940q2 6 21 25q63 57 92 102q49 73 61 156q-4 -2 -28 -2q-39 0 -66 30q-26 29 -26 72q0 54 38 92q36 39 89 39q46 0 75 -33q29 -37 29 -106q0 -58 -23 -135q-20 -67 -59 -125q-24 -39 -65 -94q-41 -49 -66 -70q-29 -26 -45 -4l-23 28q-8 13 -4 25z" />
<glyph unicode="&#x201c;" horiz-adv-x="741" d="M141 1012q0 58 23 135q19 64 57 125q39 57 70 94q32 43 63 70q29 26 45 4l23 -29q2 -6 6 -14q2 -2 -2 -11q-2 -4 -8 -10q0 -1 -4 -6t-8 -8q-65 -59 -93 -102q-49 -73 -61 -156q4 2 29 2q37 0 65 -31q27 -30 27 -71q0 -54 -39 -93t-88 -39q-48 0 -74 33q-31 36 -31 107z M481 1012q0 58 23 135q19 64 57 125q39 57 70 94q32 43 63 70q29 26 45 4l23 -29q2 -6 6 -14q2 -2 -2 -11q-2 -4 -8 -10q0 -1 -4.5 -6t-8.5 -8q-63 -57 -92 -102q-49 -73 -61 -156q4 2 29 2q37 0 65 -31q27 -30 27 -71q0 -54 -39 -93t-88 -39q-48 0 -74 33q-31 36 -31 107z " />
<glyph unicode="&#x201d;" horiz-adv-x="735" d="M141 940q2 6 21 25q63 57 92 102q49 73 61 156q-4 -2 -28 -2q-39 0 -66 30q-26 29 -26 72q0 54 38 92q36 39 89 39q46 0 75 -33q29 -37 29 -106q0 -58 -23 -135q-20 -67 -59 -125q-24 -39 -65 -94q-41 -49 -66 -70q-29 -26 -45 -4l-23 28q-8 13 -4 25zM481 940q2 6 21 25 q63 57 92 102q49 73 61 156q-4 -2 -28 -2q-39 0 -66 30q-26 29 -26 72q0 54 38 92q36 39 89 39q46 0 75 -33q29 -37 29 -106q0 -58 -23 -135q-20 -67 -59 -125q-19 -30 -66 -94q-44 -52 -65 -70q-29 -26 -45 -4l-23 28q-8 13 -4 25z" />
<glyph unicode="&#x201e;" horiz-adv-x="798" d="M0 -307q6 12 20 26q131 119 152 258q-4 -2 -27 -2q-39 0 -67 31q-27 30 -27 72q0 53 39 92t88 39q47 0 76 -33q31 -36 31 -106q0 -62 -23 -136q-18 -62 -57 -124q-42 -62 -70 -95q-41 -48 -65 -69q-29 -26 -45 -4l-21 28q-7 7 -4 23zM336 -301q2 7 20 25q65 59 93 102 q49 73 61 156q-4 -2 -29 -2q-38 0 -65 30t-27 72q0 52 37 92q39 39 90 39q48 0 74 -33q31 -36 31 -106q0 -58 -23 -135q-19 -64 -57 -125q-42 -62 -70 -95q-30 -40 -63 -69q-30 -27 -46 -4l-22 28q-8 13 -4 25z" />
<glyph unicode="&#x2022;" horiz-adv-x="661" d="M127 432q0 99 72 174q70 76 161 76q78 0 127 -55q52 -58 52 -140q0 -97 -72 -172q-74 -71 -168 -71q-74 0 -123 55t-49 133z" />
<glyph unicode="&#x2026;" horiz-adv-x="1163" d="M41 82q0 54 41 92q36 39 88 39q40 0 72 -29q26 -32 26 -73q0 -54 -39 -93q-38 -38 -92 -38q-43 0 -67 30q-29 29 -29 72zM401 82q0 54 41 92q36 39 88 39q40 0 72 -29q27 -34 27 -73q0 -54 -39 -93q-38 -38 -92 -38q-44 0 -68 30q-29 29 -29 72zM770 82q0 54 41 92 q36 39 88 39q40 0 72 -29q26 -32 26 -73q0 -54 -39 -93q-38 -38 -92 -38q-43 0 -67 30q-29 29 -29 72z" />
<glyph unicode="&#x202f;" horiz-adv-x="399" />
<glyph unicode="&#x2039;" horiz-adv-x="489" d="M61 397q-12 21 7 49l233 304q21 24 41 24h45q24 0 27 -20q7 -20 -8 -43l-177 -295l80 -291q6 -23 -4 -43q-9 -19 -33 -19h-36q-17 0 -27 17z" />
<glyph unicode="&#x203a;" horiz-adv-x="487" d="M33 82q-6 22 8 45l176 295l-80 291q-6 23 4 43q9 18 33 18h37q17 0 27 -16l147 -318q12 -22 -6 -49l-234 -303q-22 -25 -41 -25h-45q-23 0 -26 19z" />
<glyph unicode="&#x205f;" horiz-adv-x="499" />
<glyph unicode="&#x20ac;" horiz-adv-x="1394" d="M74 557l2 14q3 16 14 27q12 12 25 12h75q0 86 15 154h-68q-9 0 -22 10q-8 17 -6 29l2 14q4 19 12 27q12 12 27 12h79q82 265 279 432q196 166 459 166q135 0 233 -49q99 -45 186 -141q10 -13 7 -29q0 -16 -13 -29l-57 -43q-14 -14 -31 -14q-13 0 -26 16q-58 70 -142 105 q-81 37 -180 37q-178 0 -326 -127q-150 -127 -219 -324h504q17 0 23 -12q9 -12 6 -27l-2 -16q0 -18 -12 -27q-13 -10 -27 -10h-518q-15 -62 -15 -154h437q15 0 24 -12q7 -10 4 -27l-2 -16q-4 -19 -12 -27q-10 -10 -27 -10h-417q27 -172 141 -280q115 -109 274 -109 q49 0 101 10q49 12 96 39q9 5 38 22.5t42 24.5q42 29 82 62q27 21 45 6l61 -60q23 -23 -10 -55q-204 -198 -475 -198q-222 0 -379 151q-160 151 -184 387h-95q-13 0 -20 10q-12 12 -8 29z" />
<glyph unicode="&#x2122;" horiz-adv-x="1329" d="M203 1372l4 23q3 15 14 26q13 13 25 13h356q15 0 25 -13q9 -12 6 -26l-4 -23q-2 -12 -15 -29q-13 -10 -26 -10h-127l-68 -479q-4 -19 -12 -27q-12 -12 -27 -12h-32q-17 0 -23 12q-9 12 -6 27l67 479h-129q-12 0 -22 10q-9 12 -6 29zM621 862l172 551q12 31 41 31h6 q25 0 28 -23l90 -434l216 434q10 23 34 23h6q28 0 31 -31l21 -553q0 -17 -13 -33q-12 -12 -28 -12h-31q-31 0 -31 35l-12 338l-180 -361q-9 -18 -33 -18h-10q-26 0 -29 20l-76 359l-108 -340q-11 -33 -41 -33h-25q-18 0 -26 14t-2 33z" />
<glyph unicode="&#xe000;" horiz-adv-x="819" d="M0 0v819h819v-819h-819z" />
</font>
</defs>
</svg>
