<?xml version="1.0" standalone="no"?>
<!DOCTYPE svg PUBLIC "-//W3C//DTD SVG 1.1//EN" "http://www.w3.org/Graphics/SVG/1.1/DTD/svg11.dtd" >
<svg>
<metadata>
Created by FontForge 20090914 at Fri Aug 23 18:23:01 2013
 By www-data
Copyright (c) 2009 by Hannes von Doehren. All rights reserved.
</metadata>
<defs>
<font id="BrandonGrotesque-BoldItalic" horiz-adv-x="602" >
  <font-face 
    font-family="Brandon Grotesque Bold Italic"
    font-weight="700"
    font-style="italic"
    font-stretch="normal"
    units-per-em="1000"
    panose-1="2 0 8 3 0 0 0 0 0 0"
    ascent="750"
    descent="-250"
    x-height="400"
    cap-height="700"
    bbox="-182 -310 901.266 980"
    underline-thickness="50"
    underline-position="-50"
    slope="-8"
    unicode-range="U+0020-U+2122"
  />
<missing-glyph horiz-adv-x="224" 
 />
    <glyph glyph-name=".notdef" horiz-adv-x="224" 
 />
    <glyph glyph-name="space" unicode=" " horiz-adv-x="224" 
 />
    <glyph glyph-name="exclam" unicode="!" horiz-adv-x="311" 
d="M138 272c-4 0 -8 2 -11 5s-5 7 -4 11l-1 279l16 114c1 5 3 10 6 13c4 4 8 6 13 6h115c4 0 8 -2 10 -6c4 -4 5 -8 4 -13l-16 -112l-79 -281c-1 -4 -4 -8 -8 -11s-8 -5 -12 -5h-33zM45 62c0 25 9 46 29 65c18 19 40 28 64 28c20 0 37 -7 50 -21c13 -15 20 -32 20 -52
c0 -25 -10 -46 -29 -64c-19 -19 -41 -28 -65 -28c-19 0 -36 7 -49 21s-20 31 -20 51z" />
    <glyph glyph-name="quotedbl" unicode="&#x22;" horiz-adv-x="332" 
d="M84 501c-4 0 -8 2 -11 5c-3 4 -5 9 -4 14l23 161c0 5 2 10 6 13c5 4 9 6 14 6h83c6 0 10 -2 13 -7s3 -11 0 -18l-63 -159c-4 -10 -10 -15 -18 -15h-43zM243 501c-4 0 -8 2 -11 5c-3 4 -5 9 -4 14l23 161c0 5 2 10 7 13c4 4 8 6 13 6h83c6 0 10 -2 13 -7s3 -11 0 -18
l-63 -159c-4 -10 -10 -15 -18 -15h-43z" />
    <glyph glyph-name="numbersign" unicode="#" horiz-adv-x="500" 
d="M62 22l44 166h-64c-5 0 -9 2 -12 6s-3 8 -2 13l2 14c1 5 3 10 6 13c4 4 8 6 13 6h71l44 164h-65c-4 0 -8 2 -11 6s-5 8 -4 13l2 14c0 5 2 10 6 13c5 4 9 6 14 6h71l61 228c1 4 4 8 8 11c3 3 7 5 11 5h16c5 0 9 -2 11 -6c3 -5 3 -10 2 -16l-58 -222h142l59 228
c1 4 4 8 8 11s8 5 12 5h15c5 0 9 -2 12 -6c3 -5 3 -10 2 -16l-59 -222h56c5 0 9 -2 11 -6c3 -4 4 -8 3 -13l-2 -14c-1 -5 -3 -10 -6 -13c-3 -4 -8 -6 -13 -6h-63l-43 -164h57c5 0 8 -2 11 -6c3 -3 4 -8 3 -13l-2 -14c0 -5 -2 -10 -7 -13c-4 -4 -8 -6 -13 -6h-64l-45 -172
c-1 -4 -4 -8 -8 -11c-3 -3 -7 -5 -12 -5h-15c-5 0 -9 2 -11 6c-3 4 -4 9 -3 16l45 166h-143l-44 -172c-1 -4 -4 -8 -8 -11s-8 -5 -12 -5h-15c-5 0 -9 2 -12 6c-3 5 -3 10 -2 16zM170 240h142l43 164h-141z" />
    <glyph glyph-name="dollar" unicode="$" horiz-adv-x="491" 
d="M19 65c-5 7 -8 12 -9 15c0 4 2 10 7 18l39 56c11 16 23 18 36 6c8 -8 22 -18 42 -29s40 -19 60 -23l28 186l-44 30c-11 8 -25 19 -40 32c-15 14 -28 28 -36 40c-10 14 -17 29 -24 46c-6 18 -9 37 -9 56c0 28 4 54 13 78c9 25 22 46 38 66c18 18 40 34 67 46s59 19 94 21
l4 32c1 5 4 10 7 13c4 4 8 6 13 6h14c5 0 8 -2 11 -6c3 -3 4 -8 3 -13l-4 -33c56 -5 107 -27 153 -65c4 -4 6 -9 6 -15c1 -7 -1 -13 -5 -18l-43 -56c-9 -12 -20 -13 -31 -4c-8 8 -21 17 -39 26c-17 9 -37 16 -58 19l-25 -180c17 -10 31 -19 43 -25c10 -8 24 -18 40 -32
c17 -13 30 -27 40 -40c9 -13 18 -30 26 -49c7 -19 11 -40 11 -61c0 -63 -19 -114 -59 -154c-38 -40 -93 -61 -162 -64l-14 -103c-1 -5 -4 -10 -8 -13c-3 -3 -7 -5 -12 -5h-16c-4 0 -7 2 -10 5c-3 4 -3 8 -2 13l14 104c-20 1 -40 5 -59 11c-19 7 -36 14 -49 23s-24 16 -32 23
c-8 6 -14 12 -19 17zM239 440l23 159c-20 -4 -36 -13 -49 -29c-13 -14 -19 -32 -19 -52c0 -29 15 -55 45 -78zM244 107c20 4 36 13 49 27c13 13 19 31 19 53c0 31 -15 59 -44 84z" />
    <glyph glyph-name="percent" unicode="%" horiz-adv-x="604" 
d="M140 10c-5 -7 -11 -10 -16 -10h-51c-7 0 -11 3 -14 8c-3 6 -2 12 2 19l403 663c4 7 10 10 17 10h52c7 0 11 -3 13 -8c3 -6 2 -12 -2 -19zM411 -9c-31 0 -57 11 -79 34c-20 23 -31 50 -31 83c0 43 13 79 39 108c25 30 58 45 98 45c31 0 56 -11 78 -34
c20 -23 31 -50 31 -83c0 -43 -13 -79 -40 -108c-27 -30 -59 -45 -96 -45zM417 77c11 0 20 6 29 17s13 24 13 39c0 11 -3 21 -8 29s-12 12 -21 12c-11 0 -21 -6 -30 -16c-9 -12 -13 -25 -13 -40c0 -11 3 -21 9 -29c5 -8 12 -12 21 -12zM175 440c-31 0 -58 11 -79 34
c-20 23 -31 50 -31 83c0 43 13 79 39 109c25 29 58 44 98 44c31 0 56 -11 78 -34c20 -23 31 -50 31 -83c0 -43 -13 -79 -40 -109c-27 -29 -59 -44 -96 -44zM181 526c11 0 20 6 29 17s13 24 13 39c0 11 -3 21 -8 29s-12 12 -21 12c-11 0 -21 -5 -30 -17
c-9 -10 -13 -24 -13 -39c0 -11 3 -21 9 -29c5 -8 12 -12 21 -12z" />
    <glyph glyph-name="ampersand" unicode="&#x26;" horiz-adv-x="626" 
d="M49 157c0 24 4 47 11 69c8 22 18 41 29 56s24 30 38 44c14 13 27 24 39 32c12 7 22 14 31 20s14 10 15 11v2l-15 23c-39 55 -55 102 -49 142c3 20 9 39 18 56c9 18 22 34 37 50c15 14 35 26 59 35s51 13 81 13c44 0 81 -15 111 -44c29 -29 44 -64 44 -104
c0 -15 -2 -29 -6 -44s-9 -28 -14 -39s-12 -23 -21 -34s-17 -21 -24 -28s-16 -15 -25 -23s-17 -14 -23 -18l-18 -12c-6 -4 -9 -6 -10 -6l80 -118c3 4 6 9 10 16c4 6 11 19 20 40c9 20 17 40 22 61c3 12 8 20 13 24s13 4 24 1l46 -14c17 -5 23 -19 18 -41
c-4 -19 -10 -37 -17 -55c-7 -19 -15 -34 -22 -48c-7 -12 -14 -24 -21 -34l-18 -24l-6 -8l63 -84c5 -5 8 -13 7 -22c0 -9 -5 -17 -15 -24l-43 -29c-7 -5 -14 -7 -21 -5c-7 0 -13 4 -17 10l-45 65l-9 -9c-4 -3 -13 -10 -27 -18c-14 -10 -28 -18 -43 -24
c-15 -8 -34 -14 -58 -20c-24 -5 -48 -8 -72 -8c-52 0 -94 16 -128 49c-32 33 -49 72 -49 118zM303 440l10 6c7 4 13 8 17 11c6 3 12 9 20 15c8 8 15 14 20 22c5 6 10 15 14 25c3 10 5 20 5 31c0 17 -5 32 -17 45c-10 13 -25 19 -44 19c-21 0 -38 -7 -52 -22
c-13 -15 -20 -33 -20 -55c0 -9 2 -17 5 -27c3 -8 6 -16 9 -20c3 -6 8 -14 17 -26zM168 178c0 -23 8 -43 22 -58c16 -16 34 -24 57 -24c14 0 28 2 41 6c13 5 25 10 34 16s18 12 25 18c7 7 13 12 17 16l5 6l-103 149l-10 -7c-7 -4 -14 -8 -20 -12c-7 -5 -14 -11 -23 -19
s-16 -16 -22 -25c-6 -8 -11 -18 -16 -30s-7 -24 -7 -36z" />
    <glyph glyph-name="quotesingle" unicode="'" horiz-adv-x="172" 
d="M84 501c-4 0 -8 2 -11 5c-3 4 -5 9 -4 14l23 161c0 5 2 10 6 13c5 4 9 6 14 6h83c6 0 10 -2 13 -7s3 -11 0 -18l-63 -159c-4 -10 -10 -15 -18 -15h-43z" />
    <glyph glyph-name="parenleft" unicode="(" horiz-adv-x="327" 
d="M46 207c0 56 3 108 10 155s15 88 26 121s24 63 40 89c15 27 31 48 48 64s35 30 56 40c20 12 39 20 56 24c17 6 36 9 56 10c5 0 9 -1 12 -4s4 -6 3 -11l-6 -66c-1 -9 -6 -15 -14 -18c-17 -4 -33 -11 -49 -21c-14 -9 -27 -20 -38 -32c-10 -12 -19 -27 -28 -44
c-8 -18 -15 -34 -20 -50c-5 -14 -10 -33 -14 -54c-3 -21 -6 -39 -8 -53c-1 -14 -2 -32 -4 -53c0 -21 -1 -36 -1 -46v-38v-10c0 -49 7 -91 21 -124c13 -33 33 -55 59 -66c7 -3 9 -9 8 -18l-12 -65c-2 -11 -9 -16 -20 -16c-23 1 -44 8 -65 19c-21 12 -40 29 -58 51
c-17 22 -31 52 -42 89s-16 80 -16 127z" />
    <glyph glyph-name="parenright" unicode=")" horiz-adv-x="328" 
d="M-8 3c1 9 5 15 14 18c17 5 34 14 49 25c15 12 30 28 44 49s26 45 36 74s18 64 24 107s9 90 9 143c0 52 -6 95 -20 129c-12 35 -33 56 -60 63c-7 3 -9 9 -8 18l12 66c1 5 4 8 7 11s8 4 13 4c15 -1 29 -4 43 -10c14 -4 28 -12 42 -21s27 -22 38 -37s21 -33 30 -54
c9 -20 15 -44 21 -72c4 -28 7 -59 7 -93c0 -57 -3 -110 -9 -157c-7 -47 -16 -88 -26 -122c-12 -33 -25 -63 -40 -89c-16 -26 -32 -47 -49 -63s-35 -29 -55 -40s-39 -18 -57 -23s-37 -7 -56 -8c-11 0 -16 5 -15 16z" />
    <glyph glyph-name="asterisk" unicode="*" horiz-adv-x="333" 
d="M162 370c-5 0 -8 2 -12 6c-2 4 -3 8 -2 13l14 87l-73 -50c-4 -3 -8 -4 -13 -2c-5 0 -8 3 -10 7l-14 27c-3 5 -3 10 -2 14c2 6 5 10 10 13l84 50l-70 50c-4 3 -6 7 -6 13c0 5 2 10 5 14l23 27c3 4 6 6 11 7c5 0 9 -1 12 -3l59 -50l11 88c1 5 3 10 6 13c3 4 8 6 13 6h34
c5 0 8 -2 12 -6c2 -4 3 -8 2 -13l-14 -88l73 51c4 3 8 4 13 2c5 0 8 -3 10 -7l14 -27c3 -4 3 -9 2 -14s-5 -10 -10 -13l-83 -50l69 -51c4 -3 6 -7 6 -12s-2 -10 -5 -14l-23 -27c-9 -10 -17 -12 -24 -6l-59 50l-10 -86c0 -5 -2 -10 -7 -13c-4 -4 -8 -6 -13 -6h-33z" />
    <glyph glyph-name="plus" unicode="+" horiz-adv-x="532" 
d="M197 150l21 149h-128c-4 0 -8 2 -10 5c-4 4 -5 9 -4 14l8 56c0 5 2 10 6 14c5 3 9 5 14 5h127l22 151c0 5 2 10 6 13s8 5 13 5h65c5 0 8 -2 11 -5s4 -8 3 -13l-21 -151h132c4 0 8 -2 10 -5c4 -4 5 -9 4 -14l-8 -56c-1 -5 -3 -10 -6 -14c-4 -3 -8 -5 -13 -5h-132l-21 -149
c0 -5 -2 -10 -6 -13c-5 -3 -9 -5 -14 -5h-64c-5 0 -8 2 -11 5s-4 8 -4 13z" />
    <glyph glyph-name="comma" unicode="," horiz-adv-x="257" 
d="M8 62c0 25 10 46 29 64c19 19 43 28 70 28c10 0 20 -2 29 -6s18 -10 27 -17s15 -18 21 -33c4 -14 7 -30 7 -49c0 -26 -4 -51 -11 -75c-8 -25 -17 -45 -27 -62c-10 -16 -22 -32 -37 -48c-14 -16 -26 -28 -34 -35c-10 -7 -19 -15 -30 -22c-9 -7 -16 -6 -23 2l-18 19
c-3 3 -3 8 -3 13c2 5 5 10 10 14l8 6c5 4 10 8 15 11c5 4 10 9 17 16s13 14 19 21s12 16 18 25s11 20 15 30c4 12 7 23 8 34c-13 -5 -27 -8 -42 -8c-19 0 -36 7 -48 21c-14 14 -20 31 -20 51z" />
    <glyph glyph-name="hyphen" unicode="-" horiz-adv-x="348" 
d="M59 192c-5 0 -9 2 -11 5c-3 3 -4 8 -3 13l9 67c0 5 2 10 6 13c4 4 9 6 14 6h204c11 0 15 -6 14 -19l-9 -67c0 -5 -2 -10 -7 -13c-4 -3 -8 -5 -13 -5h-204z" />
    <glyph glyph-name="period" unicode="." horiz-adv-x="232" 
d="M7 62c0 25 9 46 29 65c18 19 40 28 64 28c20 0 37 -7 50 -21c13 -15 20 -32 20 -52c0 -25 -10 -46 -29 -64c-19 -19 -41 -28 -65 -28c-19 0 -36 7 -49 21s-20 31 -20 51z" />
    <glyph glyph-name="slash" unicode="/" horiz-adv-x="337" 
d="M9 0c-6 0 -11 2 -13 7c-4 5 -3 11 0 18l270 662c4 9 10 13 18 13h78c6 0 10 -2 13 -7s2 -11 -1 -18l-268 -662c-4 -9 -10 -13 -18 -13h-79z" />
    <glyph glyph-name="zero" unicode="0" horiz-adv-x="584" 
d="M252 -10c-57 0 -103 24 -136 72c-34 48 -51 113 -51 194c0 87 11 163 35 228c22 66 56 117 99 153s94 54 152 54c57 0 103 -24 137 -71c33 -48 50 -113 50 -194c0 -88 -11 -164 -33 -230c-22 -65 -55 -115 -98 -152c-43 -36 -95 -54 -155 -54zM269 108c27 0 51 14 72 42
s37 66 47 113c12 47 17 101 17 160c0 47 -6 83 -19 110c-12 27 -29 40 -52 40c-27 0 -52 -14 -72 -41c-22 -28 -37 -66 -48 -113s-16 -101 -16 -160c0 -47 6 -83 18 -111c13 -26 30 -40 53 -40z" />
    <glyph glyph-name="one" unicode="1" horiz-adv-x="347" 
d="M97 19l68 479l-86 -19c-5 -1 -9 -1 -12 3c-3 2 -5 6 -4 10l5 55c1 9 6 17 13 23l142 110h74c4 0 7 -2 11 -6c2 -4 4 -8 3 -13l-90 -642c-1 -5 -3 -10 -7 -13c-3 -4 -7 -6 -12 -6h-90c-5 0 -9 2 -12 6c-3 3 -4 8 -3 13z" />
    <glyph glyph-name="two" unicode="2" horiz-adv-x="480" 
d="M8 0c-5 0 -8 2 -11 6c-3 3 -4 8 -3 13l3 23l283 333c38 45 57 85 57 120c0 23 -6 41 -19 57c-12 14 -29 22 -52 22c-29 0 -64 -21 -105 -63c-8 -8 -16 -8 -25 0l-50 55c-3 3 -4 7 -3 12s3 10 6 14c23 24 44 43 63 56c41 28 84 42 129 42c57 0 101 -17 133 -52
c31 -35 47 -80 47 -135c0 -57 -25 -115 -74 -174l-189 -222h183c4 0 7 -2 11 -5c2 -4 4 -9 3 -14l-9 -69c0 -5 -2 -10 -6 -13c-5 -4 -9 -6 -14 -6h-358z" />
    <glyph glyph-name="three" unicode="3" horiz-adv-x="486" 
d="M9 79c-3 4 -3 9 -3 13c2 6 4 9 7 12l53 48c4 4 9 6 14 5s10 -4 15 -10c9 -12 22 -23 39 -33c16 -9 35 -14 57 -14c28 0 52 10 71 29s29 44 29 74c0 25 -9 46 -27 63s-43 26 -74 26h-51c-5 0 -8 2 -11 6s-4 9 -3 14l9 63c2 13 9 20 20 20h50c36 0 65 11 88 32
c22 21 33 47 33 77c0 20 -6 36 -19 48c-12 12 -28 18 -47 18c-6 0 -12 0 -17 -2c-6 0 -12 -2 -18 -5c-5 -3 -10 -5 -13 -7c-3 -1 -8 -4 -13 -8c-5 -5 -9 -8 -11 -10c-2 -1 -5 -4 -10 -9l-8 -8c-9 -9 -18 -10 -25 -1l-48 56c-3 4 -4 8 -3 13s3 9 6 13c56 59 116 88 181 88
c49 0 90 -15 123 -44s49 -68 49 -115c0 -21 -4 -43 -12 -63c-7 -22 -17 -40 -30 -56c-12 -15 -24 -29 -38 -40c-12 -11 -25 -20 -38 -26v-3c22 -11 42 -29 60 -54c19 -25 28 -55 28 -88c0 -60 -21 -110 -63 -151c-42 -40 -98 -60 -168 -60c-21 0 -41 2 -61 7
c-18 5 -34 10 -47 17s-24 14 -35 23s-19 16 -24 23c-6 6 -11 12 -15 19z" />
    <glyph glyph-name="four" unicode="4" horiz-adv-x="549" 
d="M16 145c-5 0 -9 2 -12 5c-3 4 -3 9 -2 14l11 83l380 438c3 4 8 6 15 6h58c5 0 8 -2 12 -5c2 -4 3 -9 2 -14l-59 -426h71c5 0 9 -2 12 -5s4 -8 3 -13l-9 -62c-1 -5 -3 -10 -6 -14c-4 -3 -9 -5 -14 -5h-71l-17 -128c-1 -5 -4 -10 -8 -13c-4 -4 -8 -6 -12 -6h-87
c-4 0 -8 2 -11 6s-5 8 -4 13l18 126h-270zM148 249h156l35 221z" />
    <glyph glyph-name="five" unicode="5" horiz-adv-x="493" 
d="M25 79c-3 4 -3 9 -3 13c2 6 4 9 7 12l51 48c9 9 19 8 29 -5c9 -11 23 -21 39 -31c18 -11 37 -16 59 -16c33 0 62 14 85 41c24 27 36 59 36 96c0 27 -8 50 -22 67c-16 18 -37 27 -64 27h-139c-8 0 -14 3 -19 11c-4 6 -5 15 -4 24l42 295c1 5 3 10 6 13c4 4 9 6 14 6h287
c5 0 9 -2 12 -6s4 -8 3 -13l-10 -68c-1 -5 -3 -10 -6 -13c-4 -4 -9 -6 -14 -6h-191l-19 -133h70c55 0 98 -18 130 -55c31 -37 47 -84 47 -142c0 -75 -23 -136 -67 -184c-46 -46 -104 -70 -177 -70c-20 0 -39 2 -58 7s-35 10 -47 17c-14 7 -26 14 -36 23c-12 9 -20 16 -26 23
s-11 13 -15 19z" />
    <glyph glyph-name="six" unicode="6" horiz-adv-x="506" 
d="M42 224c0 45 5 87 16 128c11 40 25 75 42 105s38 58 60 84c24 26 46 48 69 65s46 33 71 47c24 14 45 25 62 32s33 13 47 17c15 4 23 -1 25 -14l16 -61c3 -13 -4 -23 -21 -29c-15 -5 -31 -12 -49 -22c-19 -8 -40 -20 -64 -36c-25 -14 -47 -33 -68 -54
c-21 -22 -36 -45 -45 -68c24 12 54 18 90 18c49 0 90 -17 123 -52c32 -34 48 -80 48 -137c0 -73 -23 -134 -68 -183s-100 -74 -165 -74c-37 0 -71 11 -99 32c-30 22 -52 51 -67 86s-23 74 -23 116zM238 104c31 0 57 13 78 40c22 27 33 58 33 94c0 28 -8 51 -25 70
c-16 19 -37 28 -63 28c-22 0 -42 -7 -60 -20s-32 -27 -42 -42c-5 -17 -6 -35 -4 -54c2 -20 6 -39 11 -56c6 -17 15 -32 28 -43s27 -17 44 -17z" />
    <glyph glyph-name="seven" unicode="7" horiz-adv-x="456" 
d="M11 19l2 11l312 542h-228c-4 0 -8 2 -11 6s-5 8 -4 13l10 70c0 5 2 10 6 13c5 4 9 6 14 6h374c5 0 8 -2 12 -6c2 -4 4 -8 3 -13l-3 -15l-352 -619c-11 -18 -22 -27 -35 -27h-82c-15 0 -21 6 -18 19z" />
    <glyph glyph-name="eight" unicode="8" horiz-adv-x="531" 
d="M33 158c0 20 4 40 13 59c8 19 17 36 27 49s23 27 37 40c15 13 27 23 34 28l24 15v3c-18 12 -34 30 -50 55c-14 25 -22 52 -22 81c0 59 21 108 64 146c43 37 96 56 159 56c51 0 93 -15 128 -44c35 -30 52 -69 52 -116c0 -21 -4 -42 -11 -62c-8 -20 -18 -37 -31 -52
s-25 -27 -37 -37s-24 -19 -37 -26l-1 -4c22 -13 42 -33 60 -59c19 -27 28 -56 28 -89c0 -61 -22 -111 -66 -151s-104 -60 -180 -60c-59 0 -106 16 -140 47s-51 72 -51 121zM283 407c28 8 50 22 65 41s23 41 23 66c0 20 -6 36 -19 49c-12 13 -27 19 -45 19
c-21 0 -41 -9 -59 -27c-17 -18 -26 -40 -26 -67c0 -19 5 -35 16 -50c10 -14 25 -24 45 -31zM167 171c0 -23 7 -41 21 -54s31 -20 51 -20c25 0 48 9 68 27c20 19 30 43 30 73c0 21 -6 40 -19 57s-30 29 -52 36c-29 -8 -53 -23 -72 -46c-18 -23 -27 -47 -27 -73z" />
    <glyph glyph-name="nine" unicode="9" horiz-adv-x="505" 
d="M90 -2l-16 61c-3 13 4 23 21 29c15 5 31 12 49 22c19 8 40 20 64 36c25 14 47 33 68 54c21 22 36 45 45 68c-24 -12 -54 -18 -90 -18c-49 0 -90 17 -123 52c-32 34 -48 80 -48 137c0 73 23 134 68 183s100 74 165 74c37 0 71 -11 99 -32c30 -22 52 -51 67 -86
s23 -74 23 -116c0 -45 -5 -87 -16 -128c-11 -40 -25 -75 -42 -105s-38 -58 -60 -84c-24 -26 -46 -48 -69 -65s-46 -33 -71 -47c-24 -14 -45 -25 -62 -32s-33 -13 -47 -17c-15 -4 -23 1 -25 14zM263 350c22 0 42 7 60 20s32 27 42 42c5 17 6 35 4 54c-2 20 -6 39 -11 56
c-6 17 -15 32 -28 43s-27 17 -44 17c-31 0 -57 -13 -78 -40c-22 -27 -33 -58 -33 -94c0 -28 8 -51 24 -70s37 -28 64 -28z" />
    <glyph glyph-name="colon" unicode=":" horiz-adv-x="257" 
d="M89 -9c-17 0 -31 6 -43 18c-10 12 -16 27 -16 45c0 23 8 42 24 58c16 15 35 23 56 23c17 0 32 -6 42 -18c12 -12 17 -27 17 -45c0 -23 -8 -42 -24 -58c-16 -15 -35 -23 -56 -23zM127 267c-17 0 -31 6 -43 18c-10 12 -16 27 -16 45c0 23 8 42 24 58c16 15 35 23 56 23
c17 0 32 -6 42 -18c12 -12 17 -27 17 -45c0 -23 -8 -42 -24 -58c-16 -15 -35 -23 -56 -23z" />
    <glyph glyph-name="semicolon" unicode=";" horiz-adv-x="241" 
d="M114 266c-19 0 -34 7 -45 21s-16 31 -13 51s12 37 27 51s32 21 51 21c17 0 32 -6 43 -18s17 -27 17 -45c0 -23 -8 -42 -24 -57c-16 -16 -35 -24 -56 -24zM36 -162l-14 16c-3 3 -4 7 -2 11c0 4 3 8 7 11c1 1 3 3 9 8c4 4 9 8 14 12c4 4 9 10 16 18l17 23c5 7 10 16 15 27
c4 11 7 21 9 31l-2 -1c-1 0 -3 0 -5 -1s-4 -1 -7 -1c-3 -1 -6 -1 -9 -2h-10c-15 0 -28 6 -38 17c-11 11 -16 25 -16 42c0 20 8 37 23 53c15 14 34 22 55 22c17 0 32 -7 46 -21c12 -14 19 -36 19 -65c0 -21 -3 -41 -9 -60c-6 -20 -13 -37 -20 -50s-17 -27 -28 -41
c-12 -14 -21 -24 -28 -29c-6 -6 -13 -13 -22 -21c-7 -6 -14 -6 -20 1z" />
    <glyph glyph-name="less" unicode="&#x3c;" horiz-adv-x="400" 
d="M18 210c-5 4 -7 10 -6 18l1 7c1 5 4 10 10 14l344 212c6 4 12 4 17 1s7 -9 6 -17l-10 -78c-1 -7 -4 -12 -10 -16l-201 -126v-5l165 -121c5 -4 7 -9 6 -16l-10 -68c-1 -7 -5 -12 -11 -13c-6 -2 -11 -1 -16 3z" />
    <glyph glyph-name="equal" unicode="=" horiz-adv-x="460" 
d="M87 337c-5 0 -8 2 -11 5c-3 4 -4 9 -3 14l8 57c1 5 3 10 6 13c3 4 8 6 13 6h300c5 0 9 -2 12 -6s4 -8 3 -13l-8 -57c-1 -5 -3 -10 -7 -14c-4 -3 -8 -5 -13 -5h-300zM58 127c-5 0 -8 2 -11 5c-3 4 -4 9 -3 14l8 57c1 5 3 10 6 13c4 4 8 6 13 6h300c5 0 9 -2 12 -6
s4 -8 3 -13l-8 -57c-1 -5 -3 -10 -6 -14c-4 -3 -9 -5 -14 -5h-300z" />
    <glyph glyph-name="greater" unicode="&#x3e;" horiz-adv-x="399" 
d="M19 4c-7 -4 -13 -4 -17 -1c-6 3 -7 9 -6 17l11 79c1 7 4 12 10 16l204 123v2l-169 127c-4 3 -6 8 -5 16l9 66c1 8 5 13 10 15c6 3 12 2 17 -3l284 -212c5 -5 8 -10 7 -16l-1 -7c-1 -7 -5 -12 -11 -16z" />
    <glyph glyph-name="question" unicode="?" horiz-adv-x="423" 
d="M148 272c-5 0 -8 2 -12 6c-2 3 -4 8 -3 13l6 42c3 18 10 35 21 52c12 17 25 31 40 43l43 36c14 12 26 25 35 38c10 13 15 27 15 42s-5 28 -14 37s-22 14 -39 14c-5 0 -10 -1 -14 -1c-6 -2 -10 -3 -14 -5c-5 -2 -10 -4 -14 -7c-6 -3 -10 -5 -13 -7s-7 -5 -12 -9
s-8 -7 -9 -8c-1 -2 -4 -5 -8 -8l-7 -7c-5 -4 -11 -6 -15 -5c-6 0 -10 2 -14 6l-46 51c-3 4 -4 8 -3 13c1 4 3 8 7 13l6 7l10 10l12 12c5 5 11 10 16 14c6 4 13 8 20 14c8 4 16 9 24 12c9 4 18 8 28 10c9 4 20 6 32 8c11 1 23 2 35 2c47 0 86 -14 118 -44
c32 -28 48 -64 48 -107c0 -25 -5 -49 -15 -69c-11 -22 -24 -39 -40 -53c-15 -14 -31 -27 -46 -39c-16 -12 -30 -24 -43 -36s-20 -24 -22 -36l-8 -38c-2 -11 -8 -16 -19 -16h-86zM81 62c0 25 9 46 29 65c18 19 40 28 64 28c20 0 37 -7 50 -21c13 -15 20 -32 20 -52
c0 -25 -10 -46 -29 -64c-19 -19 -41 -28 -65 -28c-19 0 -36 7 -49 21s-20 31 -20 51z" />
    <glyph glyph-name="at" unicode="@" horiz-adv-x="909" 
d="M23 160c0 77 12 150 35 217c24 67 57 126 100 175c42 49 94 88 156 116c61 28 128 42 201 42c72 0 135 -16 189 -47c55 -31 96 -74 125 -127c29 -54 43 -115 43 -182c0 -33 -3 -66 -9 -99s-15 -65 -28 -97c-13 -33 -29 -61 -47 -86c-20 -24 -43 -44 -72 -59
c-28 -15 -59 -23 -94 -23c-53 0 -85 26 -96 78h-6c-16 -21 -36 -40 -61 -55s-50 -23 -77 -23c-41 0 -75 17 -100 52c-25 34 -38 76 -38 126c0 68 19 125 57 172s84 70 139 70c24 0 45 -6 64 -19c18 -13 32 -26 42 -40l17 34c1 4 3 7 3 9c2 1 3 3 6 4s6 2 10 2h34
c5 0 8 -2 12 -6c2 -3 3 -8 2 -13l-26 -183c-9 -67 4 -100 39 -100c23 0 43 12 61 36c17 23 30 53 40 90c8 36 13 75 13 116c0 38 -5 73 -15 104c-10 32 -25 60 -44 85c-20 25 -46 44 -78 57c-32 14 -68 21 -109 21c-55 0 -105 -11 -153 -32c-46 -21 -86 -51 -119 -89
s-58 -84 -77 -138c-19 -55 -28 -114 -28 -177c0 -66 15 -126 45 -180s70 -94 121 -120c4 -3 7 -6 8 -9c2 -4 2 -9 -1 -15l-33 -63c-6 -12 -13 -16 -22 -11c-65 29 -120 80 -164 151c-43 72 -65 151 -65 236zM356 172c0 -23 5 -41 15 -54s23 -20 39 -20c23 0 44 12 63 35
s31 52 36 85l6 41c-4 10 -13 20 -26 29s-28 14 -45 14c-28 0 -50 -12 -65 -37s-23 -56 -23 -93z" />
    <glyph glyph-name="A" unicode="A" 
d="M-20 0c-7 0 -11 3 -14 8c-2 5 -1 11 2 18l376 673c4 7 10 11 17 11h9c7 0 11 -4 14 -11l184 -673c2 -7 1 -13 -3 -18s-9 -8 -16 -8h-87c-15 0 -23 7 -26 20l-25 111h-249l-58 -111c-7 -13 -17 -20 -32 -20h-92zM221 239h158l-47 218h-2z" />
    <glyph glyph-name="B" unicode="B" horiz-adv-x="575" 
d="M53 19l93 662c1 5 3 10 6 13c4 4 9 6 14 6h208c48 0 88 -16 120 -48s48 -70 48 -115c0 -29 -7 -56 -21 -83s-30 -48 -47 -65c-18 -17 -36 -29 -54 -37c24 -9 46 -26 64 -50c20 -24 29 -54 29 -89c0 -61 -21 -112 -63 -153c-41 -40 -95 -60 -162 -60h-221c-5 0 -9 2 -12 6
c-3 3 -3 8 -2 13zM237 406h72c27 0 49 10 67 30c17 21 26 45 26 74c0 21 -6 38 -16 51c-12 13 -26 20 -43 20h-81zM196 118h86c26 0 48 10 66 30c19 20 28 44 28 72c0 21 -7 39 -21 54s-31 22 -50 22h-83z" />
    <glyph glyph-name="C" unicode="C" horiz-adv-x="626" 
d="M424 710c43 0 82 -9 117 -26s66 -40 91 -69c3 -4 4 -9 3 -14s-3 -10 -7 -14l-54 -52c-12 -11 -23 -11 -33 0c-35 33 -76 50 -124 50c-39 0 -76 -12 -111 -37c-35 -24 -62 -57 -82 -98c-21 -41 -31 -85 -31 -132c0 -55 14 -101 41 -140c28 -38 65 -57 112 -57
s92 20 137 59c12 11 23 10 32 -1l52 -65c3 -4 3 -9 3 -14c-2 -5 -4 -10 -8 -13c-68 -65 -143 -97 -226 -97c-56 0 -106 14 -150 42s-78 66 -100 112c-24 48 -35 100 -35 157s10 111 29 163c20 50 47 94 80 130s73 64 119 85s94 31 145 31z" />
    <glyph glyph-name="D" unicode="D" horiz-adv-x="683" 
d="M53 19l93 662c1 5 3 10 6 13c4 4 8 6 13 6h216c51 0 98 -14 140 -42s74 -65 97 -112s34 -97 34 -150s-10 -104 -28 -153c-20 -49 -45 -91 -78 -127c-32 -35 -71 -64 -117 -84c-46 -22 -95 -32 -146 -32h-217c-4 0 -8 2 -10 6c-4 3 -4 8 -3 13zM197 122h93
c61 0 114 26 158 77c43 51 65 114 65 188c0 55 -15 101 -43 137c-30 37 -68 55 -115 55h-94z" />
    <glyph glyph-name="E" unicode="E" horiz-adv-x="545" 
d="M53 19l93 662c1 5 3 10 6 13c4 4 8 6 13 6h370c5 0 9 -2 12 -6s4 -8 3 -13l-12 -82c-1 -5 -3 -10 -6 -13c-4 -4 -9 -6 -14 -6h-256l-23 -164h212c4 0 8 -2 11 -6s5 -8 4 -13l-12 -83c-1 -5 -4 -10 -8 -14c-3 -3 -7 -5 -12 -5h-212l-25 -175h257c5 0 8 -2 11 -6
c3 -3 4 -8 3 -13l-11 -82c-1 -5 -3 -10 -7 -13c-4 -4 -8 -6 -13 -6h-370c-5 0 -9 2 -12 6c-3 3 -3 8 -2 13z" />
    <glyph glyph-name="F" unicode="F" horiz-adv-x="524" 
d="M53 19l93 662c1 5 3 10 6 13c4 4 8 6 13 6h370c5 0 9 -2 12 -6s4 -8 3 -13l-12 -82c-1 -5 -3 -10 -6 -13c-4 -4 -9 -6 -14 -6h-256l-27 -188h213c5 0 8 -2 12 -6c2 -4 3 -8 2 -13l-11 -82c0 -5 -2 -10 -7 -13c-4 -4 -8 -6 -13 -6h-213l-35 -253c-1 -5 -4 -10 -7 -13
c-4 -4 -8 -6 -13 -6h-96c-5 0 -9 2 -12 6c-3 3 -3 8 -2 13z" />
    <glyph glyph-name="G" unicode="G" horiz-adv-x="653" 
d="M51 301c0 57 10 111 29 163c19 50 46 94 79 130s73 64 119 85c45 21 94 31 146 31c85 0 154 -32 208 -95c3 -4 4 -9 3 -14s-3 -10 -7 -14l-53 -52c-13 -9 -24 -9 -33 0c-35 33 -76 50 -125 50c-39 0 -76 -12 -111 -37c-35 -24 -62 -57 -82 -98c-21 -41 -31 -85 -31 -132
c0 -53 15 -100 45 -139s67 -59 110 -59s77 8 102 24l12 88h-64c-5 0 -9 2 -12 5s-4 8 -3 13l11 78c1 5 4 10 7 14c3 3 8 5 13 5h177c4 0 7 -2 11 -5c2 -4 4 -9 3 -14l-33 -240c-1 -13 -7 -24 -16 -31c-5 -4 -12 -9 -22 -15c-8 -5 -22 -12 -42 -21c-18 -9 -42 -16 -71 -22
s-58 -9 -89 -9c-40 0 -78 8 -112 24c-36 17 -65 39 -90 66c-24 28 -43 61 -58 100c-14 38 -21 78 -21 121z" />
    <glyph glyph-name="H" unicode="H" horiz-adv-x="714" 
d="M53 19l93 662c0 5 2 10 6 13c5 4 9 6 14 6h96c5 0 9 -2 12 -6s4 -8 3 -13l-37 -265h273l37 265c1 5 3 10 6 13c4 4 9 6 14 6h96c4 0 8 -2 11 -6s5 -8 4 -13l-93 -662c-1 -5 -4 -10 -8 -13c-4 -4 -8 -6 -12 -6h-97c-5 0 -8 2 -11 6c-3 3 -4 8 -3 13l39 276h-273l-39 -276
c-1 -5 -4 -10 -8 -13c-3 -4 -7 -6 -12 -6h-97c-5 0 -9 2 -11 6c-4 3 -4 8 -3 13z" />
    <glyph glyph-name="I" unicode="I" horiz-adv-x="310" 
d="M53 19l93 662c1 5 3 10 6 13c4 4 8 6 13 6h98c5 0 8 -2 11 -6s4 -8 3 -13l-93 -662c-1 -5 -3 -10 -6 -13c-4 -4 -8 -6 -13 -6h-98c-5 0 -9 2 -11 6c-4 3 -4 8 -3 13z" />
    <glyph glyph-name="J" unicode="J" horiz-adv-x="402" 
d="M-35 63c-5 8 -3 16 6 25l46 45c8 8 16 8 25 -1c17 -16 37 -24 59 -24c19 0 35 9 51 26c14 17 24 42 29 75l67 472c1 5 3 10 6 13c4 4 8 6 13 6h99c5 0 9 -2 12 -6s4 -8 3 -13l-67 -472c-9 -72 -31 -127 -65 -163c-34 -38 -82 -56 -145 -56c-19 0 -36 3 -53 8
s-31 12 -42 20s-21 16 -27 24c-8 7 -13 14 -17 21z" />
    <glyph glyph-name="K" unicode="K" horiz-adv-x="613" 
d="M53 24l92 652c1 7 4 12 9 17c4 5 9 7 16 7h94c6 0 11 -2 14 -7c4 -5 5 -10 4 -17l-38 -270l235 276c5 7 11 11 17 14c5 3 13 4 24 4h99c9 0 14 -4 16 -11s0 -15 -6 -22l-273 -306l202 -330c4 -7 4 -13 -1 -21c-5 -6 -11 -10 -19 -10h-91c-9 0 -17 1 -21 4
c-6 3 -10 8 -15 16l-178 309l-43 -305c0 -7 -3 -12 -8 -17s-11 -7 -16 -7h-94c-7 0 -12 2 -15 7s-5 10 -4 17z" />
    <glyph glyph-name="L" unicode="L" horiz-adv-x="465" 
d="M53 19l93 662c1 5 3 10 6 13c4 4 9 6 14 6h97c4 0 7 -2 11 -6c2 -4 4 -8 3 -13l-79 -561h221c5 0 8 -2 11 -6c3 -3 4 -8 3 -13l-11 -82c-1 -5 -3 -10 -6 -13c-4 -4 -9 -6 -14 -6h-334c-5 0 -9 2 -12 6c-3 3 -4 8 -3 13z" />
    <glyph glyph-name="M" unicode="M" horiz-adv-x="807" 
d="M12 23l198 672c3 10 9 15 19 15h14c7 0 11 -3 14 -10l136 -453h2l272 453c4 7 10 10 17 10h15c4 0 7 -2 10 -4c3 -4 4 -7 4 -11l9 -672c0 -7 -2 -12 -6 -17c-4 -4 -9 -6 -14 -6h-96c-5 0 -8 2 -11 4c-3 4 -4 7 -4 11l8 359h-3l-209 -373c-4 -7 -10 -11 -17 -11h-16
c-7 0 -11 4 -14 11l-102 373h-2l-96 -359c-3 -10 -9 -15 -19 -15h-95c-5 0 -10 2 -12 6c-4 5 -4 10 -2 17z" />
    <glyph glyph-name="N" unicode="N" horiz-adv-x="715" 
d="M53 17l94 675c0 5 2 10 6 13s8 5 13 5h26l305 -432h1l54 403c1 5 3 10 6 13c4 4 8 6 13 6h97c4 0 8 -2 11 -6s5 -8 4 -13l-95 -673c0 -5 -2 -10 -6 -13s-8 -5 -13 -5h-27l-304 445h-1l-54 -416c-1 -5 -3 -10 -7 -13c-4 -4 -8 -6 -13 -6h-96c-4 0 -7 2 -10 6
c-3 3 -4 7 -4 11z" />
    <glyph glyph-name="O" unicode="O" horiz-adv-x="735" 
d="M50 300c0 56 10 109 29 160c19 50 45 93 78 130s72 66 119 88c47 21 96 32 148 32c53 0 101 -14 144 -43s77 -67 101 -114s36 -99 36 -156c0 -55 -10 -108 -29 -158s-46 -93 -78 -130c-34 -37 -73 -66 -120 -87s-96 -32 -147 -32c-40 0 -77 8 -113 25
c-34 17 -64 39 -89 67c-25 29 -44 62 -58 100c-14 37 -21 77 -21 118zM345 120c39 0 75 12 109 35c35 23 63 55 84 96s32 84 32 130c0 55 -15 101 -46 141c-30 38 -68 58 -115 58c-28 0 -56 -7 -83 -21c-28 -14 -52 -33 -72 -57c-21 -24 -37 -52 -50 -84
c-13 -33 -19 -66 -19 -101c0 -55 15 -101 45 -139c30 -39 68 -58 115 -58z" />
    <glyph glyph-name="P" unicode="P" horiz-adv-x="549" 
d="M53 19l93 662c1 5 3 10 6 13c4 4 9 6 14 6h214c49 0 90 -20 124 -60c32 -40 49 -87 49 -140c0 -72 -23 -131 -69 -177c-45 -46 -101 -69 -166 -69h-102l-33 -235c0 -5 -2 -10 -7 -13c-4 -4 -8 -6 -13 -6h-96c-5 0 -9 2 -12 6c-3 3 -3 8 -2 13zM233 376h93
c25 0 48 12 67 35s29 51 29 83c0 24 -6 44 -20 60c-12 15 -29 23 -48 23h-93z" />
    <glyph glyph-name="Q" unicode="Q" horiz-adv-x="738" 
d="M51 300c0 56 10 109 29 160c20 50 46 93 80 130c32 37 72 66 118 88c47 21 96 32 148 32c40 0 77 -8 112 -25s64 -39 89 -67s44 -61 58 -100c14 -38 21 -78 21 -121c0 -86 -19 -160 -58 -223c-39 -62 -91 -112 -158 -149l84 -196c3 -7 2 -13 -2 -19c-4 -5 -9 -8 -16 -8
h-98c-7 0 -12 1 -16 4s-7 7 -9 14l-68 173c-12 -2 -24 -3 -35 -3c-53 0 -101 15 -144 44c-42 29 -76 68 -100 115c-23 47 -35 98 -35 151zM346 120c39 0 75 12 110 35c34 23 62 55 83 96s32 84 32 130c0 55 -15 101 -45 141c-31 38 -69 58 -116 58c-28 0 -56 -7 -83 -21
s-51 -33 -72 -57s-37 -52 -50 -84c-13 -33 -19 -66 -19 -101c0 -55 15 -101 45 -139c30 -39 68 -58 115 -58z" />
    <glyph glyph-name="R" unicode="R" horiz-adv-x="624" 
d="M53 19l93 662c1 5 3 10 6 13c4 4 8 6 13 6h264c48 0 88 -18 121 -54c32 -37 48 -81 48 -133c0 -59 -14 -109 -43 -149c-29 -39 -67 -67 -116 -82l82 -256c2 -7 1 -13 -1 -18c-4 -5 -9 -8 -16 -8h-95c-12 0 -19 5 -22 16l-73 258h-95l-36 -255c-1 -5 -3 -10 -7 -13
c-3 -4 -7 -6 -12 -6h-97c-5 0 -9 2 -12 6c-3 3 -3 8 -2 13zM235 381h125c31 0 56 11 76 33c19 23 29 50 29 83c0 23 -6 42 -19 59c-12 16 -27 24 -46 24h-137z" />
    <glyph glyph-name="S" unicode="S" horiz-adv-x="507" 
d="M27 68c-8 8 -8 18 0 30l39 57c4 7 9 10 16 10s12 -2 15 -6c40 -35 81 -52 124 -52c23 0 44 8 62 25c18 16 27 36 27 60c0 21 -7 40 -20 56c-14 16 -36 34 -66 54c-16 11 -30 20 -41 28s-24 19 -38 32s-25 26 -34 39s-16 28 -22 45c-6 18 -9 37 -9 56c0 26 5 51 14 75
s23 46 40 67c17 20 41 36 71 48s64 18 101 18c40 0 76 -7 109 -22s56 -29 69 -43c12 -12 13 -25 3 -40l-39 -55c-9 -13 -20 -14 -35 -2c-13 11 -29 21 -49 30s-41 14 -64 14c-25 0 -45 -8 -61 -24s-24 -34 -24 -54c0 -19 6 -34 19 -47c12 -13 35 -30 68 -53c1 -1 3 -3 6 -4
c13 -8 22 -14 30 -20c6 -4 16 -12 28 -21s21 -17 28 -25c7 -6 15 -16 24 -27s16 -22 21 -33s9 -23 12 -36c3 -14 5 -28 5 -43c0 -60 -22 -111 -66 -153c-43 -41 -101 -62 -173 -62c-24 0 -47 3 -71 9c-22 6 -42 14 -58 23s-29 18 -38 26c-10 7 -18 14 -23 20z" />
    <glyph glyph-name="T" unicode="T" horiz-adv-x="457" 
d="M125 19l79 561h-132c-5 0 -9 2 -12 6s-4 8 -3 13l12 82c1 5 3 10 7 13c3 4 7 6 12 6h397c5 0 9 -2 12 -6s4 -8 3 -13l-12 -82c-1 -5 -3 -10 -6 -13c-4 -4 -9 -6 -14 -6h-132l-79 -561c0 -5 -2 -10 -7 -13c-4 -4 -8 -6 -13 -6h-97c-4 0 -8 2 -11 6c-3 3 -5 8 -4 13z" />
    <glyph glyph-name="U" unicode="U" horiz-adv-x="669" 
d="M79 265l59 416c0 5 2 10 6 13c5 4 9 6 14 6h99c5 0 9 -2 12 -6s4 -8 3 -13l-58 -409c-6 -43 0 -78 18 -107c19 -29 45 -43 80 -43s66 14 92 43c28 29 44 64 50 106l58 410c1 5 3 10 6 13c4 4 9 6 14 6h99c4 0 8 -2 11 -6s5 -8 4 -13l-59 -416c-7 -51 -23 -97 -49 -139
c-27 -41 -61 -74 -104 -99s-89 -37 -140 -37c-34 0 -66 7 -95 22s-53 34 -73 58c-18 25 -32 54 -42 88c-8 34 -10 70 -5 107z" />
    <glyph glyph-name="V" unicode="V" horiz-adv-x="603" 
d="M240 1l-185 673c-2 7 -1 13 3 18s9 8 16 8h99c3 0 6 -1 9 -4c3 -2 4 -4 5 -7l103 -418h4l222 418c4 7 9 11 16 11h112c7 0 11 -3 14 -8s2 -11 -2 -18l-376 -673c-4 -7 -10 -11 -17 -11h-9c-7 0 -11 4 -14 11z" />
    <glyph glyph-name="W" unicode="W" horiz-adv-x="820" 
d="M161 4l-75 672c-1 7 0 12 4 17s9 7 15 7h87c3 0 6 -1 9 -4s4 -6 5 -10l34 -379h4l202 392c4 7 10 11 17 11h16c8 0 13 -4 14 -11l81 -392h4l142 379c1 4 4 7 8 10c3 3 7 4 10 4h95c7 0 11 -2 13 -7c3 -5 3 -10 0 -17l-264 -672c-1 -4 -4 -7 -7 -10s-7 -4 -11 -4h-15
c-8 0 -13 4 -14 11l-102 433h-4l-222 -433c-4 -7 -10 -11 -17 -11h-14c-9 0 -14 5 -15 14z" />
    <glyph glyph-name="X" unicode="X" horiz-adv-x="595" 
d="M7 0c-7 0 -12 3 -13 8c-2 5 -1 11 4 18l234 333l-138 315c-3 7 -2 13 2 18c3 5 9 8 17 8h101c7 0 11 -3 13 -9l91 -227h2l147 227c4 6 9 9 16 9h122c7 0 12 -3 15 -8c2 -5 0 -11 -5 -18l-227 -315l142 -333c3 -7 2 -13 0 -18c-4 -5 -9 -8 -17 -8h-96c-7 0 -12 3 -14 9
l-100 244h-3l-161 -244c-5 -6 -10 -9 -17 -9h-115z" />
    <glyph glyph-name="Y" unicode="Y" horiz-adv-x="533" 
d="M162 19l45 318l-156 339c-3 7 -2 12 1 17c4 5 9 7 16 7h94c9 0 16 -5 19 -14l105 -230l168 235c4 6 9 9 16 9h110c7 0 12 -3 14 -8c1 -5 0 -11 -5 -18l-252 -336l-44 -319c0 -5 -2 -10 -7 -13c-4 -4 -8 -6 -13 -6h-97c-5 0 -8 2 -11 6c-3 3 -4 8 -3 13z" />
    <glyph glyph-name="Z" unicode="Z" horiz-adv-x="501" 
d="M7 0c-5 0 -8 2 -11 6s-4 8 -3 13l2 18l332 538v4h-212c-4 0 -8 2 -11 5c-3 4 -5 9 -4 14l12 83c0 5 2 10 6 13c5 4 9 6 14 6h379c4 0 8 -2 11 -6s5 -8 4 -13l-2 -13l-326 -543v-4h214c5 0 8 -2 11 -5c3 -4 4 -9 3 -14l-11 -83c-1 -5 -3 -10 -7 -13c-4 -4 -8 -6 -13 -6
h-388z" />
    <glyph glyph-name="bracketleft" unicode="[" horiz-adv-x="332" 
d="M113 -200h115c5 0 8 -2 12 -5c2 -3 4 -8 3 -13l-9 -63c0 -5 -2 -10 -6 -13c-5 -4 -9 -6 -14 -6h-213c-4 0 -8 2 -11 6s-5 8 -4 13l136 962c1 5 3 10 6 13c4 4 8 6 13 6h214c4 0 7 -2 11 -6c2 -4 4 -8 3 -13l-8 -62c0 -5 -2 -10 -7 -13c-4 -4 -8 -6 -13 -6h-115z" />
    <glyph glyph-name="backslash" unicode="\" horiz-adv-x="329" 
d="M158 13l-82 662c-1 7 0 13 4 17c4 6 9 8 16 8h69c4 0 7 -1 11 -4c2 -3 4 -6 4 -9l83 -662c1 -7 0 -13 -5 -17c-4 -6 -9 -8 -15 -8h-70c-4 0 -7 1 -11 4c-2 3 -4 6 -4 9z" />
    <glyph glyph-name="bracketright" unicode="]" horiz-adv-x="333" 
d="M-30 -200h115l113 800h-116c-5 0 -8 2 -12 6c-2 3 -3 8 -2 13l9 62c1 5 3 10 7 13c3 4 7 6 12 6h214c5 0 8 -2 12 -6c2 -4 3 -8 2 -13l-135 -962c0 -5 -2 -10 -7 -13c-4 -4 -8 -6 -13 -6h-213c-4 0 -8 2 -11 6s-5 8 -4 13l9 63c0 5 2 10 6 13c5 3 9 5 14 5z" />
    <glyph glyph-name="asciicircum" unicode="^" horiz-adv-x="472" 
d="M58 385c-7 0 -11 3 -13 7c-2 6 0 11 5 17l229 295c5 7 11 10 17 10h5c7 0 11 -3 14 -10l143 -294c3 -7 3 -12 0 -18c-3 -4 -8 -7 -15 -7h-65c-8 0 -13 3 -16 9l-80 168h-1l-129 -168c-5 -6 -12 -9 -21 -9h-73z" />
    <glyph glyph-name="underscore" unicode="_" horiz-adv-x="388" 
d="M-4 -10h315c5 0 9 -2 13 -6c2 -3 3 -8 2 -13l-6 -39c-1 -5 -4 -10 -7 -13s-7 -5 -12 -5h-316c-4 0 -7 2 -11 5c-2 3 -4 8 -3 13l5 39c0 5 2 10 6 13c4 4 9 6 14 6z" />
    <glyph glyph-name="grave" unicode="`" horiz-adv-x="272" 
d="M227 531l-150 77c-4 3 -6 6 -7 10c-1 5 1 10 5 17l29 43c4 7 9 10 15 11s10 0 12 -3l137 -97c3 -1 4 -4 5 -7c1 -4 0 -8 -2 -12l-20 -33c-7 -9 -15 -11 -24 -6z" />
    <glyph glyph-name="a" unicode="a" horiz-adv-x="474" 
d="M278 163l12 83c-2 12 -9 24 -20 37s-26 19 -45 19c-25 0 -47 -12 -65 -35c-20 -23 -29 -54 -29 -91c0 -22 6 -40 18 -56c12 -14 28 -22 48 -22c19 0 36 8 51 22c15 16 25 30 30 43zM426 381l-50 -362c0 -5 -2 -10 -6 -13c-5 -4 -9 -6 -14 -6h-39c-8 0 -13 6 -16 17l-6 30
c-6 -5 -10 -9 -13 -11c-3 -3 -9 -8 -18 -14c-9 -8 -18 -13 -26 -16c-9 -4 -20 -8 -32 -11c-14 -3 -27 -5 -40 -5c-41 0 -76 18 -104 54c-29 35 -43 79 -43 130c0 65 20 121 59 167c40 46 89 69 147 69c25 0 48 -6 67 -18c20 -12 35 -24 45 -37l18 32c5 9 11 13 18 13h39
c5 0 8 -2 12 -6c2 -3 3 -8 2 -13z" />
    <glyph glyph-name="b" unicode="b" horiz-adv-x="469" 
d="M22 19l93 662c0 5 2 10 7 13c4 4 8 6 13 6h89c4 0 8 -2 11 -6s5 -8 4 -13l-41 -289c24 12 48 18 73 18c48 0 86 -17 115 -52s43 -78 43 -130c0 -43 -9 -82 -27 -118c-19 -36 -44 -65 -76 -87s-67 -33 -104 -33c-15 0 -28 2 -42 6c-12 4 -23 9 -31 15s-15 12 -21 18
c-7 6 -11 11 -13 15l-4 6l-15 -33c-5 -11 -12 -17 -21 -17h-39c-5 0 -8 2 -12 6c-2 3 -3 8 -2 13zM162 164c1 -9 4 -19 8 -28s11 -18 20 -26s20 -12 33 -12c24 0 45 12 64 36c19 25 28 53 28 85c0 24 -6 44 -19 59c-12 16 -28 24 -49 24c-12 0 -23 -2 -35 -6
c-10 -4 -19 -8 -24 -11l-8 -6z" />
    <glyph glyph-name="c" unicode="c" horiz-adv-x="396" 
d="M19 176c0 33 6 65 17 94c12 29 28 54 47 74c19 21 42 37 67 48c26 12 53 18 82 18s56 -7 80 -20s43 -30 56 -51c5 -9 3 -18 -8 -28l-40 -37c-5 -4 -10 -6 -14 -5s-8 3 -11 6l-3 3l-4 4c-1 0 -2 1 -4 3c-3 2 -4 3 -6 4c0 1 -2 2 -4 3c-3 1 -5 2 -7 3s-4 2 -7 3s-5 2 -8 2
c-2 1 -4 1 -8 2h-9c-25 0 -48 -11 -67 -34c-20 -23 -30 -51 -30 -84c0 -24 6 -44 18 -61s27 -25 46 -25c24 0 48 13 71 38c8 9 16 10 25 1l39 -38c9 -9 10 -19 3 -28c-19 -25 -41 -44 -66 -59c-26 -15 -54 -22 -84 -22c-49 0 -90 18 -122 53c-33 35 -49 80 -49 133z" />
    <glyph glyph-name="d" unicode="d" horiz-adv-x="471" 
d="M166 -10c-41 0 -76 18 -104 54c-29 35 -43 79 -43 130c0 65 20 121 61 167s90 69 149 69c13 0 27 -2 41 -6c15 -4 26 -8 34 -13l41 290c1 13 15 19 42 19h67c4 0 8 -2 11 -6s5 -8 4 -13l-93 -662c0 -5 -2 -10 -6 -13c-5 -4 -9 -6 -14 -6h-39c-8 0 -13 6 -16 17l-6 30
c-41 -38 -84 -57 -129 -57zM131 176c0 -22 6 -40 18 -56c12 -14 28 -22 48 -22c19 0 36 7 51 22s25 29 30 43l11 115c-1 1 -3 3 -7 6c-2 3 -9 6 -20 11s-22 7 -34 7c-26 0 -49 -12 -68 -37s-29 -54 -29 -89z" />
    <glyph glyph-name="e" unicode="e" horiz-adv-x="402" 
d="M17 168c0 31 6 61 17 90c12 29 28 55 48 78s45 41 74 54c30 13 62 20 96 20c39 0 70 -10 93 -30s35 -45 35 -76c0 -24 -8 -45 -24 -64s-37 -33 -64 -43c-26 -10 -53 -17 -80 -22c-28 -5 -56 -7 -83 -8c-1 -21 3 -39 14 -53c11 -13 28 -20 52 -20c11 0 24 2 37 7
s25 10 34 17c11 7 18 7 23 0l33 -47c7 -9 6 -18 -3 -26c-40 -37 -88 -55 -143 -55c-47 0 -85 17 -114 52c-30 35 -45 77 -45 126zM144 245c29 1 57 5 84 13c26 8 39 19 39 34c0 7 -3 13 -9 18c-5 5 -14 7 -25 7c-19 0 -37 -7 -54 -22s-29 -31 -35 -50z" />
    <glyph glyph-name="f" unicode="f" horiz-adv-x="329" 
d="M0 -281l84 576h-34c-5 0 -9 2 -12 5c-3 4 -4 9 -3 14l10 67c1 5 3 10 6 13c3 4 8 6 13 6h34l16 108c11 70 33 121 66 154c34 32 78 48 133 48c23 0 45 -4 65 -13c22 -9 36 -17 43 -26c3 -3 4 -6 4 -11s-1 -9 -3 -12l-35 -62c-7 -12 -16 -15 -27 -8c-17 9 -33 14 -50 14
c-39 0 -62 -28 -70 -84l-15 -108h86c5 0 9 -2 11 -6c3 -3 4 -8 3 -13l-9 -67c-1 -5 -3 -10 -6 -14c-4 -3 -9 -5 -14 -5h-86l-83 -576c-1 -5 -4 -10 -7 -13c-4 -4 -8 -6 -13 -6h-93c-5 0 -9 2 -12 6c-2 3 -3 8 -2 13z" />
    <glyph glyph-name="g" unicode="g" horiz-adv-x="469" 
d="M170 -10c-44 0 -80 17 -109 52s-43 78 -43 129c0 43 9 82 28 119c18 36 43 65 74 87c32 22 67 33 104 33c25 0 48 -6 68 -18s35 -24 44 -37l18 32c5 9 11 13 18 13h39c5 0 8 -2 11 -6c3 -3 4 -8 3 -13l-59 -425c-11 -77 -35 -133 -72 -166s-85 -50 -144 -50
c-29 0 -56 6 -82 19c-25 13 -45 27 -58 42c-4 4 -7 7 -9 11c-2 2 -3 6 -2 12c1 4 3 10 7 15l34 43c8 11 19 11 33 0c28 -23 55 -35 81 -35c24 0 43 9 57 27c14 17 24 46 31 85l8 53c-27 -15 -53 -22 -80 -22zM132 179c0 -24 6 -43 18 -59c13 -14 29 -22 50 -22
c12 0 23 2 34 6s19 8 24 11l7 6l21 140c-4 9 -11 19 -22 27c-10 10 -23 14 -40 14c-25 0 -47 -12 -65 -38c-18 -24 -27 -53 -27 -85z" />
    <glyph glyph-name="h" unicode="h" horiz-adv-x="488" 
d="M22 19l93 662c0 5 2 10 7 13c4 4 8 6 13 6h89c4 0 8 -2 11 -6s5 -8 4 -13l-43 -304c12 9 27 17 44 23c17 7 34 10 49 10c22 0 42 -4 59 -11c18 -7 32 -17 44 -30c10 -13 20 -27 26 -44c8 -17 12 -35 12 -54c2 -19 1 -39 -1 -60l-27 -192c0 -5 -2 -10 -6 -13
c-5 -4 -9 -6 -14 -6h-86c-5 0 -8 2 -11 6c-3 3 -4 8 -3 13l27 194c4 28 1 50 -9 65c-9 16 -25 24 -47 24c-9 0 -18 -2 -27 -6c-8 -3 -15 -8 -20 -13c-6 -5 -11 -11 -16 -16c-4 -5 -7 -9 -9 -13l-3 -6l-32 -229c-3 -13 -10 -19 -22 -19h-88c-4 0 -8 2 -10 6c-4 3 -5 8 -4 13z
" />
    <glyph glyph-name="i" unicode="i" horiz-adv-x="239" 
d="M156 542c-17 0 -30 6 -42 18c-10 11 -16 25 -16 42c0 21 8 40 23 55s33 23 54 23c17 0 32 -6 43 -18c11 -11 17 -26 17 -43c0 -21 -8 -39 -24 -54s-34 -23 -55 -23zM22 19l51 362c1 5 4 10 7 13c4 4 8 6 13 6h88c5 0 8 -2 11 -6c3 -3 4 -8 4 -13l-51 -362
c0 -5 -2 -10 -7 -13c-4 -4 -8 -6 -13 -6h-88c-4 0 -8 2 -11 6c-3 3 -5 8 -4 13z" />
    <glyph glyph-name="j" unicode="j" horiz-adv-x="239" 
d="M155 542c-17 0 -31 6 -41 18c-12 11 -17 25 -17 42c0 21 8 40 23 55c16 15 34 23 55 23c17 0 31 -6 43 -18c10 -12 16 -26 16 -43c0 -21 -8 -39 -24 -54s-34 -23 -55 -23zM3 -108l68 489c1 5 4 10 7 13c4 4 8 6 13 6h90c5 0 8 -2 11 -6c3 -3 4 -8 3 -13l-71 -498
c-8 -61 -29 -109 -62 -143c-34 -33 -77 -50 -129 -50c-21 0 -43 4 -65 14c-22 8 -37 17 -46 25c-3 3 -4 7 -4 11c0 6 1 10 4 15l31 55c3 5 7 9 13 10c4 1 9 1 12 -2c20 -11 38 -16 53 -16c40 0 64 30 72 90z" />
    <glyph glyph-name="k" unicode="k" horiz-adv-x="463" 
d="M22 19l93 662c0 5 2 10 7 13c4 4 8 6 13 6h89c4 0 8 -2 11 -6s5 -8 4 -13l-61 -433l122 140c7 8 15 12 24 12h108c7 0 12 -3 14 -10c1 -6 -1 -12 -7 -17l-153 -161l131 -187c4 -5 5 -11 1 -17c-2 -5 -8 -8 -16 -8h-104c-5 0 -9 3 -13 8l-116 180l-23 -169
c-1 -5 -4 -10 -8 -13c-4 -4 -8 -6 -12 -6h-90c-5 0 -8 2 -12 6c-2 3 -3 8 -2 13z" />
    <glyph glyph-name="l" unicode="l" horiz-adv-x="240" 
d="M22 19l93 662c0 5 2 10 7 13c4 4 8 6 13 6h88c4 0 8 -2 11 -6s5 -8 4 -13l-93 -662c0 -5 -2 -10 -7 -13c-4 -4 -8 -6 -13 -6h-89c-4 0 -8 2 -10 6c-4 3 -5 8 -4 13z" />
    <glyph glyph-name="m" unicode="m" horiz-adv-x="720" 
d="M22 19l51 362c0 5 2 10 6 13c4 4 8 6 13 6h38c7 0 11 -4 14 -11l9 -38c43 39 86 59 129 59c25 0 45 -5 62 -15c16 -10 31 -26 45 -47c9 8 19 16 31 24c10 8 26 16 46 25s40 13 59 13c22 0 42 -4 59 -11s31 -17 42 -29c11 -13 19 -28 26 -44c7 -18 10 -36 11 -55
s0 -40 -3 -61l-27 -191c-1 -5 -4 -10 -7 -13c-4 -4 -8 -6 -13 -6h-86c-4 0 -7 2 -11 6c-2 4 -4 8 -3 13l29 198c4 28 2 49 -6 63c-8 15 -22 22 -41 22c-9 0 -18 -2 -27 -6c-8 -3 -15 -8 -21 -12l-16 -16c-5 -5 -8 -10 -10 -14l-3 -5c-2 -3 -14 -79 -35 -230
c-1 -5 -3 -10 -7 -13c-4 -4 -8 -6 -13 -6h-78c-5 0 -9 2 -11 6c-3 4 -4 8 -3 13l28 198c8 57 -8 85 -49 85c-9 0 -18 -2 -27 -6c-9 -3 -16 -8 -21 -13s-10 -11 -15 -16s-8 -9 -10 -13l-3 -6l-33 -229c0 -5 -2 -10 -7 -13c-4 -4 -8 -6 -13 -6h-85c-5 0 -8 2 -12 6
c-2 3 -3 8 -2 13z" />
    <glyph glyph-name="n" unicode="n" horiz-adv-x="486" 
d="M22 19l51 362c0 5 2 10 6 13c4 4 8 6 13 6h39c3 0 5 -1 9 -4c2 -2 4 -5 5 -8l9 -37c44 39 89 59 135 59c35 0 65 -10 87 -28c24 -20 39 -44 46 -74c8 -29 10 -62 5 -97l-27 -192c-1 -5 -3 -10 -6 -13c-4 -4 -8 -6 -13 -6h-87c-5 0 -8 2 -11 6c-3 3 -4 8 -3 13l29 198
c4 27 1 47 -7 63c-10 14 -24 22 -44 22c-9 0 -19 -2 -28 -6c-10 -4 -18 -9 -25 -14s-13 -11 -17 -16c-6 -5 -9 -10 -12 -14l-4 -6l-32 -227c-1 -7 -3 -12 -6 -15c-3 -2 -8 -4 -15 -4h-83c-5 0 -8 2 -12 6c-2 3 -3 8 -2 13z" />
    <glyph glyph-name="o" unicode="o" horiz-adv-x="435" 
d="M18 173c0 42 10 81 29 118s46 66 79 87c34 21 71 32 110 32c45 0 83 -18 114 -54c30 -35 45 -78 45 -128c0 -43 -10 -82 -29 -119c-20 -37 -47 -66 -80 -87c-34 -21 -70 -32 -109 -32c-45 0 -83 18 -113 54c-31 37 -46 80 -46 129zM192 98c24 0 45 12 64 35s28 51 28 84
c0 24 -6 44 -18 61c-11 16 -26 24 -45 24c-25 0 -46 -12 -65 -35s-28 -51 -28 -82c0 -25 6 -45 18 -62s27 -25 46 -25z" />
    <glyph glyph-name="p" unicode="p" horiz-adv-x="470" 
d="M145 12l-41 -293c-1 -7 -4 -11 -7 -15c-3 -2 -9 -4 -17 -4h-86c-4 0 -7 2 -10 4c-3 4 -4 7 -4 12v3l93 662c0 5 2 10 6 13c4 4 8 6 13 6h40c7 0 12 -4 14 -12l8 -33c13 13 32 26 55 37c23 12 48 18 73 18c43 0 78 -18 106 -52c27 -36 41 -78 41 -128
c0 -67 -21 -123 -61 -170c-42 -47 -91 -70 -150 -70c-13 0 -27 2 -40 6c-14 5 -25 10 -33 16zM157 123c1 -2 3 -4 7 -7c2 -3 9 -6 20 -11c10 -5 21 -7 33 -7c27 0 49 12 68 37s28 53 28 85c0 23 -6 42 -17 58c-12 16 -28 24 -47 24s-35 -6 -49 -16c-15 -12 -25 -22 -30 -33z
" />
    <glyph glyph-name="q" unicode="q" horiz-adv-x="470" 
d="M171 -10c-43 0 -79 18 -108 52c-29 35 -44 78 -44 129c0 43 9 82 27 119c17 36 42 65 74 87s67 33 105 33c25 0 48 -6 67 -18c20 -12 35 -24 45 -37l18 32c5 9 11 13 18 13h39c5 0 8 -2 12 -6c2 -3 3 -8 2 -13l-93 -662c0 -5 -2 -10 -7 -13c-4 -4 -8 -6 -13 -6h-87
c-13 0 -18 6 -16 19l41 293c-27 -15 -53 -22 -80 -22zM201 98c12 0 24 2 35 6s20 8 25 13l8 6l21 123c-2 12 -9 24 -20 37s-26 19 -45 19c-27 0 -49 -13 -66 -39s-26 -54 -26 -84c0 -24 6 -43 19 -59c12 -14 28 -22 49 -22z" />
    <glyph glyph-name="r" unicode="r" horiz-adv-x="324" 
d="M22 19l51 362c0 5 2 10 6 13c4 4 8 6 13 6h39c3 0 5 -1 9 -4c2 -3 5 -6 6 -9l9 -39c11 15 26 29 45 42s40 20 63 20c27 0 48 -5 63 -16c7 -5 8 -13 2 -24l-37 -65c-5 -9 -13 -12 -21 -8c-10 4 -21 6 -34 6c-11 0 -21 -3 -32 -11c-10 -6 -17 -13 -22 -20l-7 -11l-34 -242
c-1 -13 -9 -19 -23 -19h-82c-5 0 -8 2 -12 6c-2 3 -3 8 -2 13z" />
    <glyph glyph-name="s" unicode="s" horiz-adv-x="344" 
d="M11 29c-7 6 -7 14 -1 24l33 51c2 4 5 6 10 7s9 0 13 -2c19 -13 43 -19 72 -19c9 0 17 2 23 6s9 10 9 17c0 10 -4 19 -10 26c-8 7 -22 17 -44 30c-27 15 -47 32 -60 49c-14 17 -21 40 -21 67c0 17 3 33 8 47s14 27 25 40c11 12 27 21 47 28s44 10 71 10c25 0 47 -4 68 -10
c21 -8 36 -15 47 -23c4 -3 7 -8 8 -13s0 -11 -3 -16l-34 -50c-3 -4 -6 -6 -11 -8c-5 0 -10 1 -15 4c-18 10 -40 15 -67 15c-21 0 -32 -8 -32 -23c0 -7 3 -13 9 -18c5 -6 16 -13 31 -21c17 -9 31 -18 43 -25c10 -7 21 -16 32 -26c11 -11 18 -22 23 -34c5 -13 7 -27 7 -42
c0 -37 -14 -68 -42 -92c-27 -26 -66 -38 -116 -38s-91 13 -123 39z" />
    <glyph glyph-name="t" unicode="t" horiz-adv-x="330" 
d="M59 119l25 176h-36c-4 0 -8 2 -10 5c-4 4 -5 9 -4 14l9 67c1 5 4 10 7 13c3 4 7 6 12 6h37l15 111c1 5 4 10 8 13c4 4 8 6 12 6l87 1c4 0 7 -2 11 -5c2 -4 3 -9 2 -14l-15 -112h72c5 0 9 -2 11 -6c3 -3 4 -8 3 -13l-9 -67c-1 -5 -4 -10 -8 -14c-3 -3 -7 -5 -12 -5h-72
l-23 -158c-3 -21 5 -32 22 -32c7 0 20 4 40 12c11 4 17 0 19 -11l10 -66c2 -9 -3 -17 -15 -24c-7 -4 -22 -9 -45 -16c-24 -7 -46 -10 -66 -10c-34 0 -58 11 -73 34c-15 22 -19 54 -14 95z" />
    <glyph glyph-name="u" unicode="u" horiz-adv-x="472" 
d="M167 -10c-27 0 -49 6 -69 16c-18 11 -33 26 -42 44c-9 19 -16 40 -19 64c-3 23 -3 48 2 73l28 194c0 5 2 10 6 13c4 4 8 6 13 6h87c5 0 8 -2 11 -6c3 -3 4 -8 3 -13l-28 -197c-3 -27 -1 -48 7 -63s20 -23 37 -23c9 0 18 2 27 6c8 4 15 9 21 14s11 11 15 17
c5 6 8 11 10 14l3 6l31 226c3 13 10 19 22 19h82c5 0 8 -2 12 -6c2 -3 3 -8 2 -13l-50 -362c0 -5 -2 -10 -6 -13c-5 -4 -9 -6 -14 -6h-39c-7 0 -12 5 -15 15l-7 33c-35 -39 -79 -58 -130 -58z" />
    <glyph glyph-name="v" unicode="v" horiz-adv-x="387" 
d="M136 0l-116 377c-2 7 -1 12 2 17c3 4 8 6 15 6h79c8 0 13 -4 15 -11l46 -176h3l94 176c4 7 12 11 24 11h83c7 0 11 -2 13 -8c2 -4 1 -10 -3 -17l-220 -375c-3 -7 -9 -10 -17 -10h-4c-7 0 -11 3 -14 10z" />
    <glyph glyph-name="w" unicode="w" horiz-adv-x="568" 
d="M96 1l-64 378c-1 7 0 12 3 15c3 4 8 6 14 6h77c3 0 6 -1 9 -4c3 -2 5 -5 5 -8l27 -169h1l115 182c4 6 9 9 16 9h8c7 0 11 -3 13 -9l59 -182h1l77 169c4 8 12 12 23 12h73c7 0 11 -2 13 -6c1 -5 1 -10 -2 -17l-170 -376c-4 -7 -10 -11 -18 -11h-4c-7 0 -11 3 -13 9
l-81 226h-1l-147 -226c-4 -6 -9 -9 -16 -9h-4c-8 0 -13 4 -14 11z" />
    <glyph glyph-name="x" unicode="x" horiz-adv-x="425" 
d="M-4 0c-7 0 -12 3 -13 8s1 11 6 18l145 181l-94 165c-4 7 -4 13 -1 19s9 9 16 9h85c8 0 14 -5 19 -14l51 -102h1l71 102c7 9 16 14 27 14h94c8 0 13 -3 15 -9c1 -6 -1 -12 -6 -19l-142 -174l95 -171c3 -7 2 -13 -1 -19c-4 -5 -9 -8 -16 -8h-77c-5 0 -9 1 -13 4
c-2 3 -5 7 -8 12l-55 107h-1l-83 -115c-4 -5 -9 -8 -16 -8h-99z" />
    <glyph glyph-name="y" unicode="y" horiz-adv-x="425" 
d="M114 28l-91 346c-2 7 -2 13 1 18s7 8 14 8h86c3 0 5 -1 8 -3s5 -5 6 -8l52 -237h1l117 237c3 7 10 11 20 11h89c7 0 11 -3 13 -8c3 -5 2 -11 -2 -18l-368 -662c-5 -8 -11 -12 -17 -12h-93c-7 0 -11 2 -13 7s-1 10 4 17z" />
    <glyph glyph-name="z" unicode="z" horiz-adv-x="342" 
d="M10 0c-5 0 -8 2 -12 6c-2 4 -4 8 -3 13l2 10l155 262v2h-93c-4 0 -7 2 -10 5c-3 4 -4 9 -3 14l9 69c0 5 2 10 6 13c4 4 8 6 13 6h241c7 0 11 -3 14 -8c3 -6 2 -12 -2 -19l-160 -264v-3h89c11 0 15 -6 14 -19l-9 -68c-1 -5 -3 -10 -7 -13c-4 -4 -8 -6 -13 -6h-231z" />
    <glyph glyph-name="braceleft" unicode="{" horiz-adv-x="360" 
d="M51 -36l17 123c3 20 -2 36 -14 47s-25 18 -39 21c-9 1 -12 7 -11 18l7 49c1 9 6 14 15 17c3 1 7 3 12 6c6 3 14 7 23 13c9 5 18 12 25 22c7 8 12 18 13 28l18 127c5 37 13 71 24 101c11 29 23 54 38 72c15 20 30 36 46 50c16 13 33 24 53 30c18 8 36 13 52 16
c15 3 32 5 49 6c12 0 17 -6 16 -17l-5 -63c-1 -9 -6 -15 -15 -18c-35 -8 -64 -27 -87 -57s-39 -70 -46 -120l-15 -105c-2 -13 -6 -26 -11 -39s-11 -23 -18 -32c-6 -9 -13 -17 -20 -25l-21 -18c-6 -4 -11 -8 -16 -11l-7 -5v-4c7 -3 13 -7 19 -12s13 -11 21 -20
c7 -8 13 -18 16 -31c4 -13 5 -27 3 -42l-20 -164c-4 -36 2 -66 19 -90s39 -40 68 -48c8 -3 11 -9 10 -19l-13 -63c-1 -5 -4 -9 -8 -13c-4 -2 -8 -4 -13 -4c-14 1 -28 2 -40 6c-14 2 -27 7 -42 14c-15 6 -28 14 -39 24c-11 9 -22 21 -33 35c-10 14 -18 30 -24 49
c-5 19 -9 40 -11 64c-2 25 -1 52 4 82z" />
    <glyph glyph-name="bar" unicode="|" horiz-adv-x="175" 
d="M-15 -282l144 1023c0 5 2 10 6 13c4 4 8 6 13 6h14c5 0 8 -2 10 -6c3 -3 4 -8 4 -13l-144 -1023c0 -5 -2 -10 -6 -13c-5 -3 -9 -5 -14 -5h-12c-5 0 -8 2 -11 5s-4 8 -4 13z" />
    <glyph glyph-name="braceright" unicode="}" horiz-adv-x="361" 
d="M96 -36l15 107c3 19 8 36 15 51c8 16 17 29 27 38s19 17 27 22s16 10 24 14v4l-6 5c-4 3 -8 7 -12 11c-5 4 -10 10 -15 18s-10 16 -14 25s-7 19 -9 32c-1 13 -1 26 0 39l14 105c7 50 4 90 -11 120s-39 49 -72 57c-3 1 -6 2 -8 6c-2 2 -3 7 -2 12l13 63c2 11 9 17 20 17
c41 -2 78 -16 109 -42c31 -27 54 -60 67 -100s17 -82 11 -126l-19 -134c-1 -10 0 -19 4 -28s10 -16 17 -22c7 -5 14 -9 19 -12l14 -7c3 -1 5 -3 7 -7c2 -2 3 -6 2 -10l-6 -49c-1 -9 -6 -15 -14 -16c-8 -3 -14 -5 -17 -5c-3 -2 -9 -4 -18 -8c-8 -3 -14 -7 -18 -12
c-4 -4 -8 -10 -12 -18c-5 -8 -8 -17 -9 -27l-17 -123c-6 -45 -16 -84 -31 -118c-15 -33 -31 -60 -49 -79c-17 -19 -37 -35 -60 -47s-44 -20 -63 -24s-39 -6 -60 -6c-11 0 -16 5 -15 14l4 66c1 11 6 17 15 19c35 9 65 28 88 57s38 69 45 118z" />
    <glyph glyph-name="asciitilde" unicode="~" horiz-adv-x="495" 
d="M72 194l-43 48c-7 8 -6 16 1 24c2 3 5 6 8 10l22 23c11 11 22 21 32 29c12 8 25 16 40 22c15 8 30 11 44 11c28 0 59 -14 92 -41c1 -1 5 -4 10 -8l12 -9c3 -2 6 -4 11 -7s9 -5 14 -6s9 -2 14 -2c8 0 17 4 27 11c11 7 18 13 22 18s11 12 20 23c4 5 9 8 14 8s10 -2 13 -6
l40 -47c3 -3 4 -7 3 -11c0 -6 -2 -10 -5 -13c-2 -3 -5 -6 -8 -11c-3 -4 -10 -11 -21 -22s-21 -20 -32 -29c-10 -9 -22 -16 -38 -23c-14 -7 -29 -10 -43 -10c-34 0 -68 14 -102 43l-5 5c-4 3 -6 4 -7 5l-5 5c-3 2 -5 3 -6 4s-4 2 -6 4c-4 1 -6 2 -8 3s-4 1 -7 1
c-3 1 -5 1 -8 1c-21 0 -44 -17 -69 -51c-4 -5 -9 -8 -14 -8s-9 2 -12 6z" />
    <glyph glyph-name="uni00A0" unicode="&#xa0;" horiz-adv-x="224" 
 />
    <glyph glyph-name="exclamdown" unicode="&#xa1;" horiz-adv-x="260" 
d="M72 112c1 4 4 8 8 11s8 5 12 5h33c4 0 8 -2 11 -5s5 -7 4 -11l1 -279l-16 -114c-1 -5 -3 -10 -7 -13c-3 -4 -7 -6 -12 -6h-115c-4 0 -7 2 -11 6c-2 4 -4 8 -3 13l16 112zM55 318c0 25 9 46 29 65c18 19 40 28 64 28c20 0 37 -7 50 -21c13 -15 20 -32 20 -52
c0 -25 -10 -46 -29 -64c-19 -19 -41 -28 -65 -28c-19 0 -36 7 -49 21s-20 31 -20 51z" />
    <glyph glyph-name="cent" unicode="&#xa2;" horiz-adv-x="380" 
d="M106 6c-31 15 -55 37 -72 67s-26 64 -26 103c0 33 6 65 17 94s27 54 46 74c19 21 42 37 68 48c26 12 53 18 82 18c12 0 25 -2 38 -5l17 44c2 5 5 9 10 11c4 3 8 3 12 2l13 -3c5 -1 8 -4 9 -9c2 -4 2 -9 0 -14l-18 -47c23 -13 41 -29 55 -50c5 -9 3 -18 -8 -28l-40 -37
c-5 -4 -10 -6 -15 -5c-4 1 -7 3 -10 6l-20 16l-75 -193h2c24 0 48 13 71 38c8 9 16 10 25 1l39 -38c9 -9 10 -19 3 -28c-19 -25 -41 -44 -67 -59c-25 -15 -53 -22 -83 -22c-11 0 -21 1 -30 3l-37 -97c-4 -11 -11 -15 -22 -13l-12 3c-5 1 -8 4 -10 8s-2 9 0 14zM149 118
l70 184c-24 -1 -45 -13 -64 -36s-28 -50 -28 -82c0 -28 7 -50 22 -66z" />
    <glyph glyph-name="sterling" unicode="&#xa3;" horiz-adv-x="453" 
d="M32 19l3 18c48 77 71 162 68 254h-38c-5 0 -8 2 -11 5c-3 4 -4 9 -3 14l2 13c1 5 4 10 7 13c4 4 8 6 12 6h28c-5 41 -8 82 -8 123c0 75 21 135 62 179c42 44 96 66 163 66c53 0 102 -24 145 -71c3 -3 4 -7 4 -12s-2 -10 -6 -14l-57 -56c-9 -9 -17 -10 -24 -3
c-17 19 -32 31 -45 37c-9 4 -19 6 -28 6c-23 0 -43 -10 -60 -31c-17 -20 -26 -49 -26 -86c0 -15 2 -39 7 -72c5 -32 7 -54 8 -66h92c5 0 9 -2 13 -6c2 -4 4 -8 3 -13l-3 -14c-1 -5 -4 -10 -7 -13s-8 -5 -13 -5h-84c-3 -65 -14 -125 -35 -180h163c5 0 8 -2 10 -5
c3 -4 4 -9 3 -14l-10 -73c-1 -5 -3 -10 -7 -13c-3 -4 -7 -6 -12 -6h-301c-4 0 -8 2 -11 6c-3 3 -5 8 -4 13z" />
    <glyph glyph-name="currency" unicode="&#xa4;" horiz-adv-x="429" 
d="M82 161l-35 40c-3 3 -3 7 -3 13c2 5 4 10 7 14l52 48c-8 39 -3 76 16 112l-39 48c-3 3 -4 8 -3 14c1 5 3 10 7 13l46 39c4 3 8 5 13 5s8 -2 11 -5l38 -47c16 9 32 13 49 13s32 -4 46 -13l51 47c4 3 8 5 13 4c5 0 8 -1 11 -4l35 -40c3 -3 4 -7 3 -12c0 -5 -2 -10 -6 -14
l-51 -47c9 -39 3 -77 -16 -114l38 -47c3 -3 4 -8 3 -14c-1 -5 -3 -10 -7 -13l-47 -39c-11 -8 -18 -8 -23 -1l-39 48c-16 -9 -32 -13 -49 -13s-32 4 -45 13l-52 -48c-4 -3 -8 -5 -13 -5c-5 1 -8 2 -11 5zM263 332c3 15 1 27 -6 37s-16 15 -29 15c-12 0 -22 -5 -32 -15
c-8 -10 -14 -22 -16 -37s0 -27 7 -36c7 -10 16 -15 28 -15s23 5 32 15c9 9 15 21 16 36z" />
    <glyph glyph-name="yen" unicode="&#xa5;" horiz-adv-x="583" 
d="M107 120c-4 0 -7 2 -10 6c-3 3 -4 8 -3 13l2 13c1 5 3 10 6 14c4 3 8 5 13 5h94l10 69h-95c-4 0 -7 2 -10 6s-4 8 -3 13l2 13c1 5 3 10 6 14c3 3 7 5 12 5h95l7 46l-156 339c-3 7 -2 12 1 17c4 5 9 7 16 7h94c9 0 16 -5 19 -14l105 -230l168 235c5 6 10 9 16 9h110
c7 0 12 -3 14 -8c1 -5 0 -11 -5 -18l-252 -336l-7 -47h94c5 0 9 -2 12 -5c3 -4 3 -9 2 -14l-1 -14c-1 -5 -4 -10 -7 -13c-4 -3 -8 -5 -13 -5h-94l-9 -69h93c5 0 9 -2 12 -5c3 -4 4 -9 3 -14l-2 -14c-1 -5 -4 -10 -7 -13s-8 -5 -13 -5h-93l-14 -101c0 -5 -2 -10 -7 -13
c-4 -4 -8 -6 -13 -6h-97c-5 0 -8 2 -11 6c-3 3 -4 8 -3 13l14 101h-95z" />
    <glyph glyph-name="brokenbar" unicode="&#xa6;" horiz-adv-x="316" 
d="M170 392c-5 0 -8 2 -12 5c-2 3 -4 8 -3 13l47 331c0 5 2 10 6 13c4 4 8 6 13 6h14c5 0 8 -2 11 -6c3 -3 4 -8 3 -13l-47 -331c0 -5 -2 -10 -6 -13s-8 -5 -13 -5h-13zM104 49c1 5 4 10 8 13c3 4 7 6 12 6h14c5 0 8 -2 10 -6c3 -3 4 -8 4 -13l-47 -331c0 -5 -2 -10 -7 -13
c-4 -3 -8 -5 -13 -5h-12c-5 0 -8 2 -11 5s-4 8 -4 13z" />
    <glyph glyph-name="section" unicode="&#xa7;" horiz-adv-x="475" 
d="M20 -93c11 15 22 18 34 8c5 -4 12 -9 22 -16s25 -14 44 -22c20 -8 38 -12 54 -12c21 0 38 7 54 19c14 14 22 30 22 51c0 23 -7 44 -20 62s-33 35 -60 50c-19 11 -35 21 -48 31c-14 11 -28 24 -43 39s-26 32 -33 51c-8 19 -12 39 -12 61c0 36 8 67 24 95
c15 26 35 49 60 66c-13 11 -23 26 -32 47s-13 44 -13 69c0 20 3 40 8 59s14 38 25 55c11 18 25 34 42 46c17 14 37 24 61 32s51 12 80 12c10 0 20 0 29 -2c10 0 19 -2 28 -4c9 -3 17 -5 24 -7s15 -5 22 -9c7 -3 13 -6 18 -9s10 -6 16 -10l13 -9c3 -1 6 -4 11 -8s7 -6 8 -6
c4 -3 6 -7 6 -14c1 -7 -1 -12 -5 -17l-41 -54c-9 -13 -20 -14 -31 -5s-27 19 -49 28s-43 14 -64 14s-39 -7 -53 -21s-21 -31 -21 -51c0 -18 7 -34 20 -50c13 -14 34 -29 62 -44c16 -8 30 -16 42 -23c11 -7 24 -17 38 -29c15 -11 26 -23 36 -36c8 -12 16 -27 23 -44
s10 -36 10 -55c0 -35 -8 -67 -25 -97c-17 -29 -36 -52 -59 -68c12 -11 22 -26 31 -47s13 -44 13 -71c0 -29 -5 -57 -15 -82s-25 -48 -44 -67s-43 -35 -72 -45c-29 -12 -61 -17 -97 -17c-21 0 -43 3 -64 9s-40 14 -55 22l-37 24c-9 8 -16 14 -21 19c-4 5 -6 10 -6 15
c-1 4 2 10 7 19zM255 138c1 1 3 2 5 4c2 1 5 5 10 10c5 6 9 12 12 18c4 7 8 15 10 26c4 10 5 21 5 32c0 21 -9 40 -26 57s-43 33 -78 50c-25 -22 -38 -51 -38 -87c0 -5 0 -10 1 -16c1 -4 2 -10 5 -14c3 -6 5 -10 7 -13s5 -7 10 -12l11 -11c3 -3 8 -6 15 -11s12 -8 16 -10
c2 -2 8 -6 17 -11s15 -9 18 -12z" />
    <glyph glyph-name="dieresis" unicode="&#xa8;" horiz-adv-x="373" 
d="M66 615c2 17 10 32 22 45c14 12 28 18 43 18c16 0 29 -6 39 -18c9 -12 13 -27 11 -45c-3 -17 -11 -32 -23 -45c-14 -13 -28 -19 -44 -19s-29 6 -38 19s-13 28 -10 45zM247 615c2 17 9 32 22 45c13 12 27 18 43 18s29 -6 38 -18c10 -13 14 -28 12 -45
c-3 -17 -10 -32 -24 -45c-12 -13 -27 -19 -43 -19s-29 6 -38 19c-9 12 -13 27 -10 45z" />
    <glyph glyph-name="copyright" unicode="&#xa9;" horiz-adv-x="730" 
d="M47 303c0 73 17 140 51 203c35 63 81 112 139 149s121 55 188 55c52 0 99 -14 143 -42c42 -28 76 -66 99 -114s35 -100 35 -157c0 -55 -10 -107 -30 -157c-21 -51 -48 -94 -82 -130c-35 -36 -75 -65 -122 -86c-46 -22 -94 -33 -144 -33c-53 0 -100 14 -142 42
c-43 28 -76 66 -100 113c-23 47 -35 100 -35 157zM123 312c0 -44 9 -84 27 -122c17 -36 42 -66 75 -88s69 -33 110 -33c37 0 74 9 109 25c36 18 67 40 94 68c26 29 47 63 64 102c16 40 24 81 24 124c0 44 -9 85 -27 122s-43 67 -76 88c-33 22 -69 33 -109 33
c-29 0 -59 -5 -88 -16s-56 -26 -80 -45c-24 -20 -45 -43 -64 -69s-33 -55 -44 -88c-10 -33 -15 -66 -15 -101zM212 328c0 59 19 109 57 148c38 40 84 60 138 60c44 0 77 -13 100 -38c4 -4 6 -9 5 -14c0 -6 -3 -11 -8 -15l-41 -36c-8 -7 -15 -7 -22 -2c-13 9 -28 14 -45 14
c-24 0 -45 -11 -63 -33c-18 -21 -27 -47 -27 -76c0 -23 6 -42 18 -56c12 -16 27 -23 46 -23c14 0 30 6 47 19c9 7 17 6 22 -2l33 -43c3 -4 4 -9 2 -14c0 -5 -3 -10 -7 -14c-33 -28 -69 -42 -108 -42c-42 0 -77 16 -105 48s-42 72 -42 119z" />
    <glyph glyph-name="ordfeminine" unicode="&#xaa;" horiz-adv-x="294" 
d="M130 398c-24 0 -43 8 -58 24c-14 15 -21 36 -21 62c0 32 11 58 33 79c23 21 52 31 88 31c7 0 14 -1 21 -2s13 -3 17 -4l6 -2c4 19 4 32 0 40c-4 9 -13 13 -28 13c-17 0 -40 -4 -69 -11c-11 -2 -15 3 -14 15l-1 33c0 8 5 15 14 20c17 9 47 14 90 14c40 0 67 -10 80 -31
s17 -53 10 -98l-22 -161c0 -4 -2 -7 -5 -10s-7 -4 -10 -4h-27c-7 0 -13 10 -17 31l-21 -18c-7 -5 -16 -9 -28 -14s-25 -7 -38 -7zM161 466c9 0 17 3 25 8c7 5 12 12 15 19l4 39c-7 5 -17 8 -31 8c-11 0 -20 -4 -28 -12s-12 -19 -12 -32c0 -9 2 -17 8 -22c4 -5 11 -8 19 -8z
" />
    <glyph glyph-name="guillemotleft" unicode="&#xab;" horiz-adv-x="450" 
d="M90 39l-72 155c-4 9 -3 17 3 24l114 148c7 8 14 12 21 12h64c8 0 13 -3 14 -10c2 -6 1 -13 -4 -21l-80 -149l32 -137c2 -8 1 -15 -2 -21s-9 -9 -16 -9h-62c-5 0 -9 3 -12 8zM278 39l-72 155c-4 9 -3 17 3 24l114 148c7 8 14 12 21 12h64c8 0 13 -3 14 -10
c2 -6 1 -13 -4 -21l-80 -149l32 -137c2 -8 1 -15 -2 -21s-9 -9 -16 -9h-62c-5 0 -9 3 -12 8z" />
    <glyph glyph-name="logicalnot" unicode="&#xac;" horiz-adv-x="463" 
d="M41 300c-4 0 -7 2 -11 6c-2 4 -4 8 -3 13l8 56c1 5 3 10 7 13c3 4 7 6 12 6h358c5 0 8 -2 11 -6s4 -8 3 -13l-32 -226c0 -5 -2 -10 -6 -13s-8 -5 -13 -5h-58c-5 0 -8 2 -11 5c-3 4 -4 8 -3 13l21 151h-283z" />
    <glyph glyph-name="uni00AD" unicode="&#xad;" horiz-adv-x="312" 
d="M81 192c-5 0 -9 2 -11 5c-3 3 -4 8 -3 13l9 67c0 5 2 10 6 13c4 4 9 6 14 6h204c11 0 15 -6 14 -19l-9 -67c0 -5 -2 -10 -7 -13c-4 -3 -8 -5 -13 -5h-204z" />
    <glyph glyph-name="registered" unicode="&#xae;" horiz-adv-x="730" 
d="M47 303c0 73 17 140 51 203c35 63 81 112 139 149s121 55 188 55c52 0 99 -14 143 -42c42 -28 76 -66 99 -114s35 -100 35 -157c0 -55 -10 -107 -30 -157c-21 -51 -48 -94 -82 -130c-35 -36 -75 -65 -122 -86c-46 -22 -94 -33 -144 -33c-53 0 -100 14 -142 42
c-43 28 -76 66 -100 113c-23 47 -35 100 -35 157zM123 312c0 -44 9 -84 27 -122c17 -36 42 -66 75 -88s69 -33 110 -33c37 0 74 9 109 25c36 18 67 40 94 68c26 29 47 63 64 102c16 40 24 81 24 124c0 44 -9 85 -27 122s-43 67 -76 88c-33 22 -69 33 -109 33
c-29 0 -59 -5 -88 -16s-56 -26 -80 -45c-24 -20 -45 -43 -64 -69s-33 -55 -44 -88c-10 -33 -15 -66 -15 -101zM244 168c-5 0 -9 2 -12 6s-3 8 -2 13l46 328c1 5 3 10 6 13c4 4 8 6 13 6h143c27 0 49 -10 68 -29c18 -19 27 -45 27 -77c0 -63 -27 -104 -80 -124l25 -109
c1 -7 0 -13 -4 -19c-4 -5 -9 -8 -15 -8h-54c-3 0 -6 1 -9 4s-4 6 -5 10l-20 112h-43l-15 -107c-1 -5 -3 -10 -6 -13c-3 -4 -8 -6 -13 -6h-50zM336 368h66c11 0 20 5 28 14c7 9 11 21 11 34c0 10 -3 18 -7 24c-6 7 -12 10 -20 10h-66z" />
    <glyph glyph-name="macron" unicode="&#xaf;" horiz-adv-x="373" 
d="M52 570c-5 0 -9 2 -12 5c-2 3 -3 8 -2 13l4 34c0 5 2 10 6 14c4 3 9 5 14 5h231c5 0 8 -2 11 -5c3 -4 4 -9 3 -14l-5 -34c-1 -5 -3 -10 -6 -13c-4 -3 -8 -5 -13 -5h-231z" />
    <glyph glyph-name="degree" unicode="&#xb0;" horiz-adv-x="286" 
d="M171 440c-31 0 -58 11 -79 34c-20 23 -31 50 -31 83c0 43 13 79 39 109c25 29 58 44 98 44c31 0 56 -11 78 -34c20 -23 31 -50 31 -83c0 -43 -13 -79 -40 -109c-27 -29 -59 -44 -96 -44zM177 526c11 0 20 6 29 17s13 24 13 39c0 11 -3 21 -8 29s-12 12 -21 12
c-11 0 -21 -5 -30 -17c-9 -10 -13 -24 -13 -39c0 -11 3 -21 9 -29c5 -8 12 -12 21 -12z" />
    <glyph glyph-name="plusminus" unicode="&#xb1;" horiz-adv-x="521" 
d="M233 242c-5 0 -8 2 -11 5s-4 8 -3 13l13 103h-131c-4 0 -7 2 -11 5c-2 4 -4 9 -3 14l8 56c1 5 3 10 7 14c3 3 7 5 12 5h131l21 148c0 5 2 10 6 13c5 3 9 5 14 5h61c5 0 8 -2 11 -5c3 -4 4 -8 4 -13l-21 -148h131c4 0 8 -2 10 -5c4 -4 5 -9 4 -14l-8 -56
c-1 -5 -3 -10 -6 -14c-4 -3 -8 -5 -13 -5h-131l-13 -103c-1 -5 -4 -10 -7 -13c-4 -3 -8 -5 -13 -5h-62zM48 47c-5 0 -10 2 -13 5c-3 4 -5 9 -4 14l7 56c0 5 2 10 6 14c5 3 9 5 14 5h358c4 0 8 -2 10 -5c4 -4 5 -9 4 -14l-8 -56c-1 -5 -3 -10 -6 -14c-4 -3 -8 -5 -13 -5h-355
z" />
    <glyph glyph-name="twosuperior" unicode="&#xb2;" horiz-adv-x="258" 
d="M74 504c-7 0 -9 3 -8 9l3 17l112 126c19 23 29 42 29 57c0 8 -2 15 -6 20s-10 8 -18 8c-12 0 -27 -6 -44 -19c-7 -4 -12 -2 -16 5l-18 33c-3 4 -4 8 -3 10c1 4 4 7 10 11c27 19 56 29 88 29c25 0 46 -7 63 -22s25 -34 25 -57c0 -34 -14 -67 -42 -99l-57 -64h66
c3 0 5 -1 6 -3s2 -4 2 -6l-7 -46c0 -3 -1 -5 -3 -7c-2 -1 -4 -2 -6 -2h-176z" />
    <glyph glyph-name="threesuperior" unicode="&#xb3;" horiz-adv-x="246" 
d="M152 494c-15 0 -28 2 -40 7c-13 5 -22 9 -28 13c-5 5 -10 9 -13 13c-5 5 -5 11 0 18l22 26c7 7 12 7 17 2c9 -9 21 -13 37 -13c25 0 38 12 38 36c0 8 -3 15 -8 20s-13 8 -23 8h-28c-8 0 -11 5 -10 14l4 31c1 9 7 14 17 14h26c9 0 17 3 25 11c6 6 10 15 10 25
c0 8 -2 14 -7 19c-5 4 -11 6 -19 6c-10 0 -21 -5 -33 -16c-3 -2 -5 -3 -7 -2c-3 0 -5 2 -7 5l-21 31c-2 3 -2 6 -2 10c2 3 3 6 6 8c3 3 6 6 10 9c5 3 14 8 28 13c13 5 27 8 42 8c27 0 50 -7 67 -20s26 -31 26 -52c0 -20 -6 -37 -17 -50c-12 -14 -25 -24 -40 -31
c11 -5 22 -13 30 -25c10 -10 14 -25 14 -42c0 -29 -11 -53 -34 -70c-22 -17 -49 -26 -82 -26z" />
    <glyph glyph-name="acute" unicode="&#xb4;" horiz-adv-x="272" 
d="M90 528c-11 -5 -19 -3 -23 6l-16 39c-3 8 0 14 8 19l164 97c11 7 19 6 24 -5l24 -52c3 -6 3 -12 1 -16c-1 -6 -5 -9 -10 -11z" />
    <glyph glyph-name="mu" unicode="&#x3bc;" horiz-adv-x="490" 
d="M139 -6l-38 -275c0 -5 -2 -10 -7 -13c-4 -4 -8 -6 -13 -6h-86c-4 0 -8 2 -11 6s-5 8 -4 13l94 662c0 5 2 10 6 13c4 4 8 6 13 6h87c5 0 8 -2 12 -6c2 -3 3 -8 2 -13l-29 -206c-2 -24 1 -43 9 -57c8 -13 20 -20 36 -20c9 0 18 2 27 6s16 9 21 14s10 11 15 17s8 11 10 14
l3 6l31 226c3 13 10 19 22 19h82c5 0 8 -2 11 -6c3 -3 4 -8 3 -13l-50 -362c0 -5 -2 -10 -7 -13c-4 -4 -8 -6 -13 -6h-39c-7 0 -12 5 -15 15l-7 33c-35 -39 -79 -58 -130 -58c-9 0 -20 1 -35 4z" />
    <glyph glyph-name="paragraph" unicode="&#xb6;" horiz-adv-x="639" 
d="M168 -281l79 562h-39c-45 0 -83 17 -114 53c-31 34 -46 78 -46 129c0 41 10 80 29 117s45 66 77 88c31 21 65 32 100 32h413c5 0 9 -2 12 -6s4 -8 3 -13l-7 -46c-1 -5 -4 -10 -7 -13c-3 -4 -7 -6 -12 -6h-62l-126 -897c-1 -5 -3 -10 -6 -13c-4 -4 -9 -6 -14 -6h-57
c-4 0 -7 2 -11 6c-2 4 -4 8 -3 13l126 896h-118l-126 -896c-1 -5 -3 -10 -7 -13c-3 -4 -7 -6 -12 -6h-57c-4 0 -8 2 -11 6c-3 3 -5 8 -4 13z" />
    <glyph glyph-name="periodcentered" unicode="&#xb7;" horiz-adv-x="258" 
d="M119 167c-21 0 -39 8 -55 23c-14 16 -22 35 -22 56c0 28 10 52 31 72s44 30 71 30c23 0 42 -8 57 -24c15 -15 23 -34 23 -57c0 -27 -11 -50 -32 -70s-46 -30 -73 -30z" />
    <glyph glyph-name="cedilla" unicode="&#xb8;" horiz-adv-x="222" 
d="M73 0h63l-8 -54c22 -3 40 -12 52 -28c14 -16 20 -37 20 -62c0 -32 -10 -59 -30 -82s-45 -34 -76 -34c-15 0 -28 3 -41 10s-22 15 -28 25c-7 9 -4 19 7 28l18 17c7 7 13 6 19 -1c7 -8 15 -12 26 -12c9 0 17 4 25 13c6 8 10 18 10 31c0 25 -19 39 -57 42c-5 1 -9 4 -11 7
c-2 4 -3 8 -2 11z" />
    <glyph glyph-name="onesuperior" unicode="&#xb9;" horiz-adv-x="192" 
d="M116 504c-5 0 -8 3 -8 9l27 193l-47 -4c-5 0 -7 3 -6 9l3 30c1 7 4 11 9 14l74 45h52c3 0 5 -1 6 -2c1 -2 2 -4 1 -7l-39 -278c-1 -6 -5 -9 -10 -9h-62z" />
    <glyph glyph-name="ordmasculine" unicode="&#xba;" horiz-adv-x="287" 
d="M159 394c-30 0 -54 11 -71 34c-18 23 -27 52 -27 89c0 59 13 105 38 141c25 34 60 52 104 52c31 0 55 -11 72 -33s26 -52 26 -90c0 -59 -13 -105 -38 -141c-25 -34 -60 -52 -104 -52zM169 468c13 0 25 11 34 34s14 50 14 82c0 16 -2 29 -7 38c-4 9 -10 14 -17 14
c-14 0 -25 -11 -35 -34c-8 -23 -13 -50 -13 -82c0 -16 2 -29 7 -38s10 -14 17 -14z" />
    <glyph glyph-name="guillemotright" unicode="&#xbb;" horiz-adv-x="450" 
d="M22 31c-8 0 -13 3 -14 9c-2 7 -1 14 4 22l80 149l-32 137c-2 8 -1 15 2 21s9 9 16 9h62c5 0 9 -3 12 -8l72 -155c4 -9 3 -17 -3 -24l-114 -148c-7 -8 -14 -12 -21 -12h-64zM210 31c-8 0 -13 3 -14 9c-2 7 -1 14 4 22l80 149l-32 137c-2 8 -1 15 2 21s9 9 16 9h62
c5 0 9 -3 12 -8l72 -155c4 -9 3 -17 -3 -24l-114 -148c-7 -8 -14 -12 -21 -12h-64z" />
    <glyph glyph-name="onequarter" unicode="&#xbc;" horiz-adv-x="603" 
d="M415 1c-3 0 -5 1 -6 3s-2 4 -2 6l7 48h-120c-2 0 -4 1 -5 2c-1 2 -2 4 -2 6l7 51l167 175c3 3 8 5 13 5h39c2 0 4 -1 5 -3c2 -2 3 -4 2 -6l-24 -170h35c3 0 5 -1 6 -2c1 -2 2 -4 1 -6l-6 -43c0 -3 -1 -5 -3 -7c-2 -1 -4 -2 -6 -2h-36l-6 -48c-1 -6 -5 -9 -10 -9h-56z
M364 117h59l12 72zM120 10c-5 -7 -11 -10 -16 -10h-51c-7 0 -11 3 -14 8c-3 6 -2 12 2 19l403 663c4 7 10 10 17 10h52c7 0 11 -3 13 -8c3 -6 2 -12 -2 -19zM108 405c-5 0 -8 3 -8 9l27 193l-47 -4c-5 0 -7 3 -6 9l3 30c1 7 4 11 9 14l74 45h52c3 0 5 -1 6 -3
c1 -1 2 -3 1 -6l-39 -278c-1 -6 -5 -9 -10 -9h-62z" />
    <glyph glyph-name="onehalf" unicode="&#xbd;" horiz-adv-x="597" 
d="M120 10c-5 -7 -11 -10 -16 -10h-51c-7 0 -11 3 -14 8c-3 6 -2 12 2 19l403 663c4 7 10 10 17 10h52c7 0 11 -3 13 -8c3 -6 2 -12 -2 -19zM108 405c-5 0 -8 3 -8 9l27 193l-47 -4c-5 0 -7 3 -6 9l3 30c1 7 4 11 9 14l74 45h52c3 0 5 -1 6 -3c1 -1 2 -3 1 -6l-39 -278
c-1 -6 -5 -9 -10 -9h-62zM319 1c-7 0 -9 3 -8 9l3 17l112 126c19 23 29 42 29 57c0 8 -2 15 -6 20s-10 8 -18 8c-12 0 -27 -6 -44 -19c-7 -4 -12 -2 -16 5l-18 33c-3 4 -4 7 -3 11c1 2 4 6 10 10c27 19 56 29 88 29c25 0 46 -7 63 -22s25 -34 25 -57c0 -34 -14 -67 -42 -99
l-57 -64h66c3 0 5 -1 6 -3s2 -4 2 -6l-7 -46c0 -3 -1 -5 -3 -6c-2 -2 -4 -3 -6 -3h-176z" />
    <glyph glyph-name="threequarters" unicode="&#xbe;" horiz-adv-x="653" 
d="M466 1c-3 0 -5 1 -6 3s-2 4 -2 6l7 48h-120c-2 0 -4 1 -5 2c-1 2 -2 4 -2 6l7 51l167 175c3 3 8 5 13 5h39c2 0 4 -1 6 -3c1 -2 2 -4 1 -6l-24 -170h35c3 0 5 -1 6 -2c1 -2 2 -4 1 -6l-6 -43c0 -3 -1 -5 -3 -7c-2 -1 -4 -2 -6 -2h-36l-6 -48c-1 -6 -5 -9 -10 -9h-56z
M415 117h59l12 72zM171 10c-5 -7 -11 -10 -16 -10h-51c-7 0 -11 3 -14 8c-3 6 -2 12 2 19l403 663c4 7 10 10 17 10h52c7 0 11 -3 14 -8c2 -6 1 -12 -3 -19zM138 395c-15 0 -28 2 -40 7c-13 5 -22 9 -28 14c-5 4 -10 8 -13 12c-5 5 -5 11 0 18l22 26c7 7 12 7 17 2
c9 -9 21 -13 37 -13c25 0 38 12 38 36c0 8 -3 15 -8 20s-13 8 -23 8h-28c-8 0 -11 5 -10 14l4 31c1 9 7 14 17 14h26c9 0 17 4 25 10c6 8 10 16 10 26c0 8 -2 14 -7 18c-5 5 -11 7 -19 7c-10 0 -21 -5 -33 -16c-3 -2 -5 -3 -7 -3c-3 1 -5 3 -7 6l-21 31c-2 3 -2 6 -2 9
c2 4 3 7 6 9c3 3 6 6 10 9c5 3 14 8 28 13c13 5 27 8 42 8c27 0 50 -7 67 -20s26 -31 26 -52c0 -20 -6 -37 -17 -51c-12 -13 -25 -23 -40 -30c11 -5 22 -14 30 -24c10 -12 14 -26 14 -43c0 -29 -11 -53 -34 -70c-22 -17 -49 -26 -82 -26z" />
    <glyph glyph-name="questiondown" unicode="&#xbf;" horiz-adv-x="402" 
d="M125 74l8 38c2 11 8 16 19 16h86c5 0 8 -2 12 -6c2 -3 4 -8 3 -13l-6 -42c-3 -18 -10 -35 -21 -52c-12 -17 -25 -31 -40 -43l-43 -36c-14 -12 -26 -25 -35 -38c-10 -13 -15 -27 -15 -42s5 -28 14 -37s22 -14 39 -14c5 0 10 1 14 1c6 2 10 3 14 5c5 2 10 4 14 7
c6 3 10 5 13 7s7 5 12 9s8 7 9 8c1 2 4 5 8 8l7 7c5 4 11 6 15 5c6 0 10 -2 14 -6l46 -51c3 -4 4 -8 3 -13c-1 -4 -3 -8 -7 -13l-6 -7l-10 -10l-12 -12c-5 -5 -11 -10 -16 -14c-6 -4 -13 -8 -20 -14c-8 -4 -16 -9 -24 -12c-9 -4 -18 -8 -28 -10c-9 -4 -20 -6 -32 -8
c-11 -1 -23 -2 -35 -2c-47 0 -86 14 -118 44c-32 28 -48 64 -48 107c0 25 5 49 15 69c11 22 24 39 40 53c15 14 31 27 46 39c16 12 30 24 42 36c13 12 20 24 23 36zM142 318c0 25 10 46 28 65c20 19 41 28 65 28c20 0 37 -7 50 -21c13 -15 20 -32 20 -52
c0 -25 -10 -46 -29 -64c-19 -19 -41 -28 -65 -28c-19 0 -36 7 -49 21s-20 31 -20 51z" />
    <glyph glyph-name="Agrave" unicode="&#xc0;" 
d="M-20 0c-7 0 -11 3 -14 8c-2 5 -1 11 2 18l376 673c4 7 10 11 17 11h9c7 0 11 -4 14 -11l184 -673c2 -7 1 -13 -3 -18s-9 -8 -16 -8h-87c-15 0 -23 7 -26 20l-25 111h-249l-58 -111c-7 -13 -17 -20 -32 -20h-92zM221 239h158l-47 218h-2zM441 769l-150 77c-4 3 -6 6 -7 10
c-1 5 1 10 5 17l29 43c4 7 9 10 15 11s10 0 12 -3l137 -97c3 -1 4 -4 5 -7c1 -4 0 -8 -2 -12l-20 -33c-7 -9 -15 -11 -24 -6z" />
    <glyph glyph-name="Aacute" unicode="&#xc1;" 
d="M-20 0c-7 0 -11 3 -14 8c-2 5 -1 11 2 18l376 673c4 7 10 11 17 11h9c7 0 11 -4 14 -11l184 -673c2 -7 1 -13 -3 -18s-9 -8 -16 -8h-87c-15 0 -23 7 -26 20l-25 111h-249l-58 -111c-7 -13 -17 -20 -32 -20h-92zM221 239h158l-47 218h-2zM313 768c-11 -5 -19 -3 -23 6
l-16 39c-3 8 0 14 8 19l164 97c11 7 19 6 24 -5l24 -52c3 -6 3 -12 1 -16c-1 -6 -5 -9 -10 -11z" />
    <glyph glyph-name="Acircumflex" unicode="&#xc2;" 
d="M-20 0c-7 0 -11 3 -14 8c-2 5 -1 11 2 18l376 673c4 7 10 11 17 11h9c7 0 11 -4 14 -11l184 -673c2 -7 1 -13 -3 -18s-9 -8 -16 -8h-87c-15 0 -23 7 -26 20l-25 111h-249l-58 -111c-7 -13 -17 -20 -32 -20h-92zM221 239h158l-47 218h-2zM262 768l-22 33c-6 9 -4 16 5 23
l134 101c8 5 15 5 21 0l106 -101c7 -5 8 -12 3 -19l-29 -37c-7 -8 -13 -9 -20 -3l-78 62l-100 -62c-8 -5 -15 -4 -20 3z" />
    <glyph glyph-name="Atilde" unicode="&#xc3;" 
d="M271 789l-27 21c-7 7 -7 14 -2 23c4 8 8 15 13 23c5 6 11 15 20 26s19 19 31 26c12 6 25 9 38 9c8 0 16 -2 24 -5c7 -4 14 -9 20 -14l16 -16c5 -5 11 -10 17 -14s12 -6 17 -6c7 0 12 3 18 8c4 5 9 13 14 23c3 7 7 11 13 13c6 1 12 0 17 -3l23 -18c9 -7 10 -18 2 -33
c-3 -7 -7 -14 -11 -20c-6 -8 -12 -16 -20 -24c-8 -10 -18 -17 -29 -23s-23 -9 -36 -9c-11 0 -21 3 -31 9c-11 6 -19 12 -25 19s-13 13 -20 19s-14 9 -20 9c-2 0 -4 0 -6 -1s-4 -1 -6 -3c-2 0 -4 -2 -5 -2c-1 -2 -3 -3 -4 -6c-1 -2 -3 -4 -4 -4c-1 -2 -3 -3 -4 -6
s-2 -4 -3 -6c-1 0 -2 -2 -3 -6c-2 -2 -3 -4 -3 -5c-2 -4 -5 -7 -11 -7c-4 -2 -9 0 -13 3zM-20 0c-7 0 -11 3 -14 8c-2 5 -1 11 2 18l376 673c4 7 10 11 17 11h9c7 0 11 -4 14 -11l184 -673c2 -7 1 -13 -3 -18s-9 -8 -16 -8h-87c-15 0 -23 7 -26 20l-25 111h-249l-58 -111
c-7 -13 -17 -20 -32 -20h-92zM221 239h158l-47 218h-2z" />
    <glyph glyph-name="Adieresis" unicode="&#xc4;" 
d="M438 839c2 17 9 32 22 45c13 12 27 18 43 18s29 -6 38 -18c9 -13 13 -28 11 -45c-3 -17 -10 -32 -23 -45s-27 -19 -43 -19s-29 6 -38 19c-9 12 -13 27 -10 45zM263 775c-15 0 -28 6 -37 19c-9 12 -13 27 -10 45c2 17 9 32 22 45c12 12 26 18 42 18s29 -6 38 -18
c10 -12 14 -27 12 -45c-3 -17 -10 -32 -24 -45c-12 -13 -27 -19 -43 -19zM-20 0c-7 0 -11 3 -14 8c-2 5 -1 11 2 18l376 673c4 7 10 11 17 11h9c7 0 11 -4 14 -11l184 -673c2 -7 1 -13 -3 -18s-9 -8 -16 -8h-87c-15 0 -23 7 -26 20l-25 111h-249l-58 -111
c-7 -13 -17 -20 -32 -20h-92zM221 239h158l-47 218h-2z" />
    <glyph glyph-name="Aring" unicode="&#xc5;" 
d="M-20 0c-7 0 -11 3 -14 8c-2 5 -1 11 2 18l376 673c4 7 10 11 17 11h9c7 0 11 -4 14 -11l184 -673c2 -7 1 -13 -3 -18s-9 -8 -16 -8h-87c-15 0 -23 7 -26 20l-25 111h-249l-58 -111c-7 -13 -17 -20 -32 -20h-92zM221 239h158l-47 218h-2zM373 754c-25 0 -47 10 -63 28
c-18 20 -26 43 -26 70c0 36 12 66 35 91s52 37 85 37c25 0 46 -10 63 -28c17 -20 25 -43 25 -70c0 -35 -12 -66 -35 -90c-23 -26 -51 -38 -84 -38zM381 817c12 0 23 6 33 17c10 12 15 25 15 39c0 12 -3 22 -9 30c-7 8 -15 12 -25 12c-12 0 -23 -5 -33 -17
c-10 -10 -15 -23 -15 -37c0 -12 3 -22 10 -31s15 -13 24 -13z" />
    <glyph glyph-name="AE" unicode="&#xc6;" horiz-adv-x="821" 
d="M-35 0c-7 0 -11 3 -12 8s0 11 5 18l451 643c1 1 2 3 5 6s4 5 4 6c1 1 2 2 4 5s3 4 4 4l4 4l4 2c2 1 3 2 6 2c2 2 4 2 6 2h7h359c4 0 8 -2 10 -6c4 -4 5 -8 4 -13l-12 -82c-1 -5 -3 -10 -6 -13c-4 -4 -8 -6 -13 -6h-258l-23 -164h213c4 0 8 -2 11 -6s5 -8 4 -13l-12 -83
c-1 -5 -4 -10 -8 -14c-3 -3 -7 -5 -12 -5h-213l-25 -175h258c5 0 8 -2 11 -6c3 -3 4 -8 3 -13l-11 -82c-1 -5 -3 -10 -7 -13c-4 -4 -8 -6 -13 -6h-370c-5 0 -9 2 -12 6s-4 8 -3 13l16 109h-175l-74 -113c-7 -10 -16 -15 -27 -15h-103zM249 239h110l31 222z" />
    <glyph glyph-name="Ccedilla" unicode="&#xc7;" horiz-adv-x="628" 
d="M278 -4c-69 13 -124 48 -164 105c-42 57 -62 123 -62 200c0 57 10 111 29 163c19 50 46 94 79 130s73 64 119 85s95 31 146 31c43 0 82 -9 117 -26c36 -17 66 -40 91 -69c3 -4 4 -9 3 -14c0 -5 -2 -10 -7 -14l-54 -52c-12 -11 -23 -11 -33 0c-35 33 -76 50 -124 50
c-39 0 -76 -12 -110 -37c-35 -24 -62 -57 -83 -98s-31 -85 -31 -132c0 -55 14 -101 42 -140c28 -38 65 -57 111 -57c47 0 92 20 137 59c12 11 23 10 32 -1l52 -65c3 -4 3 -9 2 -14s-4 -10 -7 -13c-67 -64 -141 -96 -223 -97l-6 -44c22 -3 40 -12 52 -28
c14 -16 20 -37 20 -62c0 -32 -10 -59 -30 -82s-45 -34 -76 -34c-15 0 -28 3 -41 10s-22 15 -28 25c-7 9 -4 19 7 28l18 17c7 7 13 6 19 -1c7 -8 15 -12 26 -12c9 0 17 4 25 13c6 8 10 18 10 31c0 25 -19 39 -57 42c-5 1 -9 4 -11 7c-2 4 -3 8 -2 11z" />
    <glyph glyph-name="Egrave" unicode="&#xc8;" horiz-adv-x="545" 
d="M53 19l93 662c1 5 3 10 6 13c4 4 8 6 13 6h370c5 0 9 -2 12 -6s4 -8 3 -13l-12 -82c-1 -5 -3 -10 -6 -13c-4 -4 -9 -6 -14 -6h-256l-23 -164h212c4 0 8 -2 11 -6s5 -8 4 -13l-12 -83c-1 -5 -4 -10 -8 -14c-3 -3 -7 -5 -12 -5h-212l-25 -175h257c5 0 8 -2 11 -6
c3 -3 4 -8 3 -13l-11 -82c-1 -5 -3 -10 -7 -13c-4 -4 -8 -6 -13 -6h-370c-5 0 -9 2 -12 6c-3 3 -3 8 -2 13zM427 769l-150 77c-4 3 -6 6 -7 10c-1 5 1 10 5 17l29 43c4 7 9 10 15 11s10 0 12 -3l137 -97c3 -1 4 -4 5 -7c1 -4 0 -8 -2 -12l-20 -33c-7 -9 -15 -11 -24 -6z" />
    <glyph glyph-name="Eacute" unicode="&#xc9;" horiz-adv-x="545" 
d="M53 19l93 662c1 5 3 10 6 13c4 4 8 6 13 6h370c5 0 9 -2 12 -6s4 -8 3 -13l-12 -82c-1 -5 -3 -10 -6 -13c-4 -4 -9 -6 -14 -6h-256l-23 -164h212c4 0 8 -2 11 -6s5 -8 4 -13l-12 -83c-1 -5 -4 -10 -8 -14c-3 -3 -7 -5 -12 -5h-212l-25 -175h257c5 0 8 -2 11 -6
c3 -3 4 -8 3 -13l-11 -82c-1 -5 -3 -10 -7 -13c-4 -4 -8 -6 -13 -6h-370c-5 0 -9 2 -12 6c-3 3 -3 8 -2 13zM300 768c-11 -5 -19 -3 -23 6l-16 39c-3 8 0 14 8 19l164 97c11 7 19 6 24 -5l24 -52c3 -6 3 -12 1 -16c-1 -6 -5 -9 -10 -11z" />
    <glyph glyph-name="Ecircumflex" unicode="&#xca;" horiz-adv-x="545" 
d="M53 19l93 662c1 5 3 10 6 13c4 4 8 6 13 6h370c5 0 9 -2 12 -6s4 -8 3 -13l-12 -82c-1 -5 -3 -10 -6 -13c-4 -4 -9 -6 -14 -6h-256l-23 -164h212c4 0 8 -2 11 -6s5 -8 4 -13l-12 -83c-1 -5 -4 -10 -8 -14c-3 -3 -7 -5 -12 -5h-212l-25 -175h257c5 0 8 -2 11 -6
c3 -3 4 -8 3 -13l-11 -82c-1 -5 -3 -10 -7 -13c-4 -4 -8 -6 -13 -6h-370c-5 0 -9 2 -12 6c-3 3 -3 8 -2 13zM250 768l-22 33c-6 9 -4 16 5 23l134 101c8 5 15 5 21 0l106 -101c7 -5 8 -12 3 -19l-29 -37c-7 -8 -13 -9 -20 -3l-78 62l-100 -62c-8 -5 -15 -4 -20 3z" />
    <glyph glyph-name="Edieresis" unicode="&#xcb;" horiz-adv-x="545" 
d="M425 839c2 17 9 32 22 45c13 12 27 18 43 18s29 -6 38 -18c9 -13 13 -28 11 -45c-3 -17 -10 -32 -23 -45s-27 -19 -43 -19s-29 6 -38 19c-9 12 -13 27 -10 45zM250 775c-15 0 -28 6 -37 19c-9 12 -13 27 -10 45c2 17 9 32 21 45c13 12 27 18 43 18s29 -6 39 -18
c9 -12 13 -27 11 -45c-3 -17 -11 -32 -23 -45c-14 -13 -28 -19 -44 -19zM53 19l93 662c1 5 3 10 6 13c4 4 8 6 13 6h370c5 0 9 -2 12 -6s4 -8 3 -13l-12 -82c-1 -5 -3 -10 -6 -13c-4 -4 -9 -6 -14 -6h-256l-23 -164h212c4 0 8 -2 11 -6s5 -8 4 -13l-12 -83
c-1 -5 -4 -10 -8 -14c-3 -3 -7 -5 -12 -5h-212l-25 -175h257c5 0 8 -2 11 -6c3 -3 4 -8 3 -13l-11 -82c-1 -5 -3 -10 -7 -13c-4 -4 -8 -6 -13 -6h-370c-5 0 -9 2 -12 6c-3 3 -3 8 -2 13z" />
    <glyph glyph-name="Igrave" unicode="&#xcc;" horiz-adv-x="310" 
d="M53 19l93 662c1 5 3 10 6 13c4 4 8 6 13 6h98c5 0 8 -2 11 -6s4 -8 3 -13l-93 -662c-1 -5 -3 -10 -6 -13c-4 -4 -8 -6 -13 -6h-98c-5 0 -9 2 -11 6c-4 3 -4 8 -3 13zM290 769l-150 77c-4 3 -6 6 -7 10c-1 5 1 10 5 17l29 43c4 7 9 10 15 11s10 0 12 -3l137 -97
c3 -1 4 -4 5 -7c1 -4 0 -8 -2 -12l-20 -33c-7 -9 -15 -11 -24 -6z" />
    <glyph glyph-name="Iacute" unicode="&#xcd;" horiz-adv-x="310" 
d="M53 19l93 662c1 5 3 10 6 13c4 4 8 6 13 6h98c5 0 8 -2 11 -6s4 -8 3 -13l-93 -662c-1 -5 -3 -10 -6 -13c-4 -4 -8 -6 -13 -6h-98c-5 0 -9 2 -11 6c-4 3 -4 8 -3 13zM162 768c-11 -5 -19 -3 -23 6l-16 39c-3 8 0 14 8 19l164 97c11 7 19 6 24 -5l24 -52c3 -6 3 -12 1 -16
c-1 -6 -5 -9 -10 -11z" />
    <glyph glyph-name="Icircumflex" unicode="&#xce;" horiz-adv-x="310" 
d="M53 19l93 662c1 5 3 10 6 13c4 4 8 6 13 6h98c5 0 8 -2 11 -6s4 -8 3 -13l-93 -662c-1 -5 -3 -10 -6 -13c-4 -4 -8 -6 -13 -6h-98c-5 0 -9 2 -11 6c-4 3 -4 8 -3 13zM112 768l-22 33c-6 9 -4 16 5 23l134 101c8 5 15 5 21 0l106 -101c7 -5 8 -12 3 -19l-29 -37
c-7 -8 -13 -9 -20 -3l-78 62l-100 -62c-8 -5 -15 -4 -20 3z" />
    <glyph glyph-name="Idieresis" unicode="&#xcf;" horiz-adv-x="310" 
d="M288 839c2 17 9 32 22 45c13 12 27 18 43 18s29 -6 38 -18c9 -13 13 -28 11 -45c-3 -17 -10 -32 -23 -45s-27 -19 -43 -19s-29 6 -38 19c-9 12 -13 27 -10 45zM113 775c-15 0 -28 6 -37 19c-9 12 -13 27 -10 45c2 17 9 32 22 45c12 12 26 18 42 18s29 -6 38 -18
c10 -12 14 -27 12 -45c-3 -17 -10 -32 -24 -45c-12 -13 -27 -19 -43 -19zM53 19l93 662c1 5 3 10 6 13c4 4 8 6 13 6h98c5 0 8 -2 11 -6s4 -8 3 -13l-93 -662c-1 -5 -3 -10 -6 -13c-4 -4 -8 -6 -13 -6h-98c-5 0 -9 2 -11 6c-4 3 -4 8 -3 13z" />
    <glyph glyph-name="Eth" unicode="&#xd0;" horiz-adv-x="688" 
d="M58 19l42 302h-26c-4 0 -8 2 -10 5c-4 4 -5 9 -4 14l1 13c0 5 2 10 7 13c4 4 8 6 13 6h26l44 309c1 5 3 10 7 13c3 4 7 6 12 6h216c39 0 75 -8 109 -25s63 -39 86 -67s42 -60 55 -98c14 -36 21 -75 21 -114c0 -53 -10 -104 -29 -153s-45 -91 -78 -127
c-33 -35 -72 -64 -118 -84c-45 -22 -93 -32 -144 -32h-217c-4 0 -7 2 -11 6c-2 3 -3 8 -2 13zM202 122h93c61 0 114 26 157 77c44 51 66 114 66 188c0 55 -14 101 -44 137c-28 37 -67 55 -114 55h-94l-29 -207h137c5 0 8 -2 11 -6c3 -3 4 -8 3 -13l-2 -14
c-1 -5 -3 -10 -6 -13c-4 -3 -8 -5 -13 -5h-137z" />
    <glyph glyph-name="Ntilde" unicode="&#xd1;" horiz-adv-x="715" 
d="M317 789l-27 21c-7 7 -7 14 -2 23c4 8 8 15 13 23c5 6 11 15 20 26s19 19 31 26c12 6 25 9 38 9c8 0 16 -2 24 -5c7 -4 14 -9 20 -14l16 -16c5 -5 11 -10 17 -14s12 -6 17 -6c7 0 12 3 18 8c4 5 9 13 14 23c3 7 7 11 13 13c6 1 12 0 17 -3l23 -18c9 -7 10 -18 2 -33
c-3 -7 -7 -14 -11 -20c-6 -8 -12 -16 -20 -24c-8 -10 -18 -17 -29 -23s-23 -9 -36 -9c-11 0 -21 3 -31 9c-11 6 -19 12 -25 19s-13 13 -20 19s-14 9 -20 9c-2 0 -4 0 -6 -1s-4 -1 -6 -3c-2 0 -4 -2 -5 -2c-1 -2 -3 -3 -4 -6c-1 -2 -3 -4 -4 -4c-1 -2 -3 -3 -4 -6
s-2 -4 -3 -6c-1 0 -2 -2 -3 -6c-2 -2 -3 -4 -3 -5c-2 -4 -5 -7 -11 -7c-4 -2 -9 0 -13 3zM53 17l94 675c0 5 2 10 6 13s8 5 13 5h26l305 -432h1l54 403c1 5 3 10 6 13c4 4 8 6 13 6h97c4 0 8 -2 11 -6s5 -8 4 -13l-95 -673c0 -5 -2 -10 -6 -13s-8 -5 -13 -5h-27l-304 445h-1
l-54 -416c-1 -5 -3 -10 -7 -13c-4 -4 -8 -6 -13 -6h-96c-4 0 -7 2 -10 6c-3 3 -4 7 -4 11z" />
    <glyph glyph-name="Ograve" unicode="&#xd2;" horiz-adv-x="735" 
d="M50 300c0 56 10 109 29 160c19 50 45 93 78 130s72 66 119 88c47 21 96 32 148 32c53 0 101 -14 144 -43s77 -67 101 -114s36 -99 36 -156c0 -55 -10 -108 -29 -158s-46 -93 -78 -130c-34 -37 -73 -66 -120 -87s-96 -32 -147 -32c-40 0 -77 8 -113 25
c-34 17 -64 39 -89 67c-25 29 -44 62 -58 100c-14 37 -21 77 -21 118zM345 120c39 0 75 12 109 35c35 23 63 55 84 96s32 84 32 130c0 55 -15 101 -46 141c-30 38 -68 58 -115 58c-28 0 -56 -7 -83 -21c-28 -14 -52 -33 -72 -57c-21 -24 -37 -52 -50 -84
c-13 -33 -19 -66 -19 -101c0 -55 15 -101 45 -139c30 -39 68 -58 115 -58zM494 769l-150 77c-4 3 -6 6 -7 10c-1 5 1 10 5 17l29 43c4 7 9 10 15 11s10 0 12 -3l137 -97c3 -1 4 -4 5 -7c1 -4 0 -8 -2 -12l-20 -33c-7 -9 -15 -11 -24 -6z" />
    <glyph glyph-name="Oacute" unicode="&#xd3;" horiz-adv-x="735" 
d="M50 300c0 56 10 109 29 160c19 50 45 93 78 130s72 66 119 88c47 21 96 32 148 32c53 0 101 -14 144 -43s77 -67 101 -114s36 -99 36 -156c0 -55 -10 -108 -29 -158s-46 -93 -78 -130c-34 -37 -73 -66 -120 -87s-96 -32 -147 -32c-40 0 -77 8 -113 25
c-34 17 -64 39 -89 67c-25 29 -44 62 -58 100c-14 37 -21 77 -21 118zM345 120c39 0 75 12 109 35c35 23 63 55 84 96s32 84 32 130c0 55 -15 101 -46 141c-30 38 -68 58 -115 58c-28 0 -56 -7 -83 -21c-28 -14 -52 -33 -72 -57c-21 -24 -37 -52 -50 -84
c-13 -33 -19 -66 -19 -101c0 -55 15 -101 45 -139c30 -39 68 -58 115 -58zM366 768c-11 -5 -19 -3 -23 6l-16 39c-3 8 0 14 8 19l164 97c11 7 19 6 24 -5l24 -52c3 -6 3 -12 1 -16c-1 -6 -5 -9 -10 -11z" />
    <glyph glyph-name="Ocircumflex" unicode="&#xd4;" horiz-adv-x="735" 
d="M50 300c0 56 10 109 29 160c19 50 45 93 78 130s72 66 119 88c47 21 96 32 148 32c53 0 101 -14 144 -43s77 -67 101 -114s36 -99 36 -156c0 -55 -10 -108 -29 -158s-46 -93 -78 -130c-34 -37 -73 -66 -120 -87s-96 -32 -147 -32c-40 0 -77 8 -113 25
c-34 17 -64 39 -89 67c-25 29 -44 62 -58 100c-14 37 -21 77 -21 118zM345 120c39 0 75 12 109 35c35 23 63 55 84 96s32 84 32 130c0 55 -15 101 -46 141c-30 38 -68 58 -115 58c-28 0 -56 -7 -83 -21c-28 -14 -52 -33 -72 -57c-21 -24 -37 -52 -50 -84
c-13 -33 -19 -66 -19 -101c0 -55 15 -101 45 -139c30 -39 68 -58 115 -58zM315 768l-22 33c-6 9 -4 16 5 23l134 101c8 5 15 5 21 0l106 -101c7 -5 8 -12 3 -19l-29 -37c-7 -8 -13 -9 -20 -3l-78 62l-100 -62c-8 -5 -15 -4 -20 3z" />
    <glyph glyph-name="Otilde" unicode="&#xd5;" horiz-adv-x="735" 
d="M324 789l-27 21c-7 7 -7 14 -2 23c4 8 8 15 13 23c5 6 11 15 20 26s19 19 31 26c12 6 25 9 38 9c8 0 16 -2 23 -5c8 -4 15 -9 20 -14c6 -5 12 -11 17 -16s11 -10 17 -14s12 -6 17 -6c7 0 13 3 17 8c6 5 10 13 15 23c3 7 7 11 13 13c6 1 12 0 17 -3l23 -18
c9 -7 10 -18 2 -33c-3 -7 -6 -14 -12 -20c-4 -8 -11 -16 -19 -24c-8 -10 -18 -17 -29 -23s-23 -9 -36 -9c-11 0 -21 3 -32 9c-10 6 -18 12 -24 19s-13 13 -20 19s-14 9 -20 9c-2 0 -4 0 -6 -1s-4 -1 -6 -3c-2 0 -4 -2 -5 -2c-1 -2 -3 -3 -4 -6c-1 -2 -3 -4 -4 -4
c-1 -2 -3 -3 -4 -6s-2 -4 -3 -6c-1 0 -2 -2 -4 -6c-1 -2 -2 -4 -2 -5c-2 -4 -6 -7 -10 -7c-6 -2 -10 0 -14 3zM50 300c0 56 10 109 29 160c19 50 45 93 78 130s72 66 119 88c47 21 96 32 148 32c53 0 101 -14 144 -43s77 -67 101 -114s36 -99 36 -156
c0 -55 -10 -108 -29 -158s-46 -93 -78 -130c-34 -37 -73 -66 -120 -87s-96 -32 -147 -32c-40 0 -77 8 -113 25c-34 17 -64 39 -89 67c-25 29 -44 62 -58 100c-14 37 -21 77 -21 118zM345 120c39 0 75 12 109 35c35 23 63 55 84 96s32 84 32 130c0 55 -15 101 -46 141
c-30 38 -68 58 -115 58c-28 0 -56 -7 -83 -21c-28 -14 -52 -33 -72 -57c-21 -24 -37 -52 -50 -84c-13 -33 -19 -66 -19 -101c0 -55 15 -101 45 -139c30 -39 68 -58 115 -58z" />
    <glyph glyph-name="Odieresis" unicode="&#xd6;" horiz-adv-x="735" 
d="M492 839c2 17 9 32 22 45c13 12 27 18 43 18s29 -6 38 -18c9 -13 13 -28 11 -45c-3 -17 -10 -32 -23 -45s-27 -19 -43 -19s-29 6 -38 19c-9 12 -13 27 -10 45zM317 775c-15 0 -28 6 -37 19c-9 12 -13 27 -10 45c2 17 9 32 22 45c12 12 26 18 42 18s29 -6 38 -18
c10 -12 14 -27 12 -45c-3 -17 -10 -32 -24 -45c-12 -13 -27 -19 -43 -19zM50 300c0 56 10 109 29 160c19 50 45 93 78 130s72 66 119 88c47 21 96 32 148 32c53 0 101 -14 144 -43s77 -67 101 -114s36 -99 36 -156c0 -55 -10 -108 -29 -158s-46 -93 -78 -130
c-34 -37 -73 -66 -120 -87s-96 -32 -147 -32c-40 0 -77 8 -113 25c-34 17 -64 39 -89 67c-25 29 -44 62 -58 100c-14 37 -21 77 -21 118zM345 120c39 0 75 12 109 35c35 23 63 55 84 96s32 84 32 130c0 55 -15 101 -46 141c-30 38 -68 58 -115 58c-28 0 -56 -7 -83 -21
c-28 -14 -52 -33 -72 -57c-21 -24 -37 -52 -50 -84c-13 -33 -19 -66 -19 -101c0 -55 15 -101 45 -139c30 -39 68 -58 115 -58z" />
    <glyph glyph-name="multiply" unicode="&#xd7;" horiz-adv-x="437" 
d="M87 174l-37 42c-3 4 -4 8 -3 13s3 9 6 13l111 108l-78 105c-3 3 -4 8 -3 14s3 10 7 13l42 36c4 3 8 4 13 4c5 1 8 -1 11 -4l78 -105l111 109c9 8 17 8 24 -1l37 -42c3 -3 4 -7 4 -13c-1 -5 -3 -10 -7 -13l-111 -109l78 -105c3 -4 4 -9 3 -15c-1 -5 -3 -9 -7 -12l-43 -35
c-11 -8 -18 -8 -23 -1l-79 106l-111 -108c-4 -3 -8 -5 -12 -4c-5 0 -8 1 -11 4z" />
    <glyph glyph-name="Oslash" unicode="&#xd8;" horiz-adv-x="735" 
d="M26 23c-3 3 -4 7 -4 11c0 6 2 10 7 15l73 70c-35 53 -52 114 -52 181c0 56 10 109 29 160c19 50 45 93 78 130s72 66 119 88c47 21 96 32 148 32c39 0 75 -8 110 -24c35 -17 65 -39 91 -68l74 71c4 3 8 5 12 5c5 0 8 -2 11 -5l9 -10c7 -8 5 -17 -4 -26l-75 -72
c35 -56 53 -117 53 -184c0 -55 -10 -108 -29 -158s-46 -93 -78 -130c-34 -37 -73 -66 -120 -87s-96 -32 -147 -32c-40 0 -77 8 -111 24c-35 16 -65 38 -90 67l-72 -69c-4 -3 -8 -5 -12 -4c-4 0 -8 2 -11 5zM205 218l319 304c-31 39 -69 58 -115 58c-28 0 -56 -7 -83 -21
c-28 -14 -52 -33 -72 -57c-21 -24 -37 -52 -50 -84c-13 -33 -19 -66 -19 -101c0 -37 7 -70 20 -99zM230 177c31 -38 69 -57 115 -57c39 0 75 12 109 35c35 23 63 55 84 96s32 84 32 130c0 35 -7 68 -21 101z" />
    <glyph glyph-name="Ugrave" unicode="&#xd9;" horiz-adv-x="669" 
d="M79 265l59 416c0 5 2 10 6 13c5 4 9 6 14 6h99c5 0 9 -2 12 -6s4 -8 3 -13l-58 -409c-6 -43 0 -78 18 -107c19 -29 45 -43 80 -43s66 14 92 43c28 29 44 64 50 106l58 410c1 5 3 10 6 13c4 4 9 6 14 6h99c4 0 8 -2 11 -6s5 -8 4 -13l-59 -416c-7 -51 -23 -97 -49 -139
c-27 -41 -61 -74 -104 -99s-89 -37 -140 -37c-34 0 -66 7 -95 22s-53 34 -73 58c-18 25 -32 54 -42 88c-8 34 -10 70 -5 107zM467 769l-150 77c-4 3 -6 6 -7 10c-1 5 1 10 5 17l29 43c4 7 9 10 15 11s10 0 12 -3l137 -97c3 -1 4 -4 5 -7c1 -4 0 -8 -2 -12l-20 -33
c-7 -9 -15 -11 -24 -6z" />
    <glyph glyph-name="Uacute" unicode="&#xda;" horiz-adv-x="669" 
d="M79 265l59 416c0 5 2 10 6 13c5 4 9 6 14 6h99c5 0 9 -2 12 -6s4 -8 3 -13l-58 -409c-6 -43 0 -78 18 -107c19 -29 45 -43 80 -43s66 14 92 43c28 29 44 64 50 106l58 410c1 5 3 10 6 13c4 4 9 6 14 6h99c4 0 8 -2 11 -6s5 -8 4 -13l-59 -416c-7 -51 -23 -97 -49 -139
c-27 -41 -61 -74 -104 -99s-89 -37 -140 -37c-34 0 -66 7 -95 22s-53 34 -73 58c-18 25 -32 54 -42 88c-8 34 -10 70 -5 107zM340 768c-11 -5 -19 -3 -23 6l-16 39c-3 8 0 14 8 19l164 97c11 7 19 6 24 -5l24 -52c3 -6 3 -12 1 -16c-1 -6 -5 -9 -10 -11z" />
    <glyph glyph-name="Ucircumflex" unicode="&#xdb;" horiz-adv-x="669" 
d="M79 265l59 416c0 5 2 10 6 13c5 4 9 6 14 6h99c5 0 9 -2 12 -6s4 -8 3 -13l-58 -409c-6 -43 0 -78 18 -107c19 -29 45 -43 80 -43s66 14 92 43c28 29 44 64 50 106l58 410c1 5 3 10 6 13c4 4 9 6 14 6h99c4 0 8 -2 11 -6s5 -8 4 -13l-59 -416c-7 -51 -23 -97 -49 -139
c-27 -41 -61 -74 -104 -99s-89 -37 -140 -37c-34 0 -66 7 -95 22s-53 34 -73 58c-18 25 -32 54 -42 88c-8 34 -10 70 -5 107zM290 768l-22 33c-6 9 -4 16 5 23l134 101c8 5 15 5 21 0l106 -101c7 -5 8 -12 3 -19l-29 -37c-7 -8 -13 -9 -20 -3l-78 62l-100 -62
c-8 -5 -15 -4 -20 3z" />
    <glyph glyph-name="Udieresis" unicode="&#xdc;" horiz-adv-x="669" 
d="M465 839c2 17 9 32 22 45c13 12 27 18 43 18s29 -6 38 -18c9 -13 13 -28 11 -45c-3 -17 -10 -32 -23 -45s-27 -19 -43 -19s-29 6 -38 19c-9 12 -13 27 -10 45zM290 775c-15 0 -28 6 -37 19c-9 12 -13 27 -10 45c2 17 9 32 21 45c13 12 27 18 43 18s29 -6 39 -18
c9 -12 13 -27 11 -45c-3 -17 -11 -32 -23 -45c-14 -13 -28 -19 -44 -19zM79 265l59 416c0 5 2 10 6 13c5 4 9 6 14 6h99c5 0 9 -2 12 -6s4 -8 3 -13l-58 -409c-6 -43 0 -78 18 -107c19 -29 45 -43 80 -43s66 14 92 43c28 29 44 64 50 106l58 410c1 5 3 10 6 13c4 4 9 6 14 6
h99c4 0 8 -2 11 -6s5 -8 4 -13l-59 -416c-7 -51 -23 -97 -49 -139c-27 -41 -61 -74 -104 -99s-89 -37 -140 -37c-34 0 -66 7 -95 22s-53 34 -73 58c-18 25 -32 54 -42 88c-8 34 -10 70 -5 107z" />
    <glyph glyph-name="Yacute" unicode="&#xdd;" horiz-adv-x="532" 
d="M265 768c-11 -5 -19 -3 -23 6l-16 39c-3 8 0 14 8 19l164 97c11 7 19 6 24 -5l24 -52c3 -6 3 -12 2 -16c-2 -6 -6 -9 -11 -11zM162 19l45 318l-156 339c-3 7 -2 12 1 17c4 5 9 7 16 7h94c9 0 16 -5 19 -14l105 -230l168 235c4 6 9 9 16 9h110c7 0 12 -3 14 -8
c1 -5 0 -11 -5 -18l-252 -336l-44 -319c0 -5 -2 -10 -7 -13c-4 -4 -8 -6 -13 -6h-97c-5 0 -8 2 -11 6c-3 3 -4 8 -3 13z" />
    <glyph glyph-name="Thorn" unicode="&#xde;" horiz-adv-x="546" 
d="M53 19l93 662c1 5 3 10 6 13c4 4 9 6 14 6h96c4 0 8 -2 10 -6c4 -4 5 -8 4 -13l-15 -108h101c49 0 90 -19 124 -57c32 -38 49 -83 49 -136c0 -45 -11 -87 -31 -126c-22 -39 -50 -70 -86 -92c-36 -24 -75 -35 -118 -35h-102l-15 -108c0 -5 -2 -10 -7 -13
c-4 -4 -8 -6 -13 -6h-96c-5 0 -9 2 -12 6c-3 3 -3 8 -2 13zM215 249h94c25 0 48 12 67 35s29 51 29 83c0 24 -7 44 -19 59c-14 16 -30 24 -49 24h-93z" />
    <glyph glyph-name="germandbls" unicode="&#xdf;" horiz-adv-x="485" 
d="M222 10l1 69c0 13 8 19 24 19c17 0 31 5 43 14c10 10 16 25 16 45c0 15 -5 33 -16 52l-30 59c-11 19 -16 37 -16 52c0 17 5 38 15 61s21 44 33 63c12 18 23 38 32 60c10 21 15 39 15 54c0 29 -12 44 -37 44c-49 0 -83 -64 -101 -192l-96 -691c0 -5 -2 -10 -7 -13
c-4 -4 -8 -6 -13 -6h-90c-9 0 -14 6 -14 19l96 693c28 199 111 298 250 298c35 0 68 -12 97 -36c29 -25 44 -56 44 -93c0 -23 -3 -45 -10 -67c-7 -21 -15 -40 -24 -56c-9 -15 -19 -30 -28 -44c-9 -13 -17 -26 -24 -40c-6 -12 -9 -24 -9 -34c0 -8 3 -19 10 -34
c7 -14 14 -28 22 -42c8 -13 15 -30 22 -50s10 -39 10 -57c0 -28 -5 -53 -16 -75c-11 -23 -25 -40 -43 -53c-17 -13 -36 -22 -56 -29s-41 -10 -63 -10h-13c-2 1 -6 2 -10 2c-5 2 -8 4 -10 6c-3 4 -4 7 -4 12z" />
    <glyph glyph-name="agrave" unicode="&#xe0;" horiz-adv-x="474" 
d="M278 163l12 83c-2 12 -9 24 -20 37s-26 19 -45 19c-25 0 -47 -12 -65 -35c-20 -23 -29 -54 -29 -91c0 -22 6 -40 18 -56c12 -14 28 -22 48 -22c19 0 36 8 51 22c15 16 25 30 30 43zM426 381l-50 -362c0 -5 -2 -10 -6 -13c-5 -4 -9 -6 -14 -6h-39c-8 0 -13 6 -16 17l-6 30
c-6 -5 -10 -9 -13 -11c-3 -3 -9 -8 -18 -14c-9 -8 -18 -13 -26 -16c-9 -4 -20 -8 -32 -11c-14 -3 -27 -5 -40 -5c-41 0 -76 18 -104 54c-29 35 -43 79 -43 130c0 65 20 121 59 167c40 46 89 69 147 69c25 0 48 -6 67 -18c20 -12 35 -24 45 -37l18 32c5 9 11 13 18 13h39
c5 0 8 -2 12 -6c2 -3 3 -8 2 -13zM321 531l-150 77c-4 3 -6 6 -7 10c-1 5 1 10 5 17l29 43c4 7 9 10 15 11s10 0 12 -3l137 -97c3 -1 4 -4 5 -7c1 -4 0 -8 -2 -12l-20 -33c-7 -9 -15 -11 -24 -6z" />
    <glyph glyph-name="aacute" unicode="&#xe1;" horiz-adv-x="474" 
d="M278 163l12 83c-2 12 -9 24 -20 37s-26 19 -45 19c-25 0 -47 -12 -65 -35c-20 -23 -29 -54 -29 -91c0 -22 6 -40 18 -56c12 -14 28 -22 48 -22c19 0 36 8 51 22c15 16 25 30 30 43zM426 381l-50 -362c0 -5 -2 -10 -6 -13c-5 -4 -9 -6 -14 -6h-39c-8 0 -13 6 -16 17l-6 30
c-6 -5 -10 -9 -13 -11c-3 -3 -9 -8 -18 -14c-9 -8 -18 -13 -26 -16c-9 -4 -20 -8 -32 -11c-14 -3 -27 -5 -40 -5c-41 0 -76 18 -104 54c-29 35 -43 79 -43 130c0 65 20 121 59 167c40 46 89 69 147 69c25 0 48 -6 67 -18c20 -12 35 -24 45 -37l18 32c5 9 11 13 18 13h39
c5 0 8 -2 12 -6c2 -3 3 -8 2 -13zM192 528c-11 -5 -19 -3 -23 6l-16 39c-3 8 0 14 8 19l164 97c11 7 19 6 24 -5l24 -52c3 -6 3 -12 1 -16c-1 -6 -5 -9 -10 -11z" />
    <glyph glyph-name="acircumflex" unicode="&#xe2;" horiz-adv-x="474" 
d="M278 163l12 83c-2 12 -9 24 -20 37s-26 19 -45 19c-25 0 -47 -12 -65 -35c-20 -23 -29 -54 -29 -91c0 -22 6 -40 18 -56c12 -14 28 -22 48 -22c19 0 36 8 51 22c15 16 25 30 30 43zM426 381l-50 -362c0 -5 -2 -10 -6 -13c-5 -4 -9 -6 -14 -6h-39c-8 0 -13 6 -16 17l-6 30
c-6 -5 -10 -9 -13 -11c-3 -3 -9 -8 -18 -14c-9 -8 -18 -13 -26 -16c-9 -4 -20 -8 -32 -11c-14 -3 -27 -5 -40 -5c-41 0 -76 18 -104 54c-29 35 -43 79 -43 130c0 65 20 121 59 167c40 46 89 69 147 69c25 0 48 -6 67 -18c20 -12 35 -24 45 -37l18 32c5 9 11 13 18 13h39
c5 0 8 -2 12 -6c2 -3 3 -8 2 -13zM141 529l-22 33c-6 9 -4 16 5 23l134 101c8 5 15 5 21 0l106 -101c7 -5 8 -12 3 -19l-29 -37c-7 -8 -13 -9 -20 -3l-78 62l-100 -62c-8 -5 -15 -4 -20 3z" />
    <glyph glyph-name="atilde" unicode="&#xe3;" horiz-adv-x="474" 
d="M278 163l12 83c-2 12 -9 24 -20 37s-26 19 -45 19c-25 0 -47 -12 -65 -35c-20 -23 -29 -54 -29 -91c0 -22 6 -40 18 -56c12 -14 28 -22 48 -22c19 0 36 8 51 22c15 16 25 30 30 43zM426 381l-50 -362c0 -5 -2 -10 -6 -13c-5 -4 -9 -6 -14 -6h-39c-8 0 -13 6 -16 17l-6 30
c-6 -5 -10 -9 -13 -11c-3 -3 -9 -8 -18 -14c-9 -8 -18 -13 -26 -16c-9 -4 -20 -8 -32 -11c-14 -3 -27 -5 -40 -5c-41 0 -76 18 -104 54c-29 35 -43 79 -43 130c0 65 20 121 59 167c40 46 89 69 147 69c25 0 48 -6 67 -18c20 -12 35 -24 45 -37l18 32c5 9 11 13 18 13h39
c5 0 8 -2 12 -6c2 -3 3 -8 2 -13zM152 562l-27 21c-7 7 -7 14 -2 23c4 8 8 16 13 22c5 8 11 16 20 26c9 11 19 19 31 26s25 10 38 10c8 0 16 -2 23 -6c8 -4 15 -9 20 -14c6 -5 12 -11 16 -16c6 -5 11 -10 17 -14c6 -3 12 -5 18 -5c7 0 13 3 17 9c6 5 10 13 15 22
c3 7 7 11 13 13c5 2 11 1 17 -3l23 -18c9 -7 10 -18 2 -33c-3 -7 -6 -13 -12 -21c-4 -6 -11 -15 -19 -24s-18 -17 -29 -22c-12 -6 -24 -9 -36 -9c-11 0 -21 3 -31 9c-10 5 -18 12 -25 19s-14 14 -21 19c-7 6 -14 9 -19 9c-2 0 -4 0 -6 -1c-2 0 -4 -1 -6 -2
c-1 -1 -3 -2 -4 -4c-1 0 -3 -2 -5 -4c-2 -3 -3 -4 -4 -6l-4 -6c-2 -2 -3 -4 -3 -5c-1 -1 -2 -3 -4 -6l-2 -5c-2 -4 -6 -6 -10 -8c-6 0 -10 1 -14 4z" />
    <glyph glyph-name="adieresis" unicode="&#xe4;" horiz-adv-x="474" 
d="M278 163l12 83c-2 12 -9 24 -20 37s-26 19 -45 19c-25 0 -47 -12 -65 -35c-20 -23 -29 -54 -29 -91c0 -22 6 -40 18 -56c12 -14 28 -22 48 -22c19 0 36 8 51 22c15 16 25 30 30 43zM426 381l-50 -362c0 -5 -2 -10 -6 -13c-5 -4 -9 -6 -14 -6h-39c-8 0 -13 6 -16 17l-6 30
c-6 -5 -10 -9 -13 -11c-3 -3 -9 -8 -18 -14c-9 -8 -18 -13 -26 -16c-9 -4 -20 -8 -32 -11c-14 -3 -27 -5 -40 -5c-41 0 -76 18 -104 54c-29 35 -43 79 -43 130c0 65 20 121 59 167c40 46 89 69 147 69c25 0 48 -6 67 -18c20 -12 35 -24 45 -37l18 32c5 9 11 13 18 13h39
c5 0 8 -2 12 -6c2 -3 3 -8 2 -13zM117 615c2 17 10 32 22 45c14 12 28 18 43 18c16 0 29 -6 39 -18c9 -12 13 -27 11 -45c-3 -17 -11 -32 -23 -45c-14 -13 -28 -19 -44 -19s-29 6 -38 19s-13 28 -10 45zM298 615c2 17 9 32 22 45c13 12 27 18 43 18s29 -6 38 -18
c10 -13 14 -28 12 -45c-3 -17 -10 -32 -24 -45c-12 -13 -27 -19 -43 -19s-29 6 -38 19c-9 12 -13 27 -10 45z" />
    <glyph glyph-name="aring" unicode="&#xe5;" horiz-adv-x="474" 
d="M278 163l12 83c-2 12 -9 24 -20 37s-26 19 -45 19c-25 0 -47 -12 -65 -35c-20 -23 -29 -54 -29 -91c0 -22 6 -40 18 -56c12 -14 28 -22 48 -22c19 0 36 8 51 22c15 16 25 30 30 43zM426 381l-50 -362c0 -5 -2 -10 -6 -13c-5 -4 -9 -6 -14 -6h-39c-8 0 -13 6 -16 17l-6 30
c-6 -5 -10 -9 -13 -11c-3 -3 -9 -8 -18 -14c-9 -8 -18 -13 -26 -16c-9 -4 -20 -8 -32 -11c-14 -3 -27 -5 -40 -5c-41 0 -76 18 -104 54c-29 35 -43 79 -43 130c0 65 20 121 59 167c40 46 89 69 147 69c25 0 48 -6 67 -18c20 -12 35 -24 45 -37l18 32c5 9 11 13 18 13h39
c5 0 8 -2 12 -6c2 -3 3 -8 2 -13zM247 484c-25 0 -47 10 -63 28c-18 20 -26 43 -26 70c0 36 12 66 35 91s52 37 85 37c25 0 46 -10 63 -28c17 -20 25 -43 25 -70c0 -35 -12 -66 -35 -90c-23 -26 -51 -38 -84 -38zM255 547c12 0 23 6 33 17c10 12 15 25 15 39
c0 12 -3 22 -9 30c-7 8 -15 12 -25 12c-12 0 -23 -5 -33 -17c-10 -10 -15 -23 -15 -37c0 -12 3 -22 10 -31s15 -13 24 -13z" />
    <glyph glyph-name="ae" unicode="&#xe6;" horiz-adv-x="599" 
d="M2 105c0 43 15 79 44 107c30 27 69 41 118 41c10 0 20 -1 30 -2c11 -1 19 -3 25 -4l8 -2c3 27 1 45 -3 57c-6 10 -17 16 -36 16c-23 0 -55 -5 -96 -16c-5 -1 -9 0 -12 4c-4 2 -6 7 -6 12l-2 54c0 5 2 9 6 12c3 4 7 7 12 8c47 12 88 18 123 18c47 0 81 -16 102 -49
c13 15 33 27 57 35c26 10 51 14 77 14c39 0 70 -10 93 -30s35 -45 35 -76c0 -24 -8 -45 -25 -64c-16 -19 -37 -33 -63 -43s-53 -17 -80 -22s-55 -7 -83 -8c-1 -21 3 -39 14 -53c11 -13 28 -20 52 -20c11 0 24 2 38 7c13 5 24 10 33 17c11 7 18 7 23 0l33 -47
c7 -9 6 -18 -3 -26c-40 -37 -88 -55 -143 -55c-51 0 -91 22 -121 65h-1c-29 -43 -75 -65 -136 -65c-33 0 -61 10 -81 32c-22 21 -32 48 -32 83zM343 245c29 1 57 5 83 13c27 8 40 19 40 34c0 7 -3 13 -9 18s-14 7 -25 7c-19 0 -37 -7 -54 -22s-29 -31 -35 -50zM106 121
c0 -13 4 -24 14 -33c8 -8 19 -12 31 -12c13 0 25 3 33 9c10 6 16 15 20 25c5 12 8 22 10 32c1 9 3 21 4 34c-19 5 -35 7 -50 7s-30 -6 -42 -17c-14 -12 -20 -27 -20 -45z" />
    <glyph glyph-name="ccedilla" unicode="&#xe7;" horiz-adv-x="396" 
d="M136 -1c-35 11 -64 32 -85 65c-21 32 -32 69 -32 112c0 33 6 65 17 94c12 29 28 54 47 74c19 21 42 37 67 48c26 12 53 18 82 18s56 -7 80 -20s43 -30 56 -51c5 -9 3 -18 -8 -28l-40 -37c-5 -4 -10 -6 -14 -5s-8 3 -11 6l-3 3l-4 4c-1 0 -2 1 -4 3c-3 2 -4 3 -6 4
c0 1 -2 2 -4 3c-3 1 -5 2 -7 3s-4 2 -7 3s-5 2 -8 2c-2 1 -4 1 -8 2h-9c-25 0 -48 -11 -67 -34c-20 -23 -30 -51 -30 -84c0 -24 6 -44 18 -61s27 -25 46 -25c24 0 48 13 71 38c8 9 16 10 25 1l39 -38c9 -9 10 -19 3 -28c-40 -51 -88 -78 -143 -81l-6 -44
c22 -3 39 -12 53 -28c12 -16 19 -37 19 -62c0 -32 -10 -59 -29 -82c-20 -23 -46 -34 -77 -34c-15 0 -28 3 -41 10s-22 15 -28 25c-7 9 -4 19 7 28l18 17c7 7 13 6 19 -1c7 -8 15 -12 26 -12c9 0 18 4 24 13c8 8 11 18 11 31c0 25 -19 39 -57 42c-5 1 -9 4 -11 7
c-2 4 -3 8 -2 11z" />
    <glyph glyph-name="egrave" unicode="&#xe8;" horiz-adv-x="402" 
d="M17 168c0 31 6 61 17 90c12 29 28 55 48 78s45 41 74 54c30 13 62 20 96 20c39 0 70 -10 93 -30s35 -45 35 -76c0 -24 -8 -45 -24 -64s-37 -33 -64 -43c-26 -10 -53 -17 -80 -22c-28 -5 -56 -7 -83 -8c-1 -21 3 -39 14 -53c11 -13 28 -20 52 -20c11 0 24 2 37 7
s25 10 34 17c11 7 18 7 23 0l33 -47c7 -9 6 -18 -3 -26c-40 -37 -88 -55 -143 -55c-47 0 -85 17 -114 52c-30 35 -45 77 -45 126zM144 245c29 1 57 5 84 13c26 8 39 19 39 34c0 7 -3 13 -9 18c-5 5 -14 7 -25 7c-19 0 -37 -7 -54 -22s-29 -31 -35 -50zM331 531l-150 77
c-4 3 -6 6 -7 10c-1 5 1 10 5 17l29 43c4 7 9 10 15 11s10 0 12 -3l137 -97c3 -1 4 -4 5 -7c1 -4 0 -8 -2 -12l-20 -33c-7 -9 -15 -11 -24 -6z" />
    <glyph glyph-name="eacute" unicode="&#xe9;" horiz-adv-x="402" 
d="M17 168c0 31 6 61 17 90c12 29 28 55 48 78s45 41 74 54c30 13 62 20 96 20c39 0 70 -10 93 -30s35 -45 35 -76c0 -24 -8 -45 -24 -64s-37 -33 -64 -43c-26 -10 -53 -17 -80 -22c-28 -5 -56 -7 -83 -8c-1 -21 3 -39 14 -53c11 -13 28 -20 52 -20c11 0 24 2 37 7
s25 10 34 17c11 7 18 7 23 0l33 -47c7 -9 6 -18 -3 -26c-40 -37 -88 -55 -143 -55c-47 0 -85 17 -114 52c-30 35 -45 77 -45 126zM144 245c29 1 57 5 84 13c26 8 39 19 39 34c0 7 -3 13 -9 18c-5 5 -14 7 -25 7c-19 0 -37 -7 -54 -22s-29 -31 -35 -50zM202 528
c-11 -5 -19 -3 -23 6l-16 39c-3 8 0 14 8 19l164 97c11 7 19 6 24 -5l24 -52c3 -6 3 -12 1 -16c-1 -6 -5 -9 -10 -11z" />
    <glyph glyph-name="ecircumflex" unicode="&#xea;" horiz-adv-x="402" 
d="M17 168c0 31 6 61 17 90c12 29 28 55 48 78s45 41 74 54c30 13 62 20 96 20c39 0 70 -10 93 -30s35 -45 35 -76c0 -24 -8 -45 -24 -64s-37 -33 -64 -43c-26 -10 -53 -17 -80 -22c-28 -5 -56 -7 -83 -8c-1 -21 3 -39 14 -53c11 -13 28 -20 52 -20c11 0 24 2 37 7
s25 10 34 17c11 7 18 7 23 0l33 -47c7 -9 6 -18 -3 -26c-40 -37 -88 -55 -143 -55c-47 0 -85 17 -114 52c-30 35 -45 77 -45 126zM144 245c29 1 57 5 84 13c26 8 39 19 39 34c0 7 -3 13 -9 18c-5 5 -14 7 -25 7c-19 0 -37 -7 -54 -22s-29 -31 -35 -50zM151 529l-22 33
c-6 9 -4 16 5 23l134 101c8 5 15 5 21 0l106 -101c7 -5 8 -12 3 -19l-29 -37c-7 -8 -13 -9 -20 -3l-78 62l-100 -62c-8 -5 -15 -4 -20 3z" />
    <glyph glyph-name="edieresis" unicode="&#xeb;" horiz-adv-x="402" 
d="M17 168c0 31 6 61 17 90c12 29 28 55 48 78s45 41 74 54c30 13 62 20 96 20c39 0 70 -10 93 -30s35 -45 35 -76c0 -24 -8 -45 -24 -64s-37 -33 -64 -43c-26 -10 -53 -17 -80 -22c-28 -5 -56 -7 -83 -8c-1 -21 3 -39 14 -53c11 -13 28 -20 52 -20c11 0 24 2 37 7
s25 10 34 17c11 7 18 7 23 0l33 -47c7 -9 6 -18 -3 -26c-40 -37 -88 -55 -143 -55c-47 0 -85 17 -114 52c-30 35 -45 77 -45 126zM144 245c29 1 57 5 84 13c26 8 39 19 39 34c0 7 -3 13 -9 18c-5 5 -14 7 -25 7c-19 0 -37 -7 -54 -22s-29 -31 -35 -50zM127 615
c2 17 10 32 22 45c14 12 28 18 43 18c16 0 29 -6 39 -18c9 -12 13 -27 11 -45c-3 -17 -11 -32 -23 -45c-14 -13 -28 -19 -44 -19s-29 6 -38 19s-13 28 -10 45zM308 615c2 17 9 32 22 45c13 12 27 18 43 18s29 -6 38 -18c10 -13 14 -28 12 -45c-3 -17 -10 -32 -24 -45
c-12 -13 -27 -19 -43 -19s-29 6 -38 19c-9 12 -13 27 -10 45z" />
    <glyph glyph-name="igrave" unicode="&#xec;" horiz-adv-x="239" 
d="M22 19l51 362c1 5 4 10 7 13c4 4 8 6 13 6h88c5 0 8 -2 11 -6c3 -3 4 -8 4 -13l-51 -362c0 -5 -2 -10 -7 -13c-4 -4 -8 -6 -13 -6h-88c-4 0 -8 2 -11 6c-3 3 -5 8 -4 13zM222 531l-150 77c-4 3 -6 6 -7 10c-1 5 1 10 5 17l29 43c4 7 9 10 15 11s10 0 12 -3l137 -97
c3 -1 4 -4 5 -7c1 -4 0 -8 -2 -12l-20 -33c-7 -9 -15 -11 -24 -6z" />
    <glyph glyph-name="iacute" unicode="&#xed;" horiz-adv-x="239" 
d="M22 19l51 362c1 5 4 10 7 13c4 4 8 6 13 6h88c5 0 8 -2 11 -6c3 -3 4 -8 4 -13l-51 -362c0 -5 -2 -10 -7 -13c-4 -4 -8 -6 -13 -6h-88c-4 0 -8 2 -11 6c-3 3 -5 8 -4 13zM93 528c-11 -5 -19 -3 -23 6l-16 39c-3 8 0 14 8 19l164 97c11 7 19 6 24 -5l24 -52
c3 -6 3 -12 1 -16c-1 -6 -5 -9 -10 -11z" />
    <glyph glyph-name="icircumflex" unicode="&#xee;" horiz-adv-x="239" 
d="M43 529l-22 33c-6 9 -4 16 5 23l134 101c8 5 15 5 21 0l106 -101c7 -5 8 -12 3 -19l-29 -37c-7 -8 -13 -9 -20 -3l-78 62l-100 -62c-8 -5 -15 -4 -20 3zM22 19l51 362c1 5 4 10 7 13c4 4 8 6 13 6h88c5 0 8 -2 11 -6c3 -3 4 -8 4 -13l-51 -362c0 -5 -2 -10 -7 -13
c-4 -4 -8 -6 -13 -6h-88c-4 0 -8 2 -11 6c-3 3 -5 8 -4 13z" />
    <glyph glyph-name="idieresis" unicode="&#xef;" horiz-adv-x="239" 
d="M22 19l51 362c1 5 4 10 7 13c4 4 8 6 13 6h88c5 0 8 -2 11 -6c3 -3 4 -8 4 -13l-51 -362c0 -5 -2 -10 -7 -13c-4 -4 -8 -6 -13 -6h-88c-4 0 -8 2 -11 6c-3 3 -5 8 -4 13zM19 615c2 17 9 32 23 45c13 12 27 18 42 18c16 0 29 -6 38 -18c10 -12 14 -27 12 -45
c-3 -17 -10 -32 -24 -45c-12 -13 -27 -19 -43 -19s-29 6 -38 19s-13 28 -10 45zM200 615c2 17 9 32 22 45c13 12 27 18 43 18s29 -6 39 -18c9 -13 13 -28 11 -45c-3 -17 -11 -32 -23 -45c-14 -13 -28 -19 -44 -19s-29 6 -38 19c-9 12 -13 27 -10 45z" />
    <glyph glyph-name="eth" unicode="&#xf0;" horiz-adv-x="492" 
d="M21 191c0 39 6 74 17 105c12 32 28 58 48 78c21 20 44 35 69 46s52 16 80 16c29 0 58 -9 89 -28c-4 51 -26 95 -66 134l-79 -49c-5 -3 -9 -3 -13 -2s-7 4 -9 8l-5 13c-4 10 -1 18 9 25l54 36c-4 3 -9 7 -14 10s-10 6 -14 8s-9 4 -15 7c-5 3 -8 4 -9 5
c-13 5 -17 15 -10 29l29 56c7 15 18 20 33 14c32 -13 68 -37 108 -71l69 40c8 5 15 2 22 -8l6 -11c3 -4 3 -9 1 -14s-5 -9 -10 -12l-51 -30c28 -31 51 -69 69 -116s27 -98 27 -153c0 -47 -6 -90 -16 -131c-12 -40 -28 -75 -48 -106c-22 -31 -49 -55 -82 -73
s-71 -27 -113 -27c-47 0 -88 20 -123 60c-35 39 -53 86 -53 141zM214 104c21 0 41 8 58 25s31 36 40 58s15 44 17 67c-1 19 -9 37 -24 56s-34 28 -58 28c-29 0 -55 -13 -77 -40c-23 -27 -34 -58 -34 -94c0 -28 7 -52 22 -71s33 -29 56 -29z" />
    <glyph glyph-name="ntilde" unicode="&#xf1;" horiz-adv-x="486" 
d="M22 19l51 362c0 5 2 10 6 13c4 4 8 6 13 6h39c3 0 5 -1 9 -4c2 -2 4 -5 5 -8l9 -37c44 39 89 59 135 59c35 0 65 -10 87 -28c24 -20 39 -44 46 -74c8 -29 10 -62 5 -97l-27 -192c-1 -5 -3 -10 -6 -13c-4 -4 -8 -6 -13 -6h-87c-5 0 -8 2 -11 6c-3 3 -4 8 -3 13l29 198
c4 27 1 47 -7 63c-10 14 -24 22 -44 22c-9 0 -19 -2 -28 -6c-10 -4 -18 -9 -25 -14s-13 -11 -17 -16c-6 -5 -9 -10 -12 -14l-4 -6l-32 -227c-1 -7 -3 -12 -6 -15c-3 -2 -8 -4 -15 -4h-83c-5 0 -8 2 -12 6c-2 3 -3 8 -2 13zM186 562l-27 21c-7 7 -7 14 -2 23c4 8 8 16 13 22
c5 8 11 16 20 26c9 11 19 19 31 26s25 10 38 10c8 0 16 -2 23 -6c8 -4 15 -9 20 -14c6 -5 12 -11 16 -16c6 -5 11 -10 17 -14c6 -3 12 -5 18 -5c7 0 13 3 17 9c6 5 10 13 15 22c3 7 7 11 13 13c5 2 11 1 17 -3l23 -18c9 -7 10 -18 2 -33c-3 -7 -6 -13 -12 -21
c-4 -6 -11 -15 -19 -24s-18 -17 -29 -22c-12 -6 -24 -9 -36 -9c-11 0 -21 3 -31 9c-10 5 -18 12 -25 19s-14 14 -21 19c-7 6 -14 9 -19 9c-2 0 -4 0 -6 -1c-2 0 -4 -1 -6 -2c-1 -1 -3 -2 -4 -4c-1 0 -3 -2 -5 -4c-2 -3 -3 -4 -4 -6l-4 -6c-2 -2 -3 -4 -3 -5
c-1 -1 -2 -3 -4 -6l-2 -5c-2 -4 -6 -6 -10 -8c-6 0 -10 1 -14 4z" />
    <glyph glyph-name="ograve" unicode="&#xf2;" horiz-adv-x="435" 
d="M18 173c0 42 10 81 29 118s46 66 79 87c34 21 71 32 110 32c45 0 83 -18 114 -54c30 -35 45 -78 45 -128c0 -43 -10 -82 -29 -119c-20 -37 -47 -66 -80 -87c-34 -21 -70 -32 -109 -32c-45 0 -83 18 -113 54c-31 37 -46 80 -46 129zM192 98c24 0 45 12 64 35s28 51 28 84
c0 24 -6 44 -18 61c-11 16 -26 24 -45 24c-25 0 -46 -12 -65 -35s-28 -51 -28 -82c0 -25 6 -45 18 -62s27 -25 46 -25zM318 531l-150 77c-4 3 -6 6 -7 10c-1 5 1 10 5 17l29 43c4 7 9 10 15 11s10 0 12 -3l137 -97c3 -1 4 -4 5 -7c1 -4 0 -8 -2 -12l-20 -33
c-7 -9 -15 -11 -24 -6z" />
    <glyph glyph-name="oacute" unicode="&#xf3;" horiz-adv-x="435" 
d="M18 173c0 42 10 81 29 118s46 66 79 87c34 21 71 32 110 32c45 0 83 -18 114 -54c30 -35 45 -78 45 -128c0 -43 -10 -82 -29 -119c-20 -37 -47 -66 -80 -87c-34 -21 -70 -32 -109 -32c-45 0 -83 18 -113 54c-31 37 -46 80 -46 129zM192 98c24 0 45 12 64 35s28 51 28 84
c0 24 -6 44 -18 61c-11 16 -26 24 -45 24c-25 0 -46 -12 -65 -35s-28 -51 -28 -82c0 -25 6 -45 18 -62s27 -25 46 -25zM190 528c-11 -5 -19 -3 -23 6l-16 39c-3 8 0 14 8 19l164 97c11 7 19 6 24 -5l24 -52c3 -6 3 -12 1 -16c-1 -6 -5 -9 -10 -11z" />
    <glyph glyph-name="ocircumflex" unicode="&#xf4;" horiz-adv-x="435" 
d="M18 173c0 42 10 81 29 118s46 66 79 87c34 21 71 32 110 32c45 0 83 -18 114 -54c30 -35 45 -78 45 -128c0 -43 -10 -82 -29 -119c-20 -37 -47 -66 -80 -87c-34 -21 -70 -32 -109 -32c-45 0 -83 18 -113 54c-31 37 -46 80 -46 129zM192 98c24 0 45 12 64 35s28 51 28 84
c0 24 -6 44 -18 61c-11 16 -26 24 -45 24c-25 0 -46 -12 -65 -35s-28 -51 -28 -82c0 -25 6 -45 18 -62s27 -25 46 -25zM139 529l-22 33c-6 9 -4 16 5 23l134 101c8 5 15 5 21 0l106 -101c7 -5 8 -12 3 -19l-29 -37c-7 -8 -13 -9 -20 -3l-78 62l-100 -62c-8 -5 -15 -4 -20 3z
" />
    <glyph glyph-name="otilde" unicode="&#xf5;" horiz-adv-x="435" 
d="M18 173c0 42 10 81 29 118s46 66 79 87c34 21 71 32 110 32c45 0 83 -18 114 -54c30 -35 45 -78 45 -128c0 -43 -10 -82 -29 -119c-20 -37 -47 -66 -80 -87c-34 -21 -70 -32 -109 -32c-45 0 -83 18 -113 54c-31 37 -46 80 -46 129zM192 98c24 0 45 12 64 35s28 51 28 84
c0 24 -6 44 -18 61c-11 16 -26 24 -45 24c-25 0 -46 -12 -65 -35s-28 -51 -28 -82c0 -25 6 -45 18 -62s27 -25 46 -25zM150 562l-27 21c-7 7 -7 14 -2 23c4 8 8 16 13 22c5 8 11 16 20 26c9 11 19 19 31 26s25 10 38 10c8 0 16 -2 23 -6c8 -4 15 -9 20 -14
c6 -5 12 -11 16 -16c6 -5 11 -10 17 -14c6 -3 12 -5 18 -5c7 0 13 3 17 9c6 5 10 13 15 22c3 7 7 11 13 13c5 2 11 1 17 -3l23 -18c9 -7 10 -18 2 -33c-3 -7 -6 -13 -12 -21c-4 -6 -11 -15 -19 -24s-18 -17 -29 -22c-12 -6 -24 -9 -36 -9c-11 0 -21 3 -31 9
c-10 5 -18 12 -25 19s-14 14 -21 19c-7 6 -14 9 -19 9c-2 0 -4 0 -6 -1c-2 0 -4 -1 -6 -2c-1 -1 -3 -2 -4 -4c-1 0 -3 -2 -5 -4c-2 -3 -3 -4 -4 -6l-4 -6c-2 -2 -3 -4 -3 -5c-1 -1 -2 -3 -4 -6l-2 -5c-2 -4 -6 -6 -10 -8c-6 0 -10 1 -14 4z" />
    <glyph glyph-name="odieresis" unicode="&#xf6;" horiz-adv-x="435" 
d="M18 173c0 42 10 81 29 118s46 66 79 87c34 21 71 32 110 32c45 0 83 -18 114 -54c30 -35 45 -78 45 -128c0 -43 -10 -82 -29 -119c-20 -37 -47 -66 -80 -87c-34 -21 -70 -32 -109 -32c-45 0 -83 18 -113 54c-31 37 -46 80 -46 129zM192 98c24 0 45 12 64 35s28 51 28 84
c0 24 -6 44 -18 61c-11 16 -26 24 -45 24c-25 0 -46 -12 -65 -35s-28 -51 -28 -82c0 -25 6 -45 18 -62s27 -25 46 -25zM116 615c2 17 10 32 22 45c14 12 28 18 43 18c16 0 29 -6 39 -18c9 -12 13 -27 11 -45c-3 -17 -11 -32 -23 -45c-14 -13 -28 -19 -44 -19s-29 6 -38 19
s-13 28 -10 45zM297 615c2 17 9 32 22 45c13 12 27 18 43 18s29 -6 38 -18c10 -13 14 -28 12 -45c-3 -17 -10 -32 -24 -45c-12 -13 -27 -19 -43 -19s-29 6 -38 19c-9 12 -13 27 -10 45z" />
    <glyph glyph-name="divide" unicode="&#xf7;" horiz-adv-x="465" 
d="M257 471c-16 0 -29 6 -39 18c-11 12 -16 26 -16 43c0 21 8 39 23 54s33 23 52 23c16 0 29 -6 40 -17c11 -12 16 -26 16 -43c0 -21 -8 -39 -23 -55c-15 -15 -33 -23 -53 -23zM148 151c0 21 7 39 22 55c15 14 32 22 52 22c16 0 30 -6 40 -17c12 -11 17 -25 17 -42
c0 -21 -8 -40 -23 -55s-33 -23 -53 -23c-16 0 -29 6 -39 17c-11 12 -16 26 -16 43zM57 299c-4 0 -7 2 -11 6c-2 4 -4 8 -3 13l8 56c1 5 3 10 7 14c3 3 7 5 12 5h359c4 0 7 -2 10 -5c3 -4 4 -9 3 -14l-8 -56c-1 -5 -3 -10 -6 -14c-4 -3 -8 -5 -13 -5h-358z" />
    <glyph glyph-name="oslash" unicode="&#xf8;" horiz-adv-x="435" 
d="M22 14l-9 10c-3 3 -4 7 -3 12c0 5 2 10 6 14l26 25c-16 31 -24 63 -24 98c0 42 10 81 29 118s46 66 79 87c34 21 71 32 110 32c41 0 77 -16 107 -47l28 27c8 7 16 7 23 0l9 -10c7 -8 5 -17 -4 -26l-29 -28c17 -29 25 -62 25 -98c0 -43 -10 -82 -29 -119
c-20 -37 -47 -66 -80 -87c-34 -21 -70 -32 -109 -32c-42 0 -78 16 -107 47l-25 -24c-4 -3 -8 -5 -12 -5c-4 1 -8 3 -11 6zM130 159l130 125c-11 12 -24 18 -39 18c-25 0 -46 -12 -65 -35s-28 -51 -28 -82c0 -7 1 -15 2 -26zM151 116c12 -12 26 -18 41 -18c24 0 45 12 64 35
s28 51 28 84c0 5 -1 13 -2 24z" />
    <glyph glyph-name="ugrave" unicode="&#xf9;" horiz-adv-x="472" 
d="M167 -10c-27 0 -49 6 -69 16c-18 11 -33 26 -42 44c-9 19 -16 40 -19 64c-3 23 -3 48 2 73l28 194c0 5 2 10 6 13c4 4 8 6 13 6h87c5 0 8 -2 11 -6c3 -3 4 -8 3 -13l-28 -197c-3 -27 -1 -48 7 -63s20 -23 37 -23c9 0 18 2 27 6c8 4 15 9 21 14s11 11 15 17
c5 6 8 11 10 14l3 6l31 226c3 13 10 19 22 19h82c5 0 8 -2 12 -6c2 -3 3 -8 2 -13l-50 -362c0 -5 -2 -10 -6 -13c-5 -4 -9 -6 -14 -6h-39c-7 0 -12 5 -15 15l-7 33c-35 -39 -79 -58 -130 -58zM338 531l-150 77c-4 3 -6 6 -7 10c-1 5 1 10 5 17l29 43c4 7 9 10 15 11
s10 0 12 -3l137 -97c3 -1 4 -4 5 -7c1 -4 0 -8 -2 -12l-20 -33c-7 -9 -15 -11 -24 -6z" />
    <glyph glyph-name="uacute" unicode="&#xfa;" horiz-adv-x="472" 
d="M167 -10c-27 0 -49 6 -69 16c-18 11 -33 26 -42 44c-9 19 -16 40 -19 64c-3 23 -3 48 2 73l28 194c0 5 2 10 6 13c4 4 8 6 13 6h87c5 0 8 -2 11 -6c3 -3 4 -8 3 -13l-28 -197c-3 -27 -1 -48 7 -63s20 -23 37 -23c9 0 18 2 27 6c8 4 15 9 21 14s11 11 15 17
c5 6 8 11 10 14l3 6l31 226c3 13 10 19 22 19h82c5 0 8 -2 12 -6c2 -3 3 -8 2 -13l-50 -362c0 -5 -2 -10 -6 -13c-5 -4 -9 -6 -14 -6h-39c-7 0 -12 5 -15 15l-7 33c-35 -39 -79 -58 -130 -58zM210 528c-11 -5 -19 -3 -23 6l-16 39c-3 8 0 14 8 19l164 97c11 7 19 6 24 -5
l24 -52c3 -6 3 -12 1 -16c-1 -6 -5 -9 -10 -11z" />
    <glyph glyph-name="ucircumflex" unicode="&#xfb;" horiz-adv-x="472" 
d="M167 -10c-27 0 -49 6 -69 16c-18 11 -33 26 -42 44c-9 19 -16 40 -19 64c-3 23 -3 48 2 73l28 194c0 5 2 10 6 13c4 4 8 6 13 6h87c5 0 8 -2 11 -6c3 -3 4 -8 3 -13l-28 -197c-3 -27 -1 -48 7 -63s20 -23 37 -23c9 0 18 2 27 6c8 4 15 9 21 14s11 11 15 17
c5 6 8 11 10 14l3 6l31 226c3 13 10 19 22 19h82c5 0 8 -2 12 -6c2 -3 3 -8 2 -13l-50 -362c0 -5 -2 -10 -6 -13c-5 -4 -9 -6 -14 -6h-39c-7 0 -12 5 -15 15l-7 33c-35 -39 -79 -58 -130 -58zM160 529l-22 33c-6 9 -4 16 5 23l134 101c8 5 15 5 21 0l106 -101
c7 -5 8 -12 3 -19l-29 -37c-7 -8 -13 -9 -20 -3l-78 62l-100 -62c-8 -5 -15 -4 -20 3z" />
    <glyph glyph-name="udieresis" unicode="&#xfc;" horiz-adv-x="472" 
d="M167 -10c-27 0 -49 6 -69 16c-18 11 -33 26 -42 44c-9 19 -16 40 -19 64c-3 23 -3 48 2 73l28 194c0 5 2 10 6 13c4 4 8 6 13 6h87c5 0 8 -2 11 -6c3 -3 4 -8 3 -13l-28 -197c-3 -27 -1 -48 7 -63s20 -23 37 -23c9 0 18 2 27 6c8 4 15 9 21 14s11 11 15 17
c5 6 8 11 10 14l3 6l31 226c3 13 10 19 22 19h82c5 0 8 -2 12 -6c2 -3 3 -8 2 -13l-50 -362c0 -5 -2 -10 -6 -13c-5 -4 -9 -6 -14 -6h-39c-7 0 -12 5 -15 15l-7 33c-35 -39 -79 -58 -130 -58zM135 615c2 17 10 32 22 45c14 12 28 18 43 18c16 0 29 -6 39 -18
c9 -12 13 -27 11 -45c-3 -17 -11 -32 -23 -45c-14 -13 -28 -19 -44 -19s-29 6 -38 19s-13 28 -10 45zM316 615c2 17 9 32 22 45c13 12 27 18 43 18s29 -6 38 -18c10 -13 14 -28 12 -45c-3 -17 -10 -32 -24 -45c-12 -13 -27 -19 -43 -19s-29 6 -38 19c-9 12 -13 27 -10 45z
" />
    <glyph glyph-name="yacute" unicode="&#xfd;" horiz-adv-x="425" 
d="M114 28l-91 346c-2 7 -2 13 1 18s7 8 14 8h86c3 0 5 -1 8 -3s5 -5 6 -8l52 -237h1l117 237c3 7 10 11 20 11h89c7 0 11 -3 13 -8c3 -5 2 -11 -2 -18l-368 -662c-5 -8 -11 -12 -17 -12h-93c-7 0 -11 2 -13 7s-1 10 4 17zM182 528c-11 -5 -19 -3 -23 6l-16 39
c-3 8 0 14 8 19l164 97c11 7 19 6 24 -5l24 -52c3 -6 3 -12 1 -16c-1 -6 -5 -9 -10 -11z" />
    <glyph glyph-name="thorn" unicode="&#xfe;" horiz-adv-x="470" 
d="M145 12l-42 -294c-1 -5 -3 -10 -7 -14c-3 -3 -7 -5 -12 -5h-90c-5 0 -8 2 -12 5c-2 4 -3 9 -2 14l135 963c0 5 2 10 7 13c4 4 8 6 13 6h89c4 0 8 -2 11 -6s5 -8 4 -13l-42 -297c8 7 20 13 36 18s32 8 49 8c43 0 79 -18 106 -54s41 -81 41 -134c0 -67 -21 -122 -62 -166
s-93 -66 -155 -66c-11 0 -23 2 -36 7c-14 5 -24 10 -31 15zM162 126c13 -19 32 -28 56 -28c25 0 47 12 66 35s28 51 28 83c0 24 -6 44 -18 61s-28 25 -47 25c-9 0 -17 -2 -25 -5c-7 -3 -14 -7 -18 -11c-6 -4 -10 -8 -14 -13s-7 -8 -8 -11l-2 -5z" />
    <glyph glyph-name="ydieresis" unicode="&#xff;" horiz-adv-x="425" 
d="M114 28l-91 346c-2 7 -2 13 1 18s7 8 14 8h86c3 0 5 -1 8 -3s5 -5 6 -8l52 -237h1l117 237c3 7 10 11 20 11h89c7 0 11 -3 13 -8c3 -5 2 -11 -2 -18l-368 -662c-5 -8 -11 -12 -17 -12h-93c-7 0 -11 2 -13 7s-1 10 4 17zM108 615c2 17 10 32 22 45c14 12 28 18 43 18
c16 0 29 -6 39 -18c9 -12 13 -27 11 -45c-3 -17 -11 -32 -23 -45c-14 -13 -28 -19 -44 -19s-29 6 -38 19s-13 28 -10 45zM289 615c2 17 9 32 22 45c13 12 27 18 43 18s29 -6 38 -18c10 -13 14 -28 12 -45c-3 -17 -10 -32 -24 -45c-12 -13 -27 -19 -43 -19s-29 6 -38 19
c-9 12 -13 27 -10 45z" />
    <glyph glyph-name="dotlessi" unicode="&#x131;" horiz-adv-x="239" 
d="M22 19l51 362c1 5 4 10 7 13c4 4 8 6 13 6h88c5 0 8 -2 11 -6c3 -3 4 -8 4 -13l-51 -362c0 -5 -2 -10 -7 -13c-4 -4 -8 -6 -13 -6h-88c-4 0 -8 2 -11 6c-3 3 -5 8 -4 13z" />
    <glyph glyph-name="OE" unicode="&#x152;" horiz-adv-x="896" 
d="M50 300c0 56 10 109 30 160c20 50 47 93 80 130s73 66 120 88c47 21 96 32 148 32c14 0 29 -1 44 -2l33 -6l12 -2h370c4 0 7 -2 11 -6c2 -4 4 -8 3 -13l-12 -82c-1 -5 -3 -10 -6 -13c-3 -4 -8 -6 -13 -6h-257l-23 -164h213c4 0 7 -2 11 -6c2 -4 4 -8 3 -13l-12 -83
c-1 -5 -4 -10 -7 -14c-3 -3 -7 -5 -12 -5h-213l-25 -175h257c5 0 8 -2 11 -6c3 -3 4 -8 3 -13l-11 -82c-1 -5 -3 -10 -6 -13c-4 -4 -9 -6 -14 -6h-370c-33 -7 -64 -10 -91 -10c-37 0 -73 8 -107 24c-34 17 -64 39 -88 66c-26 28 -45 61 -60 100c-15 38 -22 78 -22 120z
M345 118c28 0 53 4 75 13l61 437c-23 9 -46 14 -71 14c-38 0 -74 -12 -110 -36c-34 -24 -63 -57 -84 -98c-22 -41 -33 -85 -33 -131c0 -55 15 -102 46 -141c31 -38 69 -58 116 -58z" />
    <glyph glyph-name="oe" unicode="&#x153;" horiz-adv-x="654" 
d="M19 174c0 43 9 82 27 118s44 65 76 86c34 21 71 32 112 32c24 0 46 -6 67 -17s38 -27 51 -46c17 19 39 34 66 45c26 12 53 18 81 18c41 0 74 -10 97 -30c24 -19 36 -45 36 -76c0 -24 -8 -45 -24 -64s-37 -33 -64 -43c-26 -10 -53 -17 -80 -22c-28 -5 -56 -7 -83 -8
c-1 -21 3 -39 14 -53c11 -13 28 -20 52 -20c11 0 24 2 37 7s25 10 34 17c11 7 18 7 23 0l33 -47c7 -9 6 -18 -3 -26c-40 -37 -88 -55 -143 -55c-49 0 -89 22 -119 65c-36 -43 -79 -65 -128 -65c-47 0 -85 18 -116 54s-46 79 -46 130zM398 245c29 1 57 5 84 13
c26 8 39 19 39 34c0 7 -3 13 -9 18c-5 5 -14 7 -25 7c-19 0 -37 -7 -54 -22s-29 -31 -35 -50zM193 98c25 0 47 12 65 36c20 24 29 52 29 84c0 24 -6 44 -19 60c-12 16 -27 24 -46 24c-25 0 -47 -11 -66 -34s-28 -50 -28 -82c0 -24 6 -45 18 -62c13 -17 28 -26 47 -26z" />
    <glyph glyph-name="Ydieresis" unicode="&#x178;" horiz-adv-x="532" 
d="M392 839c2 17 9 32 22 45c13 12 27 18 43 18s29 -6 38 -18c9 -13 13 -28 11 -45c-3 -17 -10 -32 -23 -45s-27 -19 -43 -19s-29 6 -38 19c-9 12 -13 27 -10 45zM217 775c-15 0 -28 6 -37 19c-9 12 -13 27 -10 45c2 17 9 32 22 45c12 12 26 18 42 18s29 -6 38 -18
c10 -12 14 -27 12 -45c-3 -17 -10 -32 -24 -45c-12 -13 -27 -19 -43 -19zM162 19l45 318l-156 339c-3 7 -2 12 1 17c4 5 9 7 16 7h94c9 0 16 -5 19 -14l105 -230l168 235c4 6 9 9 16 9h110c7 0 12 -3 14 -8c1 -5 0 -11 -5 -18l-252 -336l-44 -319c0 -5 -2 -10 -7 -13
c-4 -4 -8 -6 -13 -6h-97c-5 0 -8 2 -11 6c-3 3 -4 8 -3 13z" />
    <glyph glyph-name="circumflex" unicode="&#x2c6;" horiz-adv-x="336" 
d="M75 529l-22 33c-6 9 -4 16 5 23l134 101c8 5 15 5 21 0l106 -101c7 -5 8 -12 3 -19l-29 -37c-7 -8 -13 -9 -20 -3l-78 62l-100 -62c-8 -5 -15 -4 -20 3z" />
    <glyph glyph-name="dotaccent" unicode="&#x2d9;" horiz-adv-x="197" 
d="M113 536c-17 0 -31 6 -43 18c-10 12 -16 27 -16 45c0 23 8 42 24 57c16 16 35 24 56 24c17 0 32 -6 42 -18c12 -12 17 -27 17 -45c0 -23 -8 -42 -24 -57c-16 -16 -35 -24 -56 -24z" />
    <glyph glyph-name="ring" unicode="&#x2da;" horiz-adv-x="261" 
d="M139 484c-25 0 -47 10 -63 28c-18 20 -26 43 -26 70c0 36 12 66 35 91s52 37 85 37c25 0 46 -10 63 -28c17 -20 25 -43 25 -70c0 -35 -12 -66 -35 -90c-23 -26 -51 -38 -84 -38zM147 547c12 0 23 6 33 17c10 12 15 25 15 39c0 12 -3 22 -9 30c-7 8 -15 12 -25 12
c-12 0 -23 -5 -33 -17c-10 -10 -15 -23 -15 -37c0 -12 3 -22 10 -31s15 -13 24 -13z" />
    <glyph glyph-name="tilde" unicode="&#x2dc;" horiz-adv-x="342" 
d="M84 562l-27 21c-7 7 -7 14 -2 23c4 8 8 16 13 22c5 8 11 16 20 26c9 11 19 19 31 26s25 10 38 10c8 0 16 -2 23 -6c8 -4 15 -9 20 -14c6 -5 12 -11 16 -16c6 -5 11 -10 17 -14c6 -3 12 -5 18 -5c7 0 13 3 17 9c6 5 10 13 15 22c3 7 7 11 13 13c5 2 11 1 17 -3l23 -18
c9 -7 10 -18 2 -33c-3 -7 -6 -13 -12 -21c-4 -6 -11 -15 -19 -24s-18 -17 -29 -22c-12 -6 -24 -9 -36 -9c-11 0 -21 3 -31 9c-10 5 -18 12 -25 19s-14 14 -21 19c-7 6 -14 9 -19 9c-2 0 -4 0 -6 -1c-2 0 -4 -1 -6 -2c-1 -1 -3 -2 -4 -4c-1 0 -3 -2 -5 -4c-2 -3 -3 -4 -4 -6
l-4 -6c-2 -2 -3 -4 -3 -5c-1 -1 -2 -3 -4 -6l-2 -5c-2 -4 -6 -6 -10 -8c-6 0 -10 1 -14 4z" />
    <glyph glyph-name="endash" unicode="&#x2013;" horiz-adv-x="504" 
d="M68 210c-5 0 -9 2 -12 5s-4 8 -3 13l5 37c0 5 2 10 6 13c4 4 9 6 14 6h363c11 0 15 -6 14 -19l-5 -37c0 -5 -2 -10 -6 -13s-9 -5 -14 -5h-362z" />
    <glyph glyph-name="emdash" unicode="&#x2014;" horiz-adv-x="702" 
d="M68 210c-5 0 -9 2 -12 5s-4 8 -3 13l5 37c0 5 2 10 6 13c4 4 9 6 14 6h561c11 0 15 -6 14 -19l-5 -37c0 -5 -2 -10 -6 -13s-9 -5 -14 -5h-560z" />
    <glyph glyph-name="quoteleft" unicode="&#x2018;" horiz-adv-x="193" 
d="M123 416c-17 0 -33 7 -45 21c-14 14 -20 36 -20 65c0 21 3 41 9 60c6 20 13 37 20 50s17 27 29 41c11 14 20 24 26 29c7 6 14 13 23 21c7 7 14 6 20 -1l14 -16c3 -3 3 -7 3 -11c-2 -4 -4 -8 -8 -11c-1 -1 -4 -3 -8 -8c-6 -4 -10 -8 -14 -12c-5 -4 -10 -10 -16 -18
c-7 -8 -13 -16 -18 -23s-10 -16 -14 -27c-5 -11 -8 -21 -10 -31l2 1c1 0 3 0 5 1s4 1 7 1c3 1 6 1 9 2h10c15 0 28 -6 39 -17c10 -11 15 -25 15 -42c0 -20 -8 -37 -23 -53c-15 -14 -34 -22 -55 -22z" />
    <glyph glyph-name="quoteright" unicode="&#x2019;" horiz-adv-x="190" 
d="M85 424l-14 16c-3 3 -3 7 -3 11c2 4 4 8 8 11c1 1 4 3 8 8c6 4 10 8 14 12c5 4 10 10 16 18c7 8 13 16 18 23s10 16 14 27c5 11 8 21 10 31l-2 -1c-1 0 -3 0 -5 -1s-4 -1 -7 -1c-3 -1 -6 -1 -9 -2h-10c-15 0 -28 6 -39 17c-10 11 -15 25 -15 42c0 20 8 37 23 53
c15 14 34 22 55 22c17 0 33 -7 45 -21c14 -14 20 -36 20 -65c0 -21 -3 -41 -9 -60c-6 -20 -13 -37 -20 -50s-17 -27 -29 -41c-11 -14 -20 -24 -26 -29c-7 -6 -14 -13 -23 -21c-7 -6 -14 -6 -20 1z" />
    <glyph glyph-name="quotedblleft" unicode="&#x201c;" horiz-adv-x="370" 
d="M123 416c-17 0 -33 7 -45 21c-14 14 -20 36 -20 65c0 21 3 41 9 60c6 20 13 37 20 50s17 27 29 41c11 14 20 24 26 29c7 6 14 13 23 21c7 7 14 6 20 -1l14 -16c3 -3 3 -7 3 -11c-2 -4 -4 -8 -8 -11c-1 -1 -4 -3 -8 -8c-6 -4 -10 -8 -14 -12c-5 -4 -10 -10 -16 -18
c-7 -8 -13 -16 -18 -23s-10 -16 -14 -27c-5 -11 -8 -21 -10 -31l2 1c1 0 3 0 5 1s4 1 7 1c3 1 6 1 9 2h10c15 0 28 -6 39 -17c10 -11 15 -25 15 -42c0 -20 -8 -37 -23 -53c-15 -14 -34 -22 -55 -22zM300 416c-17 0 -32 7 -46 21c-12 14 -19 36 -19 65c0 21 3 41 9 60
c6 20 13 37 20 50s17 27 28 41c12 14 21 24 28 29c6 6 13 13 22 21c7 7 14 6 20 -1l14 -16c3 -3 4 -7 2 -11c0 -4 -3 -8 -7 -11c-1 -1 -3 -3 -9 -8c-4 -4 -9 -8 -14 -12c-4 -4 -9 -10 -16 -18l-17 -23c-5 -7 -10 -16 -15 -27c-4 -11 -7 -21 -9 -31l2 1c1 0 3 0 5 1s4 1 7 1
c3 1 6 1 9 2h10c15 0 28 -6 38 -17c11 -11 16 -25 16 -42c0 -20 -8 -37 -23 -53c-15 -14 -34 -22 -55 -22z" />
    <glyph glyph-name="quotedblright" unicode="&#x201d;" horiz-adv-x="366" 
d="M85 424l-14 16c-3 3 -3 7 -3 11c2 4 4 8 8 11c1 1 4 3 8 8c6 4 10 8 14 12c5 4 10 10 16 18c7 8 13 16 18 23s10 16 14 27c5 11 8 21 10 31l-2 -1c-1 0 -3 0 -5 -1s-4 -1 -7 -1c-3 -1 -6 -1 -9 -2h-10c-15 0 -28 6 -39 17c-10 11 -15 25 -15 42c0 20 8 37 23 53
c15 14 34 22 55 22c17 0 33 -7 45 -21c14 -14 20 -36 20 -65c0 -21 -3 -41 -9 -60c-6 -20 -13 -37 -20 -50s-17 -27 -29 -41c-11 -14 -20 -24 -26 -29c-7 -6 -14 -13 -23 -21c-7 -6 -14 -6 -20 1zM261 424l-14 16c-3 3 -3 7 -3 11c2 4 4 8 8 11c1 1 4 3 8 8c6 4 10 8 14 12
c5 4 10 10 16 18c7 8 13 16 18 23s10 16 14 27c5 11 8 21 10 31l-2 -1c-1 0 -3 0 -5 -1s-4 -1 -7 -1c-3 -1 -6 -1 -9 -2h-10c-15 0 -28 6 -39 17c-10 11 -15 25 -15 42c0 20 8 37 23 53c15 14 34 22 55 22c17 0 33 -7 45 -21c14 -14 20 -36 20 -65c0 -21 -3 -41 -9 -60
c-6 -20 -13 -37 -20 -50s-17 -27 -29 -41c-11 -14 -20 -24 -26 -29c-7 -6 -14 -13 -23 -21c-7 -6 -14 -6 -20 1z" />
    <glyph glyph-name="quotedblbase" unicode="&#x201e;" horiz-adv-x="396" 
d="M24 -161l-14 16c-3 3 -4 7 -2 11c0 4 3 8 7 11c1 1 3 3 9 7c4 5 9 9 14 13c4 4 9 10 16 18l17 23c5 7 10 16 15 27c4 11 7 21 9 31l-2 -1c-1 0 -3 0 -5 -1s-4 -1 -7 -2h-9c-3 -1 -7 -1 -10 -1c-15 0 -28 6 -38 17c-11 11 -16 25 -16 42c0 20 8 38 23 52
c15 16 34 23 55 23c17 0 32 -7 46 -21c12 -14 19 -36 19 -65c0 -21 -3 -41 -9 -61c-6 -19 -13 -36 -20 -49s-17 -27 -28 -41c-12 -14 -21 -24 -28 -30c-6 -5 -13 -12 -22 -20c-7 -6 -14 -6 -20 1zM199 -161l-14 16c-3 3 -3 7 -3 11c2 4 4 8 8 11c1 1 4 3 8 7c6 5 10 9 14 13
c5 4 10 10 16 18c7 8 13 16 18 23s10 16 14 27c5 11 8 21 10 31l-2 -1c-1 0 -3 0 -5 -1s-4 -1 -7 -2h-9c-3 -1 -7 -1 -10 -1c-15 0 -28 6 -39 17c-10 11 -15 25 -15 42c0 20 8 38 23 52c15 16 34 23 55 23c17 0 33 -7 45 -21c14 -14 20 -36 20 -65c0 -21 -3 -41 -9 -61
c-6 -19 -13 -36 -20 -49s-17 -27 -29 -41c-11 -14 -20 -24 -26 -30c-7 -5 -14 -12 -23 -20c-7 -6 -14 -6 -20 1z" />
    <glyph glyph-name="bullet" unicode="&#x2022;" horiz-adv-x="358" 
d="M160 95c-29 0 -54 11 -74 33c-21 23 -31 50 -31 81c0 39 15 74 43 103c29 30 62 45 99 45c31 0 56 -11 77 -34s31 -50 31 -83c0 -39 -15 -72 -44 -102c-29 -28 -63 -43 -101 -43z" />
    <glyph glyph-name="ellipsis" unicode="&#x2026;" horiz-adv-x="612" 
d="M67 -9c-17 0 -31 6 -43 18c-10 12 -16 27 -16 45c0 23 8 42 24 58c16 15 35 23 56 23c17 0 32 -6 42 -18c12 -12 17 -27 17 -45c0 -23 -8 -42 -24 -58c-16 -15 -35 -23 -56 -23zM268 -9c-17 0 -32 6 -42 18c-12 12 -17 27 -17 45c0 23 8 42 24 58c16 15 35 23 56 23
c17 0 31 -6 43 -18c10 -12 16 -27 16 -45c0 -23 -8 -42 -24 -58c-16 -15 -35 -23 -56 -23zM464 -9c-17 0 -32 6 -42 18c-12 12 -17 27 -17 45c0 23 8 42 24 58c16 15 35 23 56 23c17 0 31 -6 43 -18c10 -12 16 -27 16 -45c0 -23 -8 -42 -24 -58c-16 -15 -35 -23 -56 -23z
" />
    <glyph glyph-name="guilsinglleft" unicode="&#x2039;" horiz-adv-x="262" 
d="M90 39l-72 155c-4 9 -3 17 3 24l114 148c7 8 14 12 21 12h64c8 0 13 -3 14 -10c2 -6 1 -13 -4 -21l-80 -149l32 -137c2 -8 1 -15 -2 -21s-9 -9 -16 -9h-62c-5 0 -9 3 -12 8z" />
    <glyph glyph-name="guilsinglright" unicode="&#x203a;" horiz-adv-x="261" 
d="M21 31c-8 0 -13 3 -15 9c-1 7 0 14 5 22l80 149l-32 137c-2 8 -1 15 2 21s9 9 16 9h62c5 0 9 -3 12 -8l72 -155c4 -9 3 -17 -3 -24l-114 -148c-7 -8 -14 -12 -21 -12h-64z" />
    <glyph glyph-name="fraction" unicode="&#x2044;" horiz-adv-x="120" 
d="M-55 10c-5 -7 -11 -10 -16 -10h-51c-7 0 -11 3 -14 8c-3 6 -2 12 2 19l403 663c4 7 10 10 17 10h52c7 0 11 -3 14 -8c2 -6 1 -12 -3 -19z" />
    <glyph glyph-name="foursuperior" unicode="&#x2074;" horiz-adv-x="336" 
d="M252 504c-3 0 -5 1 -6 3s-2 4 -2 6l7 48h-120c-2 0 -4 1 -5 3c-1 1 -2 3 -2 5l7 51l167 175c3 3 8 5 13 5h39c2 0 4 -1 6 -3c1 -2 2 -4 1 -6l-24 -170h35c3 0 5 -1 6 -3c1 -1 2 -3 1 -5l-6 -43c0 -3 -1 -5 -3 -6c-2 -2 -4 -3 -6 -3h-36l-6 -48c-1 -6 -5 -9 -10 -9h-56z
M201 620h59l12 72z" />
    <glyph glyph-name="Euro" unicode="&#x20ac;" horiz-adv-x="664" 
d="M45 250c-4 0 -7 2 -11 6c-2 4 -3 8 -2 13l2 13c1 5 4 10 7 14c3 3 7 5 12 5h36c0 20 2 43 5 69h-32c-4 0 -7 2 -10 6s-4 8 -3 13l2 13c1 5 3 10 7 14c2 3 6 5 11 5h35c23 87 67 157 132 209c66 54 141 80 226 80c43 0 82 -9 117 -26s66 -40 91 -69c3 -4 4 -9 3 -14
s-3 -10 -7 -14l-54 -52c-12 -11 -23 -11 -33 0c-35 33 -76 50 -124 50c-44 0 -85 -15 -123 -46c-37 -31 -65 -70 -83 -118h202c5 0 8 -2 11 -5c3 -4 4 -9 3 -14l-2 -15c-1 -5 -3 -10 -6 -13s-8 -5 -13 -5h-209c-3 -15 -4 -32 -4 -51v-17h167c5 0 9 -2 12 -5c3 -4 4 -9 3 -14
l-2 -14c-1 -5 -4 -10 -7 -13c-4 -3 -8 -5 -13 -5h-152c10 -39 28 -70 53 -94c25 -23 56 -35 92 -35c47 0 92 20 137 59c13 11 24 10 32 -1l52 -65c3 -4 3 -9 3 -14c-2 -5 -4 -10 -8 -13c-68 -65 -143 -97 -226 -97c-76 0 -139 24 -190 73s-81 111 -92 187h-47z" />
    <glyph glyph-name="trademark" unicode="&#x2122;" horiz-adv-x="649" 
d="M322 385c-6 0 -10 2 -13 7s-3 10 -1 16l86 282c3 10 9 15 20 15h3c7 0 11 -4 14 -11l54 -185l108 185c4 7 10 11 17 11h3c4 0 7 -1 11 -5c2 -2 4 -6 4 -10l8 -283c0 -6 -2 -11 -6 -15c-4 -5 -9 -7 -14 -7h-40c-4 0 -7 2 -10 5s-4 7 -4 12v125l-74 -136
c-4 -6 -9 -9 -16 -9h-5c-7 0 -12 3 -14 10l-37 135l-35 -126c-1 -4 -4 -8 -7 -11c-4 -3 -8 -5 -13 -5h-39zM142 385c-5 0 -9 2 -12 5c-3 4 -3 9 -2 14l31 222h-56c-5 0 -8 2 -11 6c-3 3 -4 8 -3 13l5 36c0 5 2 10 6 13c5 4 9 6 14 6h187c5 0 9 -2 12 -6s4 -8 3 -13l-5 -36
c-1 -5 -4 -10 -7 -13c-4 -4 -8 -6 -13 -6h-56l-31 -222c0 -5 -2 -10 -6 -14c-5 -3 -9 -5 -14 -5h-42z" />
    <glyph glyph-name="tilde.cap" horiz-adv-x="342" 
d="M95 789l-27 21c-7 7 -7 14 -2 23c4 8 8 15 13 23c5 6 11 15 20 26s19 19 31 26c12 6 25 9 38 9c8 0 16 -2 24 -5c7 -4 14 -9 20 -14l16 -16c5 -5 11 -10 17 -14s12 -6 17 -6c7 0 12 3 18 8c4 5 9 13 14 23c3 7 7 11 13 13c6 1 12 0 17 -3l23 -18c9 -7 10 -18 2 -33
c-3 -7 -7 -14 -11 -20c-6 -8 -12 -16 -20 -24c-8 -10 -18 -17 -29 -23s-23 -9 -36 -9c-11 0 -21 3 -31 9c-11 6 -19 12 -25 19s-13 13 -20 19s-14 9 -20 9c-2 0 -4 0 -6 -1s-4 -1 -6 -3c-2 0 -4 -2 -5 -2c-1 -2 -3 -3 -4 -6c-1 -2 -3 -4 -4 -4c-1 -2 -3 -3 -4 -6
s-2 -4 -3 -6c-1 0 -2 -2 -3 -6c-2 -2 -3 -4 -3 -5c-2 -4 -5 -7 -11 -7c-4 -2 -9 0 -13 3z" />
    <glyph glyph-name="dieresis.cap" horiz-adv-x="427" 
d="M304 839c2 17 9 32 22 45c13 12 27 18 43 18s29 -6 38 -18c9 -13 13 -28 11 -45c-3 -17 -10 -32 -23 -45s-27 -19 -43 -19s-29 6 -38 19c-9 12 -13 27 -10 45zM129 775c-15 0 -28 6 -37 19c-9 12 -13 27 -10 45c2 17 9 32 22 45c12 12 26 18 42 18s29 -6 38 -18
c10 -12 14 -27 12 -45c-3 -17 -10 -32 -24 -45c-12 -13 -27 -19 -43 -19z" />
  </font>
</defs>
</svg>
