<?xml version="1.0" standalone="no"?>
<!DOCTYPE svg PUBLIC "-//W3C//DTD SVG 1.1//EN" "http://www.w3.org/Graphics/SVG/1.1/DTD/svg11.dtd" >
<svg>
<metadata>
Created by FontForge 20090914 at Fri Aug 23 18:23:47 2013
 By www-data
Copyright (c) 2009 by Hannes von Doehren. All rights reserved.
</metadata>
<defs>
<font id="BrandonGrotesque-Bold" horiz-adv-x="663" >
  <font-face 
    font-family="Brandon Grotesque Bold"
    font-weight="700"
    font-stretch="normal"
    units-per-em="1000"
    panose-1="2 0 8 3 0 0 0 0 0 0"
    ascent="750"
    descent="-250"
    x-height="400"
    cap-height="700"
    bbox="-144.25 -310 944 980"
    underline-thickness="50"
    underline-position="-50"
    unicode-range="U+0020-U+2122"
  />
<missing-glyph horiz-adv-x="221" 
 />
    <glyph glyph-name=".notdef" horiz-adv-x="221" 
 />
    <glyph glyph-name="space" unicode=" " horiz-adv-x="221" 
 />
    <glyph glyph-name="exclam" unicode="!" horiz-adv-x="310" 
d="M139 272c-4 0 -8 2 -12 5s-6 7 -7 11l-39 279v114c0 5 2 10 5 13c4 4 9 6 14 6h110c5 0 10 -2 14 -6c3 -4 5 -8 5 -13v-112l-39 -281c-1 -4 -3 -8 -6 -11c-4 -3 -8 -5 -13 -5h-32zM155 155c23 0 42 -8 59 -25c16 -16 24 -35 24 -58s-8 -42 -24 -58
c-17 -16 -36 -24 -59 -24s-42 8 -58 24s-24 35 -24 58s8 42 25 58c16 17 35 25 57 25z" />
    <glyph glyph-name="quotedbl" unicode="&#x22;" horiz-adv-x="343" 
d="M55 501c-5 0 -10 2 -13 5c-4 4 -6 9 -6 14v161c0 5 2 10 6 13c4 4 8 6 13 6h80c7 0 12 -2 15 -7c4 -5 5 -11 3 -18l-41 -159c-1 -4 -4 -8 -7 -10c-3 -4 -7 -5 -11 -5h-39zM226 501c-5 0 -10 2 -14 5c-3 4 -5 9 -5 14v161c0 5 2 10 6 13c4 4 8 6 13 6h80c7 0 12 -2 16 -7
c3 -5 4 -11 2 -18l-41 -159c-1 -4 -4 -8 -7 -10c-3 -4 -7 -5 -11 -5h-39z" />
    <glyph glyph-name="numbersign" unicode="#" horiz-adv-x="538" 
d="M104 22l23 166h-71c-5 0 -10 2 -14 6c-3 4 -5 8 -5 13v14c0 5 2 10 5 13c4 4 9 6 14 6h78l23 164h-72c-5 0 -10 2 -13 6c-4 4 -6 8 -6 13v14c0 5 2 10 6 13c4 4 8 6 13 6h79l32 228c1 4 3 8 6 11c4 3 8 5 12 5h14c5 0 10 -2 14 -6c4 -5 5 -10 4 -16l-30 -222h158l33 228
c1 4 3 8 7 11s8 5 12 5h12c6 0 11 -2 14 -6c4 -5 6 -10 5 -16l-32 -222h64c5 0 10 -2 13 -6c4 -4 6 -8 6 -13v-14c0 -5 -2 -10 -6 -13c-3 -4 -8 -6 -13 -6h-71l-23 -164h65c5 0 10 -2 14 -6c3 -3 5 -8 5 -13v-14c0 -5 -2 -10 -5 -13c-4 -4 -9 -6 -14 -6h-73l-22 -172
c-1 -5 -3 -9 -6 -12c-3 -2 -8 -4 -13 -4h-13c-6 0 -11 2 -15 6c-3 5 -5 10 -4 16l22 166h-159l-23 -172c0 -4 -2 -8 -6 -11s-8 -5 -13 -5h-12c-7 0 -12 2 -15 6c-4 5 -5 10 -4 16zM185 240h159l22 164h-158z" />
    <glyph glyph-name="dollar" unicode="$" horiz-adv-x="525" 
d="M46 68c-4 4 -7 7 -8 9s-2 5 -2 9c0 3 2 7 5 12c2 3 5 8 8 14c3 7 6 12 9 17s6 10 10 15c4 6 8 11 11 14c3 4 7 7 10 10s7 4 11 4s8 -2 12 -5c5 -4 12 -9 21 -15c9 -5 23 -13 45 -24c20 -11 40 -18 58 -23v95c1 43 1 75 1 97c-22 9 -41 17 -57 25s-34 18 -53 32
c-19 12 -35 26 -47 40c-12 15 -22 33 -30 54c-8 22 -12 46 -12 71c0 51 17 94 51 129s84 56 149 61v32c0 5 2 10 6 13c4 4 8 6 13 6h13c5 0 10 -2 14 -6c3 -3 5 -8 5 -13v-33c63 -5 121 -27 174 -65c5 -3 9 -7 9 -15c2 -6 0 -13 -3 -18c-1 -3 -3 -6 -7 -11
c-2 -5 -5 -9 -8 -12c-2 -3 -4 -7 -8 -12c-2 -5 -5 -9 -8 -12l-8 -10c-3 -3 -5 -6 -8 -8s-6 -4 -8 -5c-4 -1 -7 -2 -10 -2s-5 1 -7 3c-1 0 -7 4 -19 11s-26 15 -43 24c-17 8 -32 14 -46 19v-180c21 -9 40 -17 55 -25c16 -8 34 -19 54 -33s37 -28 50 -43s24 -33 34 -55
c8 -22 13 -46 13 -71c0 -56 -18 -102 -55 -138c-36 -35 -87 -55 -153 -59v-104c0 -5 -2 -10 -5 -13c-4 -3 -9 -5 -15 -5c-21 0 -31 6 -31 18v104c-25 2 -49 6 -72 13s-42 14 -58 23s-28 16 -37 23c-9 6 -16 12 -23 18zM235 437v161c-24 -3 -43 -10 -55 -22
c-14 -13 -20 -27 -20 -43c0 -20 6 -38 18 -53c13 -15 32 -30 57 -43zM289 99c22 4 40 13 54 27c14 13 21 29 21 48c0 37 -25 71 -75 100v-175z" />
    <glyph glyph-name="percent" unicode="%" horiz-adv-x="662" 
d="M186 10c-3 -7 -9 -10 -17 -10h-48c-8 0 -14 3 -17 9s-3 12 0 18l343 663c3 7 9 10 17 10h50c8 0 14 -3 17 -9s3 -12 0 -18zM581 30c-26 -26 -58 -39 -95 -39s-69 13 -96 39c-26 27 -39 59 -39 96s13 69 39 96c27 26 59 39 96 39s69 -13 96 -39c26 -27 39 -59 39 -96
s-13 -69 -40 -96zM535 126c0 13 -5 25 -15 34c-10 10 -21 15 -34 15s-25 -5 -36 -15c-10 -10 -15 -21 -15 -34s5 -25 15 -36c11 -10 23 -15 36 -15s25 5 34 15c10 10 15 22 15 36zM252 479c-26 -26 -58 -39 -95 -39s-69 13 -95 40c-27 26 -40 58 -40 95s13 69 40 95
c26 27 58 40 95 40s69 -13 95 -40c27 -26 40 -58 40 -95s-13 -69 -40 -96zM206 575c0 13 -5 25 -15 35c-10 9 -21 14 -34 14s-25 -5 -35 -15c-11 -10 -16 -21 -16 -34s5 -25 16 -35c10 -11 22 -16 35 -16s25 5 35 15c9 10 14 22 14 36z" />
    <glyph glyph-name="ampersand" unicode="&#x26;" horiz-adv-x="689" 
d="M74 178c0 14 1 28 4 41s6 25 12 37c4 10 10 21 16 30c5 9 12 18 20 26c8 9 15 16 21 22s13 12 21 18c8 5 14 9 19 12s10 6 16 10l9 5v2l-21 23c-23 24 -40 47 -51 70c-12 22 -18 47 -17 74c0 19 4 38 13 58c8 18 19 36 34 52c15 15 34 28 59 38c25 9 52 14 83 14
c55 0 100 -16 136 -47c35 -31 53 -70 53 -116c0 -16 -3 -32 -8 -47c-5 -16 -12 -30 -19 -42c-7 -11 -16 -23 -26 -34c-11 -11 -20 -20 -28 -26c-8 -7 -16 -13 -25 -20s-14 -11 -16 -13l115 -116c16 33 28 70 36 111c3 12 6 20 10 24c5 4 12 4 23 1l55 -16c3 -1 5 -2 8 -3
c2 -1 4 -3 5 -4s3 -3 3 -4c2 -1 2 -3 2 -5c1 -2 1 -4 2 -5v-5c-1 -2 -1 -4 -2 -5v-4l-1 -4c-12 -53 -33 -106 -62 -159l89 -84c5 -5 9 -9 11 -13c2 -2 2 -7 1 -13s-6 -13 -14 -20l-41 -42c-15 -13 -29 -12 -44 3l-72 73c-6 -7 -14 -14 -24 -23c-10 -8 -24 -17 -42 -27
s-40 -18 -67 -25s-55 -10 -85 -10c-62 0 -113 18 -152 55s-59 81 -59 133zM308 436l8 4c5 3 8 6 12 8c2 1 7 4 13 8c6 5 11 9 15 12c4 4 9 9 14 15s9 12 12 17s5 12 8 19c2 7 3 15 3 22c0 20 -8 37 -23 53c-16 14 -37 22 -62 22c-23 0 -41 -7 -54 -20s-20 -29 -20 -48
c0 -8 1 -16 3 -23s6 -15 12 -24s11 -15 15 -19c4 -5 11 -13 22 -24zM193 191c0 -27 10 -50 31 -67c20 -18 45 -27 74 -27c51 0 94 20 129 59l-149 158l-8 -5l-12 -7c-3 -2 -7 -5 -14 -10c-6 -5 -11 -9 -14 -14c-4 -4 -9 -9 -14 -16s-9 -13 -12 -20s-5 -14 -8 -24
c-2 -8 -3 -18 -3 -27z" />
    <glyph glyph-name="quotesingle" unicode="'" horiz-adv-x="172" 
d="M55 501c-5 0 -10 2 -13 5c-4 4 -6 9 -6 14v161c0 5 2 10 6 13c4 4 8 6 13 6h80c7 0 12 -2 15 -7c4 -5 5 -11 3 -18l-41 -159c-1 -4 -4 -8 -7 -10c-3 -4 -7 -5 -11 -5h-39z" />
    <glyph glyph-name="parenleft" unicode="(" horiz-adv-x="342" 
d="M291 -79c-25 1 -49 6 -71 13c-21 8 -43 21 -66 39c-22 18 -41 41 -56 69c-16 28 -29 65 -40 112c-10 47 -15 100 -15 161c0 44 3 84 7 121c6 36 13 67 22 94c9 26 20 49 33 70s26 38 40 50c14 14 30 24 47 33s34 15 50 19c15 4 32 6 49 7c5 0 10 -1 13 -4
c4 -3 6 -6 6 -11l3 -66c1 -4 0 -8 -3 -12c-3 -3 -6 -5 -9 -6c-48 -13 -83 -44 -103 -92c-22 -50 -32 -117 -32 -203c0 -87 11 -154 32 -203c21 -48 56 -78 103 -91c4 -1 7 -4 9 -7c3 -4 4 -8 3 -12l-3 -65c-1 -11 -7 -16 -19 -16z" />
    <glyph glyph-name="parenright" unicode=")" horiz-adv-x="343" 
d="M29 2c-1 4 0 8 2 12s5 6 10 7c48 13 83 43 103 92c22 49 32 116 32 202s-11 153 -32 203c-21 48 -56 79 -103 92c-4 1 -7 3 -9 6c-3 4 -4 8 -3 12l3 66c0 5 2 8 6 12c3 2 8 4 13 3c17 -1 34 -4 49 -7c16 -4 33 -10 50 -19s33 -19 47 -33c14 -12 27 -29 40 -50
s24 -44 33 -70c9 -27 16 -58 22 -95c4 -37 7 -77 7 -120c0 -60 -5 -113 -15 -161c-11 -46 -24 -84 -40 -112c-15 -28 -34 -51 -56 -69c-23 -18 -45 -31 -67 -38s-45 -12 -70 -14c-12 0 -18 5 -19 16z" />
    <glyph glyph-name="asterisk" unicode="*" horiz-adv-x="350" 
d="M159 370c-5 0 -10 2 -13 6c-4 4 -6 8 -6 13l2 87l-72 -50c-4 -3 -9 -4 -14 -2c-5 0 -9 3 -12 7l-17 27c-3 4 -3 9 -3 14c2 5 4 10 8 13l83 50l-83 50c-4 3 -7 7 -8 13c-1 5 -1 10 2 14c3 3 6 7 10 13c3 6 6 11 9 14c3 4 7 7 11 7c6 2 10 0 14 -3l72 -50l-2 88
c0 5 2 10 6 13c4 4 8 6 13 6h32c5 0 10 -2 13 -6c4 -4 6 -8 6 -13l-2 -88l72 51c4 3 9 4 14 2c5 0 9 -3 12 -7l17 -27c3 -4 4 -9 3 -14c0 -5 -3 -10 -8 -13l-83 -50l83 -51c5 -3 8 -7 8 -12c2 -5 1 -10 -2 -14l-19 -27c-3 -4 -7 -7 -11 -8c-6 -1 -10 -1 -14 2l-72 50l2 -86
c0 -5 -2 -10 -6 -13c-4 -4 -8 -6 -13 -6h-32z" />
    <glyph glyph-name="plus" unicode="+" horiz-adv-x="560" 
d="M233 150v149h-150c-5 0 -10 2 -13 5c-4 4 -6 9 -6 14v56c0 5 2 10 6 14c4 3 8 5 13 5h150v151c0 5 2 10 5 13c4 3 9 5 14 5h56c5 0 10 -2 14 -5c3 -3 5 -8 5 -13v-151h151c5 0 10 -2 13 -5c3 -4 5 -9 5 -14v-56c0 -5 -2 -10 -5 -14c-3 -3 -8 -5 -13 -5h-151v-149
c0 -5 -2 -10 -5 -13c-4 -3 -9 -5 -14 -5h-56c-5 0 -10 2 -14 5c-3 3 -5 8 -5 13z" />
    <glyph glyph-name="comma" unicode="," horiz-adv-x="259" 
d="M36 71c0 23 8 42 25 59c17 16 38 24 63 24c12 0 24 -2 34 -7c12 -5 22 -12 32 -21c11 -9 19 -23 26 -41c6 -18 9 -39 9 -62s-3 -46 -9 -67c-5 -21 -12 -40 -20 -55s-18 -30 -29 -43s-21 -24 -30 -32c-9 -7 -17 -14 -26 -19c-9 -6 -18 -5 -25 2l-15 16c-8 9 -7 18 4 27
l5 4c4 3 7 6 10 8l11 11c5 5 9 9 12 14s7 10 12 17c5 6 9 12 12 20c3 6 6 14 9 21s5 15 6 24c2 9 3 18 3 27l-2 -1c-1 -1 -3 -1 -5 -2c-3 -1 -6 -1 -8 -2c-4 -1 -7 -1 -11 -2s-8 -1 -12 -1c-22 0 -41 8 -57 24s-24 35 -24 57z" />
    <glyph glyph-name="hyphen" unicode="-" horiz-adv-x="369" 
d="M73 192c-5 0 -10 2 -13 5c-4 3 -6 8 -6 13v67c0 5 2 10 6 13c3 4 8 6 13 6h223c5 0 10 -2 14 -6c3 -3 5 -8 5 -13v-67c0 -5 -2 -10 -5 -13c-4 -3 -9 -5 -14 -5h-223z" />
    <glyph glyph-name="period" unicode="." horiz-adv-x="235" 
d="M117 155c23 0 42 -8 59 -25c16 -16 24 -35 24 -58s-8 -42 -24 -58c-17 -16 -36 -24 -59 -24s-42 8 -58 24s-24 35 -24 58s8 42 25 58c16 17 35 25 57 25z" />
    <glyph glyph-name="slash" unicode="/" horiz-adv-x="353" 
d="M29 25l196 662c1 4 4 7 7 9c3 3 7 4 11 4h72c7 0 12 -2 15 -7c4 -5 5 -11 3 -18l-195 -662c-1 -3 -4 -6 -7 -9s-7 -4 -11 -4h-73c-7 0 -12 2 -15 8c-4 4 -5 10 -3 17z" />
    <glyph glyph-name="zero" unicode="0" horiz-adv-x="626" 
d="M498 82c-44 -61 -106 -92 -185 -92s-141 31 -185 92c-45 62 -67 148 -67 258s22 196 67 258c44 61 106 92 185 92s141 -31 185 -92c45 -62 67 -148 67 -258s-22 -196 -67 -258zM434 340c0 74 -10 131 -32 172c-20 40 -50 60 -89 60s-69 -20 -89 -60
c-22 -41 -32 -98 -32 -172c0 -75 10 -132 32 -172c20 -40 50 -60 89 -60s69 20 89 60c22 40 32 97 32 172z" />
    <glyph glyph-name="one" unicode="1" horiz-adv-x="357" 
d="M141 19v479l-88 -19c-5 -1 -9 -1 -13 3c-4 2 -6 6 -7 10l-6 49c-1 8 0 14 5 18l144 121h70c5 0 10 -2 13 -6s5 -8 5 -13v-642c0 -5 -2 -10 -5 -13c-3 -4 -8 -6 -13 -6h-86c-5 0 -10 2 -14 6c-3 3 -5 8 -5 13z" />
    <glyph glyph-name="two" unicode="2" horiz-adv-x="518" 
d="M31 19v23l259 333c34 41 51 78 51 111c0 25 -9 46 -27 64c-19 18 -45 27 -79 27c-39 0 -76 -20 -112 -59c-4 -4 -9 -6 -14 -6s-9 2 -13 6l-48 48c-3 3 -5 8 -6 12c0 6 2 10 5 14c2 3 5 6 9 10c4 5 13 13 26 24s27 21 42 30c14 9 32 16 54 24c21 6 43 10 66 10
c69 0 124 -19 164 -57c39 -38 59 -85 59 -142c0 -21 -3 -41 -9 -60c-7 -19 -14 -35 -22 -48s-20 -31 -36 -54c-20 -28 -77 -102 -172 -222h216c5 0 10 -2 14 -5c3 -4 5 -9 5 -14v-69c0 -5 -2 -10 -5 -13c-4 -4 -9 -6 -14 -6h-394c-5 0 -10 2 -14 6c-3 3 -5 8 -5 13z" />
    <glyph glyph-name="three" unicode="3" horiz-adv-x="522" 
d="M36 79c-7 8 -6 16 1 25l51 49c9 8 18 8 26 0c2 -3 8 -8 19 -15c11 -8 26 -16 47 -26c20 -8 39 -13 57 -13c28 0 53 9 74 27s32 40 32 67c0 28 -12 51 -37 71c-24 18 -58 28 -101 28h-56c-5 0 -10 2 -13 6c-4 3 -6 8 -6 14v63c0 13 6 20 19 20h56c39 0 70 9 91 26
c22 17 33 39 33 66s-9 49 -29 66c-18 17 -41 26 -68 26c-40 0 -74 -16 -101 -48c-8 -9 -17 -10 -27 -1l-49 46c-4 4 -6 8 -5 13c0 5 2 9 5 13c2 3 5 6 9 10s12 11 25 21s26 19 39 27c14 7 32 14 52 20c22 7 42 10 63 10c60 0 111 -17 151 -50c42 -34 62 -78 62 -133
c0 -35 -11 -67 -32 -95s-45 -48 -71 -61v-3c13 -5 27 -13 39 -22c14 -9 26 -20 39 -34c13 -12 23 -28 31 -48c8 -18 12 -38 12 -59c0 -57 -21 -104 -64 -141c-43 -36 -98 -54 -166 -54c-88 0 -157 30 -208 89z" />
    <glyph glyph-name="four" unicode="4" horiz-adv-x="597" 
d="M35 145c-5 0 -10 2 -13 5c-4 4 -6 9 -6 14v83l360 438c4 4 9 6 15 6h54c5 0 10 -2 13 -5c4 -4 6 -9 6 -14v-426h80c5 0 10 -2 14 -5c3 -3 5 -8 5 -13v-62c0 -5 -2 -10 -5 -14c-4 -3 -9 -5 -14 -5h-80l1 -128c0 -5 -2 -10 -5 -13c-4 -4 -9 -6 -14 -6h-83c-5 0 -10 2 -13 6
c-4 4 -6 8 -6 13v126h-309zM148 249h200v240z" />
    <glyph glyph-name="five" unicode="5" horiz-adv-x="528" 
d="M57 73c-7 8 -10 14 -11 19c0 4 3 9 9 15l50 49c8 7 16 8 24 1c4 -4 11 -9 21 -17c9 -6 25 -15 46 -24c21 -10 42 -15 62 -15c33 0 61 11 83 35c22 22 33 50 33 83s-11 59 -32 81c-21 20 -51 31 -89 31h-154c-9 0 -17 4 -23 11c-5 7 -8 15 -8 24v295c0 5 2 10 6 13
c3 4 8 6 13 6h316c5 0 10 -2 13 -6c4 -4 6 -8 6 -13v-68c0 -5 -2 -10 -6 -13c-3 -4 -8 -6 -13 -6h-222v-133h86c71 0 127 -21 167 -61c42 -42 62 -95 62 -161c0 -63 -23 -117 -70 -161c-47 -46 -104 -68 -172 -68c-25 0 -49 3 -72 8c-23 6 -42 14 -58 22
c-16 9 -29 18 -40 27s-20 17 -27 26z" />
    <glyph glyph-name="six" unicode="6" horiz-adv-x="539" 
d="M43 266c0 40 5 78 15 114c9 37 21 68 36 96c15 27 32 52 53 76c21 23 41 43 61 58c21 16 42 31 64 44c23 13 42 24 58 30c16 8 31 13 46 18c15 4 24 -1 28 -14l23 -59c5 -13 -1 -23 -18 -29c-11 -4 -23 -9 -37 -16c-15 -6 -32 -15 -51 -26c-19 -12 -37 -25 -55 -39
c-16 -14 -32 -31 -46 -51c-15 -19 -25 -39 -31 -60c11 7 27 13 49 19c23 6 44 9 65 9c25 0 50 -5 74 -14s46 -23 65 -40c20 -18 36 -41 48 -70c11 -28 17 -59 17 -93c0 -41 -10 -79 -31 -115c-20 -35 -47 -62 -82 -83s-72 -31 -113 -31c-38 0 -72 7 -103 22s-56 35 -75 60
s-34 54 -45 88c-10 32 -15 68 -15 106zM280 104c31 0 58 12 80 35c23 23 34 51 34 82c0 32 -11 59 -34 83c-22 22 -49 34 -81 34c-30 0 -55 -9 -75 -27c-21 -18 -34 -38 -41 -60c0 -17 2 -35 7 -51c5 -18 12 -33 20 -48c10 -15 22 -26 38 -35c15 -9 33 -13 52 -13z" />
    <glyph glyph-name="seven" unicode="7" horiz-adv-x="484" 
d="M53 19v11l260 542h-264c-5 0 -10 2 -13 6c-4 4 -6 8 -6 13v70c0 5 2 10 6 13c4 4 8 6 13 6h416c5 0 10 -2 13 -6c4 -4 6 -8 6 -13v-7l-298 -627c-8 -18 -19 -27 -34 -27h-74c-17 0 -25 6 -25 19z" />
    <glyph glyph-name="eight" unicode="8" horiz-adv-x="567" 
d="M47 182c0 20 5 40 15 60c9 20 21 37 36 52c14 14 27 26 39 34c12 10 22 16 31 21v3c-11 6 -22 14 -34 23c-10 9 -22 21 -32 33c-12 14 -20 29 -27 46s-10 35 -10 53c0 55 21 99 63 133c41 33 93 50 154 50c64 0 117 -17 158 -50c42 -34 63 -78 63 -133
c0 -18 -3 -35 -10 -52s-15 -31 -27 -45c-10 -12 -21 -24 -32 -33s-22 -17 -34 -24v-4c13 -7 26 -15 39 -25c13 -9 25 -21 38 -34c13 -14 23 -30 31 -50c9 -18 13 -38 13 -58c0 -56 -22 -102 -65 -138c-44 -36 -102 -54 -174 -54c-71 0 -128 18 -170 54
c-44 37 -65 83 -65 138zM284 407c30 7 53 19 68 35c15 18 23 37 23 60c0 24 -9 44 -27 60c-18 17 -40 25 -66 25c-24 0 -45 -8 -62 -25c-18 -16 -27 -36 -27 -60c0 -23 7 -43 23 -60c14 -16 37 -28 68 -35zM180 184c0 -27 10 -49 31 -66s45 -26 73 -26s52 9 73 26
s31 39 31 66c0 24 -9 46 -28 66c-19 19 -44 33 -76 40c-32 -7 -57 -21 -76 -40c-19 -20 -28 -42 -28 -66z" />
    <glyph glyph-name="nine" unicode="9" horiz-adv-x="539" 
d="M112 51c-5 13 1 23 18 29c11 4 23 9 38 16c15 6 32 15 51 26c19 12 37 25 54 39s32 31 47 51c14 19 24 39 30 60c-11 -7 -27 -13 -49 -19s-44 -9 -65 -9c-25 0 -50 5 -74 14s-46 23 -65 40c-19 18 -35 41 -47 70c-12 28 -18 59 -18 93c0 41 10 79 31 115
c21 34 48 62 83 83s72 31 112 31c38 0 72 -7 103 -22s56 -35 75 -60s34 -54 44 -88c11 -32 16 -68 16 -106c0 -40 -5 -78 -14 -114c-9 -37 -22 -68 -36 -96c-16 -26 -33 -52 -54 -76c-21 -23 -41 -43 -62 -58c-20 -16 -41 -31 -64 -44c-22 -13 -41 -24 -58 -30
c-16 -7 -31 -13 -45 -18c-15 -4 -24 1 -28 14zM260 342c30 0 55 9 76 27c20 18 33 38 40 60c0 17 -2 35 -7 51c-5 18 -12 33 -21 48s-22 26 -37 35s-33 13 -52 13c-31 0 -58 -12 -81 -35c-22 -23 -33 -51 -33 -82c0 -32 11 -59 33 -83c23 -22 50 -34 82 -34z" />
    <glyph glyph-name="colon" unicode=":" horiz-adv-x="268" 
d="M185 12c-14 -14 -31 -21 -51 -21s-37 7 -51 21s-21 31 -21 51s7 37 21 51s31 21 51 21s37 -7 51 -21s21 -31 21 -51s-7 -37 -21 -51zM185 288c-14 -14 -31 -21 -51 -21s-37 7 -51 21s-21 31 -21 51s7 37 21 51s31 21 51 21s37 -7 51 -21s21 -31 21 -51s-7 -37 -21 -51z
" />
    <glyph glyph-name="semicolon" unicode=";" horiz-adv-x="247" 
d="M122 124c9 0 19 -2 28 -6c9 -3 18 -9 27 -17s15 -19 21 -34c4 -15 7 -32 7 -51c0 -68 -30 -128 -90 -181c-8 -7 -16 -6 -23 1l-14 15c-7 7 -7 15 2 22c4 3 9 7 15 13c6 5 13 13 22 24s16 24 22 38c6 16 9 31 9 47l-4 -1c-3 -1 -6 -2 -12 -2c-4 -2 -9 -2 -14 -2
c-19 0 -34 6 -48 20c-12 12 -19 28 -19 47s7 35 21 47c13 14 30 20 50 20zM170 287c-14 -14 -31 -21 -51 -21s-37 7 -51 21s-21 31 -21 51s7 37 21 51s31 21 51 21s37 -7 51 -21s21 -31 21 -51s-7 -37 -21 -51z" />
    <glyph glyph-name="less" unicode="&#x3c;" horiz-adv-x="436" 
d="M29 210c-7 4 -10 10 -10 17v5c0 7 3 13 10 17l347 212c7 4 13 4 19 1s9 -9 9 -17v-70c0 -6 -3 -11 -9 -16l-215 -128l215 -124c6 -5 9 -10 9 -16v-70c0 -8 -3 -14 -9 -17s-12 -3 -19 1z" />
    <glyph glyph-name="equal" unicode="=" horiz-adv-x="488" 
d="M81 338c-5 0 -10 2 -13 6c-4 4 -6 8 -6 13v56c0 5 2 10 6 13c3 4 8 6 13 6h326c5 0 10 -2 13 -6c4 -4 6 -8 6 -13v-56c0 -5 -2 -10 -6 -13c-3 -4 -8 -6 -13 -6h-326zM81 127c-5 0 -10 2 -13 5c-4 4 -6 9 -6 14v57c0 5 2 10 6 13c3 4 8 6 13 6h326c5 0 10 -2 13 -6
c4 -4 6 -8 6 -13v-57c0 -5 -2 -10 -6 -14c-3 -3 -8 -5 -13 -5h-326z" />
    <glyph glyph-name="greater" unicode="&#x3e;" horiz-adv-x="436" 
d="M32 21v70c0 7 3 12 9 16l214 124l-214 128c-6 4 -9 9 -9 16v70c0 8 3 14 9 17s12 3 19 -1l347 -212c7 -4 10 -10 10 -17v-5c0 -7 -3 -13 -10 -17l-347 -205c-7 -4 -13 -4 -19 -1s-9 9 -9 17z" />
    <glyph glyph-name="question" unicode="?" horiz-adv-x="449" 
d="M165 272c-5 0 -10 2 -13 6c-4 3 -6 8 -6 13v42c0 15 3 29 10 43c7 13 15 25 26 36l34 31l33 29c10 9 19 18 25 30c8 10 11 21 11 32c0 19 -7 34 -21 48c-15 12 -34 19 -59 19c-14 0 -27 -2 -40 -7c-13 -4 -22 -9 -29 -14s-14 -11 -22 -18s-14 -11 -17 -13
c-8 -5 -15 -5 -22 1l-47 46c-4 4 -6 8 -6 13s2 9 6 13c2 3 5 6 8 10c4 4 12 11 24 21s25 19 39 27c14 7 32 14 55 20c23 7 46 10 70 10c53 0 99 -16 137 -48s57 -72 57 -120c0 -23 -5 -44 -16 -63s-23 -36 -38 -49s-29 -26 -44 -37s-27 -23 -38 -34s-16 -22 -16 -33v-33
c0 -7 -2 -12 -5 -15c-3 -4 -8 -6 -15 -6h-81zM205 155c23 0 42 -8 59 -25c16 -16 24 -35 24 -58s-8 -42 -24 -58c-17 -16 -36 -24 -59 -24s-42 8 -58 24s-24 35 -24 58s8 42 25 58c16 17 35 25 57 25z" />
    <glyph glyph-name="at" unicode="@" horiz-adv-x="986" 
d="M32 223c0 71 12 136 35 196s55 111 97 155c40 42 91 76 150 100s124 36 194 36c68 0 130 -11 185 -32s101 -51 137 -88c37 -38 65 -83 84 -134c20 -52 30 -108 30 -168c0 -28 -2 -55 -7 -82s-13 -53 -25 -80c-11 -27 -26 -50 -42 -70c-18 -19 -39 -35 -65 -48
c-26 -12 -55 -18 -88 -18c-60 0 -100 26 -119 78h-8c-11 -23 -28 -41 -51 -56s-49 -22 -79 -22c-52 0 -95 21 -130 62c-34 41 -51 91 -51 149c0 60 17 110 52 149c35 40 79 60 132 60c44 0 84 -20 121 -59c1 4 3 9 5 15c2 7 3 11 5 13c0 2 2 5 4 9c3 3 5 6 8 6c2 2 5 3 10 4
c4 1 9 2 15 2h17c5 0 10 -2 14 -6c3 -3 5 -8 5 -13v-183c0 -41 5 -69 17 -84c10 -15 26 -22 45 -22c21 0 40 9 55 27c16 18 28 41 36 70s12 60 12 94c0 47 -7 89 -21 129c-14 38 -34 73 -61 102s-61 52 -103 68c-42 17 -90 25 -143 25c-111 0 -199 -35 -264 -103
c-66 -70 -99 -163 -99 -281c0 -80 22 -151 67 -213c44 -63 102 -109 174 -139c11 -5 15 -13 11 -24l-24 -63c-5 -11 -12 -15 -22 -11c-92 33 -167 91 -227 173c-58 82 -88 174 -88 277zM383 208c-2 -31 6 -58 23 -79c18 -21 39 -32 64 -32c29 0 51 10 64 31
c13 20 20 46 21 78v37c-3 15 -12 29 -29 44c-16 15 -35 22 -57 22c-24 0 -44 -9 -60 -28s-25 -43 -26 -73z" />
    <glyph glyph-name="A" unicode="A" 
d="M17 0c-7 0 -13 3 -16 8s-4 11 -1 18l311 673c4 7 10 11 17 11h10c8 0 14 -4 17 -11l308 -673c3 -7 2 -13 -1 -18s-9 -8 -16 -8h-87c-7 0 -13 2 -17 4c-4 4 -8 9 -12 16l-49 108h-299l-49 -108c-5 -13 -15 -20 -29 -20h-87zM231 239h201l-100 220h-3z" />
    <glyph glyph-name="B" unicode="B" horiz-adv-x="617" 
d="M91 19v662c0 5 2 10 5 13c4 4 9 6 14 6h229c60 0 110 -18 151 -53c40 -35 60 -79 60 -132c0 -35 -11 -67 -34 -96s-48 -50 -76 -63c15 -5 29 -12 43 -20c14 -10 28 -20 41 -33c14 -13 25 -29 34 -48c8 -19 12 -40 12 -62c0 -56 -21 -102 -63 -139
c-42 -36 -94 -54 -155 -54h-242c-5 0 -10 2 -14 6c-3 3 -5 8 -5 13zM220 406h107c25 0 46 9 62 26s24 39 24 64s-8 46 -24 62c-16 15 -37 23 -62 23h-107v-175zM220 118h121c25 0 47 9 64 26s26 39 26 65c0 24 -10 45 -31 61c-21 18 -44 26 -71 26h-109v-178z" />
    <glyph glyph-name="C" unicode="C" horiz-adv-x="684" 
d="M401 710c49 0 93 -8 131 -23c39 -15 76 -39 111 -70c4 -4 6 -9 7 -14c0 -5 -2 -10 -6 -14l-61 -63c-3 -4 -7 -6 -12 -6s-9 2 -13 6c-21 19 -45 33 -72 44c-27 10 -54 15 -82 15c-63 0 -116 -23 -158 -69c-44 -45 -65 -100 -65 -164c0 -41 10 -80 29 -115s46 -63 80 -85
c35 -20 73 -31 115 -31c55 0 106 19 153 57c4 3 8 5 13 4c5 0 9 -1 12 -4l62 -64c4 -4 6 -9 5 -14c0 -5 -2 -10 -6 -13c-67 -65 -148 -97 -243 -97c-65 0 -126 16 -181 48c-56 32 -100 75 -132 130s-48 115 -48 181s16 127 48 182s76 99 131 131s116 48 182 48z" />
    <glyph glyph-name="D" unicode="D" horiz-adv-x="738" 
d="M91 19v662c0 5 2 10 5 13c4 4 8 6 13 6h237c47 0 93 -9 136 -28s81 -44 112 -74c31 -32 56 -68 75 -112c19 -42 28 -88 28 -135c0 -64 -16 -123 -47 -177c-32 -53 -75 -96 -128 -127c-54 -31 -113 -47 -176 -47h-237c-5 0 -10 2 -13 6c-3 3 -5 8 -5 13zM220 122h114
c65 0 119 22 162 65c42 43 63 98 63 164c0 65 -21 120 -64 163s-96 65 -161 65h-114v-457z" />
    <glyph glyph-name="E" unicode="E" horiz-adv-x="588" 
d="M91 19v662c0 5 2 10 5 13c4 4 9 6 14 6h407c5 0 10 -2 13 -6c4 -4 6 -8 6 -13v-82c0 -5 -2 -10 -6 -13c-3 -4 -8 -6 -13 -6h-296v-164h247c5 0 10 -2 14 -6c3 -4 5 -8 5 -13v-83c0 -5 -2 -10 -5 -14c-4 -3 -9 -5 -14 -5h-247v-175h296c5 0 10 -2 13 -6c4 -4 6 -8 6 -13
v-82c0 -5 -2 -10 -6 -13c-3 -4 -8 -6 -13 -6h-407c-5 0 -10 2 -14 6c-3 3 -5 8 -5 13z" />
    <glyph glyph-name="F" unicode="F" horiz-adv-x="564" 
d="M91 19v662c0 5 2 10 5 13c4 4 9 6 14 6h407c5 0 10 -2 13 -6c4 -4 6 -8 6 -13v-82c0 -5 -2 -10 -6 -13c-3 -4 -8 -6 -13 -6h-296v-188h247c5 0 10 -2 14 -6c3 -4 5 -8 5 -13v-82c0 -5 -2 -10 -5 -13c-4 -4 -9 -6 -14 -6h-247v-253c0 -5 -2 -10 -5 -13c-4 -4 -9 -6 -14 -6
h-92c-5 0 -10 2 -14 6c-3 3 -5 8 -5 13z" />
    <glyph glyph-name="G" unicode="G" horiz-adv-x="712" 
d="M400 710c44 0 87 -8 129 -24s80 -39 115 -69c4 -4 6 -9 6 -14c1 -5 -1 -10 -5 -14l-62 -65c-8 -8 -17 -8 -26 0c-44 39 -94 58 -151 58c-41 0 -78 -11 -112 -32c-35 -21 -62 -50 -82 -85s-30 -74 -30 -115s10 -79 30 -114s47 -62 82 -84c35 -20 72 -31 113 -31
c37 0 77 8 119 25v85h-80c-5 0 -10 2 -14 5c-3 4 -5 8 -5 13v79c0 5 2 10 5 14c4 3 9 5 14 5h192c5 0 10 -2 13 -5c3 -4 5 -9 5 -14v-256c0 -7 -3 -12 -8 -16c-3 -1 -7 -4 -12 -7s-16 -9 -34 -16c-16 -7 -34 -14 -52 -19c-19 -6 -42 -11 -69 -16s-54 -7 -81 -7
c-65 0 -126 16 -180 47c-56 32 -99 75 -131 130s-48 115 -48 181s16 127 48 182s75 99 131 131c54 32 115 48 180 48z" />
    <glyph glyph-name="H" unicode="H" horiz-adv-x="769" 
d="M91 19v662c0 5 2 10 5 13c4 4 9 6 14 6h93c5 0 10 -2 13 -6c4 -4 6 -8 6 -13v-265h326v265c0 5 2 10 6 13c3 4 8 6 13 6h92c5 0 10 -2 13 -6c4 -4 6 -8 6 -13v-662c0 -5 -2 -10 -6 -13c-4 -4 -8 -6 -13 -6h-92c-5 0 -10 2 -13 6c-4 4 -6 8 -6 13v276h-326v-276
c0 -5 -2 -10 -6 -13c-3 -4 -8 -6 -13 -6h-93c-5 0 -10 2 -14 6c-3 3 -5 8 -5 13z" />
    <glyph glyph-name="I" unicode="I" horiz-adv-x="313" 
d="M91 19v662c0 5 2 10 5 13c4 4 9 6 14 6h93c5 0 10 -2 13 -6c4 -4 6 -8 6 -13v-662c0 -5 -2 -10 -6 -13c-4 -4 -8 -6 -13 -6h-93c-5 0 -10 2 -14 6c-3 3 -5 8 -5 13z" />
    <glyph glyph-name="J" unicode="J" horiz-adv-x="418" 
d="M-16 63c-5 9 -5 17 2 25l52 53c10 9 20 9 30 -1c20 -21 42 -32 66 -32c21 0 40 9 56 26s24 42 24 75v472c0 5 2 10 6 13c3 4 8 6 13 6h94c5 0 10 -2 13 -6c4 -4 6 -8 6 -13v-472c0 -68 -20 -121 -60 -161c-40 -38 -90 -58 -150 -58c-62 0 -113 24 -152 73z" />
    <glyph glyph-name="K" unicode="K" horiz-adv-x="655" 
d="M91 24v652c0 7 2 12 7 17c4 5 10 7 17 7h88c7 0 12 -2 17 -7s7 -10 7 -17v-270l252 284c5 7 12 10 19 10h100c9 0 16 -4 20 -12c4 -9 3 -17 -4 -24l-261 -294l280 -335c5 -7 6 -14 3 -23c-4 -8 -11 -12 -21 -12h-109c-9 0 -15 2 -18 7l-261 322v-305c0 -7 -2 -12 -7 -17
s-10 -7 -17 -7h-88c-7 0 -12 2 -17 7s-7 10 -7 17z" />
    <glyph glyph-name="L" unicode="L" horiz-adv-x="505" 
d="M91 19v662c0 5 2 10 5 13c4 4 9 6 14 6h92c5 0 10 -2 14 -6c3 -4 5 -8 5 -13v-561h255c5 0 10 -2 14 -6c3 -4 5 -8 5 -13v-82c0 -5 -2 -10 -5 -13c-4 -4 -9 -6 -14 -6h-366c-5 0 -10 2 -14 6c-3 3 -5 8 -5 13z" />
    <glyph glyph-name="M" unicode="M" horiz-adv-x="873" 
d="M45 23l119 672c1 10 7 15 18 15h16c8 0 14 -3 17 -10l220 -472h3l220 472c3 7 9 10 17 10h16c11 0 17 -5 18 -15l118 -672c1 -7 0 -12 -3 -17c-3 -4 -8 -6 -15 -6h-91c-4 0 -8 2 -12 5s-6 7 -7 10l-59 379h-3l-175 -393c-3 -7 -8 -11 -17 -11h-18c-8 0 -14 4 -17 11
l-177 393h-3l-58 -379c-1 -4 -3 -7 -6 -11c-4 -2 -8 -4 -12 -4h-90c-7 0 -12 2 -16 6c-3 5 -4 10 -3 17z" />
    <glyph glyph-name="N" unicode="N" horiz-adv-x="773" 
d="M91 19v673c0 5 2 10 5 13c4 3 9 5 14 5h25l416 -442h1v413c0 5 2 10 6 13c3 4 8 6 13 6h92c5 0 10 -2 13 -6c4 -4 6 -8 6 -13v-673c0 -5 -2 -10 -6 -13s-8 -5 -13 -5h-24l-418 459h-1v-430c0 -5 -2 -10 -6 -13c-3 -4 -8 -6 -13 -6h-91c-5 0 -10 2 -14 6c-3 3 -5 8 -5 13z
" />
    <glyph glyph-name="O" unicode="O" horiz-adv-x="800" 
d="M88 168c-31 55 -47 115 -47 181s16 127 47 182c32 55 76 99 131 131s116 48 181 48s126 -16 181 -48s99 -76 131 -131s48 -116 48 -182s-16 -126 -48 -181s-76 -98 -131 -130s-116 -48 -181 -48s-126 16 -181 48s-99 75 -131 130zM171 349c0 -63 23 -117 67 -161
c46 -46 99 -68 162 -68c41 0 80 10 115 31s63 49 84 83c21 36 31 74 31 115s-10 80 -31 115c-21 36 -49 64 -84 85s-74 31 -115 31s-80 -10 -115 -31s-63 -49 -83 -85c-21 -35 -31 -74 -31 -115z" />
    <glyph glyph-name="P" unicode="P" horiz-adv-x="592" 
d="M91 19v662c0 5 2 10 5 13c4 4 9 6 14 6h235c61 0 114 -22 158 -65s66 -95 66 -156c0 -62 -22 -115 -65 -159c-44 -44 -97 -66 -158 -66h-125v-235c0 -5 -2 -10 -5 -13c-4 -4 -9 -6 -14 -6h-92c-5 0 -10 2 -14 6c-3 3 -5 8 -5 13zM221 376h116c28 0 52 10 73 30
c20 20 30 45 30 74c0 27 -10 50 -30 69s-44 28 -73 28h-116v-201z" />
    <glyph glyph-name="Q" unicode="Q" horiz-adv-x="801" 
d="M760 349c0 -67 -18 -129 -53 -185c-35 -58 -83 -102 -142 -135l125 -197c4 -7 4 -13 1 -20s-9 -10 -17 -10h-106c-3 0 -6 1 -9 3s-6 4 -7 7l-107 181c-16 -2 -31 -3 -45 -3c-65 0 -126 16 -181 48s-99 75 -131 130c-31 55 -47 115 -47 181s16 127 47 182
c32 55 76 99 131 131s116 48 181 48s126 -16 181 -48s99 -76 131 -131s48 -116 48 -182zM171 349c0 -63 23 -117 67 -161c46 -46 99 -68 162 -68c41 0 80 10 115 31s63 49 84 83c21 36 31 74 31 115s-10 80 -31 115c-21 36 -49 64 -84 85s-74 31 -115 31s-80 -10 -115 -31
s-63 -49 -83 -85c-21 -35 -31 -74 -31 -115z" />
    <glyph glyph-name="R" unicode="R" horiz-adv-x="666" 
d="M91 19v662c0 5 2 10 5 13c4 4 9 6 14 6h286c60 0 111 -21 154 -63s64 -93 64 -152c0 -45 -14 -86 -40 -121c-28 -36 -63 -63 -108 -81l137 -254c4 -7 4 -13 1 -19c-4 -7 -10 -10 -18 -10h-105c-8 0 -13 3 -16 9l-133 265h-111v-255c0 -5 -2 -10 -5 -13
c-4 -4 -9 -6 -14 -6h-92c-5 0 -10 2 -14 6c-3 3 -5 8 -5 13zM222 381h163c27 0 50 10 69 30c20 20 30 44 30 72c0 27 -10 49 -30 69c-19 18 -42 28 -69 28h-163v-199z" />
    <glyph glyph-name="S" unicode="S" horiz-adv-x="542" 
d="M55 68c-5 5 -9 10 -9 12c-2 4 0 9 4 18l36 62c4 7 10 10 17 12c7 0 13 -1 17 -5l5 -3c3 -3 7 -5 11 -8c5 -3 10 -6 16 -10c7 -4 14 -8 21 -11s15 -7 23 -11s16 -7 24 -10c9 -3 18 -5 26 -6c9 -2 18 -3 25 -3c26 0 48 7 65 23c17 14 26 33 26 54c0 25 -10 46 -31 66
c-21 18 -53 37 -96 54c-21 8 -39 16 -56 26c-17 8 -33 20 -51 32c-16 14 -31 27 -42 42c-12 15 -22 32 -28 52c-8 20 -11 41 -11 64s5 46 13 68c10 21 23 42 40 61s41 35 70 46c30 11 64 17 102 17c24 0 48 -3 71 -8s44 -12 61 -20l42 -22c10 -6 19 -12 26 -17
c5 -3 9 -7 10 -15c1 -6 0 -13 -4 -18l-38 -57c-4 -7 -9 -11 -16 -13c-7 -3 -13 -2 -19 1c-59 37 -105 55 -139 55c-27 0 -48 -7 -64 -22s-24 -31 -24 -48c0 -23 9 -43 28 -60c19 -18 49 -35 90 -52c23 -9 42 -18 60 -26c16 -8 35 -19 55 -33s36 -28 49 -43s23 -33 32 -54
c9 -22 13 -45 13 -70c0 -53 -21 -100 -64 -139s-98 -59 -166 -59c-29 0 -57 3 -83 9c-27 6 -49 14 -68 23c-18 9 -32 18 -43 25s-19 14 -26 21z" />
    <glyph glyph-name="T" unicode="T" horiz-adv-x="501" 
d="M185 19v561h-153c-5 0 -10 2 -14 6c-3 4 -5 8 -5 13v82c0 5 2 10 5 13c4 4 9 6 14 6h437c5 0 10 -2 13 -6c4 -4 6 -8 6 -13v-82c0 -5 -2 -10 -6 -13c-3 -4 -8 -6 -13 -6h-153v-561c0 -5 -2 -10 -6 -13c-4 -4 -8 -6 -13 -6h-93c-5 0 -10 2 -14 6c-3 3 -5 8 -5 13z" />
    <glyph glyph-name="U" unicode="U" horiz-adv-x="719" 
d="M81 265v416c0 5 2 10 5 13c4 4 9 6 14 6h95c5 0 10 -2 13 -6c4 -4 6 -8 6 -13v-409c0 -43 14 -80 40 -108c28 -30 62 -44 105 -44s78 14 105 44c27 28 41 64 41 107v410c0 5 2 10 5 13c4 4 9 6 14 6h95c5 0 10 -2 13 -6c4 -4 6 -8 6 -13v-416c0 -50 -12 -96 -36 -138
c-25 -42 -58 -75 -102 -100c-42 -25 -90 -37 -141 -37s-98 12 -141 37s-76 58 -100 100c-25 42 -37 88 -37 138z" />
    <glyph glyph-name="V" unicode="V" 
d="M309 1l-309 673c-3 7 -2 13 1 18s9 8 16 8h102c8 0 14 -4 17 -11l192 -430h7l192 430c3 7 8 11 17 11h102c7 0 13 -3 16 -8c4 -5 4 -11 1 -18l-310 -673c-4 -7 -10 -11 -17 -11h-10c-7 0 -13 4 -17 11z" />
    <glyph glyph-name="W" unicode="W" horiz-adv-x="899" 
d="M218 4l-189 672c-2 7 -1 12 2 17s9 7 16 7h92c4 0 8 -1 11 -4c4 -3 6 -6 7 -10l104 -399h4l159 412c3 7 8 11 17 11h18c9 0 15 -4 17 -11l160 -412h4l102 399c1 4 4 7 7 10s7 4 11 4h92c7 0 12 -2 16 -7c3 -5 4 -10 2 -17l-189 -672c-1 -4 -4 -7 -7 -10s-7 -4 -11 -4h-16
c-9 0 -15 4 -17 11l-179 453h-5l-177 -453c-4 -7 -10 -11 -17 -11h-16c-4 0 -8 1 -11 4s-6 6 -7 10z" />
    <glyph glyph-name="X" unicode="X" horiz-adv-x="632" 
d="M30 28l208 331l-200 313c-4 7 -4 13 -1 19s9 9 18 9h116c6 0 11 -3 16 -9l128 -212h1l130 212c3 6 8 9 16 9h116c8 0 14 -3 18 -9c3 -6 3 -12 -1 -19l-201 -313l208 -331c4 -7 4 -13 1 -19s-9 -9 -18 -9h-108c-8 0 -14 3 -17 9l-143 229h-3l-141 -229
c-5 -6 -10 -9 -17 -9h-108c-9 0 -15 3 -18 9c-4 6 -4 12 0 19z" />
    <glyph glyph-name="Y" unicode="Y" horiz-adv-x="583" 
d="M225 19v318l-228 334c-4 7 -4 13 -1 19c3 7 9 10 17 10h102c6 0 11 -3 16 -9l160 -230l160 230c4 6 9 9 16 9h103c8 0 14 -3 17 -10c3 -6 3 -12 -1 -19l-231 -333v-319c0 -5 -2 -10 -5 -13c-4 -4 -9 -6 -14 -6h-92c-5 0 -10 2 -14 6c-3 3 -5 8 -5 13z" />
    <glyph glyph-name="Z" unicode="Z" horiz-adv-x="538" 
d="M25 19v18l298 538v4h-250c-5 0 -10 2 -13 5c-4 4 -6 9 -6 14v83c0 5 2 10 6 13c4 4 8 6 13 6h418c5 0 10 -2 13 -6c4 -4 6 -8 6 -13v-13l-294 -545v-2h255c5 0 10 -2 13 -5c4 -4 6 -9 6 -14v-83c0 -5 -2 -10 -6 -13c-3 -4 -8 -6 -13 -6h-427c-5 0 -10 2 -14 6
c-3 3 -5 8 -5 13z" />
    <glyph glyph-name="bracketleft" unicode="[" horiz-adv-x="349" 
d="M181 -200h130c5 0 10 -2 13 -5c4 -3 6 -8 6 -13v-63c0 -5 -2 -10 -6 -13c-4 -4 -8 -6 -13 -6h-226c-5 0 -10 2 -13 6c-4 4 -6 8 -6 13v962c0 5 2 10 6 13c4 4 8 6 13 6h226c5 0 10 -2 13 -6c4 -4 6 -8 6 -13v-62c0 -5 -2 -10 -6 -13c-4 -4 -8 -6 -13 -6h-130v-800z" />
    <glyph glyph-name="backslash" unicode="\" horiz-adv-x="357" 
d="M215 13l-195 662c-2 7 -1 13 2 17c4 6 9 8 16 8h76c4 0 8 -1 11 -4s6 -6 7 -9l196 -662c2 -7 1 -13 -2 -17c-4 -6 -9 -8 -16 -8h-77c-4 0 -8 1 -11 4s-6 6 -7 9z" />
    <glyph glyph-name="bracketright" unicode="]" horiz-adv-x="349" 
d="M38 -200h130v800h-130c-5 0 -10 2 -14 6c-3 3 -5 8 -5 13v62c0 5 2 10 5 13c4 4 9 6 14 6h226c5 0 10 -2 14 -6c3 -4 5 -8 5 -13v-962c0 -5 -2 -10 -5 -13c-4 -4 -9 -6 -14 -6h-226c-5 0 -10 2 -14 6c-3 4 -5 8 -5 13v63c0 5 2 10 5 13c4 3 9 5 14 5z" />
    <glyph glyph-name="asciicircum" unicode="^" horiz-adv-x="524" 
d="M53 385c-8 0 -14 3 -17 9s-3 12 1 19l208 291c4 7 10 10 17 10h5c7 0 13 -3 17 -10l203 -291c4 -7 4 -13 1 -19s-9 -9 -17 -9h-69c-6 0 -11 3 -16 9l-123 169l-125 -169c-5 -6 -10 -9 -16 -9h-69z" />
    <glyph glyph-name="underscore" unicode="_" horiz-adv-x="415" 
d="M19 -29c0 5 2 10 5 13c4 4 9 6 14 6h339c5 0 10 -2 13 -6c4 -3 6 -8 6 -13v-39c0 -5 -2 -10 -6 -13c-3 -3 -8 -5 -13 -5h-339c-5 0 -10 2 -14 5c-3 3 -5 8 -5 13v39z" />
    <glyph glyph-name="grave" unicode="`" horiz-adv-x="302" 
d="M234 528l-175 77c-11 5 -13 14 -6 27l28 51c3 4 7 6 11 7c6 0 10 -1 15 -4l164 -97c3 -1 6 -4 7 -7c1 -4 1 -8 -1 -12l-18 -36c-4 -9 -12 -11 -25 -6z" />
    <glyph glyph-name="a" unicode="a" horiz-adv-x="427" 
d="M31 127c0 37 14 67 43 91c28 23 67 35 117 35c12 0 24 -1 37 -3c12 -1 21 -3 27 -5l9 -3c0 25 -4 43 -12 54c-8 10 -21 15 -40 15c-17 0 -37 -1 -60 -5c-23 -2 -40 -6 -52 -10c-13 -4 -21 2 -23 18l-9 52c-3 13 2 21 14 25c4 1 12 3 24 7c12 2 29 5 50 8c22 3 43 4 62 4
c31 0 56 -4 77 -12c21 -7 36 -19 47 -34c11 -16 18 -34 23 -54s7 -45 7 -74v-217c0 -5 -2 -10 -6 -13c-4 -4 -8 -6 -13 -6h-36c-7 0 -12 5 -17 14l-12 27c-37 -34 -78 -51 -122 -51c-40 0 -72 12 -98 37c-24 25 -37 58 -37 100zM141 127c0 -15 5 -27 15 -37
c9 -10 22 -15 37 -15s29 5 43 13c13 10 22 18 26 26v55c-18 8 -37 12 -56 12s-35 -5 -47 -15s-18 -23 -18 -39z" />
    <glyph glyph-name="b" unicode="b" horiz-adv-x="500" 
d="M60 19v662c0 5 2 10 6 13c4 4 8 6 13 6h85c5 0 10 -2 14 -6c3 -4 5 -8 5 -13v-289c31 12 60 18 89 18c59 0 106 -20 143 -60s55 -90 55 -150c0 -58 -18 -108 -56 -148c-36 -42 -82 -62 -136 -62c-16 0 -31 2 -46 6s-27 9 -37 15s-19 12 -26 18s-13 11 -17 15l-5 6
l-10 -31c-3 -13 -10 -19 -19 -19h-39c-5 0 -10 2 -13 6c-4 3 -6 8 -6 13zM179 163c5 -16 14 -31 28 -45c14 -13 33 -20 56 -20c26 0 48 10 65 30s26 44 26 72s-9 52 -28 72s-42 30 -69 30c-15 0 -29 -2 -41 -6c-14 -4 -23 -8 -28 -11l-9 -6v-116z" />
    <glyph glyph-name="c" unicode="c" horiz-adv-x="426" 
d="M29 200c0 58 21 108 63 148c43 42 93 62 150 62c60 0 109 -24 148 -71c4 -4 5 -9 4 -15c-1 -5 -4 -10 -9 -13l-46 -44c-7 -7 -15 -6 -25 3c-19 21 -42 32 -69 32s-51 -10 -69 -30c-20 -20 -29 -44 -29 -72s9 -52 29 -72c18 -20 41 -30 68 -30c12 0 23 2 34 6s19 8 24 12
s11 10 18 17c2 1 3 2 4 3c8 8 16 9 25 3l43 -37c11 -9 14 -19 7 -28c-36 -56 -89 -84 -158 -84c-57 0 -107 20 -149 61s-63 90 -63 149z" />
    <glyph glyph-name="d" unicode="d" horiz-adv-x="500" 
d="M30 200c0 60 18 110 55 150s84 60 143 60c28 0 58 -6 89 -18v289c0 5 2 10 5 13c4 4 9 6 14 6h85c5 0 10 -2 13 -6c4 -4 6 -8 6 -13v-662c0 -5 -2 -10 -6 -13c-4 -4 -8 -6 -13 -6h-39c-9 0 -16 6 -19 19l-10 31c-1 -1 -3 -3 -5 -6c-3 -3 -8 -8 -17 -14
c-9 -8 -18 -14 -27 -19s-21 -10 -36 -15c-15 -4 -30 -6 -46 -6c-54 0 -100 20 -136 62c-38 40 -56 90 -56 148zM237 98c24 0 43 7 57 20c13 14 22 29 27 45v116l-9 6c-4 3 -13 6 -26 11c-14 4 -28 6 -43 6c-28 0 -51 -10 -69 -30c-19 -20 -28 -44 -28 -72s9 -52 26 -72
s39 -30 65 -30z" />
    <glyph glyph-name="e" unicode="e" horiz-adv-x="445" 
d="M30 200c0 57 19 107 58 148s87 62 146 62c52 0 96 -18 132 -53c37 -35 55 -80 55 -133c0 -9 -1 -18 -2 -27c0 -5 -2 -9 -6 -13c-4 -2 -8 -4 -13 -4h-256c1 -23 11 -43 28 -60c18 -18 41 -27 68 -27c29 0 55 8 78 25c11 7 20 7 26 0l41 -47c4 -4 6 -8 6 -13
c0 -4 -2 -8 -7 -13c-39 -37 -88 -55 -149 -55c-59 0 -107 20 -147 61c-38 41 -58 90 -58 149zM153 250h151c-1 19 -9 35 -23 48s-31 20 -50 20c-20 0 -37 -7 -52 -20s-23 -29 -26 -48z" />
    <glyph glyph-name="f" unicode="f" horiz-adv-x="344" 
d="M84 19v276h-34c-5 0 -10 2 -14 5c-3 4 -5 9 -5 14v67c0 5 2 10 5 13c4 4 9 6 14 6h34v108c0 64 17 114 52 149s80 53 135 53c24 0 47 -4 69 -12s38 -17 49 -27c3 -3 5 -6 5 -11c2 -4 1 -8 -1 -12l-34 -64c-2 -4 -5 -6 -10 -8c-5 0 -9 0 -14 3c-21 13 -41 20 -59 20
c-21 0 -38 -8 -50 -23c-11 -16 -17 -39 -17 -68v-108h100c5 0 10 -2 13 -6c4 -3 6 -8 6 -13v-67c0 -5 -2 -10 -6 -14c-3 -3 -8 -5 -13 -5h-100v-276c0 -5 -2 -10 -5 -13c-4 -4 -9 -6 -14 -6h-87c-5 0 -10 2 -13 6c-4 3 -6 8 -6 13z" />
    <glyph glyph-name="g" unicode="g" horiz-adv-x="462" 
d="M18 30c0 15 3 28 8 42c5 12 12 23 19 32c7 8 15 15 22 21s13 10 18 13l8 4c-3 3 -5 6 -9 11c-2 5 -7 15 -12 32c-6 17 -9 34 -9 51c0 47 17 88 51 122c33 35 74 52 123 52h182c5 0 10 -2 13 -6c4 -3 6 -8 6 -13v-33c0 -9 -4 -15 -11 -17l-56 -18l5 -5c1 -1 4 -5 9 -11
s9 -13 12 -19c3 -8 7 -17 9 -29c4 -12 5 -25 5 -38c0 -41 -16 -78 -47 -109c-32 -32 -73 -48 -124 -48c-15 0 -31 1 -48 4c-18 3 -29 4 -32 4c-8 0 -16 -4 -24 -11c-9 -7 -13 -16 -13 -27s4 -19 11 -25c8 -6 18 -9 29 -9h128c47 0 86 -13 117 -38c32 -25 48 -59 48 -102
c0 -49 -19 -89 -58 -122c-38 -32 -92 -48 -161 -48c-35 0 -67 4 -94 12s-49 19 -64 32c-15 14 -27 29 -35 44c-7 16 -11 32 -11 49c0 39 20 71 60 95v3c-5 1 -12 4 -19 9c-7 4 -16 10 -24 18c-10 8 -17 19 -23 32s-9 29 -9 46zM190 282c-13 -13 -20 -30 -20 -51
s7 -38 20 -51c13 -14 30 -21 50 -21s36 7 50 21c12 13 19 30 19 51s-7 38 -19 51c-14 14 -30 21 -50 21s-37 -7 -50 -21zM148 -151c0 -17 8 -31 24 -43c16 -10 37 -16 64 -16c28 0 50 6 68 17c16 11 25 27 25 46c0 12 -5 23 -17 33c-10 11 -29 16 -56 16
c-25 0 -46 -1 -65 -4c-4 -1 -8 -3 -12 -5s-9 -5 -13 -9c-6 -4 -10 -9 -13 -15s-5 -13 -5 -20z" />
    <glyph glyph-name="h" unicode="h" horiz-adv-x="520" 
d="M60 19v662c0 5 2 10 6 13c4 4 8 6 13 6h85c5 0 10 -2 14 -6c3 -4 5 -8 5 -13v-304c12 9 27 17 46 23c19 7 39 10 60 10c31 0 58 -6 81 -17c24 -11 43 -26 56 -45c14 -19 24 -40 32 -63c6 -23 10 -48 10 -74v-192c0 -5 -2 -10 -6 -13c-4 -4 -8 -6 -13 -6h-81
c-5 0 -10 2 -14 6c-3 4 -5 8 -5 13v193c0 27 -7 49 -21 66c-15 16 -34 24 -58 24c-23 0 -42 -6 -56 -20c-16 -12 -26 -30 -31 -51v-212c0 -13 -7 -19 -21 -19h-83c-5 0 -10 2 -13 6c-4 3 -6 8 -6 13z" />
    <glyph glyph-name="i" unicode="i" horiz-adv-x="241" 
d="M119 542c-19 0 -35 7 -48 20s-20 30 -20 49s7 36 19 49c14 13 30 20 49 20s36 -7 49 -20c14 -13 21 -30 21 -49s-7 -36 -21 -49c-13 -13 -30 -20 -49 -20zM60 19v362c0 5 2 10 6 13c4 4 8 6 13 6h83c5 0 10 -2 14 -6c3 -3 5 -8 5 -13v-362c0 -5 -2 -10 -5 -13
c-4 -4 -9 -6 -14 -6h-83c-5 0 -10 2 -13 6c-4 3 -6 8 -6 13z" />
    <glyph glyph-name="j" unicode="j" horiz-adv-x="242" 
d="M120 542c-19 0 -35 7 -48 20s-20 30 -20 49s7 36 20 49s29 20 48 20s36 -7 50 -20c13 -13 20 -30 20 -49s-7 -36 -20 -49c-14 -13 -31 -20 -50 -20zM60 -108v489c0 5 2 10 6 13c4 4 8 6 13 6h84c5 0 10 -2 13 -6c4 -3 6 -8 6 -13v-489c0 -64 -17 -114 -52 -149
s-79 -53 -134 -53c-24 0 -47 4 -70 12c-22 9 -38 18 -48 27c-3 3 -5 6 -6 11s0 9 2 12l33 64c2 4 5 6 10 8c5 0 9 0 14 -3c21 -13 41 -20 59 -20c23 0 40 8 52 23c12 16 18 39 18 68z" />
    <glyph glyph-name="k" unicode="k" horiz-adv-x="489" 
d="M60 19v662c0 5 2 10 6 13c4 4 8 6 13 6h85c5 0 10 -2 14 -6c3 -4 5 -8 5 -13v-433l138 140c9 8 18 12 25 12h91c8 0 13 -4 17 -10c2 -8 1 -14 -4 -19l-149 -152l178 -191c5 -5 7 -11 3 -18c-2 -7 -8 -10 -16 -10h-108c-7 0 -13 3 -17 8l-158 180v-169c0 -5 -2 -10 -5 -13
c-4 -4 -9 -6 -14 -6h-85c-5 0 -10 2 -13 6c-4 3 -6 8 -6 13z" />
    <glyph glyph-name="l" unicode="l" horiz-adv-x="242" 
d="M60 19v662c0 5 2 10 6 13c4 4 8 6 13 6h84c5 0 10 -2 13 -6c4 -4 6 -8 6 -13v-662c0 -5 -2 -10 -6 -13c-4 -4 -8 -6 -13 -6h-84c-5 0 -10 2 -13 6c-4 3 -6 8 -6 13z" />
    <glyph glyph-name="m" unicode="m" horiz-adv-x="779" 
d="M60 19v362c0 5 2 10 6 13c4 4 8 6 13 6h37c9 0 15 -4 17 -11l14 -38c13 15 30 28 53 41c23 12 50 18 81 18c53 0 96 -21 130 -62c5 5 12 11 19 17c8 6 18 13 30 20s26 13 42 18c17 5 33 7 50 7c31 0 58 -5 81 -16s42 -26 55 -45s23 -41 30 -63c6 -24 9 -49 9 -76v-191
c0 -5 -2 -10 -5 -13c-4 -4 -9 -6 -14 -6h-81c-5 0 -10 2 -13 6c-4 4 -6 8 -6 13v198c0 27 -6 47 -19 63c-13 14 -31 22 -56 22c-11 0 -21 -1 -31 -4c-9 -3 -17 -6 -24 -10c-6 -5 -11 -9 -16 -14c-5 -4 -8 -7 -10 -10l-3 -4c1 -13 1 -26 1 -38v-203c0 -5 -2 -10 -6 -13
c-4 -4 -8 -6 -13 -6h-75c-5 0 -10 2 -14 6c-3 4 -5 8 -5 13v198c0 27 -6 47 -19 63c-12 14 -30 22 -55 22c-23 0 -41 -6 -55 -19c-13 -13 -23 -27 -29 -44v-220c0 -5 -2 -10 -5 -13c-4 -4 -9 -6 -14 -6h-81c-5 0 -10 2 -13 6c-4 3 -6 8 -6 13z" />
    <glyph glyph-name="n" unicode="n" horiz-adv-x="519" 
d="M60 19v362c0 5 2 10 6 13c4 4 8 6 13 6h38c8 0 14 -4 17 -12l14 -37c5 5 12 11 18 17l28 18c12 7 26 12 43 17s34 7 52 7c31 0 58 -5 81 -16s42 -26 56 -44c13 -20 24 -40 30 -64c8 -22 11 -48 11 -75v-192c0 -5 -2 -10 -5 -13c-4 -4 -9 -6 -14 -6h-82c-5 0 -10 2 -14 6
c-3 4 -5 8 -5 13v198c0 27 -7 47 -19 63c-14 14 -32 22 -56 22s-44 -6 -60 -20c-17 -12 -28 -27 -34 -43v-220c0 -7 -2 -12 -6 -15c-3 -2 -10 -4 -19 -4h-74c-5 0 -10 2 -13 6c-4 3 -6 8 -6 13z" />
    <glyph glyph-name="o" unicode="o" horiz-adv-x="468" 
d="M29 201c0 57 20 106 61 147c40 41 88 62 144 62s104 -21 144 -62c41 -41 61 -90 61 -147s-20 -107 -61 -149c-40 -41 -88 -62 -144 -62s-104 21 -144 62c-41 42 -61 92 -61 149zM138 201c0 -29 9 -53 28 -73s41 -30 68 -30s49 10 68 30s28 44 28 73c0 28 -9 52 -28 71
c-19 20 -41 30 -68 30s-49 -10 -68 -30c-19 -19 -28 -43 -28 -71z" />
    <glyph glyph-name="p" unicode="p" horiz-adv-x="500" 
d="M183 12v-293c0 -13 -8 -19 -24 -19h-80c-5 0 -10 2 -13 6c-4 4 -6 8 -6 13v662c0 5 2 10 6 13c4 4 8 6 13 6h39c8 0 14 -4 17 -12l13 -33c9 13 26 25 50 37s50 18 79 18c55 0 101 -20 137 -62c38 -40 56 -90 56 -148c0 -59 -19 -108 -58 -149s-85 -61 -140 -61
c-17 0 -34 2 -50 7c-17 5 -30 10 -39 15zM178 121l9 -6c4 -3 13 -6 27 -11c13 -4 27 -6 42 -6c28 0 51 10 70 30c18 20 27 44 27 72c0 29 -9 53 -27 72c-17 20 -39 30 -66 30c-23 0 -41 -7 -55 -20s-23 -27 -27 -41v-120z" />
    <glyph glyph-name="q" unicode="q" horiz-adv-x="500" 
d="M30 200c0 58 18 108 56 148c36 42 82 62 137 62c29 0 56 -6 79 -18c24 -12 41 -24 50 -37l13 33c3 8 8 12 17 12h39c5 0 10 -2 13 -6c4 -3 6 -8 6 -13v-662c0 -5 -2 -10 -6 -13c-4 -4 -8 -6 -13 -6h-80c-16 0 -24 6 -24 19v293c-9 -5 -22 -10 -39 -15
c-16 -5 -33 -7 -50 -7c-55 0 -101 20 -140 61s-58 90 -58 149zM147 198c0 -28 9 -52 27 -71c19 -19 42 -29 70 -29c15 0 29 2 42 6s23 8 28 11l8 6v120c-4 15 -13 29 -27 41c-14 14 -32 20 -55 20c-27 0 -49 -10 -66 -30c-18 -21 -27 -45 -27 -74z" />
    <glyph glyph-name="r" unicode="r" horiz-adv-x="341" 
d="M60 19v362c0 5 2 10 6 13c4 4 8 6 13 6h38c9 0 15 -4 18 -13l14 -39c7 9 14 18 22 26s21 16 37 24c18 8 35 12 54 12c25 0 46 -4 62 -11s21 -17 15 -29l-37 -65c-3 -5 -6 -8 -10 -9c-5 -2 -9 -2 -13 0c-12 4 -22 6 -29 6c-17 0 -32 -4 -45 -13s-21 -18 -26 -28v-242
c0 -13 -8 -19 -23 -19h-77c-5 0 -10 2 -13 6c-4 3 -6 8 -6 13z" />
    <glyph glyph-name="s" unicode="s" horiz-adv-x="364" 
d="M44 27c-8 7 -10 14 -6 21l27 54c2 5 5 8 10 10c5 0 9 0 13 -3c30 -16 60 -24 91 -24c23 0 34 8 34 25c0 9 -5 17 -13 24c-10 7 -27 15 -54 26c-39 15 -67 33 -86 54c-18 21 -27 47 -27 78c0 33 13 61 37 84c26 23 62 34 110 34c51 0 92 -10 123 -31c5 -3 8 -7 10 -11
c2 -6 2 -11 -1 -16l-25 -51c-5 -9 -13 -11 -24 -7c-30 14 -58 21 -83 21c-23 0 -34 -8 -34 -23c0 -9 7 -17 20 -24c5 -3 14 -7 28 -12c3 -1 6 -2 7 -3c21 -8 39 -16 54 -23c15 -8 29 -18 41 -29c14 -11 23 -24 30 -39s10 -31 10 -50c0 -35 -14 -64 -43 -87s-67 -35 -116 -35
c-30 0 -57 4 -79 12c-24 7 -41 16 -54 25z" />
    <glyph glyph-name="t" unicode="t" horiz-adv-x="345" 
d="M81 119v176h-34c-5 0 -10 2 -13 5c-3 4 -5 9 -5 14v67c0 5 2 10 5 13c4 4 8 6 13 6h34v111c0 5 2 10 5 13c4 4 9 6 14 6l82 1c5 0 10 -2 13 -5c3 -4 5 -9 5 -14v-112h88c5 0 10 -2 14 -6c3 -3 5 -8 5 -13v-67c0 -5 -2 -10 -5 -14c-4 -3 -9 -5 -14 -5h-88v-160
c0 -13 3 -21 8 -25c5 -5 13 -7 23 -7c13 0 29 4 49 11c11 4 19 0 22 -11l20 -63c2 -5 2 -10 0 -14c-3 -5 -6 -8 -11 -10c-3 -1 -10 -4 -21 -8c-12 -4 -28 -8 -47 -12s-36 -6 -51 -6c-74 0 -111 43 -111 129z" />
    <glyph glyph-name="u" unicode="u" horiz-adv-x="503" 
d="M53 187v194c0 5 2 10 5 13c4 4 9 6 14 6h82c5 0 10 -2 14 -6c3 -3 5 -8 5 -13v-197c0 -27 7 -48 19 -63c14 -15 31 -23 54 -23c20 0 38 8 52 23c16 15 25 33 28 52v208c0 7 2 12 5 15s9 4 17 4h76c5 0 10 -2 14 -6c3 -3 5 -8 5 -13v-362c0 -5 -2 -10 -5 -13
c-4 -4 -9 -6 -14 -6h-37c-9 0 -16 5 -19 15l-12 33c-1 -1 -3 -3 -8 -7c-4 -4 -7 -7 -10 -9c-2 -2 -6 -5 -12 -10c-5 -4 -10 -7 -14 -10c-5 -2 -10 -5 -18 -8c-6 -2 -13 -5 -20 -7s-15 -4 -24 -5s-19 -2 -28 -2c-30 0 -56 5 -78 16c-23 11 -40 26 -53 44
c-13 20 -22 40 -29 63c-6 23 -9 47 -9 74z" />
    <glyph glyph-name="v" unicode="v" horiz-adv-x="418" 
d="M189 0l-182 376c-3 7 -3 12 -1 17c3 5 8 7 15 7h87c8 0 14 -4 18 -11l81 -186h2l86 186c4 7 12 11 24 11h78c7 0 12 -2 15 -7s2 -10 -1 -17l-183 -376c-4 -7 -10 -10 -17 -10h-5c-7 0 -13 3 -17 10z" />
    <glyph glyph-name="w" unicode="w" horiz-adv-x="616" 
d="M143 1l-125 376c-3 7 -2 12 1 17c3 4 9 6 16 6h72c3 0 7 -1 11 -4c4 -2 6 -5 7 -8l60 -179h1l102 192c3 6 8 9 16 9h8c7 0 12 -3 16 -9l101 -192h1l60 179c3 8 10 12 23 12h65c7 0 12 -2 16 -7s5 -10 2 -16l-125 -376c-3 -7 -9 -11 -18 -11h-4c-7 0 -12 3 -16 9l-126 233
h-1l-125 -233c-4 -6 -9 -9 -16 -9h-5c-9 0 -14 4 -17 11z" />
    <glyph glyph-name="x" unicode="x" horiz-adv-x="451" 
d="M36 0c-8 0 -13 3 -16 10c-2 6 -1 12 4 19l130 175l-126 167c-5 7 -6 13 -3 19c3 7 9 10 18 10h83c16 0 27 -5 33 -14l65 -94h1l66 94c7 9 17 14 30 14h90c8 0 13 -3 16 -10c3 -6 1 -12 -4 -19l-126 -166l127 -176c5 -7 6 -13 4 -19c-3 -7 -8 -10 -16 -10h-88
c-11 0 -21 5 -28 16l-71 100h-1l-76 -108c-4 -5 -9 -8 -16 -8h-96z" />
    <glyph glyph-name="y" unicode="y" horiz-adv-x="463" 
d="M171 28l-163 346c-3 7 -2 13 1 18s9 8 16 8h90c8 0 14 -4 17 -11l101 -226h1l100 226c3 5 6 8 9 9s8 2 15 2h80c8 0 14 -3 17 -8s3 -11 0 -18l-306 -662c-4 -8 -10 -12 -17 -12h-86c-8 0 -14 3 -17 8s-3 12 0 19z" />
    <glyph glyph-name="z" unicode="z" horiz-adv-x="366" 
d="M30 19v10l142 262v2h-114c-5 0 -10 2 -13 5c-3 4 -5 9 -5 14v69c0 5 2 10 5 13c3 4 8 6 13 6h264c8 0 14 -3 18 -8c3 -6 3 -12 -1 -19l-145 -264v-3h108c5 0 10 -2 14 -6c3 -3 5 -8 5 -13v-68c0 -5 -2 -10 -5 -13c-4 -4 -9 -6 -14 -6h-253c-5 0 -10 2 -13 6
c-4 3 -6 8 -6 13z" />
    <glyph glyph-name="braceleft" unicode="{" horiz-adv-x="394" 
d="M103 -36v123c0 13 -4 25 -13 36c-8 11 -17 18 -27 23c-10 4 -20 7 -29 9c-4 1 -8 3 -10 6c-4 3 -5 7 -5 12v49c0 9 5 14 14 17c5 1 13 4 23 9c9 5 20 12 30 24c12 10 17 23 17 36v127c0 31 3 59 9 85c5 25 13 47 22 65s21 34 34 49s27 26 42 36c15 8 30 16 47 22
s33 10 48 13s31 4 46 5c12 1 19 -4 20 -17l4 -63c0 -5 -1 -10 -4 -12c-3 -4 -6 -5 -10 -6c-41 -9 -74 -29 -98 -59s-36 -69 -36 -118v-105c0 -20 -4 -38 -11 -56c-8 -16 -17 -30 -28 -40c-11 -11 -20 -18 -27 -24c-7 -4 -13 -8 -17 -10v-4c8 -3 16 -8 24 -14
c9 -5 18 -13 28 -22c9 -9 17 -22 22 -37c6 -15 9 -33 9 -52v-107c0 -49 12 -89 37 -118c24 -29 56 -48 97 -57c11 -3 15 -9 14 -19l-4 -63c-1 -5 -3 -9 -7 -13c-4 -2 -8 -4 -13 -4c-16 1 -31 2 -47 4c-14 3 -30 7 -47 13s-32 14 -47 23s-29 21 -42 35s-25 30 -34 49
s-17 41 -22 66c-6 25 -9 53 -9 84z" />
    <glyph glyph-name="bar" unicode="|" horiz-adv-x="180" 
d="M65 -282v1023c0 5 2 10 5 13c4 4 9 6 14 6h13c5 0 10 -2 13 -6c3 -3 5 -8 5 -13v-1023c0 -5 -2 -10 -5 -13c-4 -3 -9 -5 -14 -5h-12c-5 0 -10 2 -14 5c-3 3 -5 8 -5 13z" />
    <glyph glyph-name="braceright" unicode="}" horiz-adv-x="394" 
d="M167 -36v107c0 19 3 36 9 51c5 16 13 29 22 38c10 9 19 17 28 22c8 6 16 11 24 14v4c-4 2 -10 6 -17 10c-7 6 -16 13 -27 24c-11 10 -20 24 -28 40c-7 18 -11 36 -11 56v105c0 49 -12 89 -37 119c-24 29 -56 49 -97 58c-4 1 -7 2 -11 6c-2 2 -4 7 -3 12l4 63
c1 12 8 18 20 17c16 -1 31 -2 47 -5c14 -3 30 -7 47 -13s32 -14 47 -22c15 -10 29 -21 42 -36s25 -31 34 -49s17 -40 22 -66c6 -26 9 -54 9 -84v-127c0 -13 5 -26 17 -36c10 -12 21 -19 30 -24c10 -5 18 -8 23 -9c9 -3 14 -8 14 -17v-49c0 -5 -1 -9 -5 -13
c-2 -2 -6 -4 -10 -5c-9 -1 -19 -4 -29 -9s-19 -12 -27 -22c-9 -11 -13 -23 -13 -37v-123c0 -31 -3 -59 -9 -84c-5 -25 -13 -47 -22 -66s-21 -35 -34 -49s-27 -26 -42 -35s-30 -17 -47 -23s-33 -10 -48 -13c-15 -2 -31 -3 -46 -4c-5 0 -10 2 -13 5c-4 3 -6 7 -7 12l-4 63
c-1 9 3 16 14 19c41 8 74 27 98 57c24 29 36 69 36 118z" />
    <glyph glyph-name="asciitilde" unicode="~" horiz-adv-x="533" 
d="M78 194l-45 44c-8 9 -9 17 -2 24c2 3 5 6 8 11s11 13 22 24s23 21 34 30s25 17 41 23c15 8 30 11 45 11c13 0 27 -3 41 -7c13 -6 23 -10 30 -14l30 -20l10 -6c7 -5 11 -8 12 -8c1 -2 5 -4 11 -7s11 -5 14 -6s7 -2 12 -3s9 -2 14 -2c27 0 51 17 74 52c4 5 9 8 14 8
c6 0 11 -2 15 -6l42 -44c4 -3 6 -6 6 -11s-1 -9 -4 -13c-2 -3 -5 -6 -8 -10c-3 -5 -10 -13 -22 -24c-10 -11 -21 -21 -32 -30s-24 -16 -40 -24c-16 -6 -31 -10 -45 -10c-5 0 -11 0 -15 1c-6 1 -10 1 -15 3c-5 0 -9 2 -13 2c-3 2 -8 3 -12 6c-6 2 -9 4 -12 4c-3 2 -7 4 -12 7
s-9 5 -10 6s-5 3 -11 7s-9 6 -10 7c-21 14 -36 22 -46 25c-6 2 -12 3 -19 3c-15 0 -28 -5 -42 -15c-12 -11 -23 -23 -32 -36c-4 -5 -9 -8 -14 -8s-10 2 -14 6z" />
    <glyph glyph-name="uni00A0" unicode="&#xa0;" horiz-adv-x="221" 
 />
    <glyph glyph-name="exclamdown" unicode="&#xa1;" horiz-adv-x="266" 
d="M98 112c1 4 3 8 6 11c4 3 8 5 13 5h32c4 0 8 -2 12 -5s6 -7 7 -11l39 -279v-114c0 -5 -2 -10 -5 -13c-4 -4 -9 -6 -14 -6h-110c-5 0 -10 2 -14 6c-3 4 -5 8 -5 13v112zM133 411c23 0 42 -8 59 -25c16 -16 24 -35 24 -58s-8 -42 -24 -58c-17 -16 -36 -24 -59 -24
s-42 8 -58 24s-24 35 -24 58s8 42 25 58c16 17 35 25 57 25z" />
    <glyph glyph-name="cent" unicode="&#xa2;" horiz-adv-x="412" 
d="M154 4c-40 15 -72 40 -98 76c-24 34 -37 75 -37 120c0 58 21 108 63 148c43 42 93 62 150 62c7 0 18 -1 31 -2l11 41c1 5 4 9 9 11c5 3 9 3 14 2l12 -3c5 -1 9 -4 11 -9c3 -4 3 -9 2 -14l-12 -42c25 -11 49 -30 70 -55c4 -4 5 -9 4 -15c-1 -5 -4 -10 -9 -13l-46 -44
c-7 -7 -15 -6 -25 3c-5 6 -13 12 -22 18l-51 -189c15 0 28 2 39 7c11 4 19 8 24 12c4 4 11 10 20 18c8 8 16 9 25 3l43 -37c11 -9 14 -19 7 -28c-36 -56 -89 -84 -158 -84c-7 0 -17 1 -29 2l-26 -96c-1 -5 -4 -9 -8 -11c-5 -2 -10 -3 -15 -2l-11 3c-5 1 -9 4 -12 8
s-3 9 -2 14zM183 113l51 188c-27 0 -50 -10 -68 -29c-20 -20 -29 -44 -29 -72c0 -38 15 -67 46 -87z" />
    <glyph glyph-name="sterling" unicode="&#xa3;" horiz-adv-x="485" 
d="M66 19v18c41 79 54 163 37 254h-43c-5 0 -10 2 -13 5c-3 4 -5 9 -5 14v13c0 5 2 10 5 13c3 4 8 6 13 6h31c-1 7 -4 18 -9 35c-4 17 -7 30 -10 40s-5 23 -8 38c-2 15 -3 30 -3 43c0 65 20 116 61 154c40 39 90 58 151 58c17 0 35 -2 51 -6c18 -4 31 -8 42 -12
s22 -10 34 -19s20 -15 25 -18s11 -9 19 -16c4 -3 6 -7 6 -12c1 -5 -1 -10 -4 -14l-49 -59c-3 -5 -8 -7 -13 -8c-5 0 -10 2 -14 5s-9 8 -16 13s-18 12 -35 20c-17 9 -32 13 -45 13c-24 0 -45 -9 -62 -26s-26 -40 -26 -68c0 -19 6 -49 18 -88c11 -39 18 -64 20 -73h116
c5 0 10 -2 14 -6c3 -4 5 -8 5 -13v-14c0 -5 -2 -10 -5 -13c-4 -3 -9 -5 -14 -5h-106c8 -64 3 -124 -14 -180h196c5 0 10 -2 13 -5c3 -4 5 -9 5 -14v-73c0 -5 -2 -10 -5 -13c-3 -4 -8 -6 -13 -6h-331c-5 0 -10 2 -13 6c-4 3 -6 8 -6 13z" />
    <glyph glyph-name="currency" unicode="&#xa4;" horiz-adv-x="456" 
d="M96 161l-39 40c-3 3 -5 8 -5 13c0 6 2 11 5 14l48 48c-17 39 -17 76 1 112l-48 48c-3 3 -5 8 -5 14c0 5 2 10 5 13l40 39c3 3 8 5 13 5c6 0 11 -2 14 -5l47 -47c17 9 36 13 56 13s39 -4 56 -13l47 47c3 3 8 5 13 5s10 -2 14 -5l39 -40c4 -4 6 -8 6 -13s-2 -9 -5 -13
l-47 -47c17 -39 18 -77 1 -114l47 -47c3 -3 5 -8 5 -13s-2 -10 -5 -14l-40 -39c-4 -4 -9 -6 -14 -6s-9 2 -12 5l-48 48c-18 -9 -37 -13 -57 -13s-39 4 -57 13l-48 -48c-3 -3 -8 -5 -14 -5c-5 0 -10 2 -13 5zM227 384c-15 0 -27 -5 -37 -15c-9 -10 -14 -22 -14 -37
s5 -27 14 -36c10 -10 22 -15 37 -15s27 5 37 15c10 9 15 21 15 36s-5 27 -15 37c-9 10 -22 15 -37 15z" />
    <glyph glyph-name="yen" unicode="&#xa5;" horiz-adv-x="633" 
d="M139 120c-5 0 -10 2 -13 6s-5 8 -5 13v13c0 5 2 10 5 14c4 3 8 5 13 5h111v69h-111c-5 0 -10 2 -13 6s-5 8 -5 13v13c0 5 2 10 5 14c4 3 8 5 13 5h111v46l-228 334c-4 7 -4 13 -1 19c3 7 9 10 17 10h103c6 0 11 -3 16 -9l160 -230l160 230c5 6 10 9 16 9h102
c8 0 14 -3 17 -10c3 -6 3 -12 -1 -19l-231 -333v-47h109c5 0 10 -2 13 -5c4 -4 6 -9 6 -14v-14c0 -5 -2 -10 -6 -13c-3 -3 -8 -5 -13 -5h-109v-69h109c5 0 10 -2 13 -5c4 -4 6 -9 6 -14v-14c0 -5 -2 -10 -6 -13c-3 -3 -8 -5 -13 -5h-109v-101c0 -5 -2 -10 -6 -13
c-4 -4 -8 -6 -13 -6h-92c-5 0 -10 2 -13 6c-4 4 -6 8 -6 13v101h-111z" />
    <glyph glyph-name="brokenbar" unicode="&#xa6;" horiz-adv-x="315" 
d="M151 392c-5 0 -10 2 -13 5c-4 3 -6 8 -6 13v331c0 5 2 10 6 13c4 4 8 6 13 6h13c5 0 10 -2 13 -6c3 -3 5 -8 5 -13v-331c0 -5 -2 -10 -6 -13s-8 -5 -13 -5h-12zM132 49c0 5 2 10 6 13c4 4 8 6 13 6h13c5 0 10 -2 13 -6c3 -3 5 -8 5 -13v-331c0 -5 -2 -10 -6 -13
s-8 -5 -13 -5h-12c-5 0 -10 2 -13 5c-4 3 -6 8 -6 13v331z" />
    <glyph glyph-name="section" unicode="&#xa7;" horiz-adv-x="512" 
d="M71 -88c9 15 21 18 35 8l16 -10c11 -7 22 -13 34 -20c13 -7 28 -13 46 -19c17 -6 33 -9 48 -9c23 0 42 6 60 18c16 11 25 28 25 50c0 13 -3 26 -11 38c-6 13 -16 24 -28 34c-13 9 -25 17 -38 24c-12 7 -26 14 -43 21c-120 49 -180 117 -180 204c0 51 24 96 72 136
c-48 44 -72 91 -72 142c0 23 4 44 13 65c8 21 20 40 37 58c17 17 39 31 67 42c29 11 61 16 98 16c23 0 45 -3 68 -8c22 -5 42 -12 58 -20c18 -8 31 -15 40 -20s18 -11 25 -16c5 -3 8 -7 9 -13c2 -6 1 -12 -2 -18l-41 -59c-8 -12 -19 -14 -33 -5c-8 5 -17 11 -28 17
c-11 7 -26 14 -47 22c-21 7 -39 11 -54 11c-27 0 -48 -7 -63 -19c-15 -14 -23 -28 -23 -45c0 -21 9 -40 27 -57c19 -16 47 -32 86 -48c23 -9 42 -18 58 -26c16 -7 34 -18 53 -30c19 -14 35 -27 47 -40c13 -14 23 -31 32 -50c8 -20 12 -41 12 -64c0 -28 -7 -54 -22 -78
s-32 -44 -51 -61c49 -45 73 -93 73 -146c0 -51 -20 -94 -61 -131s-94 -55 -159 -55c-28 0 -55 3 -80 9c-26 5 -48 13 -65 22s-31 17 -41 24c-9 7 -17 13 -23 19s-9 11 -11 15c0 4 1 10 6 19zM155 260c0 -13 3 -25 7 -35c6 -10 15 -20 30 -30l36 -23c9 -4 27 -13 53 -25
l21 -9c1 1 3 2 4 3c2 1 5 5 10 9c5 6 9 11 12 16c4 5 7 13 10 22s4 19 4 30c0 47 -50 86 -151 117l-4 -3l-6 -6c-1 -2 -3 -5 -7 -8c-2 -4 -5 -8 -7 -12c-2 -3 -4 -7 -6 -12s-3 -10 -5 -16c0 -5 -1 -11 -1 -18z" />
    <glyph glyph-name="dieresis" unicode="&#xa8;" horiz-adv-x="414" 
d="M49 615c0 17 6 32 19 45c12 12 27 18 44 18s32 -6 45 -18c13 -13 19 -28 19 -45s-6 -32 -19 -45s-28 -19 -45 -19s-32 6 -44 19c-13 12 -19 27 -19 45zM250 615c0 17 6 32 18 45c13 12 28 18 45 18s32 -6 45 -18c13 -13 19 -28 19 -45s-6 -32 -19 -45s-28 -19 -45 -19
s-32 6 -45 19c-12 12 -18 27 -18 45z" />
    <glyph glyph-name="copyright" unicode="&#xa9;" horiz-adv-x="804" 
d="M70 210c-19 45 -28 91 -28 140s10 95 28 140c20 44 45 82 77 114c32 33 70 58 115 78c44 18 90 28 139 28s95 -10 139 -29c45 -19 83 -45 116 -77c32 -32 58 -70 76 -114c20 -45 29 -91 29 -140s-9 -95 -29 -140c-18 -44 -44 -82 -76 -114c-33 -32 -71 -58 -116 -76
c-44 -20 -90 -29 -139 -29s-95 9 -139 29c-45 18 -83 44 -115 76s-58 70 -77 114zM682 350c0 51 -12 98 -38 142c-24 42 -58 76 -102 102c-42 24 -90 37 -141 37s-97 -13 -141 -37c-42 -26 -77 -60 -102 -103s-38 -90 -38 -141s13 -98 38 -141s60 -77 102 -103
c44 -24 90 -37 141 -37s98 13 141 37c43 26 78 60 102 103c26 43 38 90 38 141zM223 348c0 52 18 96 55 133c36 37 80 55 132 55c43 0 80 -13 112 -38c5 -4 7 -9 8 -14c0 -5 -2 -10 -6 -15l-34 -38c-6 -8 -14 -9 -25 -2c-15 11 -33 16 -54 16c-26 0 -48 -9 -65 -27
c-18 -19 -27 -41 -27 -67c0 -27 9 -49 27 -67c17 -18 39 -27 65 -27c19 0 36 5 53 16c4 3 8 4 13 3c5 0 9 -2 12 -5l36 -40c4 -4 6 -9 5 -14c0 -5 -2 -10 -6 -14c-33 -28 -71 -42 -114 -42c-51 0 -95 18 -132 55s-55 81 -55 132z" />
    <glyph glyph-name="ordfeminine" unicode="&#xaa;" horiz-adv-x="311" 
d="M121 398c-29 0 -53 9 -72 28s-28 43 -28 74c0 27 11 50 31 68c22 17 50 26 87 26c9 0 19 -1 27 -2c10 -1 16 -3 20 -4l7 -2c0 20 -3 34 -9 42c-5 8 -16 12 -33 12c-18 0 -44 -4 -78 -12c-9 -2 -15 3 -17 15l-6 33c-2 9 1 16 9 19c5 3 18 6 39 9c21 4 42 6 62 6
c43 0 72 -10 89 -31s25 -53 25 -98v-161c0 -4 -1 -7 -4 -10s-6 -4 -10 -4h-27c-6 0 -11 3 -14 10c-1 3 -2 6 -4 11s-3 8 -4 10c-8 -8 -15 -14 -21 -19c-7 -4 -16 -8 -28 -13c-13 -5 -26 -7 -41 -7zM141 462c11 0 21 4 31 11c11 7 17 15 20 24v33c-3 3 -10 5 -18 8
c-10 2 -18 3 -27 3c-13 0 -23 -4 -31 -11c-9 -8 -13 -18 -13 -29s3 -21 11 -28c6 -7 16 -11 27 -11z" />
    <glyph glyph-name="guillemotleft" unicode="&#xab;" horiz-adv-x="471" 
d="M130 39l-104 155c-5 8 -5 16 0 24l109 148c5 8 11 12 18 12h57c8 0 14 -3 16 -10c4 -6 3 -13 -1 -21l-68 -139l65 -147c4 -8 5 -15 2 -21s-8 -9 -17 -9h-62c-6 0 -11 3 -15 8zM330 39l-104 155c-5 8 -5 16 0 24l109 148c5 8 11 12 18 12h57c8 0 14 -3 16 -10
c4 -6 3 -13 -1 -21l-68 -139l65 -147c4 -8 5 -15 2 -21s-8 -9 -17 -9h-62c-6 0 -11 3 -15 8z" />
    <glyph glyph-name="logicalnot" unicode="&#xac;" horiz-adv-x="504" 
d="M42 300c-5 0 -10 2 -14 6c-3 4 -5 8 -5 13v56c0 5 2 10 5 13c4 4 9 6 14 6h393c5 0 10 -2 13 -6c4 -4 6 -8 6 -13v-226c0 -5 -2 -10 -6 -13s-8 -5 -13 -5h-56c-5 0 -10 2 -13 5c-4 4 -6 8 -6 13v151h-318z" />
    <glyph glyph-name="uni00AD" unicode="&#xad;" horiz-adv-x="347" 
d="M63 192c-5 0 -10 2 -13 5c-4 3 -6 8 -6 13v67c0 5 2 10 6 13c3 4 8 6 13 6h223c5 0 10 -2 14 -6c3 -3 5 -8 5 -13v-67c0 -5 -2 -10 -5 -13c-4 -3 -9 -5 -14 -5h-223z" />
    <glyph glyph-name="registered" unicode="&#xae;" horiz-adv-x="804" 
d="M70 210c-19 45 -28 91 -28 140s10 95 28 140c20 44 45 82 77 114c32 33 70 58 115 78c44 18 90 28 139 28s95 -10 139 -29c45 -19 83 -45 116 -77c32 -32 58 -70 76 -114c20 -45 29 -91 29 -140s-9 -95 -29 -140c-18 -44 -44 -82 -76 -114c-33 -32 -71 -58 -116 -76
c-44 -20 -90 -29 -139 -29s-95 9 -139 29c-45 18 -83 44 -115 76s-58 70 -77 114zM682 350c0 51 -12 98 -38 142c-24 42 -58 76 -102 102c-42 24 -90 37 -141 37s-97 -13 -141 -37c-42 -26 -77 -60 -102 -103s-38 -90 -38 -141s13 -98 38 -141s60 -77 102 -103
c44 -24 90 -37 141 -37s98 13 141 37c43 26 78 60 102 103c26 43 38 90 38 141zM267 187v328c0 5 2 10 5 13c4 4 9 6 14 6h155c33 0 62 -11 87 -34c24 -23 36 -53 36 -90c0 -51 -24 -88 -71 -111l46 -104c3 -7 2 -13 -1 -19c-4 -5 -9 -8 -16 -8h-54c-8 0 -14 5 -18 14
l-44 112h-52v-107c0 -5 -2 -10 -6 -13c-3 -4 -8 -6 -13 -6h-49c-5 0 -10 2 -14 6c-3 3 -5 8 -5 13zM351 368h79c12 0 22 4 30 12c7 8 11 18 11 29c0 12 -4 22 -11 29c-8 8 -18 12 -30 12h-79v-82z" />
    <glyph glyph-name="macron" unicode="&#xaf;" horiz-adv-x="414" 
d="M79 570c-5 0 -10 2 -13 5c-4 3 -6 8 -6 13v34c0 5 2 10 6 14c3 3 8 5 13 5h256c5 0 10 -2 13 -5c4 -4 6 -9 6 -14v-34c0 -5 -2 -10 -6 -13c-3 -3 -8 -5 -13 -5h-256z" />
    <glyph glyph-name="degree" unicode="&#xb0;" horiz-adv-x="310" 
d="M250 479c-26 -26 -58 -39 -95 -39s-69 13 -95 40c-27 26 -40 58 -40 95s13 69 40 95c26 27 58 40 95 40s69 -13 95 -40c27 -26 40 -58 40 -95s-13 -69 -40 -96zM204 575c0 13 -5 25 -15 35c-10 9 -21 14 -34 14s-25 -5 -35 -15c-11 -10 -16 -21 -16 -34s5 -25 16 -35
c10 -11 22 -16 35 -16s25 5 35 15c9 10 14 22 14 36z" />
    <glyph glyph-name="plusminus" unicode="&#xb1;" horiz-adv-x="560" 
d="M233 260v103h-150c-5 0 -10 2 -13 5c-4 4 -6 9 -6 14v56c0 5 2 10 6 14c4 3 8 5 13 5h150v148c0 5 2 10 5 13c4 3 9 5 14 5h56c5 0 10 -2 14 -5c3 -4 5 -8 5 -13v-148h150c5 0 10 -2 13 -5c3 -4 5 -9 5 -14v-56c0 -5 -2 -10 -5 -14c-4 -3 -8 -5 -13 -5h-150v-103
c0 -5 -2 -10 -5 -13c-4 -3 -9 -5 -14 -5h-56c-5 0 -10 2 -14 5c-3 3 -5 8 -5 13zM83 47c-5 0 -10 2 -13 6c-4 4 -6 8 -6 13v56c0 5 2 10 6 14c4 3 8 5 13 5h394c5 0 10 -2 13 -6s5 -8 5 -13v-56c0 -5 -2 -10 -5 -14c-4 -3 -8 -5 -13 -5h-394z" />
    <glyph glyph-name="twosuperior" unicode="&#xb2;" horiz-adv-x="277" 
d="M37 504c-7 0 -10 3 -10 9v17l110 126c17 19 25 35 25 50c0 10 -4 18 -11 25s-17 10 -29 10c-8 0 -16 -2 -24 -7c-9 -4 -15 -8 -20 -13c-7 -4 -12 -3 -16 3l-22 31c-3 4 -5 7 -4 11c0 2 2 6 7 10c27 23 59 34 94 34c32 0 58 -8 77 -26c19 -16 29 -39 29 -66
s-12 -56 -37 -86l-54 -64h80c3 0 5 -1 6 -2c2 -2 3 -4 3 -7v-46c0 -6 -3 -9 -9 -9h-195z" />
    <glyph glyph-name="threesuperior" unicode="&#xb3;" horiz-adv-x="265" 
d="M122 494c-39 0 -70 11 -95 33c-5 5 -6 11 -1 18l22 29c4 6 10 7 17 2l3 -2c1 -1 4 -3 6 -4c4 -1 7 -3 10 -4c4 -1 8 -3 13 -4s10 -2 15 -2c13 0 24 3 31 8s11 13 11 23s-4 18 -12 24s-20 9 -35 9h-29c-10 0 -15 5 -15 14v31c0 9 5 14 15 14h29c12 0 22 3 29 9
c8 5 12 13 12 22s-4 17 -11 22s-16 8 -27 8c-14 0 -27 -5 -39 -16c-3 -2 -5 -3 -7 -2c-3 0 -5 2 -8 5l-24 29c-3 3 -4 6 -4 10c0 3 2 6 5 8c1 1 3 3 5 4c1 1 5 4 10 7c6 3 12 7 18 9c7 4 15 6 25 8c10 3 20 4 31 4c32 0 58 -8 78 -22c20 -16 30 -36 30 -61
c0 -16 -5 -30 -15 -43c-10 -12 -22 -21 -36 -27v-1c15 -6 29 -15 41 -28c13 -12 19 -28 19 -48c0 -27 -11 -48 -33 -63c-23 -15 -51 -23 -84 -23z" />
    <glyph glyph-name="acute" unicode="&#xb4;" horiz-adv-x="302" 
d="M89 528c-12 -5 -21 -3 -26 6l-17 36c-4 7 -2 14 6 19l163 97c4 3 9 4 14 4c6 0 10 -2 12 -7l29 -51c6 -13 4 -22 -6 -27z" />
    <glyph glyph-name="mu" unicode="&#x3bc;" horiz-adv-x="524" 
d="M181 -4v-277c0 -5 -2 -10 -5 -13c-4 -4 -9 -6 -14 -6h-82c-5 0 -10 2 -14 6c-3 4 -5 8 -5 13v662c0 5 2 10 5 13c4 4 9 6 14 6h82c5 0 10 -2 14 -6c3 -3 5 -8 5 -13v-199c1 -25 8 -44 21 -58c13 -13 30 -20 52 -20c20 0 38 8 52 23c16 15 25 33 28 52v202c0 7 2 12 5 15
s9 4 17 4h76c5 0 10 -2 14 -6c3 -3 5 -8 5 -13v-362c0 -5 -2 -10 -5 -13c-4 -4 -9 -6 -14 -6h-37c-9 0 -16 5 -19 15l-12 33c-1 -1 -3 -3 -8 -7c-4 -4 -7 -7 -10 -9c-2 -2 -6 -5 -12 -10c-5 -4 -10 -7 -14 -10c-5 -2 -10 -5 -18 -8c-6 -2 -13 -5 -20 -7s-15 -4 -24 -5
s-19 -2 -28 -2c-18 0 -34 2 -49 6z" />
    <glyph glyph-name="paragraph" unicode="&#xb6;" horiz-adv-x="701" 
d="M227 281c-37 0 -72 9 -103 27c-32 19 -58 44 -76 76c-20 33 -29 68 -29 107c0 57 19 107 57 147c37 42 83 62 137 62l456 -1c5 0 10 -2 13 -5c4 -4 6 -9 6 -14v-46c0 -5 -2 -10 -6 -14c-4 -3 -8 -5 -13 -5h-78v-896c0 -5 -2 -10 -5 -13c-4 -4 -9 -6 -14 -6h-54
c-5 0 -10 2 -14 6c-3 4 -5 8 -5 13v896h-136v-896c0 -5 -2 -10 -5 -13c-4 -4 -9 -6 -14 -6h-54c-5 0 -10 2 -14 6c-3 4 -5 8 -5 13v562h-44z" />
    <glyph glyph-name="periodcentered" unicode="&#xb7;" horiz-adv-x="258" 
d="M128 167c-24 0 -45 9 -62 27c-18 17 -27 38 -27 62c0 25 9 47 27 65c17 18 38 27 62 27c25 0 47 -9 65 -27s27 -40 27 -65c0 -24 -9 -45 -27 -62c-18 -18 -40 -27 -65 -27z" />
    <glyph glyph-name="cedilla" unicode="&#xb8;" horiz-adv-x="247" 
d="M54 0h66v-52c31 -4 54 -15 72 -34c16 -18 25 -41 25 -69c0 -29 -10 -54 -31 -75c-21 -20 -46 -30 -75 -30c-15 0 -29 3 -43 10c-13 7 -24 15 -33 25c-8 9 -7 19 3 28l20 17c3 3 6 4 10 4c5 0 8 -2 11 -5c7 -8 17 -12 30 -12c10 0 18 4 25 11s10 16 10 26
c0 13 -6 24 -18 33s-30 14 -55 16c-11 1 -17 7 -17 18v89z" />
    <glyph glyph-name="onesuperior" unicode="&#xb9;" horiz-adv-x="196" 
d="M83 504c-7 0 -10 3 -10 9v193l-49 -4c-6 0 -9 3 -9 9l-2 31c0 4 2 8 7 11l74 47h51c3 0 5 -1 7 -2c1 -2 2 -4 2 -7v-278c0 -3 -1 -5 -2 -7c-2 -1 -4 -2 -7 -2h-62z" />
    <glyph glyph-name="ordmasculine" unicode="&#xba;" horiz-adv-x="302" 
d="M152 394c-41 0 -73 14 -94 42c-22 28 -33 67 -33 116c0 50 11 89 33 116c21 28 53 42 94 42s72 -14 93 -42c21 -27 32 -66 32 -116c0 -49 -11 -88 -33 -116c-21 -28 -52 -42 -92 -42zM152 464c13 0 24 8 32 23s12 37 12 65s-4 50 -12 65s-19 23 -32 23
c-14 0 -25 -8 -32 -23c-8 -15 -12 -37 -12 -65s4 -50 12 -65c7 -15 18 -23 32 -23z" />
    <glyph glyph-name="guillemotright" unicode="&#xbb;" horiz-adv-x="471" 
d="M63 31c-8 0 -13 3 -17 9c-2 6 -2 13 2 21l65 147l-68 139c-4 8 -5 15 -1 21c2 7 8 10 16 10h57c7 0 13 -4 18 -12l109 -148c5 -8 5 -16 0 -24l-104 -155c-4 -5 -9 -8 -15 -8h-62zM263 31c-8 0 -13 3 -17 9c-2 6 -2 13 2 21l65 147l-68 139c-4 8 -5 15 -1 21
c2 7 8 10 16 10h57c7 0 13 -4 18 -12l109 -148c5 -8 5 -16 0 -24l-104 -155c-4 -5 -9 -8 -15 -8h-62z" />
    <glyph glyph-name="onequarter" unicode="&#xbc;" horiz-adv-x="664" 
d="M507 1c-3 0 -5 1 -7 3s-3 4 -3 6v48h-137c-3 0 -5 1 -6 2c-2 2 -3 4 -3 6v51l163 177c2 2 5 3 8 3h41c3 0 5 -1 7 -3c1 -1 2 -3 2 -6v-170h40c3 0 5 -1 6 -2c2 -2 3 -4 3 -6v-43c0 -3 -1 -5 -3 -7c-1 -1 -3 -2 -6 -2h-40v-48c0 -3 -1 -5 -2 -6c-2 -2 -4 -3 -7 -3h-56z
M424 117h74v83zM171 10c-3 -7 -9 -10 -17 -10h-48c-8 0 -14 3 -17 9s-3 12 0 18l343 663c3 7 9 10 17 10h50c8 0 14 -3 17 -9s3 -12 0 -18zM91 405c-7 0 -10 3 -10 9v193l-49 -4c-6 0 -9 3 -9 9l-2 31c0 4 2 8 7 11l74 47h51c3 0 5 -1 7 -3c1 -1 2 -3 2 -6v-278
c0 -3 -1 -5 -2 -6c-2 -2 -4 -3 -7 -3h-62z" />
    <glyph glyph-name="onehalf" unicode="&#xbd;" horiz-adv-x="661" 
d="M171 10c-3 -7 -9 -10 -17 -10h-48c-8 0 -14 3 -17 9s-3 12 0 18l343 663c3 7 9 10 17 10h50c8 0 14 -3 17 -9s3 -12 0 -18zM91 405c-7 0 -10 3 -10 9v193l-49 -4c-6 0 -9 3 -9 9l-2 31c0 4 2 8 7 11l74 47h51c3 0 5 -1 7 -3c1 -1 2 -3 2 -6v-278c0 -3 -1 -5 -2 -6
c-2 -2 -4 -3 -7 -3h-62zM401 1c-7 0 -10 3 -10 9v17l110 126c17 19 25 35 25 50c0 10 -4 18 -11 25s-17 10 -29 10c-8 0 -16 -2 -24 -6c-9 -5 -15 -9 -20 -14c-7 -4 -12 -3 -16 3l-22 31c-3 4 -5 8 -4 10c0 4 2 7 7 11c27 23 59 34 94 34c32 0 58 -9 77 -25
c19 -18 29 -40 29 -67s-12 -56 -37 -86l-54 -64h80c3 0 5 -1 6 -3c2 -1 3 -3 3 -6v-46c0 -6 -3 -9 -9 -9h-195z" />
    <glyph glyph-name="threequarters" unicode="&#xbe;" horiz-adv-x="701" 
d="M544 1c-3 0 -5 1 -7 3s-3 4 -3 6v48h-137c-3 0 -5 1 -7 2c-1 2 -2 4 -2 6v51l163 177c2 2 5 3 8 3h41c3 0 5 -1 6 -3c2 -1 3 -3 3 -6v-170h40c3 0 5 -1 7 -2c1 -2 2 -4 2 -6v-43c0 -3 -1 -5 -2 -7c-2 -1 -4 -2 -7 -2h-40v-48c0 -3 -1 -5 -3 -6c-1 -2 -3 -3 -6 -3h-56z
M461 117h74v83zM208 10c-3 -7 -9 -10 -17 -10h-48c-8 0 -14 3 -17 9s-3 12 0 18l343 663c3 7 9 10 17 10h50c8 0 14 -3 17 -9s3 -12 0 -18zM128 395c-39 0 -70 11 -95 33c-5 5 -6 11 -1 18l22 29c4 6 10 7 17 2l3 -2c1 -1 4 -3 6 -4c4 -1 7 -3 10 -4c4 -1 8 -3 13 -4
s10 -2 15 -2c13 0 24 3 31 8s11 13 11 23s-4 18 -12 24s-20 9 -35 9h-29c-10 0 -15 5 -15 14v31c0 9 5 14 15 14h29c12 0 22 3 29 8c8 6 12 14 12 23s-4 17 -11 22s-16 8 -27 8c-14 0 -27 -5 -39 -16c-3 -2 -5 -3 -7 -3c-3 1 -5 3 -8 6l-24 29c-3 3 -4 6 -4 9c0 4 2 7 5 9
c1 1 3 3 5 4c1 1 5 4 10 7c6 3 12 6 18 10c7 2 15 5 25 8c10 2 20 3 31 3c32 0 58 -7 78 -23c20 -14 30 -35 30 -60c0 -16 -5 -30 -15 -42c-10 -13 -22 -22 -36 -28v-1c15 -6 29 -15 41 -27c13 -13 19 -29 19 -49c0 -27 -11 -48 -33 -63c-23 -15 -51 -23 -84 -23z" />
    <glyph glyph-name="questiondown" unicode="&#xbf;" horiz-adv-x="434" 
d="M19 -142c0 23 5 44 15 63c11 19 24 36 38 49c16 13 30 26 46 37c14 11 27 23 38 34c10 11 15 22 15 33v33c0 7 2 12 5 15c4 4 9 6 15 6h81c5 0 10 -2 14 -6c3 -3 5 -8 5 -13v-42c0 -15 -3 -29 -11 -43c-6 -13 -15 -25 -25 -36c-10 -10 -21 -20 -33 -31s-23 -20 -34 -29
s-19 -18 -26 -30c-7 -10 -10 -21 -10 -32c0 -19 7 -34 22 -48c15 -12 34 -19 58 -19c14 0 27 2 40 7c13 4 22 9 30 14c6 5 14 11 22 18s13 11 16 13c8 5 15 5 22 -1l47 -46c4 -4 6 -8 5 -13c0 -5 -2 -9 -5 -13c-2 -3 -5 -6 -8 -10s-11 -11 -24 -21s-26 -19 -40 -27
c-14 -7 -32 -14 -55 -20c-22 -7 -45 -10 -69 -10c-53 0 -99 16 -137 48s-57 72 -57 120zM231 411c23 0 42 -8 59 -25c16 -16 24 -35 24 -58s-8 -42 -24 -58c-17 -16 -36 -24 -59 -24s-42 8 -58 24s-24 35 -24 58s8 42 25 58c16 17 35 25 57 25z" />
    <glyph glyph-name="Agrave" unicode="&#xc0;" 
d="M402 768l-175 77c-5 2 -8 5 -9 11c-1 4 0 10 3 16l28 52c3 4 7 6 12 6c5 1 10 0 14 -3l164 -98c3 -1 5 -4 7 -7c1 -4 1 -8 -1 -12l-18 -35c-5 -10 -13 -12 -25 -7zM17 0c-7 0 -13 3 -16 8s-4 11 -1 18l311 673c4 7 10 11 17 11h10c8 0 14 -4 17 -11l308 -673
c3 -7 2 -13 -1 -18s-9 -8 -16 -8h-87c-7 0 -13 2 -17 4c-4 4 -8 9 -12 16l-49 108h-299l-49 -108c-5 -13 -15 -20 -29 -20h-87zM231 239h201l-100 220h-3z" />
    <glyph glyph-name="Aacute" unicode="&#xc1;" 
d="M261 768c-12 -5 -20 -3 -25 7l-18 35c-1 4 -2 8 0 11c0 3 3 6 6 8l164 98c12 8 21 7 26 -3l28 -52c3 -6 4 -12 3 -16c-1 -6 -4 -9 -9 -11zM17 0c-7 0 -13 3 -16 8s-4 11 -1 18l311 673c4 7 10 11 17 11h10c8 0 14 -4 17 -11l308 -673c3 -7 2 -13 -1 -18s-9 -8 -16 -8h-87
c-7 0 -13 2 -17 4c-4 4 -8 9 -12 16l-49 108h-299l-49 -108c-5 -13 -15 -20 -29 -20h-87zM231 239h201l-100 220h-3z" />
    <glyph glyph-name="Acircumflex" unicode="&#xc2;" 
d="M17 0c-7 0 -13 3 -16 8s-4 11 -1 18l311 673c4 7 10 11 17 11h10c8 0 14 -4 17 -11l308 -673c3 -7 2 -13 -1 -18s-9 -8 -16 -8h-87c-7 0 -13 2 -17 4c-4 4 -8 9 -12 16l-49 108h-299l-49 -108c-5 -13 -15 -20 -29 -20h-87zM231 239h201l-100 220h-3zM211 769l-26 37
c-2 4 -2 8 -1 11s4 6 7 8l130 101c7 5 14 5 21 0l130 -101c3 -3 6 -5 7 -9c1 -2 1 -6 -1 -10l-26 -37c-5 -8 -13 -9 -23 -3l-97 61l-98 -61c-10 -6 -18 -5 -23 3z" />
    <glyph glyph-name="Atilde" unicode="&#xc3;" 
d="M17 0c-7 0 -13 3 -16 8s-4 11 -1 18l311 673c4 7 10 11 17 11h10c8 0 14 -4 17 -11l308 -673c3 -7 2 -13 -1 -18s-9 -8 -16 -8h-87c-7 0 -13 2 -17 4c-4 4 -8 9 -12 16l-49 108h-299l-49 -108c-5 -13 -15 -20 -29 -20h-87zM231 239h201l-100 220h-3zM211 789l-29 21
c-3 3 -6 6 -7 11s-1 9 1 12c15 28 30 48 45 60c19 16 38 24 59 24c12 0 23 -3 33 -8c11 -6 19 -12 26 -20c7 -6 14 -13 23 -18c9 -6 17 -9 25 -9s15 3 21 9c6 7 11 13 14 20c3 6 8 11 13 14c5 4 11 3 17 -2l28 -20c9 -7 9 -17 1 -31c0 -1 -1 -2 -2 -4c-5 -8 -9 -15 -13 -21
c-4 -5 -10 -13 -19 -22c-8 -9 -17 -16 -28 -22c-11 -4 -22 -7 -35 -7c-12 0 -23 3 -35 9c-10 5 -20 12 -27 19s-15 14 -23 19c-9 6 -17 9 -24 9c-8 0 -15 -3 -21 -9c-6 -7 -10 -13 -13 -20s-7 -12 -12 -16c-5 -3 -11 -3 -18 2z" />
    <glyph glyph-name="Adieresis" unicode="&#xc4;" 
d="M391 839c0 17 6 32 19 45c12 12 27 18 44 18s32 -6 45 -18c13 -13 19 -28 19 -45s-6 -32 -19 -45s-28 -19 -45 -19s-32 6 -44 19c-13 12 -19 27 -19 45zM144 839c0 17 6 32 18 45c13 12 28 18 45 18s32 -6 45 -18c13 -13 19 -28 19 -45s-6 -32 -19 -45s-28 -19 -45 -19
s-32 6 -45 19c-12 12 -18 27 -18 45zM17 0c-7 0 -13 3 -16 8s-4 11 -1 18l311 673c4 7 10 11 17 11h10c8 0 14 -4 17 -11l308 -673c3 -7 2 -13 -1 -18s-9 -8 -16 -8h-87c-7 0 -13 2 -17 4c-4 4 -8 9 -12 16l-49 108h-299l-49 -108c-5 -13 -15 -20 -29 -20h-87zM231 239h201
l-100 220h-3z" />
    <glyph glyph-name="Aring" unicode="&#xc5;" 
d="M17 0c-7 0 -13 3 -16 8s-4 11 -1 18l311 673c4 7 10 11 17 11h10c8 0 14 -4 17 -11l308 -673c3 -7 2 -13 -1 -18s-9 -8 -16 -8h-87c-7 0 -13 2 -17 4c-4 4 -8 9 -12 16l-49 108h-299l-49 -108c-5 -13 -15 -20 -29 -20h-87zM231 239h201l-100 220h-3zM331 754
c-31 0 -58 11 -80 33s-33 49 -33 80s11 58 33 80s49 33 80 33s57 -11 79 -33c23 -22 34 -49 34 -80s-11 -58 -34 -80c-22 -22 -48 -33 -79 -33zM296 832c11 -10 22 -15 35 -15s24 5 33 15c10 11 15 22 15 35s-5 24 -15 33c-9 10 -20 15 -33 15s-24 -5 -35 -15
c-10 -9 -15 -20 -15 -33s5 -24 15 -35z" />
    <glyph glyph-name="AE" unicode="&#xc6;" horiz-adv-x="900" 
d="M2 0c-7 0 -12 3 -14 8c-3 5 -2 11 2 18l401 643c9 13 15 22 19 25c6 4 14 6 25 6h395c5 0 10 -2 14 -6c3 -4 5 -8 5 -13v-82c0 -5 -2 -10 -5 -13c-4 -4 -9 -6 -14 -6h-299v-164h250c5 0 10 -2 13 -6c4 -4 6 -8 6 -13v-83c0 -5 -2 -10 -6 -14c-3 -3 -8 -5 -13 -5h-250
v-175h299c5 0 10 -2 14 -6c3 -4 5 -8 5 -13v-82c0 -5 -2 -10 -5 -13c-4 -4 -9 -6 -14 -6h-408c-5 0 -10 2 -14 6c-3 4 -5 8 -5 13v109h-210l-71 -113c-7 -10 -15 -15 -25 -15h-95zM263 239h140v226z" />
    <glyph glyph-name="Ccedilla" unicode="&#xc7;" horiz-adv-x="686" 
d="M338 -4c-41 7 -80 22 -117 42c-37 22 -68 47 -95 78s-48 66 -62 107c-16 41 -23 83 -23 126c0 65 16 126 49 181c32 56 76 100 131 132s116 48 181 48c49 0 93 -8 132 -23s75 -39 110 -70c4 -4 6 -9 6 -14c1 -5 -1 -10 -5 -14l-61 -63c-3 -4 -7 -6 -12 -6s-9 2 -13 6
c-21 19 -45 33 -73 44c-26 10 -54 15 -81 15c-63 0 -115 -23 -159 -69c-42 -45 -64 -100 -64 -164c0 -41 10 -80 29 -115s46 -63 81 -85c35 -20 73 -31 114 -31c55 0 106 19 153 57c4 3 9 5 13 4c6 0 9 -1 12 -4l62 -64c4 -4 6 -9 5 -14s-3 -10 -6 -13
c-65 -64 -146 -96 -241 -97v-42c31 -4 54 -15 72 -34c16 -18 25 -41 25 -69c0 -29 -10 -54 -31 -75c-21 -20 -46 -30 -75 -30c-15 0 -29 3 -43 10c-13 7 -24 15 -33 25c-8 9 -7 19 3 28l20 17c3 3 6 4 10 4c5 0 8 -2 11 -5c7 -8 17 -12 30 -12c10 0 18 4 25 11s10 16 10 26
c0 13 -6 24 -18 33s-30 14 -55 16c-11 1 -17 7 -17 18v85z" />
    <glyph glyph-name="Egrave" unicode="&#xc8;" horiz-adv-x="588" 
d="M390 768l-175 77c-5 2 -8 5 -9 11c-1 4 0 10 3 16l28 52c3 4 7 6 12 6c5 1 10 0 14 -3l164 -98c3 -1 5 -4 7 -7c1 -4 1 -8 -1 -12l-18 -35c-5 -10 -13 -12 -25 -7zM91 19v662c0 5 2 10 5 13c4 4 9 6 14 6h407c5 0 10 -2 13 -6c4 -4 6 -8 6 -13v-82c0 -5 -2 -10 -6 -13
c-3 -4 -8 -6 -13 -6h-296v-164h247c5 0 10 -2 14 -6c3 -4 5 -8 5 -13v-83c0 -5 -2 -10 -5 -14c-4 -3 -9 -5 -14 -5h-247v-175h296c5 0 10 -2 13 -6c4 -4 6 -8 6 -13v-82c0 -5 -2 -10 -6 -13c-3 -4 -8 -6 -13 -6h-407c-5 0 -10 2 -14 6c-3 3 -5 8 -5 13z" />
    <glyph glyph-name="Eacute" unicode="&#xc9;" horiz-adv-x="588" 
d="M250 768c-12 -5 -20 -3 -25 7l-18 35c-1 4 -1 8 -1 11c2 3 4 6 7 8l164 98c12 8 21 7 26 -3l28 -52c3 -6 4 -12 3 -16c-1 -6 -4 -9 -9 -11zM91 19v662c0 5 2 10 5 13c4 4 9 6 14 6h407c5 0 10 -2 13 -6c4 -4 6 -8 6 -13v-82c0 -5 -2 -10 -6 -13c-3 -4 -8 -6 -13 -6h-296
v-164h247c5 0 10 -2 14 -6c3 -4 5 -8 5 -13v-83c0 -5 -2 -10 -5 -14c-4 -3 -9 -5 -14 -5h-247v-175h296c5 0 10 -2 13 -6c4 -4 6 -8 6 -13v-82c0 -5 -2 -10 -6 -13c-3 -4 -8 -6 -13 -6h-407c-5 0 -10 2 -14 6c-3 3 -5 8 -5 13z" />
    <glyph glyph-name="Ecircumflex" unicode="&#xca;" horiz-adv-x="588" 
d="M91 19v662c0 5 2 10 5 13c4 4 9 6 14 6h407c5 0 10 -2 13 -6c4 -4 6 -8 6 -13v-82c0 -5 -2 -10 -6 -13c-3 -4 -8 -6 -13 -6h-296v-164h247c5 0 10 -2 14 -6c3 -4 5 -8 5 -13v-83c0 -5 -2 -10 -5 -14c-4 -3 -9 -5 -14 -5h-247v-175h296c5 0 10 -2 13 -6c4 -4 6 -8 6 -13
v-82c0 -5 -2 -10 -6 -13c-3 -4 -8 -6 -13 -6h-407c-5 0 -10 2 -14 6c-3 3 -5 8 -5 13zM194 769l-26 37c-2 4 -2 8 -1 11s4 6 7 8l130 101c7 5 14 5 21 0l130 -101c3 -3 6 -5 7 -9c1 -2 1 -6 -1 -10l-26 -37c-5 -8 -13 -9 -23 -3l-97 61l-98 -61c-10 -6 -18 -5 -23 3z" />
    <glyph glyph-name="Edieresis" unicode="&#xcb;" horiz-adv-x="588" 
d="M379 839c0 17 6 32 19 45c12 12 27 18 44 18s32 -6 45 -18c13 -13 19 -28 19 -45s-6 -32 -19 -45s-28 -19 -45 -19s-32 6 -44 19c-13 12 -19 27 -19 45zM132 839c0 17 6 32 18 45c13 12 28 18 45 18s32 -6 45 -18c13 -13 19 -28 19 -45s-6 -32 -19 -45s-28 -19 -45 -19
s-32 6 -45 19c-12 12 -18 27 -18 45zM91 19v662c0 5 2 10 5 13c4 4 9 6 14 6h407c5 0 10 -2 13 -6c4 -4 6 -8 6 -13v-82c0 -5 -2 -10 -6 -13c-3 -4 -8 -6 -13 -6h-296v-164h247c5 0 10 -2 14 -6c3 -4 5 -8 5 -13v-83c0 -5 -2 -10 -5 -14c-4 -3 -9 -5 -14 -5h-247v-175h296
c5 0 10 -2 13 -6c4 -4 6 -8 6 -13v-82c0 -5 -2 -10 -6 -13c-3 -4 -8 -6 -13 -6h-407c-5 0 -10 2 -14 6c-3 3 -5 8 -5 13z" />
    <glyph glyph-name="Igrave" unicode="&#xcc;" horiz-adv-x="313" 
d="M226 768l-175 77c-5 2 -8 5 -9 11c-1 4 0 10 3 16l28 52c3 4 7 6 12 6c5 1 10 0 14 -3l164 -98c3 -1 5 -4 7 -7c1 -4 1 -8 -1 -12l-18 -35c-5 -10 -13 -12 -25 -7zM91 19v662c0 5 2 10 5 13c4 4 9 6 14 6h93c5 0 10 -2 13 -6c4 -4 6 -8 6 -13v-662c0 -5 -2 -10 -6 -13
c-4 -4 -8 -6 -13 -6h-93c-5 0 -10 2 -14 6c-3 3 -5 8 -5 13z" />
    <glyph glyph-name="Iacute" unicode="&#xcd;" horiz-adv-x="313" 
d="M86 768c-12 -5 -20 -3 -25 7l-18 35c-1 4 -1 8 -1 11c2 3 4 6 7 8l164 98c12 8 21 7 26 -3l28 -52c3 -6 4 -12 3 -16c-1 -6 -4 -9 -9 -11zM91 19v662c0 5 2 10 5 13c4 4 9 6 14 6h93c5 0 10 -2 13 -6c4 -4 6 -8 6 -13v-662c0 -5 -2 -10 -6 -13c-4 -4 -8 -6 -13 -6h-93
c-5 0 -10 2 -14 6c-3 3 -5 8 -5 13z" />
    <glyph glyph-name="Icircumflex" unicode="&#xce;" horiz-adv-x="313" 
d="M35 769l-26 37c-2 4 -2 8 -1 11s4 6 7 8l130 101c7 5 14 5 21 0l130 -101c3 -3 6 -5 7 -9c1 -2 1 -6 -1 -10l-26 -37c-5 -8 -13 -9 -23 -3l-97 61l-98 -61c-10 -6 -18 -5 -23 3zM91 19v662c0 5 2 10 5 13c4 4 9 6 14 6h93c5 0 10 -2 13 -6c4 -4 6 -8 6 -13v-662
c0 -5 -2 -10 -6 -13c-4 -4 -8 -6 -13 -6h-93c-5 0 -10 2 -14 6c-3 3 -5 8 -5 13z" />
    <glyph glyph-name="Idieresis" unicode="&#xcf;" horiz-adv-x="313" 
d="M217 839c0 17 6 32 19 45c12 12 27 18 44 18s32 -6 45 -18c13 -13 19 -28 19 -45s-6 -32 -19 -45s-28 -19 -45 -19s-32 6 -44 19c-13 12 -19 27 -19 45zM-30 839c0 17 6 32 18 45c13 12 28 18 45 18s32 -6 45 -18c13 -13 19 -28 19 -45s-6 -32 -19 -45s-28 -19 -45 -19
s-32 6 -45 19c-12 12 -18 27 -18 45zM91 19v662c0 5 2 10 5 13c4 4 9 6 14 6h93c5 0 10 -2 13 -6c4 -4 6 -8 6 -13v-662c0 -5 -2 -10 -6 -13c-4 -4 -8 -6 -13 -6h-93c-5 0 -10 2 -14 6c-3 3 -5 8 -5 13z" />
    <glyph glyph-name="Eth" unicode="&#xd0;" horiz-adv-x="743" 
d="M96 19v302h-29c-5 0 -10 2 -13 5c-3 4 -5 9 -5 14v13c0 5 2 10 5 13c4 4 8 6 13 6h29v309c0 5 2 10 5 13c3 4 8 6 13 6h237c47 0 93 -9 136 -28s81 -44 112 -74c31 -32 56 -68 75 -112c19 -42 28 -88 28 -135c0 -64 -16 -123 -47 -177c-31 -53 -74 -96 -128 -127
s-113 -47 -176 -47h-237c-5 0 -10 2 -13 6c-3 3 -5 8 -5 13zM225 122h114c65 0 119 22 161 65c43 43 64 98 64 164c0 65 -21 120 -64 163s-96 65 -161 65h-114v-207h165c5 0 10 -2 14 -6c3 -4 5 -8 5 -13v-14c0 -5 -2 -10 -5 -13c-4 -3 -9 -5 -14 -5h-165v-199z" />
    <glyph glyph-name="Ntilde" unicode="&#xd1;" horiz-adv-x="773" 
d="M91 19v673c0 5 2 10 5 13c4 3 9 5 14 5h25l416 -442h1v413c0 5 2 10 6 13c3 4 8 6 13 6h92c5 0 10 -2 13 -6c4 -4 6 -8 6 -13v-673c0 -5 -2 -10 -6 -13s-8 -5 -13 -5h-24l-418 459h-1v-430c0 -5 -2 -10 -6 -13c-3 -4 -8 -6 -13 -6h-91c-5 0 -10 2 -14 6c-3 3 -5 8 -5 13z
M266 789l-29 21c-3 3 -6 6 -7 11s-1 9 1 12c15 28 30 48 45 60c19 16 38 24 59 24c12 0 23 -3 33 -8c11 -6 19 -12 26 -20c7 -6 14 -13 23 -18c9 -6 17 -9 25 -9s15 3 21 9c6 7 11 13 14 20c3 6 8 11 13 14c5 4 11 3 17 -2l28 -20c9 -7 9 -17 1 -31c0 -1 -1 -2 -2 -4
c-5 -8 -9 -15 -13 -21c-4 -5 -10 -13 -19 -22c-8 -9 -17 -16 -28 -22c-11 -4 -22 -7 -35 -7c-12 0 -23 3 -35 9c-10 5 -20 12 -27 19s-15 14 -23 19c-9 6 -17 9 -24 9c-8 0 -15 -3 -21 -9c-6 -7 -10 -13 -13 -20s-7 -12 -12 -16c-5 -3 -11 -3 -18 2z" />
    <glyph glyph-name="Ograve" unicode="&#xd2;" horiz-adv-x="800" 
d="M473 768l-175 77c-5 2 -8 5 -9 11c-1 4 0 10 3 16l28 52c3 4 7 6 12 6c5 1 10 0 14 -3l164 -98c3 -1 5 -4 6 -7c2 -4 2 -8 0 -12l-18 -35c-5 -10 -13 -12 -25 -7zM88 168c-31 55 -47 115 -47 181s16 127 47 182c32 55 76 99 131 131s116 48 181 48s126 -16 181 -48
s99 -76 131 -131s48 -116 48 -182s-16 -126 -48 -181s-76 -98 -131 -130s-116 -48 -181 -48s-126 16 -181 48s-99 75 -131 130zM171 349c0 -63 23 -117 67 -161c46 -46 99 -68 162 -68c41 0 80 10 115 31s63 49 84 83c21 36 31 74 31 115s-10 80 -31 115
c-21 36 -49 64 -84 85s-74 31 -115 31s-80 -10 -115 -31s-63 -49 -83 -85c-21 -35 -31 -74 -31 -115z" />
    <glyph glyph-name="Oacute" unicode="&#xd3;" horiz-adv-x="800" 
d="M331 768c-12 -5 -20 -3 -25 7l-18 35c-1 4 -2 8 0 11c0 3 3 6 6 8l164 98c12 8 21 7 26 -3l28 -52c3 -6 4 -12 3 -16c-1 -6 -4 -9 -9 -11zM88 168c-31 55 -47 115 -47 181s16 127 47 182c32 55 76 99 131 131s116 48 181 48s126 -16 181 -48s99 -76 131 -131
s48 -116 48 -182s-16 -126 -48 -181s-76 -98 -131 -130s-116 -48 -181 -48s-126 16 -181 48s-99 75 -131 130zM171 349c0 -63 23 -117 67 -161c46 -46 99 -68 162 -68c41 0 80 10 115 31s63 49 84 83c21 36 31 74 31 115s-10 80 -31 115c-21 36 -49 64 -84 85
s-74 31 -115 31s-80 -10 -115 -31s-63 -49 -83 -85c-21 -35 -31 -74 -31 -115z" />
    <glyph glyph-name="Ocircumflex" unicode="&#xd4;" horiz-adv-x="800" 
d="M88 168c-31 55 -47 115 -47 181s16 127 47 182c32 55 76 99 131 131s116 48 181 48s126 -16 181 -48s99 -76 131 -131s48 -116 48 -182s-16 -126 -48 -181s-76 -98 -131 -130s-116 -48 -181 -48s-126 16 -181 48s-99 75 -131 130zM171 349c0 -63 23 -117 67 -161
c46 -46 99 -68 162 -68c41 0 80 10 115 31s63 49 84 83c21 36 31 74 31 115s-10 80 -31 115c-21 36 -49 64 -84 85s-74 31 -115 31s-80 -10 -115 -31s-63 -49 -83 -85c-21 -35 -31 -74 -31 -115zM279 769l-26 37c-2 4 -2 8 -1 11s4 6 7 8l130 101c7 5 14 5 21 0l130 -101
c3 -3 6 -5 7 -9c1 -2 1 -6 -1 -10l-26 -37c-5 -8 -13 -9 -23 -3l-97 61l-98 -61c-10 -6 -18 -5 -23 3z" />
    <glyph glyph-name="Otilde" unicode="&#xd5;" horiz-adv-x="800" 
d="M88 168c-31 55 -47 115 -47 181s16 127 47 182c32 55 76 99 131 131s116 48 181 48s126 -16 181 -48s99 -76 131 -131s48 -116 48 -182s-16 -126 -48 -181s-76 -98 -131 -130s-116 -48 -181 -48s-126 16 -181 48s-99 75 -131 130zM171 349c0 -63 23 -117 67 -161
c46 -46 99 -68 162 -68c41 0 80 10 115 31s63 49 84 83c21 36 31 74 31 115s-10 80 -31 115c-21 36 -49 64 -84 85s-74 31 -115 31s-80 -10 -115 -31s-63 -49 -83 -85c-21 -35 -31 -74 -31 -115zM281 789l-29 21c-3 3 -6 6 -7 11s-1 9 1 12c15 28 30 48 45 60
c19 16 38 24 59 24c12 0 23 -3 33 -8c11 -6 19 -12 26 -20c7 -6 14 -13 23 -18c9 -6 17 -9 25 -9s15 3 21 9c6 7 11 13 14 20c3 6 8 11 13 14c5 4 11 3 17 -2l28 -20c9 -7 9 -17 1 -31c0 -1 -1 -2 -2 -4c-5 -8 -9 -15 -13 -21c-4 -5 -10 -13 -19 -22c-8 -9 -17 -16 -28 -22
c-11 -4 -22 -7 -35 -7c-12 0 -23 3 -35 9c-10 5 -20 12 -27 19s-15 14 -23 19c-9 6 -17 9 -24 9c-8 0 -15 -3 -21 -9c-6 -7 -10 -13 -13 -20s-7 -12 -12 -16c-5 -3 -11 -3 -18 2z" />
    <glyph glyph-name="Odieresis" unicode="&#xd6;" horiz-adv-x="800" 
d="M460 839c0 17 6 32 18 45c13 12 28 18 45 18s32 -6 45 -18c13 -13 19 -28 19 -45s-6 -32 -19 -45s-28 -19 -45 -19s-32 6 -45 19c-12 12 -18 27 -18 45zM213 839c0 17 6 32 19 45c12 12 27 18 44 18s32 -6 45 -18c13 -13 19 -28 19 -45s-6 -32 -19 -45s-28 -19 -45 -19
s-32 6 -44 19c-13 12 -19 27 -19 45zM88 168c-31 55 -47 115 -47 181s16 127 47 182c32 55 76 99 131 131s116 48 181 48s126 -16 181 -48s99 -76 131 -131s48 -116 48 -182s-16 -126 -48 -181s-76 -98 -131 -130s-116 -48 -181 -48s-126 16 -181 48s-99 75 -131 130z
M171 349c0 -63 23 -117 67 -161c46 -46 99 -68 162 -68c41 0 80 10 115 31s63 49 84 83c21 36 31 74 31 115s-10 80 -31 115c-21 36 -49 64 -84 85s-74 31 -115 31s-80 -10 -115 -31s-63 -49 -83 -85c-21 -35 -31 -74 -31 -115z" />
    <glyph glyph-name="multiply" unicode="&#xd7;" horiz-adv-x="464" 
d="M100 175l-40 40c-3 3 -5 8 -5 13s2 10 5 13l106 106l-106 106c-3 3 -5 8 -5 13c0 6 2 11 5 14l39 40c3 3 8 5 13 5c6 0 11 -2 14 -5l106 -106l106 107c4 3 8 5 13 5s9 -2 13 -6l40 -40c4 -4 6 -8 6 -13s-2 -9 -5 -13l-106 -107l106 -106c3 -4 5 -9 5 -13
c0 -6 -2 -10 -6 -14l-40 -39c-4 -4 -8 -6 -13 -6s-9 2 -13 5l-106 107l-106 -106c-3 -3 -8 -5 -13 -5s-10 2 -13 5z" />
    <glyph glyph-name="Oslash" unicode="&#xd8;" horiz-adv-x="799" 
d="M63 23c-4 4 -6 9 -6 13c0 6 2 10 5 13l65 64c-57 67 -86 145 -86 236c0 65 16 126 47 181c32 56 76 100 131 132s116 48 181 48c44 0 86 -8 127 -23s77 -37 109 -65l68 67c3 3 8 5 13 5s10 -2 13 -5l10 -10c3 -3 5 -7 5 -13c0 -4 -2 -9 -5 -13l-68 -68
c28 -32 50 -68 65 -109c15 -40 23 -82 23 -126c0 -65 -16 -126 -48 -181s-76 -99 -131 -131s-116 -48 -181 -48c-92 0 -171 29 -236 87l-65 -65c-4 -3 -9 -5 -13 -4c-6 0 -10 2 -13 5zM221 207l323 322c-44 34 -92 51 -144 51c-41 0 -80 -10 -115 -31s-63 -49 -83 -85
c-21 -35 -31 -74 -31 -115c0 -53 17 -100 50 -142zM257 170c42 -33 90 -50 143 -50c63 0 117 23 162 68s68 99 68 162c0 55 -17 102 -51 142z" />
    <glyph glyph-name="Ugrave" unicode="&#xd9;" horiz-adv-x="721" 
d="M430 768l-175 77c-5 2 -8 5 -9 11c-1 4 0 10 3 16l28 52c3 4 7 6 12 6c5 1 10 0 14 -3l164 -98c3 -1 5 -4 7 -7c1 -4 1 -8 -1 -12l-18 -35c-5 -10 -13 -12 -25 -7zM82 265v416c0 5 2 10 6 13c3 4 8 6 13 6h95c5 0 10 -2 14 -6c3 -4 5 -8 5 -13v-409c0 -43 13 -80 41 -108
c26 -30 61 -44 104 -44s78 14 105 44c27 28 41 64 41 107v410c0 5 2 10 6 13c3 4 8 6 13 6h95c5 0 10 -2 14 -6c3 -4 5 -8 5 -13v-416c0 -50 -12 -96 -37 -138c-24 -42 -58 -75 -100 -100c-44 -25 -91 -37 -142 -37s-98 12 -141 37s-76 58 -101 100c-24 42 -36 88 -36 138z
" />
    <glyph glyph-name="Uacute" unicode="&#xda;" horiz-adv-x="721" 
d="M292 768c-12 -5 -20 -3 -25 7l-18 35c-1 4 -1 8 -1 11c2 3 4 6 7 8l164 98c12 8 21 7 26 -3l28 -52c3 -6 4 -12 3 -16c-1 -6 -4 -9 -9 -11zM82 265v416c0 5 2 10 6 13c3 4 8 6 13 6h95c5 0 10 -2 14 -6c3 -4 5 -8 5 -13v-409c0 -43 13 -80 41 -108c26 -30 61 -44 104 -44
s78 14 105 44c27 28 41 64 41 107v410c0 5 2 10 6 13c3 4 8 6 13 6h95c5 0 10 -2 14 -6c3 -4 5 -8 5 -13v-416c0 -50 -12 -96 -37 -138c-24 -42 -58 -75 -100 -100c-44 -25 -91 -37 -142 -37s-98 12 -141 37s-76 58 -101 100c-24 42 -36 88 -36 138z" />
    <glyph glyph-name="Ucircumflex" unicode="&#xdb;" horiz-adv-x="721" 
d="M240 769l-26 37c-2 4 -2 8 -1 11s4 6 7 8l130 101c7 5 14 5 21 0l130 -101c3 -3 6 -5 7 -9c1 -2 1 -6 -1 -10l-26 -37c-5 -8 -13 -9 -23 -3l-97 61l-98 -61c-10 -6 -18 -5 -23 3zM82 265v416c0 5 2 10 6 13c3 4 8 6 13 6h95c5 0 10 -2 14 -6c3 -4 5 -8 5 -13v-409
c0 -43 13 -80 41 -108c26 -30 61 -44 104 -44s78 14 105 44c27 28 41 64 41 107v410c0 5 2 10 6 13c3 4 8 6 13 6h95c5 0 10 -2 14 -6c3 -4 5 -8 5 -13v-416c0 -50 -12 -96 -37 -138c-24 -42 -58 -75 -100 -100c-44 -25 -91 -37 -142 -37s-98 12 -141 37s-76 58 -101 100
c-24 42 -36 88 -36 138z" />
    <glyph glyph-name="Udieresis" unicode="&#xdc;" horiz-adv-x="721" 
d="M420 839c0 17 6 32 18 45c13 12 28 18 45 18s32 -6 45 -18c13 -13 19 -28 19 -45s-6 -32 -19 -45s-28 -19 -45 -19s-32 6 -45 19c-12 12 -18 27 -18 45zM173 839c0 17 6 32 19 45c12 12 27 18 44 18s32 -6 45 -18c13 -13 19 -28 19 -45s-6 -32 -19 -45s-28 -19 -45 -19
s-32 6 -44 19c-13 12 -19 27 -19 45zM82 265v416c0 5 2 10 6 13c3 4 8 6 13 6h95c5 0 10 -2 14 -6c3 -4 5 -8 5 -13v-409c0 -43 13 -80 41 -108c26 -30 61 -44 104 -44s78 14 105 44c27 28 41 64 41 107v410c0 5 2 10 6 13c3 4 8 6 13 6h95c5 0 10 -2 14 -6c3 -4 5 -8 5 -13
v-416c0 -50 -12 -96 -37 -138c-24 -42 -58 -75 -100 -100c-44 -25 -91 -37 -142 -37s-98 12 -141 37s-76 58 -101 100c-24 42 -36 88 -36 138z" />
    <glyph glyph-name="Yacute" unicode="&#xdd;" horiz-adv-x="583" 
d="M221 768c-12 -5 -20 -3 -25 7l-18 35c-1 4 -2 8 0 11c0 3 3 6 6 8l164 98c12 8 21 7 26 -3l28 -52c3 -6 4 -12 3 -16c-1 -6 -4 -9 -9 -11zM225 19v318l-228 334c-4 7 -4 13 -1 19c3 7 9 10 17 10h102c6 0 11 -3 16 -9l160 -230l160 230c4 6 9 9 16 9h103
c8 0 14 -3 17 -10c3 -6 3 -12 -1 -19l-231 -333v-319c0 -5 -2 -10 -5 -13c-4 -4 -9 -6 -14 -6h-92c-5 0 -10 2 -14 6c-3 3 -5 8 -5 13z" />
    <glyph glyph-name="Thorn" unicode="&#xde;" horiz-adv-x="591" 
d="M91 19v662c0 5 2 10 5 13c4 4 9 6 14 6h92c5 0 10 -2 14 -6c3 -4 5 -8 5 -13v-108h124c61 0 114 -22 158 -65s66 -95 66 -156c0 -62 -22 -115 -65 -159c-44 -44 -97 -66 -158 -66h-125v-108c0 -5 -2 -10 -5 -13c-4 -4 -9 -6 -14 -6h-92c-5 0 -10 2 -14 6c-3 3 -5 8 -5 13
zM221 249h116c28 0 52 10 73 30c20 20 30 45 30 74c0 27 -10 50 -30 69s-44 28 -73 28h-116v-201z" />
    <glyph glyph-name="germandbls" unicode="&#xdf;" horiz-adv-x="517" 
d="M60 19v393c0 97 21 171 63 222s100 76 174 76c21 0 42 -3 61 -10c20 -6 38 -15 54 -28c16 -12 29 -28 38 -49c10 -21 15 -44 15 -70c0 -20 -4 -41 -13 -63c-8 -21 -17 -39 -27 -54c-10 -14 -19 -29 -27 -46c-8 -16 -12 -29 -12 -40c0 -8 4 -17 10 -28
c8 -10 16 -21 26 -32c10 -12 20 -25 30 -39s18 -30 26 -49c6 -19 10 -38 10 -58c0 -21 -3 -41 -10 -58c-6 -17 -14 -32 -25 -44s-23 -22 -37 -30c-15 -8 -30 -14 -45 -17s-31 -5 -47 -5c-27 0 -42 7 -44 20l-9 67c-1 5 1 9 4 13s8 6 13 6c20 -1 38 2 52 12c16 8 23 22 23 39
c0 12 -3 24 -11 37c-6 12 -15 23 -26 34l-30 33c-11 11 -20 24 -26 39c-8 14 -11 28 -11 42c0 15 4 33 13 53c8 20 17 38 27 55c10 16 19 34 28 54s13 38 13 54s-5 29 -16 39s-24 15 -39 15c-13 0 -25 -3 -36 -10s-22 -17 -33 -31c-10 -14 -18 -34 -24 -60s-9 -56 -9 -91
v-391c0 -5 -2 -10 -5 -13c-4 -4 -9 -6 -14 -6h-85c-5 0 -10 2 -13 6c-4 3 -6 8 -6 13z" />
    <glyph glyph-name="agrave" unicode="&#xe0;" horiz-adv-x="426" 
d="M31 127c0 37 14 67 43 91c28 23 67 35 117 35c12 0 24 -1 37 -3c12 -1 21 -3 27 -5l9 -3c0 25 -4 43 -12 54c-8 10 -21 15 -40 15c-17 0 -37 -1 -60 -5c-23 -2 -40 -6 -52 -10c-13 -4 -21 2 -23 18l-9 52c-3 13 2 21 14 25c4 1 12 3 24 7c12 2 29 5 50 8c22 3 43 4 62 4
c31 0 56 -4 77 -12c21 -7 36 -19 47 -34c11 -16 18 -34 23 -54s7 -45 7 -74v-217c0 -5 -2 -10 -6 -13c-4 -4 -8 -6 -13 -6h-36c-7 0 -12 5 -17 14l-12 27c-37 -34 -78 -51 -122 -51c-40 0 -72 12 -98 37c-24 25 -37 58 -37 100zM141 127c0 -15 5 -27 15 -37
c9 -10 22 -15 37 -15s29 5 43 13c13 10 22 18 26 26v55c-18 8 -37 12 -56 12s-35 -5 -47 -15s-18 -23 -18 -39zM297 528l-175 77c-11 5 -13 14 -6 27l28 51c3 4 6 6 12 7c4 0 9 -1 14 -4l164 -97c3 -1 6 -4 7 -7c1 -4 1 -8 -1 -12l-18 -36c-4 -9 -12 -11 -25 -6z" />
    <glyph glyph-name="aacute" unicode="&#xe1;" horiz-adv-x="426" 
d="M156 528c-12 -5 -21 -3 -26 6l-17 36c-4 7 -2 14 6 19l163 97c4 3 9 4 14 4c6 0 10 -2 12 -7l29 -51c6 -13 4 -22 -6 -27zM31 127c0 37 14 67 43 91c28 23 67 35 117 35c12 0 24 -1 37 -3c12 -1 21 -3 27 -5l9 -3c0 25 -4 43 -12 54c-8 10 -21 15 -40 15
c-17 0 -37 -1 -60 -5c-23 -2 -40 -6 -52 -10c-13 -4 -21 2 -23 18l-9 52c-3 13 2 21 14 25c4 1 12 3 24 7c12 2 29 5 50 8c22 3 43 4 62 4c31 0 56 -4 77 -12c21 -7 36 -19 47 -34c11 -16 18 -34 23 -54s7 -45 7 -74v-217c0 -5 -2 -10 -6 -13c-4 -4 -8 -6 -13 -6h-36
c-7 0 -12 5 -17 14l-12 27c-37 -34 -78 -51 -122 -51c-40 0 -72 12 -98 37c-24 25 -37 58 -37 100zM141 127c0 -15 5 -27 15 -37c9 -10 22 -15 37 -15s29 5 43 13c13 10 22 18 26 26v55c-18 8 -37 12 -56 12s-35 -5 -47 -15s-18 -23 -18 -39z" />
    <glyph glyph-name="acircumflex" unicode="&#xe2;" horiz-adv-x="426" 
d="M94 529l-26 37c-2 4 -2 8 -1 11s4 6 7 8l130 101c7 5 14 5 21 0l130 -101c3 -3 6 -5 7 -9c1 -2 1 -6 -1 -10l-26 -37c-5 -8 -13 -9 -23 -3l-97 61l-98 -61c-10 -6 -18 -5 -23 3zM31 127c0 37 14 67 43 91c28 23 67 35 117 35c12 0 24 -1 37 -3c12 -1 21 -3 27 -5l9 -3
c0 25 -4 43 -12 54c-8 10 -21 15 -40 15c-17 0 -37 -1 -60 -5c-23 -2 -40 -6 -52 -10c-13 -4 -21 2 -23 18l-9 52c-3 13 2 21 14 25c4 1 12 3 24 7c12 2 29 5 50 8c22 3 43 4 62 4c31 0 56 -4 77 -12c21 -7 36 -19 47 -34c11 -16 18 -34 23 -54s7 -45 7 -74v-217
c0 -5 -2 -10 -6 -13c-4 -4 -8 -6 -13 -6h-36c-7 0 -12 5 -17 14l-12 27c-37 -34 -78 -51 -122 -51c-40 0 -72 12 -98 37c-24 25 -37 58 -37 100zM141 127c0 -15 5 -27 15 -37c9 -10 22 -15 37 -15s29 5 43 13c13 10 22 18 26 26v55c-18 8 -37 12 -56 12s-35 -5 -47 -15
s-18 -23 -18 -39z" />
    <glyph glyph-name="atilde" unicode="&#xe3;" horiz-adv-x="426" 
d="M97 562l-29 21c-3 3 -6 6 -7 11s-1 9 1 12c15 28 30 48 45 60c19 16 38 24 59 24c12 0 23 -3 34 -8c10 -6 18 -12 25 -20c7 -6 14 -13 23 -18c9 -6 17 -9 25 -9s15 3 21 9c6 7 11 13 14 20c3 6 8 11 13 14c5 4 11 3 17 -2l28 -20c9 -7 9 -17 1 -31c0 -1 -1 -2 -2 -4
c-5 -8 -9 -15 -13 -21c-4 -5 -10 -13 -18 -22c-9 -9 -18 -16 -29 -22c-11 -4 -22 -7 -35 -7c-12 0 -24 3 -34 9c-12 5 -21 12 -28 19s-15 14 -24 19c-8 6 -16 9 -23 9c-8 0 -15 -3 -21 -9c-6 -7 -10 -13 -13 -20s-7 -12 -12 -16c-5 -3 -11 -3 -18 2zM31 127
c0 37 14 67 43 91c28 23 67 35 117 35c12 0 24 -1 37 -3c12 -1 21 -3 27 -5l9 -3c0 25 -4 43 -12 54c-8 10 -21 15 -40 15c-17 0 -37 -1 -60 -5c-23 -2 -40 -6 -52 -10c-13 -4 -21 2 -23 18l-9 52c-3 13 2 21 14 25c4 1 12 3 24 7c12 2 29 5 50 8c22 3 43 4 62 4
c31 0 56 -4 77 -12c21 -7 36 -19 47 -34c11 -16 18 -34 23 -54s7 -45 7 -74v-217c0 -5 -2 -10 -6 -13c-4 -4 -8 -6 -13 -6h-36c-7 0 -12 5 -17 14l-12 27c-37 -34 -78 -51 -122 -51c-40 0 -72 12 -98 37c-24 25 -37 58 -37 100zM141 127c0 -15 5 -27 15 -37
c9 -10 22 -15 37 -15s29 5 43 13c13 10 22 18 26 26v55c-18 8 -37 12 -56 12s-35 -5 -47 -15s-18 -23 -18 -39z" />
    <glyph glyph-name="adieresis" unicode="&#xe4;" horiz-adv-x="426" 
d="M55 615c0 17 6 32 19 45c12 12 27 18 44 18s32 -6 45 -18c13 -13 19 -28 19 -45s-6 -32 -19 -45s-28 -19 -45 -19s-32 6 -44 19c-13 12 -19 27 -19 45zM256 615c0 17 6 32 18 45c13 12 28 18 45 18s32 -6 45 -18c13 -13 19 -28 19 -45s-6 -32 -19 -45s-28 -19 -45 -19
s-32 6 -45 19c-12 12 -18 27 -18 45zM31 127c0 37 14 67 43 91c28 23 67 35 117 35c12 0 24 -1 37 -3c12 -1 21 -3 27 -5l9 -3c0 25 -4 43 -12 54c-8 10 -21 15 -40 15c-17 0 -37 -1 -60 -5c-23 -2 -40 -6 -52 -10c-13 -4 -21 2 -23 18l-9 52c-3 13 2 21 14 25
c4 1 12 3 24 7c12 2 29 5 50 8c22 3 43 4 62 4c31 0 56 -4 77 -12c21 -7 36 -19 47 -34c11 -16 18 -34 23 -54s7 -45 7 -74v-217c0 -5 -2 -10 -6 -13c-4 -4 -8 -6 -13 -6h-36c-7 0 -12 5 -17 14l-12 27c-37 -34 -78 -51 -122 -51c-40 0 -72 12 -98 37c-24 25 -37 58 -37 100
zM141 127c0 -15 5 -27 15 -37c9 -10 22 -15 37 -15s29 5 43 13c13 10 22 18 26 26v55c-18 8 -37 12 -56 12s-35 -5 -47 -15s-18 -23 -18 -39z" />
    <glyph glyph-name="aring" unicode="&#xe5;" horiz-adv-x="426" 
d="M220 484c-31 0 -58 11 -80 33s-33 49 -33 80s11 58 33 80s49 33 80 33s57 -11 80 -33c22 -22 33 -49 33 -80s-11 -58 -33 -80c-23 -22 -49 -33 -80 -33zM185 562c11 -10 22 -15 35 -15s24 5 34 15c9 11 14 22 14 35s-5 24 -14 33c-10 10 -21 15 -34 15s-24 -5 -34 -15
c-11 -9 -16 -20 -16 -33s5 -24 15 -35zM31 127c0 37 14 67 43 91c28 23 67 35 117 35c12 0 24 -1 37 -3c12 -1 21 -3 27 -5l9 -3c0 25 -4 43 -12 54c-8 10 -21 15 -40 15c-17 0 -37 -1 -60 -5c-23 -2 -40 -6 -52 -10c-13 -4 -21 2 -23 18l-9 52c-3 13 2 21 14 25
c4 1 12 3 24 7c12 2 29 5 50 8c22 3 43 4 62 4c31 0 56 -4 77 -12c21 -7 36 -19 47 -34c11 -16 18 -34 23 -54s7 -45 7 -74v-217c0 -5 -2 -10 -6 -13c-4 -4 -8 -6 -13 -6h-36c-7 0 -12 5 -17 14l-12 27c-37 -34 -78 -51 -122 -51c-40 0 -72 12 -98 37c-24 25 -37 58 -37 100
zM141 127c0 -15 5 -27 15 -37c9 -10 22 -15 37 -15s29 5 43 13c13 10 22 18 26 26v55c-18 8 -37 12 -56 12s-35 -5 -47 -15s-18 -23 -18 -39z" />
    <glyph glyph-name="ae" unicode="&#xe6;" horiz-adv-x="670" 
d="M30 127c0 37 14 68 42 91s66 35 114 35c12 0 24 -1 37 -2s22 -3 29 -4l10 -2c-1 27 -6 45 -13 57c-7 10 -21 16 -42 16c-32 0 -68 -5 -109 -16c-5 -1 -10 0 -15 4c-5 2 -7 7 -8 12l-9 54c0 5 2 9 4 12c4 4 7 7 12 8c49 12 95 18 136 18c59 0 100 -14 121 -41
c35 27 75 41 120 41c52 0 96 -18 133 -52c36 -36 54 -80 54 -134v-16c-1 -3 -2 -8 -2 -12c-2 -6 -4 -9 -7 -12s-7 -4 -12 -4h-255c3 -23 13 -43 30 -61s39 -27 65 -27c27 0 54 9 79 26c11 8 20 8 26 0l40 -47c8 -11 8 -19 -1 -26c-39 -37 -88 -55 -149 -55
c-64 0 -114 22 -150 65c-12 -15 -30 -30 -56 -44c-24 -14 -53 -21 -86 -21c-41 0 -75 12 -100 38c-25 24 -38 58 -38 99zM379 251h150c-1 19 -9 35 -23 47c-15 14 -31 20 -50 20c-20 0 -37 -6 -52 -20c-14 -12 -22 -28 -25 -47zM196 76c8 0 16 1 24 4c7 3 14 6 18 10
c6 5 10 9 14 14c4 4 7 7 8 10l2 4v52c-18 9 -39 13 -62 13c-17 0 -31 -5 -42 -15c-12 -9 -18 -22 -18 -38s5 -29 16 -39s24 -15 40 -15z" />
    <glyph glyph-name="ccedilla" unicode="&#xe7;" horiz-adv-x="428" 
d="M180 0c-44 13 -80 37 -108 74c-28 36 -42 78 -42 126c0 58 21 108 64 148c43 42 92 62 149 62c60 0 109 -24 148 -71c4 -4 5 -9 5 -15c-2 -5 -5 -10 -10 -13l-46 -44c-7 -7 -15 -6 -25 3c-19 21 -42 32 -69 32s-50 -10 -69 -30s-29 -44 -29 -72s9 -52 28 -72
s42 -30 69 -30c12 0 23 2 33 6c11 4 19 8 24 12s12 10 19 17c2 1 3 2 4 3c8 8 16 9 25 3l43 -37c11 -9 14 -19 7 -28c-36 -55 -87 -83 -154 -84v-41c31 -4 54 -15 72 -33c16 -19 25 -42 25 -70c0 -29 -10 -54 -31 -74c-21 -21 -46 -31 -75 -31c-15 0 -29 3 -43 9
c-13 7 -24 15 -33 26c-8 9 -7 19 3 28l20 17c3 3 6 4 10 3c5 0 8 -1 11 -4c7 -8 17 -12 30 -12c10 0 18 4 25 11s10 16 10 26c0 13 -6 24 -18 33s-30 14 -55 16c-11 1 -17 7 -17 18v88z" />
    <glyph glyph-name="egrave" unicode="&#xe8;" horiz-adv-x="445" 
d="M30 200c0 57 19 107 58 148s87 62 146 62c52 0 96 -18 132 -53c37 -35 55 -80 55 -133c0 -9 -1 -18 -2 -27c0 -5 -2 -9 -6 -13c-4 -2 -8 -4 -13 -4h-256c1 -23 11 -43 28 -60c18 -18 41 -27 68 -27c29 0 55 8 78 25c11 7 20 7 26 0l41 -47c4 -4 6 -8 6 -13
c0 -4 -2 -8 -7 -13c-39 -37 -88 -55 -149 -55c-59 0 -107 20 -147 61c-38 41 -58 90 -58 149zM153 250h151c-1 19 -9 35 -23 48s-31 20 -50 20c-20 0 -37 -7 -52 -20s-23 -29 -26 -48zM302 528l-175 77c-11 5 -13 14 -6 27l28 51c3 4 7 6 11 7c6 0 10 -1 15 -4l164 -97
c3 -1 6 -4 7 -7c1 -4 1 -8 -1 -12l-18 -36c-4 -9 -12 -11 -25 -6z" />
    <glyph glyph-name="eacute" unicode="&#xe9;" horiz-adv-x="445" 
d="M30 200c0 57 19 107 58 148s87 62 146 62c52 0 96 -18 132 -53c37 -35 55 -80 55 -133c0 -9 -1 -18 -2 -27c0 -5 -2 -9 -6 -13c-4 -2 -8 -4 -13 -4h-256c1 -23 11 -43 28 -60c18 -18 41 -27 68 -27c29 0 55 8 78 25c11 7 20 7 26 0l41 -47c4 -4 6 -8 6 -13
c0 -4 -2 -8 -7 -13c-39 -37 -88 -55 -149 -55c-59 0 -107 20 -147 61c-38 41 -58 90 -58 149zM153 250h151c-1 19 -9 35 -23 48s-31 20 -50 20c-20 0 -37 -7 -52 -20s-23 -29 -26 -48zM160 528c-12 -5 -21 -3 -26 6l-17 36c-4 7 -2 14 6 19l163 97c4 3 9 4 14 4
c6 0 10 -2 12 -7l29 -51c6 -13 4 -22 -6 -27z" />
    <glyph glyph-name="ecircumflex" unicode="&#xea;" horiz-adv-x="445" 
d="M30 200c0 57 19 107 58 148s87 62 146 62c52 0 96 -18 132 -53c37 -35 55 -80 55 -133c0 -9 -1 -18 -2 -27c0 -5 -2 -9 -6 -13c-4 -2 -8 -4 -13 -4h-256c1 -23 11 -43 28 -60c18 -18 41 -27 68 -27c29 0 55 8 78 25c11 7 20 7 26 0l41 -47c4 -4 6 -8 6 -13
c0 -4 -2 -8 -7 -13c-39 -37 -88 -55 -149 -55c-59 0 -107 20 -147 61c-38 41 -58 90 -58 149zM153 250h151c-1 19 -9 35 -23 48s-31 20 -50 20c-20 0 -37 -7 -52 -20s-23 -29 -26 -48zM111 529l-26 37c-2 4 -2 8 -1 11s4 6 7 8l130 101c7 5 14 5 21 0l130 -101
c3 -3 6 -5 7 -9c1 -2 1 -6 -1 -10l-26 -37c-5 -8 -13 -9 -23 -3l-97 61l-98 -61c-10 -6 -18 -5 -23 3z" />
    <glyph glyph-name="edieresis" unicode="&#xeb;" horiz-adv-x="445" 
d="M30 200c0 57 19 107 58 148s87 62 146 62c52 0 96 -18 132 -53c37 -35 55 -80 55 -133c0 -9 -1 -18 -2 -27c0 -5 -2 -9 -6 -13c-4 -2 -8 -4 -13 -4h-256c1 -23 11 -43 28 -60c18 -18 41 -27 68 -27c29 0 55 8 78 25c11 7 20 7 26 0l41 -47c4 -4 6 -8 6 -13
c0 -4 -2 -8 -7 -13c-39 -37 -88 -55 -149 -55c-59 0 -107 20 -147 61c-38 41 -58 90 -58 149zM153 250h151c-1 19 -9 35 -23 48s-31 20 -50 20c-20 0 -37 -7 -52 -20s-23 -29 -26 -48zM68 615c0 17 6 32 19 45c12 12 27 18 44 18s32 -6 45 -18c13 -13 19 -28 19 -45
s-6 -32 -19 -45s-28 -19 -45 -19s-32 6 -44 19c-13 12 -19 27 -19 45zM269 615c0 17 6 32 18 45c13 12 28 18 45 18s32 -6 45 -18c13 -13 19 -28 19 -45s-6 -32 -19 -45s-28 -19 -45 -19s-32 6 -45 19c-12 12 -18 27 -18 45z" />
    <glyph glyph-name="igrave" unicode="&#xec;" horiz-adv-x="241" 
d="M60 19v362c0 5 2 10 6 13c4 4 8 6 13 6h83c5 0 10 -2 14 -6c3 -3 5 -8 5 -13v-362c0 -5 -2 -10 -5 -13c-4 -4 -9 -6 -14 -6h-83c-5 0 -10 2 -13 6c-4 3 -6 8 -6 13zM190 528l-175 77c-11 5 -13 14 -6 27l28 51c3 4 7 6 11 7c6 0 10 -1 15 -4l164 -97c3 -1 6 -4 7 -7
c1 -4 1 -8 -1 -12l-18 -36c-4 -9 -12 -11 -25 -6z" />
    <glyph glyph-name="iacute" unicode="&#xed;" horiz-adv-x="241" 
d="M60 19v362c0 5 2 10 6 13c4 4 8 6 13 6h83c5 0 10 -2 14 -6c3 -3 5 -8 5 -13v-362c0 -5 -2 -10 -5 -13c-4 -4 -9 -6 -14 -6h-83c-5 0 -10 2 -13 6c-4 3 -6 8 -6 13zM49 528c-12 -5 -21 -3 -26 6l-17 36c-4 7 -2 14 6 19l163 97c4 3 9 4 14 4c6 0 10 -2 12 -7l29 -51
c6 -13 4 -22 -6 -27z" />
    <glyph glyph-name="icircumflex" unicode="&#xee;" horiz-adv-x="241" 
d="M-1 529l-26 37c-2 4 -2 8 -1 11s4 6 7 8l130 101c7 5 14 5 21 0l130 -101c3 -3 6 -5 7 -9c1 -2 1 -6 -1 -10l-26 -37c-5 -8 -13 -9 -23 -3l-97 61l-98 -61c-10 -6 -18 -5 -23 3zM60 19v362c0 5 2 10 6 13c4 4 8 6 13 6h83c5 0 10 -2 14 -6c3 -3 5 -8 5 -13v-362
c0 -5 -2 -10 -5 -13c-4 -4 -9 -6 -14 -6h-83c-5 0 -10 2 -13 6c-4 3 -6 8 -6 13z" />
    <glyph glyph-name="idieresis" unicode="&#xef;" horiz-adv-x="241" 
d="M60 19v362c0 5 2 10 6 13c4 4 8 6 13 6h83c5 0 10 -2 14 -6c3 -3 5 -8 5 -13v-362c0 -5 -2 -10 -5 -13c-4 -4 -9 -6 -14 -6h-83c-5 0 -10 2 -13 6c-4 3 -6 8 -6 13zM-43 615c0 17 6 32 19 45c12 12 27 18 44 18s32 -6 45 -18c13 -13 19 -28 19 -45s-6 -32 -19 -45
s-28 -19 -45 -19s-32 6 -44 19c-13 12 -19 27 -19 45zM158 615c0 17 6 32 18 45c13 12 28 18 45 18s32 -6 45 -18c13 -13 19 -28 19 -45s-6 -32 -19 -45s-28 -19 -45 -19s-32 6 -45 19c-12 12 -18 27 -18 45z" />
    <glyph glyph-name="eth" unicode="&#xf0;" horiz-adv-x="528" 
d="M29 219c0 35 6 66 17 94c12 28 28 51 48 69c19 17 41 31 65 40s49 14 74 14c21 0 43 -3 65 -9s38 -12 49 -19c-14 48 -49 92 -105 132l-81 -47c-5 -3 -9 -3 -14 -2s-8 4 -11 8l-7 13c-3 4 -3 9 -3 14c1 5 4 9 9 11l58 33c-21 12 -43 22 -66 30c-17 5 -23 15 -18 29l23 59
c4 13 13 18 28 14c52 -21 98 -44 137 -71l69 40c5 3 10 3 15 1c5 -1 8 -4 11 -9l7 -11c3 -4 3 -9 3 -14c-2 -5 -4 -9 -9 -12l-52 -30c101 -86 152 -196 152 -330c0 -38 -5 -74 -15 -106c-11 -34 -26 -63 -45 -88s-44 -45 -75 -60s-65 -22 -103 -22c-40 0 -77 10 -113 31
c-34 21 -62 49 -82 83c-21 36 -31 74 -31 115zM256 104c19 0 37 4 52 13c16 9 28 20 38 35c8 15 15 30 20 47s7 34 7 52c-7 21 -20 41 -41 59c-20 19 -45 28 -75 28c-32 0 -59 -12 -81 -34c-23 -24 -34 -51 -34 -83s11 -59 34 -83c22 -22 49 -34 80 -34z" />
    <glyph glyph-name="ntilde" unicode="&#xf1;" horiz-adv-x="519" 
d="M60 19v362c0 5 2 10 6 13c4 4 8 6 13 6h38c8 0 14 -4 17 -12l14 -37c5 5 12 11 18 17l28 18c12 7 26 12 43 17s34 7 52 7c31 0 58 -5 81 -16s42 -26 56 -44c13 -20 24 -40 30 -64c8 -22 11 -48 11 -75v-192c0 -5 -2 -10 -5 -13c-4 -4 -9 -6 -14 -6h-82c-5 0 -10 2 -14 6
c-3 4 -5 8 -5 13v198c0 27 -7 47 -19 63c-14 14 -32 22 -56 22s-44 -6 -60 -20c-17 -12 -28 -27 -34 -43v-220c0 -7 -2 -12 -6 -15c-3 -2 -10 -4 -19 -4h-74c-5 0 -10 2 -13 6c-4 3 -6 8 -6 13zM148 562l-29 21c-3 3 -6 6 -7 11s-1 9 1 12c15 28 30 48 45 60
c19 16 38 24 59 24c12 0 23 -3 33 -8c11 -6 19 -12 26 -20c7 -6 14 -13 23 -18c9 -6 17 -9 25 -9s15 3 21 9c6 7 11 13 14 20c3 6 8 11 13 14c5 4 11 3 17 -2l28 -20c9 -7 9 -17 1 -31c0 -1 -1 -2 -2 -4c-5 -8 -9 -15 -13 -21c-4 -5 -10 -13 -19 -22c-8 -9 -17 -16 -28 -22
c-11 -4 -22 -7 -35 -7c-12 0 -23 3 -35 9c-10 5 -20 12 -27 19s-15 14 -23 19c-9 6 -17 9 -24 9c-8 0 -15 -3 -21 -9c-6 -7 -10 -13 -13 -20s-7 -12 -12 -16c-5 -3 -11 -3 -18 2z" />
    <glyph glyph-name="ograve" unicode="&#xf2;" horiz-adv-x="468" 
d="M29 201c0 57 20 106 61 147c40 41 88 62 144 62s104 -21 144 -62c41 -41 61 -90 61 -147s-20 -107 -61 -149c-40 -41 -88 -62 -144 -62s-104 21 -144 62c-41 42 -61 92 -61 149zM138 201c0 -29 9 -53 28 -73s41 -30 68 -30s49 10 68 30s28 44 28 73c0 28 -9 52 -28 71
c-19 20 -41 30 -68 30s-49 -10 -68 -30c-19 -19 -28 -43 -28 -71zM306 528l-175 77c-11 5 -13 14 -6 27l28 51c3 4 7 6 11 7c6 0 10 -1 15 -4l164 -97c3 -1 6 -4 7 -7c1 -4 1 -8 -1 -12l-18 -36c-4 -9 -12 -11 -25 -6z" />
    <glyph glyph-name="oacute" unicode="&#xf3;" horiz-adv-x="468" 
d="M29 201c0 57 20 106 61 147c40 41 88 62 144 62s104 -21 144 -62c41 -41 61 -90 61 -147s-20 -107 -61 -149c-40 -41 -88 -62 -144 -62s-104 21 -144 62c-41 42 -61 92 -61 149zM138 201c0 -29 9 -53 28 -73s41 -30 68 -30s49 10 68 30s28 44 28 73c0 28 -9 52 -28 71
c-19 20 -41 30 -68 30s-49 -10 -68 -30c-19 -19 -28 -43 -28 -71zM163 528c-12 -5 -21 -3 -26 6l-17 36c-4 7 -2 14 6 19l163 97c4 3 9 4 14 4c6 0 10 -2 12 -7l29 -51c6 -13 4 -22 -6 -27z" />
    <glyph glyph-name="ocircumflex" unicode="&#xf4;" horiz-adv-x="468" 
d="M29 201c0 57 20 106 61 147c40 41 88 62 144 62s104 -21 144 -62c41 -41 61 -90 61 -147s-20 -107 -61 -149c-40 -41 -88 -62 -144 -62s-104 21 -144 62c-41 42 -61 92 -61 149zM138 201c0 -29 9 -53 28 -73s41 -30 68 -30s49 10 68 30s28 44 28 73c0 28 -9 52 -28 71
c-19 20 -41 30 -68 30s-49 -10 -68 -30c-19 -19 -28 -43 -28 -71zM112 529l-26 37c-2 4 -2 8 -1 11s4 6 7 8l130 101c7 5 14 5 21 0l130 -101c3 -3 6 -5 7 -9c1 -2 1 -6 -1 -10l-26 -37c-5 -8 -13 -9 -23 -3l-97 61l-98 -61c-10 -6 -18 -5 -23 3z" />
    <glyph glyph-name="otilde" unicode="&#xf5;" horiz-adv-x="468" 
d="M29 201c0 57 20 106 61 147c40 41 88 62 144 62s104 -21 144 -62c41 -41 61 -90 61 -147s-20 -107 -61 -149c-40 -41 -88 -62 -144 -62s-104 21 -144 62c-41 42 -61 92 -61 149zM138 201c0 -29 9 -53 28 -73s41 -30 68 -30s49 10 68 30s28 44 28 73c0 28 -9 52 -28 71
c-19 20 -41 30 -68 30s-49 -10 -68 -30c-19 -19 -28 -43 -28 -71zM113 562l-29 21c-3 3 -6 6 -7 11s-1 9 1 12c15 28 30 48 45 60c19 16 38 24 59 24c12 0 23 -3 33 -8c11 -6 19 -12 26 -20c7 -6 14 -13 23 -18c9 -6 17 -9 25 -9s15 3 21 9c6 7 11 13 14 20c3 6 8 11 13 14
c5 4 11 3 17 -2l28 -20c9 -7 9 -17 1 -31c0 -1 -1 -2 -2 -4c-5 -8 -9 -15 -13 -21c-4 -5 -10 -13 -19 -22c-8 -9 -17 -16 -28 -22c-11 -4 -22 -7 -35 -7c-12 0 -23 3 -35 9c-10 5 -20 12 -27 19s-15 14 -23 19c-9 6 -17 9 -24 9c-8 0 -15 -3 -21 -9c-6 -7 -10 -13 -13 -20
s-7 -12 -12 -16c-5 -3 -11 -3 -18 2z" />
    <glyph glyph-name="odieresis" unicode="&#xf6;" horiz-adv-x="468" 
d="M29 201c0 57 20 106 61 147c40 41 88 62 144 62s104 -21 144 -62c41 -41 61 -90 61 -147s-20 -107 -61 -149c-40 -41 -88 -62 -144 -62s-104 21 -144 62c-41 42 -61 92 -61 149zM138 201c0 -29 9 -53 28 -73s41 -30 68 -30s49 10 68 30s28 44 28 73c0 28 -9 52 -28 71
c-19 20 -41 30 -68 30s-49 -10 -68 -30c-19 -19 -28 -43 -28 -71zM69 615c0 17 6 32 19 45c12 12 27 18 44 18s32 -6 45 -18c13 -13 19 -28 19 -45s-6 -32 -19 -45s-28 -19 -45 -19s-32 6 -44 19c-13 12 -19 27 -19 45zM270 615c0 17 6 32 18 45c13 12 28 18 45 18
s32 -6 45 -18c13 -13 19 -28 19 -45s-6 -32 -19 -45s-28 -19 -45 -19s-32 6 -45 19c-12 12 -18 27 -18 45z" />
    <glyph glyph-name="divide" unicode="&#xf7;" horiz-adv-x="505" 
d="M298 491c-13 -13 -29 -20 -48 -20s-35 7 -48 21c-14 13 -21 29 -21 48s7 35 21 48c13 14 29 21 48 21s35 -7 48 -21c14 -13 21 -29 21 -48s-7 -35 -21 -49zM200 111c-13 14 -19 30 -19 49s7 35 19 48c14 13 30 20 49 20s36 -7 49 -20s20 -29 20 -48s-7 -35 -20 -48
c-13 -14 -30 -21 -49 -21s-36 7 -49 20zM56 299c-5 0 -10 2 -14 6c-3 4 -5 8 -5 13v56c0 5 2 10 6 14c4 3 8 5 13 5h394c5 0 10 -2 13 -6s5 -8 5 -13v-56c0 -5 -2 -10 -6 -14c-3 -3 -7 -5 -12 -5h-394z" />
    <glyph glyph-name="oslash" unicode="&#xf8;" horiz-adv-x="468" 
d="M51 24c-4 4 -6 8 -6 13s2 9 5 13l22 22c-28 37 -42 81 -42 130c0 57 20 106 60 146c40 42 88 62 145 62c47 0 89 -15 126 -46l26 26c4 4 8 6 13 6s10 -2 13 -6l10 -10c4 -4 6 -8 6 -13s-2 -9 -6 -13l-26 -26c28 -37 42 -79 42 -126c0 -57 -20 -107 -59 -149
c-40 -42 -88 -63 -145 -63c-47 0 -90 15 -127 45l-21 -22c-3 -4 -8 -6 -13 -5c-6 0 -11 2 -14 6zM150 152l134 135c-14 10 -30 15 -49 15c-27 0 -49 -10 -68 -29s-28 -43 -28 -71c0 -19 4 -35 11 -50zM185 112c15 -9 31 -14 50 -14c27 0 49 10 67 30c19 21 28 45 28 74
c0 17 -4 32 -11 47z" />
    <glyph glyph-name="ugrave" unicode="&#xf9;" horiz-adv-x="503" 
d="M53 187v194c0 5 2 10 5 13c4 4 9 6 14 6h82c5 0 10 -2 14 -6c3 -3 5 -8 5 -13v-197c0 -27 7 -48 19 -63c14 -15 31 -23 54 -23c20 0 38 8 52 23c16 15 25 33 28 52v208c0 7 2 12 5 15s9 4 17 4h76c5 0 10 -2 14 -6c3 -3 5 -8 5 -13v-362c0 -5 -2 -10 -5 -13
c-4 -4 -9 -6 -14 -6h-37c-9 0 -16 5 -19 15l-12 33c-1 -1 -3 -3 -8 -7c-4 -4 -7 -7 -10 -9c-2 -2 -6 -5 -12 -10c-5 -4 -10 -7 -14 -10c-5 -2 -10 -5 -18 -8c-6 -2 -13 -5 -20 -7s-15 -4 -24 -5s-19 -2 -28 -2c-30 0 -56 5 -78 16c-23 11 -40 26 -53 44
c-13 20 -22 40 -29 63c-6 23 -9 47 -9 74zM324 528l-175 77c-11 5 -13 14 -6 27l28 51c3 4 7 6 11 7c6 0 10 -1 15 -4l164 -97c3 -1 6 -4 7 -7c1 -4 1 -8 -1 -12l-18 -36c-4 -9 -12 -11 -25 -6z" />
    <glyph glyph-name="uacute" unicode="&#xfa;" horiz-adv-x="503" 
d="M53 187v194c0 5 2 10 5 13c4 4 9 6 14 6h82c5 0 10 -2 14 -6c3 -3 5 -8 5 -13v-197c0 -27 7 -48 19 -63c14 -15 31 -23 54 -23c20 0 38 8 52 23c16 15 25 33 28 52v208c0 7 2 12 5 15s9 4 17 4h76c5 0 10 -2 14 -6c3 -3 5 -8 5 -13v-362c0 -5 -2 -10 -5 -13
c-4 -4 -9 -6 -14 -6h-37c-9 0 -16 5 -19 15l-12 33c-1 -1 -3 -3 -8 -7c-4 -4 -7 -7 -10 -9c-2 -2 -6 -5 -12 -10c-5 -4 -10 -7 -14 -10c-5 -2 -10 -5 -18 -8c-6 -2 -13 -5 -20 -7s-15 -4 -24 -5s-19 -2 -28 -2c-30 0 -56 5 -78 16c-23 11 -40 26 -53 44
c-13 20 -22 40 -29 63c-6 23 -9 47 -9 74zM182 528c-12 -5 -21 -3 -26 6l-17 36c-4 7 -2 14 6 19l163 97c4 3 9 4 14 4c6 0 10 -2 12 -7l29 -51c6 -13 4 -22 -6 -27z" />
    <glyph glyph-name="ucircumflex" unicode="&#xfb;" horiz-adv-x="503" 
d="M53 187v194c0 5 2 10 5 13c4 4 9 6 14 6h82c5 0 10 -2 14 -6c3 -3 5 -8 5 -13v-197c0 -27 7 -48 19 -63c14 -15 31 -23 54 -23c20 0 38 8 52 23c16 15 25 33 28 52v208c0 7 2 12 5 15s9 4 17 4h76c5 0 10 -2 14 -6c3 -3 5 -8 5 -13v-362c0 -5 -2 -10 -5 -13
c-4 -4 -9 -6 -14 -6h-37c-9 0 -16 5 -19 15l-12 33c-1 -1 -3 -3 -8 -7c-4 -4 -7 -7 -10 -9c-2 -2 -6 -5 -12 -10c-5 -4 -10 -7 -14 -10c-5 -2 -10 -5 -18 -8c-6 -2 -13 -5 -20 -7s-15 -4 -24 -5s-19 -2 -28 -2c-30 0 -56 5 -78 16c-23 11 -40 26 -53 44
c-13 20 -22 40 -29 63c-6 23 -9 47 -9 74zM129 529l-26 37c-2 4 -2 8 -1 11s4 6 7 8l130 101c7 5 14 5 21 0l130 -101c3 -3 6 -5 7 -9c1 -2 1 -6 -1 -10l-26 -37c-5 -8 -13 -9 -23 -3l-97 61l-98 -61c-10 -6 -18 -5 -23 3z" />
    <glyph glyph-name="udieresis" unicode="&#xfc;" horiz-adv-x="503" 
d="M53 187v194c0 5 2 10 5 13c4 4 9 6 14 6h82c5 0 10 -2 14 -6c3 -3 5 -8 5 -13v-197c0 -27 7 -48 19 -63c14 -15 31 -23 54 -23c20 0 38 8 52 23c16 15 25 33 28 52v208c0 7 2 12 5 15s9 4 17 4h76c5 0 10 -2 14 -6c3 -3 5 -8 5 -13v-362c0 -5 -2 -10 -5 -13
c-4 -4 -9 -6 -14 -6h-37c-9 0 -16 5 -19 15l-12 33c-1 -1 -3 -3 -8 -7c-4 -4 -7 -7 -10 -9c-2 -2 -6 -5 -12 -10c-5 -4 -10 -7 -14 -10c-5 -2 -10 -5 -18 -8c-6 -2 -13 -5 -20 -7s-15 -4 -24 -5s-19 -2 -28 -2c-30 0 -56 5 -78 16c-23 11 -40 26 -53 44
c-13 20 -22 40 -29 63c-6 23 -9 47 -9 74zM93 615c0 17 6 32 19 45c12 12 27 18 44 18s32 -6 45 -18c13 -13 19 -28 19 -45s-6 -32 -19 -45s-28 -19 -45 -19s-32 6 -44 19c-13 12 -19 27 -19 45zM294 615c0 17 6 32 18 45c13 12 28 18 45 18s32 -6 45 -18
c13 -13 19 -28 19 -45s-6 -32 -19 -45s-28 -19 -45 -19s-32 6 -45 19c-12 12 -18 27 -18 45z" />
    <glyph glyph-name="yacute" unicode="&#xfd;" horiz-adv-x="463" 
d="M171 28l-163 346c-3 7 -2 13 1 18s9 8 16 8h90c8 0 14 -4 17 -11l101 -226h1l100 226c3 5 6 8 9 9s8 2 15 2h80c8 0 14 -3 17 -8s3 -11 0 -18l-306 -662c-4 -8 -10 -12 -17 -12h-86c-8 0 -14 3 -17 8s-3 12 0 19zM164 528c-12 -5 -21 -3 -26 6l-17 36c-4 7 -2 14 6 19
l163 97c4 3 9 4 14 4c6 0 10 -2 12 -7l29 -51c6 -13 4 -22 -6 -27z" />
    <glyph glyph-name="thorn" unicode="&#xfe;" horiz-adv-x="500" 
d="M183 12v-294c0 -5 -2 -10 -5 -14c-4 -3 -9 -5 -14 -5h-85c-5 0 -10 2 -13 5c-4 4 -6 9 -6 14v963c0 5 2 10 6 13c4 4 8 6 13 6h85c5 0 10 -2 14 -6c3 -4 5 -8 5 -13v-300c30 19 61 28 94 28c55 0 101 -21 137 -61c38 -42 56 -91 56 -148c0 -59 -20 -109 -59 -150
c-39 -40 -87 -60 -144 -60c-27 0 -55 7 -84 22zM183 126c5 -7 15 -13 29 -18c13 -6 28 -9 45 -9c28 0 51 10 69 29c19 19 28 43 28 72c0 28 -9 52 -26 72c-18 20 -41 30 -69 30c-20 0 -37 -4 -51 -13s-22 -17 -25 -25v-138z" />
    <glyph glyph-name="ydieresis" unicode="&#xff;" horiz-adv-x="463" 
d="M171 28l-163 346c-3 7 -2 13 1 18s9 8 16 8h90c8 0 14 -4 17 -11l101 -226h1l100 226c3 5 6 8 9 9s8 2 15 2h80c8 0 14 -3 17 -8s3 -11 0 -18l-306 -662c-4 -8 -10 -12 -17 -12h-86c-8 0 -14 3 -17 8s-3 12 0 19zM69 615c0 17 6 32 19 45c12 12 27 18 44 18s32 -6 45 -18
c13 -13 19 -28 19 -45s-6 -32 -19 -45s-28 -19 -45 -19s-32 6 -44 19c-13 12 -19 27 -19 45zM270 615c0 17 6 32 18 45c13 12 28 18 45 18s32 -6 45 -18c13 -13 19 -28 19 -45s-6 -32 -19 -45s-28 -19 -45 -19s-32 6 -45 19c-12 12 -18 27 -18 45z" />
    <glyph glyph-name="dotlessi" unicode="&#x131;" horiz-adv-x="241" 
d="M60 19v362c0 5 2 10 6 13c4 4 8 6 13 6h83c5 0 10 -2 14 -6c3 -3 5 -8 5 -13v-362c0 -5 -2 -10 -5 -13c-4 -4 -9 -6 -14 -6h-83c-5 0 -10 2 -13 6c-4 3 -6 8 -6 13z" />
    <glyph glyph-name="OE" unicode="&#x152;" horiz-adv-x="975" 
d="M400 710c16 0 32 -1 48 -2c16 -3 28 -5 37 -6l12 -2h407c5 0 10 -2 14 -6c3 -4 5 -8 5 -13v-82c0 -5 -2 -10 -5 -13c-4 -4 -9 -6 -14 -6h-296v-164h247c5 0 10 -2 13 -6c4 -4 6 -8 6 -13v-83c0 -5 -2 -10 -6 -14c-4 -3 -8 -5 -13 -5h-247v-175h296c5 0 10 -2 14 -6
c3 -4 5 -8 5 -13v-82c0 -5 -2 -10 -5 -13c-4 -4 -9 -6 -14 -6h-407c-37 -7 -70 -10 -97 -10c-65 0 -126 16 -181 48s-99 75 -131 130c-31 55 -47 115 -47 181s16 127 47 182c32 55 76 99 131 131s116 48 181 48zM400 118c31 0 57 4 78 13v437c-26 9 -52 14 -78 14
c-41 0 -80 -11 -115 -32s-63 -50 -83 -86c-21 -35 -31 -74 -31 -115s10 -80 31 -115c20 -36 48 -64 83 -85s74 -31 115 -31z" />
    <glyph glyph-name="oe" unicode="&#x153;" horiz-adv-x="732" 
d="M29 202c0 57 20 106 61 146c40 42 88 62 144 62c27 0 53 -6 78 -17s46 -27 65 -46c37 42 85 63 144 63c52 0 96 -18 133 -52c36 -36 54 -80 54 -134c0 -9 -1 -18 -2 -27c0 -5 -2 -9 -6 -13c-4 -2 -8 -4 -13 -4h-255c3 -23 13 -43 30 -61s39 -27 65 -27c27 0 54 9 79 26
c11 8 20 8 26 0l40 -47c8 -11 8 -19 -1 -26c-38 -37 -88 -55 -149 -55c-58 0 -106 21 -145 63c-19 -20 -40 -35 -65 -47c-24 -10 -50 -16 -78 -16c-56 0 -104 21 -144 63c-41 42 -61 92 -61 149zM441 250h150c-1 19 -9 34 -23 48c-15 12 -31 19 -50 19c-20 0 -37 -7 -52 -19
c-14 -14 -22 -29 -25 -48zM138 202c0 -29 9 -53 28 -74c19 -20 41 -30 68 -30s49 10 68 30c19 21 28 45 28 74c0 28 -9 52 -28 71s-41 29 -68 29s-49 -10 -68 -29s-28 -43 -28 -71z" />
    <glyph glyph-name="Ydieresis" unicode="&#x178;" horiz-adv-x="583" 
d="M351 839c0 17 6 32 19 45c12 12 27 18 44 18s32 -6 45 -18c13 -13 19 -28 19 -45s-6 -32 -19 -45s-28 -19 -45 -19s-32 6 -44 19c-13 12 -19 27 -19 45zM104 839c0 17 6 32 18 45c13 12 28 18 45 18s32 -6 45 -18c13 -13 19 -28 19 -45s-6 -32 -19 -45s-28 -19 -45 -19
s-32 6 -45 19c-12 12 -18 27 -18 45zM225 19v318l-228 334c-4 7 -4 13 -1 19c3 7 9 10 17 10h102c6 0 11 -3 16 -9l160 -230l160 230c4 6 9 9 16 9h103c8 0 14 -3 17 -10c3 -6 3 -12 -1 -19l-231 -333v-319c0 -5 -2 -10 -5 -13c-4 -4 -9 -6 -14 -6h-92c-5 0 -10 2 -14 6
c-3 3 -5 8 -5 13z" />
    <glyph glyph-name="circumflex" unicode="&#x2c6;" horiz-adv-x="373" 
d="M63 529l-26 37c-2 4 -2 8 -1 11s4 6 7 8l130 101c7 5 14 5 21 0l130 -101c3 -3 6 -5 7 -9c1 -2 1 -6 -1 -10l-26 -37c-5 -8 -13 -9 -23 -3l-97 61l-98 -61c-10 -6 -18 -5 -23 3z" />
    <glyph glyph-name="dotaccent" unicode="&#x2d9;" horiz-adv-x="219" 
d="M160 557c-14 -14 -31 -21 -51 -21s-37 7 -51 21s-21 31 -21 51s7 37 21 51s31 21 51 21s37 -7 51 -21s21 -31 21 -51s-7 -37 -21 -51z" />
    <glyph glyph-name="ring" unicode="&#x2da;" horiz-adv-x="290" 
d="M145 484c-31 0 -58 11 -80 33s-33 49 -33 80s11 58 33 80s49 33 80 33s57 -11 79 -33c23 -22 34 -49 34 -80s-11 -58 -34 -80c-22 -22 -48 -33 -79 -33zM110 562c11 -10 22 -15 35 -15s24 5 33 15c10 11 15 22 15 35s-5 24 -15 33c-9 10 -20 15 -33 15s-24 -5 -35 -15
c-10 -9 -15 -20 -15 -33s5 -24 15 -35z" />
    <glyph glyph-name="tilde" unicode="&#x2dc;" horiz-adv-x="380" 
d="M70 562l-29 21c-3 3 -6 6 -7 11s-1 9 1 12c15 28 30 48 45 60c19 16 38 24 59 24c12 0 23 -3 33 -8c11 -6 19 -12 26 -20c7 -6 14 -13 23 -18c9 -6 17 -9 25 -9s15 3 21 9c6 7 11 13 14 20c3 6 8 11 13 14c5 4 11 3 17 -2l28 -20c9 -7 9 -17 1 -31c0 -1 -1 -2 -2 -4
c-5 -8 -9 -15 -13 -21c-4 -5 -10 -13 -19 -22c-8 -9 -17 -16 -28 -22c-11 -4 -22 -7 -35 -7c-12 0 -23 3 -35 9c-10 5 -20 12 -27 19s-15 14 -23 19c-9 6 -17 9 -24 9c-8 0 -15 -3 -21 -9c-6 -7 -10 -13 -13 -20s-7 -12 -12 -16c-5 -3 -11 -3 -18 2z" />
    <glyph glyph-name="endash" unicode="&#x2013;" horiz-adv-x="539" 
d="M72 210c-5 0 -10 2 -14 5c-3 3 -5 8 -5 13v37c0 5 2 10 5 13c4 4 9 6 14 6h395c5 0 10 -2 13 -6c4 -3 6 -8 6 -13v-37c0 -5 -2 -10 -6 -13c-3 -3 -8 -5 -13 -5h-395z" />
    <glyph glyph-name="emdash" unicode="&#x2014;" horiz-adv-x="759" 
d="M72 210c-5 0 -10 2 -14 5c-3 3 -5 8 -5 13v37c0 5 2 10 5 13c4 4 9 6 14 6h615c5 0 10 -2 13 -6c4 -3 6 -8 6 -13v-37c0 -5 -2 -10 -6 -13c-3 -3 -8 -5 -13 -5h-615z" />
    <glyph glyph-name="quoteleft" unicode="&#x2018;" horiz-adv-x="198" 
d="M106 414c-9 0 -19 2 -28 6c-9 3 -18 9 -26 17c-9 8 -16 19 -20 33c-6 15 -8 32 -8 52c0 68 30 128 90 181c9 7 16 6 22 -1l15 -15c3 -3 4 -7 3 -11c0 -4 -2 -8 -6 -11l-5 -5c-3 -3 -6 -5 -8 -7l-9 -9c-4 -4 -8 -8 -10 -12c-4 -3 -7 -8 -10 -12c-4 -6 -7 -11 -10 -17
l-8 -18c-3 -6 -5 -13 -6 -20s-2 -15 -2 -22l4 1c3 1 8 2 12 3c6 1 10 1 15 1c18 0 34 -7 47 -20s20 -29 20 -47s-7 -34 -21 -47s-31 -20 -51 -20z" />
    <glyph glyph-name="quoteright" unicode="&#x2019;" horiz-adv-x="196" 
d="M62 423l-14 14c-3 4 -5 8 -4 13c0 4 2 7 6 10c5 3 10 7 16 12l21 24c9 11 16 24 22 39s9 31 9 47h-2c-1 0 -3 0 -5 -1l-6 -2c-2 -1 -5 -1 -8 -1c-3 -1 -6 -1 -9 -1c-19 0 -35 7 -48 19c-12 14 -19 29 -19 47c0 19 7 35 21 47c13 14 30 20 50 20c9 0 19 -2 28 -6
c9 -3 18 -9 27 -16c9 -8 15 -19 21 -34c4 -15 7 -32 7 -51c0 -68 -30 -128 -90 -181c-9 -6 -16 -6 -23 1z" />
    <glyph glyph-name="quotesinglbase" unicode="&#x201a;" horiz-adv-x="228" 
d="M109 124c9 0 19 -2 28 -6c9 -3 18 -9 27 -17c8 -8 15 -19 20 -34s8 -32 8 -51c0 -68 -30 -128 -90 -181c-9 -7 -17 -6 -23 1l-15 15c-7 7 -6 15 3 22c4 3 9 7 15 13c6 5 13 13 22 24s16 24 22 38c5 16 8 31 9 47l-2 -1c-1 0 -3 0 -5 -1c-1 -1 -3 -1 -6 -1
c-3 -1 -6 -1 -8 -2h-10c-18 0 -34 7 -47 20s-20 29 -20 47s7 34 21 47c13 13 30 20 51 20z" />
    <glyph glyph-name="quotedblleft" unicode="&#x201c;" horiz-adv-x="392" 
d="M299 416c-9 0 -19 2 -28 6c-9 3 -18 9 -27 16c-8 8 -15 19 -20 34s-8 32 -8 51c0 68 30 128 90 181c9 7 17 6 23 -1l15 -14c3 -4 4 -8 3 -13c-1 -4 -3 -7 -6 -10c-45 -37 -67 -77 -68 -122h2c1 0 3 0 5 1c1 1 3 1 6 2s6 1 8 1c4 1 7 1 10 1c19 0 34 -7 48 -19
c12 -14 19 -29 19 -47c0 -19 -7 -35 -21 -47c-14 -14 -31 -20 -51 -20zM106 416c-9 0 -19 2 -28 6c-9 3 -18 9 -26 16c-9 8 -16 19 -20 34c-6 15 -8 32 -8 51c0 68 30 128 90 181c9 7 16 6 22 -1l15 -14c3 -3 4 -7 3 -12c0 -5 -2 -8 -6 -11c-45 -37 -67 -77 -68 -122l4 1
l12 3c6 0 10 1 15 1c19 0 35 -7 47 -19c14 -14 20 -29 20 -47c0 -19 -7 -35 -21 -47c-14 -14 -31 -20 -51 -20z" />
    <glyph glyph-name="quotedblright" unicode="&#x201d;" horiz-adv-x="389" 
d="M62 423l-14 14c-3 4 -5 8 -4 13c0 4 2 7 6 10c5 3 10 7 16 12l21 24c9 11 16 24 22 39s9 31 9 47h-2c-1 0 -3 0 -5 -1l-6 -2c-2 -1 -5 -1 -8 -1c-3 -1 -6 -1 -9 -1c-19 0 -35 7 -48 19c-12 14 -19 29 -19 47c0 19 7 35 21 47c13 14 30 20 50 20c9 0 19 -2 28 -6
c9 -3 18 -9 27 -16c9 -8 15 -19 21 -34c4 -15 7 -32 7 -51c0 -68 -30 -128 -90 -181c-9 -6 -16 -6 -23 1zM255 423l-14 14c-3 4 -5 8 -5 13c1 4 3 7 7 10c5 3 10 7 15 12c6 6 13 14 22 24c9 11 16 24 22 39s9 31 9 47h-2c-1 0 -3 0 -5 -1l-6 -2c-2 -1 -5 -1 -8 -1
c-3 -1 -6 -1 -9 -1c-19 0 -35 7 -47 19c-14 14 -20 29 -20 47c0 19 7 35 20 47c14 14 31 20 51 20c9 0 19 -2 28 -6c9 -3 18 -9 27 -16c9 -8 16 -19 20 -34c6 -15 8 -32 8 -51c0 -68 -30 -128 -90 -181c-9 -6 -16 -6 -23 1z" />
    <glyph glyph-name="quotedblbase" unicode="&#x201e;" horiz-adv-x="421" 
d="M110 124c9 0 19 -2 28 -6c9 -3 18 -9 26 -17c9 -8 16 -19 21 -34s8 -32 8 -51c0 -68 -30 -128 -90 -181c-9 -7 -17 -6 -23 1l-15 15c-7 7 -6 15 3 22c4 3 9 7 15 13c6 5 13 13 22 24s16 24 21 38c6 16 9 31 10 47l-2 -1c-1 0 -3 0 -4 -1c-2 -1 -4 -1 -7 -1
c-3 -1 -5 -1 -9 -2h-9c-18 0 -34 7 -47 20s-20 29 -20 47s7 34 20 47c14 13 31 20 52 20zM302 124c9 0 19 -2 28 -6c9 -3 18 -9 26 -17c9 -8 16 -19 21 -34s8 -32 8 -51c0 -68 -30 -128 -90 -181c-9 -7 -17 -6 -23 1l-15 15c-7 7 -6 15 3 22c4 3 9 7 15 13c6 5 13 13 22 24
s16 24 21 38c6 16 9 31 10 47l-2 -1c-1 0 -3 0 -4 -1c-2 -1 -4 -1 -7 -1c-3 -1 -5 -1 -9 -2h-9c-18 0 -34 7 -47 20s-20 29 -20 47s7 34 20 47c14 13 31 20 52 20z" />
    <glyph glyph-name="bullet" unicode="&#x2022;" horiz-adv-x="389" 
d="M192 95c-35 0 -65 13 -90 39c-26 25 -39 55 -39 90c0 36 13 67 39 94c25 26 55 39 90 39c37 0 68 -13 94 -39s39 -57 39 -94c0 -35 -13 -65 -39 -90c-27 -26 -58 -39 -94 -39z" />
    <glyph glyph-name="ellipsis" unicode="&#x2026;" horiz-adv-x="668" 
d="M169 12c-14 -14 -31 -21 -51 -21s-37 7 -51 21s-21 31 -21 51s7 37 21 51s31 21 51 21s37 -7 51 -21s21 -31 21 -51s-7 -37 -21 -51zM386 12c-14 -14 -31 -21 -51 -21s-37 7 -51 21s-21 31 -21 51s7 37 21 51s31 21 51 21s37 -7 51 -21s21 -31 21 -51s-7 -37 -21 -51z
M600 12c-14 -14 -31 -21 -51 -21s-37 7 -51 21s-21 31 -21 51s7 37 21 51s31 21 51 21s37 -7 51 -21s21 -31 21 -51s-7 -37 -21 -51z" />
    <glyph glyph-name="guilsinglleft" unicode="&#x2039;" horiz-adv-x="271" 
d="M130 39l-104 155c-5 8 -5 16 0 24l109 148c5 8 11 12 18 12h57c8 0 14 -3 16 -10c4 -6 3 -13 -1 -21l-68 -139l65 -147c4 -8 5 -15 2 -21s-8 -9 -17 -9h-62c-6 0 -11 3 -15 8z" />
    <glyph glyph-name="guilsinglright" unicode="&#x203a;" horiz-adv-x="271" 
d="M63 31c-8 0 -13 3 -17 9c-2 6 -2 13 2 21l65 147l-68 139c-4 8 -5 15 -1 21c2 7 8 10 16 10h57c7 0 13 -4 18 -12l109 -148c5 -8 5 -16 0 -24l-104 -155c-4 -5 -9 -8 -15 -8h-62z" />
    <glyph glyph-name="fraction" unicode="&#x2044;" horiz-adv-x="123" 
d="M-60 10c-3 -7 -9 -10 -17 -10h-48c-8 0 -14 3 -17 9s-3 12 0 18l343 663c3 7 9 10 17 10h50c8 0 14 -3 17 -9s3 -12 0 -18z" />
    <glyph glyph-name="foursuperior" unicode="&#x2074;" horiz-adv-x="370" 
d="M206 504c-3 0 -5 1 -7 3s-3 4 -3 6v48h-137c-3 0 -5 1 -7 3c-1 1 -2 3 -2 5v51l163 177c2 2 5 3 8 3h41c3 0 5 -1 6 -2c2 -2 3 -4 3 -7v-170h40c3 0 5 -1 7 -3c1 -1 2 -3 2 -5v-43c0 -3 -1 -5 -2 -6c-2 -2 -4 -3 -7 -3h-40v-48c0 -3 -1 -5 -3 -7c-1 -1 -3 -2 -6 -2h-56z
M123 620h74v83z" />
    <glyph glyph-name="Euro" unicode="&#x20ac;" horiz-adv-x="718" 
d="M38 250c-5 0 -10 2 -13 6s-5 8 -5 13v13c0 5 2 10 5 14c3 3 8 5 13 5h39c-2 16 -3 32 -3 48c0 9 0 16 1 21h-37c-5 0 -10 2 -13 6s-5 8 -5 13v13c0 5 2 10 5 14c3 3 8 5 13 5h43c17 83 58 152 125 207c66 55 142 82 229 82c49 0 93 -8 131 -23c39 -15 76 -39 111 -70
c4 -4 6 -9 7 -14c0 -5 -2 -10 -6 -14l-60 -62c-3 -4 -8 -6 -13 -6s-10 2 -14 6c-43 39 -94 58 -153 58c-51 0 -95 -15 -134 -46s-65 -70 -79 -118h233c5 0 10 -2 14 -5c3 -4 5 -9 5 -14v-15c0 -5 -2 -10 -5 -13c-4 -3 -9 -5 -14 -5h-243v-17c0 -20 2 -37 5 -51h198
c5 0 10 -2 14 -5c3 -4 5 -9 5 -14v-14c0 -5 -2 -10 -5 -13c-4 -3 -9 -5 -14 -5h-180c18 -39 45 -70 80 -94c36 -23 76 -35 121 -35c55 0 106 19 153 57c4 3 8 5 13 4c5 0 9 -1 12 -4l62 -64c4 -4 6 -9 5 -14c0 -5 -2 -10 -6 -13c-67 -65 -148 -97 -243 -97
c-81 0 -154 24 -219 73c-64 49 -107 111 -128 187h-50z" />
    <glyph glyph-name="trademark" unicode="&#x2122;" horiz-adv-x="721" 
d="M338 385c-7 0 -12 2 -15 7s-5 10 -4 16l52 282c1 10 8 15 19 15h4c8 0 14 -4 17 -11l87 -185l89 185c3 7 8 11 17 11h4c5 0 10 -1 13 -5c3 -2 5 -6 6 -10l53 -283c1 -6 0 -11 -4 -15c-4 -5 -9 -7 -15 -7h-39c-4 0 -8 2 -12 5s-6 7 -7 12l-22 125l-64 -136
c-3 -6 -8 -9 -16 -9h-6c-8 0 -14 3 -17 10l-61 135l-24 -126c0 -4 -2 -8 -7 -11c-4 -3 -8 -5 -12 -5h-36zM145 385c-5 0 -10 2 -13 5c-4 4 -6 9 -6 14v222h-64c-5 0 -10 2 -14 6c-3 3 -5 8 -5 13v36c0 5 2 10 5 13c4 4 9 6 14 6h205c5 0 10 -2 13 -6c4 -4 6 -8 6 -13v-36
c0 -5 -2 -10 -6 -13c-3 -4 -8 -6 -13 -6h-64v-222c0 -5 -2 -10 -5 -14c-4 -3 -9 -5 -14 -5h-39z" />
    <glyph glyph-name="grave.cap" horiz-adv-x="302" 
d="M224 768l-175 77c-5 2 -8 5 -9 11c-1 4 0 10 3 16l28 52c3 4 7 6 12 6c5 1 10 0 14 -3l164 -98c3 -1 5 -4 7 -7c1 -4 1 -8 -1 -12l-18 -35c-5 -10 -13 -12 -25 -7z" />
    <glyph glyph-name="acute.cap" horiz-adv-x="302" 
d="M84 768c-12 -5 -20 -3 -25 7l-18 35c-1 4 -1 8 -1 11c2 3 4 6 7 8l164 98c12 8 21 7 26 -3l28 -52c3 -6 4 -12 3 -16c-1 -6 -4 -9 -9 -11z" />
    <glyph glyph-name="dieresis.cap" horiz-adv-x="474" 
d="M297 839c0 17 6 32 19 45c12 12 27 18 44 18s32 -6 45 -18c13 -13 19 -28 19 -45s-6 -32 -19 -45s-28 -19 -45 -19s-32 6 -44 19c-13 12 -19 27 -19 45zM50 839c0 17 6 32 18 45c13 12 28 18 45 18s32 -6 45 -18c13 -13 19 -28 19 -45s-6 -32 -19 -45s-28 -19 -45 -19
s-32 6 -45 19c-12 12 -18 27 -18 45z" />
  </font>
</defs>
</svg>
