<?xml version="1.0" standalone="no"?>
<!DOCTYPE svg PUBLIC "-//W3C//DTD SVG 1.1//EN" "http://www.w3.org/Graphics/SVG/1.1/DTD/svg11.dtd" >
<svg>
<metadata>
Created by FontForge 20090914 at Fri Aug 23 18:23:33 2013
 By www-data
Copyright (c) 2009 by Hannes von Doehren. All rights reserved.
</metadata>
<defs>
<font id="BrandonGrotesque-Regular" horiz-adv-x="482" >
  <font-face 
    font-family="Brandon Grotesque Regular"
    font-weight="400"
    font-stretch="normal"
    units-per-em="1000"
    panose-1="2 0 5 3 0 0 0 0 0 0"
    ascent="750"
    descent="-250"
    x-height="400"
    cap-height="700"
    bbox="-129.25 -310 925 976"
    underline-thickness="50"
    underline-position="-50"
    unicode-range="U+0020-U+2212"
  />
<missing-glyph horiz-adv-x="222" 
 />
    <glyph glyph-name=".notdef" horiz-adv-x="222" 
 />
    <glyph glyph-name="space" unicode=" " horiz-adv-x="222" 
 />
    <glyph glyph-name="exclam" unicode="!" horiz-adv-x="298" 
d="M143 272c-4 0 -8 2 -12 5s-6 7 -7 11l-19 279v114c0 5 2 10 5 13c4 4 9 6 14 6h50c5 0 10 -2 14 -6c3 -4 5 -8 5 -13v-112l-19 -281c-1 -4 -3 -8 -6 -11c-4 -3 -8 -5 -13 -5h-12zM92 47c0 16 6 29 17 41c11 10 25 16 40 16c16 0 29 -6 41 -16c10 -12 16 -25 16 -41
s-6 -29 -16 -41c-12 -10 -25 -16 -41 -16c-15 0 -29 6 -40 17s-17 25 -17 40z" />
    <glyph glyph-name="quotedbl" unicode="&#x22;" horiz-adv-x="307" 
d="M68 501c-5 0 -10 2 -14 5c-3 4 -5 9 -5 14v161c0 5 2 10 5 13c4 4 9 6 14 6h34c7 0 12 -2 16 -7c3 -5 4 -11 2 -18l-28 -159c-1 -4 -4 -8 -7 -10c-3 -4 -7 -5 -11 -5h-6zM219 501c-5 0 -10 2 -13 5c-4 4 -6 9 -6 14v161c0 5 2 10 6 13c3 4 8 6 13 6h34c7 0 12 -2 15 -7
c4 -5 5 -11 3 -18l-28 -159c-1 -4 -4 -8 -7 -10c-3 -4 -7 -5 -11 -5h-6z" />
    <glyph glyph-name="numbersign" unicode="#" horiz-adv-x="542" 
d="M106 22l25 173h-70c-5 0 -10 2 -13 5c-4 4 -6 9 -6 14v7c0 5 2 10 6 13c3 4 8 6 13 6h77l24 171h-72c-5 0 -10 2 -14 5c-3 4 -5 9 -5 14v7c0 5 2 10 5 13c4 4 9 6 14 6h78l32 228c1 4 3 8 6 11c4 3 8 5 12 5h7c5 0 10 -2 13 -6c4 -5 6 -10 5 -16l-30 -222h151l31 228
c1 4 3 8 7 11s8 5 12 5h6c6 0 11 -2 14 -6c4 -5 6 -10 5 -16l-30 -222h70c5 0 10 -2 13 -6c4 -4 6 -8 6 -13v-7c0 -5 -2 -10 -4 -14c-4 -3 -8 -5 -13 -5h-78l-24 -171h71c5 0 10 -2 14 -6c3 -3 5 -8 5 -13v-7c0 -5 -1 -10 -5 -14c-2 -3 -7 -5 -12 -5h-80l-26 -179
c-1 -5 -3 -9 -6 -12c-4 -2 -8 -4 -13 -4h-6c-6 0 -11 2 -15 6c-3 5 -5 10 -4 16l26 173h-153l-25 -179c0 -4 -2 -8 -6 -11s-8 -5 -13 -5h-6c-7 0 -12 2 -15 6c-4 5 -5 10 -4 16zM182 240h153l23 171h-151z" />
    <glyph glyph-name="dollar" unicode="$" horiz-adv-x="524" 
d="M58 71c-4 3 -7 6 -8 8s-2 5 -3 10s1 10 5 16c1 2 4 6 9 11c5 6 8 10 10 12c2 3 5 5 9 8c3 3 7 4 10 3c4 -1 8 -3 12 -6c4 -4 9 -9 15 -13c6 -6 15 -13 29 -22c12 -9 28 -18 46 -24c17 -8 35 -12 52 -15v260c-28 11 -52 22 -72 33c-21 11 -40 23 -56 37
c-18 14 -31 30 -40 47c-10 18 -17 38 -20 60c-1 7 -2 19 -2 36c0 13 2 27 6 42c5 15 12 30 22 45c9 15 21 29 36 41c14 13 32 24 54 32c21 10 45 15 72 17v32c0 5 2 10 6 13c4 4 8 6 13 6h7c5 0 10 -2 13 -6c3 -3 5 -8 5 -13v-32c25 -2 51 -7 76 -15c25 -9 44 -17 56 -24
l18 -11c3 -1 5 -3 7 -6s3 -7 4 -11c1 -6 -1 -11 -5 -17l-6 -9c-3 -4 -4 -7 -5 -8s-2 -4 -5 -6c-2 -4 -4 -5 -5 -6s-3 -2 -5 -3s-4 -2 -6 -1c-2 0 -4 0 -6 1c-3 1 -6 2 -9 4l-8 5c-5 3 -11 6 -18 10c-7 3 -15 7 -23 11c-10 4 -19 8 -30 11c-10 3 -20 6 -30 7l-1 -259
c33 -15 61 -28 83 -40c21 -13 41 -27 60 -44s32 -36 42 -56c8 -22 13 -45 13 -72c0 -48 -19 -89 -59 -123c-38 -34 -85 -53 -139 -56v-104c0 -5 -2 -10 -7 -13c-4 -3 -9 -5 -15 -5c-5 0 -10 1 -15 5c-4 2 -6 7 -6 13v104c-24 2 -47 7 -70 14s-42 16 -59 26s-29 18 -37 23
c-8 6 -15 12 -20 17zM244 400v242c-20 -2 -38 -7 -54 -15c-15 -8 -27 -17 -36 -29c-9 -10 -15 -22 -20 -33c-4 -11 -6 -22 -6 -32c0 -29 10 -55 29 -75c19 -22 48 -41 87 -58zM287 58c33 3 61 15 84 36s34 46 34 73s-9 51 -29 71c-18 22 -48 42 -89 61v-241z" />
    <glyph glyph-name="percent" unicode="%" horiz-adv-x="675" 
d="M265 480c-26 -26 -58 -39 -95 -39s-69 13 -96 39c-26 27 -39 59 -39 96s13 69 39 96c27 26 59 39 96 39s69 -13 96 -39c26 -27 39 -59 39 -96s-13 -69 -40 -96zM170 498c21 0 38 8 54 23c14 15 22 34 22 55s-8 38 -22 54c-16 14 -33 22 -54 22s-40 -8 -55 -22
c-15 -16 -23 -33 -23 -54c0 -22 8 -40 22 -56c16 -14 34 -22 56 -22zM390 28c-26 27 -39 59 -39 96s13 69 39 96c27 26 59 39 96 39s69 -13 96 -39c26 -27 39 -59 39 -96s-13 -69 -39 -96c-27 -26 -59 -39 -96 -39s-69 13 -96 39zM408 124c0 -22 8 -40 22 -56
c16 -14 34 -22 56 -22c21 0 38 8 54 23c14 15 22 34 22 55s-8 38 -22 54c-16 14 -33 22 -54 22s-40 -8 -55 -22c-15 -16 -23 -33 -23 -54zM176 10c-3 -7 -9 -10 -17 -10h-14c-8 0 -14 3 -17 9s-3 12 0 18l343 663c4 7 10 10 17 10h16c8 0 14 -3 17 -9s3 -12 0 -18z" />
    <glyph glyph-name="ampersand" unicode="&#x26;" horiz-adv-x="666" 
d="M82 174c0 25 4 49 13 71s21 41 37 58s31 30 44 41c13 10 28 20 45 30v2l-24 26c-23 24 -40 48 -53 70c-12 24 -18 49 -17 76c0 20 4 39 11 58s18 36 32 52c13 15 32 28 55 38c23 9 50 14 79 14c52 0 93 -15 124 -44c30 -30 45 -67 45 -110c0 -67 -49 -131 -148 -192
l165 -165c27 55 40 114 40 178c0 10 2 16 5 19s9 4 18 4h24h7c1 -1 3 -1 4 -2s2 -1 3 -2s1 -2 2 -3s1 -2 2 -3s1 -2 1 -4v-3v-3v-3c0 -39 -5 -77 -16 -117c-10 -38 -24 -75 -43 -108l96 -96c5 -5 9 -10 11 -13c1 -3 1 -8 0 -13c-1 -6 -5 -13 -12 -20l-12 -11
c-14 -13 -28 -12 -42 3l-85 88c-59 -67 -131 -100 -218 -100c-60 0 -107 18 -141 53c-35 35 -52 79 -52 131zM280 410c11 6 18 10 22 12c4 3 11 8 22 15s19 13 24 19c5 4 12 11 20 20c8 8 14 16 18 23c5 7 9 16 12 25c3 10 5 20 5 30c0 25 -9 48 -29 68
c-18 19 -44 29 -76 29s-57 -10 -76 -30s-28 -45 -28 -75c-1 -20 4 -39 14 -56c12 -17 28 -37 50 -58zM152 173c0 -35 12 -63 36 -87c25 -22 55 -34 90 -34c67 0 124 28 171 85l-185 194c-75 -45 -112 -98 -112 -158z" />
    <glyph glyph-name="quotesingle" unicode="'" horiz-adv-x="156" 
d="M68 501c-5 0 -10 2 -14 5c-3 4 -5 9 -5 14v161c0 5 2 10 5 13c4 4 9 6 14 6h34c7 0 12 -2 16 -7c3 -5 4 -11 2 -18l-28 -159c-1 -4 -4 -8 -7 -10c-3 -4 -7 -5 -11 -5h-6z" />
    <glyph glyph-name="parenleft" unicode="(" horiz-adv-x="344" 
d="M294 -78c-24 1 -47 6 -68 15c-22 9 -44 23 -64 42c-22 19 -39 43 -54 72s-27 66 -36 111s-14 96 -14 153s5 108 14 153s21 82 36 111s32 53 54 72c20 19 42 33 64 42c21 9 44 14 68 15c11 1 17 -2 18 -10l2 -27c1 -4 1 -8 -1 -11s-5 -5 -9 -6c-61 -12 -106 -46 -134 -103
s-42 -135 -42 -236s14 -179 42 -236s73 -91 134 -103c4 -1 7 -2 9 -6c2 -2 2 -6 1 -11l-2 -27c-1 -8 -7 -11 -18 -10z" />
    <glyph glyph-name="parenright" unicode=")" horiz-adv-x="344" 
d="M40 -24c61 12 106 46 134 103s42 135 42 236s-14 179 -42 236s-73 91 -134 103c-4 1 -7 2 -9 6c-2 2 -2 6 -1 11l2 27c1 8 7 11 18 10c24 -1 47 -6 68 -15c22 -9 44 -23 64 -42c22 -19 39 -43 54 -72s27 -66 36 -111s14 -96 14 -153s-5 -108 -14 -153s-21 -82 -36 -111
s-32 -53 -54 -72c-20 -19 -42 -33 -64 -42c-21 -9 -44 -14 -68 -15c-11 -1 -17 2 -18 10l-2 27c-1 4 -1 8 1 11s5 5 9 6z" />
    <glyph glyph-name="asterisk" unicode="*" horiz-adv-x="328" 
d="M157 415c-5 0 -10 2 -13 5c-4 4 -6 9 -6 14l2 82l-67 -48c-4 -3 -9 -4 -14 -2c-5 0 -9 3 -12 8l-7 10c-3 5 -4 10 -2 14c0 6 3 10 7 13l75 47l-77 47c-4 3 -7 7 -7 12c-2 5 -1 10 2 14l8 11c3 4 6 7 12 8c4 1 9 1 13 -2l69 -49l-2 83c0 5 2 10 6 13s8 5 13 5h13
c5 0 10 -2 14 -5c3 -3 5 -8 5 -13l-2 -82l67 50c5 3 10 3 14 2c6 -1 9 -4 12 -8l7 -11c6 -11 4 -19 -5 -26l-77 -49l78 -49c4 -3 7 -7 8 -12s1 -10 -2 -14l-7 -11c-3 -4 -7 -7 -12 -8s-10 -1 -15 2l-68 49l2 -81c0 -5 -2 -10 -5 -14c-4 -3 -9 -5 -14 -5h-13z" />
    <glyph glyph-name="plus" unicode="+" horiz-adv-x="501" 
d="M217 157v157h-157c-5 0 -10 2 -14 6c-3 4 -5 8 -5 13v28c0 5 2 10 5 13c4 4 9 6 14 6h157v158c0 5 2 10 5 13c4 3 9 5 14 5h28c5 0 10 -2 14 -5c3 -3 5 -8 5 -13v-158h158c5 0 10 -2 13 -6s5 -8 5 -13v-28c0 -5 -2 -10 -5 -13c-4 -4 -8 -6 -13 -6h-158v-157
c0 -5 -2 -10 -5 -13c-4 -3 -9 -5 -14 -5h-28c-5 0 -10 2 -14 5c-3 3 -5 8 -5 13z" />
    <glyph glyph-name="comma" unicode="," horiz-adv-x="233" 
d="M55 47c0 16 5 29 17 41c10 10 24 16 40 16c19 0 34 -7 47 -20s19 -37 19 -70c0 -37 -9 -73 -26 -106c-18 -33 -37 -60 -58 -79c-9 -8 -17 -9 -24 -2l-14 14c-3 3 -4 6 -2 11c0 4 3 8 8 13c41 37 62 79 62 126c-3 -1 -7 -1 -12 -1c-15 0 -29 6 -40 17s-17 25 -17 40z" />
    <glyph glyph-name="hyphen" unicode="-" horiz-adv-x="413" 
d="M102 220c-5 0 -10 2 -14 5c-3 3 -5 8 -5 13v19c0 5 2 10 5 13c4 4 9 6 14 6h209c5 0 10 -2 13 -6c4 -3 6 -8 6 -13v-19c0 -5 -2 -10 -6 -13c-3 -3 -8 -5 -13 -5h-209z" />
    <glyph glyph-name="period" unicode="." horiz-adv-x="226" 
d="M56 47c0 16 6 29 17 41c11 10 25 16 40 16c16 0 29 -6 41 -16c10 -12 16 -25 16 -41s-6 -29 -16 -41c-12 -10 -25 -16 -41 -16c-15 0 -29 6 -40 17s-17 25 -17 40z" />
    <glyph glyph-name="slash" unicode="/" horiz-adv-x="320" 
d="M40 25l196 662c1 4 4 7 7 9c3 3 7 4 11 4h22c7 0 12 -2 16 -7c3 -5 4 -11 2 -18l-195 -662c-1 -3 -4 -6 -7 -9c-4 -3 -8 -4 -11 -4h-23c-7 0 -12 2 -16 8c-3 4 -4 10 -2 17z" />
    <glyph glyph-name="zero" unicode="0" horiz-adv-x="632" 
d="M495 82c-42 -61 -102 -92 -179 -92s-137 31 -180 92c-42 62 -63 148 -63 258s21 196 63 258c43 61 103 92 180 92s137 -31 180 -92c42 -62 63 -148 63 -258s-21 -196 -64 -258zM488 340c0 91 -15 161 -45 210c-30 50 -72 75 -127 75s-97 -25 -127 -75
c-30 -49 -45 -119 -45 -210s15 -162 45 -211s72 -74 127 -74s97 25 127 74s45 120 45 211z" />
    <glyph glyph-name="one" unicode="1" horiz-adv-x="326" 
d="M149 19v537l-72 -56c-9 -7 -17 -6 -23 1l-19 21c-7 7 -6 14 2 22l140 136h27c5 0 10 -2 13 -6s5 -8 5 -13v-642c0 -5 -2 -10 -5 -13c-3 -4 -8 -6 -13 -6h-36c-5 0 -10 2 -14 6c-3 3 -5 8 -5 13z" />
    <glyph glyph-name="two" unicode="2" horiz-adv-x="519" 
d="M42 19v30l245 265c67 73 101 134 101 181c0 15 -3 29 -8 43c-5 15 -13 28 -24 42c-10 12 -24 23 -43 30c-19 8 -40 12 -65 12c-48 0 -95 -25 -142 -75c-4 -4 -9 -6 -14 -6s-9 2 -13 6l-20 19c-3 4 -5 8 -5 13c-1 5 1 9 4 13c2 3 5 6 8 10c4 5 12 13 24 24
c13 11 26 21 40 30c13 9 31 16 52 24c21 6 43 10 66 10c35 0 66 -5 94 -16s51 -25 68 -43s31 -38 40 -61s14 -47 14 -73c0 -21 -3 -42 -9 -61c-6 -20 -15 -40 -29 -59c-12 -19 -25 -36 -38 -51c-12 -15 -28 -33 -49 -56l-192 -205h294c5 0 10 -2 13 -5c4 -4 6 -9 6 -14v-27
c0 -5 -2 -10 -6 -13c-4 -4 -8 -6 -13 -6h-380c-5 0 -10 2 -13 6c-4 3 -6 8 -6 13z" />
    <glyph glyph-name="three" unicode="3" horiz-adv-x="532" 
d="M47 79c-3 4 -5 8 -5 13c0 4 2 8 6 11l27 23c11 7 20 6 27 -5c4 -5 9 -10 16 -16s16 -13 29 -22s28 -16 47 -22c18 -6 37 -9 57 -9c40 0 74 11 102 34s42 53 42 91c0 37 -15 69 -45 93c-29 26 -73 38 -132 38h-56c-13 0 -19 7 -19 22v24c0 8 1 14 5 17c2 3 8 5 16 5h55
c51 0 91 11 118 34s41 52 41 87c0 39 -13 69 -38 93c-25 22 -56 34 -93 34c-49 0 -93 -22 -131 -65c-8 -9 -17 -10 -26 -2l-24 19c-4 4 -6 8 -6 13s2 9 6 13c2 3 5 6 8 10c4 4 12 11 24 21s25 19 38 27c13 7 30 14 50 20c20 7 40 10 61 10c61 0 111 -17 149 -50
s57 -78 57 -133c0 -35 -11 -67 -32 -97c-21 -28 -45 -49 -71 -61v-3c13 -5 26 -13 39 -22s25 -21 38 -34s23 -29 31 -48s12 -38 12 -58c0 -56 -20 -102 -60 -139c-41 -37 -95 -55 -162 -55c-23 0 -46 2 -66 7c-22 5 -38 10 -52 16c-12 6 -26 14 -38 24c-14 10 -22 17 -28 23
c-4 4 -10 11 -17 19z" />
    <glyph glyph-name="four" unicode="4" horiz-adv-x="586" 
d="M35 154c-5 0 -10 2 -13 6c-4 4 -6 8 -6 13v37l379 475c4 4 9 6 15 6h20c5 0 10 -2 14 -5c3 -4 5 -9 5 -14l1 -457h81c5 0 10 -2 13 -5c4 -4 6 -8 6 -13v-22c0 -5 -2 -10 -6 -13c-3 -4 -8 -6 -13 -6h-81v-137c0 -5 -2 -10 -6 -13c-4 -4 -8 -6 -13 -6h-34c-5 0 -10 2 -13 6
c-4 4 -6 8 -6 13v135h-343zM100 216h282v348z" />
    <glyph glyph-name="five" unicode="5" horiz-adv-x="533" 
d="M67 73c-7 8 -10 14 -11 19c0 4 3 9 9 15l11 11c6 6 9 9 12 11c9 9 18 8 25 -1l15 -18c7 -7 16 -15 28 -24s27 -17 46 -23s38 -9 59 -9c45 0 83 17 113 50c29 34 44 72 44 114c0 41 -13 76 -40 103s-66 41 -117 41h-152c-9 0 -17 4 -23 11c-5 7 -8 15 -8 24v264
c0 5 2 10 6 13c3 4 8 6 13 6h302c5 0 10 -2 13 -6c4 -4 6 -8 6 -13v-29c0 -5 -2 -10 -6 -14c-3 -3 -8 -5 -13 -5h-254v-184h116c75 0 132 -19 171 -55c40 -38 60 -89 60 -155c0 -41 -10 -79 -30 -115c-19 -35 -47 -62 -82 -83c-36 -21 -76 -31 -120 -31
c-83 0 -147 28 -193 83z" />
    <glyph glyph-name="six" unicode="6" horiz-adv-x="543" 
d="M53 275c0 37 5 72 13 105c10 33 21 63 35 89s31 51 50 73c19 24 39 43 59 60c19 16 40 31 62 45c23 14 42 25 60 33c16 9 33 16 50 23c10 4 17 1 22 -10l11 -24c5 -13 -1 -23 -18 -29c-11 -3 -24 -10 -41 -18c-17 -10 -36 -22 -58 -38c-23 -15 -44 -32 -65 -51
s-40 -41 -57 -66s-29 -51 -36 -76c1 1 4 3 7 5s10 6 21 10c11 6 22 10 33 14s25 8 42 11s33 5 49 5c38 0 73 -9 106 -26c32 -17 58 -43 78 -76c21 -33 31 -72 31 -115c0 -41 -10 -79 -30 -115c-20 -35 -47 -62 -81 -83s-71 -31 -110 -31s-74 7 -104 22c-31 15 -55 35 -74 61
c-18 26 -32 56 -41 90s-14 71 -14 112zM286 56c41 0 77 16 106 47s44 69 44 112s-15 80 -44 111c-29 30 -65 45 -107 45c-17 0 -35 -2 -51 -7c-18 -4 -32 -9 -45 -16s-24 -13 -33 -19s-17 -11 -22 -16l-7 -7c-4 -17 -5 -34 -4 -54c1 -18 4 -37 7 -56c4 -18 10 -36 19 -52
c9 -18 19 -32 31 -46c12 -12 27 -23 46 -30c18 -8 38 -12 60 -12z" />
    <glyph glyph-name="seven" unicode="7" horiz-adv-x="474" 
d="M91 19v11l279 583h-327c-5 0 -10 2 -13 5c-4 4 -6 9 -6 14v29c0 5 2 10 6 13c4 4 8 6 13 6h402c5 0 10 -2 13 -6c4 -4 6 -8 6 -13v-7l-292 -628c-8 -17 -19 -26 -33 -26h-29c-5 0 -10 2 -14 6c-3 3 -5 8 -5 13z" />
    <glyph glyph-name="eight" unicode="8" horiz-adv-x="573" 
d="M62 183c0 27 7 52 21 77c14 24 30 43 47 57s35 25 53 33v3c-27 12 -51 32 -71 59c-22 28 -32 60 -32 95c0 55 19 99 58 133c39 33 88 50 148 50c61 0 111 -17 150 -50c39 -34 58 -78 58 -133c0 -35 -11 -67 -32 -94s-45 -47 -71 -60v-3c17 -8 35 -19 53 -33
c17 -14 33 -33 47 -57c14 -25 21 -50 21 -77c0 -56 -20 -102 -62 -139c-40 -36 -96 -54 -165 -54c-68 0 -122 18 -163 54c-40 37 -60 83 -60 139zM287 385c44 4 77 17 99 39c23 21 34 48 34 80c0 37 -13 68 -39 91s-59 35 -98 35c-37 0 -67 -12 -92 -35s-37 -54 -37 -91
c0 -33 11 -60 33 -81s55 -34 100 -38zM137 176c0 -37 15 -68 43 -91c30 -23 64 -35 105 -35c44 0 80 11 109 34s43 53 43 92c0 33 -13 62 -41 88c-26 27 -63 42 -109 47c-46 -5 -83 -20 -109 -47c-28 -26 -41 -55 -41 -88z" />
    <glyph glyph-name="nine" unicode="9" horiz-adv-x="543" 
d="M128 11c-5 13 1 23 18 29c11 3 24 10 41 18c17 10 36 22 59 38c23 15 44 32 64 51c21 19 40 41 57 66s29 51 36 76c-1 -1 -4 -3 -7 -5c-4 -2 -11 -6 -22 -10c-11 -6 -22 -10 -32 -14c-12 -4 -25 -8 -42 -11s-33 -5 -49 -5c-38 0 -73 9 -106 26s-59 43 -79 76
s-30 72 -30 115c0 41 10 79 30 115c20 34 47 62 81 83s71 31 110 31s74 -7 105 -22c30 -15 54 -35 72 -61c19 -26 33 -56 42 -90s14 -71 14 -112c0 -37 -4 -72 -13 -105s-20 -63 -34 -89s-31 -51 -51 -73c-20 -24 -40 -43 -59 -60c-19 -16 -40 -31 -63 -45s-42 -25 -59 -33
c-17 -9 -33 -16 -50 -23c-10 -4 -17 -1 -22 10zM258 309c17 0 35 2 52 7c17 4 32 9 44 16l33 19c10 6 17 11 22 16l7 7c4 17 5 34 4 54c-1 18 -4 37 -7 56c-3 18 -9 36 -19 52c-8 18 -19 32 -31 46c-12 12 -27 23 -45 30c-19 8 -39 12 -61 12c-41 0 -77 -16 -106 -47
s-44 -69 -44 -112s15 -80 44 -111c29 -30 65 -45 107 -45z" />
    <glyph glyph-name="colon" unicode=":" horiz-adv-x="256" 
d="M71 47c0 16 6 29 17 41c11 10 25 16 40 16c16 0 30 -6 40 -16c12 -12 17 -25 17 -41s-5 -29 -17 -41c-10 -10 -24 -16 -40 -16c-15 0 -29 6 -40 17s-17 25 -17 40zM71 353c0 16 6 29 17 41c11 10 25 16 40 16c16 0 30 -6 40 -16c12 -12 17 -25 17 -41s-5 -29 -17 -41
c-10 -10 -24 -16 -40 -16c-15 0 -29 6 -40 17s-17 25 -17 40z" />
    <glyph glyph-name="semicolon" unicode=";" horiz-adv-x="259" 
d="M70 353c0 16 6 29 17 41c11 10 25 16 40 16c16 0 29 -6 41 -16c10 -12 16 -25 16 -41s-6 -29 -16 -41c-12 -10 -25 -16 -41 -16c-15 0 -29 6 -40 17s-17 25 -17 40zM70 47c0 16 6 29 16 41c12 10 25 16 41 16c19 0 34 -7 47 -20s19 -37 19 -70c0 -37 -9 -73 -27 -106
c-17 -33 -36 -60 -57 -79c-9 -8 -17 -9 -24 -2l-14 14c-3 3 -3 6 -3 11c2 4 4 8 9 13c41 37 62 79 62 126c-3 -1 -7 -1 -12 -1c-15 0 -29 6 -40 17s-17 25 -17 40z" />
    <glyph glyph-name="less" unicode="&#x3c;" horiz-adv-x="439" 
d="M35 210c-7 4 -10 10 -10 17v5c0 7 3 13 10 17l340 212c7 4 13 4 19 1s9 -9 9 -17v-36c0 -8 -4 -14 -11 -19l-261 -160l261 -154c7 -4 11 -10 11 -19v-36c0 -8 -3 -14 -9 -17s-12 -3 -19 1z" />
    <glyph glyph-name="equal" unicode="=" horiz-adv-x="510" 
d="M105 351c-5 0 -10 2 -13 5c-4 4 -6 9 -6 14v30c0 5 2 10 6 14c3 3 8 5 13 5h299c5 0 10 -2 14 -5c3 -4 5 -9 5 -14v-30c0 -5 -2 -10 -5 -14c-4 -3 -9 -5 -14 -5h-299zM105 140c-5 0 -10 2 -13 6c-4 4 -6 8 -6 13v31c0 5 2 10 6 14c3 3 8 5 13 5h299c5 0 10 -2 14 -5
c3 -4 5 -9 5 -14v-31c0 -5 -2 -10 -5 -13c-4 -4 -9 -6 -14 -6h-299z" />
    <glyph glyph-name="greater" unicode="&#x3e;" horiz-adv-x="439" 
d="M36 21v36c0 9 4 16 11 19l261 154l-261 160c-7 5 -11 12 -11 19v36c0 8 3 14 9 17s12 3 19 -1l340 -212c7 -4 10 -10 10 -17v-5c0 -7 -3 -13 -10 -17l-340 -205c-7 -4 -13 -4 -19 -1s-9 9 -9 17z" />
    <glyph glyph-name="question" unicode="?" horiz-adv-x="461" 
d="M201 272c-5 0 -10 2 -13 6c-4 3 -6 8 -6 13v42c0 17 3 32 8 45c5 14 12 26 22 34c8 10 18 18 29 26c11 9 21 17 32 24c11 8 21 16 29 25c10 9 17 19 22 31c5 13 8 27 8 42c0 25 -9 46 -26 63s-42 25 -73 25c-9 0 -17 0 -25 -2c-8 0 -16 -2 -23 -4c-7 -3 -14 -5 -19 -7
s-11 -5 -17 -9s-11 -7 -15 -9c-3 -2 -8 -5 -12 -10c-6 -5 -9 -8 -10 -9c-2 -2 -5 -6 -10 -10c-4 -6 -6 -8 -7 -8c-9 -9 -17 -9 -26 -1l-19 17c-8 7 -8 15 0 26c1 3 4 6 7 10s11 11 21 21c12 10 24 19 36 27c14 7 31 14 52 20c21 7 44 10 67 10c52 0 94 -14 126 -42
s48 -65 48 -111c0 -17 -3 -33 -9 -49c-5 -14 -13 -27 -22 -38s-20 -21 -31 -30s-23 -18 -34 -26s-22 -16 -31 -24c-9 -7 -17 -16 -22 -26c-6 -9 -9 -20 -9 -31v-41c0 -7 -2 -12 -7 -15c-4 -3 -9 -5 -14 -5h-27zM156 47c0 16 6 29 17 41c11 10 25 16 40 16c16 0 29 -6 41 -16
c10 -12 16 -25 16 -41s-6 -29 -16 -41c-12 -10 -25 -16 -41 -16c-15 0 -29 6 -40 17s-17 25 -17 40z" />
    <glyph glyph-name="at" unicode="@" horiz-adv-x="981" 
d="M43 223c0 71 11 136 33 196c21 60 52 111 91 155c39 42 88 76 146 100s121 36 190 36c53 0 101 -7 147 -21c44 -14 84 -33 118 -59c33 -24 62 -54 86 -90c23 -34 41 -73 53 -116s18 -88 18 -136c0 -28 -2 -55 -7 -82c-4 -27 -11 -53 -22 -80c-10 -27 -23 -50 -38 -70
c-15 -19 -35 -35 -60 -48c-24 -12 -51 -18 -82 -18c-32 0 -58 7 -77 22s-32 33 -38 56h-8c-11 -23 -28 -41 -50 -56s-47 -22 -76 -22c-51 0 -93 19 -125 58c-34 39 -50 90 -50 153c0 65 16 117 50 153c32 38 75 56 128 56c15 0 29 -2 42 -6c13 -3 24 -8 33 -12l23 -16
c6 -5 10 -10 13 -14l4 -5c1 3 1 7 3 11c0 6 1 9 2 10c0 1 1 4 2 7s3 6 4 7s3 3 5 4s5 2 7 3c4 1 7 1 11 1h10c5 0 10 -2 13 -6c4 -4 6 -8 6 -13v-213c0 -46 6 -78 18 -96c12 -17 30 -26 54 -26c40 0 74 22 102 65c27 43 41 102 41 177c0 52 -8 100 -23 144
c-16 44 -39 83 -68 116s-67 59 -114 78s-99 28 -157 28c-60 0 -115 -10 -163 -30c-50 -20 -91 -48 -125 -85s-60 -82 -79 -136s-28 -114 -28 -180c0 -92 24 -171 72 -239c48 -66 112 -117 192 -151c7 -3 12 -7 12 -10c2 -3 0 -8 -3 -15l-11 -27c-4 -9 -11 -12 -20 -8
c-93 39 -167 97 -222 175s-83 170 -83 275zM356 200c0 -45 11 -81 34 -106s50 -38 83 -38c31 0 55 9 73 27c17 18 29 40 35 67v142c-1 1 -3 3 -5 6c-1 3 -5 7 -12 14c-6 6 -13 12 -20 16c-8 6 -18 10 -31 14s-26 6 -39 6c-35 0 -63 -13 -85 -39s-33 -62 -33 -109z" />
    <glyph glyph-name="A" unicode="A" horiz-adv-x="663" 
d="M23 0c-7 0 -13 3 -16 8s-4 11 -1 18l304 673c4 7 10 11 17 11h10c8 0 14 -4 17 -11l302 -673c3 -7 2 -13 -1 -18s-9 -8 -16 -8h-40c-8 0 -14 4 -17 11l-74 165h-355l-73 -165c-3 -7 -8 -11 -17 -11h-40zM181 238h300l-146 328h-8z" />
    <glyph glyph-name="B" unicode="B" horiz-adv-x="625" 
d="M102 19v662c0 5 2 10 6 13c3 4 8 6 13 6h219c60 0 109 -17 148 -52c38 -35 57 -79 57 -132c0 -36 -9 -68 -29 -96c-18 -27 -42 -49 -69 -64c15 -6 29 -14 41 -22c14 -10 26 -20 38 -33c13 -13 23 -28 30 -47s11 -39 11 -61c0 -56 -20 -102 -61 -139
c-40 -36 -92 -54 -157 -54h-228c-5 0 -10 2 -13 6c-4 3 -6 8 -6 13zM177 386h163c37 0 67 12 88 35s32 53 32 90s-10 66 -32 87c-20 22 -50 33 -88 33h-163v-245zM175 67h182c36 0 66 12 90 37c24 24 36 54 36 90c0 35 -14 64 -41 88c-28 23 -62 35 -102 35h-165v-250z" />
    <glyph glyph-name="C" unicode="C" horiz-adv-x="707" 
d="M412 710c48 0 91 -8 130 -24c39 -15 76 -38 112 -69c4 -4 6 -9 6 -14c1 -5 -1 -10 -5 -14l-27 -27c-7 -9 -16 -9 -26 1c-27 23 -57 41 -90 55c-34 13 -68 20 -101 20c-51 0 -99 -13 -141 -40c-44 -26 -77 -61 -102 -105c-24 -44 -36 -92 -36 -143s12 -98 36 -142
c25 -44 58 -79 102 -106c42 -26 90 -39 141 -39c39 0 72 6 99 19c28 12 59 31 92 56c9 7 17 8 24 3l30 -27c4 -3 6 -8 5 -14c-1 -5 -3 -10 -6 -13c-67 -65 -148 -97 -243 -97c-65 0 -126 16 -181 48s-99 75 -131 130c-33 55 -49 115 -49 181s16 127 49 182
c32 55 76 99 131 131s116 48 181 48z" />
    <glyph glyph-name="D" unicode="D" horiz-adv-x="747" 
d="M102 19v662c0 5 2 10 5 13c3 4 8 6 13 6h224c47 0 93 -9 136 -28s81 -44 112 -74c31 -32 56 -68 75 -112c19 -42 28 -88 28 -135c0 -64 -16 -123 -47 -177c-32 -53 -75 -96 -128 -127c-54 -31 -113 -47 -176 -47h-224c-5 0 -10 2 -13 6c-3 3 -5 8 -5 13zM178 69h150
c83 0 150 27 204 79c52 54 79 121 79 203s-27 149 -80 202s-121 79 -203 79h-150v-563z" />
    <glyph glyph-name="E" unicode="E" horiz-adv-x="592" 
d="M102 19v662c0 5 2 10 6 13c3 4 8 6 13 6h394c5 0 10 -2 13 -6c4 -4 6 -8 6 -13v-29c0 -5 -2 -10 -6 -14c-3 -3 -8 -5 -13 -5h-336v-244h287c5 0 10 -2 14 -5c3 -4 5 -9 5 -14v-29c0 -5 -2 -10 -5 -13c-4 -4 -9 -6 -14 -6h-287v-255h336c5 0 10 -2 13 -5c4 -4 6 -9 6 -14
v-29c0 -5 -2 -10 -6 -13c-3 -4 -8 -6 -13 -6h-394c-5 0 -10 2 -13 6c-4 3 -6 8 -6 13z" />
    <glyph glyph-name="F" unicode="F" horiz-adv-x="569" 
d="M102 19v662c0 5 2 10 6 13c3 4 8 6 13 6h394c5 0 10 -2 13 -6c4 -4 6 -8 6 -13v-29c0 -5 -2 -10 -6 -14c-3 -3 -8 -5 -13 -5h-336v-274h287c5 0 10 -2 14 -5c3 -4 5 -9 5 -14v-29c0 -5 -2 -10 -5 -13c-4 -4 -9 -6 -14 -6h-287v-273c0 -5 -2 -10 -5 -13
c-4 -4 -9 -6 -14 -6h-39c-5 0 -10 2 -13 6c-4 3 -6 8 -6 13z" />
    <glyph glyph-name="G" unicode="G" horiz-adv-x="732" 
d="M412 710c48 0 91 -8 130 -24c39 -15 76 -38 112 -69c4 -4 6 -9 6 -14c1 -5 -1 -10 -5 -14l-28 -28c-5 -5 -9 -8 -12 -7c-3 0 -8 3 -14 8c-27 23 -57 42 -91 56c-33 15 -66 22 -99 22c-51 0 -98 -13 -141 -39s-76 -61 -100 -105c-25 -44 -37 -92 -37 -143
c0 -38 7 -75 21 -110c15 -35 34 -66 58 -93c25 -26 54 -47 89 -62c35 -16 71 -24 110 -24c33 0 64 3 94 10c30 8 52 15 65 22l21 10v140h-115c-5 0 -10 2 -14 5c-3 3 -5 8 -5 13v37c0 5 2 10 5 13c4 4 9 6 14 6h173c5 0 10 -2 13 -6s5 -8 5 -13v-229c0 -7 -3 -12 -8 -16
c-3 -1 -7 -4 -11 -7c-6 -3 -17 -9 -34 -16s-35 -14 -53 -20s-41 -11 -68 -16s-54 -7 -81 -7c-65 0 -126 16 -181 48s-99 75 -131 130c-33 55 -49 115 -49 181s16 127 49 182c32 55 76 99 131 131s116 48 181 48z" />
    <glyph glyph-name="H" unicode="H" horiz-adv-x="764" 
d="M102 19v662c0 5 2 10 6 13c4 4 8 6 13 6h39c5 0 10 -2 14 -6c3 -4 5 -8 5 -13v-292h406v292c0 5 2 10 5 13c4 4 9 6 14 6h39c5 0 10 -2 13 -6c4 -4 6 -8 6 -13v-662c0 -5 -2 -10 -6 -13c-4 -4 -8 -6 -13 -6h-39c-5 0 -10 2 -14 6c-3 4 -5 8 -5 13v303h-406v-303
c0 -5 -2 -10 -5 -13c-4 -4 -9 -6 -14 -6h-39c-5 0 -10 2 -13 6c-4 3 -6 8 -6 13z" />
    <glyph glyph-name="I" unicode="I" horiz-adv-x="282" 
d="M102 19v662c0 5 2 10 6 13c4 4 8 6 13 6h40c5 0 10 -2 13 -6c4 -4 6 -8 6 -13v-662c0 -5 -2 -10 -6 -13c-4 -4 -8 -6 -13 -6h-40c-5 0 -10 2 -13 6c-4 3 -6 8 -6 13z" />
    <glyph glyph-name="J" unicode="J" horiz-adv-x="405" 
d="M-20 64c-5 9 -5 17 2 25l21 24c5 5 10 7 14 8s7 0 10 -2s6 -5 10 -9c32 -35 64 -53 97 -53s62 13 86 38s36 63 36 112v474c0 5 2 10 6 13c3 4 8 6 13 6h39c5 0 10 -2 14 -6c3 -4 5 -8 5 -13v-472c0 -68 -19 -121 -55 -161c-38 -38 -86 -58 -146 -58
c-61 0 -112 25 -152 74z" />
    <glyph glyph-name="K" unicode="K" horiz-adv-x="618" 
d="M102 24v652c0 7 2 12 7 17s10 7 17 7h29c7 0 12 -2 17 -7s7 -10 7 -17v-283l312 297c5 7 12 10 19 10h49c9 0 15 -4 19 -12c2 -8 0 -16 -7 -23l-316 -295l331 -339c2 -3 3 -6 4 -11c0 -5 -2 -9 -6 -14c-3 -4 -8 -6 -15 -6h-51c-3 0 -7 1 -10 2c-4 1 -7 3 -8 5l-321 335
v-318c0 -7 -2 -12 -7 -17s-10 -7 -17 -7h-29c-7 0 -12 2 -17 7s-7 10 -7 17z" />
    <glyph glyph-name="L" unicode="L" horiz-adv-x="491" 
d="M102 19v662c0 5 2 10 6 13c3 4 8 6 13 6h39c5 0 10 -2 14 -6c3 -4 5 -8 5 -13v-614h288c5 0 10 -2 13 -5c4 -4 6 -9 6 -14v-29c0 -5 -2 -10 -6 -13c-3 -4 -8 -6 -13 -6h-346c-5 0 -10 2 -13 6c-4 3 -6 8 -6 13z" />
    <glyph glyph-name="M" unicode="M" horiz-adv-x="862" 
d="M52 24l129 672c1 4 4 7 7 10s7 4 11 4h16c4 0 7 -1 11 -3c2 -2 5 -5 6 -8l198 -551h5l195 551c1 3 4 5 7 7c3 3 7 4 10 4h16c4 0 8 -1 11 -4c4 -3 6 -6 7 -10l129 -672c1 -7 0 -13 -2 -18c-4 -4 -9 -6 -16 -6h-40c-4 0 -8 1 -11 4s-6 6 -7 10l-89 515h-4l-184 -528
c-1 -3 -4 -5 -7 -7c-4 -3 -7 -4 -10 -4h-18c-3 0 -6 1 -10 3s-6 5 -7 8l-186 528h-4l-87 -515c-1 -4 -3 -7 -6 -10c-4 -3 -8 -4 -12 -4h-40c-7 0 -12 2 -16 6c-2 5 -3 11 -2 18z" />
    <glyph glyph-name="N" unicode="N" horiz-adv-x="774" 
d="M102 19v673c0 5 2 10 6 13s8 5 13 5h25l451 -562h2v533c0 5 2 10 5 13c4 4 9 6 14 6h35c5 0 10 -2 13 -6c4 -4 6 -8 6 -13v-673c0 -5 -2 -10 -6 -13s-8 -5 -13 -5h-18l-459 573h-1v-544c0 -5 -2 -10 -5 -13c-4 -4 -9 -6 -14 -6h-35c-5 0 -10 2 -13 6c-4 3 -6 8 -6 13z
" />
    <glyph glyph-name="O" unicode="O" horiz-adv-x="821" 
d="M98 168c-31 55 -47 115 -47 181s16 127 47 182c32 55 76 99 131 131s116 48 181 48s126 -16 181 -48s99 -76 131 -131s48 -116 48 -182s-16 -126 -48 -181s-76 -98 -131 -130s-116 -48 -181 -48s-126 16 -181 48s-99 75 -131 130zM144 461c-15 -35 -23 -73 -23 -112
s8 -77 23 -112s36 -66 62 -92c25 -26 56 -47 92 -62s73 -23 112 -23s76 8 112 23s67 36 93 62s47 57 62 92s23 73 23 112s-8 77 -23 113c-15 35 -36 66 -62 92c-26 27 -57 48 -93 63s-73 23 -112 23s-76 -8 -112 -23s-67 -36 -92 -63c-26 -26 -47 -57 -62 -93z" />
    <glyph glyph-name="P" unicode="P" horiz-adv-x="596" 
d="M102 19v662c0 5 2 10 6 13c3 4 8 6 13 6h221c61 0 114 -22 158 -65s66 -95 66 -156c0 -62 -22 -115 -66 -159s-96 -66 -157 -66h-165v-235c0 -5 -2 -10 -6 -13c-4 -4 -8 -6 -13 -6h-38c-5 0 -10 2 -13 6c-4 3 -6 8 -6 13zM178 328h159c41 0 77 15 107 44
c30 30 45 66 45 109c0 40 -15 74 -45 101c-30 28 -66 42 -107 42h-159v-296z" />
    <glyph glyph-name="Q" unicode="Q" horiz-adv-x="822" 
d="M770 349c0 -73 -20 -139 -58 -199c-40 -58 -91 -102 -155 -130l117 -188c4 -7 4 -13 1 -20s-9 -10 -17 -10h-50c-7 0 -12 3 -16 10l-109 184c-22 -4 -46 -6 -73 -6c-65 0 -126 16 -181 48s-99 75 -131 130c-31 55 -47 115 -47 181s16 127 47 182c32 55 76 99 131 131
s116 48 181 48s126 -16 181 -48s99 -76 131 -131s48 -116 48 -182zM144 461c-15 -35 -23 -73 -23 -112s8 -77 23 -112s36 -66 62 -92c25 -26 56 -47 92 -62s73 -23 112 -23s76 8 112 23s67 36 93 62s47 57 62 92s23 73 23 112s-8 77 -23 113c-15 35 -36 66 -62 92
c-26 27 -57 48 -93 63s-73 23 -112 23s-76 -8 -112 -23s-67 -36 -92 -63c-26 -26 -47 -57 -62 -93z" />
    <glyph glyph-name="R" unicode="R" horiz-adv-x="661" 
d="M102 19v662c0 5 2 10 6 13c3 4 8 6 13 6h259c60 0 111 -21 154 -62s64 -92 64 -151c0 -45 -14 -86 -41 -123c-27 -36 -63 -63 -107 -81l137 -254c4 -7 4 -13 1 -19c-4 -7 -10 -10 -18 -10h-51c-8 0 -13 3 -16 9l-133 265h-191v-255c0 -5 -2 -10 -5 -13
c-4 -4 -9 -6 -14 -6h-39c-5 0 -10 2 -13 6c-4 3 -6 8 -6 13zM181 340h194c39 0 72 14 101 42c29 29 43 63 43 104c0 38 -14 71 -43 99s-62 42 -101 42h-194v-287z" />
    <glyph glyph-name="S" unicode="S" horiz-adv-x="533" 
d="M63 71c-4 3 -7 6 -9 8c-1 2 -2 5 -2 10s2 10 5 16c1 2 4 5 7 9c4 5 7 8 8 10c12 16 24 19 35 9c59 -51 115 -76 169 -76c39 0 72 11 96 33c26 21 38 47 38 77c0 33 -14 61 -42 85c-27 22 -72 47 -133 73c-31 13 -55 26 -75 37c-18 11 -36 25 -53 42c-17 16 -29 34 -37 55
c-7 21 -11 45 -11 73c0 15 2 30 7 45c4 15 11 31 22 47s24 30 40 43s36 23 61 31s52 12 83 12c29 0 58 -4 86 -13c29 -9 50 -17 64 -25l21 -13c3 -1 5 -3 7 -6s4 -7 4 -11c2 -6 0 -11 -5 -17c-1 -2 -3 -5 -6 -9c-3 -5 -5 -8 -6 -10c-9 -14 -21 -17 -35 -9l-5 3l-10 6
c-3 2 -8 4 -13 8c-6 2 -12 5 -18 8c-5 3 -12 5 -19 8s-14 5 -21 7s-14 3 -22 5c-8 0 -16 1 -23 1c-20 0 -38 -3 -55 -7c-16 -6 -29 -12 -39 -20c-10 -7 -19 -16 -25 -26c-8 -11 -12 -21 -15 -30s-4 -18 -4 -27c0 -32 11 -59 33 -81c23 -21 57 -41 102 -60
c29 -12 54 -23 75 -33s41 -22 61 -35s36 -27 47 -42c11 -14 21 -30 28 -50c7 -18 11 -39 11 -62c0 -51 -21 -94 -64 -128c-42 -35 -93 -52 -152 -52c-22 0 -44 2 -66 8c-22 4 -40 10 -56 16c-14 7 -29 14 -43 23s-24 15 -31 21c-6 4 -11 9 -15 13z" />
    <glyph glyph-name="T" unicode="T" horiz-adv-x="478" 
d="M201 19v614h-174c-5 0 -10 2 -13 5c-4 4 -6 9 -6 14v29c0 5 2 10 6 13c3 4 8 6 13 6h424c5 0 10 -2 13 -6c4 -4 6 -8 6 -13v-29c0 -5 -2 -10 -6 -14c-3 -3 -8 -5 -13 -5h-174v-614c0 -5 -2 -10 -5 -13c-4 -4 -9 -6 -14 -6h-38c-5 0 -10 2 -14 6c-3 3 -5 8 -5 13z" />
    <glyph glyph-name="U" unicode="U" horiz-adv-x="716" 
d="M93 258v423c0 5 2 10 5 13c4 4 9 6 14 6h38c5 0 10 -2 14 -6c3 -4 5 -8 5 -13v-417c0 -59 17 -107 51 -146c34 -38 80 -57 137 -57s103 19 138 57c35 37 52 85 52 144v419c0 5 2 10 5 13c4 4 9 6 14 6h38c5 0 10 -2 14 -6c3 -4 5 -8 5 -13v-423c0 -51 -11 -96 -33 -137
c-23 -41 -54 -73 -95 -96s-87 -35 -138 -35s-97 12 -137 35c-41 23 -72 55 -94 96s-33 86 -33 137z" />
    <glyph glyph-name="V" unicode="V" horiz-adv-x="664" 
d="M309 1l-302 673c-3 7 -2 13 1 18s9 8 16 8h40c8 0 14 -4 17 -11l249 -560h4l249 560c3 7 8 11 17 11h40c7 0 13 -3 16 -8c4 -5 4 -11 1 -18l-304 -673c-4 -7 -10 -11 -17 -11h-10c-7 0 -13 4 -17 11z" />
    <glyph glyph-name="W" unicode="W" horiz-adv-x="902" 
d="M226 4l-189 672c-2 7 -1 12 2 17s9 7 16 7h42c4 0 8 -1 11 -4c4 -3 6 -6 7 -10l139 -518h4l167 531c3 7 8 11 17 11h18c9 0 15 -4 17 -11l170 -531h4l136 518c1 4 4 7 7 10s7 4 11 4h42c7 0 12 -2 15 -7c4 -5 5 -10 3 -17l-189 -672c-1 -4 -4 -7 -7 -10s-7 -4 -11 -4h-16
c-8 0 -14 4 -17 11l-173 541h-5l-170 -541c-4 -7 -10 -11 -17 -11h-16c-4 0 -8 1 -11 4s-6 6 -7 10z" />
    <glyph glyph-name="X" unicode="X" horiz-adv-x="583" 
d="M40 28l203 331l-195 313c-4 7 -4 13 -1 19s9 9 18 9h54c8 0 14 -3 17 -9l154 -265h1l156 265c4 6 10 9 17 9h54c8 0 14 -3 18 -9c3 -6 3 -12 -1 -19l-195 -313l202 -331c4 -7 4 -13 1 -19s-9 -9 -18 -9h-46c-8 0 -14 3 -17 9l-171 283h-1l-169 -283c-4 -6 -10 -9 -17 -9
h-46c-9 0 -15 3 -18 9c-4 6 -4 12 0 19z" />
    <glyph glyph-name="Y" unicode="Y" horiz-adv-x="565" 
d="M243 19v318l-241 334c-4 7 -4 13 -1 19c3 7 9 10 17 10h47c6 0 11 -3 16 -9l202 -279l202 279c5 6 10 9 16 9h47c8 0 14 -3 17 -10c3 -6 3 -12 -1 -19l-244 -333v-319c0 -5 -2 -10 -6 -13c-4 -4 -8 -6 -13 -6h-39c-5 0 -10 2 -14 6c-3 3 -5 8 -5 13z" />
    <glyph glyph-name="Z" unicode="Z" horiz-adv-x="534" 
d="M30 19v18l363 590v3h-315c-5 0 -10 2 -14 6c-3 4 -5 8 -5 13v32c0 5 2 10 5 13c4 4 9 6 14 6h405c5 0 10 -2 13 -6c4 -4 6 -8 6 -13v-13l-369 -597v-1h330c5 0 10 -2 13 -6c4 -4 6 -8 6 -13v-32c0 -5 -2 -10 -6 -13c-3 -4 -8 -6 -13 -6h-414c-5 0 -10 2 -13 6
c-4 3 -6 8 -6 13z" />
    <glyph glyph-name="bracketleft" unicode="[" horiz-adv-x="327" 
d="M146 -237h137c5 0 10 -2 13 -5c4 -4 6 -8 6 -13v-26c0 -5 -2 -10 -6 -13c-4 -4 -8 -6 -13 -6h-186c-5 0 -10 2 -13 6c-4 4 -6 8 -6 13v962c0 5 2 10 6 13c4 4 8 6 13 6h186c5 0 10 -2 13 -6c4 -4 6 -8 6 -13v-25c0 -5 -2 -10 -6 -14c-4 -3 -8 -5 -13 -5h-137v-874z" />
    <glyph glyph-name="backslash" unicode="\" horiz-adv-x="330" 
d="M221 13l-195 662c-2 7 -1 13 2 17c4 6 9 8 16 8h32c4 0 8 -1 11 -4s6 -6 7 -9l196 -662c2 -7 1 -13 -2 -17c-4 -6 -9 -8 -16 -8h-33c-4 0 -8 1 -11 4s-6 6 -7 9z" />
    <glyph glyph-name="bracketright" unicode="]" horiz-adv-x="327" 
d="M44 -237h137v874h-137c-5 0 -10 2 -14 5c-3 4 -5 9 -5 14v25c0 5 2 10 5 13c4 4 9 6 14 6h186c5 0 10 -2 14 -6c3 -4 5 -8 5 -13v-962c0 -5 -2 -10 -5 -13c-4 -4 -9 -6 -14 -6h-186c-5 0 -10 2 -14 6c-3 4 -5 8 -5 13v26c0 5 2 10 5 13c4 3 9 5 14 5z" />
    <glyph glyph-name="asciicircum" unicode="^" horiz-adv-x="524" 
d="M60 398c-8 0 -14 3 -17 9s-3 12 1 19l201 278c4 7 10 10 17 10h5c7 0 13 -3 17 -10l196 -278c4 -7 4 -13 1 -19s-9 -9 -17 -9h-33c-8 0 -14 4 -19 11l-149 211l-151 -211c-5 -7 -12 -11 -19 -11h-33z" />
    <glyph glyph-name="underscore" unicode="_" horiz-adv-x="387" 
d="M25 -29c0 5 2 10 5 13c4 4 9 6 14 6h299c5 0 10 -2 13 -6c4 -3 6 -8 6 -13v-16c0 -5 -2 -10 -6 -13c-3 -3 -8 -5 -13 -5h-299c-5 0 -10 2 -14 5c-3 4 -5 8 -5 13v16z" />
    <glyph glyph-name="grave" unicode="`" horiz-adv-x="302" 
d="M237 559l-161 67c-4 1 -6 4 -8 8c0 5 0 9 2 13l18 36c3 4 7 6 13 7c6 0 10 -1 13 -4l150 -84c3 -1 6 -4 6 -8c2 -3 1 -7 0 -11l-10 -22c-2 -4 -5 -6 -8 -6s-8 1 -15 4z" />
    <glyph glyph-name="a" unicode="a" horiz-adv-x="420" 
d="M202 254c13 0 26 -1 40 -3c15 -2 26 -4 33 -7l12 -3c1 40 -3 68 -12 84s-26 24 -53 24c-43 0 -83 -7 -120 -22c-9 -4 -16 -1 -19 10l-8 25c-3 10 0 17 11 22c4 2 11 5 22 8c10 4 26 8 50 12c22 4 45 6 67 6c49 0 83 -13 101 -39c17 -26 26 -69 26 -130v-222
c0 -5 -2 -10 -6 -13c-4 -4 -8 -6 -13 -6h-19c-5 0 -9 1 -11 4c-2 2 -4 6 -6 11l-8 27c-35 -35 -76 -52 -124 -52c-36 0 -65 12 -89 36c-22 24 -34 56 -34 95s14 71 42 96c29 25 68 37 118 37zM106 121c0 -20 6 -37 19 -51c13 -13 30 -20 51 -20c23 0 44 6 65 17s36 24 45 39
v79c-19 11 -47 16 -84 16c-29 0 -52 -7 -70 -21c-17 -14 -26 -34 -26 -59z" />
    <glyph glyph-name="b" unicode="b" 
d="M72 19v662c0 5 2 10 6 13c4 4 8 6 13 6h31c5 0 10 -2 14 -6c3 -4 5 -8 5 -13v-297c3 2 7 4 13 8c6 2 18 6 36 11c19 5 38 7 58 7c59 0 105 -20 140 -60c35 -39 52 -89 52 -149c0 -58 -18 -108 -53 -149s-78 -62 -129 -62c-14 0 -28 2 -42 6c-13 3 -25 8 -34 12
c-9 6 -18 11 -25 16s-13 10 -17 14l-5 5l-6 -27c-3 -11 -8 -16 -17 -16h-21c-5 0 -10 2 -13 6c-4 3 -6 8 -6 13zM142 119c1 -1 3 -3 5 -7c2 -2 6 -8 13 -16s14 -15 22 -20c7 -5 17 -10 30 -16c13 -4 26 -7 39 -7c35 0 64 15 86 43c22 30 33 64 33 104c0 42 -11 76 -34 103
s-55 40 -97 40c-16 0 -32 -2 -49 -6c-16 -4 -28 -8 -36 -12l-12 -6v-200z" />
    <glyph glyph-name="c" unicode="c" horiz-adv-x="441" 
d="M41 199c0 39 9 74 29 107c18 32 44 57 76 76c31 19 65 28 101 28c59 0 106 -23 143 -70c3 -5 5 -10 4 -14c-1 -6 -3 -10 -8 -14l-19 -16c-3 -3 -5 -5 -7 -6c-3 -1 -5 -2 -7 -1s-4 1 -5 2s-3 2 -6 5l-4 4c-11 12 -24 22 -40 30s-33 12 -52 12c-37 0 -69 -14 -94 -41
c-26 -27 -39 -61 -39 -101s13 -74 38 -102s57 -42 94 -42c8 0 16 0 23 2c7 0 14 2 20 4c7 3 12 5 16 7s9 5 14 9c6 5 10 8 12 10c3 1 7 5 12 10s8 9 9 10c5 5 10 8 14 8c5 0 10 -2 16 -6l11 -8c5 -4 9 -8 10 -13s0 -10 -3 -15c-16 -25 -37 -46 -64 -61s-56 -23 -89 -23
c-56 0 -104 20 -144 60c-41 40 -61 90 -61 149z" />
    <glyph glyph-name="d" unicode="d" 
d="M42 201c0 60 17 110 52 149c35 40 81 60 140 60c20 0 39 -2 56 -6c18 -5 31 -10 39 -14l12 -6v297c0 5 2 10 5 13c4 4 9 6 14 6h31c5 0 10 -2 13 -6c4 -4 6 -8 6 -13v-662c0 -5 -2 -10 -6 -13c-4 -4 -8 -6 -13 -6h-21c-9 0 -15 5 -17 16l-6 27l-5 -5c-3 -3 -8 -7 -16 -13
c-9 -6 -18 -11 -26 -16c-10 -5 -21 -9 -34 -13c-14 -4 -28 -6 -42 -6c-51 0 -94 21 -129 62s-53 91 -53 149zM112 200c0 -40 11 -74 33 -104c22 -28 51 -43 86 -43c13 0 26 2 39 7c12 4 22 9 30 16c9 7 16 13 22 20c7 7 11 12 14 16l4 7v200l-13 7c-6 2 -17 6 -34 10
c-17 5 -33 7 -50 7c-42 0 -74 -13 -97 -40s-34 -61 -34 -103z" />
    <glyph glyph-name="e" unicode="e" horiz-adv-x="457" 
d="M42 200c0 38 8 73 23 104c15 32 38 58 69 77s65 29 104 29c52 0 95 -17 130 -52c34 -35 51 -78 51 -131c0 -9 -1 -18 -2 -27c0 -5 -2 -10 -5 -12c-4 -4 -8 -5 -13 -5h-288c2 -35 16 -65 43 -91c26 -26 56 -39 91 -39c33 0 66 10 99 30c1 0 2 1 4 2c5 3 8 5 10 5
c2 2 4 2 6 1c3 -1 5 -3 8 -6l17 -23c4 -5 6 -10 6 -13s-3 -8 -10 -13c-15 -12 -35 -23 -61 -32c-27 -9 -55 -14 -86 -14c-39 0 -74 10 -104 28c-30 20 -53 45 -68 76c-16 32 -24 67 -24 106zM112 239h238c-1 29 -13 55 -34 77c-22 22 -48 33 -78 33c-33 0 -62 -11 -85 -31
c-23 -22 -37 -48 -41 -79z" />
    <glyph glyph-name="f" unicode="f" horiz-adv-x="320" 
d="M103 19v321h-61c-5 0 -10 2 -14 6c-3 4 -5 8 -5 13v22c0 5 2 10 5 13c4 4 9 6 14 6h61v140c0 56 14 98 43 127c28 29 65 43 110 43c44 0 81 -14 110 -41c8 -7 9 -14 4 -23l-16 -26c-6 -9 -15 -10 -26 -1c-25 19 -50 29 -73 29c-25 0 -45 -9 -60 -26
c-15 -18 -23 -45 -23 -82v-140h116c5 0 10 -2 14 -6c3 -3 5 -8 5 -13v-22c0 -5 -2 -10 -5 -13c-4 -4 -9 -6 -14 -6h-116v-321c0 -5 -2 -10 -6 -13c-4 -4 -8 -6 -13 -6h-31c-5 0 -10 2 -14 6c-3 3 -5 8 -5 13z" />
    <glyph glyph-name="g" unicode="g" horiz-adv-x="459" 
d="M31 19c0 15 2 29 7 41c5 14 10 24 16 33c7 9 13 16 20 23s12 11 17 14l7 4c-3 3 -6 7 -9 13s-8 18 -14 35s-9 35 -9 52c0 48 16 89 47 124s72 52 122 52h169c5 0 10 -2 14 -6c3 -3 5 -8 5 -13v-17c0 -4 -1 -8 -3 -11s-5 -5 -8 -6l-54 -11c1 -1 3 -3 5 -4s6 -5 11 -12
s10 -14 14 -22s8 -19 10 -32c4 -13 5 -27 5 -42c0 -47 -15 -87 -47 -120c-30 -33 -71 -50 -121 -50c-19 0 -36 2 -52 6c-15 4 -26 8 -33 13l-10 6l-5 -3c-2 0 -5 -3 -11 -6c-4 -4 -9 -8 -12 -12c-4 -5 -8 -10 -11 -18c-3 -6 -5 -14 -5 -21c0 -13 5 -25 14 -35
c10 -9 24 -14 41 -14h144c44 0 80 -11 108 -33s42 -54 42 -95c0 -43 -20 -80 -59 -113c-40 -33 -89 -49 -148 -49c-32 0 -61 4 -86 12s-46 19 -60 32c-16 13 -27 28 -34 44c-8 16 -12 33 -12 50c0 39 19 70 58 93v3c-17 5 -34 15 -50 30c-15 16 -23 38 -23 65zM236 124
c30 0 54 10 72 31c19 21 28 48 28 81s-9 60 -28 81c-18 21 -42 31 -72 31c-31 0 -56 -10 -76 -31c-19 -21 -29 -48 -29 -81s10 -60 29 -81c20 -21 45 -31 76 -31zM117 -162c0 -24 11 -44 35 -60c22 -15 51 -23 85 -23c35 0 66 9 93 27c27 17 41 40 41 68c0 4 0 8 -1 12
s-2 9 -6 16c-2 7 -7 13 -12 18s-13 10 -22 14c-10 3 -22 5 -35 5h-111c-1 0 -4 -1 -7 -2s-9 -4 -17 -9c-7 -4 -14 -9 -20 -14c-5 -5 -10 -13 -16 -22c-4 -9 -7 -19 -7 -30z" />
    <glyph glyph-name="h" unicode="h" horiz-adv-x="496" 
d="M72 19v662c0 5 2 10 6 13c4 4 8 6 13 6h31c5 0 10 -2 14 -6c3 -4 5 -8 5 -13v-324c1 1 3 3 7 5c2 3 8 7 17 13s18 11 28 16s22 9 37 13s30 6 45 6c49 0 87 -15 115 -46c26 -31 40 -75 40 -134v-211c0 -5 -2 -10 -6 -13c-4 -4 -8 -6 -13 -6h-32c-5 0 -10 2 -13 6
c-4 4 -6 8 -6 13v211c0 37 -8 66 -24 84c-15 20 -37 29 -66 29c-15 0 -29 -2 -43 -5c-14 -4 -26 -9 -36 -14c-10 -6 -19 -12 -27 -18c-7 -5 -13 -10 -17 -13l-6 -6v-268c0 -5 -2 -10 -5 -13c-4 -4 -9 -6 -14 -6h-31c-5 0 -10 2 -13 6c-4 3 -6 8 -6 13z" />
    <glyph glyph-name="i" unicode="i" horiz-adv-x="211" 
d="M138 598c-9 -9 -21 -13 -34 -13s-24 5 -34 13c-8 10 -13 21 -13 34s5 25 13 34c10 9 21 14 34 14s25 -5 34 -14s14 -21 14 -34s-5 -25 -14 -34zM71 19v362c0 5 2 10 5 13c4 4 9 6 14 6h31c5 0 10 -2 13 -6c4 -4 6 -8 6 -13v-362c0 -5 -2 -10 -6 -13c-4 -4 -8 -6 -13 -6
h-31c-5 0 -10 2 -14 6c-3 3 -5 8 -5 13z" />
    <glyph glyph-name="j" unicode="j" horiz-adv-x="213" 
d="M140 598c-9 -9 -21 -13 -34 -13s-24 5 -34 13c-8 10 -13 21 -13 34s5 25 13 34c10 9 21 14 34 14s25 -5 34 -14s14 -21 14 -34s-5 -25 -14 -34zM72 -140v521c0 5 2 10 6 13c4 4 8 6 13 6h31c5 0 10 -2 14 -6c3 -3 5 -8 5 -13v-521c0 -56 -14 -98 -43 -127
c-28 -29 -65 -43 -110 -43c-44 0 -81 14 -110 41c-8 7 -9 14 -4 23l16 26c6 9 15 10 26 1c8 -7 19 -13 34 -19c15 -7 28 -10 39 -10c25 0 45 9 60 26c15 18 23 45 23 82z" />
    <glyph glyph-name="k" unicode="k" horiz-adv-x="448" 
d="M72 19v662c0 5 2 10 6 13c4 4 8 6 13 6h31c5 0 10 -2 14 -6c3 -4 5 -8 5 -13v-433l170 140c9 8 17 12 24 12h54c8 0 13 -3 13 -10c2 -7 0 -12 -4 -15l-190 -152l221 -198c5 -3 6 -8 5 -15c-2 -7 -7 -10 -15 -10h-55c-7 0 -13 3 -20 8l-203 193v-182c0 -5 -2 -10 -5 -13
c-4 -4 -9 -6 -14 -6h-31c-5 0 -10 2 -13 6c-4 3 -6 8 -6 13z" />
    <glyph glyph-name="l" unicode="l" horiz-adv-x="213" 
d="M72 19v662c0 5 2 10 6 13c4 4 8 6 13 6h31c5 0 10 -2 14 -6c3 -4 5 -8 5 -13v-662c0 -5 -2 -10 -5 -13c-4 -4 -9 -6 -14 -6h-31c-5 0 -10 2 -13 6c-4 3 -6 8 -6 13z" />
    <glyph glyph-name="m" unicode="m" horiz-adv-x="762" 
d="M71 19v362c0 5 2 10 5 13c4 4 9 6 14 6h19c9 0 14 -4 16 -12l9 -31l6 5c2 3 7 7 16 13c8 6 17 11 26 16s22 9 36 13c16 4 31 6 46 6c59 0 101 -22 128 -65l3 3c2 2 4 4 7 6c2 1 5 4 10 7l12 9c4 3 9 6 14 9l18 9c5 3 12 6 18 8c8 4 14 6 22 8c6 1 14 3 22 4s16 2 23 2
c103 0 155 -60 155 -180v-211c0 -5 -2 -10 -6 -13c-4 -4 -8 -6 -13 -6h-32c-5 0 -10 2 -13 6c-4 4 -6 8 -6 13v211c0 37 -8 66 -23 84c-15 20 -38 29 -67 29c-12 0 -24 -2 -36 -5c-13 -3 -23 -7 -30 -10c-8 -4 -17 -9 -26 -16s-15 -11 -18 -13l-12 -12c3 -19 5 -38 5 -57
v-211c0 -5 -2 -10 -5 -13c-4 -4 -9 -6 -14 -6h-32c-5 0 -10 2 -14 6c-3 4 -5 8 -5 13v211c0 37 -8 66 -25 84c-16 20 -39 29 -70 29c-13 0 -26 -2 -39 -5c-13 -4 -23 -9 -32 -15s-16 -12 -23 -17s-12 -10 -15 -14l-5 -6v-267c0 -5 -2 -10 -6 -13c-4 -4 -8 -6 -13 -6h-31
c-5 0 -10 2 -14 6c-3 3 -5 8 -5 13z" />
    <glyph glyph-name="n" unicode="n" horiz-adv-x="495" 
d="M71 19v362c0 5 2 10 5 13c4 4 9 6 14 6h19c9 0 14 -4 16 -12l9 -31c1 1 4 3 6 5c4 3 10 7 20 13c9 6 19 11 29 16s23 9 39 13c15 4 31 6 46 6c103 0 155 -60 155 -180v-211c0 -5 -2 -10 -5 -13c-4 -4 -9 -6 -14 -6h-32c-5 0 -10 2 -14 6c-3 4 -5 8 -5 13v211
c0 37 -8 66 -23 84c-16 20 -38 29 -67 29c-14 0 -28 -2 -42 -5c-14 -4 -26 -9 -36 -15l-27 -17c-8 -5 -14 -10 -18 -14l-6 -6v-267c0 -5 -2 -10 -6 -13c-4 -4 -8 -6 -13 -6h-31c-5 0 -10 2 -14 6c-3 3 -5 8 -5 13z" />
    <glyph glyph-name="o" unicode="o" 
d="M440 201c0 -57 -19 -107 -58 -149c-39 -41 -86 -62 -141 -62s-102 21 -141 62c-39 42 -58 92 -58 149s19 107 58 147c39 42 86 62 141 62s102 -21 141 -62s58 -90 58 -147zM111 201c0 -41 13 -75 37 -103c26 -29 56 -43 93 -43s67 14 93 43c24 28 37 62 37 103
c0 40 -13 74 -37 101c-26 28 -56 42 -93 42s-67 -14 -93 -42c-24 -27 -37 -61 -37 -101z" />
    <glyph glyph-name="p" unicode="p" 
d="M141 23v-304c0 -5 -2 -10 -5 -13c-4 -4 -9 -6 -14 -6h-31c-5 0 -10 2 -13 6c-4 4 -6 8 -6 13v662c0 5 2 10 6 13c4 4 8 6 13 6h21c4 0 7 -1 10 -3c2 -2 4 -5 6 -10l7 -19l5 5c3 2 8 5 15 10s15 9 24 13c9 3 19 6 33 10c12 2 26 4 39 4c53 0 98 -21 135 -62
c36 -41 54 -91 54 -149c0 -59 -18 -108 -55 -149c-37 -40 -82 -60 -137 -60c-20 0 -39 3 -56 8c-18 5 -31 11 -39 17zM142 92c3 -3 7 -6 13 -10s17 -9 34 -16c17 -6 33 -9 50 -9c38 0 69 14 94 41c25 28 37 62 37 102c0 41 -11 76 -34 104c-23 29 -53 43 -92 43
c-12 0 -24 -2 -35 -5s-21 -8 -29 -12c-8 -6 -15 -10 -21 -15s-10 -9 -13 -12l-4 -5v-206z" />
    <glyph glyph-name="q" unicode="q" 
d="M231 410c21 0 42 -3 61 -10c19 -8 33 -15 42 -22l13 -10l7 18c3 9 10 14 19 14h18c5 0 10 -2 13 -6c4 -4 6 -8 6 -13v-662c0 -5 -2 -10 -6 -13c-4 -4 -8 -6 -13 -6h-31c-5 0 -10 2 -14 6c-3 4 -5 8 -5 13v306c-3 -3 -7 -6 -13 -9c-6 -4 -18 -9 -36 -16
c-19 -7 -38 -10 -58 -10c-55 0 -100 20 -137 60c-37 41 -55 90 -55 149s18 109 54 149c36 42 81 62 135 62zM112 200c0 -40 12 -74 37 -102c25 -27 56 -41 94 -41c16 0 32 3 49 9c16 5 28 11 36 16l12 8v208l-5 5c-2 2 -6 6 -13 12c-6 6 -13 11 -20 15s-17 8 -28 12
c-12 3 -24 5 -36 5c-39 0 -69 -14 -92 -43c-23 -28 -34 -63 -34 -104z" />
    <glyph glyph-name="r" unicode="r" horiz-adv-x="334" 
d="M71 19v362c0 5 2 10 5 13c4 4 9 6 14 6h19c9 0 15 -5 17 -14l8 -29l5 5c2 3 7 7 13 13c8 6 15 11 24 16c8 5 19 9 34 13c14 4 29 6 44 6c9 0 17 0 26 -1c8 -1 16 -2 24 -5c8 -2 14 -5 18 -10s5 -10 2 -17l-12 -34c-4 -11 -12 -14 -24 -9s-25 8 -39 8c-15 0 -28 -2 -41 -6
c-12 -4 -22 -9 -30 -14s-15 -11 -21 -16s-10 -10 -13 -14l-4 -6v-267c0 -5 -2 -10 -6 -13c-4 -4 -8 -6 -13 -6h-31c-5 0 -10 2 -14 6c-3 3 -5 8 -5 13z" />
    <glyph glyph-name="s" unicode="s" horiz-adv-x="356" 
d="M52 35c-3 2 -4 5 -6 9c0 4 0 8 1 12c1 3 4 7 7 14c4 7 6 10 7 11c3 4 7 6 11 7c6 1 11 -1 16 -4c3 -3 8 -6 14 -10c5 -4 16 -9 33 -16c17 -6 32 -9 47 -9c20 0 36 5 48 13c11 10 17 21 17 35c0 16 -6 29 -19 39c-13 11 -36 24 -69 41c-13 7 -23 13 -33 17
c-8 6 -18 12 -30 20c-10 8 -20 16 -26 25c-8 9 -13 19 -18 30s-7 24 -7 37c0 11 2 23 7 34c5 12 12 23 22 34c9 11 22 19 40 26c16 7 36 10 58 10c44 0 81 -10 111 -31c5 -3 8 -7 9 -13c1 -7 0 -13 -3 -18l-8 -16c-3 -5 -7 -9 -13 -10c-7 -2 -12 -2 -16 1
c-29 16 -55 24 -80 24c-20 0 -34 -4 -44 -12c-8 -8 -13 -17 -13 -28c0 -8 1 -15 5 -21c2 -5 8 -11 16 -17s15 -11 20 -14l29 -14l4 -2l41 -20c9 -5 21 -13 34 -21c13 -10 23 -18 30 -26s13 -18 18 -30s8 -25 8 -39c0 -30 -13 -56 -39 -79s-59 -34 -99 -34
c-48 0 -91 15 -130 45z" />
    <glyph glyph-name="t" unicode="t" horiz-adv-x="342" 
d="M97 100v240h-51c-5 0 -10 2 -14 6c-3 4 -5 8 -5 13v22c0 5 2 10 5 13c4 4 9 6 14 6h51v111c0 5 2 10 5 13c4 4 9 6 14 6l32 2c5 0 10 -2 13 -6s5 -8 5 -13v-113h116c5 0 10 -2 14 -6c3 -3 5 -8 5 -13v-22c0 -5 -2 -10 -5 -13c-4 -4 -9 -6 -14 -6h-116v-234
c0 -19 2 -31 8 -38c4 -7 13 -10 25 -10c21 0 46 7 73 22c8 3 13 4 16 3s5 -4 8 -9l15 -25c3 -6 4 -11 3 -14s-5 -7 -10 -11c-11 -7 -27 -14 -50 -22s-44 -12 -65 -12c-19 0 -35 3 -48 8s-22 13 -28 24s-10 22 -13 34c-2 12 -3 27 -3 44z" />
    <glyph glyph-name="u" unicode="u" horiz-adv-x="485" 
d="M66 171v210c0 5 2 10 6 13c4 4 8 6 13 6h32c5 0 10 -2 13 -6c4 -4 6 -8 6 -13v-211c0 -37 8 -66 24 -84c15 -20 37 -29 66 -29c15 0 29 2 42 5c13 4 24 9 33 15s17 12 23 17c8 5 13 10 16 14l5 6v267c0 5 2 10 5 13c4 4 9 6 14 6h31c5 0 10 -2 13 -6c4 -4 6 -8 6 -13
v-362c0 -5 -2 -10 -6 -13c-4 -4 -8 -6 -13 -6h-19c-9 0 -15 6 -18 17l-7 26l-5 -5c-3 -3 -8 -7 -17 -13s-18 -11 -27 -16s-21 -9 -36 -13s-30 -6 -45 -6c-103 0 -155 60 -155 181z" />
    <glyph glyph-name="v" unicode="v" horiz-adv-x="411" 
d="M185 0l-169 377c-3 7 -3 12 0 17c3 4 8 6 15 6h31c8 0 14 -4 18 -11l124 -286h1l132 286c4 7 10 11 17 11h26c7 0 12 -2 16 -6c2 -5 2 -10 -1 -17l-171 -377c-3 -7 -8 -10 -17 -10h-5c-9 0 -14 3 -17 10z" />
    <glyph glyph-name="w" unicode="w" horiz-adv-x="604" 
d="M144 0l-111 377c-4 15 1 23 15 23h31c9 0 15 -4 18 -11l73 -264h1l113 275c3 7 8 10 17 10h5c9 0 14 -3 17 -10l112 -276h1l72 265c3 7 8 11 17 11h31c15 0 20 -8 15 -23l-109 -377c-3 -7 -8 -10 -17 -10h-5c-9 0 -14 3 -17 10l-122 300l-118 -300c-3 -7 -8 -10 -17 -10
h-5c-9 0 -14 3 -17 10z" />
    <glyph glyph-name="x" unicode="x" horiz-adv-x="417" 
d="M37 26l131 178l-127 170c-5 7 -7 13 -3 18c2 5 8 8 16 8h42c7 0 12 -3 16 -8l95 -136h1l99 136c4 5 9 8 16 8h42c8 0 13 -3 17 -8c2 -5 1 -11 -4 -18l-127 -169l128 -179c5 -7 6 -13 3 -18s-8 -8 -16 -8h-37c-5 0 -10 3 -15 9l-106 147h-1l-104 -148c-4 -5 -9 -8 -16 -8
h-37c-8 0 -13 3 -16 8s-2 11 3 18z" />
    <glyph glyph-name="y" unicode="y" horiz-adv-x="466" 
d="M200 1l-186 377c-3 7 -3 12 0 16s8 6 15 6h44c8 0 14 -4 17 -11l148 -306h1l140 306c4 7 10 11 17 11h38c8 0 13 -2 16 -6c3 -5 2 -10 -1 -17l-307 -665c-4 -8 -10 -12 -17 -12h-37c-8 0 -14 2 -16 7c-4 5 -3 11 0 18z" />
    <glyph glyph-name="z" unicode="z" horiz-adv-x="365" 
d="M36 19v10l196 305v3h-168c-5 0 -10 2 -13 5c-3 4 -5 9 -5 14v25c0 5 2 10 5 13c3 4 8 6 13 6h251c8 0 14 -3 17 -8c4 -6 4 -12 0 -19l-191 -307v-3h154c5 0 10 -2 13 -5c4 -4 6 -9 6 -14v-25c0 -5 -2 -10 -6 -13c-3 -4 -8 -6 -13 -6h-240c-5 0 -10 2 -13 6
c-4 3 -6 8 -6 13z" />
    <glyph glyph-name="braceleft" unicode="{" horiz-adv-x="399" 
d="M109 -71v161c0 20 -8 37 -23 52c-16 15 -31 23 -46 26c-4 0 -8 2 -10 6c-4 3 -5 7 -5 11v31c0 4 1 7 5 10c2 3 6 4 10 5c15 3 30 11 46 25c15 15 23 32 23 53v161c0 35 5 66 15 94c11 29 24 52 41 70c17 17 36 32 58 44s44 20 65 25c22 5 44 7 66 7c5 0 10 -1 14 -4
s6 -7 6 -13v-19c0 -5 -1 -9 -4 -12c-2 -4 -5 -6 -9 -6c-51 -8 -95 -28 -130 -61s-53 -74 -53 -125v-133c0 -19 -2 -36 -6 -51s-8 -27 -13 -36s-11 -16 -20 -24c-9 -6 -15 -11 -21 -14c-4 -3 -11 -6 -19 -9v-7c8 -3 15 -6 19 -9c6 -3 12 -7 21 -15c9 -6 15 -14 20 -23
s9 -21 13 -36s6 -32 6 -51v-133c0 -51 18 -92 53 -125c35 -32 79 -52 130 -60c9 -1 13 -7 13 -17v-20c0 -5 -2 -9 -6 -12s-9 -5 -14 -5c-22 0 -44 2 -66 7c-21 5 -43 13 -65 25s-41 27 -58 44s-30 40 -41 68c-10 29 -15 60 -15 95z" />
    <glyph glyph-name="bar" unicode="|" horiz-adv-x="198" 
d="M77 -282v1023c0 5 2 10 5 13c4 4 9 6 14 6h7c5 0 10 -2 13 -6c3 -3 5 -8 5 -13v-1023c0 -5 -2 -10 -5 -13c-4 -3 -9 -5 -14 -5h-6c-5 0 -10 2 -14 5c-3 3 -5 8 -5 13z" />
    <glyph glyph-name="braceright" unicode="}" horiz-adv-x="399" 
d="M221 62c0 19 2 36 5 51c4 15 9 27 14 36s12 17 20 23c8 8 15 12 20 15s12 6 20 9v7c-8 3 -15 6 -20 9s-12 8 -20 14c-8 8 -15 15 -20 24s-10 20 -14 36c-3 14 -5 32 -5 51v133c0 51 -18 92 -53 125s-79 53 -130 61c-4 0 -7 2 -10 6c-2 3 -3 7 -3 12v19c0 5 2 9 5 13
c4 2 9 4 15 4c22 0 44 -2 65 -7s43 -13 65 -25s41 -27 58 -44c17 -18 30 -41 41 -70c11 -28 16 -59 16 -94v-161c0 -20 8 -37 23 -53c15 -14 31 -23 46 -25c4 -1 7 -2 11 -5c2 -3 4 -6 4 -10v-31c0 -4 -2 -8 -4 -11c-4 -4 -7 -6 -11 -6c-15 -3 -30 -11 -45 -26
c-16 -15 -24 -32 -24 -52v-161c0 -35 -5 -66 -16 -95c-11 -28 -24 -51 -41 -68s-36 -32 -58 -44s-44 -20 -65 -25s-43 -7 -65 -7c-5 0 -10 2 -14 5s-6 7 -6 12v20c0 11 4 16 13 17c51 8 95 28 130 60s53 74 53 125v133z" />
    <glyph glyph-name="asciitilde" unicode="~" horiz-adv-x="556" 
d="M79 228c-3 2 -6 5 -11 8c-4 4 -7 7 -10 9c-4 3 -6 7 -6 11c0 6 1 10 4 13c1 3 3 6 6 10s9 11 18 22s19 20 28 28s22 15 36 22c16 7 30 10 45 10s29 -3 43 -9c15 -5 26 -10 34 -15c7 -5 18 -12 31 -21c32 -23 56 -34 73 -34c7 0 13 1 18 2c6 1 12 4 17 8s10 7 13 10
c4 3 8 7 13 12c5 6 8 10 9 12c2 3 5 7 8 13c4 6 6 9 7 9c4 5 8 8 13 9s9 -1 14 -5l21 -17c4 -3 6 -7 7 -11c0 -6 -2 -10 -5 -13c-1 -3 -3 -6 -7 -10c-2 -4 -8 -11 -18 -22c-8 -11 -18 -20 -28 -28c-9 -8 -22 -15 -37 -22s-30 -10 -45 -10c-13 0 -27 3 -42 9
c-15 5 -25 10 -32 14s-17 11 -30 20c-1 1 -5 4 -12 9c-6 5 -11 8 -14 10c-4 2 -9 5 -15 8s-12 6 -17 7c-6 1 -12 2 -18 2c-7 0 -13 -1 -18 -2s-11 -4 -16 -8s-10 -7 -14 -10l-12 -12c-4 -5 -7 -9 -9 -12l-9 -13l-6 -9c-4 -5 -8 -8 -13 -9s-9 1 -14 5z" />
    <glyph glyph-name="uni00A0" unicode="&#xa0;" horiz-adv-x="222" 
 />
    <glyph glyph-name="exclamdown" unicode="&#xa1;" horiz-adv-x="229" 
d="M90 112c1 4 3 8 6 11c4 3 8 5 13 5h12c4 0 8 -2 12 -5s6 -7 7 -11l19 -279v-114c0 -5 -2 -10 -5 -13c-4 -4 -9 -6 -14 -6h-50c-5 0 -10 2 -14 6c-3 4 -5 8 -5 13v112zM58 353c0 16 6 29 17 41c11 10 25 16 40 16c16 0 29 -6 41 -16c10 -12 16 -25 16 -41s-6 -29 -16 -41
c-12 -10 -25 -16 -41 -16c-15 0 -29 6 -40 17s-17 25 -17 40z" />
    <glyph glyph-name="cent" unicode="&#xa2;" horiz-adv-x="427" 
d="M153 7c-37 16 -66 41 -89 75c-23 35 -34 74 -34 117c0 59 20 109 60 149c40 42 89 62 146 62c5 0 14 -1 26 -2l11 41c1 5 4 9 9 11c4 3 9 3 14 2l7 -2c5 -1 9 -4 11 -8c3 -5 3 -10 2 -15l-11 -40c29 -12 53 -31 74 -57c3 -5 5 -10 4 -14c-1 -6 -3 -10 -8 -14l-19 -16
c-3 -3 -5 -5 -8 -6s-5 -2 -7 -1s-3 1 -4 2l-5 5c-3 3 -4 4 -5 4c-11 12 -24 22 -40 30l-74 -273c5 -1 12 -1 21 -1c11 0 21 1 31 4s18 5 23 7s12 7 21 13c9 8 14 12 16 14c2 1 7 6 15 14c5 5 10 8 14 8c5 0 10 -2 16 -6l11 -8c5 -4 9 -8 9 -13c2 -5 1 -10 -2 -15
c-16 -25 -37 -46 -64 -61s-56 -23 -89 -23c-15 0 -28 1 -39 4l-26 -97c-1 -5 -4 -9 -8 -11c-5 -3 -10 -3 -15 -2l-6 2c-5 1 -9 4 -11 8c-3 4 -4 9 -3 14zM171 72l73 269c-3 1 -6 1 -9 1c-37 0 -69 -14 -95 -41c-25 -27 -38 -61 -38 -101c0 -28 6 -53 18 -76
c13 -23 30 -40 51 -52z" />
    <glyph glyph-name="sterling" unicode="&#xa3;" horiz-adv-x="504" 
d="M82 19v18c43 81 56 166 39 257h-44c-5 0 -10 2 -13 6s-5 8 -5 13v7c0 5 2 10 5 14c4 3 8 5 13 5h32c-1 3 -4 14 -10 34s-11 41 -15 65c-5 22 -7 45 -7 67c0 61 20 111 59 149c40 37 90 56 150 56c20 0 39 -2 58 -7c18 -5 34 -12 50 -21c14 -9 26 -17 33 -22
s16 -12 26 -21c4 -3 6 -7 7 -12c0 -5 -2 -10 -5 -14l-21 -26c-10 -13 -20 -13 -29 -1c-1 1 -3 3 -7 6c-2 3 -8 7 -17 14s-18 13 -27 18s-20 10 -34 14c-12 4 -25 6 -38 6c-39 0 -71 -13 -96 -39c-26 -26 -39 -60 -39 -101c0 -23 3 -46 7 -70c6 -24 11 -45 17 -64
c6 -18 9 -28 9 -31h164c5 0 10 -2 14 -5c3 -4 5 -9 5 -14v-8c0 -5 -2 -10 -5 -13c-4 -3 -9 -5 -14 -5h-153c4 -19 6 -41 7 -67c0 -26 -2 -54 -7 -85s-12 -57 -22 -78h250c5 0 10 -2 13 -6c3 -3 5 -8 5 -13v-26c0 -5 -2 -10 -5 -13c-4 -4 -8 -6 -13 -6h-318c-5 0 -10 2 -13 6
c-4 3 -6 8 -6 13z" />
    <glyph glyph-name="currency" unicode="&#xa4;" horiz-adv-x="476" 
d="M101 176l-20 19c-3 3 -5 8 -5 13c0 6 2 11 5 14l41 41c-13 21 -19 44 -19 69s6 48 19 69l-41 41c-3 3 -5 8 -5 14c0 5 2 10 5 13l20 19c3 3 8 5 13 5c6 0 11 -2 14 -5l41 -41c21 13 44 20 69 21c24 0 47 -7 69 -20l42 42c4 3 9 5 13 4c6 0 10 -2 13 -5l20 -20
c3 -3 5 -8 5 -13s-2 -10 -5 -13l-41 -41c13 -21 20 -45 20 -70s-7 -49 -20 -70l41 -41c3 -3 5 -8 5 -13s-2 -10 -5 -13l-20 -20c-4 -4 -9 -6 -14 -6s-9 2 -12 5l-42 42c-21 -13 -45 -19 -69 -18c-26 0 -48 6 -69 19l-41 -41c-3 -3 -8 -5 -14 -5c-5 0 -10 2 -13 5zM187 281
c14 -14 31 -21 51 -21s37 7 51 21s21 31 21 51s-7 37 -21 51s-31 21 -51 21s-37 -7 -51 -21s-21 -31 -21 -51s7 -37 21 -51z" />
    <glyph glyph-name="yen" unicode="&#xa5;" horiz-adv-x="618" 
d="M138 123c-5 0 -10 2 -13 5c-3 4 -5 9 -5 14v7c0 5 2 10 5 13c3 4 8 6 13 6h131v75h-131c-5 0 -10 2 -13 5c-3 4 -5 9 -5 14v7c0 5 2 10 5 13c3 4 8 6 13 6h131v49l-241 334c-4 7 -4 13 -1 19c3 7 9 10 17 10h47c6 0 11 -3 16 -9l202 -279l202 279c5 6 10 9 16 9h47
c8 0 14 -3 17 -10c3 -6 3 -12 -1 -19l-244 -333v-50h129c5 0 10 -2 13 -6c4 -4 6 -8 6 -13v-8c0 -5 -2 -10 -6 -13c-3 -3 -8 -5 -13 -5h-129v-75h129c5 0 10 -2 13 -6c4 -4 6 -8 6 -13v-8c0 -5 -2 -10 -6 -13c-3 -3 -8 -5 -13 -5h-129v-104c0 -5 -2 -10 -6 -13
c-4 -4 -8 -6 -13 -6h-39c-5 0 -10 2 -14 6c-3 4 -5 8 -5 13v104h-131z" />
    <glyph glyph-name="brokenbar" unicode="&#xa6;" horiz-adv-x="364" 
d="M179 393c-5 0 -10 2 -13 5c-4 4 -6 8 -6 13v330c0 5 2 10 6 13c4 4 8 6 13 6h7c5 0 10 -2 13 -6c3 -3 5 -8 5 -13v-330c0 -5 -2 -10 -6 -13s-8 -5 -13 -5h-6zM160 49c0 5 2 10 6 13c4 4 8 6 13 6h7c5 0 10 -2 13 -6c3 -3 5 -8 5 -13v-331c0 -5 -2 -10 -6 -13
s-8 -5 -13 -5h-6c-5 0 -10 2 -13 5c-4 3 -6 8 -6 13v331z" />
    <glyph glyph-name="section" unicode="&#xa7;" horiz-adv-x="527" 
d="M66 -110c9 12 19 13 30 3c4 -4 10 -9 18 -15s20 -14 35 -24c15 -11 33 -20 54 -26c21 -8 41 -11 62 -11c38 0 70 9 95 25c26 17 39 42 39 75c0 31 -14 58 -43 83c-28 25 -72 50 -132 75c-57 24 -101 52 -131 83s-45 69 -45 112c0 16 3 31 8 46s12 27 20 36s16 18 24 25
s15 13 20 16l8 5c-3 1 -6 3 -9 6s-10 9 -19 18s-17 19 -24 29s-13 23 -19 40s-9 34 -9 51c0 15 2 29 7 44s12 30 23 44c11 16 24 29 39 40c15 12 36 22 61 29s53 11 83 11c29 0 58 -4 87 -13c28 -9 49 -17 63 -25l21 -13c3 -1 5 -3 7 -6s3 -7 5 -11c0 -6 -1 -11 -5 -16
l-15 -23c-8 -12 -19 -14 -33 -6l-5 3l-10 6c-3 2 -8 4 -14 8c-5 2 -11 5 -16 8s-12 5 -19 8s-15 5 -21 7c-8 2 -15 3 -23 5c-8 0 -16 1 -23 1c-25 0 -48 -3 -66 -9c-20 -7 -34 -15 -44 -26c-9 -10 -16 -20 -21 -32c-5 -10 -7 -22 -7 -33c0 -51 45 -94 135 -131
c31 -13 56 -24 75 -34c20 -9 40 -20 60 -33c21 -13 37 -25 48 -38c12 -13 22 -27 28 -43c8 -17 11 -35 11 -54c0 -16 -3 -32 -9 -47c-5 -15 -12 -28 -21 -39l-25 -28c-8 -8 -15 -14 -21 -18l-9 -6c3 -1 6 -4 10 -6c3 -4 10 -10 20 -20c9 -9 18 -20 25 -30
c7 -12 14 -26 21 -43c6 -17 9 -35 9 -53c0 -51 -20 -92 -61 -123s-92 -47 -155 -47c-22 0 -44 2 -66 8c-22 4 -41 10 -55 16c-16 7 -30 14 -44 23c-15 9 -25 15 -31 21c-6 4 -11 9 -15 13l-9 9c-2 1 -3 4 -3 9s2 10 6 16zM334 106l7 4c3 1 9 5 16 11s14 12 19 19
c6 7 11 16 16 28c5 11 7 23 7 36c0 28 -13 52 -40 72s-72 43 -135 69c-19 8 -33 14 -42 19l-6 -3c-3 -1 -8 -5 -14 -10c-8 -5 -14 -11 -19 -17c-5 -7 -10 -16 -15 -26c-4 -12 -6 -23 -6 -35s2 -23 5 -32s9 -18 16 -27c7 -8 15 -15 23 -21s19 -13 32 -20c14 -7 27 -14 38 -19
c12 -6 28 -14 47 -22z" />
    <glyph glyph-name="dieresis" unicode="&#xa8;" horiz-adv-x="414" 
d="M127 680c13 0 25 -5 34 -14s14 -21 14 -34s-5 -24 -14 -34c-9 -8 -21 -13 -34 -13s-25 5 -33 13c-10 10 -14 21 -14 34s5 25 14 34s20 14 33 14zM354 598c-9 -9 -21 -13 -34 -13s-24 5 -34 13c-8 10 -13 21 -13 34s5 25 13 34c10 9 21 14 34 14s25 -5 34 -14
s14 -21 14 -34s-5 -25 -14 -34z" />
    <glyph glyph-name="copyright" unicode="&#xa9;" horiz-adv-x="826" 
d="M82 210c-19 45 -28 91 -28 140s10 95 28 140c20 44 45 82 77 114c32 33 70 58 115 78c44 18 90 28 139 28s95 -10 139 -29c45 -19 83 -45 116 -77c32 -32 58 -70 76 -114c20 -45 29 -91 29 -140s-9 -95 -29 -140c-18 -44 -44 -82 -76 -114c-33 -32 -71 -58 -116 -76
c-44 -20 -90 -29 -139 -29s-95 9 -139 29c-45 18 -83 44 -115 76s-58 70 -77 114zM138 466c-16 -37 -24 -75 -24 -116s8 -80 24 -116c16 -38 37 -69 64 -96s58 -48 95 -64c37 -15 75 -23 116 -23s79 8 117 23c36 16 68 37 95 64s48 58 63 96c16 36 24 75 24 116
s-8 80 -24 116c-15 37 -36 69 -63 96s-59 48 -95 64c-38 15 -76 23 -117 23s-79 -8 -116 -23c-37 -16 -68 -37 -95 -64s-48 -59 -64 -96zM235 348c0 52 18 96 55 133c36 37 80 55 132 55c45 0 83 -13 115 -38c5 -4 7 -9 7 -14c1 -5 -1 -10 -5 -15l-14 -18
c-6 -8 -15 -8 -27 -1c-23 15 -47 23 -74 23c-34 0 -62 -12 -85 -35c-23 -24 -34 -53 -34 -87c0 -35 11 -64 33 -87c23 -23 51 -35 86 -35c25 0 49 7 71 22c12 8 22 8 29 -1l16 -19c4 -4 6 -9 6 -14c-1 -5 -3 -10 -7 -14c-33 -28 -72 -42 -117 -42c-51 0 -95 18 -132 55
s-55 81 -55 132z" />
    <glyph glyph-name="ordfeminine" unicode="&#xaa;" horiz-adv-x="312" 
d="M124 404c-26 0 -47 9 -64 27s-25 41 -25 70c0 28 10 51 31 69c20 18 48 27 85 27c9 0 19 -1 29 -3c10 -1 18 -3 23 -4l8 -3c0 29 -3 49 -9 61c-5 10 -17 16 -36 16c-24 0 -53 -6 -86 -18c-3 -1 -6 -1 -10 2c-2 3 -4 6 -5 9l-5 18c-1 7 1 12 7 15c3 1 7 4 15 6
c6 4 18 6 35 10c17 2 34 4 53 4c10 0 19 -1 27 -2c8 -2 15 -4 21 -6c5 -3 10 -6 15 -11s9 -9 11 -12c4 -3 6 -9 8 -16c3 -7 4 -13 5 -17s1 -10 2 -20c1 -8 1 -15 1 -20v-20v-8v-152c0 -4 -1 -7 -4 -10s-6 -4 -9 -4h-18c-5 0 -9 3 -12 10l-6 21c-8 -7 -15 -13 -20 -17
c-5 -5 -14 -10 -27 -14c-13 -6 -26 -8 -40 -8zM130 451c16 0 31 4 46 12s26 17 33 26v56c-17 9 -38 13 -61 13c-19 0 -36 -5 -48 -16c-14 -11 -20 -24 -20 -40c0 -15 5 -27 14 -36c9 -10 21 -15 36 -15z" />
    <glyph glyph-name="guillemotleft" unicode="&#xab;" horiz-adv-x="415" 
d="M145 39l-104 155c-5 8 -5 16 0 24l109 148c5 8 11 12 18 12h14c8 0 14 -3 16 -10c4 -6 3 -13 -1 -21l-74 -139l71 -147c4 -8 5 -15 2 -21s-8 -9 -17 -9h-19c-6 0 -11 3 -15 8zM308 39l-104 155c-5 8 -5 16 0 24l109 148c5 8 11 12 18 12h14c8 0 13 -3 17 -10
c2 -6 2 -13 -2 -21l-74 -139l71 -147c4 -8 5 -15 2 -21s-8 -9 -17 -9h-19c-6 0 -11 3 -15 8z" />
    <glyph glyph-name="logicalnot" unicode="&#xac;" horiz-adv-x="520" 
d="M56 314c-5 0 -10 2 -14 6c-3 4 -5 8 -5 13v28c0 5 2 10 5 13c4 4 9 6 14 6h380c5 0 10 -2 14 -6c3 -4 5 -8 5 -13v-204c0 -5 -2 -10 -5 -13c-4 -3 -9 -5 -14 -5h-28c-5 0 -10 2 -14 5c-3 4 -5 8 -5 13v157h-333z" />
    <glyph glyph-name="uni00AD" unicode="&#xad;" horiz-adv-x="347" 
d="M70 220c-5 0 -10 2 -14 5c-3 3 -5 8 -5 13v19c0 5 2 10 5 13c4 4 9 6 14 6h209c5 0 10 -2 13 -6c4 -3 6 -8 6 -13v-19c0 -5 -2 -10 -6 -13c-3 -3 -8 -5 -13 -5h-209z" />
    <glyph glyph-name="registered" unicode="&#xae;" horiz-adv-x="827" 
d="M82 210c-19 45 -28 91 -28 140s10 95 28 140c20 44 45 82 77 114c32 33 70 58 115 78c44 18 90 28 139 28s95 -10 139 -29c45 -19 83 -45 116 -77c32 -32 58 -70 76 -114c20 -45 29 -91 29 -140s-9 -95 -29 -140c-18 -44 -44 -82 -76 -114c-33 -32 -71 -58 -116 -76
c-44 -20 -90 -29 -139 -29s-95 9 -139 29c-45 18 -83 44 -115 76s-58 70 -77 114zM138 466c-16 -37 -24 -75 -24 -116s8 -80 24 -116c16 -38 37 -69 64 -96s58 -48 95 -64c37 -15 75 -23 116 -23s79 8 117 23c36 16 68 37 95 64s48 58 63 96c16 36 24 75 24 116
s-8 80 -24 116c-15 37 -36 69 -63 96s-59 48 -95 64c-38 15 -76 23 -117 23s-79 -8 -116 -23c-37 -16 -68 -37 -95 -64s-48 -59 -64 -96zM288 187v328c0 5 2 10 6 13c3 4 8 6 13 6h142c33 0 62 -10 87 -30c24 -19 36 -47 36 -82c0 -17 -3 -33 -8 -47c-6 -14 -14 -25 -22 -33
c-10 -8 -18 -14 -26 -19s-16 -8 -25 -10l60 -118c3 -6 3 -12 -1 -18s-9 -9 -16 -9h-34c-7 0 -13 5 -18 14l-56 125h-74v-120c0 -5 -2 -10 -6 -13c-3 -4 -8 -6 -13 -6h-26c-5 0 -10 2 -13 6c-4 3 -6 8 -6 13zM351 365h98c18 0 33 5 43 17c12 10 17 24 17 40
c0 17 -5 31 -17 42c-10 10 -25 15 -43 15h-98v-114z" />
    <glyph glyph-name="macron" unicode="&#xaf;" horiz-adv-x="414" 
d="M79 583c-5 0 -10 2 -13 5c-4 4 -6 8 -6 13v21c0 5 2 10 6 14c3 3 8 5 13 5h256c5 0 10 -2 13 -5c4 -4 6 -9 6 -14v-21c0 -5 -2 -10 -6 -13c-3 -3 -8 -5 -13 -5h-256z" />
    <glyph glyph-name="degree" unicode="&#xb0;" horiz-adv-x="334" 
d="M262 479c-26 -26 -58 -39 -95 -39s-69 13 -95 40c-27 26 -40 58 -40 95s13 69 40 95c26 27 58 40 95 40s69 -13 95 -40c27 -26 40 -58 40 -95s-13 -69 -40 -96zM167 493c21 0 39 8 55 25c17 17 25 36 25 57s-8 39 -25 55c-16 17 -34 25 -55 25s-40 -8 -57 -25
c-17 -16 -25 -34 -25 -55s8 -40 25 -57s36 -25 57 -25z" />
    <glyph glyph-name="plusminus" unicode="&#xb1;" horiz-adv-x="597" 
d="M266 267v117h-157c-5 0 -10 2 -13 6c-4 4 -6 8 -6 13v28c0 5 2 10 6 13c4 4 8 6 13 6h157v148c0 5 2 10 6 13s8 5 13 5h28c5 0 10 -2 13 -5c4 -3 6 -8 6 -13v-148h158c5 0 10 -2 13 -6s5 -8 5 -13v-28c0 -5 -2 -10 -5 -13c-3 -4 -8 -6 -13 -6h-158v-117
c0 -5 -2 -10 -6 -13s-8 -5 -13 -5h-28c-5 0 -10 2 -13 5c-4 3 -6 8 -6 13zM108 61c-5 0 -10 2 -14 6c-3 4 -5 8 -5 13v28c0 5 2 10 6 14c4 3 8 5 13 5h381c5 0 10 -2 13 -6s5 -8 5 -13v-28c0 -5 -2 -10 -5 -14c-3 -3 -8 -5 -13 -5h-381z" />
    <glyph glyph-name="twosuperior" unicode="&#xb2;" horiz-adv-x="307" 
d="M55 504c-7 0 -10 3 -10 9v14l127 133c21 23 32 42 32 56c0 12 -5 23 -14 32c-10 10 -24 15 -43 15c-21 0 -42 -10 -62 -30c-4 -4 -8 -4 -12 0l-20 21c-4 4 -4 8 0 11l5 5c1 2 5 6 12 10c7 6 14 10 20 14c8 4 16 8 28 11c10 3 21 5 32 5c35 0 61 -8 80 -25s28 -38 28 -64
c0 -27 -16 -57 -49 -90l-81 -83h121c6 0 9 -3 9 -10v-25c0 -6 -3 -9 -9 -9h-194z" />
    <glyph glyph-name="threesuperior" unicode="&#xb3;" horiz-adv-x="298" 
d="M145 494c-44 0 -78 14 -103 41c-4 4 -4 8 1 11l21 20c5 3 10 2 13 -1l2 -1c1 -1 3 -3 5 -4c1 -1 3 -3 6 -4s5 -3 8 -4c3 -2 6 -4 10 -6c4 -1 8 -2 11 -4c3 0 7 -1 11 -2c5 -1 9 -1 13 -1c16 0 30 4 42 13c12 8 18 19 18 32s-6 25 -19 34c-12 9 -30 14 -54 14h-31
c-7 0 -10 3 -10 9v25c0 6 3 9 10 9h31c21 0 38 4 48 13c12 8 17 18 17 31s-5 24 -16 33c-11 8 -23 12 -38 12c-21 0 -40 -8 -56 -24c-4 -4 -8 -4 -13 0l-20 18c-2 1 -3 3 -3 6s1 5 3 6c3 3 7 6 12 11s16 11 32 18s32 11 49 11c29 0 54 -8 75 -23c20 -15 30 -35 30 -60
c0 -16 -5 -31 -16 -43c-11 -14 -23 -22 -36 -27v-2c15 -5 28 -15 42 -29c12 -13 19 -29 19 -46c0 -25 -11 -46 -31 -62c-22 -16 -49 -24 -83 -24z" />
    <glyph glyph-name="acute" unicode="&#xb4;" horiz-adv-x="302" 
d="M83 561l-10 22c-1 4 -1 8 -1 11c2 4 4 7 7 8l150 84c3 3 7 4 13 4c7 -1 11 -3 13 -7l18 -36c2 -4 3 -8 1 -13c0 -4 -3 -7 -7 -8l-161 -67c-7 -3 -12 -4 -15 -4s-6 2 -8 6z" />
    <glyph glyph-name="mu" unicode="&#x3bc;" horiz-adv-x="505" 
d="M142 10v-291c0 -5 -2 -10 -6 -13c-4 -4 -8 -6 -13 -6h-31c-5 0 -10 2 -14 6c-3 4 -5 8 -5 13v662c0 5 2 10 5 13c4 4 9 6 14 6h32c5 0 10 -2 14 -6c3 -4 5 -8 5 -13v-211c0 -37 8 -66 23 -84c16 -20 38 -29 67 -29c15 0 29 2 41 5c14 4 25 9 34 15s17 12 24 17
s12 10 15 14l5 6v267c0 5 2 10 6 13c4 4 8 6 13 6h31c5 0 10 -2 14 -6c3 -4 5 -8 5 -13v-362c0 -5 -2 -10 -5 -13c-4 -4 -9 -6 -14 -6h-19c-9 0 -15 6 -18 17l-7 26l-6 -5c-2 -3 -7 -7 -16 -13c-8 -6 -17 -11 -26 -16s-22 -9 -36 -13c-16 -4 -31 -6 -46 -6
c-35 0 -63 7 -86 20z" />
    <glyph glyph-name="paragraph" unicode="&#xb6;" horiz-adv-x="702" 
d="M233 282c-37 0 -72 9 -103 28c-32 18 -58 43 -76 76c-20 32 -29 67 -29 106c0 57 19 106 57 148c37 40 83 61 137 61l442 -1c5 0 10 -2 13 -6c4 -4 6 -8 6 -13v-20c0 -5 -2 -10 -6 -13c-4 -4 -8 -6 -13 -6h-111v-924c0 -5 -2 -10 -6 -14c-3 -3 -8 -5 -13 -5h-21
c-5 0 -10 2 -14 5c-3 4 -5 9 -5 14v924h-156v-924c0 -5 -2 -10 -5 -14c-4 -3 -9 -5 -14 -5h-20c-5 0 -10 2 -14 5c-3 4 -5 9 -5 14v564h-44z" />
    <glyph glyph-name="periodcentered" unicode="&#xb7;" horiz-adv-x="229" 
d="M57 261c0 16 6 29 17 41c11 10 25 16 40 16c16 0 30 -6 40 -16c12 -12 17 -25 17 -41s-5 -29 -17 -41c-10 -10 -24 -16 -40 -16c-15 0 -29 6 -40 17s-17 25 -17 40z" />
    <glyph glyph-name="cedilla" unicode="&#xb8;" horiz-adv-x="247" 
d="M57 0h54v-53c31 -4 57 -15 76 -33c19 -19 29 -42 29 -70c0 -29 -10 -54 -30 -74c-21 -20 -46 -30 -75 -30c-15 0 -29 3 -43 10c-13 7 -24 15 -33 25c-4 5 -6 9 -5 15c0 4 2 8 5 11l14 11c4 3 8 4 12 4c5 0 8 -1 11 -4c11 -12 24 -18 41 -18c13 0 24 4 32 13s12 20 12 34
c0 9 -2 17 -5 23c-4 8 -9 13 -14 18c-5 4 -12 8 -20 11c-9 3 -16 6 -22 7s-13 3 -22 4c-11 3 -17 9 -17 20v76z" />
    <glyph glyph-name="onesuperior" unicode="&#xb9;" horiz-adv-x="190" 
d="M90 504c-7 0 -10 3 -10 9v210l-41 -11c-5 -1 -9 0 -10 4l-5 17c-1 4 0 8 3 11l70 56h28c6 0 9 -3 9 -9v-278c0 -3 -1 -5 -2 -7c-2 -1 -4 -2 -7 -2h-35z" />
    <glyph glyph-name="ordmasculine" unicode="&#xba;" horiz-adv-x="324" 
d="M286 551c0 -49 -11 -88 -32 -115c-22 -28 -53 -42 -92 -42s-70 14 -92 42c-21 27 -32 66 -32 115s11 88 32 116c22 28 53 42 92 42s70 -14 92 -41c21 -28 32 -67 32 -117zM111 470c12 -19 29 -28 51 -28s39 9 51 28s18 46 18 81s-6 63 -18 81c-12 20 -29 29 -51 29
s-39 -9 -51 -29c-12 -18 -18 -46 -18 -81s6 -62 18 -81z" />
    <glyph glyph-name="guillemotright" unicode="&#xbb;" horiz-adv-x="415" 
d="M72 31c-8 0 -13 3 -16 9s-2 13 1 21l71 147l-74 139c-4 8 -5 15 -2 21c3 7 8 10 17 10h14c7 0 13 -4 18 -12l109 -148c5 -8 5 -16 0 -24l-104 -155c-4 -5 -9 -8 -15 -8h-19zM235 31c-8 0 -13 3 -16 9s-2 13 1 21l71 147l-74 139c-4 8 -5 15 -2 21c3 7 8 10 17 10h14
c7 0 13 -4 18 -12l109 -148c5 -8 5 -16 0 -24l-104 -155c-4 -5 -9 -8 -15 -8h-19z" />
    <glyph glyph-name="onequarter" unicode="&#xbc;" horiz-adv-x="633" 
d="M486 1c-3 0 -5 1 -7 3s-3 4 -3 6v50h-150c-3 0 -5 1 -6 2c-2 2 -3 4 -3 7v29l172 196c2 2 5 3 8 3h21c3 0 5 -1 7 -3s3 -4 3 -6v-185h41c3 0 5 -1 7 -3c1 -1 2 -3 2 -5v-26c0 -2 -1 -4 -2 -5c-2 -2 -4 -3 -7 -3h-41v-51c0 -3 -1 -5 -3 -6c-2 -2 -4 -3 -7 -3h-32zM372 104
h106v118zM138 10c-3 -7 -9 -10 -17 -10h-14c-8 0 -14 3 -17 9s-3 12 0 18l343 663c4 7 10 10 17 10h16c8 0 14 -3 17 -9s3 -12 0 -18zM104 405c-7 0 -10 3 -10 9v210l-41 -11c-5 -1 -9 0 -10 4l-5 17c-1 4 0 8 3 11l70 56h28c6 0 9 -3 9 -9v-278c0 -3 -1 -5 -2 -6
c-2 -2 -4 -3 -7 -3h-35z" />
    <glyph glyph-name="onehalf" unicode="&#xbd;" horiz-adv-x="626" 
d="M138 10c-3 -7 -9 -10 -17 -10h-14c-8 0 -14 3 -17 9s-3 12 0 18l343 663c4 7 10 10 17 10h16c8 0 14 -3 17 -9s3 -12 0 -18zM104 405c-7 0 -10 3 -10 9v210l-41 -11c-5 -1 -9 0 -10 4l-5 17c-1 4 0 8 3 11l70 56h28c6 0 9 -3 9 -9v-278c0 -3 -1 -5 -2 -6
c-2 -2 -4 -3 -7 -3h-35zM357 1c-7 0 -10 3 -10 9v14l127 133c21 23 32 42 32 56c0 12 -5 23 -14 33c-10 9 -24 14 -43 14c-21 0 -42 -10 -62 -30c-4 -4 -8 -4 -12 0l-20 21c-4 4 -4 8 0 11l5 5c1 2 5 5 12 11c7 4 14 9 20 13c8 4 16 8 28 11c10 3 21 5 32 5
c35 0 61 -8 80 -25s28 -38 28 -64c0 -27 -16 -57 -49 -90l-81 -83h121c6 0 9 -3 9 -10v-25c0 -6 -3 -9 -9 -9h-194z" />
    <glyph glyph-name="threequarters" unicode="&#xbe;" horiz-adv-x="678" 
d="M531 1c-3 0 -5 1 -7 3s-3 4 -3 6v50h-150c-3 0 -5 1 -7 2c-1 2 -2 4 -2 7v29l172 196c2 2 5 3 8 3h21c3 0 5 -1 7 -3s3 -4 3 -6v-185h41c3 0 5 -1 6 -3c2 -1 3 -3 3 -5v-26c0 -2 -1 -4 -3 -5c-1 -2 -3 -3 -6 -3h-41v-51c0 -3 -1 -5 -3 -6c-2 -2 -4 -3 -7 -3h-32zM417 104
h106v118zM183 10c-3 -7 -9 -10 -17 -10h-14c-8 0 -14 3 -17 9s-3 12 0 18l343 663c4 7 10 10 17 10h16c8 0 14 -3 17 -9s3 -12 0 -18zM148 395c-44 0 -78 14 -103 41c-4 4 -4 8 1 11l21 20c5 3 10 2 13 -1l2 -1l4 -4c2 -1 4 -3 7 -4s5 -3 8 -5c3 -1 6 -3 10 -4
c4 -2 8 -4 11 -4c3 -2 7 -2 12 -3c4 -1 8 -1 12 -1c16 0 30 4 42 12c12 9 18 20 18 33s-6 25 -18 34c-13 9 -31 14 -55 14h-31c-7 0 -10 3 -10 9v25c0 6 3 9 10 9h31c21 0 37 4 49 12c10 9 16 19 16 32s-5 24 -16 32c-11 9 -23 13 -38 13c-21 0 -40 -8 -56 -24
c-4 -4 -8 -4 -13 0l-20 18c-2 1 -3 3 -3 6s1 5 3 6c3 3 7 6 12 11s16 11 32 18s32 11 49 11c29 0 54 -8 74 -23c21 -15 31 -35 31 -60c0 -16 -5 -30 -16 -44c-11 -12 -23 -21 -36 -26v-2c15 -5 29 -15 41 -28c14 -14 20 -30 20 -47c0 -25 -10 -46 -32 -62
c-20 -16 -48 -24 -82 -24z" />
    <glyph glyph-name="questiondown" unicode="&#xbf;" horiz-adv-x="244" 
d="M93 67v41c0 7 2 12 7 15c4 3 9 5 14 5h27c5 0 10 -2 13 -6c4 -3 6 -8 6 -13v-42c0 -17 -3 -32 -8 -45c-5 -14 -12 -26 -22 -34c-8 -9 -18 -18 -29 -26c-11 -9 -21 -17 -32 -24c-11 -8 -21 -16 -29 -25c-10 -9 -17 -19 -22 -31c-5 -13 -8 -27 -8 -42c0 -25 9 -46 26 -63
s42 -25 73 -25c9 0 17 0 25 2c8 0 16 2 23 4c7 3 14 5 19 7s11 5 17 9s11 7 15 9c3 2 8 5 12 10c6 5 9 8 10 9c2 2 5 6 10 10c4 6 6 8 7 8c9 9 17 9 26 1l19 -17c8 -7 8 -15 0 -26c-1 -3 -4 -6 -7 -10s-11 -11 -21 -21c-12 -10 -24 -19 -36 -27c-14 -7 -31 -14 -52 -20
c-21 -7 -44 -10 -67 -10c-52 0 -94 14 -126 42s-48 65 -48 111c0 17 3 33 9 49c5 14 13 27 22 38s20 21 31 30s23 18 34 26s22 16 31 24c9 7 17 16 22 26c6 10 9 20 9 31zM72 353c0 16 6 29 17 41c11 10 25 16 40 16c16 0 29 -6 41 -16c10 -12 16 -25 16 -41s-6 -29 -16 -41
c-12 -10 -25 -16 -41 -16c-15 0 -29 6 -40 17s-17 25 -17 40z" />
    <glyph glyph-name="Agrave" unicode="&#xc0;" horiz-adv-x="663" 
d="M23 0c-7 0 -13 3 -16 8s-4 11 -1 18l304 673c4 7 10 11 17 11h10c8 0 14 -4 17 -11l302 -673c3 -7 2 -13 -1 -18s-9 -8 -16 -8h-40c-8 0 -14 4 -17 11l-74 165h-355l-73 -165c-3 -7 -8 -11 -17 -11h-40zM181 238h300l-146 328h-8zM399 781l-161 67c-4 1 -6 4 -8 8
c0 5 0 9 2 13l18 36c3 4 7 6 13 7c6 0 10 -1 13 -4l150 -84c3 -1 6 -4 6 -8c2 -3 1 -7 0 -11l-10 -22c-2 -4 -5 -6 -8 -6s-8 1 -15 4z" />
    <glyph glyph-name="Aacute" unicode="&#xc1;" horiz-adv-x="663" 
d="M23 0c-7 0 -13 3 -16 8s-4 11 -1 18l304 673c4 7 10 11 17 11h10c8 0 14 -4 17 -11l302 -673c3 -7 2 -13 -1 -18s-9 -8 -16 -8h-40c-8 0 -14 4 -17 11l-74 165h-355l-73 -165c-3 -7 -8 -11 -17 -11h-40zM181 238h300l-146 328h-8zM241 783l-10 22c-1 4 -1 8 -1 11
c2 4 4 7 7 8l150 84c3 3 7 4 13 4c7 -1 11 -3 13 -7l18 -36c2 -4 3 -8 1 -13c0 -4 -3 -7 -7 -8l-161 -67c-7 -3 -12 -4 -15 -4s-6 2 -8 6z" />
    <glyph glyph-name="Acircumflex" unicode="&#xc2;" horiz-adv-x="663" 
d="M23 0c-7 0 -13 3 -16 8s-4 11 -1 18l304 673c4 7 10 11 17 11h10c8 0 14 -4 17 -11l302 -673c3 -7 2 -13 -1 -18s-9 -8 -16 -8h-40c-8 0 -14 4 -17 11l-74 165h-355l-73 -165c-3 -7 -8 -11 -17 -11h-40zM181 238h300l-146 328h-8zM207 775l-14 18c-2 4 -2 7 -1 11
c1 2 4 5 7 8l120 94c4 3 8 4 13 4s9 -1 13 -4l120 -94c3 -3 6 -6 7 -9s1 -7 -1 -10c-1 -1 -3 -4 -5 -8s-4 -7 -6 -9c-2 -3 -4 -5 -7 -7s-6 -3 -9 -3c-3 1 -7 2 -10 5l-102 70l-102 -68c-10 -7 -18 -6 -23 2z" />
    <glyph glyph-name="Atilde" unicode="&#xc3;" horiz-adv-x="663" 
d="M23 0c-7 0 -13 3 -16 8s-4 11 -1 18l304 673c4 7 10 11 17 11h10c8 0 14 -4 17 -11l302 -673c3 -7 2 -13 -1 -18s-9 -8 -16 -8h-40c-8 0 -14 4 -17 11l-74 165h-355l-73 -165c-3 -7 -8 -11 -17 -11h-40zM181 238h300l-146 328h-8zM207 795l-18 9c-7 4 -9 11 -4 22l6 15
c4 10 8 18 12 23c3 5 8 12 16 21c6 9 15 15 25 19s21 6 33 6c11 0 21 -2 31 -8c10 -4 18 -11 25 -18s13 -15 19 -22s12 -14 18 -18c6 -6 12 -8 17 -8c20 0 35 17 45 51c3 11 11 13 23 8l16 -8c2 -1 4 -3 4 -4c2 -1 2 -3 3 -3c1 -2 1 -3 1 -6c-1 -2 -1 -4 -2 -4l-1 -5
c-1 -2 -1 -3 -1 -4c-19 -54 -48 -81 -89 -81c-12 0 -24 4 -36 12s-22 17 -29 26c-8 9 -16 18 -24 26c-8 7 -15 11 -21 11c-7 0 -13 -1 -17 -5c-6 -2 -10 -7 -13 -13s-6 -11 -8 -15s-4 -10 -6 -17c-1 -5 -4 -9 -9 -11c-4 -2 -9 -2 -16 1z" />
    <glyph glyph-name="Adieresis" unicode="&#xc4;" horiz-adv-x="663" 
d="M389 839c0 13 5 25 13 34c10 9 21 14 34 14s25 -5 34 -14s14 -21 14 -34s-5 -25 -14 -33c-9 -10 -21 -14 -34 -14s-24 5 -34 14c-8 9 -13 20 -13 33zM178 839c0 13 5 25 14 34s20 14 33 14s25 -5 34 -14s14 -21 14 -34s-5 -25 -14 -33c-9 -10 -21 -14 -34 -14
s-25 5 -33 14c-10 9 -14 20 -14 33zM23 0c-7 0 -13 3 -16 8s-4 11 -1 18l304 673c4 7 10 11 17 11h10c8 0 14 -4 17 -11l302 -673c3 -7 2 -13 -1 -18s-9 -8 -16 -8h-40c-8 0 -14 4 -17 11l-74 165h-355l-73 -165c-3 -7 -8 -11 -17 -11h-40zM181 238h300l-146 328h-8z" />
    <glyph glyph-name="Aring" unicode="&#xc5;" horiz-adv-x="663" 
d="M23 0c-7 0 -13 3 -16 8s-4 11 -1 18l304 673c4 7 10 11 17 11h10c8 0 14 -4 17 -11l302 -673c3 -7 2 -13 -1 -18s-9 -8 -16 -8h-40c-8 0 -14 4 -17 11l-74 165h-355l-73 -165c-3 -7 -8 -11 -17 -11h-40zM181 238h300l-146 328h-8zM331 758c-31 0 -57 10 -77 32
c-22 20 -32 46 -32 77s10 57 32 77c20 22 46 32 77 32c30 0 56 -11 77 -32s32 -47 32 -77s-11 -56 -32 -77s-47 -32 -77 -32zM288 824c13 -12 27 -18 43 -18s30 6 41 18c12 13 18 27 18 43s-6 30 -18 41c-11 12 -25 18 -41 18s-30 -6 -43 -18c-12 -11 -18 -25 -18 -41
s6 -30 18 -43z" />
    <glyph glyph-name="AE" unicode="&#xc6;" horiz-adv-x="897" 
d="M7 0c-7 0 -12 3 -15 8c-2 5 -1 11 3 18l401 643c9 13 15 22 19 25c6 4 14 6 25 6h381c5 0 10 -2 13 -6c4 -4 6 -8 6 -13v-29c0 -5 -2 -10 -6 -14c-3 -3 -8 -5 -13 -5h-342v-244h293c5 0 10 -2 14 -5c3 -4 5 -9 5 -14v-29c0 -5 -2 -10 -6 -13c-4 -4 -8 -6 -13 -6h-293
v-255h342c5 0 10 -2 13 -5c4 -4 6 -9 6 -14v-29c0 -5 -2 -10 -6 -13c-3 -4 -8 -6 -13 -6h-394c-5 0 -10 2 -13 6c-4 4 -6 8 -6 13v157h-237l-104 -165c-6 -7 -12 -11 -19 -11h-41zM207 238h201v328z" />
    <glyph glyph-name="Ccedilla" unicode="&#xc7;" horiz-adv-x="709" 
d="M52 349c0 65 16 126 48 181c32 56 76 100 131 132s116 48 182 48c48 0 91 -8 130 -24c39 -15 76 -38 112 -69c4 -4 6 -9 7 -14c0 -5 -2 -10 -6 -14l-27 -27c-7 -9 -16 -9 -26 1c-27 23 -57 41 -91 55c-33 13 -67 20 -100 20c-51 0 -98 -13 -142 -40
c-42 -26 -76 -61 -100 -105c-25 -44 -37 -92 -37 -143s12 -98 37 -142c24 -44 58 -79 100 -106c44 -26 91 -39 142 -39c39 0 73 6 100 19c28 12 58 31 91 56c9 7 17 8 24 3l30 -27c4 -3 6 -8 5 -14c0 -5 -2 -10 -6 -13c-67 -65 -148 -97 -243 -97v-43c31 -4 57 -15 76 -33
c19 -19 29 -42 29 -70c0 -29 -10 -54 -30 -74c-21 -20 -46 -30 -75 -30c-15 0 -29 3 -43 10c-13 7 -24 15 -33 25c-4 5 -6 9 -5 15c0 4 2 8 5 11l14 11c4 3 8 4 12 4c5 0 8 -1 11 -4c11 -12 24 -18 41 -18c13 0 24 4 32 13s12 20 12 34c0 9 -2 17 -5 23c-4 8 -9 13 -14 18
c-5 4 -12 8 -20 11c-9 3 -16 6 -22 7s-13 3 -22 4c-11 3 -17 9 -17 20v70c-57 8 -109 29 -157 62c-46 33 -83 76 -110 126c-27 52 -40 107 -40 167z" />
    <glyph glyph-name="Egrave" unicode="&#xc8;" horiz-adv-x="592" 
d="M102 19v662c0 5 2 10 6 13c3 4 8 6 13 6h394c5 0 10 -2 13 -6c4 -4 6 -8 6 -13v-29c0 -5 -2 -10 -6 -14c-3 -3 -8 -5 -13 -5h-336v-244h287c5 0 10 -2 14 -5c3 -4 5 -9 5 -14v-29c0 -5 -2 -10 -5 -13c-4 -4 -9 -6 -14 -6h-287v-255h336c5 0 10 -2 13 -5c4 -4 6 -9 6 -14
v-29c0 -5 -2 -10 -6 -13c-3 -4 -8 -6 -13 -6h-394c-5 0 -10 2 -13 6c-4 3 -6 8 -6 13zM394 781l-161 67c-4 1 -6 4 -8 8c0 5 0 9 2 13l18 36c3 4 7 6 13 7c6 0 10 -1 13 -4l150 -84c3 -1 6 -4 6 -8c2 -3 1 -7 0 -11l-10 -22c-2 -4 -5 -6 -8 -6s-8 1 -15 4z" />
    <glyph glyph-name="Eacute" unicode="&#xc9;" horiz-adv-x="592" 
d="M102 19v662c0 5 2 10 6 13c3 4 8 6 13 6h394c5 0 10 -2 13 -6c4 -4 6 -8 6 -13v-29c0 -5 -2 -10 -6 -14c-3 -3 -8 -5 -13 -5h-336v-244h287c5 0 10 -2 14 -5c3 -4 5 -9 5 -14v-29c0 -5 -2 -10 -5 -13c-4 -4 -9 -6 -14 -6h-287v-255h336c5 0 10 -2 13 -5c4 -4 6 -9 6 -14
v-29c0 -5 -2 -10 -6 -13c-3 -4 -8 -6 -13 -6h-394c-5 0 -10 2 -13 6c-4 3 -6 8 -6 13zM237 783l-10 22c-1 4 -1 8 -1 11c2 4 4 7 7 8l150 84c3 3 7 4 13 4c7 -1 11 -3 13 -7l18 -36c2 -4 3 -8 1 -13c0 -4 -3 -7 -7 -8l-161 -67c-7 -3 -12 -4 -15 -4s-6 2 -8 6z" />
    <glyph glyph-name="Ecircumflex" unicode="&#xca;" horiz-adv-x="592" 
d="M102 19v662c0 5 2 10 6 13c3 4 8 6 13 6h394c5 0 10 -2 13 -6c4 -4 6 -8 6 -13v-29c0 -5 -2 -10 -6 -14c-3 -3 -8 -5 -13 -5h-336v-244h287c5 0 10 -2 14 -5c3 -4 5 -9 5 -14v-29c0 -5 -2 -10 -5 -13c-4 -4 -9 -6 -14 -6h-287v-255h336c5 0 10 -2 13 -5c4 -4 6 -9 6 -14
v-29c0 -5 -2 -10 -6 -13c-3 -4 -8 -6 -13 -6h-394c-5 0 -10 2 -13 6c-4 3 -6 8 -6 13zM192 775l-14 18c-2 4 -2 7 -1 11c1 2 4 5 7 8l120 94c4 3 8 4 13 4s9 -1 13 -4l120 -94c3 -3 6 -6 7 -9s1 -7 -1 -10c-1 -1 -3 -4 -5 -8s-4 -7 -6 -9c-2 -3 -4 -5 -7 -7s-6 -3 -9 -3
c-3 1 -7 2 -10 5l-102 70l-102 -68c-10 -7 -18 -6 -23 2z" />
    <glyph glyph-name="Edieresis" unicode="&#xcb;" horiz-adv-x="592" 
d="M376 839c0 13 4 25 14 34c8 9 20 14 33 14s25 -5 34 -14s14 -21 14 -34s-5 -25 -14 -33c-9 -10 -21 -14 -34 -14s-25 5 -33 14c-10 9 -14 20 -14 33zM165 839c0 13 5 25 14 34s20 14 33 14s25 -5 34 -14s14 -21 14 -34s-5 -25 -14 -33c-9 -10 -21 -14 -34 -14
s-24 5 -34 14c-8 9 -13 20 -13 33zM102 19v662c0 5 2 10 6 13c3 4 8 6 13 6h394c5 0 10 -2 13 -6c4 -4 6 -8 6 -13v-29c0 -5 -2 -10 -6 -14c-3 -3 -8 -5 -13 -5h-336v-244h287c5 0 10 -2 14 -5c3 -4 5 -9 5 -14v-29c0 -5 -2 -10 -5 -13c-4 -4 -9 -6 -14 -6h-287v-255h336
c5 0 10 -2 13 -5c4 -4 6 -9 6 -14v-29c0 -5 -2 -10 -6 -13c-3 -4 -8 -6 -13 -6h-394c-5 0 -10 2 -13 6c-4 3 -6 8 -6 13z" />
    <glyph glyph-name="Igrave" unicode="&#xcc;" horiz-adv-x="282" 
d="M209 781l-161 67c-4 1 -6 4 -8 8c0 5 0 9 2 13l18 36c3 4 7 6 13 7c6 0 10 -1 13 -4l150 -84c3 -1 6 -4 6 -8c2 -3 1 -7 0 -11l-10 -22c-2 -4 -5 -6 -8 -6s-8 1 -15 4zM102 19v662c0 5 2 10 6 13c4 4 8 6 13 6h40c5 0 10 -2 13 -6c4 -4 6 -8 6 -13v-662
c0 -5 -2 -10 -6 -13c-4 -4 -8 -6 -13 -6h-40c-5 0 -10 2 -13 6c-4 3 -6 8 -6 13z" />
    <glyph glyph-name="Iacute" unicode="&#xcd;" horiz-adv-x="282" 
d="M52 783l-10 22c-1 4 -2 8 0 11c0 4 3 7 6 8l150 84c3 3 7 4 14 4c6 -1 10 -3 12 -7l18 -36c2 -4 2 -8 2 -13c-2 -4 -4 -7 -8 -8l-161 -67c-7 -3 -12 -4 -15 -4s-6 2 -8 6zM102 19v662c0 5 2 10 6 13c4 4 8 6 13 6h40c5 0 10 -2 13 -6c4 -4 6 -8 6 -13v-662
c0 -5 -2 -10 -6 -13c-4 -4 -8 -6 -13 -6h-40c-5 0 -10 2 -13 6c-4 3 -6 8 -6 13z" />
    <glyph glyph-name="Icircumflex" unicode="&#xce;" horiz-adv-x="282" 
d="M17 775l-14 18c-2 4 -2 7 -1 11c1 2 4 5 7 8l120 94c4 3 8 4 13 4s9 -1 13 -4l120 -94c3 -3 6 -6 7 -9s1 -7 -1 -10c-1 -1 -3 -4 -5 -8s-4 -7 -6 -9c-2 -3 -4 -5 -7 -7s-6 -3 -9 -3c-3 1 -7 2 -10 5l-102 70l-102 -68c-10 -7 -18 -6 -23 2zM102 19v662c0 5 2 10 6 13
c4 4 8 6 13 6h40c5 0 10 -2 13 -6c4 -4 6 -8 6 -13v-662c0 -5 -2 -10 -6 -13c-4 -4 -8 -6 -13 -6h-40c-5 0 -10 2 -13 6c-4 3 -6 8 -6 13z" />
    <glyph glyph-name="Idieresis" unicode="&#xcf;" horiz-adv-x="282" 
d="M201 839c0 13 5 25 13 34c10 9 21 14 34 14s25 -5 34 -14s14 -21 14 -34s-5 -25 -14 -33c-9 -10 -21 -14 -34 -14s-24 5 -34 14c-8 9 -13 20 -13 33zM-10 839c0 13 5 25 14 34s20 14 33 14s25 -5 34 -14s14 -21 14 -34s-5 -25 -14 -33c-9 -10 -21 -14 -34 -14
s-25 5 -33 14c-10 9 -14 20 -14 33zM102 19v662c0 5 2 10 6 13c4 4 8 6 13 6h40c5 0 10 -2 13 -6c4 -4 6 -8 6 -13v-662c0 -5 -2 -10 -6 -13c-4 -4 -8 -6 -13 -6h-40c-5 0 -10 2 -13 6c-4 3 -6 8 -6 13z" />
    <glyph glyph-name="Eth" unicode="&#xd0;" horiz-adv-x="751" 
d="M106 19v305h-29c-5 0 -10 2 -13 6s-5 8 -5 13v7c0 5 2 10 5 14c4 3 8 5 13 5h29v312c0 5 2 10 5 13c3 4 8 6 13 6h224c47 0 93 -9 136 -28s81 -44 112 -74c31 -32 56 -68 75 -112c19 -42 28 -88 28 -135c0 -64 -16 -123 -47 -177c-32 -53 -75 -96 -128 -127
c-54 -31 -113 -47 -176 -47h-224c-5 0 -10 2 -13 6c-3 3 -5 8 -5 13zM182 69h150c83 0 150 27 204 79c52 54 79 121 79 203s-27 149 -80 202s-121 79 -203 79h-150v-263h211c5 0 10 -2 13 -5c4 -4 6 -9 6 -14v-8c0 -5 -2 -10 -6 -13c-3 -3 -8 -5 -13 -5h-211v-255z" />
    <glyph glyph-name="Ntilde" unicode="&#xd1;" horiz-adv-x="774" 
d="M102 19v673c0 5 2 10 6 13s8 5 13 5h25l451 -562h2v533c0 5 2 10 5 13c4 4 9 6 14 6h35c5 0 10 -2 13 -6c4 -4 6 -8 6 -13v-673c0 -5 -2 -10 -6 -13s-8 -5 -13 -5h-18l-459 573h-1v-544c0 -5 -2 -10 -5 -13c-4 -4 -9 -6 -14 -6h-35c-5 0 -10 2 -13 6c-4 3 -6 8 -6 13z
M274 795l-18 9c-7 4 -9 11 -4 22l6 15c4 10 8 18 12 23c3 5 8 12 16 21c6 9 15 15 25 19s21 6 33 6c11 0 21 -2 31 -8c10 -4 18 -11 25 -18s13 -15 19 -22s12 -14 18 -18c6 -6 12 -8 17 -8c20 0 35 17 45 51c3 11 11 13 23 8l16 -8c2 -1 4 -3 4 -4c2 -1 2 -3 3 -3
c1 -2 1 -3 1 -6c-1 -2 -1 -4 -2 -4l-1 -5c-1 -2 -1 -3 -1 -4c-19 -54 -48 -81 -89 -81c-12 0 -24 4 -36 12s-22 17 -29 26c-8 9 -16 18 -24 26c-8 7 -15 11 -21 11c-7 0 -13 -1 -17 -5c-6 -2 -10 -7 -13 -13s-6 -11 -8 -15s-4 -10 -6 -17c-1 -5 -4 -9 -9 -11
c-4 -2 -9 -2 -16 1z" />
    <glyph glyph-name="Ograve" unicode="&#xd2;" horiz-adv-x="821" 
d="M98 168c-31 55 -47 115 -47 181s16 127 47 182c32 55 76 99 131 131s116 48 181 48s126 -16 181 -48s99 -76 131 -131s48 -116 48 -182s-16 -126 -48 -181s-76 -98 -131 -130s-116 -48 -181 -48s-126 16 -181 48s-99 75 -131 130zM144 461c-15 -35 -23 -73 -23 -112
s8 -77 23 -112s36 -66 62 -92c25 -26 56 -47 92 -62s73 -23 112 -23s76 8 112 23s67 36 93 62s47 57 62 92s23 73 23 112s-8 77 -23 113c-15 35 -36 66 -62 92c-26 27 -57 48 -93 63s-73 23 -112 23s-76 -8 -112 -23s-67 -36 -92 -63c-26 -26 -47 -57 -62 -93zM487 781
l-161 67c-4 1 -6 4 -8 8c0 5 0 9 2 13l18 36c3 4 7 6 13 7c6 0 10 -1 13 -4l150 -84c3 -1 6 -4 6 -8c2 -3 1 -7 0 -11l-10 -22c-2 -4 -5 -6 -8 -6s-8 1 -15 4z" />
    <glyph glyph-name="Oacute" unicode="&#xd3;" horiz-adv-x="821" 
d="M98 168c-31 55 -47 115 -47 181s16 127 47 182c32 55 76 99 131 131s116 48 181 48s126 -16 181 -48s99 -76 131 -131s48 -116 48 -182s-16 -126 -48 -181s-76 -98 -131 -130s-116 -48 -181 -48s-126 16 -181 48s-99 75 -131 130zM144 461c-15 -35 -23 -73 -23 -112
s8 -77 23 -112s36 -66 62 -92c25 -26 56 -47 92 -62s73 -23 112 -23s76 8 112 23s67 36 93 62s47 57 62 92s23 73 23 112s-8 77 -23 113c-15 35 -36 66 -62 92c-26 27 -57 48 -93 63s-73 23 -112 23s-76 -8 -112 -23s-67 -36 -92 -63c-26 -26 -47 -57 -62 -93zM330 783
l-10 22c-1 4 -1 8 -1 11c2 4 4 7 7 8l150 84c3 3 7 4 13 4c7 -1 11 -3 13 -7l18 -36c2 -4 3 -8 1 -13c0 -4 -3 -7 -7 -8l-161 -67c-7 -3 -12 -4 -15 -4s-6 2 -8 6z" />
    <glyph glyph-name="Ocircumflex" unicode="&#xd4;" horiz-adv-x="821" 
d="M98 168c-31 55 -47 115 -47 181s16 127 47 182c32 55 76 99 131 131s116 48 181 48s126 -16 181 -48s99 -76 131 -131s48 -116 48 -182s-16 -126 -48 -181s-76 -98 -131 -130s-116 -48 -181 -48s-126 16 -181 48s-99 75 -131 130zM144 461c-15 -35 -23 -73 -23 -112
s8 -77 23 -112s36 -66 62 -92c25 -26 56 -47 92 -62s73 -23 112 -23s76 8 112 23s67 36 93 62s47 57 62 92s23 73 23 112s-8 77 -23 113c-15 35 -36 66 -62 92c-26 27 -57 48 -93 63s-73 23 -112 23s-76 -8 -112 -23s-67 -36 -92 -63c-26 -26 -47 -57 -62 -93zM285 775
l-14 18c-2 4 -2 7 -1 11c1 2 4 5 7 8l120 94c4 3 8 4 13 4s9 -1 13 -4l120 -94c3 -3 6 -6 7 -9s1 -7 -1 -10c-1 -1 -3 -4 -5 -8s-4 -7 -6 -9c-2 -3 -4 -5 -7 -7s-6 -3 -9 -3c-3 1 -7 2 -10 5l-102 70l-102 -68c-10 -7 -18 -6 -23 2z" />
    <glyph glyph-name="Otilde" unicode="&#xd5;" horiz-adv-x="821" 
d="M98 168c-31 55 -47 115 -47 181s16 127 47 182c32 55 76 99 131 131s116 48 181 48s126 -16 181 -48s99 -76 131 -131s48 -116 48 -182s-16 -126 -48 -181s-76 -98 -131 -130s-116 -48 -181 -48s-126 16 -181 48s-99 75 -131 130zM144 461c-15 -35 -23 -73 -23 -112
s8 -77 23 -112s36 -66 62 -92c25 -26 56 -47 92 -62s73 -23 112 -23s76 8 112 23s67 36 93 62s47 57 62 92s23 73 23 112s-8 77 -23 113c-15 35 -36 66 -62 92c-26 27 -57 48 -93 63s-73 23 -112 23s-76 -8 -112 -23s-67 -36 -92 -63c-26 -26 -47 -57 -62 -93zM285 795
l-18 9c-7 4 -9 11 -4 22l6 15c4 10 8 18 12 23c3 5 8 12 16 21c6 9 15 15 25 19s21 6 33 6c11 0 21 -2 31 -8c10 -4 18 -11 25 -18s13 -15 19 -22s12 -14 18 -18c6 -6 12 -8 17 -8c20 0 35 17 45 51c3 11 11 13 23 8l16 -8c2 -1 4 -3 4 -4c2 -1 2 -3 3 -3c1 -2 1 -3 1 -6
c-1 -2 -1 -4 -2 -4l-1 -5c-1 -2 -1 -3 -1 -4c-19 -54 -48 -81 -89 -81c-12 0 -24 4 -36 12s-22 17 -29 26c-8 9 -16 18 -24 26c-8 7 -15 11 -21 11c-7 0 -13 -1 -17 -5c-6 -2 -10 -7 -13 -13s-6 -11 -8 -15s-4 -10 -6 -17c-1 -5 -4 -9 -9 -11c-4 -2 -9 -2 -16 1z" />
    <glyph glyph-name="Odieresis" unicode="&#xd6;" horiz-adv-x="821" 
d="M469 839c0 13 5 25 13 34c10 9 21 14 34 14s25 -5 34 -14s14 -21 14 -34s-5 -25 -14 -33c-9 -10 -21 -14 -34 -14s-24 5 -34 14c-8 9 -13 20 -13 33zM258 839c0 13 5 25 14 34s20 14 33 14s25 -5 34 -14s14 -21 14 -34s-5 -25 -14 -33c-9 -10 -21 -14 -34 -14
s-25 5 -33 14c-10 9 -14 20 -14 33zM98 168c-31 55 -47 115 -47 181s16 127 47 182c32 55 76 99 131 131s116 48 181 48s126 -16 181 -48s99 -76 131 -131s48 -116 48 -182s-16 -126 -48 -181s-76 -98 -131 -130s-116 -48 -181 -48s-126 16 -181 48s-99 75 -131 130z
M144 461c-15 -35 -23 -73 -23 -112s8 -77 23 -112s36 -66 62 -92c25 -26 56 -47 92 -62s73 -23 112 -23s76 8 112 23s67 36 93 62s47 57 62 92s23 73 23 112s-8 77 -23 113c-15 35 -36 66 -62 92c-26 27 -57 48 -93 63s-73 23 -112 23s-76 -8 -112 -23s-67 -36 -92 -63
c-26 -26 -47 -57 -62 -93z" />
    <glyph glyph-name="multiply" unicode="&#xd7;" horiz-adv-x="481" 
d="M103 190l-20 20c-3 3 -5 8 -5 13s2 10 5 13l111 111l-111 111c-3 3 -5 8 -5 14c0 5 2 10 5 13l19 20c3 3 8 5 13 5c6 0 11 -2 14 -5l111 -111l112 112c4 3 8 5 13 4c5 0 9 -2 13 -5l20 -20c4 -4 6 -9 6 -13c0 -6 -2 -10 -5 -13l-112 -112l112 -111c3 -4 5 -9 5 -14
s-2 -10 -6 -13l-20 -19c-4 -4 -8 -6 -13 -6s-9 2 -13 5l-112 112l-111 -111c-3 -3 -8 -5 -13 -5s-10 2 -13 5z" />
    <glyph glyph-name="Oslash" unicode="&#xd8;" horiz-adv-x="821" 
d="M81 22c-4 4 -6 8 -6 13s2 9 5 13l61 61c-60 69 -90 149 -90 240c0 65 16 126 47 181c32 56 76 100 131 132s116 48 181 48c45 0 88 -8 130 -24c40 -16 77 -38 110 -67l63 63c3 3 8 5 13 5s10 -2 13 -5l5 -5c3 -3 5 -8 5 -13s-2 -10 -5 -13l-63 -63c28 -33 50 -70 65 -110
c16 -42 24 -84 24 -129c0 -65 -16 -125 -48 -181c-32 -54 -76 -98 -131 -130s-116 -48 -181 -48c-91 0 -171 29 -238 88l-61 -61c-4 -3 -9 -5 -14 -5s-9 2 -12 6zM192 160l408 409c-55 47 -118 71 -190 71c-39 0 -76 -8 -112 -23s-67 -36 -92 -63c-26 -26 -47 -57 -62 -92
c-15 -36 -23 -74 -23 -113c0 -71 24 -134 71 -189zM223 129c53 -46 116 -69 187 -69c39 0 76 8 112 23s67 36 93 62s47 57 62 92s23 73 23 112c0 35 -6 68 -18 101s-29 62 -52 87z" />
    <glyph glyph-name="Ugrave" unicode="&#xd9;" horiz-adv-x="716" 
d="M93 258v423c0 5 2 10 5 13c4 4 9 6 14 6h38c5 0 10 -2 14 -6c3 -4 5 -8 5 -13v-417c0 -59 17 -107 51 -146c34 -38 80 -57 137 -57s103 19 138 57c35 37 52 85 52 144v419c0 5 2 10 5 13c4 4 9 6 14 6h38c5 0 10 -2 14 -6c3 -4 5 -8 5 -13v-423c0 -51 -11 -96 -33 -137
c-23 -41 -54 -73 -95 -96s-87 -35 -138 -35s-97 12 -137 35c-41 23 -72 55 -94 96s-33 86 -33 137zM423 781l-161 67c-4 1 -6 4 -8 8c0 5 0 9 2 13l18 36c3 4 7 6 13 7c6 0 10 -1 13 -4l150 -84c3 -1 6 -4 6 -8c2 -3 1 -7 0 -11l-10 -22c-2 -4 -5 -6 -8 -6s-8 1 -15 4z" />
    <glyph glyph-name="Uacute" unicode="&#xda;" horiz-adv-x="716" 
d="M93 258v423c0 5 2 10 5 13c4 4 9 6 14 6h38c5 0 10 -2 14 -6c3 -4 5 -8 5 -13v-417c0 -59 17 -107 51 -146c34 -38 80 -57 137 -57s103 19 138 57c35 37 52 85 52 144v419c0 5 2 10 5 13c4 4 9 6 14 6h38c5 0 10 -2 14 -6c3 -4 5 -8 5 -13v-423c0 -51 -11 -96 -33 -137
c-23 -41 -54 -73 -95 -96s-87 -35 -138 -35s-97 12 -137 35c-41 23 -72 55 -94 96s-33 86 -33 137zM266 783l-10 22c-1 4 -1 8 -1 11c2 4 4 7 7 8l150 84c3 3 7 4 13 4c7 -1 11 -3 13 -7l18 -36c2 -4 3 -8 1 -13c0 -4 -3 -7 -7 -8l-161 -67c-7 -3 -12 -4 -15 -4s-6 2 -8 6z
" />
    <glyph glyph-name="Ucircumflex" unicode="&#xdb;" horiz-adv-x="716" 
d="M93 258v423c0 5 2 10 5 13c4 4 9 6 14 6h38c5 0 10 -2 14 -6c3 -4 5 -8 5 -13v-417c0 -59 17 -107 51 -146c34 -38 80 -57 137 -57s103 19 138 57c35 37 52 85 52 144v419c0 5 2 10 5 13c4 4 9 6 14 6h38c5 0 10 -2 14 -6c3 -4 5 -8 5 -13v-423c0 -51 -11 -96 -33 -137
c-23 -41 -54 -73 -95 -96s-87 -35 -138 -35s-97 12 -137 35c-41 23 -72 55 -94 96s-33 86 -33 137zM228 775l-14 18c-2 4 -2 7 -1 11c1 2 4 5 7 8l120 94c4 3 8 4 13 4s9 -1 13 -4l120 -94c3 -3 6 -6 7 -9s1 -7 -1 -10c-1 -1 -3 -4 -5 -8s-4 -7 -6 -9c-2 -3 -4 -5 -7 -7
s-6 -3 -9 -3c-3 1 -7 2 -10 5l-102 70l-102 -68c-10 -7 -18 -6 -23 2z" />
    <glyph glyph-name="Udieresis" unicode="&#xdc;" horiz-adv-x="716" 
d="M415 839c0 13 5 25 13 34c10 9 21 14 34 14s25 -5 34 -14s14 -21 14 -34s-5 -25 -14 -33c-9 -10 -21 -14 -34 -14s-24 5 -34 14c-8 9 -13 20 -13 33zM204 839c0 13 5 25 14 34s20 14 33 14s25 -5 34 -14s14 -21 14 -34s-5 -25 -14 -33c-9 -10 -21 -14 -34 -14
s-25 5 -33 14c-10 9 -14 20 -14 33zM93 258v423c0 5 2 10 5 13c4 4 9 6 14 6h38c5 0 10 -2 14 -6c3 -4 5 -8 5 -13v-417c0 -59 17 -107 51 -146c34 -38 80 -57 137 -57s103 19 138 57c35 37 52 85 52 144v419c0 5 2 10 5 13c4 4 9 6 14 6h38c5 0 10 -2 14 -6
c3 -4 5 -8 5 -13v-423c0 -51 -11 -96 -33 -137c-23 -41 -54 -73 -95 -96s-87 -35 -138 -35s-97 12 -137 35c-41 23 -72 55 -94 96s-33 86 -33 137z" />
    <glyph glyph-name="Yacute" unicode="&#xdd;" horiz-adv-x="565" 
d="M243 19v318l-241 334c-4 7 -4 13 -1 19c3 7 9 10 17 10h47c6 0 11 -3 16 -9l202 -279l202 279c5 6 10 9 16 9h47c8 0 14 -3 17 -10c3 -6 3 -12 -1 -19l-244 -333v-319c0 -5 -2 -10 -6 -13c-4 -4 -8 -6 -13 -6h-39c-5 0 -10 2 -14 6c-3 3 -5 8 -5 13zM193 783l-10 22
c-1 4 -1 8 -1 11c2 4 4 7 7 8l150 84c3 3 7 4 13 4c7 -1 11 -3 13 -7l18 -36c2 -4 3 -8 1 -13c0 -4 -3 -7 -7 -8l-161 -67c-7 -3 -12 -4 -15 -4s-6 2 -8 6z" />
    <glyph glyph-name="Thorn" unicode="&#xde;" horiz-adv-x="597" 
d="M102 19v661c0 5 2 10 6 14c3 4 8 6 13 6h38c5 0 10 -2 13 -6c4 -4 6 -8 6 -13v-107h164c61 0 114 -22 158 -65s66 -95 66 -156c0 -62 -22 -115 -66 -159s-96 -66 -157 -66h-165v-109c0 -5 -2 -10 -6 -13c-4 -4 -8 -6 -13 -6h-38c-5 0 -10 2 -13 6c-4 3 -6 8 -6 13z
M178 202h159c41 0 77 15 107 44c30 30 45 66 45 109c0 40 -15 74 -45 101c-30 28 -66 42 -107 42h-159v-296z" />
    <glyph glyph-name="germandbls" unicode="&#xdf;" horiz-adv-x="541" 
d="M72 19v392c0 99 18 173 54 223c36 51 88 76 156 76c23 0 44 -3 63 -9s37 -15 53 -26s29 -27 38 -47s14 -43 14 -69c0 -21 -5 -43 -14 -67c-9 -22 -20 -42 -30 -56c-12 -16 -22 -31 -31 -46c-9 -16 -14 -29 -14 -38c0 -7 5 -16 15 -26c10 -11 22 -22 36 -34
c15 -12 29 -25 44 -40c14 -15 26 -32 36 -54c10 -20 15 -42 15 -65c0 -24 -5 -45 -13 -65c-10 -18 -22 -34 -38 -45s-34 -20 -52 -25c-20 -5 -40 -8 -61 -8c-20 0 -39 2 -57 6c-19 5 -32 9 -40 13c-4 1 -7 3 -9 5c-2 1 -4 4 -5 7c-2 3 -2 7 -1 11l8 30c3 14 10 18 21 12
c28 -15 56 -23 83 -23s49 8 66 23s25 35 25 60c0 16 -5 32 -16 48c-10 16 -22 31 -38 44l-44 39c-15 13 -27 26 -38 41c-10 15 -15 29 -15 43c0 13 5 30 15 49c10 20 21 38 33 55s23 35 33 54s15 36 15 49c0 29 -10 51 -29 68c-20 16 -43 24 -70 24
c-92 0 -138 -79 -138 -238v-391c0 -5 -2 -10 -6 -13c-4 -4 -8 -6 -13 -6h-32c-5 0 -10 2 -13 6c-4 3 -6 8 -6 13z" />
    <glyph glyph-name="agrave" unicode="&#xe0;" horiz-adv-x="419" 
d="M202 254c13 0 26 -1 40 -3c15 -2 26 -4 33 -7l12 -3c1 40 -3 68 -12 84s-26 24 -53 24c-43 0 -83 -7 -120 -22c-9 -4 -16 -1 -19 10l-8 25c-3 10 0 17 11 22c4 2 11 5 22 8c10 4 26 8 50 12c22 4 45 6 67 6c49 0 83 -13 101 -39c17 -26 26 -69 26 -130v-222
c0 -5 -2 -10 -6 -13c-4 -4 -8 -6 -13 -6h-19c-5 0 -9 1 -11 4c-2 2 -4 6 -6 11l-8 27c-35 -35 -76 -52 -124 -52c-36 0 -65 12 -89 36c-22 24 -34 56 -34 95s14 71 42 96c29 25 68 37 118 37zM106 121c0 -20 6 -37 19 -51c13 -13 30 -20 51 -20c23 0 44 6 65 17s36 24 45 39
v79c-19 11 -47 16 -84 16c-29 0 -52 -7 -70 -21c-17 -14 -26 -34 -26 -59zM289 559l-161 67c-4 1 -6 4 -8 8c0 5 0 9 2 13l18 36c3 4 7 6 13 7c6 0 10 -1 13 -4l150 -84c3 -1 6 -4 6 -8c2 -3 1 -7 0 -11l-10 -22c-2 -4 -5 -6 -8 -6s-8 1 -15 4z" />
    <glyph glyph-name="aacute" unicode="&#xe1;" horiz-adv-x="419" 
d="M124 561l-10 22c-1 4 -2 8 0 11c0 4 3 7 6 8l150 84c3 3 7 4 14 4c6 -1 10 -3 12 -7l18 -36c2 -4 2 -8 2 -13c-2 -4 -4 -7 -8 -8l-161 -67c-7 -3 -12 -4 -15 -4s-6 2 -8 6zM202 254c13 0 26 -1 40 -3c15 -2 26 -4 33 -7l12 -3c1 40 -3 68 -12 84s-26 24 -53 24
c-43 0 -83 -7 -120 -22c-9 -4 -16 -1 -19 10l-8 25c-3 10 0 17 11 22c4 2 11 5 22 8c10 4 26 8 50 12c22 4 45 6 67 6c49 0 83 -13 101 -39c17 -26 26 -69 26 -130v-222c0 -5 -2 -10 -6 -13c-4 -4 -8 -6 -13 -6h-19c-5 0 -9 1 -11 4c-2 2 -4 6 -6 11l-8 27
c-35 -35 -76 -52 -124 -52c-36 0 -65 12 -89 36c-22 24 -34 56 -34 95s14 71 42 96c29 25 68 37 118 37zM106 121c0 -20 6 -37 19 -51c13 -13 30 -20 51 -20c23 0 44 6 65 17s36 24 45 39v79c-19 11 -47 16 -84 16c-29 0 -52 -7 -70 -21c-17 -14 -26 -34 -26 -59z" />
    <glyph glyph-name="acircumflex" unicode="&#xe2;" horiz-adv-x="419" 
d="M81 555l-14 18c-2 4 -2 7 -1 11c1 2 4 5 7 8l120 94c4 3 8 4 13 4s9 -1 13 -4l120 -94c3 -3 6 -6 7 -9s1 -7 -1 -10c-1 -1 -3 -4 -5 -8s-4 -7 -6 -9c-2 -3 -4 -5 -7 -7s-6 -3 -9 -3c-3 1 -7 2 -10 5l-102 70l-102 -68c-10 -7 -18 -6 -23 2zM202 254c13 0 26 -1 40 -3
c15 -2 26 -4 33 -7l12 -3c1 40 -3 68 -12 84s-26 24 -53 24c-43 0 -83 -7 -120 -22c-9 -4 -16 -1 -19 10l-8 25c-3 10 0 17 11 22c4 2 11 5 22 8c10 4 26 8 50 12c22 4 45 6 67 6c49 0 83 -13 101 -39c17 -26 26 -69 26 -130v-222c0 -5 -2 -10 -6 -13c-4 -4 -8 -6 -13 -6
h-19c-5 0 -9 1 -11 4c-2 2 -4 6 -6 11l-8 27c-35 -35 -76 -52 -124 -52c-36 0 -65 12 -89 36c-22 24 -34 56 -34 95s14 71 42 96c29 25 68 37 118 37zM106 121c0 -20 6 -37 19 -51c13 -13 30 -20 51 -20c23 0 44 6 65 17s36 24 45 39v79c-19 11 -47 16 -84 16
c-29 0 -52 -7 -70 -21c-17 -14 -26 -34 -26 -59z" />
    <glyph glyph-name="atilde" unicode="&#xe3;" horiz-adv-x="419" 
d="M82 575l-18 9c-7 4 -9 11 -4 22l6 15c4 10 8 18 12 23c3 5 8 12 16 21c6 9 15 15 25 19s21 6 33 6c11 0 21 -2 31 -8c10 -4 18 -11 25 -18s13 -15 19 -22s12 -14 18 -18c6 -6 12 -8 17 -8c20 0 35 17 45 51c3 11 11 13 23 8l16 -8c2 -1 4 -3 4 -4c2 -1 2 -3 3 -3
c1 -2 1 -3 1 -6c-1 -2 -1 -4 -2 -4l-1 -5c-1 -2 -1 -3 -1 -4c-19 -54 -48 -81 -89 -81c-12 0 -24 4 -36 12s-22 17 -29 26c-8 9 -16 18 -24 26c-8 7 -15 11 -21 11c-7 0 -13 -1 -17 -5c-6 -2 -10 -7 -13 -13s-6 -11 -8 -15s-4 -10 -6 -17c-1 -5 -4 -9 -9 -11
c-4 -2 -9 -2 -16 1zM202 254c13 0 26 -1 40 -3c15 -2 26 -4 33 -7l12 -3c1 40 -3 68 -12 84s-26 24 -53 24c-43 0 -83 -7 -120 -22c-9 -4 -16 -1 -19 10l-8 25c-3 10 0 17 11 22c4 2 11 5 22 8c10 4 26 8 50 12c22 4 45 6 67 6c49 0 83 -13 101 -39c17 -26 26 -69 26 -130
v-222c0 -5 -2 -10 -6 -13c-4 -4 -8 -6 -13 -6h-19c-5 0 -9 1 -11 4c-2 2 -4 6 -6 11l-8 27c-35 -35 -76 -52 -124 -52c-36 0 -65 12 -89 36c-22 24 -34 56 -34 95s14 71 42 96c29 25 68 37 118 37zM106 121c0 -20 6 -37 19 -51c13 -13 30 -20 51 -20c23 0 44 6 65 17
s36 24 45 39v79c-19 11 -47 16 -84 16c-29 0 -52 -7 -70 -21c-17 -14 -26 -34 -26 -59z" />
    <glyph glyph-name="adieresis" unicode="&#xe4;" horiz-adv-x="419" 
d="M123 680c13 0 25 -5 34 -14s14 -21 14 -34s-5 -24 -14 -34c-9 -8 -21 -13 -34 -13s-25 5 -33 13c-10 10 -14 21 -14 34s5 25 14 34s20 14 33 14zM350 598c-9 -9 -21 -13 -34 -13s-24 5 -34 13c-8 10 -13 21 -13 34s5 25 13 34c10 9 21 14 34 14s25 -5 34 -14
s14 -21 14 -34s-5 -25 -14 -34zM202 254c13 0 26 -1 40 -3c15 -2 26 -4 33 -7l12 -3c1 40 -3 68 -12 84s-26 24 -53 24c-43 0 -83 -7 -120 -22c-9 -4 -16 -1 -19 10l-8 25c-3 10 0 17 11 22c4 2 11 5 22 8c10 4 26 8 50 12c22 4 45 6 67 6c49 0 83 -13 101 -39
c17 -26 26 -69 26 -130v-222c0 -5 -2 -10 -6 -13c-4 -4 -8 -6 -13 -6h-19c-5 0 -9 1 -11 4c-2 2 -4 6 -6 11l-8 27c-35 -35 -76 -52 -124 -52c-36 0 -65 12 -89 36c-22 24 -34 56 -34 95s14 71 42 96c29 25 68 37 118 37zM106 121c0 -20 6 -37 19 -51c13 -13 30 -20 51 -20
c23 0 44 6 65 17s36 24 45 39v79c-19 11 -47 16 -84 16c-29 0 -52 -7 -70 -21c-17 -14 -26 -34 -26 -59z" />
    <glyph glyph-name="aring" unicode="&#xe5;" horiz-adv-x="419" 
d="M207 492c-31 0 -57 10 -77 32c-22 20 -32 46 -32 77s10 57 32 77c20 22 46 32 77 32c30 0 56 -11 77 -32s32 -47 32 -77s-11 -56 -32 -77s-47 -32 -77 -32zM164 558c13 -12 27 -18 43 -18s30 6 41 18c12 13 18 27 18 43s-6 30 -18 41c-11 12 -25 18 -41 18
s-30 -6 -43 -18c-12 -11 -18 -25 -18 -41s6 -30 18 -43zM202 254c13 0 26 -1 40 -3c15 -2 26 -4 33 -7l12 -3c1 40 -3 68 -12 84s-26 24 -53 24c-43 0 -83 -7 -120 -22c-9 -4 -16 -1 -19 10l-8 25c-3 10 0 17 11 22c4 2 11 5 22 8c10 4 26 8 50 12c22 4 45 6 67 6
c49 0 83 -13 101 -39c17 -26 26 -69 26 -130v-222c0 -5 -2 -10 -6 -13c-4 -4 -8 -6 -13 -6h-19c-5 0 -9 1 -11 4c-2 2 -4 6 -6 11l-8 27c-35 -35 -76 -52 -124 -52c-36 0 -65 12 -89 36c-22 24 -34 56 -34 95s14 71 42 96c29 25 68 37 118 37zM106 121c0 -20 6 -37 19 -51
c13 -13 30 -20 51 -20c23 0 44 6 65 17s36 24 45 39v79c-19 11 -47 16 -84 16c-29 0 -52 -7 -70 -21c-17 -14 -26 -34 -26 -59z" />
    <glyph glyph-name="ae" unicode="&#xe6;" horiz-adv-x="690" 
d="M43 124c0 39 13 70 39 94c27 23 63 35 109 35c16 0 31 -1 47 -1c14 -2 26 -3 33 -4l11 -1c1 40 -2 67 -10 82c-6 15 -22 22 -46 22c-37 0 -79 -8 -127 -24c-5 -1 -10 -1 -13 3c-4 2 -7 6 -8 11l-5 25c-2 10 3 17 16 20c5 1 11 3 20 6s25 6 49 11c25 5 48 7 71 7
c32 0 56 -5 73 -14c16 -9 28 -23 36 -41c37 37 82 55 134 55c51 0 93 -17 128 -51s52 -78 52 -132c0 -9 0 -16 -1 -21s-3 -10 -5 -16c-4 -4 -8 -7 -14 -7h-280v-61c12 -21 29 -38 52 -50c23 -11 47 -17 74 -17c35 0 68 9 99 28c1 0 2 1 4 2c5 3 8 5 10 5c2 2 4 2 7 1
s5 -3 7 -6l17 -23c4 -5 6 -10 6 -13s-3 -8 -10 -13c-16 -12 -37 -23 -62 -32s-54 -14 -85 -14c-65 0 -116 24 -151 71c-15 -19 -35 -36 -62 -50c-26 -14 -54 -21 -84 -21c-39 0 -70 12 -94 37c-25 25 -37 57 -37 97zM354 240h230c-1 31 -13 56 -34 77c-22 21 -48 31 -79 31
c-24 0 -47 -6 -69 -19c-21 -13 -37 -29 -48 -48v-41zM187 50c20 0 39 5 57 15c17 10 31 22 40 36v89c-19 6 -47 9 -83 9c-27 0 -49 -7 -67 -21c-19 -13 -28 -32 -28 -56s8 -42 24 -54c15 -12 34 -18 57 -18z" />
    <glyph glyph-name="ccedilla" unicode="&#xe7;" horiz-adv-x="443" 
d="M42 199c0 39 10 74 29 107c19 32 45 57 76 76s65 28 101 28c59 0 106 -23 143 -70c3 -5 5 -10 4 -14c-1 -6 -3 -10 -8 -14l-19 -16c-3 -3 -5 -5 -8 -6c-2 -1 -4 -2 -6 -1c-3 1 -4 1 -5 2l-5 5c-3 2 -4 3 -5 4c-11 12 -24 22 -40 30s-33 12 -52 12c-37 0 -69 -14 -95 -41
c-25 -27 -38 -61 -38 -101s13 -74 38 -102s57 -42 94 -42c8 0 16 0 23 2c7 0 14 2 21 4c6 3 11 5 16 7c4 2 9 5 14 9c5 5 9 8 11 10c2 1 6 5 11 10l10 10c5 5 10 8 14 8c5 0 10 -2 16 -6l11 -8c5 -4 9 -8 9 -13c2 -5 1 -10 -2 -15c-15 -23 -34 -42 -58 -58
c-24 -14 -51 -23 -80 -25v-44c31 -4 57 -15 76 -33c19 -19 29 -42 29 -70c0 -29 -10 -54 -31 -74c-20 -20 -45 -30 -74 -30c-15 0 -29 3 -42 10c-14 7 -25 15 -34 25c-4 5 -6 9 -6 15c0 4 2 8 6 11l14 11c4 3 8 4 12 4c5 0 8 -1 11 -4c11 -12 24 -18 41 -18c13 0 24 4 32 13
s12 20 12 34c0 9 -2 17 -6 23c-4 8 -8 13 -14 18c-4 4 -11 8 -20 11c-8 3 -15 6 -21 7s-13 3 -22 4c-11 3 -17 9 -17 20v70c-47 9 -87 32 -118 70c-32 38 -48 83 -48 135z" />
    <glyph glyph-name="egrave" unicode="&#xe8;" horiz-adv-x="457" 
d="M42 200c0 38 8 73 23 104c15 32 38 58 69 77s65 29 104 29c52 0 95 -17 130 -52c34 -35 51 -78 51 -131c0 -9 -1 -18 -2 -27c0 -5 -2 -10 -5 -12c-4 -4 -8 -5 -13 -5h-288c2 -35 16 -65 43 -91c26 -26 56 -39 91 -39c33 0 66 10 99 30c1 0 2 1 4 2c5 3 8 5 10 5
c2 2 4 2 6 1c3 -1 5 -3 8 -6l17 -23c4 -5 6 -10 6 -13s-3 -8 -10 -13c-15 -12 -35 -23 -61 -32c-27 -9 -55 -14 -86 -14c-39 0 -74 10 -104 28c-30 20 -53 45 -68 76c-16 32 -24 67 -24 106zM112 239h238c-1 29 -13 55 -34 77c-22 22 -48 33 -78 33c-33 0 -62 -11 -85 -31
c-23 -22 -37 -48 -41 -79zM304 559l-161 67c-4 1 -6 4 -8 8c0 5 0 9 2 13l18 36c3 4 7 6 13 7c6 0 10 -1 13 -4l150 -84c3 -1 6 -4 6 -8c2 -3 1 -7 0 -11l-10 -22c-2 -4 -5 -6 -8 -6s-8 1 -15 4z" />
    <glyph glyph-name="eacute" unicode="&#xe9;" horiz-adv-x="457" 
d="M42 200c0 38 8 73 23 104c15 32 38 58 69 77s65 29 104 29c52 0 95 -17 130 -52c34 -35 51 -78 51 -131c0 -9 -1 -18 -2 -27c0 -5 -2 -10 -5 -12c-4 -4 -8 -5 -13 -5h-288c2 -35 16 -65 43 -91c26 -26 56 -39 91 -39c33 0 66 10 99 30c1 0 2 1 4 2c5 3 8 5 10 5
c2 2 4 2 6 1c3 -1 5 -3 8 -6l17 -23c4 -5 6 -10 6 -13s-3 -8 -10 -13c-15 -12 -35 -23 -61 -32c-27 -9 -55 -14 -86 -14c-39 0 -74 10 -104 28c-30 20 -53 45 -68 76c-16 32 -24 67 -24 106zM112 239h238c-1 29 -13 55 -34 77c-22 22 -48 33 -78 33c-33 0 -62 -11 -85 -31
c-23 -22 -37 -48 -41 -79zM144 561l-10 22c-1 4 -1 8 -1 11c2 4 4 7 7 8l150 84c3 3 7 4 13 4c7 -1 11 -3 13 -7l18 -36c2 -4 3 -8 1 -13c0 -4 -3 -7 -7 -8l-161 -67c-7 -3 -12 -4 -15 -4s-6 2 -8 6z" />
    <glyph glyph-name="ecircumflex" unicode="&#xea;" horiz-adv-x="457" 
d="M42 200c0 38 8 73 23 104c15 32 38 58 69 77s65 29 104 29c52 0 95 -17 130 -52c34 -35 51 -78 51 -131c0 -9 -1 -18 -2 -27c0 -5 -2 -10 -5 -12c-4 -4 -8 -5 -13 -5h-288c2 -35 16 -65 43 -91c26 -26 56 -39 91 -39c33 0 66 10 99 30c1 0 2 1 4 2c5 3 8 5 10 5
c2 2 4 2 6 1c3 -1 5 -3 8 -6l17 -23c4 -5 6 -10 6 -13s-3 -8 -10 -13c-15 -12 -35 -23 -61 -32c-27 -9 -55 -14 -86 -14c-39 0 -74 10 -104 28c-30 20 -53 45 -68 76c-16 32 -24 67 -24 106zM112 239h238c-1 29 -13 55 -34 77c-22 22 -48 33 -78 33c-33 0 -62 -11 -85 -31
c-23 -22 -37 -48 -41 -79zM115 555l-14 18c-2 4 -2 7 -1 11c1 2 4 5 7 8l120 94c4 3 8 4 13 4s9 -1 13 -4l120 -94c3 -3 6 -6 7 -9s1 -7 -1 -10c-1 -1 -3 -4 -5 -8s-4 -7 -6 -9c-2 -3 -4 -5 -7 -7s-6 -3 -9 -3c-3 1 -7 2 -10 5l-102 70l-102 -68c-10 -7 -18 -6 -23 2z" />
    <glyph glyph-name="edieresis" unicode="&#xeb;" horiz-adv-x="457" 
d="M42 200c0 38 8 73 23 104c15 32 38 58 69 77s65 29 104 29c52 0 95 -17 130 -52c34 -35 51 -78 51 -131c0 -9 -1 -18 -2 -27c0 -5 -2 -10 -5 -12c-4 -4 -8 -5 -13 -5h-288c2 -35 16 -65 43 -91c26 -26 56 -39 91 -39c33 0 66 10 99 30c1 0 2 1 4 2c5 3 8 5 10 5
c2 2 4 2 6 1c3 -1 5 -3 8 -6l17 -23c4 -5 6 -10 6 -13s-3 -8 -10 -13c-15 -12 -35 -23 -61 -32c-27 -9 -55 -14 -86 -14c-39 0 -74 10 -104 28c-30 20 -53 45 -68 76c-16 32 -24 67 -24 106zM112 239h238c-1 29 -13 55 -34 77c-22 22 -48 33 -78 33c-33 0 -62 -11 -85 -31
c-23 -22 -37 -48 -41 -79zM140 680c13 0 25 -5 34 -14s14 -21 14 -34s-5 -24 -14 -34c-9 -8 -21 -13 -34 -13s-25 5 -33 13c-10 10 -14 21 -14 34s5 25 14 34s20 14 33 14zM367 598c-9 -9 -21 -13 -34 -13s-24 5 -34 13c-8 10 -13 21 -13 34s5 25 13 34c10 9 21 14 34 14
s25 -5 34 -14s14 -21 14 -34s-5 -25 -14 -34z" />
    <glyph glyph-name="igrave" unicode="&#xec;" horiz-adv-x="211" 
d="M71 19v362c0 5 2 10 5 13c4 4 9 6 14 6h31c5 0 10 -2 13 -6c4 -4 6 -8 6 -13v-362c0 -5 -2 -10 -6 -13c-4 -4 -8 -6 -13 -6h-31c-5 0 -10 2 -14 6c-3 3 -5 8 -5 13zM174 559l-161 67c-4 1 -7 4 -7 8c-2 5 -1 9 1 13l18 36c3 4 7 6 13 7c6 0 10 -1 13 -4l150 -84
c3 -1 5 -4 7 -8c0 -3 0 -7 -1 -11l-10 -22c-2 -4 -5 -6 -8 -6s-8 1 -15 4z" />
    <glyph glyph-name="iacute" unicode="&#xed;" horiz-adv-x="211" 
d="M71 19v362c0 5 2 10 5 13c4 4 9 6 14 6h31c5 0 10 -2 13 -6c4 -4 6 -8 6 -13v-362c0 -5 -2 -10 -6 -13c-4 -4 -8 -6 -13 -6h-31c-5 0 -10 2 -14 6c-3 3 -5 8 -5 13zM17 561l-10 22c-1 4 -1 8 -1 11c2 4 4 7 7 8l150 84c3 3 7 4 13 4c7 -1 11 -3 13 -7l18 -36
c2 -4 3 -8 1 -13c0 -4 -3 -7 -7 -8l-161 -67c-7 -3 -12 -4 -15 -4s-6 2 -8 6z" />
    <glyph glyph-name="icircumflex" unicode="&#xee;" horiz-adv-x="211" 
d="M-17 555l-14 18c-2 4 -2 7 -1 11c1 2 4 5 7 8l120 94c4 3 8 4 13 4s9 -1 13 -4l120 -94c3 -3 6 -6 7 -9s1 -7 -1 -10c-1 -1 -3 -4 -5 -8s-4 -7 -6 -9c-2 -3 -4 -5 -7 -7s-6 -3 -9 -3c-3 1 -7 2 -10 5l-102 70l-102 -68c-10 -7 -18 -6 -23 2zM71 19v362c0 5 2 10 5 13
c4 4 9 6 14 6h31c5 0 10 -2 13 -6c4 -4 6 -8 6 -13v-362c0 -5 -2 -10 -6 -13c-4 -4 -8 -6 -13 -6h-31c-5 0 -10 2 -14 6c-3 3 -5 8 -5 13z" />
    <glyph glyph-name="idieresis" unicode="&#xef;" horiz-adv-x="211" 
d="M71 19v362c0 5 2 10 5 13c4 4 9 6 14 6h31c5 0 10 -2 13 -6c4 -4 6 -8 6 -13v-362c0 -5 -2 -10 -6 -13c-4 -4 -8 -6 -13 -6h-31c-5 0 -10 2 -14 6c-3 3 -5 8 -5 13zM10 680c13 0 25 -5 34 -14s14 -21 14 -34s-5 -24 -14 -34c-9 -8 -21 -13 -34 -13s-24 5 -34 13
c-8 10 -13 21 -13 34s5 25 14 34s20 14 33 14zM237 598c-9 -9 -21 -13 -34 -13s-25 5 -33 13c-10 10 -14 21 -14 34s4 25 14 34c8 9 20 14 33 14s25 -5 34 -14s14 -21 14 -34s-5 -25 -14 -34z" />
    <glyph glyph-name="eth" unicode="&#xf0;" horiz-adv-x="544" 
d="M41 219c0 43 10 81 31 115c20 33 46 59 78 76c33 17 68 26 106 26c25 0 51 -4 76 -11s44 -15 57 -23l19 -11c-16 60 -59 117 -128 172l-97 -56c-5 -3 -9 -3 -15 -1c-4 1 -8 4 -10 8l-4 7c-3 4 -3 9 -2 13c1 6 4 9 8 12l80 46c-37 24 -70 42 -99 53c-11 5 -13 13 -8 24
l13 27c3 8 10 10 20 7c49 -19 95 -43 138 -74l70 40c5 3 10 3 15 2s8 -4 11 -9l4 -7c3 -4 3 -9 2 -13c-1 -6 -4 -9 -9 -12l-54 -31c101 -89 152 -197 152 -324c0 -41 -5 -78 -14 -112s-23 -64 -41 -90c-19 -26 -43 -46 -74 -61c-30 -15 -65 -22 -104 -22
c-64 0 -117 22 -158 66c-42 45 -63 99 -63 163zM262 56c22 0 42 4 60 12c19 7 34 18 46 30c12 14 22 28 31 46c9 16 15 34 19 52c3 19 6 38 6 56c2 20 0 37 -3 54l-7 7c-4 3 -11 9 -22 16s-22 14 -33 19c-11 6 -26 11 -43 16c-18 5 -36 7 -53 7c-42 0 -78 -15 -107 -45
c-29 -31 -44 -68 -44 -111s15 -81 44 -112s65 -47 106 -47z" />
    <glyph glyph-name="ntilde" unicode="&#xf1;" horiz-adv-x="495" 
d="M71 19v362c0 5 2 10 5 13c4 4 9 6 14 6h19c9 0 14 -4 16 -12l9 -31c1 1 4 3 6 5c4 3 10 7 20 13c9 6 19 11 29 16s23 9 39 13c15 4 31 6 46 6c103 0 155 -60 155 -180v-211c0 -5 -2 -10 -5 -13c-4 -4 -9 -6 -14 -6h-32c-5 0 -10 2 -14 6c-3 4 -5 8 -5 13v211
c0 37 -8 66 -23 84c-16 20 -38 29 -67 29c-14 0 -28 -2 -42 -5c-14 -4 -26 -9 -36 -15l-27 -17c-8 -5 -14 -10 -18 -14l-6 -6v-267c0 -5 -2 -10 -6 -13c-4 -4 -8 -6 -13 -6h-31c-5 0 -10 2 -14 6c-3 3 -5 8 -5 13zM127 575l-18 9c-7 4 -9 11 -4 22l6 15c4 10 8 18 12 23
c3 5 8 12 16 21c6 9 15 15 25 19s21 6 33 6c11 0 21 -2 31 -8c10 -4 18 -11 25 -18s13 -15 19 -22s12 -14 18 -18c6 -6 12 -8 17 -8c20 0 35 17 45 51c3 11 11 13 23 8l16 -8c2 -1 4 -3 4 -4c2 -1 2 -3 3 -3c1 -2 1 -3 1 -6c-1 -2 -1 -4 -2 -4l-1 -5c-1 -2 -1 -3 -1 -4
c-19 -54 -48 -81 -89 -81c-12 0 -24 4 -36 12s-22 17 -29 26c-8 9 -16 18 -24 26c-8 7 -15 11 -21 11c-7 0 -13 -1 -17 -5c-6 -2 -10 -7 -13 -13s-6 -11 -8 -15s-4 -10 -6 -17c-1 -5 -4 -9 -9 -11c-4 -2 -9 -2 -16 1z" />
    <glyph glyph-name="ograve" unicode="&#xf2;" 
d="M440 201c0 -57 -19 -107 -58 -149c-39 -41 -86 -62 -141 -62s-102 21 -141 62c-39 42 -58 92 -58 149s19 107 58 147c39 42 86 62 141 62s102 -21 141 -62s58 -90 58 -147zM111 201c0 -41 13 -75 37 -103c26 -29 56 -43 93 -43s67 14 93 43c24 28 37 62 37 103
c0 40 -13 74 -37 101c-26 28 -56 42 -93 42s-67 -14 -93 -42c-24 -27 -37 -61 -37 -101zM308 559l-161 67c-4 1 -6 4 -8 8c0 5 0 9 2 13l18 36c3 4 7 6 13 7c6 0 10 -1 13 -4l150 -84c3 -1 6 -4 6 -8c2 -3 1 -7 0 -11l-10 -22c-2 -4 -5 -6 -8 -6s-8 1 -15 4z" />
    <glyph glyph-name="oacute" unicode="&#xf3;" 
d="M440 201c0 -57 -19 -107 -58 -149c-39 -41 -86 -62 -141 -62s-102 21 -141 62c-39 42 -58 92 -58 149s19 107 58 147c39 42 86 62 141 62s102 -21 141 -62s58 -90 58 -147zM111 201c0 -41 13 -75 37 -103c26 -29 56 -43 93 -43s67 14 93 43c24 28 37 62 37 103
c0 40 -13 74 -37 101c-26 28 -56 42 -93 42s-67 -14 -93 -42c-24 -27 -37 -61 -37 -101zM151 561l-10 22c-1 4 -1 8 -1 11c2 4 4 7 7 8l150 84c3 3 7 4 13 4c7 -1 11 -3 13 -7l18 -36c2 -4 3 -8 1 -13c0 -4 -3 -7 -7 -8l-161 -67c-7 -3 -12 -4 -15 -4s-6 2 -8 6z" />
    <glyph glyph-name="ocircumflex" unicode="&#xf4;" 
d="M440 201c0 -57 -19 -107 -58 -149c-39 -41 -86 -62 -141 -62s-102 21 -141 62c-39 42 -58 92 -58 149s19 107 58 147c39 42 86 62 141 62s102 -21 141 -62s58 -90 58 -147zM111 201c0 -41 13 -75 37 -103c26 -29 56 -43 93 -43s67 14 93 43c24 28 37 62 37 103
c0 40 -13 74 -37 101c-26 28 -56 42 -93 42s-67 -14 -93 -42c-24 -27 -37 -61 -37 -101zM116 555l-14 18c-2 4 -2 7 -1 11c1 2 4 5 7 8l120 94c4 3 8 4 13 4s9 -1 13 -4l120 -94c3 -3 6 -6 7 -9s1 -7 -1 -10c-1 -1 -3 -4 -5 -8s-4 -7 -6 -9c-2 -3 -4 -5 -7 -7s-6 -3 -9 -3
c-3 1 -7 2 -10 5l-102 70l-102 -68c-10 -7 -18 -6 -23 2z" />
    <glyph glyph-name="otilde" unicode="&#xf5;" 
d="M440 201c0 -57 -19 -107 -58 -149c-39 -41 -86 -62 -141 -62s-102 21 -141 62c-39 42 -58 92 -58 149s19 107 58 147c39 42 86 62 141 62s102 -21 141 -62s58 -90 58 -147zM111 201c0 -41 13 -75 37 -103c26 -29 56 -43 93 -43s67 14 93 43c24 28 37 62 37 103
c0 40 -13 74 -37 101c-26 28 -56 42 -93 42s-67 -14 -93 -42c-24 -27 -37 -61 -37 -101zM117 575l-18 9c-7 4 -9 11 -4 22l6 15c4 10 8 18 12 23c3 5 8 12 16 21c6 9 15 15 25 19s21 6 33 6c11 0 21 -2 31 -8c10 -4 18 -11 25 -18s13 -15 19 -22s12 -14 18 -18
c6 -6 12 -8 17 -8c20 0 35 17 45 51c3 11 11 13 23 8l16 -8c2 -1 4 -3 4 -4c2 -1 2 -3 3 -3c1 -2 1 -3 1 -6c-1 -2 -1 -4 -2 -4l-1 -5c-1 -2 -1 -3 -1 -4c-19 -54 -48 -81 -89 -81c-12 0 -24 4 -36 12s-22 17 -29 26c-8 9 -16 18 -24 26c-8 7 -15 11 -21 11
c-7 0 -13 -1 -17 -5c-6 -2 -10 -7 -13 -13s-6 -11 -8 -15s-4 -10 -6 -17c-1 -5 -4 -9 -9 -11c-4 -2 -9 -2 -16 1z" />
    <glyph glyph-name="odieresis" unicode="&#xf6;" 
d="M440 201c0 -57 -19 -107 -58 -149c-39 -41 -86 -62 -141 -62s-102 21 -141 62c-39 42 -58 92 -58 149s19 107 58 147c39 42 86 62 141 62s102 -21 141 -62s58 -90 58 -147zM111 201c0 -41 13 -75 37 -103c26 -29 56 -43 93 -43s67 14 93 43c24 28 37 62 37 103
c0 40 -13 74 -37 101c-26 28 -56 42 -93 42s-67 -14 -93 -42c-24 -27 -37 -61 -37 -101zM143 680c13 0 25 -5 34 -14s14 -21 14 -34s-5 -24 -14 -34c-9 -8 -21 -13 -34 -13s-25 5 -33 13c-10 10 -14 21 -14 34s5 25 14 34s20 14 33 14zM370 598c-9 -9 -21 -13 -34 -13
s-24 5 -34 13c-8 10 -13 21 -13 34s5 25 13 34c10 9 21 14 34 14s25 -5 34 -14s14 -21 14 -34s-5 -25 -14 -34z" />
    <glyph glyph-name="divide" unicode="&#xf7;" horiz-adv-x="538" 
d="M79 314c-5 0 -10 2 -13 6c-4 4 -6 8 -6 13v28c0 5 2 10 6 13c4 4 8 6 13 6h381c5 0 10 -2 13 -6s5 -8 5 -13v-28c0 -5 -2 -10 -5 -13c-3 -4 -8 -6 -13 -6h-381zM209 171c0 16 6 29 17 41c11 10 25 16 40 16c16 0 30 -6 40 -16c12 -12 17 -25 17 -41s-5 -29 -17 -41
c-10 -10 -24 -16 -40 -16c-15 0 -29 6 -40 17s-17 25 -17 40zM209 529c0 16 6 29 17 41c11 10 25 16 40 16c16 0 30 -6 40 -16c12 -12 17 -25 17 -41s-5 -29 -17 -41c-10 -10 -24 -16 -40 -16c-15 0 -29 6 -40 17s-17 25 -17 40z" />
    <glyph glyph-name="oslash" unicode="&#xf8;" horiz-adv-x="480" 
d="M68 29c-4 3 -6 8 -6 13s2 10 5 13l16 16c-27 39 -40 82 -40 131c0 57 19 106 57 147c39 41 86 61 141 61c49 0 91 -17 128 -50l21 21c4 4 9 6 14 6s10 -2 13 -6l5 -5c4 -3 6 -8 6 -13s-2 -10 -6 -13l-23 -23c27 -37 40 -79 40 -125c0 -58 -19 -108 -57 -150
c-39 -41 -86 -62 -141 -62c-49 0 -92 16 -128 48l-14 -14c-4 -4 -9 -6 -14 -6s-9 2 -13 6zM132 120l190 193c-23 21 -50 31 -81 31c-36 0 -67 -14 -91 -41c-26 -27 -38 -61 -38 -101c0 -31 7 -58 20 -82zM160 85c23 -20 50 -30 81 -30c36 0 67 14 91 43c26 29 38 63 38 104
c0 28 -7 53 -20 76z" />
    <glyph glyph-name="ugrave" unicode="&#xf9;" horiz-adv-x="485" 
d="M66 171v210c0 5 2 10 6 13c4 4 8 6 13 6h32c5 0 10 -2 13 -6c4 -4 6 -8 6 -13v-211c0 -37 8 -66 24 -84c15 -20 37 -29 66 -29c15 0 29 2 42 5c13 4 24 9 33 15s17 12 23 17c8 5 13 10 16 14l5 6v267c0 5 2 10 5 13c4 4 9 6 14 6h31c5 0 10 -2 13 -6c4 -4 6 -8 6 -13
v-362c0 -5 -2 -10 -6 -13c-4 -4 -8 -6 -13 -6h-19c-9 0 -15 6 -18 17l-7 26l-5 -5c-3 -3 -8 -7 -17 -13s-18 -11 -27 -16s-21 -9 -36 -13s-30 -6 -45 -6c-103 0 -155 60 -155 181zM315 559l-161 67c-4 1 -6 4 -8 8c0 5 0 9 2 13l18 36c3 4 7 6 13 7c6 0 10 -1 13 -4l150 -84
c3 -1 6 -4 6 -8c2 -3 1 -7 0 -11l-10 -22c-2 -4 -5 -6 -8 -6s-8 1 -15 4z" />
    <glyph glyph-name="uacute" unicode="&#xfa;" horiz-adv-x="485" 
d="M66 171v210c0 5 2 10 6 13c4 4 8 6 13 6h32c5 0 10 -2 13 -6c4 -4 6 -8 6 -13v-211c0 -37 8 -66 24 -84c15 -20 37 -29 66 -29c15 0 29 2 42 5c13 4 24 9 33 15s17 12 23 17c8 5 13 10 16 14l5 6v267c0 5 2 10 5 13c4 4 9 6 14 6h31c5 0 10 -2 13 -6c4 -4 6 -8 6 -13
v-362c0 -5 -2 -10 -6 -13c-4 -4 -8 -6 -13 -6h-19c-9 0 -15 6 -18 17l-7 26l-5 -5c-3 -3 -8 -7 -17 -13s-18 -11 -27 -16s-21 -9 -36 -13s-30 -6 -45 -6c-103 0 -155 60 -155 181zM157 561l-10 22c-1 4 -1 8 -1 11c2 4 4 7 7 8l150 84c3 3 7 4 13 4c7 -1 11 -3 13 -7l18 -36
c2 -4 3 -8 1 -13c0 -4 -3 -7 -7 -8l-161 -67c-7 -3 -12 -4 -15 -4s-6 2 -8 6z" />
    <glyph glyph-name="ucircumflex" unicode="&#xfb;" horiz-adv-x="485" 
d="M66 171v210c0 5 2 10 6 13c4 4 8 6 13 6h32c5 0 10 -2 13 -6c4 -4 6 -8 6 -13v-211c0 -37 8 -66 24 -84c15 -20 37 -29 66 -29c15 0 29 2 42 5c13 4 24 9 33 15s17 12 23 17c8 5 13 10 16 14l5 6v267c0 5 2 10 5 13c4 4 9 6 14 6h31c5 0 10 -2 13 -6c4 -4 6 -8 6 -13
v-362c0 -5 -2 -10 -6 -13c-4 -4 -8 -6 -13 -6h-19c-9 0 -15 6 -18 17l-7 26l-5 -5c-3 -3 -8 -7 -17 -13s-18 -11 -27 -16s-21 -9 -36 -13s-30 -6 -45 -6c-103 0 -155 60 -155 181zM121 555l-14 18c-2 4 -2 7 -1 11c1 2 4 5 7 8l120 94c4 3 8 4 13 4s9 -1 13 -4l120 -94
c3 -3 6 -6 7 -9s1 -7 -1 -10c-1 -1 -3 -4 -5 -8s-4 -7 -6 -9c-2 -3 -4 -5 -7 -7s-6 -3 -9 -3c-3 1 -7 2 -10 5l-102 70l-102 -68c-10 -7 -18 -6 -23 2z" />
    <glyph glyph-name="udieresis" unicode="&#xfc;" horiz-adv-x="485" 
d="M66 171v210c0 5 2 10 6 13c4 4 8 6 13 6h32c5 0 10 -2 13 -6c4 -4 6 -8 6 -13v-211c0 -37 8 -66 24 -84c15 -20 37 -29 66 -29c15 0 29 2 42 5c13 4 24 9 33 15s17 12 23 17c8 5 13 10 16 14l5 6v267c0 5 2 10 5 13c4 4 9 6 14 6h31c5 0 10 -2 13 -6c4 -4 6 -8 6 -13
v-362c0 -5 -2 -10 -6 -13c-4 -4 -8 -6 -13 -6h-19c-9 0 -15 6 -18 17l-7 26l-5 -5c-3 -3 -8 -7 -17 -13s-18 -11 -27 -16s-21 -9 -36 -13s-30 -6 -45 -6c-103 0 -155 60 -155 181zM146 680c13 0 25 -5 34 -14s14 -21 14 -34s-5 -24 -14 -34c-9 -8 -21 -13 -34 -13
s-25 5 -33 13c-10 10 -14 21 -14 34s5 25 14 34s20 14 33 14zM373 598c-9 -9 -21 -13 -34 -13s-24 5 -34 13c-8 10 -13 21 -13 34s5 25 13 34c10 9 21 14 34 14s25 -5 34 -14s14 -21 14 -34s-5 -25 -14 -34z" />
    <glyph glyph-name="yacute" unicode="&#xfd;" horiz-adv-x="466" 
d="M200 1l-186 377c-3 7 -3 12 0 16s8 6 15 6h44c8 0 14 -4 17 -11l148 -306h1l140 306c4 7 10 11 17 11h38c8 0 13 -2 16 -6c3 -5 2 -10 -1 -17l-307 -665c-4 -8 -10 -12 -17 -12h-37c-8 0 -14 2 -16 7c-4 5 -3 11 0 18zM148 561l-10 22c-1 4 -1 8 -1 11c2 4 4 7 7 8
l150 84c3 3 7 4 13 4c7 -1 11 -3 13 -7l18 -36c2 -4 3 -8 1 -13c0 -4 -3 -7 -7 -8l-161 -67c-7 -3 -12 -4 -15 -4s-6 2 -8 6z" />
    <glyph glyph-name="thorn" unicode="&#xfe;" 
d="M141 23v-304c0 -5 -2 -10 -5 -13c-4 -4 -9 -6 -14 -6h-31c-5 0 -10 2 -13 6c-4 4 -6 8 -6 13v962c0 5 2 10 6 13c4 4 8 6 13 6h31c5 0 10 -2 14 -6c3 -4 5 -8 5 -13v-309c1 1 3 3 5 4c1 1 6 4 13 9s15 9 23 12c7 3 17 6 30 9s26 4 39 4c56 0 101 -20 137 -61
c34 -41 52 -91 52 -150s-18 -108 -55 -149c-37 -40 -82 -60 -137 -60c-20 0 -39 3 -56 8c-18 5 -31 11 -39 17zM142 92c3 -3 7 -6 13 -10s17 -9 34 -16c17 -6 33 -9 50 -9c38 0 69 14 94 41c25 28 37 62 37 102c0 41 -11 76 -32 104c-22 29 -53 43 -94 43
c-12 0 -24 -2 -35 -5s-21 -8 -29 -12c-8 -6 -15 -10 -21 -15s-10 -9 -13 -12l-4 -5v-206z" />
    <glyph glyph-name="ydieresis" unicode="&#xff;" horiz-adv-x="466" 
d="M200 1l-186 377c-3 7 -3 12 0 16s8 6 15 6h44c8 0 14 -4 17 -11l148 -306h1l140 306c4 7 10 11 17 11h38c8 0 13 -2 16 -6c3 -5 2 -10 -1 -17l-307 -665c-4 -8 -10 -12 -17 -12h-37c-8 0 -14 2 -16 7c-4 5 -3 11 0 18zM141 680c13 0 25 -5 34 -14s14 -21 14 -34
s-5 -24 -14 -34c-9 -8 -21 -13 -34 -13s-25 5 -33 13c-10 10 -14 21 -14 34s5 25 14 34s20 14 33 14zM368 598c-9 -9 -21 -13 -34 -13s-24 5 -34 13c-8 10 -13 21 -13 34s5 25 13 34c10 9 21 14 34 14s25 -5 34 -14s14 -21 14 -34s-5 -25 -14 -34z" />
    <glyph glyph-name="dotlessi" unicode="&#x131;" horiz-adv-x="211" 
d="M71 19v362c0 5 2 10 5 13c4 4 9 6 14 6h31c5 0 10 -2 13 -6c4 -4 6 -8 6 -13v-362c0 -5 -2 -10 -6 -13c-4 -4 -8 -6 -13 -6h-31c-5 0 -10 2 -14 6c-3 3 -5 8 -5 13z" />
    <glyph glyph-name="OE" unicode="&#x152;" horiz-adv-x="967" 
d="M410 710c13 0 27 -1 42 -2c13 -3 24 -5 32 -6l12 -2h394c5 0 10 -2 14 -6c3 -4 5 -8 5 -13v-29c0 -5 -2 -10 -5 -14c-4 -3 -9 -5 -14 -5h-336v-244h287c5 0 10 -2 13 -5c4 -4 6 -9 6 -14v-29c0 -5 -2 -10 -6 -13c-4 -4 -8 -6 -13 -6h-287v-255h336c5 0 10 -2 14 -5
c3 -4 5 -9 5 -14v-29c0 -5 -2 -10 -5 -13c-4 -4 -9 -6 -14 -6h-394c-27 -7 -56 -10 -86 -10c-65 0 -126 16 -181 48s-99 75 -131 130c-31 55 -47 115 -47 181s16 127 47 182c32 55 76 99 131 131s116 48 181 48zM410 60c24 0 46 2 67 7v564c-23 5 -46 8 -67 8
c-39 0 -76 -8 -112 -23c-36 -16 -67 -37 -92 -62c-26 -26 -47 -57 -62 -92c-15 -36 -23 -74 -23 -113s8 -77 23 -112s36 -66 62 -92c25 -26 56 -47 92 -62s73 -23 112 -23z" />
    <glyph glyph-name="oe" unicode="&#x153;" horiz-adv-x="779" 
d="M41 202c0 57 19 106 57 147c39 41 86 61 141 61c32 0 62 -8 91 -23c28 -15 51 -36 69 -63c18 27 41 48 68 63s58 23 93 23c51 0 94 -17 128 -51c36 -34 53 -78 53 -132c0 -9 -1 -18 -2 -27c0 -5 -2 -10 -5 -12c-4 -4 -8 -5 -13 -5h-286c5 -35 20 -65 45 -91
c25 -25 54 -38 87 -38c35 0 68 10 99 29c1 0 2 1 4 2c5 3 8 5 10 5c2 2 4 2 6 1c3 -1 5 -3 8 -6l17 -23c4 -5 6 -10 6 -13s-3 -8 -10 -13c-15 -12 -35 -23 -61 -32c-27 -9 -55 -14 -86 -14c-34 0 -65 8 -92 23c-28 15 -51 36 -69 63c-19 -27 -42 -48 -69 -63
c-28 -15 -58 -23 -91 -23c-55 0 -101 21 -140 62c-39 42 -58 92 -58 150zM436 238h237c-1 31 -13 56 -35 77c-21 21 -47 31 -78 31c-33 0 -61 -10 -84 -30c-23 -21 -36 -47 -40 -78zM110 202c0 -41 12 -75 37 -104s55 -43 92 -43s67 14 92 43s37 63 37 104
c0 40 -12 74 -37 101s-55 41 -92 41s-67 -14 -92 -41s-37 -61 -37 -101z" />
    <glyph glyph-name="Ydieresis" unicode="&#x178;" horiz-adv-x="565" 
d="M341 839c0 13 5 25 13 34c10 9 21 14 34 14s25 -5 34 -14s14 -21 14 -34s-5 -25 -14 -33c-9 -10 -21 -14 -34 -14s-24 5 -34 14c-8 9 -13 20 -13 33zM130 839c0 13 5 25 14 34s20 14 33 14s25 -5 34 -14s14 -21 14 -34s-5 -25 -14 -33c-9 -10 -21 -14 -34 -14
s-25 5 -33 14c-10 9 -14 20 -14 33zM243 19v318l-241 334c-4 7 -4 13 -1 19c3 7 9 10 17 10h47c6 0 11 -3 16 -9l202 -279l202 279c5 6 10 9 16 9h47c8 0 14 -3 17 -10c3 -6 3 -12 -1 -19l-244 -333v-319c0 -5 -2 -10 -6 -13c-4 -4 -8 -6 -13 -6h-39c-5 0 -10 2 -14 6
c-3 3 -5 8 -5 13z" />
    <glyph glyph-name="circumflex" unicode="&#x2c6;" horiz-adv-x="373" 
d="M60 555l-14 18c-2 4 -2 7 -1 11c1 2 4 5 7 8l120 94c4 3 8 4 13 4s9 -1 13 -4l120 -94c3 -3 6 -6 7 -9s1 -7 -1 -10c-1 -1 -3 -4 -5 -8s-4 -7 -6 -9c-2 -3 -4 -5 -7 -7s-6 -3 -9 -3c-3 1 -7 2 -10 5l-102 70l-102 -68c-10 -7 -18 -6 -23 2z" />
    <glyph glyph-name="ring" unicode="&#x2da;" horiz-adv-x="290" 
d="M145 492c-31 0 -57 10 -77 32c-22 20 -32 46 -32 77s10 57 32 77c20 22 46 32 77 32c30 0 56 -11 77 -32s32 -47 32 -77s-11 -56 -32 -77s-47 -32 -77 -32zM102 558c13 -12 27 -18 43 -18s30 6 41 18c12 13 18 27 18 43s-6 30 -18 41c-11 12 -25 18 -41 18
s-30 -6 -43 -18c-12 -11 -18 -25 -18 -41s6 -30 18 -43z" />
    <glyph glyph-name="tilde" unicode="&#x2dc;" horiz-adv-x="380" 
d="M64 575l-18 9c-7 4 -9 11 -4 22l6 15c4 10 8 18 12 23c3 5 8 12 16 21c6 9 15 15 25 19s21 6 33 6c11 0 21 -2 31 -8c10 -4 18 -11 25 -18s13 -15 19 -22s12 -14 18 -18c6 -6 12 -8 17 -8c20 0 35 17 45 51c3 11 11 13 23 8l16 -8c2 -1 4 -3 4 -4c2 -1 2 -3 3 -3
c1 -2 1 -3 1 -6c-1 -2 -1 -4 -2 -4l-1 -5c-1 -2 -1 -3 -1 -4c-19 -54 -48 -81 -89 -81c-12 0 -24 4 -36 12s-22 17 -29 26c-8 9 -16 18 -24 26c-8 7 -15 11 -21 11c-7 0 -13 -1 -17 -5c-6 -2 -10 -7 -13 -13s-6 -11 -8 -15s-4 -10 -6 -17c-1 -5 -4 -9 -9 -11
c-4 -2 -9 -2 -16 1z" />
    <glyph glyph-name="endash" unicode="&#x2013;" horiz-adv-x="577" 
d="M104 223c-5 0 -10 2 -14 5c-3 4 -5 8 -5 13v11c0 5 2 10 5 14c4 3 9 5 14 5h369c5 0 10 -2 13 -5c4 -4 6 -9 6 -14v-11c0 -5 -2 -10 -6 -13c-3 -3 -8 -5 -13 -5h-369z" />
    <glyph glyph-name="emdash" unicode="&#x2014;" horiz-adv-x="797" 
d="M104 223c-5 0 -10 2 -14 5c-3 4 -5 8 -5 13v11c0 5 2 10 5 14c4 3 9 5 14 5h589c5 0 10 -2 13 -5c4 -4 6 -9 6 -14v-11c0 -5 -2 -10 -6 -13c-3 -3 -8 -5 -13 -5h-589z" />
    <glyph glyph-name="quoteleft" unicode="&#x2018;" horiz-adv-x="204" 
d="M104 427c-19 0 -34 7 -47 21c-13 13 -19 36 -19 69c0 37 9 73 26 106c18 33 37 60 58 79c9 8 17 9 24 2l14 -14c3 -3 4 -6 2 -11c0 -5 -3 -9 -8 -13c-41 -37 -62 -79 -62 -126c3 1 7 1 12 1c15 0 29 -6 40 -17s17 -25 17 -40c0 -16 -5 -30 -17 -40
c-10 -12 -24 -17 -40 -17z" />
    <glyph glyph-name="quoteright" unicode="&#x2019;" horiz-adv-x="202" 
d="M46 654c0 16 6 30 16 40c12 12 25 17 41 17c19 0 34 -7 47 -20s19 -37 19 -70c0 -37 -9 -73 -27 -106c-17 -33 -36 -60 -57 -79c-9 -8 -17 -9 -24 -2l-14 14c-3 3 -3 6 -3 10c2 5 4 9 9 14c41 37 62 79 62 126c-3 -1 -7 -1 -12 -1c-15 0 -29 6 -40 17s-17 25 -17 40z" />
    <glyph glyph-name="quotedblleft" unicode="&#x201c;" horiz-adv-x="384" 
d="M104 429c-19 0 -34 7 -47 21c-13 13 -19 36 -19 69c0 37 9 73 26 106c18 33 37 60 58 79c9 8 17 9 24 2l14 -14c3 -3 4 -6 2 -11c0 -5 -3 -9 -8 -13c-41 -37 -62 -79 -62 -126c3 1 7 1 12 1c15 0 29 -6 40 -17s17 -25 17 -40c0 -16 -5 -30 -17 -40
c-10 -12 -24 -17 -40 -17zM284 429c-19 0 -34 7 -47 21c-13 13 -19 36 -19 69c0 37 9 73 26 106c18 33 37 60 58 79c9 8 17 9 24 2l14 -14c3 -3 4 -6 2 -11c0 -5 -3 -9 -8 -13c-41 -37 -62 -79 -62 -126c3 1 7 1 12 1c15 0 29 -6 40 -17s17 -25 17 -40c0 -16 -5 -30 -17 -40
c-10 -12 -24 -17 -40 -17z" />
    <glyph glyph-name="quotedblright" unicode="&#x201d;" horiz-adv-x="382" 
d="M46 654c0 16 6 30 16 40c12 12 25 17 41 17c19 0 34 -7 47 -20s19 -37 19 -70c0 -37 -9 -73 -27 -106c-17 -33 -36 -60 -57 -79c-9 -8 -17 -9 -24 -2l-14 14c-3 3 -3 6 -3 10c2 5 4 9 9 14c41 37 62 79 62 126c-3 -1 -7 -1 -12 -1c-15 0 -29 6 -40 17s-17 25 -17 40z
M225 654c0 16 5 30 17 40c10 12 24 17 40 17c19 0 34 -7 47 -20s19 -37 19 -70c0 -37 -9 -73 -26 -106c-18 -33 -37 -60 -58 -79c-9 -8 -17 -9 -24 -2l-14 14c-3 3 -4 6 -2 10c0 5 3 9 8 14c41 37 62 79 62 126c-3 -1 -7 -1 -12 -1c-15 0 -29 6 -40 17s-17 25 -17 40z" />
    <glyph glyph-name="quotedblbase" unicode="&#x201e;" horiz-adv-x="413" 
d="M55 47c0 16 5 29 17 41c10 10 24 16 40 16c19 0 34 -7 47 -20s19 -37 19 -70c0 -37 -9 -73 -26 -106c-18 -33 -37 -60 -58 -79c-9 -8 -17 -9 -24 -2l-14 14c-3 3 -4 6 -2 11c0 4 3 8 8 13c41 37 62 79 62 126c-3 -1 -7 -1 -12 -1c-15 0 -29 6 -40 17s-17 25 -17 40z
M235 47c0 16 5 29 17 41c10 10 24 16 40 16c19 0 34 -7 47 -20s19 -37 19 -70c0 -37 -9 -73 -26 -106c-18 -33 -37 -60 -58 -79c-9 -8 -17 -9 -24 -2l-14 14c-3 3 -4 6 -2 11c0 4 3 8 8 13c41 37 62 79 62 126c-3 -1 -7 -1 -12 -1c-15 0 -29 6 -40 17s-17 25 -17 40z" />
    <glyph glyph-name="bullet" unicode="&#x2022;" horiz-adv-x="354" 
d="M175 119c-29 0 -53 10 -74 31s-31 45 -31 74c0 30 10 56 31 77s45 32 74 32c30 0 56 -11 77 -32s32 -47 32 -77c0 -29 -11 -53 -32 -74s-47 -31 -77 -31z" />
    <glyph glyph-name="ellipsis" unicode="&#x2026;" horiz-adv-x="624" 
d="M60 47c0 16 6 29 17 41c11 10 25 16 40 16c16 0 29 -6 41 -16c10 -12 16 -25 16 -41s-6 -29 -16 -41c-12 -10 -25 -16 -41 -16c-15 0 -29 6 -40 17s-17 25 -17 40zM253 47c0 16 6 29 17 41c11 10 25 16 40 16c16 0 30 -6 40 -16c12 -12 17 -25 17 -41s-5 -29 -17 -41
c-10 -10 -24 -16 -40 -16c-15 0 -29 6 -40 17s-17 25 -17 40zM450 47c0 16 6 29 17 41c11 10 25 16 40 16c16 0 29 -6 41 -16c10 -12 16 -25 16 -41s-6 -29 -16 -41c-12 -10 -25 -16 -41 -16c-15 0 -29 6 -40 17s-17 25 -17 40z" />
    <glyph glyph-name="guilsinglleft" unicode="&#x2039;" horiz-adv-x="252" 
d="M145 39l-104 155c-5 8 -5 16 0 24l109 148c5 8 11 12 18 12h14c8 0 14 -3 16 -10c4 -6 3 -13 -1 -21l-74 -139l71 -147c4 -8 5 -15 2 -21s-8 -9 -17 -9h-19c-6 0 -11 3 -15 8z" />
    <glyph glyph-name="guilsinglright" unicode="&#x203a;" horiz-adv-x="252" 
d="M72 31c-8 0 -13 3 -16 9s-2 13 1 21l71 147l-74 139c-4 8 -5 15 -2 21c3 7 8 10 17 10h14c7 0 13 -4 18 -12l109 -148c5 -8 5 -16 0 -24l-104 -155c-4 -5 -9 -8 -15 -8h-19z" />
    <glyph glyph-name="fraction" unicode="&#x2044;" horiz-adv-x="119" 
d="M-79 10c-3 -7 -9 -10 -17 -10h-14c-8 0 -14 3 -17 9s-3 12 0 18l343 663c4 7 10 10 17 10h16c8 0 14 -3 17 -9s3 -12 0 -18z" />
    <glyph glyph-name="foursuperior" unicode="&#x2074;" horiz-adv-x="361" 
d="M219 504c-3 0 -5 1 -7 3s-3 4 -3 6v50h-150c-3 0 -5 1 -7 3c-1 1 -2 3 -2 6v29l172 196c2 2 5 3 8 3h21c3 0 5 -1 7 -3s3 -4 3 -6v-185h41c3 0 5 -1 6 -2c2 -2 3 -4 3 -6v-26c0 -2 -1 -4 -3 -6c-1 -1 -3 -2 -6 -2h-41v-51c0 -3 -1 -5 -3 -7c-2 -1 -4 -2 -7 -2h-32z
M105 607h106v118z" />
    <glyph glyph-name="Euro" unicode="&#x20ac;" horiz-adv-x="731" 
d="M38 253c-5 0 -10 2 -13 5c-3 4 -5 9 -5 14v7c0 5 2 10 5 13c3 4 8 6 13 6h40c-2 16 -3 33 -3 51c0 11 0 19 1 24h-38c-5 0 -10 2 -13 5c-3 4 -5 9 -5 14v7c0 5 2 10 5 13c3 4 8 6 13 6h43c11 55 33 105 67 150c33 44 75 79 126 104c50 25 104 38 162 38
c48 0 91 -8 130 -24c39 -15 76 -38 112 -69c4 -4 6 -9 6 -14c1 -5 -1 -10 -5 -14l-24 -24c-5 -5 -10 -7 -16 -7s-12 3 -17 8c-25 23 -53 41 -86 54c-33 12 -66 18 -101 18c-67 0 -125 -21 -175 -62c-49 -42 -81 -95 -96 -158h281c5 0 10 -2 13 -6c4 -4 6 -8 6 -13v-8
c0 -5 -2 -10 -6 -13c-3 -3 -8 -5 -13 -5h-288c-1 -5 -1 -13 -1 -23c0 -20 1 -37 4 -52h245c5 0 10 -2 13 -6c4 -4 6 -8 6 -13v-8c0 -5 -2 -10 -6 -13c-3 -3 -8 -5 -13 -5h-233c19 -56 53 -102 100 -137c48 -35 102 -53 163 -53c21 0 40 2 58 5c18 4 35 10 51 19
c17 9 30 17 42 24l41 29c8 7 16 8 24 3l29 -29c4 -3 6 -8 5 -14c-1 -5 -3 -10 -6 -13c-67 -65 -148 -97 -243 -97c-83 0 -156 24 -220 74c-64 49 -107 112 -128 189h-50z" />
    <glyph glyph-name="trademark" unicode="&#x2122;" horiz-adv-x="721" 
d="M331 398c-7 0 -12 2 -15 7c-4 5 -5 10 -4 16l52 269c1 4 4 8 7 10c3 4 7 5 12 5h4c3 0 6 -1 9 -3c4 -3 7 -5 8 -8l81 -212l82 212c1 3 4 5 7 8c4 2 7 3 10 3h4c4 0 8 -1 12 -5c4 -2 6 -6 7 -10l53 -270c1 -6 0 -11 -4 -16c-4 -4 -9 -6 -15 -6h-12c-4 0 -8 2 -11 5
c-4 3 -7 7 -8 12l-34 165l-72 -176c-1 -3 -4 -5 -7 -6c-3 -2 -6 -3 -9 -3h-6c-3 0 -6 1 -10 3s-6 4 -7 7l-70 175l-35 -166c-1 -4 -4 -8 -8 -11c-3 -3 -7 -5 -11 -5h-10zM158 398c-5 0 -10 2 -14 6c-3 4 -5 8 -5 13v234h-70c-5 0 -10 2 -13 5c-4 4 -6 9 -6 14v11
c0 5 2 10 6 13c4 4 8 6 13 6h191c5 0 10 -2 14 -6c3 -4 5 -8 5 -13v-11c0 -5 -2 -10 -5 -14c-4 -3 -9 -5 -14 -5h-70v-234c0 -5 -2 -10 -6 -13c-4 -4 -8 -6 -13 -6h-13z" />
    <glyph glyph-name="minus" unicode="&#x2212;" horiz-adv-x="518" 
d="M69 314c-5 0 -10 2 -13 6c-4 4 -6 8 -6 13v28c0 5 2 10 6 13c4 4 8 6 13 6h381c5 0 10 -2 13 -6s5 -8 5 -13v-28c0 -5 -2 -10 -5 -13c-3 -4 -8 -6 -13 -6h-381z" />
    <glyph glyph-name="dieresis.cap" horiz-adv-x="474" 
d="M295 839c0 13 5 25 13 34c10 9 21 14 34 14s25 -5 34 -14s14 -21 14 -34s-5 -25 -14 -33c-9 -10 -21 -14 -34 -14s-24 5 -34 14c-8 9 -13 20 -13 33zM84 839c0 13 5 25 14 34s20 14 33 14s25 -5 34 -14s14 -21 14 -34s-5 -25 -14 -33c-9 -10 -21 -14 -34 -14
s-25 5 -33 14c-10 9 -14 20 -14 33z" />
  </font>
</defs>
</svg>
