<?xml version="1.0" standalone="no"?>
<!DOCTYPE svg PUBLIC "-//W3C//DTD SVG 1.1//EN" "http://www.w3.org/Graphics/SVG/1.1/DTD/svg11.dtd" >
<svg>
<metadata>
Created by FontForge 20090914 at Mon Sep 23 12:03:18 2013
 By www-data
URW Software, Copyright 1997 by URW
</metadata>
<defs>
<font id="Canalp-BoldItal" horiz-adv-x="1624" vert-adv-y="2048" >
  <font-face 
    font-family="Canal+"
    font-weight="700"
    font-style="italic"
    font-stretch="normal"
    units-per-em="2048"
    panose-1="0 0 0 0 0 0 0 0 0 0"
    ascent="1473"
    descent="-575"
    x-height="1036"
    cap-height="1536"
    bbox="-274.001 -575 10201 2015"
    underline-thickness="252"
    underline-position="-113"
    unicode-range="U+0020-U+F002"
  />
<missing-glyph horiz-adv-x="575" vert-adv-y="2457" 
d="M58 0v1536h459v-1536h-459zM459 58v1420h-343v-1420h343z" />
    <glyph glyph-name=".notdef" horiz-adv-x="575" vert-adv-y="2457" 
d="M58 0v1536h459v-1536h-459zM459 58v1420h-343v-1420h343z" />
    <glyph glyph-name="space" unicode=" " horiz-adv-x="575" vert-adv-y="2457" 
 />
    <glyph glyph-name="exclam" unicode="!" horiz-adv-x="782" vert-adv-y="2457" 
d="M392 432c66.667 0 123.001 -23.333 169.001 -70c45.333 -46 68 -101.667 68 -167c0 -66 -23.333 -122 -70 -168c-46 -46.667 -102 -70 -168 -70c-65.333 0 -121.333 23 -168 69c-46 46 -69 102 -69 168s23 122.333 69 169c45.333 46 101.666 69 168.999 69zM197.001 520
v1016h385v-1016h-385z" />
    <glyph glyph-name="quotedbl" unicode="&#x22;" horiz-adv-x="1036" vert-adv-y="2457" 
d="M205 1536h348l-80 -678h-237zM688 1536h348l-79 -678h-238z" />
    <glyph glyph-name="numbersign" unicode="#" horiz-adv-x="1384" vert-adv-y="2457" 
d="M1270 686l-31 -264h-227l-82 -422h-303l82 422h-168l-80 -422h-301l82 422h-211l33 264h227l37 195h-209l33 264h227l76 391h299l-76 -391h168l74 391h303l-76 -391h207l-33 -264h-221l-37 -195h207zM797 881h-168l-39 -195h168z" />
    <glyph glyph-name="dollar" unicode="$" horiz-adv-x="1384" vert-adv-y="2457" 
d="M877 1616v-96.0039c62.667 -10 114 -22.333 154 -37c38 -14 84.333 -37.333 139 -70l-152 -294c-94 66.667 -179.333 100 -256 100c-54.667 0 -99 -13.667 -133 -41c-27.333 -21.333 -41 -46.666 -41 -75.999c0 -33.333 18.667 -63.666 56 -90.999
c20.667 -16 38.667 -27.667 54 -35c1.33301 -0.666992 2.33301 -1 3 -1s2.66699 -1 6 -3c1.33301 -1.33301 11.333 -5 30 -11c4.66699 -1.33301 15 -4.66602 31 -9.99902s42.667 -13.666 80 -24.999c254 -79.333 381 -224.666 381 -435.999c0 -180.667 -75 -317 -225 -409
c-34 -20 -76.333 -37.333 -127 -52v-117h-344v88c-172.667 18.667 -314 78 -424 178l166 307c76 -64.667 141 -108 195 -130c65.333 -26.667 123 -40 173 -40c57.333 0 104 14.667 140 44c34 27.333 51 60.333 51 99c0 39.333 -19 73.666 -57 102.999
c-2 0.666992 -7.66699 3.33398 -17 8.00098c-8 4.66699 -16 8.66699 -24 12l-6 4l-2 1l-1 1c-0.666992 0 -1.33398 0.333008 -2.00098 1c-0.666992 0 -2 0.333008 -4 1l-6 2c-7.33301 2 -16.666 5 -27.999 9l-39 12l-62 19c-118.667 35.333 -208 79 -268 131
c-80.667 69.333 -121 166 -121 290c0 115.333 31.333 215.333 94 300c40 53.333 88 94.666 144 123.999c22 12 54.667 25.333 98 40v100h344z" />
    <glyph glyph-name="percent" unicode="%" horiz-adv-x="2259" vert-adv-y="2457" 
d="M1405 1536h338l-893 -1536h-338zM528 1536c131.333 0 241.334 -44.332 330.001 -132.999c83.333 -84 125 -186.333 125 -307c0 -122 -42.667 -225.333 -128 -310c-88.667 -88.667 -198.334 -133 -329.001 -133c-130 0 -239 43.667 -327 131
c-86 85.333 -129 189.666 -129 312.999c0 121.333 42 224.333 126 309c86 86.667 196.667 130 332 130zM1733 885.001c86 0 166.666 -21.666 241.999 -64.999c66.667 -38.667 119.334 -91.334 158.001 -158.001c38 -66 57 -138.333 57 -217
c0 -123.333 -43 -227.666 -129 -312.999c-88 -88 -197.333 -132 -328 -132s-240 43.667 -328 131c-86 85.333 -129 189.666 -129 312.999c0 122 42.333 225.667 127 311c86 86.667 196 130 330 130zM525 1274c-46.667 0 -86.667 -17 -120 -51
c-34.667 -34 -52 -75.667 -52 -125c0 -47.333 17 -88 51 -122c34 -34.667 75 -52 123 -52s88.667 16.667 122 50c34.667 34.667 52 76.667 52 126c0 47.333 -17 88.333 -51 123c-33.333 34 -75 51 -125 51zM1731 621.002c-47.333 0 -88 -17 -122 -51
c-33.333 -34 -50 -75 -50 -123c0 -48.667 17 -90 51 -124s75 -51 123 -51s89 17 123 51s51 75 51 123s-17 89.333 -51 124c-33.333 34 -75 51 -125 51z" />
    <glyph glyph-name="ampersand" unicode="&#x26;" horiz-adv-x="1788" vert-adv-y="2457" 
d="M1018 788l196.999 -200.001l31 29l156 143l34 31l217 -220l-225 -206l344 -365h-496l-135 139c-106.667 -66 -196 -110.667 -268 -134c-94 -30.667 -177.333 -46 -250 -46c-162.667 0 -290 46.333 -382 139c-78.667 78.667 -118 177.334 -118 296.001
c0 111.333 34.333 206.333 103 285c28 32 61.667 60 101 84c26.667 16 69 37.667 127 65l36 18c-65.333 79.333 -106 137.333 -122 174c-14.667 35.333 -22 79.666 -22 132.999c0 112 38.667 207 116 285c92 92.667 213 139 363 139s271.333 -46 364 -138
c77.333 -77.333 116 -171.333 116 -282c0 -95.333 -33.333 -176 -100 -242c-29.333 -29.333 -91.666 -71.666 -186.999 -126.999zM921.999 382.999l-241.999 257.999c-54.667 -38 -90.334 -66.333 -107.001 -85c-25.333 -29.333 -38 -60.666 -38 -93.999
c0 -54.667 23 -95 69 -121c33.333 -18.667 72.333 -28 117 -28c63.333 0 130.333 23.333 201 70zM846 974.998c48.667 31.333 82.999 59.001 102.999 83.001c27.333 30.667 41 65.667 41 105c0 42.667 -13.667 77.667 -41 105c-25.333 26 -57 39 -95 39
s-68.667 -11.667 -92 -35c-24.667 -24.667 -37 -58.667 -37 -102c0 -24 11.333 -53.667 34 -89c22 -35.333 44 -63.333 66 -84c2 -0.666992 4 -2.33398 6 -5.00098c0 -0.666992 0.333008 -1 1 -1v-1c0.666992 -1.33301 1.66699 -2.33301 3 -3l2 -1
c0 -0.666992 0.333008 -1 1 -1l3 -3c0.666992 -0.666992 1.33398 -1.66699 2.00098 -3h1v-1l1 -1z" />
    <glyph glyph-name="quotesingle" unicode="'" horiz-adv-x="621" vert-adv-y="2457" 
d="M621 1536l-121 -653h-254l59 653h316z" />
    <glyph glyph-name="parenleft" unicode="(" horiz-adv-x="788" vert-adv-y="2457" 
d="M395 1866l269.998 -126.999c-73.333 -138 -123.666 -255 -150.999 -351c-56 -196.667 -84 -395.667 -84 -597c0 -246 37.333 -480.333 112 -703c24 -72 65 -159.333 123 -262l-270 -127l-51 78c-36.667 61.333 -67 120.666 -91 177.999
c-41.333 101.333 -75.666 223 -102.999 365c-32 165.333 -48 326.333 -48 483c0 246.667 40.333 486.667 121 720c32.667 94.667 90 209 172 343z" />
    <glyph glyph-name="parenright" unicode=")" horiz-adv-x="788" vert-adv-y="2457" 
d="M391 -301l-267.999 127.001c73.333 138.667 123.666 255.667 150.999 351c54.667 189.333 82 387.333 82 594c0 236.667 -36 467.667 -108 693c-24 76.667 -65.667 168.334 -125 275.001l268 127c14.667 -21.333 27 -40 37 -56c43.333 -67.333 78.333 -133 105 -197
c42 -101.333 76.667 -223 104 -365c32.667 -170.667 49 -333.334 49 -488.001c0 -231.333 -39 -466 -117 -704c-20.667 -62.667 -45.667 -122.334 -75 -179.001c-20 -38.667 -54.333 -98 -103 -178z" />
    <glyph glyph-name="asterisk" unicode="*" horiz-adv-x="934" vert-adv-y="2457" 
d="M340 1268l12 245l213 -24l-47 -242l236 64l41 -209l-242 -29l133 -205l-186 -104l-105 221l-151 -188l-158 143l182 168l-231 88l90 193z" />
    <glyph glyph-name="plus" unicode="+" horiz-adv-x="2410" vert-adv-y="2457" 
d="M1438 579v-550c0 -19.333 -7 -29 -21 -29h-420c-14.667 -0 -22 8.33301 -22 25v550c0 20.667 -9 31 -27 31h-544c-16.667 0 -25 9.66699 -25 29v417c0 16.667 7.66699 25 23 25h548c16.667 0 25 9 25 27v473c-0.666992 13.333 6 20 20 20h418
c16.667 0 25 -6.66699 25 -20v-473c0 -10 1 -16.667 3 -20c2.66699 -4.66699 9 -7 19 -7h549c15.333 0 23 -9 23 -27v-419c0 -16.667 -7.66699 -25 -23 -25h-542c-12.667 0 -20.667 -2 -24 -6c-3.33301 -3.33301 -5 -10.333 -5 -21z" />
    <glyph glyph-name="comma" unicode="," horiz-adv-x="485" vert-adv-y="2457" 
d="M424 391l-141 -681h-283l74 681h350z" />
    <glyph glyph-name="hyphen" unicode="-" horiz-adv-x="518" vert-adv-y="2457" 
d="M0 620h518v-272h-518v272z" />
    <glyph glyph-name="period" unicode="." horiz-adv-x="698" vert-adv-y="2457" 
d="M352 434c64.667 0 119.999 -23.332 165.999 -69.999c46.667 -46 70 -102 70 -168s-23.333 -122.333 -70 -169s-103 -70 -169 -70c-65.333 0 -121.666 23.333 -168.999 70c-46 46 -69 101.333 -69 166c0 67.333 23.667 124.666 71 171.999c46 46 102.667 69 170 69z" />
    <glyph glyph-name="slash" unicode="/" horiz-adv-x="1331" vert-adv-y="2457" 
d="M928 1802h383l-840 -2038h-383z" />
    <glyph glyph-name="zero" unicode="0" vert-adv-y="2457" 
d="M815 1593c141.333 0 265.669 -43.334 373.002 -130.001c82 -66.667 146.333 -154 193 -262c54.667 -127.333 82 -272.333 82 -435c0 -247.333 -60.333 -447 -181 -599c-118.667 -149.333 -275.334 -224 -470.001 -224c-207.333 0 -371.333 84.333 -492 253
c-106.667 148.667 -160 338.334 -160 569.001c0 284 78 504.333 234 661c111.333 111.333 251.666 167 420.999 167zM813.003 1237c-78 0 -139.333 -38.332 -184 -114.999c-48 -82.667 -72 -201 -72 -355c0 -128 17 -232.333 51 -313c45.333 -107.333 114 -161 206 -161
c76.667 0 136.667 37.667 180 113c48 84 72 203.333 72 358c0 155.333 -23.667 275.666 -71 360.999c-41.333 74.667 -102 112 -182 112z" />
    <glyph glyph-name="one" unicode="1" vert-adv-y="2457" 
d="M340 1198h-217v338h616v-1536h-399v1198z" />
    <glyph glyph-name="two" unicode="2" vert-adv-y="2457" 
d="M158 1008c6.66699 98.667 19.668 174.336 39.001 227.003c41.333 107.333 106 192.666 194 255.999c101.333 72.667 222 109 362 109c178.667 0 324.334 -55.667 437.001 -167c104 -102.667 156 -231.334 156 -386.001c0 -81.333 -16.333 -156.666 -49 -225.999
c-33.333 -68.667 -93 -149.667 -179 -243l-221 -240h465v-338h-1233l389 408c60.667 63.333 118.667 129.333 174 198c62.667 77.333 108.667 137.666 138 180.999c68 102.667 102 193.667 102 273c0 60.667 -19.667 111 -59 151c-34.667 34 -75.334 51 -122.001 51
c-58.667 0 -104.334 -23 -137.001 -69c-26 -36.667 -39.667 -98.334 -41 -185.001h-415z" />
    <glyph glyph-name="three" unicode="3" vert-adv-y="2457" 
d="M688 676v267.999h4h18c130 0 195 53.333 195 160c0 54.667 -16 96.667 -48 126c-26.667 24.667 -62.667 37 -108 37c-102.667 0 -159.334 -60 -170.001 -180h-366c12.667 91.333 31.334 163 56.001 215c92 192.667 258 289 498 289
c164.667 0 293.334 -46.333 386.001 -139c80.667 -80.667 121 -184 121 -310c0 -134 -55.333 -238.333 -166 -313c51.333 -18 89.666 -38 114.999 -60c40 -34.667 72.333 -80.667 97 -138c25.333 -60 38 -125 38 -195c0 -134.667 -45.333 -247 -136 -337
c-112 -110.667 -267.667 -166 -467 -166c-124 0 -237 30 -339 90c-89.333 52.667 -152 103.667 -188 153c-57.333 80 -90.333 185.333 -99 316h407c6.66699 -46 14.334 -79 23.001 -99c14 -34.667 39.667 -64 77 -88s78.333 -36 123 -36c57.333 0 104.666 19 141.999 57
c40 40.667 60 93.334 60 158.001c0 129.333 -76 194 -228 194h-16c-6 0 -15.667 -0.666992 -29 -2z" />
    <glyph glyph-name="four" unicode="4" vert-adv-y="2457" 
d="M1225 643h188v-328h-188v-315h-369v315h-743v256l594 965h518v-893zM856 643v543l-346 -543h346z" />
    <glyph glyph-name="five" unicode="5" vert-adv-y="2457" 
d="M1192 1198h-527.998l-27 -172c9.33301 0.666992 19 2 29 4c43.333 4 75.666 6 96.999 6c155.333 0 284.666 -51.333 387.999 -154c104 -102.667 156 -232 156 -388c0 -162.667 -55.667 -293 -167 -391c-116 -102.667 -276.667 -154 -482 -154
c-102.667 0 -203 15.333 -301 46c-54 17.333 -119.667 49 -197 95l57 340c67.333 -42.667 121 -73 161 -91c86 -37.333 165.667 -56 239 -56c92 0 163.333 25.333 214 76c41.333 40.667 62 90.667 62 150c0 74.667 -33 135.667 -99 183c-65.333 46.667 -146 70 -242 70
c-75.333 0 -172 -18 -290 -54l133 828h797v-338z" />
    <glyph glyph-name="six" unicode="6" vert-adv-y="2457" 
d="M735 1536h453l-385 -469c24.667 8 52 12 82 12c168 0 307.333 -55.333 418 -166c106.667 -106.667 160 -239.334 160 -398.001c0 -155.333 -53 -286 -159 -392c-124 -124 -290.667 -186 -500 -186c-206 0 -369.667 60.667 -491 182c-102 102 -153 227 -153 375
c0 90 20.667 186.667 62 290c41.333 102.667 98.333 202.334 171 299.001zM800 760c-68.667 0 -127.665 -24.667 -176.998 -74s-74 -109.333 -74 -180c0 -70 25 -129.667 75 -179c49.333 -50 108.666 -75 177.999 -75s128.666 25 177.999 75c50 50 75 109.667 75 179
s-24.667 129.333 -74 180c-48.667 49.333 -109 74 -181 74z" />
    <glyph glyph-name="seven" unicode="7" vert-adv-y="2457" 
d="M838 1198h-705v338h1325l-879 -1536h-440z" />
    <glyph glyph-name="eight" unicode="8" vert-adv-y="2457" 
d="M469 809c-64 31.333 -109.669 60.667 -137.002 88c-72.667 71.333 -109 156.333 -109 255c0 140.667 57 252 171 334c98.667 71.333 222 107 370 107c154.667 0 280.667 -39 378 -117c100.667 -80.667 151 -188.667 151 -324c0 -100 -37 -184.333 -111 -253
c-28 -26.667 -76.333 -56.667 -145 -90c75.333 -24 129 -48.333 161 -73c105.333 -78.667 158 -185.334 158 -320.001c0 -144 -62.667 -261 -188 -351c-111.333 -80 -248.666 -120 -411.999 -120c-175.333 0 -319 44.667 -431 134c-110 87.333 -165 201 -165 341
c0 136.667 51.333 243.334 154 320.001c30.667 22.667 82.334 45.667 155.001 69zM756.998 1310c-50.667 0 -93 -16.665 -127 -49.998c-31.333 -31.333 -47 -69 -47 -113c0 -44.667 15.667 -82.667 47 -114c34 -33.333 76.667 -50 128 -50c50.667 0 93 16.667 127 50
c32 31.333 48 69.666 48 114.999c0 43.333 -15.667 80.666 -47 111.999c-33.333 33.333 -76.333 50 -129 50zM756.998 633.003c-55.333 0 -101.335 -18.667 -138.002 -56c-32.667 -32.667 -49 -72.667 -49 -120c0 -48.667 17 -90 51 -124c36.667 -36 82.334 -54 137.001 -54
c55.333 0 101.333 18 138 54c33.333 34 50 75.333 50 124c0 48 -16.667 89 -50 123c-35.333 35.333 -81.666 53 -138.999 53z" />
    <glyph glyph-name="nine" unicode="9" vert-adv-y="2457" 
d="M887 0h-451l369 449h-16l-15 1h-53c-22.667 0 -64.667 8 -126 24c-86.667 22.667 -162.334 59 -227.001 109c-138.667 106 -208 250.667 -208 434c0 158.667 53 290.667 159 396c124 123.333 290.333 185 499 185c206 0 370.333 -61 493 -183
c101.333 -101.333 152 -225 152 -371c0 -90 -20.667 -187.667 -62 -293c-41.333 -102.667 -98.666 -202.667 -171.999 -300zM820 1281c-69.333 0 -128.999 -24.667 -178.999 -74c-48.667 -49.333 -73 -108.666 -73 -177.999c0 -70 24.667 -129.333 74 -178
c48.667 -49.333 108 -74 178 -74c71.333 0 131.666 24.667 180.999 74c48.667 48.667 73 108 73 178c0 69.333 -24.667 128.666 -74 177.999c-48.667 49.333 -108.667 74 -180 74z" />
    <glyph glyph-name="colon" unicode=":" horiz-adv-x="844" vert-adv-y="2457" 
d="M424 433c64.667 0 119.999 -23 165.999 -69c46.667 -46 70 -102 70 -168c0 -67.333 -23.333 -124 -70 -170c-46 -46 -102 -69 -168 -69c-65.333 0 -121.666 23.333 -168.999 70c-46 46 -69 101.333 -69 166c0 67.333 23.333 124.333 70 171c45.333 46 102 69 170 69z
M423.999 1120c64.667 0 119.999 -23.001 165.999 -69.001s69 -102 69 -168s-23 -122.333 -69 -169c-46.667 -46 -102.667 -69 -168 -69s-121.666 23.333 -168.999 70c-46 46 -69 101.333 -69 166c0 66.667 23.333 123.334 70 170.001c45.333 46 102 69 170 69z" />
    <glyph glyph-name="semicolon" unicode=";" horiz-adv-x="899" vert-adv-y="2457" 
d="M519 1130c64.667 0 119.999 -23.332 165.999 -69.999c46.667 -46 70 -102 70 -168c0 -66.667 -23.333 -123 -70 -169c-46.667 -46.667 -103 -70 -169 -70c-65.333 0 -121.666 23.333 -168.999 70c-46 46 -69 101.333 -69 166c0 67.333 23.667 124.666 71 171.999
c46 46 102.667 69 170 69zM603.999 391.001l-141 -681h-283l74 681h350z" />
    <glyph glyph-name="less" unicode="&#x3c;" horiz-adv-x="1255" vert-adv-y="2457" 
d="M78 403l39 246l1061 373l-49 -307l-590 -187l-2 -4l532 -186l-49 -307z" />
    <glyph glyph-name="equal" unicode="=" horiz-adv-x="2195" vert-adv-y="2457" 
d="M1700 1337v-406h-1204v406h1204zM1700 771v-406h-1204v406h1204z" />
    <glyph glyph-name="greater" unicode="&#x3e;" horiz-adv-x="1255" vert-adv-y="2457" 
d="M1178 649l-39 -246l-1061 -372l49 307l590 186v4l-530 187l49 307z" />
    <glyph glyph-name="question" unicode="?" horiz-adv-x="1282" vert-adv-y="2457" 
d="M446 520l-0.000976562 392.999c30.667 -8 57.334 -12 80.001 -12c80.667 0 146.667 20.667 198 62c48.667 38.667 73 86.334 73 143.001c0 42 -14.333 77 -43 105c-29.333 29.333 -66.666 44 -111.999 44c-84 0 -129.667 -51 -137 -153h-405
c5.33301 76.667 17.666 137 36.999 181c38 86 97.667 154.667 179 206c94.667 60 205 90 331 90c164 0 299.333 -53 406 -159c91.333 -91.333 137 -198.333 137 -321c0 -102.667 -32.333 -193 -97 -271c-40 -48 -91 -87.667 -153 -119c-23.333 -11.333 -63 -27.333 -119 -48
v-141h-375zM646.999 431.999c64.667 0 119.999 -23 165.999 -69s69 -102 69 -168s-23.333 -122 -70 -168c-46 -46.667 -101.667 -70 -167 -70s-121.666 23.333 -168.999 70c-46 46 -69 101.333 -69 166c0 67.333 23.333 124.333 70 171c45.333 45.333 102 68 170 68z" />
    <glyph glyph-name="at" unicode="@" horiz-adv-x="1794" vert-adv-y="2457" 
d="M1327 1155l-61.002 -506.006c-4 -31.333 -6 -64.333 -6 -99c0 -26.667 8 -40 24 -40c14.667 0 31 4 49 12c53.333 24 96.333 68.333 129 133s49 136.334 49 215.001c0 140.667 -49.333 260.334 -148 359.001c-112 112 -256 168 -432 168
c-177.333 0 -326.333 -60.667 -447 -182c-122 -121.333 -183 -271.666 -183 -450.999c0 -150.667 44.333 -282 133 -394c118.667 -152 290.667 -228 516 -228c132.667 0 252.334 23.667 359.001 71l73 33l15 8h1c4 2 7.66699 4 11 6c4.66699 2 8 3.66699 10 5l3 1
c4.66699 2 8 3.33301 10 4l73 -184l-12 -8l-16 -9l-13 -4l-53 -26c-124.667 -62.667 -276.667 -94 -456 -94c-182.667 0 -338.667 37 -468 111c-124.667 70.667 -223 169.334 -295 296.001c-72 126 -108 264 -108 414c0 225.333 77.667 415.666 233 570.999
c82.667 82.667 179.334 145.334 290.001 188.001c102 38.667 208.667 58 320 58c156.667 0 298.667 -36.667 426 -110c116 -66.667 205.667 -155.667 269 -267c58.667 -102.667 88 -213.667 88 -333c0 -150.667 -43.667 -281 -131 -391c-88 -110 -193 -165 -315 -165
c-72.667 0 -129.334 30.667 -170.001 92l-4 7l-13 -13c-60 -60 -137 -90 -231 -90c-97.333 0 -180.333 34.333 -249 103c-81.333 80.667 -122 187.334 -122 320.001c0 130.667 40 236 120 316c80.667 80.667 185.334 121 314.001 121c54 0 98 -11.333 132 -34
c36 -23.333 56.333 -33.666 61 -30.999l12 47h213zM1077 793.994c-6 49.333 -23.667 87.333 -53 114c-34 32 -75.667 48 -125 48c-61.333 0 -110 -25.333 -146 -76c-30 -42 -45 -93.333 -45 -154c0 -59.333 15 -107.333 45 -144c27.333 -34.667 62 -52 104 -52
c68 0 125 32 171 96c34 47.333 51 96.333 51 147v11v5c-0.666992 0.666992 -1 1.66699 -1 3z" />
    <glyph glyph-name="A" unicode="A" horiz-adv-x="1602" vert-adv-y="2457" 
d="M526 281l-129 -281h-430l760 1536h438l373 -1536h-410l-67 281h-535zM669 588l313.999 -0.000976562l-58 268c-3.33301 16.667 -8.33301 39.334 -15 68.001c-8 33.333 -17.333 88 -28 164c-0.666992 -3.33301 -3 -10 -7 -20l-3 -11l-4 -10
c-1.33301 -4 -2.66602 -8.33301 -3.99902 -13c-16 -46 -33 -89 -51 -129z" />
    <glyph glyph-name="B" unicode="B" horiz-adv-x="1403" vert-adv-y="2457" 
d="M301 1536h492c139.333 0 239.666 -13.333 300.999 -40c54.667 -24 98.334 -62.667 131.001 -116c35.333 -57.333 53 -126 53 -206c0 -119.333 -40.333 -217.333 -121 -294c-26 -24 -69.667 -51 -131 -81c76 -20.667 131.333 -43 166 -67
c79.333 -55.333 119 -143 119 -263c0 -180 -77 -313.667 -231 -401c-45.333 -26 -93.666 -44 -144.999 -54c-50.667 -9.33301 -121.334 -14 -212.001 -14h-610zM652 1229l-37 -307h133c46.667 0 85 15 115 45c30.667 31.333 46 71.333 46 120c0 44.667 -13 79.667 -39 105
c-24 24.667 -55.667 37 -95 37h-123zM580 641l-39 -336.001h102c79.333 0 142 13.333 188 40c56.667 32.667 85 82.334 85 149.001c0 98 -73 147 -219 147h-117z" />
    <glyph glyph-name="C" unicode="C" horiz-adv-x="1415" vert-adv-y="2457" 
d="M1294 430c6 -0.666992 8.99707 -4.00195 8.99707 -10.002v-5c0 -4 -0.666992 -10 -2 -18l-29 -334c-1.33301 -10.667 -9 -19.334 -23 -26.001c-39.333 -19.333 -93.666 -35.333 -162.999 -48c-73.333 -13.333 -140.666 -20 -201.999 -20c-146 0 -278.333 34.333 -397 103
c-109.333 62.667 -195.666 149 -258.999 259c-68.667 118.667 -103 252 -103 400c0 233.333 80 430.333 240 591c82.667 82.667 179.334 145.334 290.001 188.001c98.667 38 202 57 310 57c135.333 0 265.666 -29.333 390.999 -88c46 -22 69 -42 69 -60v-6l-36 -301
c-3.33301 -26 -8 -39 -14 -39c-5.33301 0 -10.333 2 -15 6l-23 18c-37.333 31.333 -87 56 -149 74s-124 27 -186 27c-144 0 -261.667 -45.333 -353 -136c-83.333 -83.333 -125 -187 -125 -311c0 -119.333 38.667 -217.666 116 -294.999
c78.667 -78.667 180.667 -118 306 -118c81.333 0 162.666 13.333 243.999 40c38.667 12.667 69.334 27.334 92.001 44.001c2.66699 3.33301 6.66699 6 12 8z" />
    <glyph glyph-name="D" unicode="D" horiz-adv-x="1606" vert-adv-y="2457" 
d="M301 1536l475.998 -0.000976562c158.667 0 284 -17.333 376 -52c116.667 -42.667 209.334 -119.667 278.001 -231c76 -122.667 114 -266.334 114 -431.001c0 -215.333 -61.333 -399.666 -184 -552.999c-93.333 -117.333 -212.666 -194.666 -357.999 -231.999
c-96.667 -24.667 -224.667 -37 -384 -37h-506zM649.998 1198l-105.002 -860h131c86.667 0 155.334 8.66699 206.001 26c75.333 25.333 137.333 77.333 186 156c52 84 78 187.667 78 311c0 134 -33 230.667 -99 290c-57.333 51.333 -142.666 77 -255.999 77h-141z" />
    <glyph glyph-name="E" unicode="E" horiz-adv-x="1126" vert-adv-y="2457" 
d="M1143 1536l-41 -338h-452l-33 -264h436l-41 -338h-438l-31 -258h471l-43 -338h-858l188 1536h842z" />
    <glyph glyph-name="F" unicode="F" horiz-adv-x="1130" vert-adv-y="2457" 
d="M1178 1536l-43 -338h-485l-33 -260h442l-41 -338h-442l-76 -600h-387l188 1536h877z" />
    <glyph glyph-name="G" unicode="G" horiz-adv-x="1747" vert-adv-y="2457" 
d="M942 854h735.001c-4 -109.333 -12.333 -194.666 -25 -255.999c-32 -158.667 -94 -289.334 -186 -392.001c-142.667 -158 -335.334 -237 -578.001 -237c-226.667 0 -410.334 70.333 -551.001 211c-141.333 141.333 -212 324 -212 548c0 241.333 78 440.333 234 597
c158 160 361.333 240 610 240c226 0 407 -74.333 543 -223c40 -43.333 86.333 -118.666 139 -225.999l-336 -131c-34.667 67.333 -66.667 115.666 -96 144.999c-69.333 71.333 -156.666 107 -261.999 107c-139.333 0 -251.333 -58.333 -336 -175
c-66 -91.333 -99 -198.333 -99 -321c0 -133.333 40 -240.333 120 -321c74.667 -75.333 169 -113 283 -113c128.667 0 225.667 46 291 138c14 20 28.667 54.667 44 104h-355z" />
    <glyph glyph-name="H" unicode="H" horiz-adv-x="1698" vert-adv-y="2457" 
d="M1647 1536l-188 -1536h-390l80 639h-569l-80 -639h-387l188 1536h390l-70 -559h569l68 559h389z" />
    <glyph glyph-name="I" unicode="I" horiz-adv-x="741" vert-adv-y="2457" 
d="M691 1536l-189 -1536h-389l188 1536h390z" />
    <glyph glyph-name="J" unicode="J" horiz-adv-x="1159" vert-adv-y="2457" 
d="M1106 1536l-128.998 -1057c-12.667 -105.333 -35.334 -190 -68.001 -254c-42.667 -82.667 -101.334 -146.667 -176.001 -192c-71.333 -42.667 -156.333 -64 -255 -64c-156 0 -280 54.333 -372 163c-35.333 42 -75.333 115.333 -120 220l322 133
c14 -51.333 29.333 -87 46 -107c21.333 -26.667 53 -40 95 -40c46.667 0 80.667 15.333 102 46c20.667 30 35.667 83.667 45 161l121 991h389z" />
    <glyph glyph-name="K" unicode="K" horiz-adv-x="1563" vert-adv-y="2457" 
d="M691 1536l-84.001 -674.002l507 674h449l-588 -782l524 -754h-466l-330 492c-0.666992 0.666992 -1.66699 2.33398 -3 5.00098s-9.66602 16.334 -24.999 41.001l-7 12l-8 13c-21.333 34.667 -46 77.667 -74 129l-86 -692h-387l188 1536h390z" />
    <glyph glyph-name="L" unicode="L" horiz-adv-x="1092" vert-adv-y="2457" 
d="M691 1536l-148 -1198h490l-41 -338h-879l188 1536h390z" />
    <glyph glyph-name="M" unicode="M" horiz-adv-x="2159" vert-adv-y="2457" 
d="M1949 1536l50 -1536h-390l-18 688v51c0 32.667 0.666992 60.667 2 84c2 42.667 7.33301 99.334 16 170.001l-26 -71c-34 -80.667 -61.333 -141 -82 -181l-377 -741h-205l-133 594c-5.33301 24 -15 73 -29 147c-12 76 -23.333 168.333 -34 277
c-24 -127.333 -51.333 -244.666 -82 -351.999l-197 -666h-401l485 1536h385l117 -518c30.667 -148.667 53 -283.334 67 -404.001l29 78l23 51c14.667 34.667 27 62 37 82l362 711h401z" />
    <glyph glyph-name="N" unicode="N" horiz-adv-x="1868" vert-adv-y="2457" 
d="M1817 1536l-188 -1536h-426l-410 688c-1.33301 2 -4 6.66699 -8 14l-58 107c-40 74.667 -80.667 161.334 -122 260.001v-70c-0.666992 -108.667 -6.33398 -205.334 -17.001 -290.001l-86 -709h-389l188 1536h420l439 -741l65 -123l59 -119l31 -57v10
c0 22.667 0.666992 40.334 2 53.001c0.666992 3.33301 1.33398 19 2.00098 47c2 45.333 7 96.666 15 153.999l96 776h387z" />
    <glyph glyph-name="O" unicode="O" horiz-adv-x="1858" vert-adv-y="2457" 
d="M998 1591c159.333 0 303.332 -36.999 431.999 -110.999c110.667 -64 198 -151.333 262 -262c69.333 -121.333 104 -260.333 104 -417c0 -168 -38.667 -319.333 -116 -454c-70 -122 -165.333 -217.667 -286 -287c-129.333 -75.333 -275.666 -113 -438.999 -113
c-167.333 0 -317.333 38.333 -450 115c-117.333 67.333 -209.333 159 -276 275c-69.333 122 -104 258.667 -104 410c0 237.333 80 436.666 240 597.999c89.333 90.667 200 157.667 332 201c92 30 192.333 45 301 45zM972.999 1222
c-124.667 0 -230.334 -43.335 -317.001 -130.002c-89.333 -89.333 -134 -200.666 -134 -333.999c0 -130 42 -237 126 -321c80.667 -80.667 182.334 -121 305.001 -121c125.333 0 230.333 42 315 126c87.333 87.333 131 198.333 131 333
c0 132.667 -42.333 242.334 -127 329.001c-78 78.667 -177.667 118 -299 118z" />
    <glyph glyph-name="P" unicode="P" horiz-adv-x="1384" vert-adv-y="2457" 
d="M301 1536h519c177.333 0 309 -30.667 395 -92c56 -40.667 99.333 -94 130 -160s46 -139.333 46 -220c0 -100 -23 -193.667 -69 -281c-54 -102.667 -127 -176.667 -219 -222c-82.667 -40.667 -199 -61 -349 -61h-188l-64 -500h-389zM652 1229l-47 -391h122
c176.667 0 265 70.667 265 212c0 59.333 -16.333 103.333 -49 132c-35.333 31.333 -96.333 47 -183 47h-108z" />
    <glyph glyph-name="Q" unicode="Q" horiz-adv-x="1858" vert-adv-y="2457" 
d="M1542 182l95.999 -131.001l-256 -176l-106 143c-105.333 -32.667 -211.333 -49 -318 -49c-255.333 0 -460.666 76.667 -615.999 230c-144.667 142.667 -217 326.334 -217 551.001c0 231.333 76.333 423 229 575c80 79.333 175 140 285 182
c109.333 41.333 227.333 62 354 62c247.333 0 445 -74 593 -222c140 -139.333 210 -320.333 210 -543c0 -142.667 -30 -276 -90 -400c-31.333 -64.667 -86 -138.667 -164 -222zM1157 693.999l144 -201.999c32 42 54 78.667 66 110c21.333 56 32 112 32 168
c0 130 -39.333 234.333 -118 313c-78 78 -179.667 117 -305 117c-133.333 0 -243 -42.667 -329 -128c-83.333 -83.333 -125 -188.333 -125 -315c0 -122.667 39 -222.334 117 -299.001c79.333 -80 184.333 -120 315 -120c20.667 0 51 2.66699 91 8l-134 172z" />
    <glyph glyph-name="R" unicode="R" horiz-adv-x="1485" vert-adv-y="2457" 
d="M1018 596l377.001 -596h-453l-366 608l-74 -608h-389l188 1536h500c362 0 543 -156.667 543 -470c0 -118.667 -24.667 -214.667 -74 -288c-36.667 -54.667 -82.334 -97.667 -137.001 -129c-24.667 -14 -63 -31.667 -115 -53zM652.001 1206l-49.999 -350.001h70
c72.667 0 133.667 14.333 183 43c62.667 36 94 86.667 94 152c0 54.667 -23 95.334 -69 122.001c-38.667 22 -90.334 33 -155.001 33h-73z" />
    <glyph glyph-name="S" unicode="S" horiz-adv-x="1223" vert-adv-y="2457" 
d="M1209 1425l-169.999 -294.999c-105.333 76.667 -195.666 115 -270.999 115c-42.667 0 -79 -8.66699 -109 -26c-42 -24 -63 -60.333 -63 -109c0 -29.333 8.66699 -55 26 -77c20.667 -27.333 77 -62.666 169 -105.999c112.667 -52.667 194 -105.667 244 -159
c64 -69.333 96 -158.666 96 -267.999c0 -146.667 -48 -268.334 -144 -365.001c-110.667 -110.667 -261 -166 -451 -166c-104 0 -201.333 18.333 -292 55c-58.667 23.333 -131 61.666 -217 114.999l174 295c64.667 -43.333 117 -73.666 157 -90.999
c53.333 -24 108.666 -36 165.999 -36c64.667 0 116 15.333 154 46c36 28 54 65 54 111c0 37.333 -16.667 69.666 -50 96.999c-21.333 17.333 -64 42.666 -128 75.999c-126.667 64.667 -214 122.667 -262 174c-63.333 68 -95 154.333 -95 259c0 164 64.333 292.333 193 385
c103.333 74.667 227.666 112 372.999 112c93.333 0 184 -17.333 272 -52c51.333 -20 109.333 -50 174 -90z" />
    <glyph glyph-name="T" unicode="T" horiz-adv-x="1079" vert-adv-y="2457" 
d="M823 1198l-148 -1198h-389l150 1198h-332l41 338h1042l-41 -338h-323z" />
    <glyph glyph-name="U" unicode="U" horiz-adv-x="1677" vert-adv-y="2457" 
d="M1624 1536l-109.001 -888.998c-17.333 -144.667 -38.666 -252.334 -63.999 -323.001c-38 -108 -104.333 -190.667 -199 -248c-118 -71.333 -263.667 -107 -437 -107c-230 0 -402.667 62 -518 186c-82 88 -123 199.667 -123 335c0 44.667 6 117 18 217l103 829h387
l-102 -829c-1.33301 -7.33301 -2.33301 -18 -3 -32l-1 -15l-1 -17c-1.33301 -20 -2 -37.667 -2 -53c1.33301 -90.667 24 -155.667 68 -195c42.667 -38 107.667 -57 195 -57c88.667 0 154.667 21.667 198 65c48 47.333 79.333 132.666 94 255.999l107 877h389z" />
    <glyph glyph-name="V" unicode="V" horiz-adv-x="1554" vert-adv-y="2457" 
d="M1679 1536l-822.999 -1536h-330l-401 1536h414l176 -700c23.333 -96 39 -189.667 47 -281c2.66699 6.66699 6 16.334 10 29.001l5 16c4 10.667 7 19.334 9 26.001c5.33301 18.667 26.666 65.334 63.999 140.001l393 770h436z" />
    <glyph glyph-name="W" unicode="W" horiz-adv-x="2318" vert-adv-y="2457" 
d="M2443 1536l-662.998 -1536h-436l-105 612c-22.667 131.333 -33.667 264 -33 398c-39.333 -132 -82.333 -254.333 -129 -367l-262 -643h-416l-274 1536h391l98 -575c26 -147.333 44 -316 54 -506c32 112.667 53.667 183.667 65 213l60 147l290 721h369l113 -659
c15.333 -82.667 29.666 -223.334 42.999 -422.001c29.333 101.333 54.666 177.666 75.999 228.999l47 115l290 737h422z" />
    <glyph glyph-name="X" unicode="X" horiz-adv-x="1696" vert-adv-y="2457" 
d="M1120 786l478 -785.999h-449l-139 229c-14.667 24 -33.667 59.667 -57 107c-30 56 -59 117.333 -87 184l-36 -59c-32 -53.333 -70.333 -107.333 -115 -162l-240 -299h-483l670 809l-439 727h451l102 -178c18 -32 37.333 -68.333 58 -109
c23.333 -46 50.666 -104.667 81.999 -176l39 60c46.667 69.333 85.334 123.666 116.001 162.999l187 240h471z" />
    <glyph glyph-name="Y" unicode="Y" horiz-adv-x="1436" vert-adv-y="2457" 
d="M887 672l-84.001 -672.001h-387l84 684l-391 852h432l105 -246l43 -102c19.333 -47.333 38.333 -100 57 -158c6.66699 18 14 32.333 22 43c4 8 14.333 24.333 31 49c3.33301 4.66699 6.33301 9.33398 9 14.001c6.66699 10 11.334 16.333 14.001 19l264 381h473z" />
    <glyph glyph-name="Z" unicode="Z" horiz-adv-x="1540" vert-adv-y="2457" 
d="M1415 338l-41 -338h-1329l831 1198h-604l41 338h1235l-821 -1198h688z" />
    <glyph glyph-name="bracketleft" unicode="[" horiz-adv-x="479" vert-adv-y="2457" 
d="M350 1475v-1612h209v-215h-500v2042h500v-215h-209z" />
    <glyph glyph-name="backslash" unicode="\" horiz-adv-x="1716" vert-adv-y="2457" 
d="M641 1802l840 -2038h-383l-840 2038h383z" />
    <glyph glyph-name="bracketright" unicode="]" horiz-adv-x="479" vert-adv-y="2457" 
d="M160 -137v1610h-209v217h500v-2042h-500v215h209z" />
    <glyph glyph-name="asciicircum" unicode="^" horiz-adv-x="1143" vert-adv-y="2457" 
d="M420 776h-381l319 772h484l319 -772h-379l-182 477z" />
    <glyph glyph-name="underscore" unicode="_" horiz-adv-x="1151" vert-adv-y="2457" 
d="M29 -113h1151v-252h-1151v252z" />
    <glyph glyph-name="grave" unicode="`" horiz-adv-x="1184" vert-adv-y="2457" 
d="M311 1509l236 168l288 -354l-168 -125z" />
    <glyph glyph-name="a" unicode="a" horiz-adv-x="1415" vert-adv-y="2457" 
d="M1332 1036l-127 -1036h-379l27 113c-22.667 -20.667 -38.667 -34.667 -48 -42c-88.667 -68 -189 -102 -301 -102c-120.667 0 -219 38 -295 114c-90 89.333 -135 214.666 -135 375.999c0 188.667 58 341.334 174 458.001c100.667 100 223.667 150 369 150
c80 0 150.333 -16 211 -48c26.667 -14 68 -48 124 -102v119h380zM705 766c-78.667 0 -141.668 -32.667 -189.001 -98c-36.667 -50.667 -55 -110.667 -55 -180c0 -68.667 19.667 -122.667 59 -162c36.667 -37.333 85 -56 145 -56c79.333 0 142.333 32.333 189 97
c36 50 54 109.333 54 178c0 76 -21.333 133.667 -64 173c-35.333 32 -81.666 48 -138.999 48z" />
    <glyph glyph-name="b" unicode="b" horiz-adv-x="1417" vert-adv-y="2457" 
d="M637 1536l-78.002 -629c46 43.333 82 73 108 89c78.667 47.333 160.334 71 245.001 71c114 0 209.667 -38.667 287 -116c92.667 -92.667 139 -220.667 139 -384c0 -128 -28.667 -241.667 -86 -341c-46.667 -82 -109 -145.333 -187 -190
c-77.333 -44.667 -163 -67 -257 -67c-85.333 0 -161.666 18.667 -228.999 56c-36 20 -77.333 58 -124 114l-6 -139h-379l188 1536h379zM747.998 766c-78.667 0 -141.667 -32.667 -189 -98c-36.667 -50.667 -55 -110.667 -55 -180s19.667 -123.333 59 -162
c36.667 -37.333 85 -56 145 -56c79.333 0 142.333 32.333 189 97c36 50 54 109.333 54 178c0 76 -21.333 133.667 -64 173c-34.667 32 -81 48 -139 48z" />
    <glyph glyph-name="c" unicode="c" horiz-adv-x="969" vert-adv-y="2457" 
d="M951 995l-39.001 -322.999c-34.667 30.667 -64.667 52.667 -90 66c-36 18.667 -75.667 28 -119 28c-67.333 0 -123.666 -22.667 -168.999 -68c-51.333 -52 -77 -120 -77 -204c0 -70.667 20 -126.334 60 -167.001c38 -38 89 -57 153 -57
c40.667 0 79.334 8.66699 116.001 26c22.667 10.667 51.667 28.667 87 54l-41 -323c-110 -38.667 -198.667 -58 -266 -58c-142.667 0 -260 46.333 -352 139c-96 97.333 -144 223.333 -144 378c0 170 54.333 309.667 163 419c107.333 108 243.333 162 408 162
c105.333 0 208.666 -24 309.999 -72z" />
    <glyph glyph-name="d" unicode="d" horiz-adv-x="1376" vert-adv-y="2457" 
d="M1385 1536l-187 -1536h-378l28 123c-8.66699 -7.33301 -18.334 -16 -29.001 -26c-14.667 -13.333 -24.667 -21.666 -30 -24.999c-91.333 -68.667 -191.333 -103 -300 -103c-118 0 -214.667 37.667 -290 113c-87.333 87.333 -131 207.666 -131 360.999
c0 170 47.667 314.667 143 434c100.667 126.667 227.334 190 380.001 190c68 0 133.667 -14.667 197 -44c38.667 -18.667 86 -58.667 142 -120l76 633h379zM699 766c-78.667 0 -141.668 -32.666 -189.001 -97.999c-36.667 -50.667 -55 -110.667 -55 -180
c0 -68.667 19.667 -122.667 59 -162c36.667 -37.333 85 -56 145 -56c64 0 118.333 22.333 163 67c53.333 53.333 80 122.666 80 207.999c0 76 -21.333 133.667 -64 173c-35.333 32 -81.666 48 -138.999 48z" />
    <glyph glyph-name="e" unicode="e" horiz-adv-x="1284" vert-adv-y="2457" 
d="M432 440c2 -80 19.668 -134.667 53.001 -164c28.667 -26 70.667 -39 126 -39c47.333 0 83.333 11 108 33c18 16 31 40.667 39 74h414c-24.667 -64 -46 -110.667 -64 -140c-38 -60.667 -90.667 -111 -158 -151c-92.667 -56 -207.334 -84 -344.001 -84
c-180 0 -317.667 52.333 -413 157c-80.667 88.667 -121 205.667 -121 351c0 172 54.333 312.333 163 421c112 112.667 259.667 169 443 169c174 0 308.333 -52.333 403 -157c84 -93.333 126 -217 126 -371c0 -19.333 -2.33301 -52.333 -7 -99h-768zM817.001 657
c-12 106.667 -67.666 160 -166.999 160c-44.667 0 -86.334 -13.333 -125.001 -40c-31.333 -22 -54 -62 -68 -120h360z" />
    <glyph glyph-name="f" unicode="f" horiz-adv-x="846" vert-adv-y="2457" 
d="M609 743l-90 -743h-381l92 743h-160l35 293h160l10 68c12 78 26.667 139 44 183c30.667 76 80.667 136.333 150 181c71.333 45.333 156.333 68 255 68c34 0 65.667 -2.33301 95 -7c39.333 -6 86 -20 140 -42l-39 -326c-44.667 34 -87 51 -127 51
c-54.667 0 -94 -22.333 -118 -67c-12.667 -24 -22.667 -60.333 -30 -109h259l-37 -293h-258z" />
    <glyph glyph-name="g" unicode="g" horiz-adv-x="1442" vert-adv-y="2457" 
d="M1358 1036l-111 -911.002c-16 -133.333 -38.667 -244.666 -68 -333.999c-71.333 -221.333 -261.333 -332 -570 -332c-209.333 0 -361.333 55 -456 165c-30.667 35.333 -53.334 77 -68.001 125c-11.333 36 -21.333 87.667 -30 155h362
c17.333 -94.667 81.333 -142 192 -142c72 0 128.333 19.333 169 58c34 31.333 56.667 90.666 68 177.999l14 111l-29 -28l-22 -22c-73.333 -60 -158 -90 -254 -90c-136.667 0 -246 46.333 -328 139s-123 217.334 -123 374.001c0 184.667 55.333 332.334 166 443.001
c94.667 94.667 211.334 142 350.001 142c79.333 0 150 -16.667 212 -50c42 -22.667 89 -66 141 -130l6 149h379zM718 765.998c-60 0 -110.666 -20.667 -151.999 -62c-50 -50 -75 -117.333 -75 -202c0 -74.667 21.333 -133.334 64 -176.001c37.333 -37.333 85 -56 143 -56
c71.333 0 128 28.667 170 86c35.333 48.667 53 110.334 53 185.001c0 78 -22 137 -66 177c-34.667 32 -80.334 48 -137.001 48z" />
    <glyph glyph-name="h" unicode="h" horiz-adv-x="1352" vert-adv-y="2457" 
d="M637 1536l-70.998 -592.001c56.667 41.333 100 68.333 130 81c65.333 28 134.666 42 207.999 42c108 0 191 -32.333 249 -97c56 -62.667 84 -150.667 84 -264c0 -41.333 -4.66699 -100.666 -14 -177.999l-63 -528h-381l51 416c4 36 7.33301 59 10 69
c4 37.333 6 70.666 6 99.999c0 109.333 -45.667 164 -137 164c-48.667 0 -90.334 -15.667 -125.001 -47c-21.333 -19.333 -37 -43.666 -47 -72.999c-10 -30.667 -19 -76.667 -27 -138l-61 -491h-379l188 1536h379z" />
    <glyph glyph-name="i" unicode="i" horiz-adv-x="659" vert-adv-y="2457" 
d="M576 1036l-127 -1036h-379l127 1036h379zM431 1552c58.667 0 109.667 -21.666 153 -64.999c44.667 -44 67 -96.667 67 -158c0 -66.667 -22.667 -122.334 -68 -167.001c-44 -42.667 -97 -64 -159 -64s-115 22 -159 66c-45.333 44.667 -68 99 -68 163
c0 60.667 22.333 113 67 157c45.333 45.333 101 68 167 68z" />
    <glyph glyph-name="j" unicode="j" horiz-adv-x="670" vert-adv-y="2457" 
d="M591 1036l-196 -1607h-379l197 1607h378zM436 1552c58.667 0 109.667 -21.666 153 -64.999c44.667 -44 67 -96.667 67 -158c0 -66 -22.667 -121.667 -68 -167c-44 -42.667 -96.667 -64 -158 -64c-62 0 -115 22 -159 66c-46 45.333 -69 99.666 -69 162.999
c0 60.667 22.333 113 67 157c45.333 45.333 101 68 167 68z" />
    <glyph glyph-name="k" unicode="k" horiz-adv-x="1370" vert-adv-y="2457" 
d="M637 1536l-106 -871l330 371h479l-451 -473l484 -563h-465l-152 174l-86 102l-137 176l-25 33l-59 -485h-379l188 1536h379z" />
    <glyph glyph-name="l" unicode="l" horiz-adv-x="629" vert-adv-y="2457" 
d="M637 1536l-188 -1536h-379l188 1536h379z" />
    <glyph glyph-name="m" unicode="m" horiz-adv-x="2025" vert-adv-y="2457" 
d="M576 1036l-29 -137.003c40.667 43.333 72 73 94 89c74 52.667 160.667 79 260 79c102 0 180.667 -27.667 236 -83c18.667 -18.667 39.667 -50.334 63 -95.001c41.333 40.667 76.333 71.334 105 92.001c80 57.333 172.667 86 278 86
c103.333 0 184.666 -29.333 243.999 -88c54.667 -54 82 -126.333 82 -217c0 -35.333 -6.66699 -107.666 -20 -216.999l-68 -545h-379l64 506c5.33301 44 8 81 8 111c0 44 -13.333 78 -40 102c-22 20 -50.667 30 -86 30c-51.333 0 -94.666 -18.333 -129.999 -55
c-31.333 -32.667 -53.333 -99.667 -66 -201l-61 -493h-379l66 541c4 34.667 6 63.334 6 86.001c0 40 -12 71 -36 93c-22 19.333 -51.333 29 -88 29c-56.667 0 -100 -22 -130 -66c-29.333 -41.333 -49.333 -104.666 -60 -189.999l-61 -493h-379l127 1036h379z" />
    <glyph glyph-name="n" unicode="n" horiz-adv-x="1358" vert-adv-y="2457" 
d="M576 1036l-31 -134.999c54 48 95.667 81 125 99c74 44.667 157 67 249 67c110.667 0 194.667 -31 252 -93c48.667 -54 73 -128 73 -222c0 -42.667 -4.33301 -98.667 -13 -168l-71 -584h-379l55 457c6.66699 53.333 10 95.666 10 126.999c0 60 -15.333 104.333 -46 133
c-23.333 21.333 -54 32 -92 32c-60 0 -106.667 -22.333 -140 -67c-28 -38 -48.667 -109.667 -62 -215l-57 -467h-379l127 1036h379z" />
    <glyph glyph-name="o" unicode="o" horiz-adv-x="1380" vert-adv-y="2457" 
d="M709 1067c130 0 244.669 -28.668 344.002 -86.001c76.667 -44.667 136 -103.667 178 -177c44 -77.333 66 -165.333 66 -264c0 -163.333 -52.667 -297.666 -158 -402.999c-112.667 -112 -263.334 -168 -452.001 -168c-196.667 0 -352.334 57.333 -467.001 172
c-98.667 98.667 -148 222.667 -148 372c0 148 50.333 272.667 151 374c118 120 280 180 486 180zM706.002 765.999c-63.333 0 -118 -22.666 -164 -67.999c-54 -54 -81 -124 -81 -210c0 -68.667 19.667 -122.667 59 -162c36.667 -37.333 85.667 -56 147 -56
c64 0 118.333 22.333 163 67c53.333 53.333 80 122.666 80 207.999c0 76 -21.333 133.667 -64 173c-35.333 32 -82 48 -140 48z" />
    <glyph glyph-name="p" unicode="p" horiz-adv-x="1425" vert-adv-y="2457" 
d="M587 1036l-28 -131c60.667 54 113 92.333 157 115c60 31.333 126.667 47 200 47c130 0 233 -43 309 -129c78.667 -89.333 118 -214.333 118 -375c0 -174 -43.333 -315.667 -130 -425c-89.333 -112.667 -210.333 -169 -363 -169c-92.667 0 -172.667 24.667 -240 74
c-42 30 -84.333 75 -127 135l-88 -715h-379l193 1573h378zM753 766c-78 0 -140.668 -32.666 -188.001 -97.999c-36.667 -50.667 -55 -110.667 -55 -180c0 -68.667 19.333 -122.667 58 -162c36.667 -37.333 85.334 -56 146.001 -56c64 0 118 22.333 162 67
c53.333 53.333 80 122.666 80 207.999c0 76 -21.333 133.667 -64 173c-34.667 32 -81 48 -139 48z" />
    <glyph glyph-name="q" unicode="q" horiz-adv-x="1409" vert-adv-y="2457" 
d="M1328 1036l-193 -1573h-379l76 633l-49 -41c-76.667 -57.333 -165 -86 -265 -86c-125.333 0 -228.333 40.333 -309 121c-92.667 92.667 -139 221.667 -139 387c0 190 55.333 340 166 450c94.667 93.333 214.667 140 360 140c75.333 0 144 -13.333 206 -40
c38.667 -16.667 87 -52 145 -106v115h381zM699 766c-76.667 0 -138.333 -32.333 -185 -97c-36.667 -51.333 -55 -111.666 -55 -180.999c0 -70 19.333 -124.333 58 -163c36.667 -36.667 84 -55 142 -55c78 0 140.333 32.333 187 97c36 50 54 110 54 180
c0 75.333 -21.333 132.666 -64 171.999c-35.333 31.333 -81 47 -137 47z" />
    <glyph glyph-name="r" unicode="r" horiz-adv-x="936" vert-adv-y="2457" 
d="M576 1036l-28.999 -138.999c55.333 49.333 98.333 81.333 129 96c62 28.667 132 43 210 43h17c17.333 0 34 -0.333008 50 -1l12 -1l-45 -354c-56 30 -112.333 45 -169 45c-86 0 -148.667 -27.333 -188 -82c-26.667 -36.667 -46.334 -104.334 -59.001 -203.001l-55 -440
h-379l127 1036h379z" />
    <glyph glyph-name="s" unicode="s" horiz-adv-x="1051" vert-adv-y="2457" 
d="M987 964l-90 -261.999c-49.333 30.667 -89.666 52.334 -120.999 65.001c-42 17.333 -86.667 26 -134 26c-86 0 -129 -21.333 -129 -64c0 -23.333 20.667 -40.333 62 -51l123 -33c78 -20.667 139.333 -49.334 184 -86.001c60 -50 90 -118.667 90 -206
c0 -140.667 -60 -245.334 -180 -314.001c-81.333 -46.667 -182 -70 -302 -70c-100 0 -192 17.333 -276 52c-54.667 22.667 -119.334 58 -194.001 106l137 252c66 -42 118.667 -71.333 158 -88c51.333 -22 105.333 -33 162 -33c95.333 0 143 24 143 72
c0 27.333 -19.667 45.666 -59 54.999l-123 29c-108 24.667 -183.667 66.334 -227 125.001c-33.333 45.333 -50 102.333 -50 171c0 118 45.667 209.667 137 275c80 57.333 181.667 86 305 86c116.667 0 244.667 -35.667 384 -107z" />
    <glyph glyph-name="t" unicode="t" horiz-adv-x="821" vert-adv-y="2457" 
d="M596 743l-90 -743h-381l92 743h-164l37 293h162l41 332h378l-38 -332h202l-37 -293h-202z" />
    <glyph glyph-name="u" unicode="u" horiz-adv-x="1374" vert-adv-y="2457" 
d="M1291 1036l-67.999 -547c-13.333 -108 -31.333 -191.333 -54 -250c-68.667 -180 -247.334 -270 -536.001 -270c-192 0 -332.333 47.333 -421 142c-63.333 68 -95 156.667 -95 266c0 38 3.33301 85 10 141l64 518h381l-62 -493c-6.66699 -55.333 -10 -95 -10 -119
c0 -92 51.333 -138 154 -138c56 0 98.333 14.333 127 43c32.667 32 53.667 87.333 63 166l66 541h381z" />
    <glyph glyph-name="v" unicode="v" horiz-adv-x="1325" vert-adv-y="2457" 
d="M1385 1036l-695.001 -1036h-258l-401 1036h395l117 -315l6 -20c22.667 -68 45.334 -147.333 68.001 -238l32 65c32 64 71 132.333 117 205l197 303h422z" />
    <glyph glyph-name="w" unicode="w" horiz-adv-x="1901" vert-adv-y="2457" 
d="M1960 1036l-593.999 -1036h-270l-102 371c-20 72 -35 149 -45 231l-14 -37l-7 -18l-7 -16l-8 -18c-26.667 -59.333 -46.334 -100.666 -59.001 -123.999l-211 -389h-276l-336 1036h385l102 -321c2.66699 -7.33301 7.66699 -24 15 -50l12 -43
c8.66699 -34 19.667 -83 33 -147c24 70 57.333 144.333 100 223l182 338h254l99 -313c1.33301 -5.33301 5 -18.333 11 -39c20 -63.333 35.333 -125.333 46 -186c2 4 5 11.333 9 22c6 17.333 10.667 29 14 35c12.667 32.667 33 74.334 61 125.001l201 356h405z" />
    <glyph glyph-name="x" unicode="x" horiz-adv-x="1423" vert-adv-y="2457" 
d="M949 536l412.998 -536.001h-471l-98 139l-41 60c-23.333 32.667 -43.666 66.667 -60.999 102l-37 -47c-39.333 -49.333 -75.666 -91.666 -108.999 -126.999l-121 -127h-485l530 549l-372 487h473l78 -121l8 -13l8 -12l8 -13c16.667 -25.333 34.667 -58.666 54 -99.999
l4 -7c30.667 49.333 53.667 82.666 69 99.999l39 45l107 121h493z" />
    <glyph glyph-name="y" unicode="y" horiz-adv-x="1366" vert-adv-y="2457" 
d="M1426 1036l-969 -1573h-426l375 619l-365 954h422l205 -532l326 532h432z" />
    <glyph glyph-name="z" unicode="z" horiz-adv-x="1343" vert-adv-y="2457" 
d="M1194 295l-47 -295h-1143l635 743h-449l47 293h1088l-629 -741h498z" />
    <glyph glyph-name="braceleft" unicode="{" horiz-adv-x="631" vert-adv-y="2457" 
d="M351 668c50.667 -34 84.9971 -67.999 102.997 -101.999c24 -44 36 -107 36 -189v-313v-29c0.666992 -56.667 9.33398 -92.667 26.001 -108c14.667 -14.667 52.334 -22.334 113.001 -23.001h43v-261l-76 -2l-73 -1h-23c-111.333 1.33301 -190 27.333 -236 78
c-44 48.667 -67 133.334 -69 254.001v385c-0.666992 73.333 -14 124.666 -40 153.999c-19.333 20.667 -48.333 35.334 -87 44.001v250c68.667 14.667 107.667 49.667 117 105l9 53l1 18v385c2 130 30 219.333 84 268c45.333 41.333 118.333 62.666 219 63.999h25l73 -5h76
v-261l-28 1c-11.333 0.666992 -19.333 1 -24 1c-56.667 0 -92.667 -9.33301 -108 -28c-14.667 -17.333 -22 -52.333 -22 -105v-29v-313c0.666992 -76.667 -11.666 -141.334 -36.999 -194.001c-14 -27.333 -48 -59.666 -102 -96.999z" />
    <glyph glyph-name="bar" unicode="|" horiz-adv-x="739" vert-adv-y="2457" 
d="M637 1536l-188 -1536h-379l188 1536h379z" />
    <glyph glyph-name="braceright" unicode="}" horiz-adv-x="633" vert-adv-y="2457" 
d="M313 668c-50.667 33.333 -84.999 67.335 -102.999 102.002c-24 45.333 -36 108.333 -36 189v313v29c0 57.333 -9 94 -27 110c-17.333 15.333 -50.333 23 -99 23h-17c-9.33301 0 -22.333 -0.666992 -39 -2v261h76l73 5h25c110.667 -1.33301 189 -27.666 235 -78.999
c44 -48.667 66.667 -133 68 -253v-385c0.666992 -73.333 14 -124.666 40 -153.999c19.333 -20.667 49 -35.334 89 -44.001v-250c-43.333 -9.33301 -74 -25 -92 -47c-24 -26.667 -36.333 -69.667 -37 -129v-385c0 -86 -10 -150.667 -30 -194
c-40 -95.333 -131.667 -141.333 -275 -138l-23 1l-73 1h-76v262h43c51.333 0 85.666 5 102.999 15c12 7.33301 21 18.666 27 33.999s9 42.666 9 81.999v29v315c0 75.333 12.333 139.333 37 192c13.333 27.333 47.333 59.666 102 96.999z" />
    <glyph glyph-name="asciitilde" unicode="~" horiz-adv-x="1534" vert-adv-y="2457" 
d="M398 1292l-162.001 106.999c6 14 11.333 27 16 39l6 12l20 43c1.33301 3.33301 2.33301 6 3 8c68.667 144.667 167.667 217 297 217c55.333 0 137.333 -20.333 246 -61l98 -37c32 -12 65.333 -18 100 -18c50.667 0 91.334 17.333 122.001 52c10 11.333 24.667 34 44 68
l168 -98c-40 -82 -72 -138.333 -96 -169c-70.667 -90.667 -160.334 -136 -269.001 -136c-52 0 -142.667 25 -272 75c-32.667 12.667 -55.667 20.334 -69 23.001c-33.333 10.667 -60.666 16 -81.999 16c-36 0 -67.667 -10.333 -95 -31
c-18.667 -14 -38.334 -40.667 -59.001 -80c-3.33301 -6.66699 -8.66602 -16.667 -15.999 -30z" />
    <glyph glyph-name="uni20AC" horiz-adv-x="1384" vert-adv-y="2457" 
d="M1280 402l-52.9971 -425.999c-59.333 -11.333 -112.666 -17 -159.999 -17c-198.667 0 -377.667 65.333 -537 196c-72 59.333 -132.333 131 -181 215s-77.334 165.333 -86.001 244h-167v338h179c51.333 188.667 148.166 338.667 290.499 450s308.166 167 497.499 167
c128.667 0 245.334 -26.667 350.001 -80l-50 -406c-91.333 57.333 -182 86 -272 86c-79.333 0 -153.833 -20 -223.5 -60s-120.834 -92.333 -153.501 -157h633l-41 -338h-618c24 -72.667 73.5 -132.334 148.5 -179.001s158.5 -70 250.5 -70
c63.333 0 127.666 12.333 192.999 37z" />
    <glyph glyph-name="uni20AC" unicode="&#x20ac;" horiz-adv-x="1384" vert-adv-y="2457" 
d="M1280 402l-52.9971 -425.999c-59.333 -11.333 -112.666 -17 -159.999 -17c-198.667 0 -377.667 65.333 -537 196c-72 59.333 -132.333 131 -181 215s-77.334 165.333 -86.001 244h-167v338h179c51.333 188.667 148.166 338.667 290.499 450s308.166 167 497.499 167
c128.667 0 245.334 -26.667 350.001 -80l-50 -406c-91.333 57.333 -182 86 -272 86c-79.333 0 -153.833 -20 -223.5 -60s-120.834 -92.333 -153.501 -157h633l-41 -338h-618c24 -72.667 73.5 -132.334 148.5 -179.001s158.5 -70 250.5 -70
c63.333 0 127.666 12.333 192.999 37z" />
    <glyph glyph-name="nbspace" unicode="&#xa0;" horiz-adv-x="575" vert-adv-y="2457" 
 />
    <glyph glyph-name="exclamdown" unicode="&#xa1;" horiz-adv-x="782" vert-adv-y="2457" 
d="M387 1233c64 0 119.332 -23 165.999 -69c46 -46.667 69 -102.667 69 -168c0 -66.667 -23.333 -123 -70 -169c-45.333 -46 -100.666 -69 -165.999 -69c-68 0 -125 23.333 -171 70c-45.333 45.333 -68 101 -68 167c0 65.333 23.333 121.333 70 168
c46 46.667 102.667 70 170 70zM578.999 670v-1016h-385v1016h385z" />
    <glyph glyph-name="cent" unicode="&#xa2;" horiz-adv-x="1444" vert-adv-y="2457" 
d="M1235 1284l-42.999 -328c-64.667 46 -133 72.667 -205 80l-61 -442c83.333 2 157.666 23.667 222.999 65l-45 -344c-60 -34 -134.333 -53 -223 -57l-37 -276h-111l37 276c-79.333 14.667 -141 33.667 -185 57c-81.333 44 -144 104.333 -188 181
c-44.667 78 -67 168 -67 270c0 168 58 310.333 174 427c112 112.667 246.667 169 404 169h12l26 201h111l-27 -211c68.667 -12 137 -34.667 205 -68zM873.001 1020c-101.333 -47.333 -152 -121.668 -152 -223.001c0 -83.333 32.667 -140.666 98 -171.999z" />
    <glyph glyph-name="sterling" unicode="&#xa3;" horiz-adv-x="1292" vert-adv-y="2457" 
d="M1019 387l285 -0.000976562c-6.66699 -70 -14.334 -120.667 -23.001 -152c-19.333 -72 -53.666 -131.667 -102.999 -179c-62 -60.667 -145 -91 -249 -91c-68 0 -145 17 -231 51l-109 43c-54.667 22 -102.667 33 -144 33c-31.333 0 -55.333 -9.66699 -72 -29
c-11.333 -12.667 -22 -33.667 -32 -63h-280c20 76.667 36 129.667 48 159c15.333 38.667 39 80 71 124c21.333 30 48.333 54.333 81 73c24 12.667 58.333 25.667 103 39c24.667 69.333 37 128.333 37 177c0 12.667 -1.66699 32.667 -5 60
c-0.666992 3.33301 -1 7.33301 -1 12h-242l29 233h184c-18 77.333 -27 143 -27 197c0 157.333 49 279 147 365c98.667 88 235.334 132 410.001 132c174 0 303.333 -46.667 388 -140c70.667 -77.333 106 -184.333 106 -321v-25h-360c-4 56.667 -13 99 -27 127
c-22.667 46.667 -62.667 70 -120 70c-115.333 0 -173 -80 -173 -240c0 -40.667 5.33301 -95.667 16 -165h424l-28 -233h-373c-5.33301 -97.333 -28 -189.666 -68 -276.999l41 -13l58 -20c13.333 -5.33301 29 -11 47 -17c48.667 -17.333 81 -26 97 -26
c31.333 0 54.666 10.333 69.999 31c10.667 13.333 19 35 25 65z" />
    <glyph glyph-name="currency" unicode="&#xa4;" horiz-adv-x="2054" vert-adv-y="2457" 
d="M1256 0h-463v799l-269 -326l-319 313l829 813l816 -813l-322 -313l-272 326v-799z" />
    <glyph glyph-name="yen" unicode="&#xa5;" horiz-adv-x="1444" vert-adv-y="2457" 
d="M490 0l49.001 356.001h-227l34 236h226l12 90h-299l33 236h164l-283 618h403l166 -377l13 -32l14 -33l4 -10c3.33301 -6 5.33301 -10 6 -12c0.666992 -1.33301 1 -2.33301 1 -3c0.666992 -0.666992 1 -1.33398 1 -2.00098l1 -2l1 -4
c1.33301 -2.66699 2.66602 -6 3.99902 -10l287 485h422l-397 -618h159l-32 -236h-275l-12 -90h225l-33 -236h-223l-51 -356h-393z" />
    <glyph glyph-name="brokenbar" unicode="&#xa6;" horiz-adv-x="627" vert-adv-y="2457" 
d="M623 1575l-80 -647h-399l80 647h399zM510 647l-80 -647h-399l80 647h399z" />
    <glyph glyph-name="section" unicode="&#xa7;" horiz-adv-x="1186" vert-adv-y="2457" 
d="M1077 1274l-319.999 -0.00292969v8c0 2.66699 -0.666992 5.33398 -2 8.00098c-10 104 -54.333 156 -133 156c-38 0 -69.667 -12.667 -95 -38c-23.333 -23.333 -35 -51.666 -35 -84.999c0 -21.333 7 -42 21 -62c12 -18 35.333 -36 70 -54c24 -13.333 70 -34 138 -62
c88.667 -36.667 152 -66 190 -88c142 -81.333 213 -196.333 213 -345c0 -66.667 -13.667 -130.334 -41 -191.001c-16.667 -38 -35.667 -65.667 -57 -83l-131 -102l-4 -8c4.66699 -10 29.667 -30 75 -60c24.667 -16 42.334 -33.667 53.001 -53
c30.667 -54.667 46 -118 46 -190c0 -125.333 -53.667 -226.666 -161 -303.999c-84 -60 -183.333 -90 -298 -90c-149.333 0 -265.333 45.333 -348 136c-69.333 75.333 -104 175 -104 299v16h325v-16c0 -60 16 -105 48 -135c24 -22.667 55.333 -34 94 -34
c41.333 0 75.666 13.667 102.999 41c26.667 26.667 40 59 40 97c0 54.667 -25 97.667 -75 129c-22 13.333 -74.333 34.333 -157 63c-90.667 30.667 -153.667 55 -189 73c-64 32.667 -115 77.334 -153 134.001c-44.667 68 -67 148 -67 240c0 56 9.66699 110 29 162
c15.333 42 37.666 78.333 66.999 109c25.333 26.667 64.333 55.667 117 87l10 6c-1.33301 3.33301 -27 26.333 -77 69c-24 20 -40 37.667 -48 53c-26.667 53.333 -40 113.333 -40 180c0 118 47.667 211.667 143 281c78.667 56.667 175 85 289 85
c88.667 0 170 -16.667 244 -50c146.667 -66 220 -187.333 220 -364v-18zM620.001 847.997c-46 0 -85.001 -16.332 -117.001 -48.999c-32.667 -32 -49 -71.333 -49 -118s16.333 -86.667 49 -120c32.667 -32.667 72.334 -49 119.001 -49c44.667 0 83 15.667 115 47
c34 33.333 51 73.666 51 120.999c0 46 -16.667 86 -50 120c-32 32 -71.333 48 -118 48z" />
    <glyph glyph-name="dieresis" unicode="&#xa8;" horiz-adv-x="1145" vert-adv-y="2457" 
d="M967 1584c48.667 0 91.332 -18.333 127.999 -55c36.667 -37.333 55 -81 55 -131c0 -51.333 -18 -95 -54 -131c-34.667 -35.333 -77 -53 -127 -53c-52.667 0 -97.667 18.667 -135 56c-36 36 -54 79.333 -54 130c0 50 17.667 93 53 129c36.667 36.667 81.334 55 134.001 55
zM502.998 1583c50 0 93.334 -18.333 130.001 -55c35.333 -35.333 53 -78.333 53 -129c0 -53.333 -18 -98.333 -54 -135c-34.667 -34.667 -77.667 -52 -129 -52c-52.667 0 -97.334 18.333 -134.001 55c-36 36 -54 79.667 -54 131c0 50.667 18 94 54 130
c36 36.667 80.667 55 134 55z" />
    <glyph glyph-name="copyright" unicode="&#xa9;" horiz-adv-x="1751" vert-adv-y="2457" 
d="M900 1571c137.333 0 268.001 -35.333 392.001 -106c123.333 -70 221 -167.333 293 -292s108 -260 108 -406c0 -142.667 -35.333 -275.667 -106 -399c-71.333 -125.333 -169 -224 -293 -296c-122.667 -71.333 -254.667 -107 -396 -107
c-142.667 0 -275.334 35.667 -398.001 107c-125.333 72 -224 171 -296 297c-70.667 122.667 -106 255.667 -106 399c0 218.667 78.333 408 235 568c85.333 86.667 187.666 151 306.999 193c80.667 28 167.334 42 260.001 42zM898.001 1428
c-111.333 0 -217 -28.998 -317 -86.998c-98.667 -56.667 -177 -135.334 -235 -236.001c-58.667 -102.667 -88 -214.667 -88 -336c0 -185.333 64.333 -343 193 -473c124 -125.333 272.333 -188 445 -188s320.667 62.333 444 187c64.667 65.333 114 141.666 148 228.999
c30 78 45 159 45 243c0 185.333 -65.333 344.333 -196 477c-120 122.667 -266.333 184 -439 184zM1267 1167l-30 -260.001l-23 16c-71.333 52 -146.666 78 -225.999 78c-88.667 0 -159.334 -26 -212.001 -78c-43.333 -43.333 -65 -97.333 -65 -162
c0 -62.667 20.333 -114.667 61 -156c47.333 -47.333 113 -71 197 -71c72 0 140.667 18 206 54l23 12l-31 -264l-12 -2c-3.33301 -0.666992 -22 -6.66699 -56 -18c-56 -18.667 -112.333 -28 -169 -28c-153.333 0 -277 46.333 -371 139c-86 86 -129 193 -129 321
c0 132.667 47 246.334 141 341.001c52.667 52.667 115 93 187 121c66 24.667 133.667 37 203 37c48.667 0 105 -8 169 -24c33.333 -8 76.333 -25.333 129 -52z" />
    <glyph glyph-name="ordfeminine" unicode="&#xaa;" horiz-adv-x="961" vert-adv-y="2457" 
d="M917 1540l-78 -588h-219l6 55c-54 -44.667 -115.333 -67 -184 -67c-68 0 -123.667 21.667 -167 65c-50 50 -75 118.333 -75 205s26 162.667 78 228c60.667 76 137.667 114 231 114c41.333 0 78 -8.33301 110 -25c18.667 -10 41.667 -26.667 69 -50l10 63h219zM20 612
l18 131h943l-17 -131h-944zM558 1370c-32.667 0 -61.332 -12.333 -85.999 -37c-26.667 -26 -40 -59.333 -40 -100c0 -34 10.333 -61 31 -81c19.333 -20 44 -30 74 -30c33.333 0 62.333 12.333 87 37c27.333 27.333 41 61 41 101c0 34 -10 61 -30 81
c-18.667 19.333 -44.334 29 -77.001 29z" />
    <glyph glyph-name="guillemotleft" unicode="&#xab;" horiz-adv-x="1090" vert-adv-y="2457" 
d="M889 526l262 -354l-209 -147l-350 501l350 500l203 -142zM383 526l262 -354l-211 -147l-350 501l350 500l205 -142z" />
    <glyph glyph-name="logicalnot" unicode="&#xac;" horiz-adv-x="1145" vert-adv-y="2457" 
d="M698 0v303h-573v383h999v-686h-426z" />
    <glyph glyph-name="sfthyphen" unicode="&#xad;" horiz-adv-x="518" vert-adv-y="2457" 
d="M0 620h518v-272h-518v272z" />
    <glyph glyph-name="registered" unicode="&#xae;" horiz-adv-x="1751" vert-adv-y="2457" 
d="M900 1571c137.333 0 268.001 -35.333 392.001 -106c123.333 -70 221 -167.333 293 -292s108 -260 108 -406c0 -142.667 -35.333 -275.667 -106 -399c-71.333 -125.333 -169 -224 -293 -296c-122.667 -71.333 -254.667 -107 -396 -107
c-142.667 0 -275.334 35.667 -398.001 107c-125.333 72 -224 171 -296 297c-70.667 122.667 -106 255.667 -106 399c0 218.667 78.333 408 235 568c85.333 86.667 187.666 151 306.999 193c80.667 28 167.334 42 260.001 42zM898.001 1428
c-111.333 0 -217 -28.998 -317 -86.998c-98.667 -56.667 -177 -135.334 -235 -236.001c-58.667 -102.667 -88 -214.667 -88 -336c0 -185.333 64.333 -343 193 -473c124 -125.333 272.333 -188 445 -188s320.667 62.333 444 187c64.667 65.333 114 141.666 148 228.999
c30 78 45 159 45 243c0 185.333 -65.333 344.333 -196 477c-120 122.667 -266.333 184 -439 184zM1079 661.002l244 -354h-322l-211 324l-39 -324h-272l113 922h325c130.667 0 223 -27.333 277 -82c52 -52.667 78 -123.667 78 -213c0 -130.667 -64.333 -221.667 -193 -273z
M839.001 1020l-24 -199.001h26c62 0 104.333 12.333 127 37c15.333 16.667 23 40.334 23 71.001c0 32 -7.66699 54.667 -23 68c-16.667 15.333 -50 23 -100 23h-29z" />
    <glyph glyph-name="degree" unicode="&#xb0;" horiz-adv-x="1298" vert-adv-y="2457" 
d="M766 1559c83.333 0 155 -30 215 -90s90 -132.667 90 -218c0 -84.667 -30 -157 -90 -217s-132.333 -90 -217 -90c-84 0 -156 30 -216 90c-60.667 60.667 -91 132.667 -91 216c0 86 30 159.333 90 220c59.333 59.333 132.333 89 219 89zM761 1399
c-39.333 0 -73.334 -14.334 -102.001 -43.001c-28 -28 -42 -61.667 -42 -101c0 -42 14.333 -77.333 43 -106s63.334 -43 104.001 -43c40 0 74 14.333 102 43c28.667 28.667 43 63.334 43 104.001c0 40 -14.333 74.333 -43 103s-63.667 43 -105 43z" />
    <glyph glyph-name="plusminus" unicode="&#xb1;" horiz-adv-x="1444" vert-adv-y="2457" 
d="M215 920h414v423h260v-423h416v-242h-416v-424h-260v424h-414v242zM215 152h1090v-242h-1090v242z" />
    <glyph glyph-name="twosuperior" unicode="&#xb2;" horiz-adv-x="735" vert-adv-y="2457" 
d="M96 1303c3.33301 45.333 9.66602 79.666 18.999 102.999c43.333 108.667 126.666 163 249.999 163c80.667 0 146.334 -24.667 197.001 -74c46 -46 69 -103.667 69 -173c0 -36.667 -7.33301 -70.667 -22 -102c-14 -29.333 -41 -66 -81 -110l-98 -109h209v-152h-555
l176 185c2.66699 2 28.667 31.333 78 88l45 60l20 26c29.333 46.667 44 86.334 44 119.001c0 27.333 -9 50 -27 68c-15.333 15.333 -33.666 23 -54.999 23c-26.667 0 -47.667 -10.333 -63 -31c-11.333 -15.333 -17 -43.333 -17 -84h-189z" />
    <glyph glyph-name="threesuperior" unicode="&#xb3;" horiz-adv-x="754" vert-adv-y="2457" 
d="M338 1155l-0.000976562 121.001h2h8c58.667 0 88 23.667 88 71c0 49.333 -24 74 -72 74c-46.667 0 -71.667 -27.333 -75 -82h-166c6.66699 44 15.334 76.667 26.001 98c42.667 86.667 117.334 130 224.001 130c74.667 0 133 -21.333 175 -64c36 -36.667 54 -83 54 -139
c0 -58 -25.333 -105 -76 -141c23.333 -8.66699 40.666 -17.667 51.999 -27c40.667 -32.667 61 -82.667 61 -150c0 -60.667 -20.333 -111.334 -61 -152.001c-50.667 -50 -121 -75 -211 -75c-62 0 -123 20.667 -183 62c-47.333 32 -77.333 77.667 -90 137
c-4 16 -6.66699 33.667 -8 53h184c3.33301 -30 11 -51.667 23 -65c20.667 -23.333 45.667 -35 75 -35c26 0 47.667 8.66699 65 26c18.667 18 28 41.667 28 71c0 58 -35.667 87 -107 87h-16z" />
    <glyph glyph-name="acute" unicode="&#xb4;" horiz-adv-x="897" vert-adv-y="2457" 
d="M952 1509l-356 -311l-170 125l289 354z" />
    <glyph glyph-name="mu1" unicode="&#xb5;" horiz-adv-x="1300" vert-adv-y="2457" 
d="M347 18v-416.999h-380l197 1448l2 -2v2h381l-62 -449l-12 -98c-4 -23.333 -6 -42.333 -6 -57c0 -42.667 13.667 -77.667 41 -105c31.333 -32 73 -48 125 -48c50 0 92.333 15 127 45c31.333 27.333 53 89.666 65 186.999l10 84l62 441h379l-54 -394l-24 -180
c-14 -100 -30 -174.667 -48 -224c-29.333 -78 -84 -140.667 -164 -188c-96.667 -57.333 -222 -86 -376 -86c-56 0 -100.667 2.66699 -134 8c-36.667 5.33301 -79.667 16.333 -129 33z" />
    <glyph glyph-name="paragraph" unicode="&#xb6;" horiz-adv-x="1300" vert-adv-y="2457" 
d="M371 -211l116 950h-26c-92 0 -167.333 29.333 -226 88c-69.333 70 -104 168.333 -104 295c0 130.667 39 230 117 298c88 77.333 231.333 116 430 116h737l-27 -227h-170l-186 -1520h-250l187 1520h-162l-187 -1520h-249z" />
    <glyph glyph-name="middot" unicode="&#xb7;" horiz-adv-x="276" vert-adv-y="2457" 
d="M157 928c40 0 74 -13.667 102 -41c26.667 -26.667 40 -58.334 40 -95.001c0 -40.667 -14 -75 -42 -103c-27.333 -26.667 -60.666 -40 -99.999 -40c-36.667 0 -68.334 12.667 -95.001 38c-28 28 -42 62.667 -42 104c0 38.667 13.333 71.334 40 98.001
c26 26 58.333 39 97 39z" />
    <glyph glyph-name="cedilla" unicode="&#xb8;" horiz-adv-x="1077" vert-adv-y="2457" 
d="M789 -246l-269 -252l-141 138l244 268z" />
    <glyph glyph-name="onesuperior" unicode="&#xb9;" horiz-adv-x="436" vert-adv-y="2457" 
d="M166 1417h-96v152h276v-690h-180v538z" />
    <glyph glyph-name="ordmasculine" unicode="&#xba;" horiz-adv-x="961" vert-adv-y="2457" 
d="M574 1552c110 0 197.669 -32.333 263.002 -97c52 -52 78 -116 78 -192c0 -89.333 -29.667 -163.666 -89 -222.999c-66.667 -66.667 -156.334 -100 -269.001 -100c-99.333 0 -181.333 25.667 -246 77c-67.333 53.333 -101 125.666 -101 216.999
c0 85.333 29 157.333 87 216c67.333 68 159.666 102 276.999 102zM20.002 612l18 131h943l-17 -131h-944zM570.002 1374c-36.667 0 -67.666 -12.667 -92.999 -38c-26 -26.667 -39 -59 -39 -97c0 -34 11.667 -62.667 35 -86s51.666 -35 84.999 -35c37.333 0 69 13 95 39
s39 57.333 39 94s-11.333 66.667 -34 90c-22 22 -51.333 33 -88 33z" />
    <glyph glyph-name="guillemotright" unicode="&#xbb;" horiz-adv-x="1090" vert-adv-y="2457" 
d="M375 526l-256 358l203 142l350 -500l-350 -501l-209 147zM883 526l-258 358l205 142l350 -500l-350 -501l-211 147z" />
    <glyph glyph-name="onequarter" unicode="&#xbc;" horiz-adv-x="1249" vert-adv-y="2457" 
d="M887 1536h338l-893 -1536h-338zM166 1417h-96v152h276v-690h-180v538zM1131 288h84v-147h-84v-141h-166v141h-334v116l266 433h234v-402zM965 288v246l-156 -246h156z" />
    <glyph glyph-name="onehalf" unicode="&#xbd;" horiz-adv-x="1395" vert-adv-y="2457" 
d="M887 1536h338l-893 -1536h-338zM166 1417h-96v152h276v-690h-180v538zM788 453c3.33301 45.333 9.66602 79.6689 18.999 103.002c43.333 108.667 126.666 163 249.999 163c80.667 0 146.334 -24.667 197.001 -74c46 -46 69 -103.667 69 -173
c0 -36.667 -7.33301 -70.667 -22 -102c-14 -28.667 -41 -65 -81 -109l-98 -109h209v-152h-555l176 185c7.33301 7.33301 33.333 36.666 78 87.999c28 35.333 49.667 64 65 86c29.333 46 44 85.333 44 118c0 27.333 -9 49.666 -27 66.999
c-15.333 15.333 -33.666 23 -54.999 23c-53.333 0 -80 -38 -80 -114h-189z" />
    <glyph glyph-name="threequarters" unicode="&#xbe;" horiz-adv-x="1507" vert-adv-y="2457" 
d="M1112 1536h338l-893 -1536h-338zM1356 288h84v-147h-84v-141h-166v141h-334v116l266 433h234v-402zM1190 288v246l-156 -246h156zM338 1155l-0.000976562 121.001h2h8c58.667 0 88 23.667 88 71c0 49.333 -24 74 -72 74c-46.667 0 -71.667 -27.333 -75 -82h-166
c6.66699 44 15.334 76.667 26.001 98c42.667 86.667 117.334 130 224.001 130c74.667 0 133 -21.333 175 -64c36 -36.667 54 -83 54 -139c0 -58 -25.333 -105 -76 -141c23.333 -8.66699 40.666 -17.667 51.999 -27c40.667 -32.667 61 -82.667 61 -150
c0 -60.667 -20.333 -111.334 -61 -152.001c-50.667 -50 -121 -75 -211 -75c-62 0 -123 20.667 -183 62c-47.333 32 -77.333 77.667 -90 137c-4 16 -6.66699 33.667 -8 53h184c3.33301 -30 11 -51.667 23 -65c20.667 -23.333 45.667 -35 75 -35c26 0 47.667 8.66699 65 26
c18.667 18 28 41.667 28 71c0 58 -35.667 87 -107 87h-16z" />
    <glyph glyph-name="questiondown" unicode="&#xbf;" horiz-adv-x="1075" vert-adv-y="2457" 
d="M867 674v-385h-70c-87.333 0 -157 -20.333 -209 -61c-46.667 -36.667 -70 -84 -70 -142c0 -44.667 14.667 -81.334 44 -110.001c28.667 -28.667 64.667 -43 108 -43c48.667 0 84.667 17.333 108 52c15.333 22.667 26 57.667 32 105h405
c-6.66699 -71.333 -17.667 -126.666 -33 -165.999c-35.333 -90 -94.333 -162.667 -177 -218c-96 -63.333 -208.333 -95 -337 -95c-166 0 -302 53 -408 159c-91.333 91.333 -137 201 -137 329s51 233.667 153 317c41.333 33.333 113.333 71 216 113v145h375zM672 1232
c64.667 0 120 -23.001 166 -69.001c46.667 -46 70 -102.667 70 -170c0 -65.333 -23.333 -121.333 -70 -168c-46 -46 -101.333 -69 -166 -69c-68.667 0 -126 23.333 -172 70c-45.333 45.333 -68 101 -68 167c0 66.667 23.333 123.334 70 170.001c45.333 46 102 69 170 69z
" />
    <glyph glyph-name="Agrave" unicode="&#xc0;" horiz-adv-x="1602" vert-adv-y="2457" 
d="M526 281l-129 -281h-430l760 1536h438l373 -1536h-410l-67 281h-535zM669 588l313.999 -0.000976562l-58 268c-3.33301 16.667 -8.33301 39.334 -15 68.001c-8 33.333 -17.333 88 -28 164c-0.666992 -3.33301 -3 -10 -7 -20l-3 -11l-4 -10
c-1.33301 -4 -2.66602 -8.33301 -3.99902 -13c-16 -46 -33 -89 -51 -129zM714.999 1839l192 176l301 -284l-141 -132z" />
    <glyph glyph-name="Aacute" unicode="&#xc1;" horiz-adv-x="1602" vert-adv-y="2457" 
d="M526 281l-129 -281h-430l760 1536h438l373 -1536h-410l-67 281h-535zM669 588l313.999 -0.000976562l-58 268c-3.33301 16.667 -8.33301 39.334 -15 68.001c-8 33.333 -17.333 88 -28 164c-0.666992 -3.33301 -3 -10 -7 -20l-3 -11l-4 -10
c-1.33301 -4 -2.66602 -8.33301 -3.99902 -13c-16 -46 -33 -89 -51 -129zM1208 1839l-352 -240l-141 132l301 284z" />
    <glyph glyph-name="Acircumflex" unicode="&#xc2;" horiz-adv-x="1602" vert-adv-y="2457" 
d="M526 281l-129 -281h-430l760 1536h438l373 -1536h-410l-67 281h-535zM669 588l313.999 -0.000976562l-58 268c-3.33301 16.667 -8.33301 39.334 -15 68.001c-8 33.333 -17.333 88 -28 164c-0.666992 -3.33301 -3 -10 -7 -20l-3 -11l-4 -10
c-1.33301 -4 -2.66602 -8.33301 -3.99902 -13c-16 -46 -33 -89 -51 -129zM511.999 1751l450 252l451 -252l-100 -156l-351 162l-350 -162z" />
    <glyph glyph-name="Atilde" unicode="&#xc3;" horiz-adv-x="1602" vert-adv-y="2457" 
d="M526 281l-129 -281h-430l760 1536h438l373 -1536h-410l-67 281h-535zM669 588l313.999 -0.000976562l-58 268c-3.33301 16.667 -8.33301 39.334 -15 68.001c-8 33.333 -17.333 88 -28 164c-0.666992 -3.33301 -3 -10 -7 -20l-3 -11l-4 -10
c-1.33301 -4 -2.66602 -8.33301 -3.99902 -13c-16 -46 -33 -89 -51 -129zM695.999 1595l-174 0.000976562v25c0 74 20.333 136.333 61 187c43.333 54 99.333 81 168 81c30 0 94.333 -11.667 193 -35c27.333 -6.66699 53 -13.667 77 -21c17.333 -5.33301 36.333 -8 57 -8
c19.333 0 34 4.33301 44 13c8.66699 7.33301 19.667 25.666 33 54.999h178c-26.667 -198 -118 -297 -274 -297c-28.667 0 -54 3.66699 -76 11l-31 9c-10.667 2.66699 -25.667 7 -45 13c-76 22 -124 33 -144 33c-30 0 -50.333 -16 -61 -48z" />
    <glyph glyph-name="Adieresis" unicode="&#xc4;" horiz-adv-x="1602" vert-adv-y="2457" 
d="M526 281l-129 -281h-430l760 1536h438l373 -1536h-410l-67 281h-535zM669 588l313.999 -0.000976562l-58 268c-3.33301 16.667 -8.33301 39.334 -15 68.001c-8 33.333 -17.333 88 -28 164c-0.666992 -3.33301 -3 -10 -7 -20l-3 -11l-4 -10
c-1.33301 -4 -2.66602 -8.33301 -3.99902 -13c-16 -46 -33 -89 -51 -129zM714.999 1955c48 0 89.334 -17.332 124.001 -51.999c35.333 -35.333 53 -78 53 -128c0 -49.333 -17.333 -91.333 -52 -126s-77.334 -52 -128.001 -52c-50 0 -92.333 17.333 -127 52
c-34 34 -51 75.333 -51 124c0 51.333 17.333 94.666 52 129.999c34.667 34.667 77.667 52 129 52zM1173 1955c48.667 0 90.334 -17.666 125.001 -52.999c35.333 -34.667 53 -77 53 -127c0 -49.333 -17.333 -91.333 -52 -126s-77.334 -52 -128.001 -52
c-50 0 -92.333 17.333 -127 52c-34 34 -51 75.333 -51 124c0 51.333 17.667 94.666 53 129.999c34.667 34.667 77 52 127 52z" />
    <glyph glyph-name="Aring" unicode="&#xc5;" horiz-adv-x="1602" vert-adv-y="2457" 
d="M526 281l-129 -281h-430l760 1536h438l373 -1536h-410l-67 281h-535zM669 588l313.999 -0.000976562l-58 268c-3.33301 16.667 -8.33301 39.334 -15 68.001c-8 33.333 -17.333 88 -28 164c-0.666992 -3.33301 -3 -10 -7 -20l-3 -11l-4 -10
c-1.33301 -4 -2.66602 -8.33301 -3.99902 -13c-16 -46 -33 -89 -51 -129zM960.999 1925c43.333 0 80.666 -15.667 111.999 -47s47 -69 47 -113c0 -45.333 -15.667 -83.666 -47 -114.999c-30.667 -30.667 -68 -46 -112 -46s-81.667 15.333 -113 46
c-31.333 31.333 -47 68.666 -47 111.999c0 46 15.667 85 47 117c30.667 30.667 68.334 46 113.001 46zM959.999 1829c-17.333 0 -32.667 -6.66895 -46 -20.002c-12.667 -12 -19 -26.667 -19 -44c0 -18 6.33301 -33.333 19 -46s28 -19 46 -19
c18.667 0 34.334 6.33301 47.001 19s19 28.334 19 47.001c0 16.667 -6.33301 31.334 -19 44.001s-28.334 19 -47.001 19z" />
    <glyph glyph-name="AE" unicode="&#xc6;" horiz-adv-x="2124" vert-adv-y="2457" 
d="M1677 1536l84 -338h-487l71 -260h467l84 -340h-463l68 -260h477l82 -338h-858l-68 276h-626l-133 -276h-408l745 1536h965zM651 581h416l-99 410l-20 82c-8 36 -15.667 80.333 -23 133c-22.667 -60 -54.667 -138.333 -96 -235z" />
    <glyph glyph-name="Ccedilla" unicode="&#xc7;" horiz-adv-x="1413" vert-adv-y="2457" 
d="M990 -28l-17 -118.999h-305l17 141c-98 29.333 -175 62 -231 98c-104.667 68 -185.334 156.333 -242.001 265c-58 110.667 -87 233.667 -87 369c0 156.667 38 300 114 430c72.667 124 170.667 222.333 294 295c130.667 76 275.334 114 434.001 114
c124.667 0 254 -30 388 -90c46 -20.667 69 -40.667 69 -60v-6l-37 -299c-3.33301 -27.333 -8 -41 -14 -41c-5.33301 0 -10.333 2 -15 6l-22 18c-38 30.667 -88.333 56 -151 76c-62.667 19.333 -124.667 29 -186 29c-143.333 0 -260.333 -45 -351 -135
c-84 -83.333 -126 -188.666 -126 -315.999c0 -118.667 37.667 -215.334 113 -290.001c80 -79.333 187.333 -119 322 -119c126.667 0 233.667 30 321 90c6 4 11 6 15 6c5.33301 0 8 -3.33301 8 -10v-4v-19l-43 -337c-2 -14 -15.667 -25.667 -41 -35l-27 -10
c-65.333 -26.667 -132 -42.334 -200 -47.001z" />
    <glyph glyph-name="Egrave" unicode="&#xc8;" horiz-adv-x="1126" vert-adv-y="2457" 
d="M1143 1536l-41 -338h-452l-33 -264h436l-41 -338h-438l-31 -258h471l-43 -338h-858l188 1536h136l-48 63h572l47 -63h135z" />
    <glyph glyph-name="Eacute" unicode="&#xc9;" horiz-adv-x="1126" vert-adv-y="2457" 
d="M1143 1536l-41 -338h-452l-33 -264h436l-41 -338h-438l-31 -258h471l-43 -338h-858l188 1536h136l45 63h573l-47 -63h135z" />
    <glyph glyph-name="Ecircumflex" unicode="&#xca;" horiz-adv-x="1126" vert-adv-y="2457" 
d="M1143 1536l-41 -338h-452l-33 -264h436l-41 -338h-438l-31 -258h471l-43 -338h-858l188 1536h136l45 63h458l45 -63h158z" />
    <glyph glyph-name="Edieresis" unicode="&#xcb;" horiz-adv-x="1190" vert-adv-y="2457" 
d="M1143 1536l-41 -338h-452l-33 -264h436l-41 -338h-438l-31 -258h471l-43 -338h-858l188 1536h842zM511 1955c48 0 89.334 -17.332 124.001 -51.999c35.333 -35.333 53 -78 53 -128s-17.333 -92 -52 -126c-34.667 -34.667 -77.334 -52 -128.001 -52
c-50 0 -92.333 17.333 -127 52c-34 34 -51 75.333 -51 124c0 51.333 17.333 94.666 52 129.999c34.667 34.667 77.667 52 129 52zM969.001 1955c48.667 0 90.668 -17.666 126.001 -52.999c34.667 -34.667 52 -77 52 -127c0 -49.333 -17.333 -91.333 -52 -126
s-77.334 -52 -128.001 -52c-50 0 -92.333 17.333 -127 52c-34 34 -51 75.333 -51 124c0 51.333 17.667 94.666 53 129.999c34.667 34.667 77 52 127 52z" />
    <glyph glyph-name="Igrave" unicode="&#xcc;" horiz-adv-x="645" vert-adv-y="2457" 
d="M711 1536l-189 -1536h-389l188 1536h390zM285 1839l192 176l301 -284l-141 -132z" />
    <glyph glyph-name="Iacute" unicode="&#xcd;" horiz-adv-x="651" vert-adv-y="2457" 
d="M406 0h-410l188 1530h410zM655 1839l-352 -240l-141 132l301 284z" />
    <glyph glyph-name="Icircumflex" unicode="&#xce;" horiz-adv-x="647" vert-adv-y="2457" 
d="M727 1536l-189 -1536h-389l189 1536h389zM102 1751l451 252l450 -252l-100 -156l-350 162l-351 -162z" />
    <glyph glyph-name="Idieresis" unicode="&#xcf;" horiz-adv-x="651" vert-adv-y="2457" 
d="M711 1536l-189 -1536h-389l189 1536h389zM306 1955c48.667 0 90.001 -17.332 124.001 -51.999c35.333 -35.333 53 -78 53 -128c0 -49.333 -17.333 -91.333 -52 -126s-77.334 -52 -128.001 -52c-50 0 -92.333 17.333 -127 52c-34 34 -51 75.333 -51 124
c0 51.333 17.333 94.666 52 129.999c34.667 34.667 77.667 52 129 52zM764.001 1955c48.667 0 90.334 -17.666 125.001 -52.999c35.333 -34.667 53 -77 53 -127c0 -49.333 -17.333 -91.333 -52 -126s-77.334 -52 -128.001 -52c-50 0 -92.333 17.333 -127 52
c-34 34 -51 75.333 -51 124c0 51.333 17.667 94.666 53 129.999c34 34.667 76.333 52 127 52z" />
    <glyph glyph-name="Eth" unicode="&#xd0;" horiz-adv-x="1597" vert-adv-y="2457" 
d="M561 930l414 -0.000976562v-231h-414v-361h90c133.333 0 240 39.667 320 119c78 78.667 117 182.334 117 311.001c0 129.333 -39 233 -117 311c-80 79.333 -186.667 119 -320 119h-90v-268zM4 929.999l158.001 0.00195312v606h588c127.333 0 248.333 -33.333 363 -100
c121.333 -70.667 217.666 -167.667 288.999 -291c68.667 -118.667 103 -244.334 103 -377.001s-34 -258.334 -102 -377.001c-71.333 -124 -168 -221.333 -290 -292c-114 -66 -235 -99 -363 -99h-588v699h-158v231z" />
    <glyph glyph-name="Ntilde" unicode="&#xd1;" horiz-adv-x="1868" vert-adv-y="2457" 
d="M1817 1536l-188 -1536h-426l-410 688c-1.33301 2 -4 6.66699 -8 14l-58 107c-40 74.667 -80.667 161.334 -122 260.001v-70c-0.666992 -108.667 -6.33398 -205.334 -17.001 -290.001l-86 -709h-389l188 1536h420l439 -741l65 -123l59 -119l31 -57v10
c0 22.667 0.666992 40.334 2 53.001c0.666992 3.33301 1.33398 19 2.00098 47c2 45.333 7 96.666 15 153.999l96 776h387zM881 1595l-174.002 0.000976562v25c0 74 20 136.333 60 187c44 54 100 81 168 81c30 0 94.333 -11.667 193 -35c28 -6.66699 53.667 -13.667 77 -21
c18 -5.33301 37 -8 57 -8s35 4.33301 45 13c8 7.33301 18.667 25.666 32 54.999h179c-27.333 -198 -118.666 -297 -273.999 -297c-29.333 0 -54.666 3.66699 -75.999 11l-31 9c-10.667 2.66699 -25.667 7 -45 13c-76.667 22 -125 33 -145 33c-29.333 0 -49.333 -16 -60 -48z
" />
    <glyph glyph-name="Ograve" unicode="&#xd2;" horiz-adv-x="1860" vert-adv-y="2457" 
d="M1798 846v-29c0 -256 -77.667 -462 -233 -618c-153.333 -153.333 -355 -230 -605 -230c-257.333 0 -464 77.333 -620 232c-143.333 142.667 -215 325 -215 547c0 232 76.667 424 230 576c78.667 78 172 137.667 280 179c111.333 42.667 231 64 359 64
c252.667 0 455 -76 607 -228c131.333 -132 197 -296.333 197 -493zM975 1198c-132.667 0 -242 -43.002 -328 -129.002c-82 -82.667 -123 -186 -123 -310c0 -123.333 38.667 -223.666 116 -300.999c79.333 -80 184.333 -120 315 -120c132.667 0 241 42 325 126
c40 40 70.667 87.667 92 143c19.333 52 29 100 29 144c0 11.333 -0.333008 22.333 -1 33c-0.666992 8 -1 14.333 -1 19c0 48 -14 104 -42 168c-32 72.667 -80.333 128.334 -145 167.001c-66 40 -145 60 -237 60zM715 1839l192 176l301 -284l-141 -132z" />
    <glyph glyph-name="Oacute" unicode="&#xd3;" horiz-adv-x="1860" vert-adv-y="2457" 
d="M1798 846v-29c0 -256 -77.667 -462 -233 -618c-153.333 -153.333 -355 -230 -605 -230c-257.333 0 -464 77.333 -620 232c-143.333 142.667 -215 325 -215 547c0 232 76.667 424 230 576c78.667 78 172 137.667 280 179c111.333 42.667 231 64 359 64
c252.667 0 455 -76 607 -228c131.333 -132 197 -296.333 197 -493zM975 1198c-132.667 0 -242 -43.002 -328 -129.002c-82 -82.667 -123 -186 -123 -310c0 -123.333 38.667 -223.666 116 -300.999c79.333 -80 184.333 -120 315 -120c132.667 0 241 42 325 126
c40 40 70.667 87.667 92 143c19.333 52 29 100 29 144c0 11.333 -0.333008 22.333 -1 33c-0.666992 8 -1 14.333 -1 19c0 48 -14 104 -42 168c-32 72.667 -80.333 128.334 -145 167.001c-66 40 -145 60 -237 60zM1208 1839l-352 -240l-141 132l301 284z" />
    <glyph glyph-name="Ocircumflex" unicode="&#xd4;" horiz-adv-x="1860" vert-adv-y="2457" 
d="M1798 846v-29c0 -256 -77.667 -462 -233 -618c-153.333 -153.333 -355 -230 -605 -230c-257.333 0 -464 77.333 -620 232c-143.333 142.667 -215 325 -215 547c0 232 76.667 424 230 576c78.667 78 172 137.667 280 179c111.333 42.667 231 64 359 64
c252.667 0 455 -76 607 -228c131.333 -132 197 -296.333 197 -493zM975 1198c-132.667 0 -242 -43.002 -328 -129.002c-82 -82.667 -123 -186 -123 -310c0 -123.333 38.667 -223.666 116 -300.999c79.333 -80 184.333 -120 315 -120c132.667 0 241 42 325 126
c40 40 70.667 87.667 92 143c19.333 52 29 100 29 144c0 11.333 -0.333008 22.333 -1 33c-0.666992 8 -1 14.333 -1 19c0 48 -14 104 -42 168c-32 72.667 -80.333 128.334 -145 167.001c-66 40 -145 60 -237 60zM553 1751l451 252l450 -252l-100 -156l-350 162l-351 -162z
" />
    <glyph glyph-name="Otilde" unicode="&#xd5;" horiz-adv-x="1860" vert-adv-y="2457" 
d="M1798 846v-29c0 -256 -77.667 -462 -233 -618c-153.333 -153.333 -355 -230 -605 -230c-257.333 0 -464 77.333 -620 232c-143.333 142.667 -215 325 -215 547c0 232 76.667 424 230 576c78.667 78 172 137.667 280 179c111.333 42.667 231 64 359 64
c252.667 0 455 -76 607 -228c131.333 -132 197 -296.333 197 -493zM975 1198c-132.667 0 -242 -43.002 -328 -129.002c-82 -82.667 -123 -186 -123 -310c0 -123.333 38.667 -223.666 116 -300.999c79.333 -80 184.333 -120 315 -120c132.667 0 241 42 325 126
c40 40 70.667 87.667 92 143c19.333 52 29 100 29 144c0 11.333 -0.333008 22.333 -1 33c-0.666992 8 -1 14.333 -1 19c0 48 -14 104 -42 168c-32 72.667 -80.333 128.334 -145 167.001c-66 40 -145 60 -237 60zM799 1595h-174v25c0 74 20.333 136.333 61 187
c43.333 54 99.333 81 168 81c30 0 94.333 -11.667 193 -35c27.333 -6.66699 53 -13.667 77 -21c17.333 -5.33301 36.333 -8 57 -8c20 0 34.333 3.83301 43 11.5s20 26.5 34 56.5h178c-26.667 -198 -118 -297 -274 -297c-28.667 0 -54 3.66699 -76 11l-31 9
c-10.667 2.66699 -25.667 7 -45 13c-76 22 -124 33 -144 33c-30 0 -50.333 -16 -61 -48z" />
    <glyph glyph-name="Odieresis" unicode="&#xd6;" horiz-adv-x="1860" vert-adv-y="2457" 
d="M1798 846v-29c0 -256 -77.667 -462 -233 -618c-153.333 -153.333 -355 -230 -605 -230c-257.333 0 -464 77.333 -620 232c-143.333 142.667 -215 325 -215 547c0 232 76.667 424 230 576c78.667 78 172 137.667 280 179c111.333 42.667 231 64 359 64
c252.667 0 455 -76 607 -228c131.333 -132 197 -296.333 197 -493zM975 1198c-132.667 0 -242 -43.002 -328 -129.002c-82 -82.667 -123 -186 -123 -310c0 -123.333 38.667 -223.666 116 -300.999c79.333 -80 184.333 -120 315 -120c132.667 0 241 42 325 126
c40 40 70.667 87.667 92 143c19.333 52 29 100 29 144c0 11.333 -0.333008 22.333 -1 33c-0.666992 8 -1 14.333 -1 19c0 48 -14 104 -42 168c-32 72.667 -80.333 128.334 -145 167.001c-66 40 -145 60 -237 60zM777 1955c48 0 89.334 -17.332 124.001 -51.999
c35.333 -35.333 53 -78 53 -128c0 -49.333 -17.333 -91.333 -52 -126s-77.334 -52 -128.001 -52c-50 0 -92.333 17.333 -127 52c-34 34 -51 75.333 -51 124c0 51.333 17.333 94.666 52 129.999c34.667 34.667 77.667 52 129 52zM1235 1955
c48.667 0 90.334 -17.666 125.001 -52.999c35.333 -34.667 53 -77 53 -127c0 -49.333 -17.333 -91.333 -52 -126s-77.334 -52 -128.001 -52c-50 0 -92.333 17.333 -127 52c-34 34 -51 75.333 -51 124c0 51.333 17.667 94.666 53 129.999c34.667 34.667 77 52 127 52z" />
    <glyph glyph-name="multiply" unicode="&#xd7;" horiz-adv-x="0" vert-adv-y="2457" 
 />
    <glyph glyph-name="Oslash" unicode="&#xd8;" horiz-adv-x="1808" vert-adv-y="2457" 
d="M1708 1311l-63.001 -62c44.667 -66 77.667 -127 99 -183c30.667 -81.333 46 -170.666 46 -267.999c0 -234 -78.333 -429.667 -235 -587c-161.333 -161.333 -365.333 -242 -612 -242c-195.333 0 -371 54.667 -527 164l-84 -78l-164 181l68 59
c-100 118.667 -150 269 -150 451c0 152.667 36 291.667 108 417c68.667 119.333 163.334 214.333 284.001 285c136 79.333 291.667 119 467 119c116.667 0 225 -17.667 325 -53c60 -20.667 126.667 -52.334 200 -95.001l78 70zM1333 971l-620 -569.999
c53.333 -36.667 124.333 -55 213 -55c124 0 228 42 312 126c86.667 87.333 130 196.666 130 327.999c0 59.333 -11.667 116.333 -35 171zM1173 1147c-58 36.667 -130.999 55 -218.999 55c-124.667 0 -229.334 -42.333 -314.001 -127c-86.667 -87.333 -130 -197 -130 -329
c0 -60 12.333 -117 37 -171z" />
    <glyph glyph-name="Ugrave" unicode="&#xd9;" horiz-adv-x="1677" vert-adv-y="2457" 
d="M1624 1536l-108.999 -889c-17.333 -146 -38.666 -255 -63.999 -327c-36.667 -106.667 -102.334 -189 -197.001 -247c-115.333 -69.333 -262 -104 -440 -104c-190.667 0 -339 39.667 -445 119c-60.667 44.667 -108.334 103.667 -143.001 177
c-34.667 72.667 -52 150 -52 232c0 40 6 110 18 210l101 829h389l-100 -829c-7.33301 -54 -11 -96 -11 -126c0 -162 85.333 -243 256 -243c96.667 0 169 26 217 78c23.333 24.667 41.333 54.667 54 90c12 33.333 22 85.333 30 156l107 874h389zM715.001 1839l192 176
l301 -284l-141 -132z" />
    <glyph glyph-name="Uacute" unicode="&#xda;" horiz-adv-x="1677" vert-adv-y="2457" 
d="M1624 1536l-108.999 -889c-17.333 -146 -38.666 -255 -63.999 -327c-36.667 -106.667 -102.334 -189 -197.001 -247c-115.333 -69.333 -262 -104 -440 -104c-190.667 0 -339 39.667 -445 119c-60.667 44.667 -108.334 103.667 -143.001 177
c-34.667 72.667 -52 150 -52 232c0 40 6 110 18 210l101 829h389l-100 -829c-7.33301 -54 -11 -96 -11 -126c0 -162 85.333 -243 256 -243c96.667 0 169 26 217 78c23.333 24.667 41.333 54.667 54 90c12 33.333 22 85.333 30 156l107 874h389zM1229 1839l-353 -240
l-141 132l301 284z" />
    <glyph glyph-name="Ucircumflex" unicode="&#xdb;" horiz-adv-x="1677" vert-adv-y="2457" 
d="M1624 1536l-108.999 -889c-17.333 -146 -38.666 -255 -63.999 -327c-36.667 -106.667 -102.334 -189 -197.001 -247c-115.333 -69.333 -262 -104 -440 -104c-190.667 0 -339 39.667 -445 119c-60.667 44.667 -108.334 103.667 -143.001 177
c-34.667 72.667 -52 150 -52 232c0 40 6 110 18 210l101 829h389l-100 -829c-7.33301 -54 -11 -96 -11 -126c0 -162 85.333 -243 256 -243c96.667 0 169 26 217 78c23.333 24.667 41.333 54.667 54 90c12 33.333 22 85.333 30 156l107 874h389zM512.001 1751l450 252
l451 -252l-100 -156l-351 162l-350 -162z" />
    <glyph glyph-name="Udieresis" unicode="&#xdc;" horiz-adv-x="1677" vert-adv-y="2457" 
d="M1624 1536l-108.999 -889c-17.333 -146 -38.666 -255 -63.999 -327c-36.667 -106.667 -102.334 -189 -197.001 -247c-115.333 -69.333 -262 -104 -440 -104c-190.667 0 -339 39.667 -445 119c-60.667 44.667 -108.334 103.667 -143.001 177
c-34.667 72.667 -52 150 -52 232c0 40 6 110 18 210l101 829h389l-100 -829c-7.33301 -54 -11 -96 -11 -126c0 -162 85.333 -243 256 -243c96.667 0 169 26 217 78c23.333 24.667 41.333 54.667 54 90c12 33.333 22 85.333 30 156l107 874h389zM736.001 1955
c48 0 89.334 -17.332 124.001 -51.999c35.333 -35.333 53 -78 53 -128c0 -49.333 -17.333 -91.333 -52 -126s-77.334 -52 -128.001 -52c-50 0 -92.333 17.333 -127 52c-34 34 -51 75.333 -51 124c0 51.333 17.333 94.666 52 129.999c34.667 34.667 77.667 52 129 52z
M1194 1955c48.667 0 90.668 -17.666 126.001 -52.999c34.667 -34.667 52 -77 52 -127s-17.333 -92 -52 -126c-34.667 -34.667 -77.334 -52 -128.001 -52c-50 0 -92.333 17.333 -127 52c-34 34 -51 75.333 -51 124c0 51.333 17.667 94.666 53 129.999
c34.667 34.667 77 52 127 52z" />
    <glyph glyph-name="Yacute" unicode="&#xdd;" horiz-adv-x="9531" vert-adv-y="2457" 
d="M3111 27v-8.99902c-0.666992 -12 -6.66699 -18 -18 -18h-355c-15.333 -0.666992 -24 6 -26 20l-56 216c-2.66699 15.333 -13.334 23.333 -32 24h-500c-19.333 0 -33 -8 -41 -24l-102 -211c-8.66699 -16.667 -25.334 -25 -50.001 -25h-399c-13.333 0 -17.666 8 -12.999 24
c0.666992 3.33301 1.66699 6.33301 3 9l729 1474c5.33301 11.333 10.333 18.666 15 21.999c6 4.66699 16.667 7 32 7h473c18 -0.666992 29.667 -11.667 35 -33zM3834 932.001c-0.666992 -2.66699 -1.66699 -6.00195 -3 -10.002c-0.666992 -2 -1.66699 -7.66699 -3 -17
l-123 -876c-2.66699 -19.333 -13.667 -29 -33 -29h-342c-16 0 -25.667 1 -29 3c-4 2.66699 -6 8.33398 -6 17.001c0 0.666992 0.333008 1.33398 1 2.00098v3c0.666992 1.33301 1 2.66602 1 3.99902l199 1480c1.33301 18 13 27 35 27h389c14 0 23 -1 27 -3
c6.66699 -3.33301 14 -12 22 -26l457 -805c8 -14 14.666 -21.333 20 -22c0 0.666992 0.666016 1.66699 2 3c2 6 43 285.333 123 838c4 10 15.666 15 35 15h362c10.666 0 17.333 -1 20 -3c4.66602 -3.33301 7 -10 7 -20v-6l-205 -1482c-2.66602 -16.667 -15 -25 -37 -25h-352
c-22 0.666992 -38.334 10.334 -49 29.001l-502 882c-6 12.667 -11.333 19.667 -16 21zM4974 28.999l725 1480c5.33398 10.667 10.667 17.334 16 20.001c6 4.66699 16.334 7 31 7h451c12 0 20.666 -2 26 -6c4 -3.33301 7.66602 -11.666 11 -24.999l309 -1472l1 -4
c0.666016 -3.33301 1 -6.33301 1 -9c0 -9.33301 -1 -14.666 -3 -15.999c-3.33398 -2.66699 -10.334 -4 -21 -4h-351c-22 0.666992 -34.666 10.334 -38 29.001l-39 198c-3.33398 14 -7.66699 23 -13 27c-4.66602 4 -14.666 6 -30 6h-474c-13.334 0 -22 -1 -26 -3
c-5.33398 -2 -11 -8.33301 -17 -19l-110 -215c-8 -15.333 -22.334 -23 -43 -23h-393c-12 0 -17.666 3 -17 9v3c0 2 1 5.66699 3 11c0 0.666992 0.333984 2 1 4v2zM6713 26.9951l213 1476c4 21.333 13 32.333 27 33h387c6 0 10.334 -0.333008 13 -1
c4.66602 -1.33301 7 -7 7 -17v-7l-153 -1138v-4c0 -14.667 7.33398 -22.334 22 -23.001h414c14 -0.666992 20.666 -7.33398 20 -20.001v-9l-41 -292c-1.33398 -16.667 -11.334 -25 -30 -25h-860c-12.666 0 -19 5.33301 -19 16v11zM8732 579.997v-550.999
c0 -19.333 -6.66699 -29 -20 -29h-420c-14.667 0 -22.334 8.33301 -23 25v550c0 20.667 -8.66699 31 -26 31h-544c-17.334 -0.666992 -25.667 8.66602 -25 27.999v418c0.666016 16 8.33301 24.333 23 25h548c16.667 -0.666992 24.667 8 24 26v474c0 13.333 7 20 21 20h417
c16.667 0 25 -6.66699 25 -20v-474c0 -10 1 -16.667 3 -20c3.33301 -4 10 -6 20 -6h548c15.333 -0.666992 23 -9.66699 23 -27v-420c0.666992 -16.667 -7 -24.667 -23 -24h-542c-13.333 -0.666992 -21.333 -2.66699 -24 -6c-3.33301 -4 -5 -10.667 -5 -20zM1624 1384
l-52.998 -258l-5 -25l-2 -6c-1.33301 -9.33301 -5.66602 -14 -12.999 -14c-8.66699 0 -28 9.66699 -58 29c-33.333 21.333 -78.333 41 -135 59c-75.333 23.333 -148.333 35 -219 35c-144 0 -260.333 -44.667 -349 -134c-84 -84 -126 -190.333 -126 -319
c0 -128 40.667 -232.667 122 -314c77.333 -77.333 173.333 -116 288 -116c61.333 0 132.666 9.66699 213.999 29c59.333 14.667 101.333 28 126 40c6.66699 3.33301 12 5 16 5s6 -3.66699 6 -11v-6c-0.666992 -3.33301 -1 -5.66602 -1 -6.99902v-13l-1 -12l-41 -283
c-3.33301 -21.333 -6.33301 -35 -9 -41c-10 -19.333 -45.667 -38.333 -107 -57c-76 -23.333 -159.333 -35 -250 -35c-166 0 -314.667 38 -446 114c-114 65.333 -203.667 154.333 -269 267c-71.333 124 -107 264.667 -107 422c0 244 80.333 446.333 241 607
c83.333 82.667 182 145.667 296 189c109.333 41.333 225.333 62 348 62c170 0 326 -37 468 -111c33.333 -17.333 54.666 -30.333 63.999 -39c5.33301 -4.66699 8 -11.334 8 -20.001c0 -8 -1.33301 -16.667 -4 -26c-0.666992 -3.33301 -1.33398 -7 -2.00098 -11z
M2245 609.998l1 -0.999023c0.666992 -0.666992 1.66699 -1.33398 3 -2.00098c2.66699 -2 6 -3 10 -3h297c14 0 21 2.66699 21 8v2l-1 2c0 1.33301 -0.666992 4.33301 -2 9c-0.666992 1.33301 -1.33398 3.33301 -2 6l-104 436c-1.33301 6 -4 12 -8 18l-2 2h-1
c-4 -4 -7 -8.66699 -9 -14l-199 -450c-1.33301 -4 -2.66602 -8.33301 -4 -13v0zM5902 1106c-1.33398 -1.33301 -2.66699 -3 -4 -5c-1.33398 -1.33301 -3.33398 -6 -6 -14l-201 -452c-0.666016 -1.33301 -1 -3 -1 -5c-0.666016 -1.33301 -1.33301 -3 -2 -5
c-0.666016 -5.33301 -1 -8.33301 -1 -9c0 -8 9 -12 27 -12h276c14.666 0 21.666 7 21 21v2c0 3.33301 -0.666016 7.33301 -2 12l-97 448c0 1.33301 -0.666016 3.33301 -2 6l-3 8c-2 3.33301 -3.66602 5 -5 5z" />
    <glyph glyph-name="Thorn" unicode="&#xde;" horiz-adv-x="10406" vert-adv-y="2457" 
d="M205 -516v2513h9996v-2513h-9996zM3551 27l-305 1476c-4.66699 21.333 -16.334 32.333 -35 33h-473c-13.333 0 -22.333 -1.33301 -27 -4c-6.66699 -3.33301 -13.334 -11.666 -20 -24.999l-729 -1474l-2 -6l-1 -1v-3c-4 -14.667 1 -22.334 15 -23.001h398
c24 -0 40.333 8.33301 49 25l102 210c8.66699 16 22.334 24.333 41 25h500c20 -0.666992 31 -9.66699 33 -27l53 -213c4 -13.333 13.667 -20 29 -20h354c12 0 18 6 18 18v9zM3746 29v-9.00195c0 -8 1.33301 -13 4 -15c2.66699 -3.33301 13 -5 31 -5h342
c19.334 0 30.334 9.66699 33 29l122 876c2 10 3.33398 16 4 18c0.666016 2.66699 1 4.33398 1 5.00098c0.666016 2 1.33301 3 2 3l2 -2l3 -3c4.66602 -6.66699 179.333 -311 524 -913c7.33398 -8.66699 20 -13 38 -13h350c24 0 37 8.33301 39 25l205 1482v6
c-0.666016 14.667 -9.66602 22.334 -27 23.001h-362c-17.334 0 -28 -2.33301 -32 -7c-4.66602 -4 -7.66602 -12 -9 -24l-111 -795c-2.66602 -20 -6.33301 -30 -11 -30c-2.66602 0 -164.666 281 -486 843c-6.66602 8.66699 -19.666 13 -39 13h-390c-19.333 0 -30 -9 -32 -27z
M5436 -0.00195312l393 0.00195312c21.334 0 35.667 7.66699 43 23l110 214c5.33398 9.33301 9.66699 15.333 13 18c4.66602 2.66699 14.666 4.33398 30 5.00098h474c15.334 -0.666992 26 -3 32 -7c4 -2.66699 7.66602 -11.334 11 -26.001l38 -198
c3.33398 -19.333 16.334 -29 39 -29h351c16.666 0 24.666 3 24 9v11c0 3.33301 -0.666016 7.66602 -2 12.999l-309 1472c-3.33398 13.333 -6.33398 21 -9 23c-5.33398 5.33301 -14.667 8 -28 8h-451c-12 0 -20.666 -1.33301 -26 -4c-6 -2.66699 -12.334 -10.334 -19 -23.001
l-725 -1480c-10 -19.333 -6.33398 -29 11 -29zM7812 1509v9c-0.666016 11.333 -7.66602 17.333 -21 18h-387c-14 -0.666992 -22.666 -11.667 -26 -33l-213 -1476v-11c-0.666016 -10.667 5.33398 -16 18 -16h860c18 -0 28.334 8.33301 31 25l41 292v8
c-0.666016 13.333 -7.66602 20.333 -21 21h-411c-16.666 0 -25 7.33301 -25 22v4zM9217 606l507 0.000976562c14 -0.666992 21.333 7.33301 22 24v418c-0.666992 18 -8 27 -22 27h-514c-14 0 -20.667 9.33301 -20 28v474c-1.33301 13.333 -10.333 20.333 -27 21h-417
c-15.333 0 -22.333 -7 -21 -21v-474c-0.666992 -18.667 -8.66699 -28 -24 -28h-549c-15.334 -0.666992 -23 -8.33398 -23 -23.001v-420c0 -18 8.33398 -26.667 25 -26h544c18 0 27 -10.333 27 -31v-550c-0.666992 -17.333 7 -25.666 23 -24.999h419
c15.333 0 23 9.66699 23 29v550c0 11.333 1.66699 18.666 5 21.999c2.66699 3.33301 10 5 22 5zM1806 372.001c-124 -34 -220.337 -51.0029 -289.004 -51.0029c-116.667 0 -214 38.667 -292 116c-80.667 81.333 -121 185.333 -121 312c0 130 42 236.667 126 320
c90 90 207.667 135 353 135c88.667 0 176.334 -17 263.001 -51c38 -14.667 72 -32 102 -52c20.667 -13.333 34.667 -20 42 -20c5.33301 0 9.33301 1.33301 12 4c2.66699 4 6.33398 17.667 11.001 41l52 256c0 4 0.666992 7.66699 2 11c1.33301 5.33301 2 10.333 2 15
c1.33301 6 2 9.66699 2 11c0 12 -4.33301 21.333 -13 28c-52 37.333 -124 69.666 -216 96.999c-102.667 30.667 -207 46 -313 46c-175.333 0 -334.333 -41.333 -477 -124c-125.333 -73.333 -223.666 -171.666 -294.999 -294.999c-74.667 -130 -112 -275.667 -112 -437
c0 -234 74 -424.667 222 -572c154.667 -153.333 359.334 -230 614.001 -230c144 0 254 25.333 330 76c10 6.66699 17.333 25 22 55l41 283c0.666992 4.66699 1 11.334 1 20.001c2 18.667 0.333008 28.334 -5 29.001c-2.66699 0 -9 -2 -19 -6
c-6 -3.33301 -10.667 -5.33301 -14 -6l-20 -7c-4 -1.33301 -7.66699 -2.66602 -11 -3.99902zM2685 609.998c0 1.33301 0.333008 2.66602 1 3.99902c1.33301 2.66699 2.33301 5.33398 3 8.00098l199 451c2 5.33301 5.33301 10 10 14c5.33301 -6 8.66602 -12.667 10 -20
l105 -437c0 -1.33301 0.333008 -3.33301 1 -6c1.33301 -4 2 -6.33301 2 -7c3.33301 -8.66699 -3.33398 -13 -20 -13h-297c-9.33301 0 -14 2 -14 6zM6460 638.998v-3.00098v-8c1.33398 -3.33301 2 -5.66602 2 -6.99902v-4c0 -8.66699 -7.66602 -13 -23 -13h-276
c-20.666 0 -29.333 7 -26 21c0.666016 2.66699 1.66602 5.66699 3 9l201 453c4.66602 9.33301 8.66602 15.333 12 18v1c0 -0.666992 0.666016 -1.66699 2 -3c2 -4 4 -9.33301 6 -16z" />
    <glyph glyph-name="germandbls" unicode="&#xdf;" horiz-adv-x="1438" vert-adv-y="2457" 
d="M113 0l138.999 1130c17.333 138.667 40 239.334 68 302.001c38.667 84 95.334 149 170.001 195c84.667 52.667 188 79 310 79c176 0 312.333 -48.333 409 -145c80.667 -80 121 -182 121 -306c0 -115.333 -37.333 -211.666 -112 -288.999
c-33.333 -34.667 -87 -66 -161 -94c72 -27.333 123.333 -53.333 154 -78c90 -71.333 135 -179.333 135 -324c0 -176.667 -70.667 -309.334 -212 -398.001c-43.333 -27.333 -96.666 -47 -159.999 -59c-46 -8.66699 -137 -13 -273 -13h-101l41 325
c28 -2.66699 53.667 -4 77 -4c88 0 152.333 22 193 66c32 34 48 79.667 48 137c0 62 -17.667 109 -53 141c-34 30 -80 45 -138 45c-3.33301 0 -30 -1.33301 -80 -4l43 342c30.667 -2.66699 50 -4 58 -4c55.333 0 100 17 134 51c32.667 32.667 49 75.667 49 129
c0 52 -15 93.333 -45 124c-28.667 28.667 -67.667 43 -117 43c-46.667 0 -83.334 -13 -110.001 -39c-30.667 -30.667 -51 -84.667 -61 -162l-147 -1190h-379z" />
    <glyph glyph-name="agrave" unicode="&#xe0;" horiz-adv-x="1415" vert-adv-y="2457" 
d="M1332 1036l-127 -1036h-379l27 113c-22.667 -20.667 -38.667 -34.667 -48 -42c-88.667 -68 -189 -102 -301 -102c-120.667 0 -219 38 -295 114c-90 89.333 -135 214.666 -135 375.999c0 188.667 58 341.334 174 458.001c100.667 100 223.667 150 369 150
c80 0 150.333 -16 211 -48c26.667 -14 68 -48 124 -102v119h380zM705 766c-78.667 0 -141.668 -32.667 -189.001 -98c-36.667 -50.667 -55 -110.667 -55 -180c0 -68.667 19.667 -122.667 59 -162c36.667 -37.333 85 -56 145 -56c79.333 0 142.333 32.333 189 97
c36 50 54 109.333 54 178c0 76 -21.333 133.667 -64 173c-35.333 32 -81.666 48 -138.999 48zM468.999 1458l193 174l299 -282l-139 -131z" />
    <glyph glyph-name="aacute" unicode="&#xe1;" horiz-adv-x="1415" vert-adv-y="2457" 
d="M1332 1036l-127 -1036h-379l27 113c-22.667 -20.667 -38.667 -34.667 -48 -42c-88.667 -68 -189 -102 -301 -102c-120.667 0 -219 38 -295 114c-90 89.333 -135 214.666 -135 375.999c0 188.667 58 341.334 174 458.001c100.667 100 223.667 150 369 150
c80 0 150.333 -16 211 -48c26.667 -14 68 -48 124 -102v119h380zM705 766c-78.667 0 -141.668 -32.667 -189.001 -98c-36.667 -50.667 -55 -110.667 -55 -180c0 -68.667 19.667 -122.667 59 -162c36.667 -37.333 85 -56 145 -56c79.333 0 142.333 32.333 189 97
c36 50 54 109.333 54 178c0 76 -21.333 133.667 -64 173c-35.333 32 -81.666 48 -138.999 48zM1139 1446l-352 -240l-140 131l299 283z" />
    <glyph glyph-name="acircumflex" unicode="&#xe2;" horiz-adv-x="1415" vert-adv-y="2457" 
d="M1332 1036l-127 -1036h-379l27 113c-22.667 -20.667 -38.667 -34.667 -48 -42c-88.667 -68 -189 -102 -301 -102c-120.667 0 -219 38 -295 114c-90 89.333 -135 214.666 -135 375.999c0 188.667 58 341.334 174 458.001c100.667 100 223.667 150 369 150
c80 0 150.333 -16 211 -48c26.667 -14 68 -48 124 -102v119h380zM705 766c-78.667 0 -141.668 -32.667 -189.001 -98c-36.667 -50.667 -55 -110.667 -55 -180c0 -68.667 19.667 -122.667 59 -162c36.667 -37.333 85 -56 145 -56c79.333 0 142.333 32.333 189 97
c36 50 54 109.333 54 178c0 76 -21.333 133.667 -64 173c-35.333 32 -81.666 48 -138.999 48zM362.999 1378l450 252l451 -252l-100 -155l-351 161l-350 -161z" />
    <glyph glyph-name="atilde" unicode="&#xe3;" horiz-adv-x="1415" vert-adv-y="2457" 
d="M1332 1036l-127 -1036h-379l27 113c-22.667 -20.667 -38.667 -34.667 -48 -42c-88.667 -68 -189 -102 -301 -102c-120.667 0 -219 38 -295 114c-90 89.333 -135 214.666 -135 375.999c0 188.667 58 341.334 174 458.001c100.667 100 223.667 150 369 150
c80 0 150.333 -16 211 -48c26.667 -14 68 -48 124 -102v119h380zM705 766c-78.667 0 -141.668 -32.667 -189.001 -98c-36.667 -50.667 -55 -110.667 -55 -180c0 -68.667 19.667 -122.667 59 -162c36.667 -37.333 85 -56 145 -56c79.333 0 142.333 32.333 189 97
c36 50 54 109.333 54 178c0 76 -21.333 133.667 -64 173c-35.333 32 -81.666 48 -138.999 48zM593.999 1262l-173.997 -0.00195312v23c0 74 20.667 136.667 62 188c43.333 54.667 98.333 82 165 82c21.333 0 52.333 -4 93 -12c24 -5.33301 86 -20.666 186 -45.999
c15.333 -4 31.666 -6 48.999 -6c20.667 0 35.5 4 44.5 12s20.167 26.667 33.5 56h178c-26.667 -198 -118.334 -297 -275.001 -297c-26.667 0 -51.334 3.33301 -74.001 10c-10 2.66699 -35.667 10.334 -77 23.001c-76 22 -124 33 -144 33c-30 0 -50.333 -16 -61 -48z" />
    <glyph glyph-name="adieresis" unicode="&#xe4;" horiz-adv-x="1415" vert-adv-y="2457" 
d="M1332 1036l-127 -1036h-379l27 113c-22.667 -20.667 -38.667 -34.667 -48 -42c-88.667 -68 -189 -102 -301 -102c-120.667 0 -219 38 -295 114c-90 89.333 -135 214.666 -135 375.999c0 188.667 58 341.334 174 458.001c100.667 100 223.667 150 369 150
c80 0 150.333 -16 211 -48c26.667 -14 68 -48 124 -102v119h380zM705 766c-78.667 0 -141.668 -32.667 -189.001 -98c-36.667 -50.667 -55 -110.667 -55 -180c0 -68.667 19.667 -122.667 59 -162c36.667 -37.333 85 -56 145 -56c79.333 0 142.333 32.333 189 97
c36 50 54 109.333 54 178c0 76 -21.333 133.667 -64 173c-35.333 32 -81.666 48 -138.999 48zM1045 1595c48.667 0 91.332 -18.333 127.999 -55c36.667 -37.333 55 -81 55 -131c0 -51.333 -18 -95 -54 -131c-34.667 -35.333 -77 -53 -127 -53
c-52.667 0 -97.667 18.667 -135 56c-36 36 -54 79.333 -54 130c0 50 17.667 93 53 129c36.667 36.667 81.334 55 134.001 55zM580.997 1594c50 0 93.334 -18.333 130.001 -55c35.333 -35.333 53 -78.333 53 -129c0 -53.333 -18 -98.333 -54 -135
c-34.667 -34.667 -77.667 -52 -129 -52c-52.667 0 -97.334 18.333 -134.001 55c-36 36 -54 79.667 -54 131c0 50.667 18 94 54 130c36 36.667 80.667 55 134 55z" />
    <glyph glyph-name="aring" unicode="&#xe5;" horiz-adv-x="1415" vert-adv-y="2457" 
d="M1332 1036l-127 -1036h-379l27 113c-22.667 -20.667 -38.667 -34.667 -48 -42c-88.667 -68 -189 -102 -301 -102c-120.667 0 -219 38 -295 114c-90 89.333 -135 214.666 -135 375.999c0 188.667 58 341.334 174 458.001c100.667 100 223.667 150 369 150
c80 0 150.333 -16 211 -48c26.667 -14 68 -48 124 -102v119h380zM705 766c-78.667 0 -141.668 -32.667 -189.001 -98c-36.667 -50.667 -55 -110.667 -55 -180c0 -68.667 19.667 -122.667 59 -162c36.667 -37.333 85 -56 145 -56c79.333 0 142.333 32.333 189 97
c36 50 54 109.333 54 178c0 76 -21.333 133.667 -64 173c-35.333 32 -81.666 48 -138.999 48zM818.999 1612c42.667 0 79.666 -15.667 110.999 -47s47 -69.333 47 -114s-15.667 -82.667 -47 -114c-30.667 -31.333 -68 -47 -112 -47s-81.667 15.667 -113 47
c-31.333 30.667 -47 67.667 -47 111c0 46 16 85.333 48 118c30.667 30.667 68.334 46 113.001 46zM816.998 1516c-17.333 0 -32.666 -6.66602 -45.999 -19.999c-12.667 -12 -19 -27 -19 -45c0 -18.667 6.66699 -34.667 20 -48c12.667 -12.667 27.667 -19 45 -19
c18 0 33.333 6.33301 46 19c13.333 13.333 20 29.666 20 48.999c0 17.333 -6.33301 32.333 -19 45s-28.334 19 -47.001 19z" />
    <glyph glyph-name="ae" unicode="&#xe6;" horiz-adv-x="1989" vert-adv-y="2457" 
d="M1143 457l0.000976562 -5.99902c0 -74 20.667 -130 62 -168c33.333 -30.667 77.333 -46 132 -46c82.667 0 141.667 31.667 177 95h366c-22 -68.667 -43.333 -118.334 -64 -149.001c-40 -61.333 -100.667 -112.333 -182 -153c-82 -40.667 -181.333 -61 -298 -61
c-126.667 0 -228.667 22.667 -306 68c-26.667 15.333 -55.334 40 -86.001 74c-59.333 -43.333 -116 -75.333 -170 -96c-79.333 -30.667 -167.333 -46 -264 -46c-113.333 0 -207.333 21.333 -282 64c-104 60 -156 151 -156 273c0 110 43 195.667 129 257
c73.333 52 164.666 78 273.999 78c124.667 0 232 -32.667 322 -98l4 88v41c0 49.333 -22.333 86.666 -67 111.999c-40 23.333 -92.333 35 -157 35c-51.333 0 -108 -8.33301 -170 -25c-25.333 -7.33301 -73.666 -24.666 -144.999 -51.999l19 274c150 34 272.667 51 368 51
c106 0 200 -20 282 -60c29.333 -14 62.333 -37.667 99 -71c47.333 38.667 89.333 65.667 126 81c79.333 33.333 163.333 50 252 50c163.333 0 288 -48.333 374 -145c86 -96 129 -239.333 129 -430v-35h-768zM744.001 303.001l-0.000976562 4c0 32 -15.667 56.667 -47 74
c-31.333 18 -72 27 -122 27c-47.333 0 -86 -8.33301 -116 -25c-31.333 -18 -47 -43.333 -47 -76c0 -34.667 17.333 -62 52 -82c31.333 -17.333 70.333 -26 117 -26s84.334 8.33301 113.001 25c33.333 18.667 50 45 50 79zM1178 674.001h389c-12 55.333 -33 94.333 -63 117
c-30 23.333 -71.333 35 -124 35c-60 0 -107 -14.333 -141 -43c-26 -22.667 -46.333 -59 -61 -109z" />
    <glyph glyph-name="ccedilla" unicode="&#xe7;" horiz-adv-x="969" vert-adv-y="2457" 
d="M449 -22c-46 12.667 -82.334 26 -109.001 40c-180 94.667 -270 250.667 -270 468c0 170 54.333 309.667 163 419c107.333 108 243.333 162 408 162c105.333 0 208.666 -24 309.999 -72l-39 -323c-34.667 30.667 -64.667 52.667 -90 66c-36 18.667 -75.667 28 -119 28
c-67.333 0 -123.666 -22.667 -168.999 -68c-51.333 -52 -77 -119.667 -77 -203c0 -71.333 20 -127 60 -167c38 -38 89 -57 153 -57c40.667 0 79.334 8.66699 116.001 26c23.333 11.333 52.333 29.333 87 54l-41 -324c-34 -12.667 -82 -27 -144 -43l-12 -90h-237z" />
    <glyph glyph-name="egrave" unicode="&#xe8;" horiz-adv-x="1284" vert-adv-y="2457" 
d="M432 440c2 -80 19.668 -134.667 53.001 -164c28.667 -26 70.667 -39 126 -39c47.333 0 83.333 11 108 33c18 16 31 40.667 39 74h414c-24.667 -64 -46 -110.667 -64 -140c-38 -60.667 -90.667 -111 -158 -151c-92.667 -56 -207.334 -84 -344.001 -84
c-180 0 -317.667 52.333 -413 157c-80.667 88.667 -121 205.667 -121 351c0 172 54.333 312.333 163 421c112 112.667 259.667 169 443 169c174 0 308.333 -52.333 403 -157c84 -93.333 126 -217 126 -371c0 -19.333 -2.33301 -52.333 -7 -99h-768zM817.001 657
c-12 106.667 -67.666 160 -166.999 160c-44.667 0 -86.334 -13.333 -125.001 -40c-31.333 -22 -54 -62 -68 -120h360zM408.002 1458l192 174l299 -282l-139 -131z" />
    <glyph glyph-name="eacute" unicode="&#xe9;" horiz-adv-x="1284" vert-adv-y="2457" 
d="M432 440c2 -80 19.668 -134.667 53.001 -164c28.667 -26 70.667 -39 126 -39c47.333 0 83.333 11 108 33c18 16 31 40.667 39 74h414c-24.667 -64 -46 -110.667 -64 -140c-38 -60.667 -90.667 -111 -158 -151c-92.667 -56 -207.334 -84 -344.001 -84
c-180 0 -317.667 52.333 -413 157c-80.667 88.667 -121 205.667 -121 351c0 172 54.333 312.333 163 421c112 112.667 259.667 169 443 169c174 0 308.333 -52.333 403 -157c84 -93.333 126 -217 126 -371c0 -19.333 -2.33301 -52.333 -7 -99h-768zM817.001 657
c-12 106.667 -67.666 160 -166.999 160c-44.667 0 -86.334 -13.333 -125.001 -40c-31.333 -22 -54 -62 -68 -120h360zM1078 1446l-353 -240l-139 131l299 283z" />
    <glyph glyph-name="ecircumflex" unicode="&#xea;" horiz-adv-x="1284" vert-adv-y="2457" 
d="M432 440c2 -80 19.668 -134.667 53.001 -164c28.667 -26 70.667 -39 126 -39c47.333 0 83.333 11 108 33c18 16 31 40.667 39 74h414c-24.667 -64 -46 -110.667 -64 -140c-38 -60.667 -90.667 -111 -158 -151c-92.667 -56 -207.334 -84 -344.001 -84
c-180 0 -317.667 52.333 -413 157c-80.667 88.667 -121 205.667 -121 351c0 172 54.333 312.333 163 421c112 112.667 259.667 169 443 169c174 0 308.333 -52.333 403 -157c84 -93.333 126 -217 126 -371c0 -19.333 -2.33301 -52.333 -7 -99h-768zM817.001 657
c-12 106.667 -67.666 160 -166.999 160c-44.667 0 -86.334 -13.333 -125.001 -40c-31.333 -22 -54 -62 -68 -120h360zM281.002 1378l450 252l451 -252l-100 -155l-351 161l-350 -161z" />
    <glyph glyph-name="edieresis" unicode="&#xeb;" horiz-adv-x="1284" vert-adv-y="2457" 
d="M432 440c2 -80 19.668 -134.667 53.001 -164c28.667 -26 70.667 -39 126 -39c47.333 0 83.333 11 108 33c18 16 31 40.667 39 74h414c-24.667 -64 -46 -110.667 -64 -140c-38 -60.667 -90.667 -111 -158 -151c-92.667 -56 -207.334 -84 -344.001 -84
c-180 0 -317.667 52.333 -413 157c-80.667 88.667 -121 205.667 -121 351c0 172 54.333 312.333 163 421c112 112.667 259.667 169 443 169c174 0 308.333 -52.333 403 -157c84 -93.333 126 -217 126 -371c0 -19.333 -2.33301 -52.333 -7 -99h-768zM817.001 657
c-12 106.667 -67.666 160 -166.999 160c-44.667 0 -86.334 -13.333 -125.001 -40c-31.333 -22 -54 -62 -68 -120h360zM982.002 1595c48.667 0 91.332 -18.333 127.999 -55c36.667 -37.333 55 -81 55 -131c0 -51.333 -18 -95 -54 -131c-34.667 -35.333 -77 -53 -127 -53
c-52.667 0 -97.667 18.667 -135 56c-36 36 -54 79.333 -54 130c0 50 17.667 93 53 129c36.667 36.667 81.334 55 134.001 55zM518 1594c50 0 93.334 -18.333 130.001 -55c35.333 -35.333 53 -78.333 53 -129c0 -53.333 -18 -98.333 -54 -135
c-34.667 -34.667 -77.667 -52 -129 -52c-52.667 0 -97.334 18.333 -134.001 55c-36 36 -54 79.667 -54 131c0 50.667 18 94 54 130c36 36.667 80.667 55 134 55z" />
    <glyph glyph-name="igrave" unicode="&#xec;" horiz-adv-x="477" vert-adv-y="2457" 
d="M465 1036l-127 -1036h-379l127 1036h379zM47 1458l193 174l299 -282l-140 -131z" />
    <glyph glyph-name="iacute" unicode="&#xed;" horiz-adv-x="797" vert-adv-y="2457" 
d="M576 1036l-127 -1036h-379l127 1036h379zM709 1446l-352 -240l-140 131l299 283z" />
    <glyph glyph-name="icircumflex" unicode="&#xee;" horiz-adv-x="891" vert-adv-y="2457" 
d="M641 1036l-127 -1036h-378l127 1036h378zM25 1378l451 252l450 -252l-100 -155l-350 161l-351 -161z" />
    <glyph glyph-name="idieresis" unicode="&#xef;" horiz-adv-x="641" vert-adv-y="2457" 
d="M465 1036l-127 -1036h-381l127 1036h381zM537 1594c50 0 93.667 -18.667 131 -56c36.667 -36.667 55 -80 55 -130c0 -52 -18.333 -96.333 -55 -133c-35.333 -34.667 -77.666 -52 -126.999 -52c-52.667 0 -97.334 18.667 -134.001 56c-36.667 36 -55 79.667 -55 131
c0 50.667 18 94 54 130c35.333 36 79 54 131 54zM105 1595c50 0 93.333 -17.999 130 -53.999c36.667 -36.667 55 -80.334 55 -131.001c0 -53.333 -18.333 -98.333 -55 -135c-34.667 -34.667 -77.667 -52 -129 -52c-53.333 0 -98 18.333 -134 55c-36 36 -54 79.667 -54 131
s18.333 95.333 55 132c35.333 36 79.333 54 132 54z" />
    <glyph glyph-name="eth" unicode="&#xf0;" horiz-adv-x="1151" vert-adv-y="2457" 
d="M556 692c-49.333 0 -94.333 -17.999 -135 -53.999c-48.667 -44 -73 -105 -73 -183c0 -36.667 13 -70.334 39 -101.001c31.333 -35.333 72 -53 122 -53s94.667 18 134 54c49.333 44 74 105 74 183c0 38 -12.667 71.667 -38 101c-30 35.333 -71 53 -123 53zM158 1135
l76.001 66.9971l-9 1c-10 0.666992 -18.667 1.33398 -26 2.00098c-10 1.33301 -22.333 2.33301 -37 3l84 310c110 -11.333 205 -28.666 285 -51.999l225 197l145 -164l-143 -123c91.333 -54.667 160.666 -112 207.999 -172c38.667 -48.667 64.667 -91.667 78 -129
c25.333 -70.667 42.666 -176 51.999 -316c10 -152.667 -16.667 -294.667 -80 -426c-57.333 -119.333 -138 -209.333 -242 -270c-93.333 -54 -198 -81 -314 -81c-155.333 0 -276.333 49.333 -363 148c-70 80 -105 172.333 -105 277c0 131.333 21.333 234.333 64 309
c50.667 86.667 116.667 154 198 202c80.667 47.333 169.334 71 266.001 71s174 -24.667 232 -74c-32 74 -70 126.667 -114 158c-52.667 32.667 -94.667 55.334 -126 68.001l-14 6l-197 -176z" />
    <glyph glyph-name="ntilde" unicode="&#xf1;" horiz-adv-x="1366" vert-adv-y="2457" 
d="M576 1036l-31 -134.999c54 48 95.667 81 125 99c74 44.667 157 67 249 67c110.667 0 194.667 -31 252 -93c48.667 -54 73 -128 73 -222c0 -42.667 -4.33301 -98.667 -13 -168l-71 -584h-379l55 457c6.66699 53.333 10 95.666 10 126.999c0 60 -15.333 104.333 -46 133
c-23.333 21.333 -54 32 -92 32c-60 0 -106.667 -22.333 -140 -67c-28 -38 -48.667 -109.667 -62 -215l-57 -467h-379l127 1036h379zM555 1266h-173.997v22c0 74.667 20.667 137.667 62 189c43.333 54.667 98.333 82 165 82c22 0 53 -4 93 -12
c12.667 -2.66699 74.667 -18 186 -46c15.333 -4 31.666 -6 48.999 -6c20.667 0 35.5 4 44.5 12s20.167 26.667 33.5 56h178c-26.667 -198 -118.334 -297 -275.001 -297c-28.667 0 -65.334 7 -110.001 21l-19 5c-86.667 26.667 -142 40 -166 40c-30 0 -50.333 -16 -61 -48z
" />
    <glyph glyph-name="ograve" unicode="&#xf2;" horiz-adv-x="1380" vert-adv-y="2457" 
d="M709 1067c130 0 244.669 -28.668 344.002 -86.001c76.667 -44.667 136 -103.667 178 -177c44 -77.333 66 -165.333 66 -264c0 -163.333 -52.667 -297.666 -158 -402.999c-112.667 -112 -263.334 -168 -452.001 -168c-196.667 0 -352.334 57.333 -467.001 172
c-98.667 98.667 -148 222.667 -148 372c0 148 50.333 272.667 151 374c118 120 280 180 486 180zM706.002 765.999c-63.333 0 -118 -22.666 -164 -67.999c-54 -54 -81 -124 -81 -210c0 -68.667 19.667 -122.667 59 -162c36.667 -37.333 85.667 -56 147 -56
c64 0 118.333 22.333 163 67c53.333 53.333 80 122.666 80 207.999c0 76 -21.333 133.667 -64 173c-35.333 32 -82 48 -140 48zM469.002 1458l193 174l299 -282l-139 -131z" />
    <glyph glyph-name="oacute" unicode="&#xf3;" horiz-adv-x="1380" vert-adv-y="2457" 
d="M709 1067c130 0 244.669 -28.668 344.002 -86.001c76.667 -44.667 136 -103.667 178 -177c44 -77.333 66 -165.333 66 -264c0 -163.333 -52.667 -297.666 -158 -402.999c-112.667 -112 -263.334 -168 -452.001 -168c-196.667 0 -352.334 57.333 -467.001 172
c-98.667 98.667 -148 222.667 -148 372c0 148 50.333 272.667 151 374c118 120 280 180 486 180zM706.002 765.999c-63.333 0 -118 -22.666 -164 -67.999c-54 -54 -81 -124 -81 -210c0 -68.667 19.667 -122.667 59 -162c36.667 -37.333 85.667 -56 147 -56
c64 0 118.333 22.333 163 67c53.333 53.333 80 122.666 80 207.999c0 76 -21.333 133.667 -64 173c-35.333 32 -82 48 -140 48zM1119 1446l-353 -240l-139 131l299 283z" />
    <glyph glyph-name="ocircumflex" unicode="&#xf4;" horiz-adv-x="1380" vert-adv-y="2457" 
d="M709 1067c130 0 244.669 -28.668 344.002 -86.001c76.667 -44.667 136 -103.667 178 -177c44 -77.333 66 -165.333 66 -264c0 -163.333 -52.667 -297.666 -158 -402.999c-112.667 -112 -263.334 -168 -452.001 -168c-196.667 0 -352.334 57.333 -467.001 172
c-98.667 98.667 -148 222.667 -148 372c0 148 50.333 272.667 151 374c118 120 280 180 486 180zM706.002 765.999c-63.333 0 -118 -22.666 -164 -67.999c-54 -54 -81 -124 -81 -210c0 -68.667 19.667 -122.667 59 -162c36.667 -37.333 85.667 -56 147 -56
c64 0 118.333 22.333 163 67c53.333 53.333 80 122.666 80 207.999c0 76 -21.333 133.667 -64 173c-35.333 32 -82 48 -140 48zM318.002 1378l450 252l451 -252l-100 -155l-351 161l-350 -161z" />
    <glyph glyph-name="otilde" unicode="&#xf5;" horiz-adv-x="1380" vert-adv-y="2457" 
d="M709 1067c130 0 244.669 -28.668 344.002 -86.001c76.667 -44.667 136 -103.667 178 -177c44 -77.333 66 -165.333 66 -264c0 -163.333 -52.667 -297.666 -158 -402.999c-112.667 -112 -263.334 -168 -452.001 -168c-196.667 0 -352.334 57.333 -467.001 172
c-98.667 98.667 -148 222.667 -148 372c0 148 50.333 272.667 151 374c118 120 280 180 486 180zM706.002 765.999c-63.333 0 -118 -22.666 -164 -67.999c-54 -54 -81 -124 -81 -210c0 -68.667 19.667 -122.667 59 -162c36.667 -37.333 85.667 -56 147 -56
c64 0 118.333 22.333 163 67c53.333 53.333 80 122.666 80 207.999c0 76 -21.333 133.667 -64 173c-35.333 32 -82 48 -140 48zM512.002 1262l-173.997 -0.00195312v23c0 74 20.667 136.667 62 188c43.333 54.667 98.333 82 165 82c21.333 0 52.333 -4 93 -12
c24 -5.33301 86 -20.666 186 -45.999c15.333 -4 31.666 -6 48.999 -6c20.667 0 35.667 4.33301 45 13c8.66699 8 19.667 26.333 33 55h178c-26.667 -198 -118.334 -297 -275.001 -297c-26.667 0 -51.334 3.33301 -74.001 10c-10 2.66699 -35.667 10.334 -77 23.001
c-76 22 -124 33 -144 33c-30 0 -50.333 -16 -61 -48z" />
    <glyph glyph-name="odieresis" unicode="&#xf6;" horiz-adv-x="1380" vert-adv-y="2457" 
d="M709 1067c130 0 244.669 -28.668 344.002 -86.001c76.667 -44.667 136 -103.667 178 -177c44 -77.333 66 -165.333 66 -264c0 -163.333 -52.667 -297.666 -158 -402.999c-112.667 -112 -263.334 -168 -452.001 -168c-196.667 0 -352.334 57.333 -467.001 172
c-98.667 98.667 -148 222.667 -148 372c0 148 50.333 272.667 151 374c118 120 280 180 486 180zM706.002 765.999c-63.333 0 -118 -22.666 -164 -67.999c-54 -54 -81 -124 -81 -210c0 -68.667 19.667 -122.667 59 -162c36.667 -37.333 85.667 -56 147 -56
c64 0 118.333 22.333 163 67c53.333 53.333 80 122.666 80 207.999c0 76 -21.333 133.667 -64 173c-35.333 32 -82 48 -140 48zM1029 1595c48.667 0 91.332 -18.333 127.999 -55c36.667 -37.333 55 -81 55 -131c0 -51.333 -18 -95 -54 -131
c-34.667 -35.333 -77 -53 -127 -53c-52.667 0 -97.667 18.667 -135 56c-36 36 -54 79.333 -54 130c0 50 17.667 93 53 129c36.667 36.667 81.334 55 134.001 55zM565 1594c50 0 93.334 -18.333 130.001 -55c35.333 -35.333 53 -78.333 53 -129
c0 -53.333 -18 -98.333 -54 -135c-34.667 -34.667 -77.667 -52 -129 -52c-52.667 0 -97.334 18.333 -134.001 55c-36 36 -54 79.667 -54 131c0 50.667 18 94 54 130c36 36.667 80.667 55 134 55z" />
    <glyph glyph-name="divide" unicode="&#xf7;" horiz-adv-x="1632" vert-adv-y="2457" 
d="M1579 1077v-471h-1436v471h1436zM862 1607c56.667 0 105.332 -20 145.999 -60c41.333 -41.333 62 -91.333 62 -150c0 -58 -20.667 -107.667 -62 -149c-40.667 -40 -89.667 -60 -147 -60s-106.666 20.333 -147.999 61s-62 90 -62 148s21 107.667 63 149
c40.667 40.667 90 61 148 61zM859.998 491c56.667 0 105.332 -19.998 145.999 -59.998c41.333 -40.667 62 -90.334 62 -149.001s-20.667 -108.667 -62 -150c-40.667 -40 -89.667 -60 -147 -60s-106.666 20.333 -147.999 61c-41.333 41.333 -62 90.666 -62 147.999
c0 58 21 107.667 63 149c40 40.667 89.333 61 148 61z" />
    <glyph glyph-name="oslash" unicode="&#xf8;" horiz-adv-x="1184" vert-adv-y="2457" 
d="M1104 876c78 -90 117 -193.666 117 -310.999c0 -164.667 -54.333 -301 -163 -409c-120 -119.333 -280.667 -179 -482 -179c-148.667 0 -283.334 36.333 -404.001 109l-59 -53l-95 110l50 41c-72.667 90.667 -109 193.667 -109 309c0 157.333 53.333 289.666 160 396.999
c122 123.333 284.333 185 487 185c140.667 0 270.334 -34 389.001 -102l74 61l94 -109zM813 629.001l-358 -306c39.333 -26 80 -39 122 -39c71.333 0 131 24.333 179 73c49.333 48.667 74 109.667 74 183c0 30 -5.66699 59.667 -17 89zM367 438.001l352 299
c-36 19.333 -73.333 29 -112 29c-72 0 -132.333 -24.667 -181 -74c-48 -48 -72 -107.667 -72 -179c0 -25.333 4.33301 -50.333 13 -75z" />
    <glyph glyph-name="ugrave" unicode="&#xf9;" horiz-adv-x="1374" vert-adv-y="2457" 
d="M1291 1036l-67.999 -547c-13.333 -108 -31.333 -191.333 -54 -250c-68.667 -180 -247.334 -270 -536.001 -270c-192 0 -332.333 47.333 -421 142c-63.333 68 -95 156.667 -95 266c0 38 3.33301 85 10 141l64 518h381l-62 -493c-6.66699 -55.333 -10 -95 -10 -119
c0 -92 51.333 -138 154 -138c56 0 98.333 14.333 127 43c32.667 32 53.667 87.333 63 166l66 541h381zM490.001 1458l192 174l299 -282l-139 -131z" />
    <glyph glyph-name="uacute" unicode="&#xfa;" horiz-adv-x="1374" vert-adv-y="2457" 
d="M1291 1036l-67.999 -547c-13.333 -108 -31.333 -191.333 -54 -250c-68.667 -180 -247.334 -270 -536.001 -270c-192 0 -332.333 47.333 -421 142c-63.333 68 -95 156.667 -95 266c0 38 3.33301 85 10 141l64 518h381l-62 -493c-6.66699 -55.333 -10 -95 -10 -119
c0 -92 51.333 -138 154 -138c56 0 98.333 14.333 127 43c32.667 32 53.667 87.333 63 166l66 541h381zM1037 1446l-353 -240l-139 131l299 283z" />
    <glyph glyph-name="ucircumflex" unicode="&#xfb;" horiz-adv-x="1374" vert-adv-y="2457" 
d="M1291 1036l-67.999 -547c-13.333 -108 -31.333 -191.333 -54 -250c-68.667 -180 -247.334 -270 -536.001 -270c-192 0 -332.333 47.333 -421 142c-63.333 68 -95 156.667 -95 266c0 38 3.33301 85 10 141l64 518h381l-62 -493c-6.66699 -55.333 -10 -95 -10 -119
c0 -92 51.333 -138 154 -138c56 0 98.333 14.333 127 43c32.667 32 53.667 87.333 63 166l66 541h381zM318.001 1378l450 252l451 -252l-101 -155l-350 161l-350 -161z" />
    <glyph glyph-name="udieresis" unicode="&#xfc;" horiz-adv-x="1374" vert-adv-y="2457" 
d="M1291 1036l-67.999 -547c-13.333 -108 -31.333 -191.333 -54 -250c-68.667 -180 -247.334 -270 -536.001 -270c-192 0 -332.333 47.333 -421 142c-63.333 68 -95 156.667 -95 266c0 38 3.33301 85 10 141l64 518h381l-62 -493c-6.66699 -55.333 -10 -95 -10 -119
c0 -92 51.333 -138 154 -138c56 0 98.333 14.333 127 43c32.667 32 53.667 87.333 63 166l66 541h381zM1021 1595c48.667 0 91.332 -18.333 127.999 -55c36.667 -37.333 55 -81 55 -131c0 -51.333 -18 -95 -54 -131c-34.667 -35.333 -77 -53 -127 -53
c-52.667 0 -97.667 18.667 -135 56c-36 36 -54 79.333 -54 130c0 50 17.667 93 53 129c36.667 36.667 81.334 55 134.001 55zM556.999 1594c50 0 93.334 -18.333 130.001 -55c35.333 -35.333 53 -78.333 53 -129c0 -53.333 -18 -98.333 -54 -135
c-34.667 -34.667 -77.667 -52 -129 -52c-52.667 0 -97.334 18.333 -134.001 55c-36 36 -54 79.667 -54 131c0 50.667 18 94 54 130c36 36.667 80.667 55 134 55z" />
    <glyph glyph-name="yacute" unicode="&#xfd;" horiz-adv-x="1401" vert-adv-y="2457" 
d="M455 141l-396 895h428l213 -530l338 530h422l-1040 -1573h-414zM1053 1458l-381 -239l-125 131l336 282z" />
    <glyph glyph-name="thorn" unicode="&#xfe;" horiz-adv-x="1427" vert-adv-y="2457" 
d="M504 588l-17.001 -137c12.667 -51.333 36.334 -91.333 71.001 -120c38.667 -32 85 -48 139 -48c64.667 0 123 23 175 69c60.667 52.667 91 117.334 91 194.001c0 55.333 -16.333 101.666 -49 138.999c-40.667 46 -94.667 69 -162 69c-65.333 0 -124 -23 -176 -69
c-28 -24 -52 -56.333 -72 -97zM620.999 1536l-62.001 -500l-14 -115l45 45c28.667 28.667 73.334 53.667 134.001 75c51.333 18.667 106 28 164 28c143.333 0 259 -50.333 347 -151c46 -52.667 78.667 -113.667 98 -183c8.66699 -30.667 13 -78 13 -142
c0 -138.667 -36.667 -260.334 -110 -365.001c-59.333 -85.333 -133 -150.666 -221 -195.999c-82.667 -43.333 -169 -65 -259 -65c-68.667 0 -133 13 -193 39c-38 16 -77.667 48 -119 96l-12 -102l-65 -537h-369l66 537l127 1036l61 500h369z" />
    <glyph glyph-name="ydieresis" unicode="&#xff;" horiz-adv-x="1389" vert-adv-y="2457" 
d="M1426 1006l-969 -1573h-426l375 619l-365 954h422l205 -532l326 532h432zM1035 1584c48.667 0 91.332 -18.333 127.999 -55c36.667 -37.333 55 -81 55 -131c0 -51.333 -18 -95 -54 -131c-34.667 -35.333 -77 -53 -127 -53c-52.667 0 -97.667 18.667 -135 56
c-36 36 -54 79.333 -54 130c0 50 17.667 93 53 129c36.667 36.667 81.334 55 134.001 55zM570.998 1583c50 0 93.334 -18.333 130.001 -55c35.333 -35.333 53 -78.333 53 -129c0 -53.333 -18 -98.333 -54 -135c-34.667 -34.667 -77.667 -52 -129 -52
c-52.667 0 -97.334 18.333 -134.001 55c-36 36 -54 79.667 -54 131c0 50.667 18 94 54 130c36 36.667 80.667 55 134 55z" />
    <glyph glyph-name="dotlessi" unicode="&#x131;" horiz-adv-x="1044" vert-adv-y="2457" 
d="M653 1030l-127 -1030h-381l129 1030h379z" />
    <glyph glyph-name="Lslash" unicode="&#x141;" horiz-adv-x="868" vert-adv-y="2457" 
d="M620 1366l-43 -348l228 149l-37 -290l-226 -140l-53 -436h436l-39 -301h-780l66 539l-160 -109l35 285l160 106l67 545h346z" />
    <glyph glyph-name="lslash" unicode="&#x142;" horiz-adv-x="489" vert-adv-y="2457" 
d="M609 1493l-68 -541l170 109l-35 -291l-170 -102l-82 -668h-338l60 489l-162 -106l35 289l162 100l90 721h338z" />
    <glyph glyph-name="OE" unicode="&#x152;" horiz-adv-x="2437" vert-adv-y="2457" 
d="M1352 35c-120.667 -58.667 -252.999 -88 -396.999 -88c-167.333 0 -317.333 38.333 -450 115c-117.333 67.333 -209.333 159 -276 275c-69.333 122 -104 259 -104 411c0 239.333 79.667 438.333 239 597c82.667 82 180 144 292 186c106 40 217.333 60 334 60
c193.333 0 370.666 -58.667 531.999 -176l22 -16l-16 12l-6 4l12 121h842l-41 -338h-453l-31 -266h437l-39 -338h-438l-33 -256h471l-43 -338h-858zM973.001 1222c-124.667 0 -230.334 -43.335 -317.001 -130.002c-89.333 -89.333 -134 -200.666 -134 -333.999
c0 -130 42 -237 126 -321c80.667 -80.667 182.334 -121 305.001 -121c126 0 231 42 315 126c87.333 87.333 131 198.333 131 333c0 132.667 -42.333 242.334 -127 329.001c-78 78.667 -177.667 118 -299 118z" />
    <glyph glyph-name="oe" unicode="&#x153;" horiz-adv-x="2079" vert-adv-y="2457" 
d="M1250 446c10 -82 33.0029 -137.999 69.0029 -167.999c33.333 -27.333 80.333 -41 141 -41c75.333 0 130.666 26 165.999 78h351c-36 -73.333 -62.333 -123 -79 -149c-38.667 -58 -85.334 -102.667 -140.001 -134c-74 -42 -170 -63 -288 -63
c-123.333 0 -234.666 25.333 -333.999 76c-36 18.667 -74.667 50 -116 94c-48 -42 -85.667 -71.333 -113 -88c-90.667 -54.667 -195.667 -82 -315 -82c-154.667 0 -279.334 47.333 -374.001 142c-97.333 97.333 -146 227.666 -146 390.999c0 168 51.667 303.333 155 406
c106 106 247.333 159 424 159c98.667 0 184.667 -18.333 258 -55c43.333 -21.333 90.666 -55 141.999 -101c42 34 78.333 59.667 109 77c95.333 52.667 199.333 79 312 79c131.333 0 244.333 -31.667 339 -95c126 -84.667 189.333 -232.667 190 -444
c0 -26.667 -0.666992 -54 -2 -82h-749zM702.003 766.001c-78 0 -140.667 -32.667 -188 -98c-36.667 -51.333 -55 -111.333 -55 -180s19.667 -123 59 -163c36 -36.667 84.333 -55 145 -55c63.333 0 117.666 22.333 162.999 67c53.333 54 80 123.667 80 209
c0 74.667 -21.667 132 -65 172c-35.333 32 -81.666 48 -138.999 48zM1289 661.001h391c-14.667 64 -38 107.667 -70 131c-28.667 22 -67.667 33 -117 33c-111.333 0 -179.333 -54.667 -204 -164z" />
    <glyph glyph-name="Scaron" unicode="&#x160;" horiz-adv-x="1317" vert-adv-y="2457" 
d="M326 1788l178 178.002l268 -227l320 227l141 -178l-334 -227c117.333 -20 225.333 -57.667 324 -113l-199 -311c-77.333 69.333 -158 104 -242 104c-60 0 -109 -17 -147 -51c-30 -26.667 -45 -58.667 -45 -96c0 -36 23.667 -67.333 71 -94
c18.667 -10.667 53.334 -23.667 104.001 -39c118 -36.667 197.667 -67 239 -91c112.667 -67.333 169 -166 169 -296c0 -98.667 -24.333 -199.667 -73 -303c-39.333 -82 -105 -151 -197 -207c-115.333 -70 -249 -105 -401 -105c-120.667 0 -247 30.667 -379 92
c-38 17.333 -82.333 45.333 -133 84l211 320c109.333 -104 219.333 -156 330 -156c68.667 0 122.667 17.667 162 53c34 30 51 68 51 114c0 36 -17 67 -51 93c-24.667 19.333 -80.334 42 -167.001 68c-85.333 25.333 -146.333 46.666 -183 63.999
c-46.667 22.667 -84 49 -112 79c-44 46 -66 116.333 -66 211c0 74 8 136.333 24 187c38 119.333 103.667 214.666 197 285.999c56.667 44 130 78 220 102z" />
    <glyph glyph-name="scaron" unicode="&#x161;" horiz-adv-x="1036" vert-adv-y="2457" 
d="M226 1288l178.001 178.001l266 -227l322 227l141 -178l-334 -227c58.667 -9.33301 118.667 -27.666 180 -54.999l-153 -238c-64 34 -129 51 -195 51c-42 0 -75 -10.667 -99 -32c-14.667 -13.333 -22 -29.333 -22 -48c0 -14.667 5 -27 15 -37
c20 -12.667 44.333 -22.334 73 -29.001l15 -3c20.667 -5.33301 38.334 -9.66602 53.001 -12.999c68.667 -14.667 119 -31.667 151 -51c76.667 -47.333 115 -117 115 -209c0 -120 -44.333 -220 -133 -300c-101.333 -90.667 -238 -136 -410 -136
c-138.667 0 -273.667 40.333 -405 121l166 258c103.333 -71.333 200.666 -107 291.999 -107c48.667 0 86 14.333 112 43c17.333 19.333 22.666 40.666 15.999 63.999c-6 18 -20 32 -42 42c-14 6 -49.333 15 -106 27c-90 19.333 -156.667 43.666 -200 72.999
c-30 20.667 -51.667 43.667 -65 69c-12.667 25.333 -19 58.333 -19 99c0 114 38 208.667 114 284c58.667 57.333 142.667 99 252 125z" />
    <glyph glyph-name="Ydieresis" unicode="&#x178;" horiz-adv-x="1274" vert-adv-y="2457" 
d="M907 672l-84.001 -672.001h-387l84 684l-391 852h432l105 -246l43 -102c19.333 -47.333 38.333 -100 57 -158c6.66699 18 14 32.333 22 43c4 8 14.333 24.333 31 49c3.33301 4.66699 6.33301 9.33398 9 14.001c6.66699 10 11.334 16.333 14.001 19l264 381h473z
M612.999 1955c48 0 89.334 -17.332 124.001 -51.999c35.333 -35.333 53 -78 53 -128s-17.333 -92 -52 -126c-34.667 -34.667 -77.334 -52 -128.001 -52c-50 0 -92.333 17.333 -127 52c-34 34 -51 75.333 -51 124c0 51.333 17.333 94.666 52 129.999
c34.667 34.667 77.667 52 129 52zM1071 1955c48.667 0 90.668 -17.666 126.001 -52.999c34.667 -34.667 52 -77 52 -127c0 -49.333 -17.333 -91.333 -52 -126s-77.334 -52 -128.001 -52c-50 0 -92.333 17.333 -127 52c-34 34 -51 75.333 -51 124
c0 51.333 17.667 94.666 53 129.999c34.667 34.667 77 52 127 52z" />
    <glyph glyph-name="Zcaron" unicode="&#x17d;" horiz-adv-x="0" vert-adv-y="2457" 
 />
    <glyph glyph-name="zcaron" unicode="&#x17e;" horiz-adv-x="0" vert-adv-y="2457" 
 />
    <glyph glyph-name="florin" unicode="&#x192;" horiz-adv-x="1444" vert-adv-y="2457" 
d="M1162 844l-15.002 -297.001h-282l-109 -528c-19.333 -95.333 -40.666 -167.666 -63.999 -216.999c-98 -206.667 -260 -310 -486 -310c-137.333 0 -248.333 39.667 -333 119c-52 48.667 -90.333 106.667 -115 174c-10 26.667 -20.667 67 -32 121h365
c31.333 -66.667 73.333 -100 126 -100c42.667 0 74.334 15.667 95.001 47c14 22 28.333 66.333 43 133l121 561h-240l12 297h289l61 299l25 109c20 87.333 47 154.333 81 201c36 50 89 90 159 120c73.333 31.333 150 47 230 47c130 0 242.667 -38.667 338 -116
c50 -40.667 91.333 -94.667 124 -162l-244 -142c-38 92.667 -94.333 139 -169 139c-59.333 0 -100 -29.333 -122 -88c-7.33301 -18 -22.333 -79.333 -45 -184l-49 -223h236z" />
    <glyph glyph-name="circumflex" unicode="&#x2c6;" horiz-adv-x="1135" vert-adv-y="2457" 
d="M770 1411l-129 -196h-303l254 397h420l135 -397h-293z" />
    <glyph glyph-name="caron" unicode="&#x2c7;" horiz-adv-x="944" vert-adv-y="2457" 
d="M520 1414l129 198h303l-254 -397h-420l-135 397h293z" />
    <glyph glyph-name="macron" unicode="&#x2c9;" horiz-adv-x="1153" vert-adv-y="2457" 
d="M178 1454h913v-225h-913v225z" />
    <glyph glyph-name="breve" unicode="&#x2d8;" horiz-adv-x="1026" vert-adv-y="2457" 
d="M199 1569l226.999 -0.000976562c6 -53.333 22 -90.666 48 -111.999c24 -20 58.667 -30 104 -30c56.667 0 101.334 17 134.001 51c19.333 20 36 50.333 50 91h236c-14 -68 -31 -120 -51 -156c-74 -134 -198 -201 -372 -201c-124 0 -221.667 35.333 -293 106
c-56.667 56 -85 126.667 -85 212c0 11.333 0.666992 24.333 2 39z" />
    <glyph glyph-name="dotaccent" unicode="&#x2d9;" horiz-adv-x="1042" vert-adv-y="2457" 
d="M583 1601c53.333 0 99 -19.333 137 -58c37.333 -37.333 56 -82 56 -134c0 -56 -19 -103.333 -57 -142c-36.667 -36.667 -82 -55 -136 -55c-54.667 0 -101 19 -139 57s-57 84.333 -57 139c0 52.667 18.667 98 56 136s84 57 140 57z" />
    <glyph glyph-name="ring" unicode="&#x2da;" horiz-adv-x="1827" vert-adv-y="2457" 
d="M184 246l240 240.999c-50.667 96 -76 193.333 -76 292c0 95.333 28.667 196 86 302l-248 244l219 219l252 -252c52 26 95.667 44.333 131 55c49.333 15.333 102.333 23 159 23c60.667 0 117 -8.33301 169 -25c30.667 -10 71 -27 121 -51l245 248l220 -217l-242 -240
c58.667 -103.333 88 -205.666 88 -306.999c0 -50 -7 -102.333 -21 -157c-8 -32.667 -26.333 -76.667 -55 -132l240 -239l-217 -219l-238 237c-100.667 -58.667 -200.667 -88 -300 -88c-32 0 -63 2.66699 -93 8c-76.667 14 -151 40.667 -223 80l-240 -235zM948 1056
c-75.333 0 -139.334 -26.6689 -192.001 -80.002c-53.333 -53.333 -80 -118.666 -80 -195.999s27 -143 81 -197c52.667 -53.333 116.334 -80 191.001 -80c75.333 0 139.666 26.667 192.999 80c54 54 81 119.667 81 197c0 76.667 -27 142.334 -81 197.001
c-51.333 52.667 -115.666 79 -192.999 79z" />
    <glyph glyph-name="ogonek" unicode="&#x2db;" horiz-adv-x="1077" vert-adv-y="2457" 
d="M637 0h167.999c-44.667 -26.667 -74 -46.334 -88 -59.001c-42.667 -35.333 -64 -72.666 -64 -111.999c0 -22 7.33301 -40.333 22 -55s34.334 -22 59.001 -22c26.667 0 66.667 14.333 120 43l-74 -198c-56.667 -28.667 -111 -43 -163 -43c-54 0 -98.667 17.667 -134 53
s-53 80 -53 134c0 60.667 24.667 116 74 166c30 30 74.333 61 133 93z" />
    <glyph glyph-name="tilde" unicode="&#x2dc;" horiz-adv-x="1141" vert-adv-y="2457" 
d="M1182 1587c-11.333 -103.333 -27.668 -178 -49.001 -224c-45.333 -98.667 -118.666 -148 -219.999 -148c-29.333 0 -58.333 4.66699 -87 14c-29.333 10 -70.333 28.333 -123 55c-64 32 -106.333 48 -127 48c-31.333 0 -53 -13.333 -65 -40
c-6.66699 -15.333 -11 -39 -13 -71h-250l6 31l4 26c18.667 94 43 161.667 73 203c48.667 66.667 115.667 100 201 100c60.667 0 138.667 -25.333 234 -76c35.333 -18.667 64.666 -28 87.999 -28c30.667 0 52.334 10 65.001 30c10.667 15.333 17.667 42 21 80h242z" />
    <glyph glyph-name="hungarumlaut" unicode="&#x2dd;" horiz-adv-x="885" vert-adv-y="2457" 
d="M715 1509l-316 -311l-139 125l262 354zM1130 1509l-315 -311l-141 125l262 354z" />
    <glyph glyph-name="pi" unicode="&#x3c0;" horiz-adv-x="1491" vert-adv-y="2457" 
d="M313 0v815h-166v291h1397v-291h-168v-815h-367v815h-327v-815h-369z" />
    <glyph glyph-name="endash" unicode="&#x2013;" horiz-adv-x="1249" vert-adv-y="2457" 
d="M166 698h1092v-307h-1092v307z" />
    <glyph glyph-name="emdash" unicode="&#x2014;" horiz-adv-x="2413" vert-adv-y="2457" 
d="M1694 1077v-471h-1434v471h1434z" />
    <glyph glyph-name="quoteleft" unicode="&#x2018;" horiz-adv-x="623" vert-adv-y="2457" 
d="M246 883l125 653h252l-60 -653h-317z" />
    <glyph glyph-name="quoteright" unicode="&#x2019;" horiz-adv-x="621" vert-adv-y="2457" 
d="M621 1536l-121 -653h-254l59 653h316z" />
    <glyph glyph-name="quotesinglbase" unicode="&#x201a;" horiz-adv-x="600" vert-adv-y="2457" 
d="M413 391l-57 -681h-283l-10 681h350z" />
    <glyph glyph-name="quotedblleft" unicode="&#x201c;" horiz-adv-x="1010" vert-adv-y="2457" 
d="M692 883l45 653h252l21 -653h-318zM205 883l41 653h254l20 -653h-315z" />
    <glyph glyph-name="quotedblright" unicode="&#x201d;" horiz-adv-x="1010" vert-adv-y="2457" 
d="M522 1536l-45 -653h-252l-20 653h317zM1010 1536l-41 -653h-254l-21 653h316z" />
    <glyph glyph-name="quotedblbase" unicode="&#x201e;" horiz-adv-x="805" vert-adv-y="2457" 
d="M487 -268l45 653h252l21 -653h-318zM0 -268l41 653h254l20 -653h-315z" />
    <glyph glyph-name="dagger" unicode="&#x2020;" horiz-adv-x="1444" vert-adv-y="2457" 
d="M1374 1075l-47 -336h-385l-168 -1247h-385l170 1247h-385l47 336h385l62 461h383l-62 -461h385z" />
    <glyph glyph-name="daggerdbl" unicode="&#x2021;" horiz-adv-x="1444" vert-adv-y="2457" 
d="M885 289h378l-48 -336h-374l-66 -461h-383l66 461h-396l48 336h392l57 450h-385l47 336h385l62 461h383l-62 -461h385l-47 -336h-385z" />
    <glyph glyph-name="bullet" unicode="&#x2022;" horiz-adv-x="1528" vert-adv-y="2457" 
d="M821 1100c86 0 160.333 -30.666 223 -91.999c63.333 -62.667 95 -138.667 95 -228s-32 -165.333 -96 -228c-62 -60.667 -136.333 -91 -223 -91c-86 0 -160.333 30.333 -223 91c-64.667 63.333 -97 139.666 -97 228.999c0 87.333 32.333 163 97 227
c61.333 61.333 136 92 224 92z" />
    <glyph glyph-name="ellipsis" unicode="&#x2026;" horiz-adv-x="1835" vert-adv-y="2457" 
d="M372 434c64.667 0 119.999 -23.332 165.999 -69.999c46.667 -46 70 -102 70 -168s-23.333 -122.333 -70 -169s-103 -70 -169 -70c-65.333 0 -121.666 23.333 -168.999 70c-46 46 -69 101.333 -69 166c0 67.333 23.667 124.666 71 171.999c46 46 102.667 69 170 69z
M1071 433.001c64.667 0 120 -22.999 166 -68.999c46.667 -46.667 70 -102.667 70 -168c0 -66.667 -23.333 -123.334 -70 -170.001c-46.667 -46 -102.667 -69 -168 -69s-121.333 23 -168 69s-70 101.333 -70 166c0 68 23.333 125.333 70 172c45.333 46 102 69 170 69z
M1770 433.002c64.667 0 120 -22.999 166 -68.999c46.667 -46 70 -102 70 -168c0 -66.667 -23.333 -123.334 -70 -170.001c-46.667 -46 -102.667 -69 -168 -69s-121.333 23.333 -168 70c-46.667 46 -70 101.333 -70 166c0 67.333 23.333 124.333 70 171
c45.333 46 102 69 170 69z" />
    <glyph glyph-name="perthousand" unicode="&#x2030;" horiz-adv-x="3140" vert-adv-y="2457" 
d="M1341 1536h338l-893 -1536h-338zM462 1536c86.667 0 167.332 -21.666 241.999 -64.999c66.667 -38.667 119.334 -91.334 158.001 -158.001c38 -66 57 -138.333 57 -217c0 -122 -42.667 -225.333 -128 -310c-88.667 -88.667 -198.334 -133 -329.001 -133
c-131.333 0 -241.333 44.333 -330 133c-85.333 85.333 -128 189 -128 311c0 120 42 222.667 126 308c86.667 87.333 197.334 131 332.001 131zM1669 885.001c86 0 166.666 -21.667 241.999 -65c66.667 -38.667 119.334 -91.334 158.001 -158.001c38 -66 57 -138.333 57 -217
c0 -123.333 -43 -227.666 -129 -312.999c-88.667 -88 -198 -132 -328 -132c-132 0 -242.333 44.333 -331 133c-85.333 85.333 -128 189 -128 311c0 120.667 42 223.667 126 309c87.333 88 198.333 132 333 132zM460.997 1274c-47.333 0 -87.666 -17 -120.999 -51
c-34 -34 -51 -75.333 -51 -124c0 -48 17 -89 51 -123c34 -34.667 75 -52 123 -52c47.333 0 87.666 16.667 120.999 50c34 34 51 76 51 126c0 48 -17 89.333 -51 124c-32.667 33.333 -73.667 50 -123 50zM1667 621.001c-48 0 -88.666 -16.667 -121.999 -50
c-33.333 -34 -50 -75.333 -50 -124s17 -90 51 -124s75 -51 123 -51c47.333 0 87.666 17 120.999 51c34 34 51 75.333 51 124c0 48 -17 89.333 -51 124c-32.667 33.333 -73.667 50 -123 50zM2685 885.001c86 0 166.333 -21.667 241 -65
c67.333 -38.667 120.333 -91.334 159 -158.001c38 -66 57 -138.333 57 -217c0 -123.333 -43 -227.666 -129 -312.999c-88 -88 -197.333 -132 -328 -132c-132 0 -242.333 44.333 -331 133c-85.333 85.333 -128 189 -128 311c0 120.667 42 223.667 126 309
c86.667 88 197.667 132 333 132zM2683 621.001c-48 0 -88.667 -16.667 -122 -50c-33.333 -34 -50 -75.333 -50 -124s17 -90 51 -124s75 -51 123 -51c47.333 0 87.666 17 121 51c34 34 51 75.333 51 124c0 48 -17 89.333 -51 124c-32.667 33.333 -73.667 50 -123 50z" />
    <glyph glyph-name="guilsinglleft" unicode="&#x2039;" horiz-adv-x="680" vert-adv-y="2457" 
d="M383 526l262 -354l-211 -147l-350 501l350 500l205 -142z" />
    <glyph glyph-name="guilsinglright" unicode="&#x203a;" horiz-adv-x="680" vert-adv-y="2457" 
d="M375 526l-256 358l203 142l350 -500l-350 -501l-209 147z" />
    <glyph glyph-name="trademark" unicode="&#x2122;" horiz-adv-x="1710" vert-adv-y="2457" 
d="M578 1319l-82 -657h-264l82 657h-199l27 217h655l-25 -217h-194zM1905 1536l41 -874.001h-264l-17 467l-252 -467h-145l-86 336c-10 40.667 -19.667 89.667 -29 147c-10.667 -43.333 -20 -78.666 -28 -105.999l-117 -377h-272l290 874h254l76 -295
c12 -46 23.667 -102.667 35 -170l250 465h264z" />
    <glyph glyph-name="Ohm" unicode="&#x2126;" horiz-adv-x="1534" vert-adv-y="2457" 
d="M164 0v340.002h281c-56 37.333 -95 66.666 -117 87.999c-116 112 -174 254 -174 426c0 202.667 70 373.667 210 513c138 137.333 306 206 504 206s365.667 -68.333 503 -205c71.333 -70.667 125 -153.334 161 -248.001c32.667 -84.667 49 -173 49 -265
c0 -154.667 -43 -281.334 -129 -380.001c-28.667 -32.667 -55 -58.334 -79 -77.001c-12.667 -10 -40 -28.667 -82 -56h280v-342h-626v313c68.667 38.667 121 86.334 157 143.001c53.333 85.333 80 193 80 323c0 142 -33.333 255.667 -100 341
c-56.667 72.667 -127.667 109 -213 109c-90.667 0 -166 -41.667 -226 -125c-59.333 -83.333 -89 -192.666 -89 -327.999c0 -138.667 29.667 -250.667 89 -336c34 -48.667 84 -91 150 -127v-313h-629z" />
    <glyph glyph-name="partialdiff" unicode="&#x2202;" horiz-adv-x="1153" vert-adv-y="2457" 
d="M215 1223l45.001 303.002c161.333 -18.667 292.333 -46.334 393 -83.001c174.667 -64 312.334 -164 413.001 -300c102 -138 153 -310 153 -516c0 -228.667 -62 -400 -186 -514c-96 -87.333 -218.667 -131 -368 -131c-158 0 -286.667 49.667 -386 149
c-100 100 -150 226.667 -150 380c0 141.333 45.333 257.666 136 348.999c87.333 88.667 195.666 133 324.999 133c75.333 0 135 -9.33301 179 -28c19.333 -8.66699 45.666 -25.334 78.999 -50.001c-30.667 54.667 -56.667 92.334 -78 113.001
c-61.333 64 -152.333 113.667 -273 149c-68.667 20 -126.334 32.333 -173.001 37c-17.333 2 -53.666 5 -108.999 9zM673.001 704.002c-52 0 -97 -19.333 -135 -58c-40.667 -40 -61 -89.333 -61 -148c0 -60 21 -110.333 63 -151c37.333 -37.333 81 -56 131 -56
c51.333 0 95.666 18.667 132.999 56c40.667 40.667 61 91 61 151s-20.667 111 -62 153c-35.333 35.333 -78.666 53 -129.999 53z" />
    <glyph glyph-name="increment" unicode="&#x2206;" horiz-adv-x="1518" vert-adv-y="2457" 
d="M121 0l530 1536h408l539 -1536h-1477zM621 340h469l-230 782z" />
    <glyph glyph-name="product" unicode="&#x220f;" horiz-adv-x="1536" vert-adv-y="2457" 
d="M135 1729h1464v-313h-164v-1678h164v-313h-655v313h141v1678h-434v-1678h137v-313h-653v313h166v1678h-166v313z" />
    <glyph glyph-name="summation" unicode="&#x2211;" horiz-adv-x="1536" vert-adv-y="2457" 
d="M1552 1729v-611h-352l-43 249h-541l555 -759l-549 -823h555l23 264h373v-624h-1395v413l526 770l-526 703v418h1374z" />
    <glyph glyph-name="minus" unicode="&#x2212;" horiz-adv-x="0" vert-adv-y="2457" 
d="M152 563v266h1024v-266h-1024z" />
    <glyph glyph-name="fraction" unicode="&#x2215;" horiz-adv-x="0" vert-adv-y="2457" 
 />
    <glyph glyph-name="periodcentered" unicode="&#x2219;" horiz-adv-x="276" vert-adv-y="2457" 
d="M157 928c40 0 74 -13.667 102 -41c26.667 -26.667 40 -58.334 40 -95.001c0 -40.667 -14 -75 -42 -103c-27.333 -26.667 -60.666 -40 -99.999 -40c-36.667 0 -68.334 12.667 -95.001 38c-28 28 -42 62.667 -42 104c0 38.667 13.333 71.334 40 98.001
c26 26 58.333 39 97 39z" />
    <glyph glyph-name="radical" unicode="&#x221a;" horiz-adv-x="1536" vert-adv-y="2457" 
d="M1636 1905l-0.00195312 -324h-367l-381 -1581h-461l-116 555h-213v326h434l53 -217c10.667 -54 23.334 -154.333 38.001 -301v-31h21c8.66699 73.333 16.334 131.333 23.001 174c30.667 203.333 64 377.333 100 522l213 877h656z" />
    <glyph glyph-name="infinity" unicode="&#x221e;" horiz-adv-x="1536" vert-adv-y="2457" 
d="M876 606c-54 -59.333 -104.332 -103.331 -150.999 -131.998c-67.333 -41.333 -139.333 -62 -216 -62c-109.333 0 -199 35 -269 105c-68.667 69.333 -103 157.666 -103 264.999c0 106.667 34.667 195 104 265c70.667 70.667 159.334 106 266.001 106
c126.667 0 245 -65 355 -195c106 130 227.333 195 364 195c109.333 0 198.666 -35 267.999 -105c68.667 -68.667 103 -156.334 103 -263.001c0 -109.333 -35 -199.333 -105 -270c-68.667 -68.667 -156.334 -103 -263.001 -103c-132 0 -249.667 64.667 -353 194z
M999.001 780.002c65.333 -84 127.665 -126.002 186.998 -126.002c39.333 0 72 13 98 39c24.667 24.667 37 54.334 37 89.001c0 34 -12 62.667 -36 86c-27.333 27.333 -61 41 -101 41c-37.333 0 -73.666 -14.667 -108.999 -44c-14.667 -12 -29.667 -27 -45 -45
c-21.333 -25.333 -31.666 -38.666 -30.999 -39.999zM735 780c-31.333 41.333 -58.334 71.335 -81.001 90.002c-33.333 26 -67.666 39 -102.999 39c-38.667 0 -70.667 -12.667 -96 -38c-24.667 -24 -37 -54 -37 -90c0 -35.333 12.667 -65.333 38 -90
c25.333 -26 57 -39 95 -39c36.667 0 73 15 109 45c11.333 9.33301 27 25.166 47 47.499s29.333 34.166 28 35.499z" />
    <glyph glyph-name="integral" unicode="&#x222b;" horiz-adv-x="1153" vert-adv-y="2457" 
d="M162 -553l61.001 372.999c37.333 -14.667 70 -22 98 -22c49.333 0 87.666 16.333 114.999 49c12.667 14.667 20.334 31.334 23.001 50.001c2.66699 18 4 55 4 111v133l1 797l1 133v131c0 150.667 32.333 267.667 97 351c90.667 117.333 229.334 176 416.001 176
c56.667 0 128 -7.66699 214 -23l-63 -375c-40.667 16.667 -74.334 25 -101.001 25c-48.667 0 -85.334 -15.667 -110.001 -47c-13.333 -16.667 -22 -35 -26 -55c-3.33301 -19.333 -5 -56.333 -5 -111v-920v-293c0 -66 -11 -133.333 -33 -202
c-30 -96.667 -86.333 -170.667 -169 -222c-84.667 -52.667 -191 -79 -319 -79c-64.667 0 -132.667 6.66699 -204 20z" />
    <glyph glyph-name="approxequal" unicode="&#x2248;" horiz-adv-x="1153" vert-adv-y="2457" 
d="M316 803l-199 139.001c44 106.667 88 184.667 132 234c62 68 138.333 102 229 102c27.333 0 48 -1.33301 62 -4c12.667 -2.66699 60 -18.667 142 -48l49 -18l82 -32c31.333 -12.667 57.666 -19 78.999 -19c24.667 0 48 6.33301 70 19c18.667 11.333 43.667 39.333 75 84
l198 -140c-42 -102.667 -82 -176.334 -120 -221.001c-67.333 -78 -148 -117 -242 -117c-50 0 -125.667 21.333 -227 64c-91.333 39.333 -155 59 -191 59c-30 0 -57 -10.667 -81 -32c-15.333 -14.667 -34.666 -38 -57.999 -70zM316 258.001l-199 141.002
c42.667 106 86.667 184 132 234c62 69.333 136.667 104 224 104c25.333 0 52.666 -4 81.999 -12c26.667 -7.33301 76.667 -24.666 150 -51.999l13 -5c8 -2.66699 15.333 -5.33398 22 -8.00098c8 -3.33301 15.667 -6.33301 23 -9c29.333 -12.667 46 -19.334 50 -20.001
c35.333 -12 62 -18 80 -18c22 0 45 7.33301 69 22c18 11.333 43 38.666 75 81.999l198 -142c-43.333 -106 -83.333 -179.667 -120 -221c-66 -74.667 -147.333 -112 -244 -112c-38.667 0 -83.667 9 -135 27l-13 5c-34 12 -79.333 29.667 -136 53c-58 23.333 -102 35 -132 35
c-29.333 0 -56.666 -11.333 -81.999 -34c-16 -14 -35 -37.333 -57 -70z" />
    <glyph glyph-name="notequal" unicode="&#x2260;" horiz-adv-x="1153" vert-adv-y="2457" 
d="M682 1139l165 303l254 -141l-92 -162h166v-348h-307l-88 -158h393v-344h-518l-139 -252l-256 143l68 109h-150v344h276l90 158h-366v348h504z" />
    <glyph glyph-name="lessequal" unicode="&#x2264;" horiz-adv-x="1153" vert-adv-y="2457" 
d="M1175 1532v-387l-547 -152l546 -151v-387l-996 364v346zM1175 393v-362h-997v362h997z" />
    <glyph glyph-name="greaterequal" unicode="&#x2265;" horiz-adv-x="1153" vert-adv-y="2457" 
d="M179 455v387l543 151l-544 152v387l997 -367v-344zM178 31v362h997v-362h-997z" />
    <glyph glyph-name="lozenge" unicode="&#x25ca;" horiz-adv-x="1403" vert-adv-y="2457" 
d="M788 1597l598 -829l-598 -827l-598 827zM788 1393l-455 -625l455 -623l455 623z" />
    <glyph glyph-name="fi" unicode="&#xf001;" horiz-adv-x="1442" vert-adv-y="2457" 
d="M981 1614l-41.002 -293c-51.333 16.667 -91.666 25 -120.999 25c-38.667 0 -68 -11.667 -88 -35c-15.333 -18 -27.666 -60.333 -36.999 -127l-18 -135h227l-41 -301h-229l-100 -748h-381l102 746h-176l39 303h178l16 121c12.667 100 24.334 168.333 35.001 205
c19.333 64 47.666 115.333 84.999 154c80.667 82.667 188.667 124 324 124c76 0 151.333 -13 226 -39zM1387 1049l-142 -1049h-381l144 1049h379zM1259 1653c61.333 0 112.667 -20.334 154 -61.001c38.667 -39.333 58 -87 58 -143c0 -60 -20.333 -110.333 -61 -151
c-42.667 -42 -96.334 -63 -161.001 -63c-63.333 0 -115.666 20.667 -156.999 62c-38.667 38.667 -58 86.334 -58 143.001c0 58 20.667 107.667 62 149c42.667 42.667 97 64 163 64z" />
    <glyph glyph-name="fl" unicode="&#xf002;" horiz-adv-x="1403" vert-adv-y="2457" 
d="M981 1614l-41.002 -293c-51.333 16.667 -91.666 25 -120.999 25c-38.667 0 -68 -11.667 -88 -35c-15.333 -18 -27.666 -60.333 -36.999 -127l-18 -135h227l-41 -301h-229l-100 -748h-381l102 746h-176l39 303h178l16 121c12.667 100 24.334 168.333 35.001 205
c19.333 64 47.666 115.333 84.999 154c80.667 82.667 188.667 124 324 124c76 0 151.333 -13 226 -39zM1456 1614l-219 -1614h-381l219 1614h381z" />
    <glyph glyph-name="glyph1" horiz-adv-x="0" vert-adv-y="0" 
 />
    <glyph glyph-name="glyph2" horiz-adv-x="575" vert-adv-y="2457" 
 />
    <glyph glyph-name="nounicode-3-1-a4" horiz-adv-x="1622" vert-adv-y="1622" 
 />
    <glyph glyph-name="nounicode-3-1-d3" horiz-adv-x="575" vert-adv-y="2457" 
 />
    <glyph glyph-name="nounicode-3-1-7e" horiz-adv-x="575" vert-adv-y="2457" 
 />
    </font>
</defs>
</svg>
