<?xml version="1.0" standalone="no"?>
<!DOCTYPE svg PUBLIC "-//W3C//DTD SVG 1.1//EN" "http://www.w3.org/Graphics/SVG/1.1/DTD/svg11.dtd" >
<svg xmlns="http://www.w3.org/2000/svg">
<metadata></metadata>
<defs>
<font id="FuturaStdExtraBoldItalic" horiz-adv-x="1703" >
<font-face units-per-em="2048" ascent="1690" descent="-358" />
<missing-glyph horiz-adv-x="851" />
<glyph unicode="&#xfb01;" horiz-adv-x="1683" d="M115 664l67 423l142 -18l18 115q76 493 549 493q75 0 227 -24l-67 -420q-45 18 -68 18q-113 0 -133 -145l-8 -41l182 22l-68 -423l-168 14l-106 -678h-528l106 678zM1018 0l172 1087h528l-172 -1087h-528zM1217 1423q18 116 111 185t220 69t197.5 -69t52.5 -185 q-21 -126 -114.5 -191t-217.5 -65q-79 0 -139 26t-92 85.5t-18 144.5z" />
<glyph unicode="&#xfb02;" horiz-adv-x="1644" d="M115 664l67 423l142 -18l18 115q76 493 549 493q75 0 227 -24l-67 -420q-45 18 -68 18q-113 0 -133 -145l-8 -41l182 22l-68 -423l-168 14l-106 -678h-528l106 678zM997 0l263 1661h528l-262 -1661h-529z" />
<glyph horiz-adv-x="0" />
<glyph horiz-adv-x="2048" />
<glyph unicode=" "  horiz-adv-x="851" />
<glyph unicode="&#x09;" horiz-adv-x="851" />
<glyph unicode="&#xa0;" horiz-adv-x="851" />
<glyph unicode="!" horiz-adv-x="946" d="M201 229q18 117 122 188.5t224 71.5t201 -71.5t63 -188.5q-19 -115 -122 -184.5t-224 -69.5t-202 69.5t-62 184.5zM293 590l166 1055h540l-165 -1055h-541z" />
<glyph unicode="&#x22;" horiz-adv-x="1613" d="M434 780l39 764h531l-203 -764h-367zM1059 780l39 764h530l-203 -764h-366z" />
<glyph unicode="#" d="M156 391l41 254h311l110 283h-264l39 254h322l182 458h291l-180 -458h278l180 458h291l-182 -458h221l-39 -254h-270l-111 -283h258l-41 -254h-325l-152 -391h-293l154 391h-279l-151 -391h-293l152 391h-250zM801 645h280l117 283h-287z" />
<glyph unicode="$" d="M250 188l221 406q96 -93 195.5 -145t218.5 -52q175 0 188 99q4 25 -6 43.5t-32.5 29t-40.5 15t-44 8.5l-86 14q-46 7 -85.5 16.5t-79 22.5t-72 29t-63.5 37.5t-52.5 46.5t-40 56.5t-26 68.5t-10.5 81t7 95q16 103 60.5 183t114 136t147 93.5t178.5 68.5l29 250h350 l-57 -238q196 -15 370 -118l-217 -390q-64 63 -152.5 97.5t-185.5 34.5q-56 0 -101.5 -23.5t-53.5 -75.5q-2 -16 2 -29.5t16 -22t23 -14t31 -9.5t31.5 -5.5t32 -3t25.5 -2.5q122 -15 207.5 -40t161 -75t105 -138.5t10.5 -213.5q-33 -203 -189.5 -342t-365.5 -164l-25 -254 h-332l54 252q-237 8 -461 172z" />
<glyph unicode="%" horiz-adv-x="2344" d="M229 1147q16 106 67 188t126.5 132.5t167.5 76t196 25.5t188 -25.5t143.5 -76t85 -132.5t9.5 -188q-17 -106 -71 -190t-131.5 -135.5t-169 -78t-189.5 -26.5t-180.5 26.5t-143.5 78t-88 135.5t-10 190zM510 0l1311 1589h280l-1302 -1589h-289zM623 1147 q-8 -48 11.5 -78.5t67.5 -30.5t78.5 31t38.5 78q7 47 -12.5 81t-67.5 34t-78.5 -34t-37.5 -81zM1378 406q17 106 68.5 188t127 132t167.5 75.5t196 25.5t188 -25.5t143.5 -75.5t84.5 -132t8 -188q-16 -106 -69.5 -190t-131 -136t-169 -78.5t-189.5 -26.5t-181 26.5 t-144 78.5t-88 136t-11 190zM1772 406q-6 -48 13.5 -78.5t67.5 -30.5q49 0 79 31t36 78q8 47 -12 80.5t-68 33.5t-78 -33.5t-38 -80.5z" />
<glyph unicode="&#x26;" horiz-adv-x="1970" d="M156 463q25 159 150 256t298 129q-64 69 -92 135.5t-14 153.5q18 109 82.5 195t157 136t193.5 75.5t204 25.5q76 0 151.5 -16.5t144 -51.5t118.5 -84t73.5 -121t9.5 -155q-21 -133 -123.5 -239.5t-238.5 -145.5l119 -142q21 13 41.5 26.5t43.5 33t37 31t41 37t35.5 33 t40 38.5t35.5 35l240 -332l-271 -182l303 -334h-645l-84 117q-128 -76 -248.5 -109t-261.5 -33q-94 0 -178.5 17t-159 54.5t-124.5 93t-72 138.5t-6 185zM682 477q-9 -57 26.5 -87t94.5 -30q16 0 31.5 2t33 7t26.5 8t32 12.5t30 11.5l-163 195q-26 -16 -37.5 -24t-31 -24 t-29.5 -33.5t-13 -37.5zM1004 1133q-6 -31 11.5 -68t43.5 -53q117 62 127 131q6 34 -15.5 62t-54.5 28q-42 0 -74 -29t-38 -71z" />
<glyph unicode="'" horiz-adv-x="1009" d="M444 780l39 764h531l-203 -764h-367z" />
<glyph unicode="(" horiz-adv-x="921" d="M197.5 180q-18.5 231 15.5 455q35 219 127 453t221 434l125 196l358 -229q-125 -155 -214 -393t-125 -461q-85 -547 69 -856l-432 -228l-61 197q-65 201 -83.5 432z" />
<glyph unicode=")" horiz-adv-x="921" d="M78 -221q256 317 340 856q23 140 26.5 288.5t-20 304t-76.5 261.5l432 229l64 -196q64 -201 81.5 -432t-16.5 -455q-35 -219 -127 -453t-219 -434l-127 -197z" />
<glyph unicode="*" horiz-adv-x="1007" d="M291 1047l188 104l-155 98l137 185l143 -93l31 203h217l-33 -213l182 103l80 -185l-174 -98l144 -86l-140 -195l-149 97l-31 -189h-217l29 183l-172 -91z" />
<glyph unicode="+" horiz-adv-x="1638" d="M270 410l64 409h409l66 410h410l-66 -410h410l-64 -409h-409l-66 -410h-410l66 410h-410z" />
<glyph unicode="," horiz-adv-x="851" d="M-53 -340l368 764h531l-488 -764h-411z" />
<glyph unicode="-" horiz-adv-x="993" d="M184 338l72 450h731l-72 -450h-731z" />
<glyph unicode="." horiz-adv-x="851" d="M158 229q18 117 122 188.5t224 71.5t201 -71.5t63 -188.5q-19 -115 -122 -184.5t-224 -69.5t-202 69.5t-62 184.5z" />
<glyph unicode="/" horiz-adv-x="1490" d="M-12 -307l1425 1968h303l-1423 -1968h-305z" />
<glyph unicode="0" d="M229 524q-9 122 11 262q26 165 99 307.5t181.5 248.5t258.5 166.5t321 60.5q115 0 212.5 -27.5t169.5 -78t126 -121.5t81.5 -158t35.5 -187.5t-11 -210.5q-28 -174 -100 -322t-181 -257t-259.5 -170.5t-325.5 -61.5q-140 0 -253.5 40t-188 112t-121.5 173.5t-56 223.5z M767 668.5q3 -58.5 14 -111t47 -89t92 -36.5t103.5 35.5t77.5 91t48.5 109.5t26.5 104q7 42 8.5 82t-5 84.5t-23 76.5t-50.5 53.5t-82 21.5t-88.5 -21.5t-66.5 -53.5t-46.5 -76.5t-31 -84t-17.5 -82.5q-10 -45 -7 -103.5z" />
<glyph unicode="1" d="M545 1032l78 488l796 24l-243 -1544h-558l166 1049z" />
<glyph unicode="2" d="M53 0l703 547q389 301 409 440q9 52 -22 87.5t-84 35.5q-43 0 -73.5 -16t-49 -47t-28 -60.5t-17.5 -71.5h-549q86 342 275 498t534 156q98 0 189 -22t169 -67.5t132 -109t78 -153t7 -193.5q-18 -112 -79 -210t-150.5 -170t-191 -123.5t-213.5 -84.5l-5 -16l271 37l305 18 l-76 -475h-1534z" />
<glyph unicode="3" d="M213 541h565q-14 -70 24 -122t107 -52q58 0 111.5 42t62.5 99q9 58 -26 100.5t-92 42.5q-26 0 -76 -8l51 322l43 -4q46 -4 86.5 29.5t48.5 80.5q7 46 -19 74.5t-73 28.5q-46 0 -80.5 -36t-36.5 -83h-553q128 514 748 514q82 0 164 -14.5t162 -49t138.5 -84t88 -126 t14.5 -169.5q-15 -97 -79 -179t-158 -120l-2 -12q115 -30 168 -126t32 -222q-17 -108 -74.5 -194.5t-136 -141t-178 -91t-195 -51t-192.5 -14.5q-117 0 -216.5 18t-186 60t-144 106t-84 161.5t-12.5 220.5z" />
<glyph unicode="4" d="M154 293l63 405l766 846h664l-131 -831l196 14l-67 -434l-207 16l-35 -309h-533l70 309zM729 698l275 15l36 231q7 49 45 127l-12 8q-42 -68 -106 -129l-236 -243z" />
<glyph unicode="5" d="M221 100l127 418q79 -47 213.5 -87t226.5 -40q40 0 84.5 7.5t91.5 23.5t81 48t40 75q7 44 -22.5 76t-80 47.5t-96 22.5t-85.5 7q-219 0 -420 -67l278 913h1051l-68 -432h-661q-42 -125 -78 -178h15q41 45 119.5 63.5t156.5 18.5q106 0 196.5 -34.5t153 -96.5t90.5 -153.5 t11 -199.5q-17 -109 -77 -202.5t-145.5 -157.5t-189.5 -109.5t-209.5 -66.5t-206.5 -21q-130 0 -315.5 37t-280.5 88z" />
<glyph unicode="6" d="M219 629q45 291 350 561l402 354h735l-561 -434v-12q16 2 50 8.5t59.5 10t48.5 3.5q100 0 180 -44.5t127.5 -117t66.5 -165t4 -189.5q-24 -148 -103.5 -269.5t-193 -199t-249.5 -119t-279 -41.5q-116 0 -220.5 27.5t-189.5 83t-143 133t-81 183t-3 227.5zM756 606 q-14 -82 31 -136t128 -54q80 0 145 51t77 131q14 84 -33.5 142.5t-130.5 58.5q-77 0 -141 -58.5t-76 -134.5z" />
<glyph unicode="7" d="M186 0l738 977q49 70 80 92l2 12l-230 -18l-424 -14l78 495h1499l-1122 -1544h-621z" />
<glyph unicode="8" d="M217 442q21 127 113.5 221t220.5 125l2 15q-99 31 -149 112t-33 187q16 98 70.5 178.5t130 133t168.5 88.5t183 51.5t177 15.5t172 -15.5t167 -51.5t141 -88.5t88 -133t13 -178.5q-17 -106 -92.5 -187t-183.5 -112l-2 -15q119 -31 181.5 -125t41.5 -221 q-16 -104 -76.5 -187t-141.5 -134t-182.5 -85t-194.5 -47.5t-183 -13.5t-179 13.5t-179.5 47.5t-156 85t-99 134t-17.5 187zM780 504q-10 -66 27 -112t100 -46t114.5 46t61.5 112q9 61 -30.5 103t-98.5 42t-112 -42t-62 -103zM905 1059q-7 -46 22 -79.5t74 -33.5t86 33.5 t48 79.5q8 51 -20 86t-77 35t-87 -35t-46 -86z" />
<glyph unicode="9" d="M238 0l440 342q7 5 24.5 19.5t26.5 21t24 15.5t29 14l2 10l-86 -4q-157 -8 -264.5 65t-148.5 198t-17 280q23 145 101 262.5t190 192t244.5 114t271.5 39.5q122 0 229 -24t196 -75.5t148 -125.5t83 -181t4 -235q-26 -165 -107.5 -293t-226.5 -258l-418 -377h-745z M819 936q-12 -82 33.5 -137.5t126.5 -55.5q74 0 136.5 55.5t74.5 129.5q12 76 -32 132t-120 56t-141.5 -52.5t-77.5 -127.5z" />
<glyph unicode=":" horiz-adv-x="851" d="M158 229q18 117 122 188.5t224 71.5t201 -71.5t63 -188.5q-19 -115 -122 -184.5t-224 -69.5t-202 69.5t-62 184.5zM256 852q13 79 68 139.5t128 90.5t150 30q120 0 201.5 -71.5t62.5 -188.5q-19 -115 -122 -184.5t-224 -69.5t-202 69.5t-62 184.5z" />
<glyph unicode=";" horiz-adv-x="851" d="M-53 -340l368 764h531l-488 -764h-411zM358 852q13 79 68 139.5t128.5 90.5t150.5 30q120 0 201.5 -71.5t62.5 -188.5q-19 -115 -122 -184.5t-224 -69.5t-202.5 69.5t-62.5 184.5z" />
<glyph unicode="&#x3c;" horiz-adv-x="1638" d="M262 362l80 500l1288 373l-69 -434l-709 -187l-2 -4l651 -186l-69 -434z" />
<glyph unicode="=" horiz-adv-x="1638" d="M205 0l65 410h1229l-65 -410h-1229zM305 639l66 410h1228l-65 -410h-1229z" />
<glyph unicode="&#x3e;" horiz-adv-x="1638" d="M203 -10l69 434l709 186l2 4l-651 187l69 434l1170 -373l-80 -500z" />
<glyph unicode="?" horiz-adv-x="1427" d="M276 1112q31 164 138.5 292.5t256.5 195.5t312 67q129 0 236 -37t181 -106t106.5 -176.5t11.5 -239.5q-17 -107 -65 -195t-116.5 -148.5t-155.5 -101.5t-181 -60t-195 -19q-85 0 -164 18l61 397q70 -20 103 -20q77 0 136 43.5t71 118.5q8 45 -14.5 73.5t-67.5 28.5 q-48 0 -82.5 -39.5t-44.5 -91.5h-527zM465 229q18 117 122 188.5t224 71.5t201 -71.5t63 -188.5q-19 -115 -122 -184.5t-224 -69.5t-202 69.5t-62 184.5z" />
<glyph unicode="@" horiz-adv-x="1638" d="M195 768q36 225 169.5 409t329 288t410.5 104q285 0 455 -176q197 -200 153 -471q-20 -127 -70.5 -238t-123.5 -190q-86 -93 -176 -137.5t-168 -41.5q-41 1 -72 35t-37 82q-121 -117 -281 -117q-137 0 -222.5 111t-61.5 264q15 93 59 180.5t108 155.5t150 109t178 41 q164 0 232 -125l37 106h194l-184 -524q-28 -77 -29 -99q-1 -35 33 -32q58 6 137 114.5t107 235.5q26 128 3 223.5t-87.5 160t-159 96.5t-213.5 32q-257 0 -440 -165.5t-226 -430.5q-21 -137 7 -249.5t96.5 -187.5t173 -116t235.5 -41q260 0 379 66l146 -134 q-285 -137 -572 -137q-163 0 -300 60.5t-227 165.5t-129 254t-13 319zM752 723q-13 -78 20 -132t105 -54q87 0 145 66t84 155q25 87 -8 141.5t-109 54.5q-85 0 -154.5 -72t-82.5 -159z" />
<glyph unicode="A" horiz-adv-x="1685" d="M-12 0l780 1544h621l307 -1544h-594l-21 193h-424l-75 -193h-594zM815 559h225l-22 272q-4 44 -4 199h-21z" />
<glyph unicode="B" horiz-adv-x="1507" d="M123 0l244 1544h653q98 0 177 -10t156 -38.5t125.5 -74.5t71.5 -124q13 -45 13 -98q0 -39 -7 -83q-16 -107 -82 -193.5t-169 -117.5l-2 -12q123 -45 181 -139q42 -68 42 -159q0 -33 -6 -69q-15 -92 -60 -166t-107 -121.5t-141.5 -79.5t-160 -45.5t-164.5 -13.5h-764z M702 369h64q30 0 49.5 1t50 4t51 11.5t42 22t34.5 36.5t17 54q5 31 -1.5 54t-26 36.5t-36.5 21.5t-50 11t-49.5 3.5t-49.5 0.5h-56zM793 950h51q37 0 63.5 3.5t56 14t48 35t24.5 62.5q2 13 2 25q0 8 -1 14q-2 18 -9.5 29t-19 19t-26 11.5t-30.5 5.5t-33 2h-34h-17h-39z" />
<glyph unicode="C" horiz-adv-x="1343" d="M193 758q26 166 112 316.5t210.5 259t284 172t326.5 63.5q194 0 367 -64l-76 -587q-144 155 -305 155q-126 0 -229 -87.5t-123 -213.5q-4 -26 -4 -50q0 -94 62 -164q78 -88 206 -87q177 0 346 143l-108 -577q-65 -29 -191.5 -45.5t-218.5 -16.5q-162 0 -298 61t-224 165 q-87 103 -125 249q-23 86 -23 179q0 63 11 129z" />
<glyph unicode="D" horiz-adv-x="1693" d="M131 0l244 1544h571q159 0 290 -28t238 -88t172 -154q66 -94 93 -224q13 -63 13 -135q0 -77 -15 -165q-36 -226 -162.5 -397t-316.5 -262t-416 -91h-711zM766 463h35q148 0 249.5 72t125.5 217q7 41 7 77q0 101 -55 157q-74 76 -233 75h-35z" />
<glyph unicode="E" horiz-adv-x="1277" d="M119 0l243 1544h1039l-66 -422h-473l-24 -147h432l-64 -402h-432l-22 -151h489l-67 -422h-1055z" />
<glyph unicode="F" horiz-adv-x="1232" d="M127 0l244 1544h1034l-70 -442h-469l-24 -160h411l-63 -401h-412l-86 -541h-565z" />
<glyph unicode="G" horiz-adv-x="1824" d="M186 762q39 246 181.5 431t350.5 280.5t451 95.5q103 0 211.5 -25.5t207 -73.5t174 -126t104.5 -173l-555 -192q-23 58 -74.5 88.5t-120.5 30.5q-144 0 -243.5 -105.5t-124.5 -253.5q-5 -33 -5 -64q0 -94 47 -167q64 -98 195 -98q74 0 146.5 35t101.5 100h-254l57 364 h867q-13 -76 -18.5 -107.5t-20 -97.5t-26.5 -100t-34.5 -89.5t-47.5 -93.5t-62 -84t-82 -87q-140 -131 -327.5 -203t-371.5 -72q-177 0 -323 54t-246 153t-144 248q-26 90 -26 192q0 67 12 140z" />
<glyph unicode="H" horiz-adv-x="1677" d="M127 0l244 1544h540l-82 -520h345l81 520h541l-244 -1544h-540l84 537h-344l-84 -537h-541z" />
<glyph unicode="I" horiz-adv-x="825" d="M131 0l244 1544h561l-244 -1544h-561z" />
<glyph unicode="J" horiz-adv-x="1083" d="M-6 143l266 478q7 -30 11 -46t14 -42t21.5 -39.5t31.5 -24t45 -10.5q100 0 125 168l145 917h549l-164 -1040q-37 -231 -208 -380t-402 -149q-117 0 -233.5 46.5t-200.5 121.5z" />
<glyph unicode="K" horiz-adv-x="1681" d="M131 0l244 1544h547l-117 -670h12q5 13 10.5 25.5t14.5 28t13 23.5t17 27t15.5 22.5t18.5 25.5l16 23l348 495h612l-602 -751l410 -793h-652l-192 467q-7 18 -25.5 55t-29 67t-11.5 58h-12l-90 -647h-547z" />
<glyph unicode="L" horiz-adv-x="1185" d="M127 0l244 1544h561l-166 -1048h471l-78 -496h-1032z" />
<glyph unicode="M" horiz-adv-x="2217" d="M63 0l494 1544h578l86 -811h14q41 138 72 205l268 606h571l11 -1544h-543l57 846h-10q-40 -114 -59 -154l-334 -692h-328l-96 653q-8 86 -8 143q0 29 2 50h-19q-18 -92 -43 -187l-170 -659h-543z" />
<glyph unicode="N" horiz-adv-x="1785" d="M119 0l243 1544h539l369 -856h16q-2 49 -2 106q0 43 1 90q3 111 18 197l71 463h537l-244 -1544h-537l-364 811h-16q0 -213 -15 -309l-80 -502h-536z" />
<glyph unicode="O" horiz-adv-x="1851" d="M193 768q29 178 120.5 329t223.5 254t297 160.5t340 57.5t322 -57.5t246.5 -160.5t143.5 -254q27 -91 27 -192q0 -66 -12 -137q-29 -182 -119.5 -332.5t-222.5 -250.5t-296 -155t-341 -55t-323.5 55t-246.5 155q-100 101 -144 251q-26 90 -27 191q0 68 12 141zM758 760 q-5 -32 -6 -62q0 -90 52 -152q68 -82 195.5 -82.5t220.5 82t115 214.5q4 29 4 55q0 91 -50 159q-65 87 -195 87t-223.5 -87t-112.5 -214z" />
<glyph unicode="P" horiz-adv-x="1490" d="M127 0l244 1544h710q137 0 244.5 -35.5t181.5 -104.5q75 -68 105 -178q18 -64 17 -137q0 -53 -9 -112q-38 -236 -197.5 -374t-394.5 -138h-287l-73 -465h-541zM803 854h55q43 0 75 5t66.5 18.5t56.5 43t29 74.5q2 12 2 23q-1 20 -7 36q-10 24 -26 37.5t-45.5 20.5 t-52.5 8.5t-57 1.5h-53z" />
<glyph unicode="Q" horiz-adv-x="1892" d="M215 768q29 181 121 333t223.5 253.5t295.5 158t339 56.5q183 0 330.5 -55t245.5 -156t138 -253q23 -88 23 -187q0 -72 -12 -150q-43 -270 -215 -467l188 -252l-469 -184l-80 188q-190 -78 -432 -78q-174 0 -316 58t-235 160.5t-132 251.5q-24 89 -24 186q0 66 11 137z M782 778q-4 -30 -4 -57q0 -90 47 -159q62 -91 183 -91q42 0 65 6l-106 144l358 65q22 43 31 86q5 29 5 56q0 93 -53 159q-68 86 -192 86q-133 0 -223 -82.5t-111 -212.5z" />
<glyph unicode="R" horiz-adv-x="1550" d="M127 0l244 1544h678q107 0 198 -18t166.5 -59t124.5 -102q48 -61 68 -152q10 -47 11 -101q0 -49 -9 -104q-27 -170 -110.5 -259t-252.5 -143l-2 -12q2 -2 12.5 -11.5t14 -13l13 -13t14.5 -16t12.5 -17t13.5 -21.5l256 -502h-647l-168 496h-10l-78 -496h-549zM813 860h39 q31 0 55 2.5t51 10t46 21t33.5 38t19.5 57.5q2 17 2 31q1 23 -5 40q-10 28 -35.5 40.5t-53 17t-68.5 4.5h-43z" />
<glyph unicode="S" horiz-adv-x="1357" d="M66 117l241 436l25 -23q159 -141 327 -141q52 0 101.5 22.5t56.5 69.5q4 10 1 19t-3 15.5t-7 13t-10.5 10.5t-13 7.5t-14.5 6t-15.5 5t-16 3.5t-16 3t-15.5 3l-111 21q-82 15 -148.5 47t-115 81t-68.5 121q-12 42 -12 90q0 34 6 70q21 133 95.5 243.5t180.5 181t231 109 t253 38.5q268 0 469 -135l-215 -396q-152 117 -307 117q-46 0 -86.5 -19.5t-47.5 -62.5q-2 -12 0 -21.5t10 -17t13 -12t19 -9.5t19 -6.5t22 -5.5t18 -4l123 -28q347 -80 347 -361q0 -39 -7 -82q-21 -133 -95.5 -240.5t-181 -174t-230 -101.5t-251.5 -35q-146 0 -298.5 38 t-272.5 104z" />
<glyph unicode="T" horiz-adv-x="1220" d="M186 1042l78 502h1180l-78 -502l-307 15l-168 -1057h-561l168 1057z" />
<glyph unicode="U" horiz-adv-x="1669" d="M219 631l143 913h562l-136 -860q-4 -29 -6 -44.5t-4 -41.5t0 -39.5t6 -32.5t13.5 -29.5t23.5 -20.5t35 -14.5t49 -4.5q44 0 76 13t51 31t32.5 51.5t19 60.5t12.5 71l135 860h561l-143 -913q-35 -221 -148.5 -369.5t-282.5 -217.5t-389 -69q-335 0 -499 164 q-124 124 -124 343q0 70 13 149z" />
<glyph unicode="V" horiz-adv-x="1667" d="M242 1544h585l95 -702q9 -70 9 -130q0 -53 -7 -100h12q15 98 76 230l315 702h586l-842 -1544h-475z" />
<glyph unicode="W" horiz-adv-x="2422" d="M240 1544h581l49 -921h13q48 180 92 284l264 637h430l66 -921h12q47 184 82 272l258 649h584l-789 -1544h-489l-43 840h-19q-37 -166 -65 -234l-252 -606h-477z" />
<glyph unicode="X" horiz-adv-x="1701" d="M-8 0l672 821l-373 723h633l80 -219q16 -41 28 -127h12q18 52 68 127l141 219h633l-596 -723l420 -821h-639l-125 328q-16 50 -16 94h-17q-24 -55 -61 -107l-221 -315h-639z" />
<glyph unicode="Y" horiz-adv-x="1583" d="M227 1544h635l109 -403h16l74 145l151 258h631l-667 -878l-105 -666h-549l105 666z" />
<glyph unicode="Z" horiz-adv-x="1579" d="M4 0l701 903q40 53 165 187l-6 6q-86 -19 -137 -19h-420l74 467h1438l-840 -1067l4 -8q90 8 133 8h467l-76 -477h-1503z" />
<glyph unicode="[" horiz-adv-x="962" d="M72 -317l313 1978h717l-33 -209h-268l-246 -1561h268l-35 -208h-716z" />
<glyph unicode="\" horiz-adv-x="1490" d="M299 1661h303l852 -1661h-305z" />
<glyph unicode="]" horiz-adv-x="962" d="M72 -317l34 208h269l246 1561h-269l33 209h717l-314 -1978h-716z" />
<glyph unicode="^" horiz-adv-x="1638" d="M274 434l539 1110h500l190 -1110h-426l-98 561h-4l-275 -561h-426z" />
<glyph unicode="_" horiz-adv-x="1024" d="M-41 -256l16 102h1024l-16 -102h-1024z" />
<glyph unicode="`" horiz-adv-x="860" d="M395 1440l283 170l215 -338l-205 -127z" />
<glyph unicode="a" horiz-adv-x="1474" d="M144 406q-1 19 -1 37q0 48 9 96q13 83 45 164.5t83.5 155.5t115.5 130.5t147 89.5t172 33q204 0 293 -154h12l4 129h518l-172 -1087h-518l39 143h-12q-95 -86 -175 -127t-184 -41q-72 0 -133 23.5t-103 64t-74.5 95.5t-46.5 117.5t-19 130.5zM676 549q-3 -19 -3 -36 q0 -46 20 -79q27 -45 95 -45q70 0 113 47.5t55 116.5q2 14 2 27q0 46 -26 78q-32 40 -94 40q-61 0 -106 -43.5t-56 -105.5z" />
<glyph unicode="b" horiz-adv-x="1474" d="M102 0l263 1661h528l-72 -459l-65 -260h18q68 76 165.5 123t188.5 47q75 0 136.5 -24t103 -65.5t72 -97.5t42.5 -121q12 -64 16 -132q1 -15 1 -30q0 -54 -10 -107q-16 -100 -61 -197.5t-112.5 -179.5t-163.5 -132.5t-202 -50.5q-102 0 -185 50t-138 137h-13l-16 -162 h-496zM698 545q-3 -17 -3 -32q0 -45 22 -79q29 -46 92 -45q59 0 106.5 50.5t55.5 109.5q2 13 2 25q0 44 -25 79q-32 45 -90 45q-63 0 -106.5 -45t-53.5 -108z" />
<glyph unicode="c" horiz-adv-x="1052" d="M147 539q25 159 117.5 290t233.5 207t301 76q163 0 323 -55l-69 -441q-45 43 -87 67t-94 24q-73 0 -126.5 -44.5t-65.5 -117.5q-2 -13 -2 -26q0 -48 30 -84q38 -46 103 -46q38 0 79.5 13.5t67.5 28t72 42.5l-94 -446q-166 -52 -274 -52q-270 1 -414 149 q-110 114 -111 298q0 55 10 117z" />
<glyph unicode="d" horiz-adv-x="1474" d="M146 403q-1 18 -1 36q0 48 9 96q13 83 43 164t79 156t110 132t142 91t170 34q92 0 175 -47.5t126 -122.5h19l16 260l72 459h528l-262 -1661h-495l36 162h-12q-83 -86 -183 -136.5t-202 -50.5q-72 0 -132.5 23.5t-102 64t-72.5 95t-45 116.5t-18 129zM676 545 q-3 -17 -3 -32q-1 -45 21 -79q28 -46 92 -45q59 0 106.5 50.5t55.5 109.5q2 13 2 26q0 43 -24 78q-32 45 -90 45q-63 0 -106.5 -45t-53.5 -108z" />
<glyph unicode="e" horiz-adv-x="1429" d="M154 526q28 175 133 310t257.5 205.5t325.5 70.5q145 0 264 -45.5t196.5 -130t106.5 -206.5q13 -56 13 -119q0 -74 -18 -156h-768q-5 -30 -6.5 -53.5t2.5 -50t14 -43.5t32 -28.5t54 -11.5q40 0 73.5 25.5t47.5 64.5h514q-41 -95 -117 -170t-169 -120.5t-192.5 -69 t-195.5 -23.5q-104 0 -196 21t-168 65.5t-127.5 108.5t-71.5 156q-11 50 -12 105q0 46 8 95zM700 680h248q2 12 2 24q0 44 -24 76q-30 42 -84 41q-58 0 -96 -40.5t-46 -100.5z" />
<glyph unicode="f" horiz-adv-x="880" d="M115 664l67 423l142 -18l18 115q76 493 549 493q75 0 227 -24l-67 -420q-45 18 -68 18q-113 0 -133 -145l-8 -41l182 22l-68 -423l-168 14l-106 -678h-528l106 678z" />
<glyph unicode="g" horiz-adv-x="1478" d="M51 -428l174 367q64 -63 163 -98.5t198 -35.5q104 0 178 67.5t100 172.5l29 111h-14q-51 -85 -150 -133t-199 -48q-72 0 -134 23.5t-105 64.5t-76.5 96t-48.5 118.5t-20 132.5q-1 19 -1 37q0 50 9 98q16 103 63.5 203t118.5 181.5t169.5 132t207.5 50.5q205 0 288 -180 h15l10 155h512l-162 -1024q-20 -124 -75.5 -224.5t-133.5 -168.5t-179 -114t-208.5 -67t-224.5 -21q-233 0 -455 86zM676 543q-3 -16 -3 -31q0 -47 26 -80q34 -43 102 -43q64 0 105 43t52 109q3 16 3 32q0 45 -23 79q-29 46 -92 46q-64 0 -111.5 -44.5t-58.5 -110.5z" />
<glyph unicode="h" horiz-adv-x="1431" d="M102 0l263 1661h528l-72 -459l-71 -301h8q103 103 191 157t192 54q79 0 138 -23t93.5 -64t54.5 -97t20 -121.5t-9 -138.5l-107 -668h-516l88 561q5 27 5 49q0 80 -68 80q-56 0 -83 -34.5t-38 -94.5l-88 -561h-529z" />
<glyph unicode="i" horiz-adv-x="802" d="M137 0l172 1087h529l-172 -1087h-529zM336 1423q18 116 111.5 185t220.5 69q128 0 198 -69q56 -55 56 -140q0 -22 -4 -45q-21 -126 -114.5 -191t-217.5 -65q-59 0 -107.5 15.5t-85 45.5t-52.5 80q-9 30 -9 65q0 24 4 50z" />
<glyph unicode="j" horiz-adv-x="802" d="M66 -449l243 1536h529l-244 -1536h-528zM336 1423q18 116 111.5 185t220.5 69t198 -69q56 -55 56 -140q0 -21 -4 -45q-21 -126 -114.5 -191t-217.5 -65q-59 0 -107.5 15.5t-85 45.5t-52.5 80q-9 30 -9 65q0 24 4 50z" />
<glyph unicode="k" horiz-adv-x="1519" d="M106 0l263 1661h528l-154 -977h13q38 62 83 129.5t101 148t86 125.5h616l-483 -532l332 -555h-623l-157 399h-13l-63 -399h-529z" />
<glyph unicode="l" horiz-adv-x="763" d="M117 0l262 1661h528l-262 -1661h-528z" />
<glyph unicode="m" horiz-adv-x="2070" d="M115 0l172 1087h499l-47 -192h17q49 98 146.5 157.5t203.5 59.5q116 0 186.5 -60t87.5 -171h13q66 117 154 174t212 57q76 0 135 -22.5t95.5 -63t58.5 -95.5t24 -119v-19q0 -56 -8 -117l-106 -676h-512l86 539q3 22 4.5 33.5t3 31.5t-2 31.5t-9.5 24t-19 18.5t-32 6 q-27 0 -45.5 -12.5t-29 -38t-15 -43.5t-9.5 -51l-86 -539h-512l86 539q3 22 4.5 33.5t3 31.5t-2 31.5t-9.5 24t-19 18.5t-32 6q-22 0 -38.5 -10t-26 -22t-17 -35.5t-10 -37t-6.5 -40.5l-86 -539h-512z" />
<glyph unicode="n" horiz-adv-x="1439" d="M102 0l172 1087h517l-48 -174h13q54 53 88.5 82.5t82 60t98 43.5t112.5 13q98 0 167 -35.5t102 -95.5q32 -61 44 -141q5 -32 4 -66q0 -50 -10 -104l-107 -670h-528l84 530q3 21 4.5 33.5t2.5 33.5t-2.5 34t-11 26.5t-22.5 20t-37 6.5q-25 0 -44.5 -11t-30 -24.5t-19 -38 t-11.5 -39t-7 -41.5l-84 -530h-529z" />
<glyph unicode="o" horiz-adv-x="1462" d="M156 530q22 139 92 251t172 183.5t226.5 109.5t260.5 38t248.5 -38t192 -109.5t114.5 -183.5q21 -69 22 -148q0 -50 -9 -103q-21 -131 -93 -238t-175.5 -175t-227 -105t-252.5 -37t-241 37t-193.5 105t-119.5 175q-24 69 -24 148q0 43 7 90zM670 539q-2 -14 -2 -27 q0 -46 28 -80q36 -43 97.5 -43t111.5 43t60 107q2 14 2 28q-1 49 -27 85q-34 46 -98.5 46t-113.5 -46t-58 -113z" />
<glyph unicode="p" horiz-adv-x="1466" d="M33 -449l243 1536h504l-43 -172h17q57 91 160.5 144t209.5 53q74 0 136 -22.5t104 -62t73 -93t44 -115.5t17 -130q1 -16 1 -32q0 -52 -10 -104q-16 -98 -62.5 -198.5t-115.5 -186t-166.5 -139.5t-204.5 -54q-92 0 -177.5 49t-115.5 126h-14l-4 -175l-68 -424h-528z M694 545q-3 -17 -3 -32q0 -45 22 -79q29 -45 92 -45q59 0 106.5 50.5t55.5 109.5q2 13 2 25q0 44 -25 79q-32 45 -90 45q-63 0 -106.5 -45t-53.5 -108z" />
<glyph unicode="q" horiz-adv-x="1466" d="M146 422q-1 18 -1 37q0 48 9 94q17 105 60.5 202.5t110.5 178.5t163 129.5t206 48.5q106 0 193 -53t117 -144h16l10 172h504l-244 -1536h-528l67 424l54 175h-15q-57 -77 -157.5 -126t-192.5 -49q-72 0 -133 25t-102.5 68t-73 100t-45 121.5t-18.5 132.5zM672 543 q-3 -17 -3 -32q0 -45 21 -79q29 -45 92 -45q59 0 106.5 50.5t55.5 109.5q2 13 2 25q0 44 -25 79q-32 45 -90 45q-63 0 -106 -44.5t-53 -108.5z" />
<glyph unicode="r" horiz-adv-x="1013" d="M100 0l172 1087h529l-35 -145h12q85 104 171 138q79 32 203 32h22l-84 -537q-3 2 -16 10.5t-16.5 10.5t-14.5 9t-16 9t-15.5 6.5t-17 6.5t-17 4.5t-20.5 3t-21 0.5q-101 0 -162.5 -57t-79.5 -160l-65 -418h-529z" />
<glyph unicode="s" horiz-adv-x="1091" d="M33 96l188 328l29 -21q151 -100 254 -100q30 0 57 15.5t31 43.5q3 19 -3.5 32.5t-20.5 19.5t-29 9.5t-33 5.5q-7 1 -10 1q-296 43 -296 248q0 25 5 53q12 79 53 144t98 108t128 73t143.5 43t144.5 13q111 0 221 -22.5t187 -69.5l-176 -301q-112 90 -230 90q-76 0 -84 -49 q-4 -23 10.5 -37t35 -19.5t59.5 -11.5q3 0 4.5 -0.5t4.5 -1t5 -0.5q76 -13 129.5 -32.5t97.5 -53.5q45 -34 62 -92q10 -33 10 -73q0 -30 -6 -64q-13 -82 -55 -150t-101 -113.5t-133 -77t-149.5 -45.5t-151.5 -14q-217 0 -479 121z" />
<glyph unicode="t" horiz-adv-x="886" d="M147 666l68 415l127 -8l57 365h533l-58 -365l179 8l-68 -415l-174 10l-106 -676h-533l107 676z" />
<glyph unicode="u" horiz-adv-x="1427" d="M176 473l96 614h525l-88 -561q-4 -33 -6 -62t16.5 -49t58.5 -20q31 0 52 10.5t32.5 32t16.5 40t10 48.5l88 561h524l-96 -614q-16 -100 -63 -183.5t-114 -141t-152.5 -97t-177 -58t-187.5 -18.5t-182 18.5t-158 58t-121 96.5q-50 58 -70 142q-12 47 -11 98q0 41 7 85z " />
<glyph unicode="v" horiz-adv-x="1404" d="M160 1087h567l59 -514h15l49 134l172 380h567l-645 -1087h-479z" />
<glyph unicode="w" horiz-adv-x="1943" d="M141 1087h557l29 -604h16l56 181l172 423h346l45 -604h12l56 181l161 423h555l-618 -1087h-426l-43 483h-15q-27 -74 -60.5 -155t-76.5 -177.5t-65 -150.5h-432z" />
<glyph unicode="x" horiz-adv-x="1509" d="M0 0l547 565l-330 522h606l47 -135l21 -92h10q41 71 141 227h607l-494 -522l352 -565h-620l-62 154l-22 86h-10l-48 -86l-108 -154h-637z" />
<glyph unicode="y" horiz-adv-x="1347" d="M68 -449l368 558l-309 978h569l54 -425l4 -166h14l53 166l189 425h555l-940 -1536h-557z" />
<glyph unicode="z" horiz-adv-x="1239" d="M33 0l12 74l397 487l129 123l2 8l-124 -14h-256l65 409h1120l-10 -61l-399 -479l-133 -137l-2 -13l110 13h301l-65 -410h-1147z" />
<glyph unicode="{" horiz-adv-x="962" d="M188 483l41 250q32 15 45 22t40 25.5t40.5 35.5t27.5 45.5t19 62.5l68 424q25 160 141.5 236.5t302.5 76.5h199l-45 -287h-51q-33 0 -55.5 -10t-33.5 -31t-15.5 -37.5t-8.5 -44.5l-55 -340q-8 -50 -27.5 -93t-40.5 -71.5t-55.5 -56.5t-58 -43t-62.5 -37v-4 q18 -13 27.5 -20t26.5 -21t26.5 -24t23 -26.5t21 -31.5t15.5 -35.5t10.5 -42t2.5 -47.5t-5 -55l-54 -340q-3 -30 -5.5 -58t16.5 -47.5t63 -19.5h51l-45 -287h-198q-186 0 -277.5 78t-66.5 240l65 422q7 42 1 74t-27.5 55t-38 34t-48.5 29z" />
<glyph unicode="|" horiz-adv-x="1089" d="M508 -590v2359h321v-2359h-321z" />
<glyph unicode="}" horiz-adv-x="962" d="M41 -449l45 287h51q33 0 56 10.5t34.5 31.5t16 38.5t8.5 44.5l53 340q8 51 28 94t41.5 71.5t56 57t58 43.5t62.5 37v4q-18 13 -27.5 20t-26.5 21t-26.5 24t-23.5 26.5t-21.5 31.5t-15.5 35.5t-10.5 41t-2.5 47t4 54.5l56 340q3 30 5 57.5t-17.5 46.5t-63.5 19h-51l45 287 h198q187 0 279.5 -76.5t67.5 -236.5l-68 -424q-3 -18 -3.5 -33.5t2.5 -29t5.5 -24.5t10 -21.5t12.5 -18t15.5 -16.5t16 -13.5t18.5 -12.5t18.5 -11t19.5 -11l-41 -250q-31 -15 -45 -22.5t-40.5 -25.5t-40.5 -35.5t-28 -46t-20 -62.5l-66 -422q-25 -162 -142.5 -240 t-303.5 -78h-199z" />
<glyph unicode="~" horiz-adv-x="1638" d="M305 631q20 42 64 92t99.5 96t123 76.5t127.5 30.5q39 0 88 -20t78 -38t80 -53l32 -24t37.5 -26.5t35.5 -21t44 -17.5t45 -5q41 0 96 56.5t97 123.5l182 -262q-24 -36 -69.5 -87.5t-106 -109t-129.5 -97.5t-123 -40q-130 0 -264 117q-104 90 -191 90q-35 0 -87 -42.5 t-83 -92.5z" />
<glyph unicode="&#xa1;" horiz-adv-x="946" d="M127 -449l168 1055h541l-168 -1055h-541zM319 985q13 79 68 139.5t128.5 90.5t150.5 30q120 0 201.5 -71.5t62.5 -188.5q-18 -115 -120.5 -184.5t-223.5 -69.5q-77 0 -141.5 29t-101 88.5t-24.5 136.5z" />
<glyph unicode="&#xa2;" d="M539 801q34 214 193 365.5t376 179.5l20 198h172l-40 -198l227 -43l-57 -433q-33 27 -55.5 42t-57 27.5t-72.5 12.5q-67 0 -118.5 -40.5t-61.5 -106.5q-11 -69 25.5 -112.5t105.5 -43.5q49 0 107.5 24t105.5 60l-76 -432q-155 -45 -248 -49l-24 -223h-174l47 223 q-216 17 -323.5 171t-71.5 378z" />
<glyph unicode="&#xa3;" d="M242 291q10 4 47 19.5t50.5 21t45.5 18t50.5 18.5t46 14t52 12.5t48.5 6.5l92 189l-201 -17l47 289l191 -16l2 117q0 110 8 167q17 106 71.5 191t133 138.5t173 81.5t197.5 28q100 0 179 -24t134 -72t78 -126t7 -180l-359 -69q4 35 5 64t-17 48t-57 19q-48 0 -80 -40 t-39 -89q-4 -33 -4 -96q-1 -13 -1 -37.5t-1 -44.5t-4 -37l-7 -39l310 16l-47 -289l-312 19l-12 -31q-14 -53 -35 -93t-59 -93l63 -19q84 -32 152 -32q107 0 215 77l106 -280q-275 -152 -473 -152q-100 0 -229 37l-115 33q-52 14 -98 14q-15 0 -31 -1.5t-28 -3.5t-30 -6.5 t-27.5 -7t-29.5 -9.5t-27 -9.5t-29.5 -11t-28.5 -10.5l-54 -19z" />
<glyph unicode="&#xa4;" d="M268 315l164 144q-64 112 -60 245.5t51.5 256.5t119.5 196l-117 146l154 135l122 -144q75 51 176.5 81t202.5 30q99 0 185 -29.5t141 -81.5l168 144l111 -133l-154 -138q41 -72 57.5 -167t-0.5 -193q-15 -98 -61.5 -190.5t-110.5 -155.5l117 -144l-150 -137l-122 139 q-73 -55 -170.5 -84.5t-200.5 -29.5q-224 0 -344 117l-166 -140zM729 797q-18 -112 43 -178t174 -66q112 0 194.5 66t100.5 178q17 113 -43 186.5t-172 73.5t-196 -73.5t-101 -186.5z" />
<glyph unicode="&#xa5;" d="M215 303l47 287h416l10 76l-35 75h-368l47 287h192l-235 516h635l108 -403h17q5 10 31 63.5t42 81.5l152 258h631l-392 -516h189l-47 -287h-361l-57 -75l-10 -76h405l-47 -287h-405l-47 -303h-549l47 303h-416z" />
<glyph unicode="&#xa6;" horiz-adv-x="1089" d="M508 412h321v-824h-321v824zM508 766v825h321v-825h-321z" />
<glyph unicode="&#xa7;" d="M301 588q-1 27 4 57q18 112 94.5 198t188.5 132q-60 91 -43 203q12 79 53 145t98 110.5t128.5 76t145 45.5t146.5 14q221 0 347 -112.5t104 -328.5h-369q12 63 -21 102.5t-96 39.5q-48 0 -86 -24.5t-45 -71.5q-3 -19 3.5 -35.5t16 -27t28 -22t31 -16.5t34.5 -14t29 -12 l229 -101q56 -24 94 -44.5t79.5 -52.5t63.5 -67.5t33 -87.5t2 -114q-10 -62 -30.5 -109t-56 -84.5t-74 -65.5t-99.5 -63q43 -68 56 -117.5t2 -128.5q-17 -108 -74.5 -192t-141 -134t-179.5 -75t-199 -25q-118 0 -211.5 28.5t-159.5 85t-92 149.5t-4 214h368 q-12 -68 27 -104.5t109 -36.5q56 0 99.5 25t51.5 78q2 15 0 28.5t-11.5 25.5t-16 19.5t-23.5 17.5t-23 13.5t-26.5 12.5t-22.5 10l-221 98q-143 65 -195 99q-144 96 -145 239zM678 698q-3 -16 1 -28t17.5 -22.5t20.5 -14.5t27 -14q7 -3 10 -5l399 -194q50 71 55 102 q3 17 0 29t-15.5 22.5t-18 14t-25.5 14.5l-410 209q-56 -80 -61 -113z" />
<glyph unicode="&#xa8;" horiz-adv-x="1269" d="M432 1358q10 70 68 120t129 50q70 0 112 -49.5t31 -120.5q-10 -70 -68 -120t-129 -50q-70 0 -112 49.5t-31 120.5zM930 1358q10 70 67.5 120t128.5 50q70 0 112.5 -49.5t31.5 -120.5q-10 -70 -68 -120t-129 -50q-70 0 -112 49.5t-31 120.5z" />
<glyph unicode="&#xa9;" horiz-adv-x="1638" d="M141 770q34 218 169.5 401.5t336.5 290.5t420 107q218 0 386 -107t246 -291t44 -401q-27 -164 -113.5 -312t-210.5 -255.5t-282 -170.5t-322 -63t-303 63t-229 170.5t-129.5 255.5t-12.5 312zM350 770q-21 -132 5 -242.5t91.5 -187t169 -119.5t232.5 -43q170 0 316 73 t244 208.5t126 310.5q41 264 -100 427t-400 163q-263 0 -453 -162.5t-231 -427.5zM532 776q33 204 172.5 333.5t339.5 129.5q146 0 236.5 -81.5t93.5 -221.5h-190q0 71 -45 107t-123 36q-112 0 -182.5 -84.5t-92.5 -214.5q-12 -79 3 -147t62.5 -113t121.5 -45q75 0 134 40.5 t73 111.5h190q-39 -142 -159.5 -227t-264.5 -85q-196 0 -298 132t-71 329z" />
<glyph unicode="&#xaa;" horiz-adv-x="860" d="M199 1221q14 85 60.5 163t127 131.5t176.5 53.5q132 0 191 -96h8l2 77h336l-103 -649h-335l22 82h-8q-60 -51 -112.5 -75.5t-119.5 -24.5q-92 0 -153.5 52.5t-83 128t-8.5 157.5zM543 1227q-6 -37 13.5 -63.5t57.5 -26.5q40 0 71.5 27.5t37.5 64.5q6 38 -15.5 62 t-62.5 24q-39 0 -67.5 -26t-34.5 -62z" />
<glyph unicode="&#xab;" horiz-adv-x="1171" d="M188 563l404 467l174 -143l-274 -324l165 -350l-217 -133zM637 563l403 467l174 -143l-274 -324l166 -350l-217 -133z" />
<glyph unicode="&#xac;" horiz-adv-x="1638" d="M305 639l66 410h1228l-120 -760h-410l55 350h-819z" />
<glyph unicode="&#xad;" horiz-adv-x="993" d="M184 338l72 450h731l-72 -450h-731z" />
<glyph unicode="&#xae;" horiz-adv-x="1638" d="M141 770q34 218 169.5 401.5t336.5 290.5t420 107q218 0 386 -107t246 -291t44 -401q-27 -164 -113.5 -312t-210.5 -255.5t-282 -170.5t-322 -63t-303 63t-229 170.5t-129.5 255.5t-12.5 312zM350 770q-21 -132 5 -242.5t91.5 -187t169 -119.5t232.5 -43q170 0 316 73 t244 208.5t126 310.5q41 264 -100 427t-400 163q-263 0 -453 -162.5t-231 -427.5zM543 352l133 838h405q142 0 204 -57.5t40 -198.5q-17 -103 -78 -161t-145 -66l145 -355h-207l-129 355h-135l-57 -355h-176zM801 866h190q29 0 43.5 0.5t38 3t36 8t27 15t22.5 25.5t11 38 q3 18 0 31t-15 21t-22.5 12.5t-33 6.5t-37 2.5t-43.5 0.5h-191z" />
<glyph unicode="&#xaf;" horiz-adv-x="1228" d="M449 1245l32 201h727l-32 -201h-727z" />
<glyph unicode="&#xb0;" horiz-adv-x="1024" d="M348 1188q19 147 138.5 251.5t267.5 104.5q146 0 235 -104.5t66 -251.5q-23 -144 -145 -247t-267 -103q-147 0 -232.5 102.5t-62.5 247.5zM549 1192q-9 -64 27 -109t100 -45t116.5 45.5t61.5 108.5q11 62 -27 106.5t-104 44.5q-63 0 -114 -44.5t-60 -106.5z" />
<glyph unicode="&#xb1;" horiz-adv-x="1638" d="M205 0l65 410h1229l-65 -410h-1229zM319 729l66 410h410l32 207h410l-33 -207h410l-66 -410h-409l-33 -207h-410l33 207h-410z" />
<glyph unicode="&#xb2;" horiz-adv-x="1024" d="M113 627l454 329q250 182 262 265q6 30 -14.5 51.5t-54.5 21.5q-28 0 -48.5 -10t-32 -28t-18 -36t-10.5 -42h-356q53 205 174 298t346 93q80 0 152.5 -21.5t128.5 -61.5t83.5 -103.5t14.5 -141.5q-10 -67 -49 -125.5t-97.5 -101.5t-123.5 -74t-138 -51l-2 -10l177 22 l196 12l-47 -286h-997z" />
<glyph unicode="&#xb3;" horiz-adv-x="1024" d="M199 952h366q-9 -42 17 -73t71 -31q38 0 71.5 24.5t39.5 59.5t-17.5 60.5t-60.5 25.5q-15 0 -51 -4l31 192l28 -2q30 -3 55.5 17.5t30.5 48.5q4 29 -12.5 45t-46.5 16t-52 -21.5t-24 -49.5h-360q78 309 483 309q54 0 107.5 -8.5t106 -29t91 -50.5t58 -76t10.5 -102 q-9 -57 -50.5 -106.5t-101.5 -72.5l-2 -8q74 -18 109.5 -76t23.5 -133q-12 -80 -64 -140t-126.5 -92.5t-152.5 -47.5t-159 -15q-76 0 -140.5 10.5t-121 36t-94 64t-55 97t-8.5 132.5z" />
<glyph unicode="&#xb4;" horiz-adv-x="860" d="M369 1272l321 338l230 -170l-383 -295z" />
<glyph unicode="&#xb5;" horiz-adv-x="1427" d="M29 -449l243 1530h525l-90 -561q-4 -33 -6 -62t16.5 -49t58.5 -20q31 0 52 10.5t32.5 32t16.5 40t10 48.5l90 561h524l-98 -614q-15 -100 -61.5 -183.5t-110.5 -140.5t-142.5 -97t-158.5 -58.5t-158 -18.5q-97 0 -207 39l-12 -457h-524z" />
<glyph unicode="&#xb6;" d="M264 942q13 168 98.5 306t222.5 217t296 79h954l-61 -389h-136l-254 -1604h-389l254 1604h-110l-254 -1604h-389l147 922q-82 9 -153.5 44t-125 93t-81 144t-19.5 188z" />
<glyph unicode="&#xb7;" horiz-adv-x="851" d="M258 614q17 109 107.5 188t199.5 79t176 -79t50 -188q-19 -109 -110 -187.5t-200 -78.5t-175.5 79t-47.5 187z" />
<glyph unicode="&#xb8;" horiz-adv-x="860" d="M117 -330l375 299l170 -168l-365 -311z" />
<glyph unicode="&#xb9;" horiz-adv-x="1024" d="M451 1245l47 293l518 14l-148 -925h-362l100 628z" />
<glyph unicode="&#xba;" horiz-adv-x="860" d="M195 1219q27 165 163.5 257.5t319.5 92.5q119 0 208.5 -39t136 -119.5t28.5 -191.5q-17 -104 -91 -182.5t-176 -116t-215 -37.5q-84 0 -157 22.5t-126 64t-78.5 106t-12.5 143.5zM526 1221q-4 -36 20 -60t64 -24q41 0 73 24t36 60q8 40 -15 67t-65 27t-73.5 -27 t-39.5 -67z" />
<glyph unicode="&#xbb;" horiz-adv-x="1171" d="M131 213l281 350l-172 324l219 143l256 -467l-408 -483zM580 213l280 350l-172 324l219 143l256 -467l-407 -483z" />
<glyph unicode="&#xbc;" horiz-adv-x="2555" d="M401 1245l48 293l518 14l-148 -925h-362l100 628zM584 0l1302 1544h223l-1296 -1544h-229zM1411 176l37 244l491 506h433l-80 -498l129 8l-41 -260l-137 10l-19 -186h-346l43 186zM1782 420l178 8l22 139q5 34 29 76l-8 4q-23 -35 -68 -76l-151 -147z" />
<glyph unicode="&#xbd;" horiz-adv-x="2555" d="M401 1245l48 293l518 14l-148 -925h-362l100 628zM528 0l1303 1544h221l-1296 -1544h-228zM1354 0l454 330q2 2 23 17.5t29.5 22t31 24t35 27.5t33 28t33 30.5t28 29.5t24.5 30.5t16.5 28t9.5 26.5q5 31 -15.5 52.5t-54.5 21.5q-36 0 -60.5 -19t-33.5 -42t-15 -56h-356 q53 205 174 298t346 93q80 0 152.5 -21.5t128 -61.5t83 -103.5t15.5 -141.5q-22 -129 -138 -219t-272 -133l-2 -10l177 22l196 13l-45 -287h-997z" />
<glyph unicode="&#xbe;" horiz-adv-x="2555" d="M356 952h367q-9 -42 17 -73t71 -31q38 0 71.5 24.5t39.5 59.5t-17.5 60.5t-60.5 25.5q-15 0 -51 -4l30 192l29 -2q30 -3 55.5 17.5t30.5 48.5q4 29 -12.5 45t-46.5 16t-52 -21.5t-24 -49.5h-361q78 309 484 309q68 0 134.5 -15t126 -44.5t91 -83.5t20.5 -123 q-9 -57 -50 -106.5t-101 -72.5l-2 -8q74 -18 109.5 -76t23.5 -133q-12 -80 -64 -140t-126.5 -92.5t-152.5 -47.5t-159 -15q-76 0 -140.5 10.5t-121 36t-94.5 64t-55.5 97t-8.5 132.5zM702 0l1303 1544h223l-1296 -1544h-230zM1411 176l37 244l491 506h433l-80 -498l129 8 l-41 -260l-137 10l-19 -186h-346l43 186zM1782 420l178 8l22 139q5 34 29 76l-8 4q-23 -35 -68 -76l-151 -147z" />
<glyph unicode="&#xbf;" horiz-adv-x="1427" d="M102 106q21 133 89 236t166.5 165t214.5 93t243 31q80 0 164 -19l-61 -397q-74 21 -103 21q-77 0 -136 -43.5t-71 -118.5q-8 -45 14.5 -74t67.5 -29q48 0 82.5 39.5t44.5 91.5h526q-23 -124 -91.5 -229t-164 -176t-212.5 -110.5t-238 -39.5q-129 0 -236 37t-181 106 t-106.5 176.5t-11.5 239.5zM553 985q13 79 68 139.5t128 90.5t150 30q120 0 201.5 -71.5t62.5 -188.5q-18 -115 -120.5 -184.5t-223.5 -69.5q-77 0 -141 29t-100.5 88.5t-24.5 136.5z" />
<glyph unicode="&#xc0;" horiz-adv-x="1685" d="M-12 0l780 1544h621l307 -1544h-594l-21 193h-424l-75 -193h-594zM815 559h225l-22 272q-4 44 -4 199h-21zM883 1896l282 170l215 -337l-206 -127z" />
<glyph unicode="&#xc1;" horiz-adv-x="1685" d="M-12 0l780 1544h621l307 -1544h-594l-21 193h-424l-75 -193h-594zM815 559h225l-22 272q-4 44 -4 199h-21zM856 1729l322 337l229 -170l-385 -294z" />
<glyph unicode="&#xc2;" horiz-adv-x="1685" d="M-12 0l780 1544h621l307 -1544h-594l-21 193h-424l-75 -193h-594zM729 1831l447 235l366 -235l-131 -209l-283 150l-335 -150zM815 559h225l-22 272q-4 44 -4 199h-21z" />
<glyph unicode="&#xc3;" horiz-adv-x="1685" d="M-12 0l780 1544h621l307 -1544h-594l-21 193h-424l-75 -193h-594zM709 1763q161 211 323 211q38 0 64.5 -10.5t64.5 -34.5q4 -2 23.5 -14t28.5 -17t26 -10.5t31 -5.5q19 0 36 8.5t32 25t24 28.5t22 32l170 -102q-153 -227 -311 -227q-50 0 -110 26l-84 41q-56 25 -72 25 q-24 0 -47.5 -17t-36 -33.5t-29.5 -43.5zM815 559h225l-22 272q-4 44 -4 199h-21z" />
<glyph unicode="&#xc4;" horiz-adv-x="1685" d="M-12 0l780 1544h621l307 -1544h-594l-21 193h-424l-75 -193h-594zM713 1815q12 71 69 120.5t127 49.5q71 0 113.5 -50t30.5 -120q-10 -70 -68 -120t-129 -50q-70 0 -112 49.5t-31 120.5zM815 559h225l-22 272q-4 44 -4 199h-21zM1210 1815q12 71 69.5 120.5t127.5 49.5 q71 0 113 -50t30 -120q-10 -70 -67.5 -120t-128.5 -50q-70 0 -112.5 49.5t-31.5 120.5z" />
<glyph unicode="&#xc5;" horiz-adv-x="1685" d="M-12 0l780 1544h621l307 -1544h-594l-21 193h-424l-75 -193h-594zM815 559h225l-22 272q-4 44 -4 199h-21zM815 1808q10 63 44.5 111t84.5 74.5t106 39.5t117 13t113 -13t94 -39.5t62 -74.5t10 -111q-10 -64 -45 -111t-86 -72.5t-106 -37.5t-115 -12t-111.5 12 t-94.5 37.5t-63 72.5t-10 111zM1010 1810q-7 -46 25 -67t81 -21q50 0 89 21.5t46 66.5q7 46 -25 67t-81 21q-50 0 -89 -21.5t-46 -66.5z" />
<glyph unicode="&#xc6;" horiz-adv-x="2170" d="M-8 0l782 1544h1086l77 -422h-460l24 -147h463l78 -402h-457l29 -151h463l80 -422h-1053l-23 197h-419l-80 -197h-590zM815 559h229l-34 315q-6 51 2 154h-17q-30 -114 -57 -178z" />
<glyph unicode="&#xc7;" horiz-adv-x="1343" d="M193 758q26 166 112 316.5t210.5 259t284 172t326.5 63.5q194 0 367 -64l-76 -587q-144 155 -305 155q-126 0 -229 -87.5t-123 -213.5t58.5 -213.5t205.5 -87.5q177 0 346 143l-108 -577q-65 -29 -191.5 -45.5t-218.5 -16.5q-162 0 -298 61t-223.5 165t-125.5 249.5 t-12 307.5zM358 -330l375 299l170 -168l-364 -311z" />
<glyph unicode="&#xc8;" horiz-adv-x="1277" d="M119 0l243 1544h1039l-66 -422h-473l-24 -147h432l-64 -402h-432l-22 -151h489l-67 -422h-1055zM678 1896l283 170l215 -337l-207 -127z" />
<glyph unicode="&#xc9;" horiz-adv-x="1277" d="M119 0l243 1544h1039l-66 -422h-473l-24 -147h432l-64 -402h-432l-22 -151h489l-67 -422h-1055zM651 1729l322 337l229 -170l-385 -294z" />
<glyph unicode="&#xca;" horiz-adv-x="1277" d="M119 0l243 1544h1039l-66 -422h-473l-24 -147h432l-64 -402h-432l-22 -151h489l-67 -422h-1055zM524 1831l447 235l366 -235l-131 -209l-282 150l-336 -150z" />
<glyph unicode="&#xcb;" horiz-adv-x="1277" d="M119 0l243 1544h1039l-66 -422h-473l-24 -147h432l-64 -402h-432l-22 -151h489l-67 -422h-1055zM508 1815q12 71 69.5 120.5t127.5 49.5q71 0 113 -50t30 -120q-10 -70 -68 -120t-129 -50q-70 0 -112 49.5t-31 120.5zM1006 1815q12 71 69 120.5t127 49.5q71 0 113.5 -50 t30.5 -120q-10 -70 -68 -120t-129 -50q-70 0 -112 49.5t-31 120.5z" />
<glyph unicode="&#xcc;" horiz-adv-x="825" d="M131 0l244 1544h561l-244 -1544h-561zM420 1896l282 170l216 -337l-207 -127z" />
<glyph unicode="&#xcd;" horiz-adv-x="825" d="M131 0l244 1544h561l-244 -1544h-561zM457 1729l321 337l230 -170l-385 -294z" />
<glyph unicode="&#xce;" horiz-adv-x="825" d="M131 0l244 1544h561l-244 -1544h-561zM299 1831l446 235l367 -235l-131 -209l-283 150l-336 -150z" />
<glyph unicode="&#xcf;" horiz-adv-x="825" d="M131 0l244 1544h561l-244 -1544h-561zM283 1815q12 71 69 120.5t127 49.5q71 0 113.5 -50t30.5 -120q-10 -70 -68 -120t-129 -50q-70 0 -112 49.5t-31 120.5zM780 1815q12 71 69.5 120.5t127.5 49.5q71 0 113 -50t30 -120q-10 -70 -67.5 -120t-128.5 -50 q-70 0 -112.5 49.5t-31.5 120.5z" />
<glyph unicode="&#xd0;" horiz-adv-x="1693" d="M113 655l34 219h123l105 670h571q159 0 290 -28t238 -88t172.5 -153.5t92.5 -224t-2 -300.5q-36 -226 -162.5 -397t-316.5 -262t-416 -91h-711l105 655h-123zM766 463h35q148 0 249.5 72t125.5 217q26 158 -48 233.5t-233 75.5h-35l-29 -187h144l-35 -219h-143z" />
<glyph unicode="&#xd1;" horiz-adv-x="1785" d="M119 0l243 1544h539l369 -856h16q-4 85 -1 196t18 197l71 463h537l-244 -1544h-537l-364 811h-16q0 -213 -15 -309l-80 -502h-536zM758 1763q161 211 323 211q38 0 64.5 -10.5t64.5 -34.5q4 -2 23.5 -14t28.5 -17t26 -10.5t31 -5.5q24 0 48 17t37 33.5t30 43.5l170 -102 q-153 -227 -312 -227q-50 0 -110 26l-84 41q-56 25 -72 25q-24 0 -47.5 -17t-36 -33.5t-29.5 -43.5z" />
<glyph unicode="&#xd2;" horiz-adv-x="1851" d="M193 768q29 178 120.5 329t223.5 254t297 160.5t340 57.5t322 -57.5t246.5 -160.5t143.5 -254t15 -329q-29 -182 -119.5 -332.5t-222.5 -250.5t-296 -155t-341 -55t-323.5 55t-247 155t-144 250.5t-14.5 332.5zM758 760q-22 -132 45.5 -214.5t195.5 -82.5t221 82.5 t115 214.5q19 127 -46 214t-195 87t-223.5 -87t-112.5 -214zM965 1896l282 170l215 -337l-207 -127z" />
<glyph unicode="&#xd3;" horiz-adv-x="1851" d="M193 768q29 178 120.5 329t223.5 254t297 160.5t340 57.5t322 -57.5t246.5 -160.5t143.5 -254t15 -329q-29 -182 -119.5 -332.5t-222.5 -250.5t-296 -155t-341 -55t-323.5 55t-247 155t-144 250.5t-14.5 332.5zM758 760q-22 -132 45.5 -214.5t195.5 -82.5t221 82.5 t115 214.5q19 127 -46 214t-195 87t-223.5 -87t-112.5 -214zM938 1729l322 337l229 -170l-385 -294z" />
<glyph unicode="&#xd4;" horiz-adv-x="1851" d="M193 768q29 178 120.5 329t223.5 254t297 160.5t340 57.5t322 -57.5t246.5 -160.5t143.5 -254t15 -329q-29 -182 -119.5 -332.5t-222.5 -250.5t-296 -155t-341 -55t-323.5 55t-247 155t-144 250.5t-14.5 332.5zM758 760q-22 -132 45.5 -214.5t195.5 -82.5t221 82.5 t115 214.5q19 127 -46 214t-195 87t-223.5 -87t-112.5 -214zM811 1831l446 235l367 -235l-131 -209l-283 150l-336 -150z" />
<glyph unicode="&#xd5;" horiz-adv-x="1851" d="M193 768q29 178 120.5 329t223.5 254t297 160.5t340 57.5t322 -57.5t246.5 -160.5t143.5 -254t15 -329q-29 -182 -119.5 -332.5t-222.5 -250.5t-296 -155t-341 -55t-323.5 55t-247 155t-144 250.5t-14.5 332.5zM758 760q-22 -132 45.5 -214.5t195.5 -82.5t221 82.5 t115 214.5q19 127 -46 214t-195 87t-223.5 -87t-112.5 -214zM791 1763q161 211 323 211q38 0 64.5 -10.5t64.5 -34.5q4 -2 23.5 -14t28.5 -17t26 -10.5t31 -5.5q19 0 36 8.5t32 25t24 28.5t22 32l170 -102q-153 -227 -311 -227q-51 0 -111 26l-84 41q-56 25 -71 25 q-24 0 -47.5 -17t-36 -33.5t-29.5 -43.5z" />
<glyph unicode="&#xd6;" horiz-adv-x="1851" d="M193 768q29 178 120.5 329t223.5 254t297 160.5t340 57.5t322 -57.5t246.5 -160.5t143.5 -254t15 -329q-29 -182 -119.5 -332.5t-222.5 -250.5t-296 -155t-341 -55t-323.5 55t-247 155t-144 250.5t-14.5 332.5zM758 760q-22 -132 45.5 -214.5t195.5 -82.5t221 82.5 t115 214.5q19 127 -46 214t-195 87t-223.5 -87t-112.5 -214zM795 1815q12 71 69 120.5t127 49.5q71 0 113.5 -50t30.5 -120q-10 -70 -68 -120t-129 -50q-70 0 -112 49.5t-31 120.5zM1292 1815q12 71 69.5 120.5t127.5 49.5q71 0 113 -50t30 -120q-10 -70 -67.5 -120 t-128.5 -50q-70 0 -112.5 49.5t-31.5 120.5z" />
<glyph unicode="&#xd7;" horiz-adv-x="1638" d="M250 289l379 325l-275 326l336 289l273 -326l376 326l244 -289l-375 -326l271 -325l-334 -289l-275 326l-374 -326z" />
<glyph unicode="&#xd8;" horiz-adv-x="1851" d="M51 -16l266 239q-175 214 -124 545q29 178 120.5 329t223.5 254t297 160.5t340 57.5q284 0 481 -142l282 252l109 -110l-277 -250q88 -106 123.5 -246.5t8.5 -304.5q-29 -182 -119.5 -332.5t-222.5 -250.5t-296 -155t-341 -55q-290 0 -486 140l-276 -250zM758 760 q-12 -74 6 -135l453 407q-53 29 -123 29q-130 0 -223.5 -87t-112.5 -214zM860 498q59 -35 139 -35q128 0 221 82.5t115 214.5q12 84 -14 153z" />
<glyph unicode="&#xd9;" horiz-adv-x="1669" d="M219 631l143 913h562l-136 -860q-4 -29 -6 -44.5t-4 -41.5t0 -39.5t6 -32.5t13.5 -29.5t23.5 -20.5t35 -14.5t49 -4.5q44 0 76 13t51 31t32.5 51.5t19 60.5t12.5 71l135 860h561l-143 -913q-35 -221 -148.5 -369.5t-282.5 -217.5t-389 -69q-335 0 -498.5 164t-111.5 492z M834 1896l282 170l215 -337l-207 -127z" />
<glyph unicode="&#xda;" horiz-adv-x="1669" d="M219 631l143 913h562l-136 -860q-4 -29 -6 -44.5t-4 -41.5t0 -39.5t6 -32.5t13.5 -29.5t23.5 -20.5t35 -14.5t49 -4.5q44 0 76 13t51 31t32.5 51.5t19 60.5t12.5 71l135 860h561l-143 -913q-35 -221 -148.5 -369.5t-282.5 -217.5t-389 -69q-335 0 -498.5 164t-111.5 492z M889 1729l321 337l230 -170l-385 -294z" />
<glyph unicode="&#xdb;" horiz-adv-x="1669" d="M219 631l143 913h562l-136 -860q-4 -29 -6 -44.5t-4 -41.5t0 -39.5t6 -32.5t13.5 -29.5t23.5 -20.5t35 -14.5t49 -4.5q44 0 76 13t51 31t32.5 51.5t19 60.5t12.5 71l135 860h561l-143 -913q-35 -221 -148.5 -369.5t-282.5 -217.5t-389 -69q-335 0 -498.5 164t-111.5 492z M721 1831l446 235l367 -235l-131 -209l-283 150l-336 -150z" />
<glyph unicode="&#xdc;" horiz-adv-x="1669" d="M219 631l143 913h562l-136 -860q-4 -29 -6 -44.5t-4 -41.5t0 -39.5t6 -32.5t13.5 -29.5t23.5 -20.5t35 -14.5t49 -4.5q44 0 76 13t51 31t32.5 51.5t19 60.5t12.5 71l135 860h561l-143 -913q-35 -221 -148.5 -369.5t-282.5 -217.5t-389 -69q-335 0 -498.5 164t-111.5 492z M705 1815q12 71 69 120.5t127 49.5q71 0 113 -50t30 -120q-10 -70 -67.5 -120t-128.5 -50q-70 0 -112 49.5t-31 120.5zM1202 1815q12 71 69.5 120.5t127.5 49.5q71 0 113 -50t30 -120q-10 -70 -67.5 -120t-128.5 -50q-70 0 -112.5 49.5t-31.5 120.5z" />
<glyph unicode="&#xdd;" horiz-adv-x="1583" d="M227 1544h635l109 -403h16l74 145l151 258h631l-667 -878l-105 -666h-549l105 666zM846 1729l321 337l230 -170l-385 -294z" />
<glyph unicode="&#xde;" horiz-adv-x="1490" d="M127 0l244 1544h540l-30 -205h170q137 0 244.5 -35.5t180.5 -104t103 -178t8 -249.5q-38 -236 -197.5 -374t-394.5 -138h-286l-41 -260h-541zM770 649h55q42 0 75 5t67.5 19t56.5 43.5t29 74.5q5 35 -4.5 59.5t-26 37.5t-46.5 20t-53 8.5t-57 1.5h-53z" />
<glyph unicode="&#xdf;" horiz-adv-x="1574" d="M111 0l168 1059q25 161 75.5 273.5t137 191.5t214 116t304.5 37q85 0 163 -14.5t147.5 -47.5t118 -81t71 -120t8.5 -159q-19 -118 -60.5 -188.5t-142.5 -128.5q70 -25 118 -72t69.5 -106t27.5 -130t-8 -143q-19 -124 -78.5 -218.5t-148.5 -152.5t-199 -87t-238 -29h-88 l47 295q46 5 80.5 27t52.5 42.5t33 67t18 63.5t11 69q3 16 4 24q11 68 -22 108.5t-107 40.5l47 291q58 0 102.5 29t53.5 80q9 55 -19.5 78.5t-95.5 23.5q-24 0 -44.5 -6t-35.5 -13t-28.5 -23.5t-21.5 -26.5t-16.5 -34.5t-12 -34t-8.5 -38t-6 -34t-5 -34.5l-158 -995h-528z " />
<glyph unicode="&#xe0;" horiz-adv-x="1474" d="M144 405.5q-5 67.5 8 133.5q13 83 45 164.5t83.5 155.5t115.5 130.5t147 89.5t172 33q204 0 293 -154h12l4 129h518l-172 -1087h-518l39 143h-12q-95 -86 -175 -127t-184 -41q-72 0 -133 23.5t-103 64t-74.5 95.5t-46.5 117.5t-19 130zM676 549q-10 -70 17 -115t95 -45 q70 0 113 47.5t55 116.5q9 64 -23.5 104.5t-94.5 40.5q-61 0 -106 -43.5t-56 -105.5zM702 1440l283 170l215 -338l-205 -127z" />
<glyph unicode="&#xe1;" horiz-adv-x="1474" d="M144 405.5q-5 67.5 8 133.5q13 83 45 164.5t83.5 155.5t115.5 130.5t147 89.5t172 33q204 0 293 -154h12l4 129h518l-172 -1087h-518l39 143h-12q-95 -86 -175 -127t-184 -41q-72 0 -133 23.5t-103 64t-74.5 95.5t-46.5 117.5t-19 130zM676 549q-10 -70 17 -115t95 -45 q70 0 113 47.5t55 116.5q9 64 -23.5 104.5t-94.5 40.5q-61 0 -106 -43.5t-56 -105.5zM717 1272l321 338l230 -170l-383 -295z" />
<glyph unicode="&#xe2;" horiz-adv-x="1474" d="M144 405.5q-5 67.5 8 133.5q13 83 45 164.5t83.5 155.5t115.5 130.5t147 89.5t172 33q204 0 293 -154h12l4 129h518l-172 -1087h-518l39 143h-12q-95 -86 -175 -127t-184 -41q-72 0 -133 23.5t-103 64t-74.5 95.5t-46.5 117.5t-19 130zM569 1374l447 236l366 -236 l-129 -209l-282 150l-336 -150zM676 549q-10 -70 17 -115t95 -45q70 0 113 47.5t55 116.5q9 64 -23.5 104.5t-94.5 40.5q-61 0 -106 -43.5t-56 -105.5z" />
<glyph unicode="&#xe3;" horiz-adv-x="1474" d="M144 405.5q-5 67.5 8 133.5q13 83 45 164.5t83.5 155.5t115.5 130.5t147 89.5t172 33q204 0 293 -154h12l4 129h518l-172 -1087h-518l39 143h-12q-95 -86 -175 -127t-184 -41q-72 0 -133 23.5t-103 64t-74.5 95.5t-46.5 117.5t-19 130zM555 1307q161 211 322 211 q38 0 65.5 -10.5t65.5 -34.5q3 -2 22 -14.5t27.5 -17t25.5 -10.5t31 -6q56 0 117 95l170 -103q-153 -227 -311 -227q-49 0 -111 27l-86 40q-50 25 -70 25q-24 0 -47 -17.5t-35.5 -33.5t-29.5 -43zM676 549q-10 -70 17 -115t95 -45q70 0 113 47.5t55 116.5q9 64 -23.5 104.5 t-94.5 40.5q-61 0 -106 -43.5t-56 -105.5z" />
<glyph unicode="&#xe4;" horiz-adv-x="1474" d="M144 405.5q-5 67.5 8 133.5q13 83 45 164.5t83.5 155.5t115.5 130.5t147 89.5t172 33q204 0 293 -154h12l4 129h518l-172 -1087h-518l39 143h-12q-95 -86 -175 -127t-184 -41q-72 0 -133 23.5t-103 64t-74.5 95.5t-46.5 117.5t-19 130zM559 1358q10 70 68 120t129 50 q70 0 112 -49.5t31 -120.5q-10 -70 -68 -120t-129 -50q-70 0 -112 49.5t-31 120.5zM676 549q-10 -70 17 -115t95 -45q70 0 113 47.5t55 116.5q9 64 -23.5 104.5t-94.5 40.5q-61 0 -106 -43.5t-56 -105.5zM1057 1358q10 70 67.5 120t128.5 50q70 0 112.5 -49.5t31.5 -120.5 q-10 -70 -68 -120t-129 -50q-70 0 -112 49.5t-31 120.5z" />
<glyph unicode="&#xe5;" horiz-adv-x="1474" d="M144 405.5q-5 67.5 8 133.5q13 83 45 164.5t83.5 155.5t115.5 130.5t147 89.5t172 33q204 0 293 -154h12l4 129h518l-172 -1087h-518l39 143h-12q-95 -86 -175 -127t-184 -41q-72 0 -133 23.5t-103 64t-74.5 95.5t-46.5 117.5t-19 130zM668 1399q10 63 45 110.5 t85.5 74.5t106.5 39.5t117 12.5t112.5 -12.5t93.5 -39.5t61 -74.5t9 -110.5q-10 -64 -45 -111t-86 -73t-106 -38t-115 -12t-111.5 12t-94 37.5t-62.5 73t-10 111.5zM676 549q-10 -70 17 -115t95 -45q70 0 113 47.5t55 116.5q9 64 -23.5 104.5t-94.5 40.5q-61 0 -106 -43.5 t-56 -105.5zM862 1401q-7 -45 26 -66.5t83 -21.5q49 0 87.5 21t45.5 67t-25.5 67t-81.5 21q-50 0 -89 -21.5t-46 -66.5z" />
<glyph unicode="&#xe6;" horiz-adv-x="2334" d="M121 350q13 82 51 147.5t90.5 107.5t121 69.5t139 39t147.5 11.5q154 0 311 -53q13 57 -0.5 98t-49.5 62.5t-79 31.5t-96 10q-198 0 -523 -104l41 260q317 82 525 82q168 0 277.5 -38.5t183.5 -151.5q122 97 247 143.5t269 46.5q145 0 264 -45t196.5 -129.5t106 -205.5 t-5.5 -273h-768q-5 -39 -5.5 -67t7 -58t31 -46t63.5 -16t73.5 25.5t47.5 64.5h514q-40 -94 -116.5 -169.5t-169 -122t-192.5 -71t-196 -24.5q-147 0 -280.5 47.5t-206.5 137.5q-126 -89 -270 -137t-287 -48q-72 0 -141 12.5t-133.5 41.5t-110 71t-67 106.5t-9.5 143.5z M608 358q-6 -33 8 -56t43 -33.5t56.5 -14.5t60.5 -4t73.5 6t85.5 18.5t77.5 38.5t38.5 60q4 29 -22 49.5t-68 29.5t-75.5 13t-58.5 4q-33 0 -63.5 -4t-66.5 -14.5t-60 -34t-29 -58.5zM1606 684h247q8 56 -21.5 97.5t-84.5 41.5q-57 0 -94 -40t-47 -99z" />
<glyph unicode="&#xe7;" horiz-adv-x="1052" d="M147 539q25 159 117.5 290t233.5 207t301 76q163 0 323 -55l-69 -441q-45 43 -87 67t-94 24q-73 0 -126.5 -44.5t-65.5 -117.5q-10 -64 28 -110t103 -46q38 0 79.5 13.5t67.5 28t72 42.5l-94 -446q-166 -52 -274 -52q-271 0 -414.5 148.5t-100.5 415.5zM213 -330l375 299 l170 -168l-365 -311z" />
<glyph unicode="&#xe8;" horiz-adv-x="1429" d="M154 526q28 175 133 310t257.5 205.5t325.5 70.5q145 0 264 -45.5t196.5 -130t106.5 -206.5t-5 -275h-768q-5 -30 -6.5 -53.5t2.5 -50t14 -43.5t32 -28.5t54 -11.5q40 0 73.5 25.5t47.5 64.5h514q-41 -95 -117 -170t-169 -120.5t-192.5 -69t-195.5 -23.5q-104 0 -196 21 t-168 65.5t-127.5 108.5t-72 155.5t-3.5 200.5zM680 1440l283 170l215 -338l-205 -127zM700 680h248q8 58 -21.5 99.5t-84.5 41.5q-58 0 -96 -40.5t-46 -100.5z" />
<glyph unicode="&#xe9;" horiz-adv-x="1429" d="M154 526q28 175 133 310t257.5 205.5t325.5 70.5q145 0 264 -45.5t196.5 -130t106.5 -206.5t-5 -275h-768q-5 -30 -6.5 -53.5t2.5 -50t14 -43.5t32 -28.5t54 -11.5q40 0 73.5 25.5t47.5 64.5h514q-41 -95 -117 -170t-169 -120.5t-192.5 -69t-195.5 -23.5q-104 0 -196 21 t-168 65.5t-127.5 108.5t-72 155.5t-3.5 200.5zM653 1272l322 338l229 -170l-383 -295zM700 680h248q8 58 -21.5 99.5t-84.5 41.5q-58 0 -96 -40.5t-46 -100.5z" />
<glyph unicode="&#xea;" horiz-adv-x="1429" d="M154 526q28 175 133 310t257.5 205.5t325.5 70.5q145 0 264 -45.5t196.5 -130t106.5 -206.5t-5 -275h-768q-5 -30 -6.5 -53.5t2.5 -50t14 -43.5t32 -28.5t54 -11.5q40 0 73.5 25.5t47.5 64.5h514q-41 -95 -117 -170t-169 -120.5t-192.5 -69t-195.5 -23.5q-104 0 -196 21 t-168 65.5t-127.5 108.5t-72 155.5t-3.5 200.5zM526 1374l447 236l366 -236l-129 -209l-282 150l-336 -150zM700 680h248q8 58 -21.5 99.5t-84.5 41.5q-58 0 -96 -40.5t-46 -100.5z" />
<glyph unicode="&#xeb;" horiz-adv-x="1429" d="M154 526q28 175 133 310t257.5 205.5t325.5 70.5q145 0 264 -45.5t196.5 -130t106.5 -206.5t-5 -275h-768q-5 -30 -6.5 -53.5t2.5 -50t14 -43.5t32 -28.5t54 -11.5q40 0 73.5 25.5t47.5 64.5h514q-41 -95 -117 -170t-169 -120.5t-192.5 -69t-195.5 -23.5q-104 0 -196 21 t-168 65.5t-127.5 108.5t-72 155.5t-3.5 200.5zM512 1358q10 70 68 120t129 50q70 0 112 -49.5t31 -120.5q-10 -70 -68 -120t-129 -50q-70 0 -112 49.5t-31 120.5zM700 680h248q8 58 -21.5 99.5t-84.5 41.5q-58 0 -96 -40.5t-46 -100.5zM1010 1358q10 70 67.5 120t128.5 50 q70 0 112.5 -49.5t31.5 -120.5q-10 -70 -68 -120t-129 -50q-70 0 -112 49.5t-31 120.5z" />
<glyph unicode="&#xec;" horiz-adv-x="802" d="M137 0l172 1087h529l-172 -1087h-529zM336 1440l282 170l216 -338l-205 -127z" />
<glyph unicode="&#xed;" horiz-adv-x="802" d="M137 0l172 1087h529l-172 -1087h-529zM371 1272l321 338l230 -170l-383 -295z" />
<glyph unicode="&#xee;" horiz-adv-x="802" d="M137 0l172 1087h529l-172 -1087h-529zM213 1374l446 236l367 -236l-129 -209l-283 150l-335 -150z" />
<glyph unicode="&#xef;" horiz-adv-x="802" d="M137 0l172 1087h529l-172 -1087h-529zM199 1358q10 70 67.5 120t128.5 50q70 0 112.5 -49.5t31.5 -120.5q-10 -70 -68 -120t-129 -50q-70 0 -112 49.5t-31 120.5zM696 1358q10 70 68 120t129 50q70 0 112 -49.5t31 -120.5q-10 -70 -67.5 -120t-128.5 -50 q-70 0 -112.5 49.5t-31.5 120.5z" />
<glyph unicode="&#xf0;" horiz-adv-x="1462" d="M158 541q21 129 86 234.5t156 171.5t195 101t210 35q77 0 170 -24q-61 94 -168 196l-291 -137l-102 131l258 121q-70 57 -166 117l360 196q102 -60 191 -131l274 129l105 -131l-246 -116q70 -69 124.5 -140.5t88.5 -133.5t56.5 -126.5t32 -116t11 -106.5t-1.5 -93.5 t-10 -80.5q-26 -164 -104 -294t-186 -208.5t-230.5 -119t-249.5 -40.5q-89 0 -174.5 19.5t-164.5 64t-135 108.5t-81.5 161t-7.5 213zM670 539q-10 -64 25.5 -107t97.5 -43t112 43t60 107q9 68 -24.5 113.5t-98.5 45.5t-114 -46t-58 -113z" />
<glyph unicode="&#xf1;" horiz-adv-x="1439" d="M102 0l172 1087h517l-48 -174h13q54 53 88.5 82.5t82 60t98 43.5t112.5 13q98 0 167 -35.5t101.5 -95.5t44 -140.5t-5.5 -170.5l-107 -670h-528l84 530q3 21 4.5 33.5t2.5 33.5t-2.5 34t-11 26.5t-22.5 20t-37 6.5q-25 0 -44.5 -11t-30 -24.5t-19 -38t-11.5 -39t-7 -41.5 l-84 -530h-529zM514 1307q161 211 322 211q38 0 65.5 -10.5t65.5 -34.5q3 -2 22 -14.5t27.5 -17t25.5 -10.5t31 -6q56 0 117 95l170 -103q-153 -227 -311 -227q-49 0 -111 27l-86 40q-50 25 -70 25q-24 0 -47 -17.5t-35.5 -33.5t-29.5 -43z" />
<glyph unicode="&#xf2;" horiz-adv-x="1462" d="M156 530q22 139 92 251t172 183.5t226.5 109.5t260.5 38t248.5 -38t192 -109.5t114.5 -183.5t13 -251q-21 -131 -93 -238t-175.5 -175t-227 -105t-252.5 -37t-241 37t-193.5 105t-119.5 175t-17 238zM666 1440l282 170l215 -338l-205 -127zM670 539q-10 -64 25.5 -107 t97.5 -43t112 43t60 107q9 68 -24.5 113.5t-98.5 45.5t-114 -46t-58 -113z" />
<glyph unicode="&#xf3;" horiz-adv-x="1462" d="M156 530q22 139 92 251t172 183.5t226.5 109.5t260.5 38t248.5 -38t192 -109.5t114.5 -183.5t13 -251q-21 -131 -93 -238t-175.5 -175t-227 -105t-252.5 -37t-241 37t-193.5 105t-119.5 175t-17 238zM670 539q-10 -64 25.5 -107t97.5 -43t112 43t60 107q9 68 -24.5 113.5 t-98.5 45.5t-114 -46t-58 -113zM700 1272l322 338l229 -170l-383 -295z" />
<glyph unicode="&#xf4;" horiz-adv-x="1462" d="M156 530q22 139 92 251t172 183.5t226.5 109.5t260.5 38t248.5 -38t192 -109.5t114.5 -183.5t13 -251q-21 -131 -93 -238t-175.5 -175t-227 -105t-252.5 -37t-241 37t-193.5 105t-119.5 175t-17 238zM543 1374l446 236l367 -236l-129 -209l-283 150l-336 -150zM670 539 q-10 -64 25.5 -107t97.5 -43t112 43t60 107q9 68 -24.5 113.5t-98.5 45.5t-114 -46t-58 -113z" />
<glyph unicode="&#xf5;" horiz-adv-x="1462" d="M156 530q22 139 92 251t172 183.5t226.5 109.5t260.5 38t248.5 -38t192 -109.5t114.5 -183.5t13 -251q-21 -131 -93 -238t-175.5 -175t-227 -105t-252.5 -37t-241 37t-193.5 105t-119.5 175t-17 238zM524 1307q161 211 322 211q38 0 65.5 -10.5t65.5 -34.5q3 -2 22 -14.5 t27.5 -17t25.5 -10.5t31 -6q56 0 117 95l170 -103q-153 -227 -311 -227q-49 0 -111 27l-86 40q-50 25 -69 25q-24 0 -47.5 -17t-36 -33.5t-29.5 -43.5zM670 539q-10 -64 25.5 -107t97.5 -43t112 43t60 107q9 68 -24.5 113.5t-98.5 45.5t-114 -46t-58 -113z" />
<glyph unicode="&#xf6;" horiz-adv-x="1462" d="M156 530q22 139 92 251t172 183.5t226.5 109.5t260.5 38t248.5 -38t192 -109.5t114.5 -183.5t13 -251q-21 -131 -93 -238t-175.5 -175t-227 -105t-252.5 -37t-241 37t-193.5 105t-119.5 175t-17 238zM528 1358q10 70 68 120t129 50q70 0 112 -49.5t31 -120.5 q-10 -70 -67.5 -120t-128.5 -50q-70 0 -112.5 49.5t-31.5 120.5zM670 539q-10 -64 25.5 -107t97.5 -43t112 43t60 107q9 68 -24.5 113.5t-98.5 45.5t-114 -46t-58 -113zM1026 1358q10 70 68 120t129 50q70 0 112 -49.5t31 -120.5q-10 -70 -68 -120t-129 -50q-70 0 -112 49.5 t-31 120.5z" />
<glyph unicode="&#xf7;" horiz-adv-x="1638" d="M270 410l64 409h1229l-64 -409h-1229zM598 76q17 109 107.5 187.5t199.5 78.5t175.5 -78.5t49.5 -187.5t-108.5 -187.5t-200.5 -78.5t-174.5 78.5t-48.5 187.5zM768 1153q17 109 108.5 187.5t200.5 78.5t174.5 -78.5t48.5 -187.5t-107.5 -187.5t-199.5 -78.5t-175.5 78.5 t-49.5 187.5z" />
<glyph unicode="&#xf8;" horiz-adv-x="1462" d="M80 -20l184 165q-147 150 -108 385q22 139 92 251t172 183.5t226.5 109.5t260.5 38q205 0 350 -82l199 178l88 -98l-182 -162q155 -155 113 -418q-21 -131 -93 -238t-175.5 -175t-227 -105t-252.5 -37q-209 0 -354 86l-203 -182zM670 539q-10 -64 25.5 -107t97.5 -43 t112 43t60 107q9 68 -24.5 113.5t-98.5 45.5t-114 -46t-58 -113z" />
<glyph unicode="&#xf9;" horiz-adv-x="1427" d="M176 473l96 614h525l-88 -561q-4 -33 -6 -62t16.5 -49t58.5 -20q31 0 52 10.5t32.5 32t16.5 40t10 48.5l88 561h524l-96 -614q-16 -100 -63 -183.5t-114 -141t-152.5 -97t-177 -58t-187.5 -18.5t-182 18.5t-158 58t-121 97t-69.5 141t-4.5 183.5zM639 1440l283 170 l215 -338l-205 -127z" />
<glyph unicode="&#xfa;" horiz-adv-x="1427" d="M176 473l96 614h525l-88 -561q-4 -33 -6 -62t16.5 -49t58.5 -20q31 0 52 10.5t32.5 32t16.5 40t10 48.5l88 561h524l-96 -614q-16 -100 -63 -183.5t-114 -141t-152.5 -97t-177 -58t-187.5 -18.5t-182 18.5t-158 58t-121 97t-69.5 141t-4.5 183.5zM694 1272l322 338 l229 -170l-383 -295z" />
<glyph unicode="&#xfb;" horiz-adv-x="1427" d="M176 473l96 614h525l-88 -561q-4 -33 -6 -62t16.5 -49t58.5 -20q31 0 52 10.5t32.5 32t16.5 40t10 48.5l88 561h524l-96 -614q-16 -100 -63 -183.5t-114 -141t-152.5 -97t-177 -58t-187.5 -18.5t-182 18.5t-158 58t-121 97t-69.5 141t-4.5 183.5zM526 1374l447 236 l366 -236l-129 -209l-282 150l-336 -150z" />
<glyph unicode="&#xfc;" horiz-adv-x="1427" d="M176 473l96 614h525l-88 -561q-4 -33 -6 -62t16.5 -49t58.5 -20q31 0 52 10.5t32.5 32t16.5 40t10 48.5l88 561h524l-96 -614q-16 -100 -63 -183.5t-114 -141t-152.5 -97t-177 -58t-187.5 -18.5t-182 18.5t-158 58t-121 97t-69.5 141t-4.5 183.5zM512 1358q10 70 68 120 t129 50q70 0 112 -49.5t31 -120.5q-10 -70 -68 -120t-129 -50q-70 0 -112 49.5t-31 120.5zM1010 1358q10 70 67.5 120t128.5 50q70 0 112.5 -49.5t31.5 -120.5q-10 -70 -68 -120t-129 -50q-70 0 -112 49.5t-31 120.5z" />
<glyph unicode="&#xfd;" horiz-adv-x="1347" d="M68 -449l368 558l-309 978h569l54 -425l4 -166h14l53 166l189 425h555l-940 -1536h-557zM653 1272l322 338l229 -170l-383 -295z" />
<glyph unicode="&#xfe;" horiz-adv-x="1466" d="M33 -449l334 2110h528l-76 -485l-69 -261h18q46 90 147.5 143.5t208.5 53.5q74 0 136 -22.5t104 -62t73 -93t44 -115.5t17 -130t-9 -136q-16 -98 -62.5 -198.5t-115.5 -186t-166.5 -139.5t-204.5 -54q-92 0 -177.5 49t-115.5 126h-14l-4 -175l-68 -424h-528zM694 545 q-10 -65 19 -110.5t92 -45.5q59 0 106.5 50.5t55.5 109.5q9 59 -23 104t-90 45q-63 0 -106.5 -45t-53.5 -108z" />
<glyph unicode="&#xff;" horiz-adv-x="1347" d="M68 -449l368 558l-309 978h569l54 -425l4 -166h14l53 166l189 425h555l-940 -1536h-557zM502 1358q10 70 67.5 120t128.5 50q70 0 112.5 -49.5t31.5 -120.5q-10 -70 -68 -120t-129 -50q-70 0 -112 49.5t-31 120.5zM999 1358q10 70 68 120t129 50q70 0 112 -49.5 t31 -120.5q-10 -70 -67.5 -120t-128.5 -50q-70 0 -112.5 49.5t-31.5 120.5z" />
<glyph unicode="&#x152;" horiz-adv-x="2428" d="M190.5 572.5q-9.5 97.5 8.5 197.5q18 119 68.5 236t128.5 218t175 178.5t216.5 122t244.5 44.5q144 0 264 -62t170 -178h4l33 215h1037l-66 -422h-477l-25 -147h436l-63 -402h-436l-23 -151h496l-68 -422h-1054l30 195h-4q-90 -106 -230.5 -163t-279.5 -57 q-104 0 -195 31t-158 86.5t-119 130.5t-78 163.5t-35.5 186zM778 764q-19 -116 51 -198.5t187 -82.5q132 0 220 82.5t110 216.5q20 134 -42 211.5t-196 77.5q-125 0 -217 -89.5t-113 -217.5z" />
<glyph unicode="&#x153;" horiz-adv-x="2162" d="M143 530q27 171 131 305t255.5 205.5t322.5 71.5q105 0 217.5 -40.5t161.5 -110.5q89 74 194.5 112.5t194.5 38.5q139 0 254.5 -45t191.5 -129.5t104.5 -205.5t-5.5 -273h-768q-5 -39 -5.5 -67t7 -58t31 -46t63.5 -16t73.5 25.5t47.5 64.5h514q-40 -94 -116.5 -169.5 t-169 -122t-192.5 -71t-196 -24.5q-258 15 -364 150q-97 -70 -221 -110t-236 -40q-115 0 -214 42.5t-166.5 115t-98 176.5t-11.5 221zM657 539q-10 -64 25.5 -106t97.5 -42t112 42t60 106q9 67 -24.5 112t-98.5 45t-114 -45t-58 -112zM1434 684h247q8 56 -21.5 97.5 t-84.5 41.5q-57 0 -94 -40t-47 -99z" />
<glyph unicode="&#x178;" horiz-adv-x="1583" d="M227 1544h635l109 -403h16l74 145l151 258h631l-667 -878l-105 -666h-549l105 666zM682 1815q12 71 69.5 120.5t127.5 49.5q71 0 113 -50t30 -120q-10 -70 -68 -120t-129 -50q-70 0 -112 49.5t-31 120.5zM1180 1815q12 71 69 120.5t127 49.5q71 0 113.5 -50t30.5 -120 q-10 -70 -68 -120t-129 -50q-70 0 -112 49.5t-31 120.5z" />
<glyph unicode="&#x2c6;" horiz-adv-x="1228" d="M426 1374l446 236l367 -236l-129 -209l-283 150l-335 -150z" />
<glyph unicode="&#x2dc;" horiz-adv-x="1146" d="M367 1307q161 211 321 211q38 0 65.5 -10.5t65.5 -34.5q1 -1 21.5 -14t29 -17.5t25.5 -10.5t31 -6q24 0 48.5 17.5t37.5 34.5t30 43l170 -103q-153 -227 -311 -227q-48 0 -110 27l-86 40q-50 25 -70 25q-24 0 -47.5 -17t-36 -33.5t-29.5 -43.5z" />
<glyph unicode="&#x2000;" horiz-adv-x="1033" />
<glyph unicode="&#x2001;" horiz-adv-x="2066" />
<glyph unicode="&#x2002;" horiz-adv-x="1033" />
<glyph unicode="&#x2003;" horiz-adv-x="2066" />
<glyph unicode="&#x2004;" horiz-adv-x="688" />
<glyph unicode="&#x2005;" horiz-adv-x="516" />
<glyph unicode="&#x2006;" horiz-adv-x="344" />
<glyph unicode="&#x2007;" horiz-adv-x="344" />
<glyph unicode="&#x2008;" horiz-adv-x="258" />
<glyph unicode="&#x2009;" horiz-adv-x="413" />
<glyph unicode="&#x200a;" horiz-adv-x="114" />
<glyph unicode="&#x2010;" horiz-adv-x="993" d="M184 338l72 450h731l-72 -450h-731z" />
<glyph unicode="&#x2011;" horiz-adv-x="993" d="M184 338l72 450h731l-72 -450h-731z" />
<glyph unicode="&#x2012;" horiz-adv-x="993" d="M184 338l72 450h731l-72 -450h-731z" />
<glyph unicode="&#x2013;" horiz-adv-x="1024" d="M53 338l72 450h1024l-72 -450h-1024z" />
<glyph unicode="&#x2014;" horiz-adv-x="2048" d="M319 338l72 450h1516l-72 -450h-1516z" />
<glyph unicode="&#x2018;" horiz-adv-x="1009" d="M240 780l485 764h414l-369 -764h-530z" />
<glyph unicode="&#x2019;" horiz-adv-x="1009" d="M238 780l368 764h531l-488 -764h-411z" />
<glyph unicode="&#x201a;" horiz-adv-x="1009" d="M63 -340l369 764h531l-488 -764h-412z" />
<glyph unicode="&#x201c;" horiz-adv-x="1613" d="M233 780l486 764h414l-369 -764h-531zM848 780l485 764h414l-369 -764h-530z" />
<glyph unicode="&#x201d;" horiz-adv-x="1613" d="M233 780l369 764h531l-488 -764h-412zM848 780l369 764h530l-487 -764h-412z" />
<glyph unicode="&#x201e;" horiz-adv-x="1613" d="M57 -340l369 764h530l-487 -764h-412zM672 -340l368 764h531l-488 -764h-411z" />
<glyph unicode="&#x2022;" d="M590 772q25 161 154.5 274t293.5 113t256.5 -113t67.5 -274q-27 -160 -155 -272.5t-292 -112.5t-257.5 112.5t-67.5 272.5z" />
<glyph unicode="&#x2026;" horiz-adv-x="2048" d="M74 229q18 117 122 188.5t224 71.5t201 -71.5t63 -188.5q-19 -115 -122 -184.5t-224 -69.5t-202 69.5t-62 184.5zM756 229q18 117 122 188.5t224 71.5t201 -71.5t63 -188.5q-19 -115 -122 -184.5t-224 -69.5t-202 69.5t-62 184.5zM1438 229q18 117 122 188.5t224 71.5 t201 -71.5t63 -188.5q-19 -115 -122 -184.5t-224 -69.5t-202 69.5t-62 184.5z" />
<glyph unicode="&#x202f;" horiz-adv-x="413" />
<glyph unicode="&#x2039;" horiz-adv-x="720" d="M186 563l404 467l174 -143l-275 -324l166 -350l-217 -133z" />
<glyph unicode="&#x203a;" horiz-adv-x="720" d="M131 213l281 350l-172 324l219 143l256 -467l-408 -483z" />
<glyph unicode="&#x205f;" horiz-adv-x="516" />
<glyph unicode="&#x20ac;" d="M111 500l118 188h115q5 45 6 55l12 54h-204l118 188h132q42 104 94.5 186.5t132 158.5t178.5 126.5t236 80.5t303 30q154 0 264.5 -31t155.5 -68l-58 -360q-43 41 -137 68.5t-236 27.5q-63 0 -117.5 -8t-96.5 -22.5t-76 -34t-60.5 -45t-45.5 -52t-34 -57.5h666l-119 -188 h-596q-16 -48 -16 -109h543l-117 -188h-416q20 -82 101 -123t247 -41q112 0 229.5 29.5t174.5 68.5l-60 -368q-160 -89 -448 -89q-198 0 -341 34.5t-232 103.5t-134 163.5t-55 221.5h-227z" />
<glyph unicode="&#x2122;" horiz-adv-x="1945" d="M297 1343l31 201h702l-31 -201h-229l-102 -647h-246l102 647h-227zM977 696l133 848h324l96 -489h4l248 489h323l-133 -848h-200l102 647h-4l-334 -647h-123l-129 647h-4l-102 -647h-201z" />
<glyph unicode="&#xe000;" horiz-adv-x="1085" d="M0 0v1085h1085v-1085h-1085z" />
</font>
</defs>
</svg>
